<?xml version="1.0" encoding="us-ascii" standalone="no"?><svg xmlns="http://www.w3.org/2000/svg" xmlns:xlink="http://www.w3.org/1999/xlink" contentStyleType="text/css" height="1224px" preserveAspectRatio="none" style="width:1994px;height:1224px;background:#FFFFFF;" version="1.1" viewBox="0 0 1994 1224" width="1994px" zoomAndPan="magnify"><defs/><g><text fill="#000000" font-family="sans-serif" font-size="14" font-weight="bold" lengthAdjust="spacing" textLength="249" x="874.25" y="30.1074">Create Post-It - SharedBoardServer</text><rect fill="#FFFFFF" height="969.8574" style="stroke:#181818;stroke-width:1.0;" width="10" x="49.5" y="137.8633"/><rect fill="#FFFFFF" height="31.291" style="stroke:#181818;stroke-width:1.0;" width="10" x="173" y="161.1543"/><rect fill="#FFFFFF" height="30" style="stroke:#181818;stroke-width:1.0;" width="10" x="317" y="1077.7207"/><rect fill="#FFFFFF" height="31.291" style="stroke:#181818;stroke-width:1.0;" width="10" x="472.5" y="223.7363"/><rect fill="#FFFFFF" height="31.291" style="stroke:#181818;stroke-width:1.0;" width="10" x="472.5" y="1015.1387"/><rect fill="#FFFFFF" height="697.5293" style="stroke:#181818;stroke-width:1.0;" width="10" x="664.5" y="286.3184"/><rect fill="#FFFFFF" height="634.9473" style="stroke:#181818;stroke-width:1.0;" width="10" x="984.5" y="317.6094"/><rect fill="#FFFFFF" height="31.291" style="stroke:#181818;stroke-width:1.0;" width="10" x="1431.5" y="411.4824"/><rect fill="#FFFFFF" height="30" style="stroke:#181818;stroke-width:1.0;" width="10" x="1431.5" y="661.8105"/><rect fill="#FFFFFF" height="30" style="stroke:#181818;stroke-width:1.0;" width="10" x="1431.5" y="767.3926"/><rect fill="#FFFFFF" height="30" style="stroke:#181818;stroke-width:1.0;" width="10" x="1431.5" y="828.6836"/><rect fill="#FFFFFF" height="31.291" style="stroke:#181818;stroke-width:1.0;" width="10" x="1519.5" y="599.2285"/><line style="stroke:#181818;stroke-width:0.5;stroke-dasharray:5.0,5.0;" x1="54" x2="54" y1="127.8633" y2="1125.7207"/><line style="stroke:#181818;stroke-width:0.5;stroke-dasharray:5.0,5.0;" x1="178" x2="178" y1="127.8633" y2="1125.7207"/><line style="stroke:#181818;stroke-width:0.5;stroke-dasharray:5.0,5.0;" x1="322" x2="322" y1="127.8633" y2="1125.7207"/><line style="stroke:#181818;stroke-width:0.5;stroke-dasharray:5.0,5.0;" x1="477" x2="477" y1="127.8633" y2="1125.7207"/><line style="stroke:#181818;stroke-width:0.5;stroke-dasharray:5.0,5.0;" x1="669" x2="669" y1="127.8633" y2="1125.7207"/><line style="stroke:#181818;stroke-width:0.5;stroke-dasharray:5.0,5.0;" x1="989.5" x2="989.5" y1="127.8633" y2="1125.7207"/><line style="stroke:#181818;stroke-width:0.5;stroke-dasharray:5.0,5.0;" x1="1436.5" x2="1436.5" y1="127.8633" y2="1125.7207"/><line style="stroke:#181818;stroke-width:0.5;stroke-dasharray:5.0,5.0;" x1="1524.5" x2="1524.5" y1="127.8633" y2="1125.7207"/><line style="stroke:#181818;stroke-width:0.5;stroke-dasharray:5.0,5.0;" x1="1631.5" x2="1631.5" y1="127.8633" y2="1125.7207"/><line style="stroke:#181818;stroke-width:0.5;stroke-dasharray:5.0,5.0;" x1="1781.5" x2="1781.5" y1="127.8633" y2="1125.7207"/><line style="stroke:#181818;stroke-width:0.5;stroke-dasharray:5.0,5.0;" x1="1933.5" x2="1933.5" y1="127.8633" y2="1125.7207"/><rect fill="#E2E2F0" height="51.2422" rx="2.5" ry="2.5" style="stroke:#181818;stroke-width:0.5;" width="99" x="5" y="75.6211"/><text fill="#000000" font-family="sans-serif" font-size="14" font-style="italic" lengthAdjust="spacing" textLength="85" x="12" y="97.7285">&#171;Application&#187;</text><text fill="#000000" font-family="sans-serif" font-size="14" lengthAdjust="spacing" textLength="85" x="12" y="116.3496">: AttendClient</text><rect fill="#E2E2F0" height="51.2422" rx="2.5" ry="2.5" style="stroke:#181818;stroke-width:0.5;" width="99" x="5" y="1124.7207"/><text fill="#000000" font-family="sans-serif" font-size="14" font-style="italic" lengthAdjust="spacing" textLength="85" x="12" y="1146.8281">&#171;Application&#187;</text><text fill="#000000" font-family="sans-serif" font-size="14" lengthAdjust="spacing" textLength="85" x="12" y="1165.4492">: AttendClient</text><rect fill="#E2E2F0" height="32.6211" rx="2.5" ry="2.5" style="stroke:#181818;stroke-width:0.5;" width="128" x="114" y="94.2422"/><text fill="#000000" font-family="sans-serif" font-size="14" lengthAdjust="spacing" textLength="114" x="121" y="116.3496">: DataInputStream</text><rect fill="#E2E2F0" height="32.6211" rx="2.5" ry="2.5" style="stroke:#181818;stroke-width:0.5;" width="128" x="114" y="1124.7207"/><text fill="#000000" font-family="sans-serif" font-size="14" lengthAdjust="spacing" textLength="114" x="121" y="1146.8281">: DataInputStream</text><rect fill="#E2E2F0" height="32.6211" rx="2.5" ry="2.5" style="stroke:#181818;stroke-width:0.5;" width="140" x="252" y="94.2422"/><text fill="#000000" font-family="sans-serif" font-size="14" lengthAdjust="spacing" textLength="126" x="259" y="116.3496">: DataOutputStream</text><rect fill="#E2E2F0" height="32.6211" rx="2.5" ry="2.5" style="stroke:#181818;stroke-width:0.5;" width="140" x="252" y="1124.7207"/><text fill="#000000" font-family="sans-serif" font-size="14" lengthAdjust="spacing" textLength="126" x="259" y="1146.8281">: DataOutputStream</text><rect fill="#E2E2F0" height="32.6211" rx="2.5" ry="2.5" style="stroke:#181818;stroke-width:0.5;" width="151" x="402" y="94.2422"/><text fill="#000000" font-family="sans-serif" font-size="14" lengthAdjust="spacing" textLength="137" x="409" y="116.3496">: SBPMessageFormat</text><rect fill="#E2E2F0" height="32.6211" rx="2.5" ry="2.5" style="stroke:#181818;stroke-width:0.5;" width="151" x="402" y="1124.7207"/><text fill="#000000" font-family="sans-serif" font-size="14" lengthAdjust="spacing" textLength="137" x="409" y="1146.8281">: SBPMessageFormat</text><text fill="#000000" font-family="sans-serif" font-size="14" font-style="italic" lengthAdjust="spacing" textLength="84" x="624.5" y="105.7285">&#171;application&#187;</text><text fill="#000000" font-family="sans-serif" font-size="14" lengthAdjust="spacing" textLength="207" x="563" y="124.3496">UndoLastChangePostItController</text><ellipse cx="669.5" cy="74.6211" fill="#E2E2F0" rx="12" ry="12" style="stroke:#181818;stroke-width:0.5;"/><polygon fill="#181818" points="665.5,62.6211,671.5,57.6211,669.5,62.6211,671.5,67.6211,665.5,62.6211" style="stroke:#181818;stroke-width:1.0;"/><text fill="#000000" font-family="sans-serif" font-size="14" font-style="italic" lengthAdjust="spacing" textLength="84" x="624.5" y="1139.8281">&#171;application&#187;</text><text fill="#000000" font-family="sans-serif" font-size="14" lengthAdjust="spacing" textLength="207" x="563" y="1158.4492">UndoLastChangePostItController</text><ellipse cx="669.5" cy="1177.9629" fill="#E2E2F0" rx="12" ry="12" style="stroke:#181818;stroke-width:0.5;"/><polygon fill="#181818" points="665.5,1165.9629,671.5,1160.9629,669.5,1165.9629,671.5,1170.9629,665.5,1165.9629" style="stroke:#181818;stroke-width:1.0;"/><rect fill="#E2E2F0" height="51.2422" rx="2.5" ry="2.5" style="stroke:#181818;stroke-width:0.5;" width="206" x="886.5" y="75.6211"/><text fill="#000000" font-family="sans-serif" font-size="14" font-style="italic" lengthAdjust="spacing" textLength="84" x="947.5" y="97.7285">&#171;application&#187;</text><text fill="#000000" font-family="sans-serif" font-size="14" lengthAdjust="spacing" textLength="192" x="893.5" y="116.3496">UndoLastChangePostItService</text><rect fill="#E2E2F0" height="51.2422" rx="2.5" ry="2.5" style="stroke:#181818;stroke-width:0.5;" width="206" x="886.5" y="1124.7207"/><text fill="#000000" font-family="sans-serif" font-size="14" font-style="italic" lengthAdjust="spacing" textLength="84" x="947.5" y="1146.8281">&#171;application&#187;</text><text fill="#000000" font-family="sans-serif" font-size="14" lengthAdjust="spacing" textLength="192" x="893.5" y="1165.4492">UndoLastChangePostItService</text><rect fill="#E2E2F0" height="51.2422" rx="2.5" ry="2.5" style="stroke:#181818;stroke-width:0.5;" width="78" x="1397.5" y="75.6211"/><text fill="#000000" font-family="sans-serif" font-size="14" font-style="italic" lengthAdjust="spacing" textLength="64" x="1404.5" y="97.7285">&#171;Domain&#187;</text><text fill="#000000" font-family="sans-serif" font-size="14" lengthAdjust="spacing" textLength="46" x="1413.5" y="116.3496">: Board</text><rect fill="#E2E2F0" height="51.2422" rx="2.5" ry="2.5" style="stroke:#181818;stroke-width:0.5;" width="78" x="1397.5" y="1124.7207"/><text fill="#000000" font-family="sans-serif" font-size="14" font-style="italic" lengthAdjust="spacing" textLength="64" x="1404.5" y="1146.8281">&#171;Domain&#187;</text><text fill="#000000" font-family="sans-serif" font-size="14" lengthAdjust="spacing" textLength="46" x="1413.5" y="1165.4492">: Board</text><rect fill="#E2E2F0" height="51.2422" rx="2.5" ry="2.5" style="stroke:#181818;stroke-width:0.5;" width="78" x="1485.5" y="75.6211"/><text fill="#000000" font-family="sans-serif" font-size="14" font-style="italic" lengthAdjust="spacing" textLength="64" x="1492.5" y="97.7285">&#171;Domain&#187;</text><text fill="#000000" font-family="sans-serif" font-size="14" lengthAdjust="spacing" textLength="39" x="1505" y="116.3496">: Task</text><rect fill="#E2E2F0" height="51.2422" rx="2.5" ry="2.5" style="stroke:#181818;stroke-width:0.5;" width="78" x="1485.5" y="1124.7207"/><text fill="#000000" font-family="sans-serif" font-size="14" font-style="italic" lengthAdjust="spacing" textLength="64" x="1492.5" y="1146.8281">&#171;Domain&#187;</text><text fill="#000000" font-family="sans-serif" font-size="14" lengthAdjust="spacing" textLength="39" x="1505" y="1165.4492">: Task</text><text fill="#000000" font-family="sans-serif" font-size="14" font-style="italic" lengthAdjust="spacing" textLength="84" x="1587" y="105.7285">&#171;Repository&#187;</text><text fill="#000000" font-family="sans-serif" font-size="14" lengthAdjust="spacing" textLength="111" x="1573.5" y="124.3496">: PostItRepository</text><path d="M1614,54.6211 C1614,44.6211 1632,44.6211 1632,44.6211 C1632,44.6211 1650,44.6211 1650,54.6211 L1650,80.6211 C1650,90.6211 1632,90.6211 1632,90.6211 C1632,90.6211 1614,90.6211 1614,80.6211 L1614,54.6211 " fill="#E2E2F0" style="stroke:#181818;stroke-width:1.5;"/><path d="M1614,54.6211 C1614,64.6211 1632,64.6211 1632,64.6211 C1632,64.6211 1650,64.6211 1650,54.6211 " fill="none" style="stroke:#181818;stroke-width:1.5;"/><text fill="#000000" font-family="sans-serif" font-size="14" font-style="italic" lengthAdjust="spacing" textLength="84" x="1587" y="1139.8281">&#171;Repository&#187;</text><text fill="#000000" font-family="sans-serif" font-size="14" lengthAdjust="spacing" textLength="111" x="1573.5" y="1158.4492">: PostItRepository</text><path d="M1614,1171.9629 C1614,1161.9629 1632,1161.9629 1632,1161.9629 C1632,1161.9629 1650,1161.9629 1650,1171.9629 L1650,1197.9629 C1650,1207.9629 1632,1207.9629 1632,1207.9629 C1632,1207.9629 1614,1207.9629 1614,1197.9629 L1614,1171.9629 " fill="#E2E2F0" style="stroke:#181818;stroke-width:1.5;"/><path d="M1614,1171.9629 C1614,1181.9629 1632,1181.9629 1632,1181.9629 C1632,1181.9629 1650,1181.9629 1650,1171.9629 " fill="none" style="stroke:#181818;stroke-width:1.5;"/><text fill="#000000" font-family="sans-serif" font-size="14" font-style="italic" lengthAdjust="spacing" textLength="84" x="1737" y="105.7285">&#171;Repository&#187;</text><text fill="#000000" font-family="sans-serif" font-size="14" lengthAdjust="spacing" textLength="157" x="1700.5" y="124.3496">: BoardHistoryRepository</text><path d="M1764,54.6211 C1764,44.6211 1782,44.6211 1782,44.6211 C1782,44.6211 1800,44.6211 1800,54.6211 L1800,80.6211 C1800,90.6211 1782,90.6211 1782,90.6211 C1782,90.6211 1764,90.6211 1764,80.6211 L1764,54.6211 " fill="#E2E2F0" style="stroke:#181818;stroke-width:1.5;"/><path d="M1764,54.6211 C1764,64.6211 1782,64.6211 1782,64.6211 C1782,64.6211 1800,64.6211 1800,54.6211 " fill="none" style="stroke:#181818;stroke-width:1.5;"/><text fill="#000000" font-family="sans-serif" font-size="14" font-style="italic" lengthAdjust="spacing" textLength="84" x="1737" y="1139.8281">&#171;Repository&#187;</text><text fill="#000000" font-family="sans-serif" font-size="14" lengthAdjust="spacing" textLength="157" x="1700.5" y="1158.4492">: BoardHistoryRepository</text><path d="M1764,1171.9629 C1764,1161.9629 1782,1161.9629 1782,1161.9629 C1782,1161.9629 1800,1161.9629 1800,1171.9629 L1800,1197.9629 C1800,1207.9629 1782,1207.9629 1782,1207.9629 C1782,1207.9629 1764,1207.9629 1764,1197.9629 L1764,1171.9629 " fill="#E2E2F0" style="stroke:#181818;stroke-width:1.5;"/><path d="M1764,1171.9629 C1764,1181.9629 1782,1181.9629 1782,1181.9629 C1782,1181.9629 1800,1181.9629 1800,1171.9629 " fill="none" style="stroke:#181818;stroke-width:1.5;"/><text fill="#000000" font-family="sans-serif" font-size="14" font-style="italic" lengthAdjust="spacing" textLength="84" x="1888.5" y="105.7285">&#171;Repository&#187;</text><text fill="#000000" font-family="sans-serif" font-size="14" lengthAdjust="spacing" textLength="114" x="1873.5" y="124.3496">: BoardRepository</text><path d="M1915.5,54.6211 C1915.5,44.6211 1933.5,44.6211 1933.5,44.6211 C1933.5,44.6211 1951.5,44.6211 1951.5,54.6211 L1951.5,80.6211 C1951.5,90.6211 1933.5,90.6211 1933.5,90.6211 C1933.5,90.6211 1915.5,90.6211 1915.5,80.6211 L1915.5,54.6211 " fill="#E2E2F0" style="stroke:#181818;stroke-width:1.5;"/><path d="M1915.5,54.6211 C1915.5,64.6211 1933.5,64.6211 1933.5,64.6211 C1933.5,64.6211 1951.5,64.6211 1951.5,54.6211 " fill="none" style="stroke:#181818;stroke-width:1.5;"/><text fill="#000000" font-family="sans-serif" font-size="14" font-style="italic" lengthAdjust="spacing" textLength="84" x="1888.5" y="1139.8281">&#171;Repository&#187;</text><text fill="#000000" font-family="sans-serif" font-size="14" lengthAdjust="spacing" textLength="114" x="1873.5" y="1158.4492">: BoardRepository</text><path d="M1915.5,1171.9629 C1915.5,1161.9629 1933.5,1161.9629 1933.5,1161.9629 C1933.5,1161.9629 1951.5,1161.9629 1951.5,1171.9629 L1951.5,1197.9629 C1951.5,1207.9629 1933.5,1207.9629 1933.5,1207.9629 C1933.5,1207.9629 1915.5,1207.9629 1915.5,1197.9629 L1915.5,1171.9629 " fill="#E2E2F0" style="stroke:#181818;stroke-width:1.5;"/><path d="M1915.5,1171.9629 C1915.5,1181.9629 1933.5,1181.9629 1933.5,1181.9629 C1933.5,1181.9629 1951.5,1181.9629 1951.5,1171.9629 " fill="none" style="stroke:#181818;stroke-width:1.5;"/><rect fill="#FFFFFF" height="969.8574" style="stroke:#181818;stroke-width:1.0;" width="10" x="49.5" y="137.8633"/><rect fill="#FFFFFF" height="31.291" style="stroke:#181818;stroke-width:1.0;" width="10" x="173" y="161.1543"/><rect fill="#FFFFFF" height="30" style="stroke:#181818;stroke-width:1.0;" width="10" x="317" y="1077.7207"/><rect fill="#FFFFFF" height="31.291" style="stroke:#181818;stroke-width:1.0;" width="10" x="472.5" y="223.7363"/><rect fill="#FFFFFF" height="31.291" style="stroke:#181818;stroke-width:1.0;" width="10" x="472.5" y="1015.1387"/><rect fill="#FFFFFF" height="697.5293" style="stroke:#181818;stroke-width:1.0;" width="10" x="664.5" y="286.3184"/><rect fill="#FFFFFF" height="634.9473" style="stroke:#181818;stroke-width:1.0;" width="10" x="984.5" y="317.6094"/><rect fill="#FFFFFF" height="31.291" style="stroke:#181818;stroke-width:1.0;" width="10" x="1431.5" y="411.4824"/><rect fill="#FFFFFF" height="30" style="stroke:#181818;stroke-width:1.0;" width="10" x="1431.5" y="661.8105"/><rect fill="#FFFFFF" height="30" style="stroke:#181818;stroke-width:1.0;" width="10" x="1431.5" y="767.3926"/><rect fill="#FFFFFF" height="30" style="stroke:#181818;stroke-width:1.0;" width="10" x="1431.5" y="828.6836"/><rect fill="#FFFFFF" height="31.291" style="stroke:#181818;stroke-width:1.0;" width="10" x="1519.5" y="599.2285"/><polygon fill="#181818" points="161,157.1543,171,161.1543,161,165.1543,165,161.1543" style="stroke:#181818;stroke-width:1.0;"/><line style="stroke:#181818;stroke-width:1.0;" x1="59.5" x2="167" y1="161.1543" y2="161.1543"/><text fill="#000000" font-family="sans-serif" font-size="13" font-weight="bold" lengthAdjust="spacing" textLength="7" x="66.5" y="155.8916">1</text><text fill="#000000" font-family="sans-serif" font-size="13" lengthAdjust="spacing" textLength="57" x="77.5" y="155.8916">readUTF()</text><polygon fill="#181818" points="70.5,188.4453,60.5,192.4453,70.5,196.4453,66.5,192.4453" style="stroke:#181818;stroke-width:1.0;"/><line style="stroke:#181818;stroke-width:1.0;stroke-dasharray:2.0,2.0;" x1="64.5" x2="177" y1="192.4453" y2="192.4453"/><text fill="#000000" font-family="sans-serif" font-size="13" font-weight="bold" lengthAdjust="spacing" textLength="7" x="76.5" y="187.1826">2</text><text fill="#000000" font-family="sans-serif" font-size="13" lengthAdjust="spacing" textLength="53" x="87.5" y="187.1826">message</text><polygon fill="#181818" points="460.5,219.7363,470.5,223.7363,460.5,227.7363,464.5,223.7363" style="stroke:#181818;stroke-width:1.0;"/><line style="stroke:#181818;stroke-width:1.0;" x1="59.5" x2="466.5" y1="223.7363" y2="223.7363"/><text fill="#000000" font-family="sans-serif" font-size="13" font-weight="bold" lengthAdjust="spacing" textLength="7" x="66.5" y="218.4736">3</text><text fill="#000000" font-family="sans-serif" font-size="13" lengthAdjust="spacing" textLength="148" x="77.5" y="218.4736">decodeParams(message)</text><polygon fill="#181818" points="70.5,251.0273,60.5,255.0273,70.5,259.0273,66.5,255.0273" style="stroke:#181818;stroke-width:1.0;"/><line style="stroke:#181818;stroke-width:1.0;stroke-dasharray:2.0,2.0;" x1="64.5" x2="476.5" y1="255.0273" y2="255.0273"/><text fill="#000000" font-family="sans-serif" font-size="13" font-weight="bold" lengthAdjust="spacing" textLength="7" x="76.5" y="249.7646">4</text><text fill="#000000" font-family="sans-serif" font-size="13" lengthAdjust="spacing" textLength="43" x="87.5" y="249.7646">params</text><polygon fill="#181818" points="652.5,282.3184,662.5,286.3184,652.5,290.3184,656.5,286.3184" style="stroke:#181818;stroke-width:1.0;"/><line style="stroke:#181818;stroke-width:1.0;" x1="59.5" x2="658.5" y1="286.3184" y2="286.3184"/><text fill="#000000" font-family="sans-serif" font-size="13" font-weight="bold" lengthAdjust="spacing" textLength="7" x="66.5" y="281.0557">5</text><text fill="#000000" font-family="sans-serif" font-size="13" lengthAdjust="spacing" textLength="280" x="77.5" y="281.0557">undoLastChangInPostIt(boardTittle, column, row)</text><polygon fill="#181818" points="972.5,313.6094,982.5,317.6094,972.5,321.6094,976.5,317.6094" style="stroke:#181818;stroke-width:1.0;"/><line style="stroke:#181818;stroke-width:1.0;" x1="674.5" x2="978.5" y1="317.6094" y2="317.6094"/><text fill="#000000" font-family="sans-serif" font-size="13" font-weight="bold" lengthAdjust="spacing" textLength="7" x="681.5" y="312.3467">6</text><text fill="#000000" font-family="sans-serif" font-size="13" lengthAdjust="spacing" textLength="280" x="692.5" y="312.3467">undoLastChangInPostIt(boardTittle, column, row)</text><polygon fill="#181818" points="1921.5,344.9004,1931.5,348.9004,1921.5,352.9004,1925.5,348.9004" style="stroke:#181818;stroke-width:1.0;"/><line style="stroke:#181818;stroke-width:1.0;" x1="994.5" x2="1927.5" y1="348.9004" y2="348.9004"/><text fill="#000000" font-family="sans-serif" font-size="13" font-weight="bold" lengthAdjust="spacing" textLength="7" x="1001.5" y="343.6377">7</text><text fill="#000000" font-family="sans-serif" font-size="13" lengthAdjust="spacing" textLength="158" x="1012.5" y="343.6377">findBoardByTitle(boardTitle)</text><polygon fill="#181818" points="1005.5,376.1914,995.5,380.1914,1005.5,384.1914,1001.5,380.1914" style="stroke:#181818;stroke-width:1.0;"/><line style="stroke:#181818;stroke-width:1.0;" x1="999.5" x2="1932.5" y1="380.1914" y2="380.1914"/><text fill="#000000" font-family="sans-serif" font-size="13" font-weight="bold" lengthAdjust="spacing" textLength="7" x="1011.5" y="374.9287">8</text><text fill="#000000" font-family="sans-serif" font-size="13" lengthAdjust="spacing" textLength="32" x="1022.5" y="374.9287">board</text><polygon fill="#181818" points="1419.5,407.4824,1429.5,411.4824,1419.5,415.4824,1423.5,411.4824" style="stroke:#181818;stroke-width:1.0;"/><line style="stroke:#181818;stroke-width:1.0;" x1="994.5" x2="1425.5" y1="411.4824" y2="411.4824"/><text fill="#000000" font-family="sans-serif" font-size="13" font-weight="bold" lengthAdjust="spacing" textLength="7" x="1001.5" y="406.2197">9</text><text fill="#000000" font-family="sans-serif" font-size="13" lengthAdjust="spacing" textLength="407" x="1012.5" y="406.2197">verifyPostItCanBeUpdated(row, column, boardParticipant, boardOwner)</text><polygon fill="#181818" points="1005.5,438.7734,995.5,442.7734,1005.5,446.7734,1001.5,442.7734" style="stroke:#181818;stroke-width:1.0;"/><line style="stroke:#181818;stroke-width:1.0;stroke-dasharray:2.0,2.0;" x1="999.5" x2="1435.5" y1="442.7734" y2="442.7734"/><text fill="#000000" font-family="sans-serif" font-size="13" font-weight="bold" lengthAdjust="spacing" textLength="14" x="1011.5" y="437.5107">10</text><text fill="#000000" font-family="sans-serif" font-size="13" lengthAdjust="spacing" textLength="32" x="1029.5" y="437.5107">postIt</text><polygon fill="#181818" points="1620,470.0645,1630,474.0645,1620,478.0645,1624,474.0645" style="stroke:#181818;stroke-width:1.0;"/><line style="stroke:#181818;stroke-width:1.0;" x1="994.5" x2="1626" y1="474.0645" y2="474.0645"/><text fill="#000000" font-family="sans-serif" font-size="13" font-weight="bold" lengthAdjust="spacing" textLength="14" x="1001.5" y="468.8018">11</text><text fill="#000000" font-family="sans-serif" font-size="13" lengthAdjust="spacing" textLength="204" x="1019.5" y="468.8018">getLastVersionOfPostIt(version, id);</text><polygon fill="#181818" points="1005.5,501.3555,995.5,505.3555,1005.5,509.3555,1001.5,505.3555" style="stroke:#181818;stroke-width:1.0;"/><line style="stroke:#181818;stroke-width:1.0;" x1="999.5" x2="1631" y1="505.3555" y2="505.3555"/><text fill="#000000" font-family="sans-serif" font-size="13" font-weight="bold" lengthAdjust="spacing" textLength="14" x="1011.5" y="500.0928">12</text><text fill="#000000" font-family="sans-serif" font-size="13" lengthAdjust="spacing" textLength="55" x="1029.5" y="500.0928">lastPostIt</text><polygon fill="#181818" points="1770,532.6465,1780,536.6465,1770,540.6465,1774,536.6465" style="stroke:#181818;stroke-width:1.0;"/><line style="stroke:#181818;stroke-width:1.0;" x1="994.5" x2="1776" y1="536.6465" y2="536.6465"/><text fill="#000000" font-family="sans-serif" font-size="13" font-weight="bold" lengthAdjust="spacing" textLength="14" x="1001.5" y="531.3838">13</text><text fill="#000000" font-family="sans-serif" font-size="13" lengthAdjust="spacing" textLength="168" x="1019.5" y="531.3838">getLastTaskForPostIt(postIt);</text><polygon fill="#181818" points="1005.5,563.9375,995.5,567.9375,1005.5,571.9375,1001.5,567.9375" style="stroke:#181818;stroke-width:1.0;"/><line style="stroke:#181818;stroke-width:1.0;" x1="999.5" x2="1781" y1="567.9375" y2="567.9375"/><text fill="#000000" font-family="sans-serif" font-size="13" font-weight="bold" lengthAdjust="spacing" textLength="14" x="1011.5" y="562.6748">14</text><text fill="#000000" font-family="sans-serif" font-size="13" lengthAdjust="spacing" textLength="25" x="1029.5" y="562.6748">task</text><polygon fill="#181818" points="1507.5,595.2285,1517.5,599.2285,1507.5,603.2285,1511.5,599.2285" style="stroke:#181818;stroke-width:1.0;"/><line style="stroke:#181818;stroke-width:1.0;" x1="994.5" x2="1513.5" y1="599.2285" y2="599.2285"/><text fill="#000000" font-family="sans-serif" font-size="13" font-weight="bold" lengthAdjust="spacing" textLength="14" x="1001.5" y="593.9658">15</text><text fill="#000000" font-family="sans-serif" font-size="13" lengthAdjust="spacing" textLength="177" x="1019.5" y="593.9658">verify last task related to postIt</text><polygon fill="#181818" points="1005.5,626.5195,995.5,630.5195,1005.5,634.5195,1001.5,630.5195" style="stroke:#181818;stroke-width:1.0;"/><line style="stroke:#181818;stroke-width:1.0;stroke-dasharray:2.0,2.0;" x1="999.5" x2="1523.5" y1="630.5195" y2="630.5195"/><text fill="#000000" font-family="sans-serif" font-size="13" font-weight="bold" lengthAdjust="spacing" textLength="14" x="1011.5" y="625.2568">16</text><text fill="#000000" font-family="sans-serif" font-size="13" lengthAdjust="spacing" textLength="45" x="1029.5" y="625.2568">boolean</text><polygon fill="#181818" points="1419.5,657.8105,1429.5,661.8105,1419.5,665.8105,1423.5,661.8105" style="stroke:#181818;stroke-width:1.0;"/><line style="stroke:#181818;stroke-width:1.0;" x1="994.5" x2="1425.5" y1="661.8105" y2="661.8105"/><text fill="#000000" font-family="sans-serif" font-size="13" font-weight="bold" lengthAdjust="spacing" textLength="14" x="1001.5" y="656.5479">17</text><text fill="#000000" font-family="sans-serif" font-size="13" lengthAdjust="spacing" textLength="149" x="1019.5" y="656.5479">undo last change in postIt</text><line style="stroke:#181818;stroke-width:1.0;" x1="994.5" x2="1036.5" y1="723.1016" y2="723.1016"/><line style="stroke:#181818;stroke-width:1.0;" x1="1036.5" x2="1036.5" y1="723.1016" y2="736.1016"/><line style="stroke:#181818;stroke-width:1.0;" x1="995.5" x2="1036.5" y1="736.1016" y2="736.1016"/><polygon fill="#181818" points="1005.5,732.1016,995.5,736.1016,1005.5,740.1016,1001.5,736.1016" style="stroke:#181818;stroke-width:1.0;"/><text fill="#000000" font-family="sans-serif" font-size="13" font-weight="bold" lengthAdjust="spacing" textLength="14" x="1001.5" y="717.8389">18</text><text fill="#000000" font-family="sans-serif" font-size="13" lengthAdjust="spacing" textLength="271" x="1019.5" y="717.8389">verify if user is owner or participant in the board</text><polygon fill="#181818" points="1419.5,763.3926,1429.5,767.3926,1419.5,771.3926,1423.5,767.3926" style="stroke:#181818;stroke-width:1.0;"/><line style="stroke:#181818;stroke-width:1.0;" x1="994.5" x2="1425.5" y1="767.3926" y2="767.3926"/><text fill="#000000" font-family="sans-serif" font-size="13" font-weight="bold" lengthAdjust="spacing" textLength="14" x="1001.5" y="762.1299">19</text><text fill="#000000" font-family="sans-serif" font-size="13" lengthAdjust="spacing" textLength="137" x="1019.5" y="762.1299">addTaskToHistory(task)</text><polygon fill="#181818" points="1419.5,824.6836,1429.5,828.6836,1419.5,832.6836,1423.5,828.6836" style="stroke:#181818;stroke-width:1.0;"/><line style="stroke:#181818;stroke-width:1.0;" x1="994.5" x2="1425.5" y1="828.6836" y2="828.6836"/><text fill="#000000" font-family="sans-serif" font-size="13" font-weight="bold" lengthAdjust="spacing" textLength="14" x="1001.5" y="823.4209">20</text><text fill="#000000" font-family="sans-serif" font-size="13" lengthAdjust="spacing" textLength="155" x="1019.5" y="823.4209">addNotification(notification)</text><polygon fill="#181818" points="1620,885.9746,1630,889.9746,1620,893.9746,1624,889.9746" style="stroke:#181818;stroke-width:1.0;"/><line style="stroke:#181818;stroke-width:1.0;" x1="994.5" x2="1626" y1="889.9746" y2="889.9746"/><text fill="#000000" font-family="sans-serif" font-size="13" font-weight="bold" lengthAdjust="spacing" textLength="14" x="1001.5" y="884.7119">21</text><text fill="#000000" font-family="sans-serif" font-size="13" lengthAdjust="spacing" textLength="66" x="1019.5" y="884.7119">save(postIt)</text><polygon fill="#181818" points="1921.5,917.2656,1931.5,921.2656,1921.5,925.2656,1925.5,921.2656" style="stroke:#181818;stroke-width:1.0;"/><line style="stroke:#181818;stroke-width:1.0;" x1="994.5" x2="1927.5" y1="921.2656" y2="921.2656"/><text fill="#000000" font-family="sans-serif" font-size="13" font-weight="bold" lengthAdjust="spacing" textLength="14" x="1001.5" y="916.0029">22</text><text fill="#000000" font-family="sans-serif" font-size="13" lengthAdjust="spacing" textLength="66" x="1019.5" y="916.0029">save(board)</text><polygon fill="#181818" points="685.5,948.5566,675.5,952.5566,685.5,956.5566,681.5,952.5566" style="stroke:#181818;stroke-width:1.0;"/><line style="stroke:#181818;stroke-width:1.0;stroke-dasharray:2.0,2.0;" x1="679.5" x2="988.5" y1="952.5566" y2="952.5566"/><text fill="#000000" font-family="sans-serif" font-size="13" font-weight="bold" lengthAdjust="spacing" textLength="14" x="691.5" y="947.2939">23</text><text fill="#000000" font-family="sans-serif" font-size="13" lengthAdjust="spacing" textLength="22" x="709.5" y="947.2939">true</text><polygon fill="#181818" points="70.5,979.8477,60.5,983.8477,70.5,987.8477,66.5,983.8477" style="stroke:#181818;stroke-width:1.0;"/><line style="stroke:#181818;stroke-width:1.0;stroke-dasharray:2.0,2.0;" x1="64.5" x2="668.5" y1="983.8477" y2="983.8477"/><text fill="#000000" font-family="sans-serif" font-size="13" font-weight="bold" lengthAdjust="spacing" textLength="14" x="76.5" y="978.585">24</text><text fill="#000000" font-family="sans-serif" font-size="13" lengthAdjust="spacing" textLength="22" x="94.5" y="978.585">true</text><polygon fill="#181818" points="460.5,1011.1387,470.5,1015.1387,460.5,1019.1387,464.5,1015.1387" style="stroke:#181818;stroke-width:1.0;"/><line style="stroke:#181818;stroke-width:1.0;" x1="59.5" x2="466.5" y1="1015.1387" y2="1015.1387"/><text fill="#000000" font-family="sans-serif" font-size="13" font-weight="bold" lengthAdjust="spacing" textLength="14" x="66.5" y="1009.876">25</text><text fill="#000000" font-family="sans-serif" font-size="13" lengthAdjust="spacing" textLength="169" x="84.5" y="1009.876">createAcknowledgeRequest()</text><polygon fill="#181818" points="70.5,1042.4297,60.5,1046.4297,70.5,1050.4297,66.5,1046.4297" style="stroke:#181818;stroke-width:1.0;"/><line style="stroke:#181818;stroke-width:1.0;stroke-dasharray:2.0,2.0;" x1="64.5" x2="476.5" y1="1046.4297" y2="1046.4297"/><text fill="#000000" font-family="sans-serif" font-size="13" font-weight="bold" lengthAdjust="spacing" textLength="14" x="76.5" y="1041.167">26</text><text fill="#000000" font-family="sans-serif" font-size="13" lengthAdjust="spacing" textLength="69" x="94.5" y="1041.167">ackRequest</text><polygon fill="#181818" points="305,1073.7207,315,1077.7207,305,1081.7207,309,1077.7207" style="stroke:#181818;stroke-width:1.0;"/><line style="stroke:#181818;stroke-width:1.0;" x1="59.5" x2="311" y1="1077.7207" y2="1077.7207"/><text fill="#000000" font-family="sans-serif" font-size="13" font-weight="bold" lengthAdjust="spacing" textLength="14" x="66.5" y="1072.458">27</text><text fill="#000000" font-family="sans-serif" font-size="13" lengthAdjust="spacing" textLength="128" x="84.5" y="1072.458">writeUTF(ackRequest)</text><!--SRC=[fLLDR-8m4BtdLrWz1Qdz0snLYQIgYiGk4OIzctYWLXCxQqz0_VSxTWmn0RQ7FSP-xyt7ct5uXrfrpHPCWX9hOBa1Zi0ARV5fZko9hJ-u0P5fRiGQp860ISiDoagsN25xcB8P8YYHrn8KFZ1ksIndpy-pjgrbnL5gzV8ofhnov7FLThX6YjTurkjyVGksx724MrxXrbdn4wpbUtZJfk5z5kxmBQcqGgDhzh1HGY-unVo3gpsu-kQOzvSr6C_8ozM2CkVtCxybuheYA_0AcqM-_hV2bFbMUdH6q5VTS7a3LNBxwK5b31BKa2stu11zz1MqsahKvikZYnN1XxCHnOT-bzPTZOZP-_VCCUMAaV0AvS7DponFQ0gUNfohRCh8FB4ftzB9W71s6y3EADRqtWM6zuqu0YejeE26DpODa8ZVsniKMeyA0jx6AUjYh-QgRrUwTOMK4cdM7rcbwwvHZypeOwJi-8aN8J7lw7-8ENwIU1LIevPDsKwgVf-ohzBjt5ccfle8CKJr5n6RZcW1vUuhZ2zN6MnQyWb4Ic6773on62Ogd2oF2aoKN7RkdzTB14HNfwY5otaFwCh_3SRIK2zteG67_lkHIJ7vaHHnxZN1UrHKm7kavIQSrZKezHcGYCCCAaYWWL-U6-3b_ItDLkqQm52VoZWNKPxgssfT0rTnWULbNvt1lMZbTvj9TIMNNJRep0-vXipaZdKM39EMQTTlfWsBbvk4yGE2jt4AN0ZNarA73KrTUPExuKVKNnhbBZmwgOe-lbVm3bj-W9CBb_FgRtowarFDmvQXwI1MzVFUBm-1Q26l8Nw_BdUzyd-TMVMfzB46iOSL_Ed0OdfluNdr6I2dTsRfB3WQYU0Uck4-VdBepn7bCVga9-il]--></g></svg>