<?xml version="1.0" encoding="UTF-8" standalone="no"?><svg xmlns="http://www.w3.org/2000/svg" xmlns:xlink="http://www.w3.org/1999/xlink" contentStyleType="text/css" height="837px" preserveAspectRatio="none" style="width:1161px;height:837px;background:#FFFFFF;" version="1.1" viewBox="0 0 1161 837" width="1161px" zoomAndPan="magnify"><defs/><g><!--MD5=[040d698e3822dce21328106a768c93af]
class CreateCourseUI--><g id="elem_CreateCourseUI"><rect codeLine="2" fill="#F1F1F1" height="63.6406" id="CreateCourseUI" rx="2.5" ry="2.5" style="stroke:#181818;stroke-width:0.5;" width="133" x="648" y="7"/><ellipse cx="663" cy="23" fill="#ADD1B2" rx="11" ry="11" style="stroke:#181818;stroke-width:1.0;"/><path d="M665.7656,18.875 Q665.9219,18.6563 666.1094,18.5469 Q666.2969,18.4375 666.5156,18.4375 Q666.8906,18.4375 667.125,18.7031 Q667.3594,18.9531 667.3594,19.5625 L667.3594,21.0156 Q667.3594,21.625 667.125,21.8906 Q666.8906,22.1563 666.5156,22.1563 Q666.1719,22.1563 665.9688,21.9531 Q665.7656,21.7656 665.6563,21.25 Q665.6094,20.8906 665.4219,20.7031 Q665.0938,20.3281 664.4844,20.1094 Q663.875,19.8906 663.25,19.8906 Q662.4844,19.8906 661.8438,20.2188 Q661.2188,20.5469 660.7188,21.2969 Q660.2344,22.0469 660.2344,23.0781 L660.2344,24.1719 Q660.2344,25.4063 661.125,26.2344 Q662.0156,27.0469 663.6094,27.0469 Q664.5469,27.0469 665.2031,26.7969 Q665.5938,26.6406 666.0156,26.2031 Q666.2813,25.9375 666.4219,25.8594 Q666.5781,25.7813 666.7813,25.7813 Q667.1094,25.7813 667.3594,26.0469 Q667.625,26.2969 667.625,26.6406 Q667.625,26.9844 667.2813,27.3906 Q666.7813,27.9688 665.9844,28.2969 Q664.9063,28.75 663.6094,28.75 Q662.0938,28.75 660.8906,28.125 Q659.9063,27.625 659.2188,26.5625 Q658.5313,25.4844 658.5313,24.2031 L658.5313,23.0469 Q658.5313,21.7188 659.1406,20.5781 Q659.7656,19.4219 660.8594,18.8125 Q661.9531,18.1875 663.1875,18.1875 Q663.9219,18.1875 664.5625,18.3594 Q665.2188,18.5156 665.7656,18.875 Z " fill="#000000"/><text fill="#000000" font-family="sans-serif" font-size="14" lengthAdjust="spacing" textLength="101" x="677" y="27.8535">CreateCourseUI</text><line style="stroke:#181818;stroke-width:0.5;" x1="649" x2="780" y1="39" y2="39"/><line style="stroke:#181818;stroke-width:0.5;" x1="649" x2="780" y1="47" y2="47"/><ellipse cx="659" cy="60.3203" fill="#84BE84" rx="3" ry="3" style="stroke:#038048;stroke-width:1.0;"/><text fill="#000000" font-family="sans-serif" font-size="14" lengthAdjust="spacing" textLength="60" x="668" y="63.6738">doShow()</text></g><!--MD5=[da26703859f477a8bbe6420799c9dcde]
class CreateCourseController--><g id="elem_CreateCourseController"><rect codeLine="5" fill="#F1F1F1" height="63.6406" id="CreateCourseController" rx="2.5" ry="2.5" style="stroke:#181818;stroke-width:0.5;" width="879" x="275" y="131"/><ellipse cx="634.75" cy="147" fill="#ADD1B2" rx="11" ry="11" style="stroke:#181818;stroke-width:1.0;"/><path d="M637.5156,142.875 Q637.6719,142.6563 637.8594,142.5469 Q638.0469,142.4375 638.2656,142.4375 Q638.6406,142.4375 638.875,142.7031 Q639.1094,142.9531 639.1094,143.5625 L639.1094,145.0156 Q639.1094,145.625 638.875,145.8906 Q638.6406,146.1563 638.2656,146.1563 Q637.9219,146.1563 637.7188,145.9531 Q637.5156,145.7656 637.4063,145.25 Q637.3594,144.8906 637.1719,144.7031 Q636.8438,144.3281 636.2344,144.1094 Q635.625,143.8906 635,143.8906 Q634.2344,143.8906 633.5938,144.2188 Q632.9688,144.5469 632.4688,145.2969 Q631.9844,146.0469 631.9844,147.0781 L631.9844,148.1719 Q631.9844,149.4063 632.875,150.2344 Q633.7656,151.0469 635.3594,151.0469 Q636.2969,151.0469 636.9531,150.7969 Q637.3438,150.6406 637.7656,150.2031 Q638.0313,149.9375 638.1719,149.8594 Q638.3281,149.7813 638.5313,149.7813 Q638.8594,149.7813 639.1094,150.0469 Q639.375,150.2969 639.375,150.6406 Q639.375,150.9844 639.0313,151.3906 Q638.5313,151.9688 637.7344,152.2969 Q636.6563,152.75 635.3594,152.75 Q633.8438,152.75 632.6406,152.125 Q631.6563,151.625 630.9688,150.5625 Q630.2813,149.4844 630.2813,148.2031 L630.2813,147.0469 Q630.2813,145.7188 630.8906,144.5781 Q631.5156,143.4219 632.6094,142.8125 Q633.7031,142.1875 634.9375,142.1875 Q635.6719,142.1875 636.3125,142.3594 Q636.9688,142.5156 637.5156,142.875 Z " fill="#000000"/><text fill="#000000" font-family="sans-serif" font-size="14" lengthAdjust="spacing" textLength="151" x="655.25" y="151.8535">CreateCourseController</text><line style="stroke:#181818;stroke-width:0.5;" x1="276" x2="1153" y1="163" y2="163"/><line style="stroke:#181818;stroke-width:0.5;" x1="276" x2="1153" y1="171" y2="171"/><ellipse cx="286" cy="184.3203" fill="#84BE84" rx="3" ry="3" style="stroke:#038048;stroke-width:1.0;"/><text fill="#000000" font-family="sans-serif" font-size="14" lengthAdjust="spacing" textLength="853" x="295" y="187.6738">createCourse(courseId : String, courseTitle : String, courseName : String, description : String, maxEnrollments : int, minEnrollments : int)</text></g><!--MD5=[172e4148a6245258cfb6b8bf0f5a96a7]
class CreateCourseService--><g id="elem_CreateCourseService"><rect codeLine="8" fill="#F1F1F1" height="63.6406" id="CreateCourseService" rx="2.5" ry="2.5" style="stroke:#181818;stroke-width:0.5;" width="879" x="275" y="255"/><ellipse cx="642.25" cy="271" fill="#ADD1B2" rx="11" ry="11" style="stroke:#181818;stroke-width:1.0;"/><path d="M645.0156,266.875 Q645.1719,266.6563 645.3594,266.5469 Q645.5469,266.4375 645.7656,266.4375 Q646.1406,266.4375 646.375,266.7031 Q646.6094,266.9531 646.6094,267.5625 L646.6094,269.0156 Q646.6094,269.625 646.375,269.8906 Q646.1406,270.1563 645.7656,270.1563 Q645.4219,270.1563 645.2188,269.9531 Q645.0156,269.7656 644.9063,269.25 Q644.8594,268.8906 644.6719,268.7031 Q644.3438,268.3281 643.7344,268.1094 Q643.125,267.8906 642.5,267.8906 Q641.7344,267.8906 641.0938,268.2188 Q640.4688,268.5469 639.9688,269.2969 Q639.4844,270.0469 639.4844,271.0781 L639.4844,272.1719 Q639.4844,273.4063 640.375,274.2344 Q641.2656,275.0469 642.8594,275.0469 Q643.7969,275.0469 644.4531,274.7969 Q644.8438,274.6406 645.2656,274.2031 Q645.5313,273.9375 645.6719,273.8594 Q645.8281,273.7813 646.0313,273.7813 Q646.3594,273.7813 646.6094,274.0469 Q646.875,274.2969 646.875,274.6406 Q646.875,274.9844 646.5313,275.3906 Q646.0313,275.9688 645.2344,276.2969 Q644.1563,276.75 642.8594,276.75 Q641.3438,276.75 640.1406,276.125 Q639.1563,275.625 638.4688,274.5625 Q637.7813,273.4844 637.7813,272.2031 L637.7813,271.0469 Q637.7813,269.7188 638.3906,268.5781 Q639.0156,267.4219 640.1094,266.8125 Q641.2031,266.1875 642.4375,266.1875 Q643.1719,266.1875 643.8125,266.3594 Q644.4688,266.5156 645.0156,266.875 Z " fill="#000000"/><text fill="#000000" font-family="sans-serif" font-size="14" lengthAdjust="spacing" textLength="136" x="662.75" y="275.8535">CreateCourseService</text><line style="stroke:#181818;stroke-width:0.5;" x1="276" x2="1153" y1="287" y2="287"/><line style="stroke:#181818;stroke-width:0.5;" x1="276" x2="1153" y1="295" y2="295"/><ellipse cx="286" cy="308.3203" fill="#84BE84" rx="3" ry="3" style="stroke:#038048;stroke-width:1.0;"/><text fill="#000000" font-family="sans-serif" font-size="14" lengthAdjust="spacing" textLength="853" x="295" y="311.6738">createCourse(courseId : String, courseTitle : String, courseName : String, description : String, maxEnrollments : int, minEnrollments : int)</text></g><!--MD5=[f4b04eddcc4fa21e8761cbc19e424e3e]
class CourseFactory--><g id="elem_CourseFactory"><rect codeLine="11" fill="#F1F1F1" height="63.6406" id="CourseFactory" rx="2.5" ry="2.5" style="stroke:#181818;stroke-width:0.5;" width="869" x="7" y="379"/><ellipse cx="390.25" cy="395" fill="#ADD1B2" rx="11" ry="11" style="stroke:#181818;stroke-width:1.0;"/><path d="M393.0156,390.875 Q393.1719,390.6563 393.3594,390.5469 Q393.5469,390.4375 393.7656,390.4375 Q394.1406,390.4375 394.375,390.7031 Q394.6094,390.9531 394.6094,391.5625 L394.6094,393.0156 Q394.6094,393.625 394.375,393.8906 Q394.1406,394.1563 393.7656,394.1563 Q393.4219,394.1563 393.2188,393.9531 Q393.0156,393.7656 392.9063,393.25 Q392.8594,392.8906 392.6719,392.7031 Q392.3438,392.3281 391.7344,392.1094 Q391.125,391.8906 390.5,391.8906 Q389.7344,391.8906 389.0938,392.2188 Q388.4688,392.5469 387.9688,393.2969 Q387.4844,394.0469 387.4844,395.0781 L387.4844,396.1719 Q387.4844,397.4063 388.375,398.2344 Q389.2656,399.0469 390.8594,399.0469 Q391.7969,399.0469 392.4531,398.7969 Q392.8438,398.6406 393.2656,398.2031 Q393.5313,397.9375 393.6719,397.8594 Q393.8281,397.7813 394.0313,397.7813 Q394.3594,397.7813 394.6094,398.0469 Q394.875,398.2969 394.875,398.6406 Q394.875,398.9844 394.5313,399.3906 Q394.0313,399.9688 393.2344,400.2969 Q392.1563,400.75 390.8594,400.75 Q389.3438,400.75 388.1406,400.125 Q387.1563,399.625 386.4688,398.5625 Q385.7813,397.4844 385.7813,396.2031 L385.7813,395.0469 Q385.7813,393.7188 386.3906,392.5781 Q387.0156,391.4219 388.1094,390.8125 Q389.2031,390.1875 390.4375,390.1875 Q391.1719,390.1875 391.8125,390.3594 Q392.4688,390.5156 393.0156,390.875 Z " fill="#000000"/><text fill="#000000" font-family="sans-serif" font-size="14" lengthAdjust="spacing" textLength="94" x="410.75" y="399.8535">CourseFactory</text><line style="stroke:#181818;stroke-width:0.5;" x1="8" x2="875" y1="411" y2="411"/><line style="stroke:#181818;stroke-width:0.5;" x1="8" x2="875" y1="419" y2="419"/><ellipse cx="18" cy="432.3203" fill="#84BE84" rx="3" ry="3" style="stroke:#038048;stroke-width:1.0;"/><text fill="#000000" font-family="sans-serif" font-size="14" lengthAdjust="spacing" textLength="843" x="27" y="435.6738">buildCourse(courseId : String, courseTitle : String, courseName : String, description : String, maxEnrollments : int, minEnrollments : int)</text></g><!--MD5=[4066b0363c5a91ff3b6e03e0428953a9]
class Course--><g id="elem_Course"><rect codeLine="14" fill="#F1F1F1" height="204.4063" id="Course" rx="2.5" ry="2.5" style="stroke:#181818;stroke-width:0.5;" width="272" x="305.5" y="503"/><ellipse cx="414.25" cy="519" fill="#ADD1B2" rx="11" ry="11" style="stroke:#181818;stroke-width:1.0;"/><path d="M417.0156,514.875 Q417.1719,514.6563 417.3594,514.5469 Q417.5469,514.4375 417.7656,514.4375 Q418.1406,514.4375 418.375,514.7031 Q418.6094,514.9531 418.6094,515.5625 L418.6094,517.0156 Q418.6094,517.625 418.375,517.8906 Q418.1406,518.1563 417.7656,518.1563 Q417.4219,518.1563 417.2188,517.9531 Q417.0156,517.7656 416.9063,517.25 Q416.8594,516.8906 416.6719,516.7031 Q416.3438,516.3281 415.7344,516.1094 Q415.125,515.8906 414.5,515.8906 Q413.7344,515.8906 413.0938,516.2188 Q412.4688,516.5469 411.9688,517.2969 Q411.4844,518.0469 411.4844,519.0781 L411.4844,520.1719 Q411.4844,521.4063 412.375,522.2344 Q413.2656,523.0469 414.8594,523.0469 Q415.7969,523.0469 416.4531,522.7969 Q416.8438,522.6406 417.2656,522.2031 Q417.5313,521.9375 417.6719,521.8594 Q417.8281,521.7813 418.0313,521.7813 Q418.3594,521.7813 418.6094,522.0469 Q418.875,522.2969 418.875,522.6406 Q418.875,522.9844 418.5313,523.3906 Q418.0313,523.9688 417.2344,524.2969 Q416.1563,524.75 414.8594,524.75 Q413.3438,524.75 412.1406,524.125 Q411.1563,523.625 410.4688,522.5625 Q409.7813,521.4844 409.7813,520.2031 L409.7813,519.0469 Q409.7813,517.7188 410.3906,516.5781 Q411.0156,515.4219 412.1094,514.8125 Q413.2031,514.1875 414.4375,514.1875 Q415.1719,514.1875 415.8125,514.3594 Q416.4688,514.5156 417.0156,514.875 Z " fill="#000000"/><text fill="#000000" font-family="sans-serif" font-size="14" lengthAdjust="spacing" textLength="46" x="434.75" y="523.8535">Course</text><line style="stroke:#181818;stroke-width:0.5;" x1="306.5" x2="576.5" y1="535" y2="535"/><rect fill="none" height="6" style="stroke:#C82930;stroke-width:1.0;" width="6" x="313.5" y="545.3203"/><text fill="#000000" font-family="sans-serif" font-size="14" lengthAdjust="spacing" textLength="166" x="325.5" y="551.6738">courseId : CourseIdentifier</text><rect fill="none" height="6" style="stroke:#C82930;stroke-width:1.0;" width="6" x="313.5" y="560.9609"/><text fill="#000000" font-family="sans-serif" font-size="14" lengthAdjust="spacing" textLength="155" x="325.5" y="567.3145">courseTitle : CourseTitle</text><rect fill="none" height="6" style="stroke:#C82930;stroke-width:1.0;" width="6" x="313.5" y="576.6016"/><text fill="#000000" font-family="sans-serif" font-size="14" lengthAdjust="spacing" textLength="173" x="325.5" y="582.9551">courseName : CourseName</text><rect fill="none" height="6" style="stroke:#C82930;stroke-width:1.0;" width="6" x="313.5" y="592.2422"/><text fill="#000000" font-family="sans-serif" font-size="14" lengthAdjust="spacing" textLength="152" x="325.5" y="598.5957">description : Description</text><rect fill="none" height="6" style="stroke:#C82930;stroke-width:1.0;" width="6" x="313.5" y="607.8828"/><text fill="#000000" font-family="sans-serif" font-size="14" lengthAdjust="spacing" textLength="217" x="325.5" y="614.2363">enrollmentLimits : EnrollmentLimits</text><rect fill="none" height="6" style="stroke:#C82930;stroke-width:1.0;" width="6" x="313.5" y="623.5234"/><text fill="#000000" font-family="sans-serif" font-size="14" lengthAdjust="spacing" textLength="181" x="325.5" y="629.877">courseStatus : CourseStatus</text><rect fill="none" height="6" style="stroke:#C82930;stroke-width:1.0;" width="6" x="313.5" y="639.1641"/><text fill="#000000" font-family="sans-serif" font-size="14" lengthAdjust="spacing" textLength="171" x="325.5" y="645.5176">teacherInCharge : Teacher</text><rect fill="none" height="6" style="stroke:#C82930;stroke-width:1.0;" width="6" x="313.5" y="654.8047"/><text fill="#000000" font-family="sans-serif" font-size="14" lengthAdjust="spacing" textLength="246" x="325.5" y="661.1582">enrollmentsList : ArrayList&lt;Enrollment&gt;</text><rect fill="none" height="6" style="stroke:#C82930;stroke-width:1.0;" width="6" x="313.5" y="670.4453"/><text fill="#000000" font-family="sans-serif" font-size="14" lengthAdjust="spacing" textLength="188" x="325.5" y="676.7988">classesList : ArrayList&lt;Class&gt;</text><rect fill="none" height="6" style="stroke:#C82930;stroke-width:1.0;" width="6" x="313.5" y="686.0859"/><text fill="#000000" font-family="sans-serif" font-size="14" lengthAdjust="spacing" textLength="239" x="325.5" y="692.4395">extraClassList : ArrayList&lt;ExtraClass&gt;</text><line style="stroke:#181818;stroke-width:0.5;" x1="306.5" x2="576.5" y1="699.4063" y2="699.4063"/></g><!--MD5=[48590afff58a68e2fcba47824d6f8a11]
class RepositoryFactory--><g id="elem_RepositoryFactory"><rect codeLine="26" fill="#F1F1F1" height="63.6406" id="RepositoryFactory" rx="2.5" ry="2.5" style="stroke:#181818;stroke-width:0.5;" width="148" x="914.5" y="573"/><ellipse cx="929.5" cy="589" fill="#ADD1B2" rx="11" ry="11" style="stroke:#181818;stroke-width:1.0;"/><path d="M932.2656,584.875 Q932.4219,584.6563 932.6094,584.5469 Q932.7969,584.4375 933.0156,584.4375 Q933.3906,584.4375 933.625,584.7031 Q933.8594,584.9531 933.8594,585.5625 L933.8594,587.0156 Q933.8594,587.625 933.625,587.8906 Q933.3906,588.1563 933.0156,588.1563 Q932.6719,588.1563 932.4688,587.9531 Q932.2656,587.7656 932.1563,587.25 Q932.1094,586.8906 931.9219,586.7031 Q931.5938,586.3281 930.9844,586.1094 Q930.375,585.8906 929.75,585.8906 Q928.9844,585.8906 928.3438,586.2188 Q927.7188,586.5469 927.2188,587.2969 Q926.7344,588.0469 926.7344,589.0781 L926.7344,590.1719 Q926.7344,591.4063 927.625,592.2344 Q928.5156,593.0469 930.1094,593.0469 Q931.0469,593.0469 931.7031,592.7969 Q932.0938,592.6406 932.5156,592.2031 Q932.7813,591.9375 932.9219,591.8594 Q933.0781,591.7813 933.2813,591.7813 Q933.6094,591.7813 933.8594,592.0469 Q934.125,592.2969 934.125,592.6406 Q934.125,592.9844 933.7813,593.3906 Q933.2813,593.9688 932.4844,594.2969 Q931.4063,594.75 930.1094,594.75 Q928.5938,594.75 927.3906,594.125 Q926.4063,593.625 925.7188,592.5625 Q925.0313,591.4844 925.0313,590.2031 L925.0313,589.0469 Q925.0313,587.7188 925.6406,586.5781 Q926.2656,585.4219 927.3594,584.8125 Q928.4531,584.1875 929.6875,584.1875 Q930.4219,584.1875 931.0625,584.3594 Q931.7188,584.5156 932.2656,584.875 Z " fill="#000000"/><text fill="#000000" font-family="sans-serif" font-size="14" lengthAdjust="spacing" textLength="116" x="943.5" y="593.8535">RepositoryFactory</text><line style="stroke:#181818;stroke-width:0.5;" x1="915.5" x2="1061.5" y1="605" y2="605"/><line style="stroke:#181818;stroke-width:0.5;" x1="915.5" x2="1061.5" y1="613" y2="613"/><ellipse cx="925.5" cy="626.3203" fill="#84BE84" rx="3" ry="3" style="stroke:#038048;stroke-width:1.0;"/><text fill="#000000" font-family="sans-serif" font-size="14" lengthAdjust="spacing" textLength="60" x="934.5" y="629.6738">courses()</text></g><!--MD5=[e357f1fd68df466d60efd00f0c47fbc0]
class CourseRepository--><g id="elem_CourseRepository"><rect codeLine="29" fill="#F1F1F1" height="63.6406" id="CourseRepository" rx="2.5" ry="2.5" style="stroke:#181818;stroke-width:0.5;" width="195" x="891" y="767"/><ellipse cx="928.05" cy="783" fill="#ADD1B2" rx="11" ry="11" style="stroke:#181818;stroke-width:1.0;"/><path d="M930.8156,778.875 Q930.9719,778.6563 931.1594,778.5469 Q931.3469,778.4375 931.5656,778.4375 Q931.9406,778.4375 932.175,778.7031 Q932.4094,778.9531 932.4094,779.5625 L932.4094,781.0156 Q932.4094,781.625 932.175,781.8906 Q931.9406,782.1563 931.5656,782.1563 Q931.2219,782.1563 931.0188,781.9531 Q930.8156,781.7656 930.7063,781.25 Q930.6594,780.8906 930.4719,780.7031 Q930.1438,780.3281 929.5344,780.1094 Q928.925,779.8906 928.3,779.8906 Q927.5344,779.8906 926.8938,780.2188 Q926.2688,780.5469 925.7688,781.2969 Q925.2844,782.0469 925.2844,783.0781 L925.2844,784.1719 Q925.2844,785.4063 926.175,786.2344 Q927.0656,787.0469 928.6594,787.0469 Q929.5969,787.0469 930.2531,786.7969 Q930.6438,786.6406 931.0656,786.2031 Q931.3313,785.9375 931.4719,785.8594 Q931.6281,785.7813 931.8313,785.7813 Q932.1594,785.7813 932.4094,786.0469 Q932.675,786.2969 932.675,786.6406 Q932.675,786.9844 932.3313,787.3906 Q931.8313,787.9688 931.0344,788.2969 Q929.9563,788.75 928.6594,788.75 Q927.1438,788.75 925.9406,788.125 Q924.9563,787.625 924.2688,786.5625 Q923.5813,785.4844 923.5813,784.2031 L923.5813,783.0469 Q923.5813,781.7188 924.1906,780.5781 Q924.8156,779.4219 925.9094,778.8125 Q927.0031,778.1875 928.2375,778.1875 Q928.9719,778.1875 929.6125,778.3594 Q930.2688,778.5156 930.8156,778.875 Z " fill="#000000"/><text fill="#000000" font-family="sans-serif" font-size="14" lengthAdjust="spacing" textLength="114" x="946.95" y="787.8535">CourseRepository</text><line style="stroke:#181818;stroke-width:0.5;" x1="892" x2="1085" y1="799" y2="799"/><line style="stroke:#181818;stroke-width:0.5;" x1="892" x2="1085" y1="807" y2="807"/><ellipse cx="902" cy="820.3203" fill="#84BE84" rx="3" ry="3" style="stroke:#038048;stroke-width:1.0;"/><text fill="#000000" font-family="sans-serif" font-size="14" lengthAdjust="spacing" textLength="169" x="911" y="823.6738">save(newCourse : Course)</text></g><!--MD5=[e8c189551b7885b999ad7cefb30fc2a3]
class PersistenceContext--><g id="elem_PersistenceContext"><rect codeLine="32" fill="#F1F1F1" height="63.6406" id="PersistenceContext" rx="2.5" ry="2.5" style="stroke:#181818;stroke-width:0.5;" width="154" x="911.5" y="379"/><ellipse cx="926.5" cy="395" fill="#ADD1B2" rx="11" ry="11" style="stroke:#181818;stroke-width:1.0;"/><path d="M929.2656,390.875 Q929.4219,390.6563 929.6094,390.5469 Q929.7969,390.4375 930.0156,390.4375 Q930.3906,390.4375 930.625,390.7031 Q930.8594,390.9531 930.8594,391.5625 L930.8594,393.0156 Q930.8594,393.625 930.625,393.8906 Q930.3906,394.1563 930.0156,394.1563 Q929.6719,394.1563 929.4688,393.9531 Q929.2656,393.7656 929.1563,393.25 Q929.1094,392.8906 928.9219,392.7031 Q928.5938,392.3281 927.9844,392.1094 Q927.375,391.8906 926.75,391.8906 Q925.9844,391.8906 925.3438,392.2188 Q924.7188,392.5469 924.2188,393.2969 Q923.7344,394.0469 923.7344,395.0781 L923.7344,396.1719 Q923.7344,397.4063 924.625,398.2344 Q925.5156,399.0469 927.1094,399.0469 Q928.0469,399.0469 928.7031,398.7969 Q929.0938,398.6406 929.5156,398.2031 Q929.7813,397.9375 929.9219,397.8594 Q930.0781,397.7813 930.2813,397.7813 Q930.6094,397.7813 930.8594,398.0469 Q931.125,398.2969 931.125,398.6406 Q931.125,398.9844 930.7813,399.3906 Q930.2813,399.9688 929.4844,400.2969 Q928.4063,400.75 927.1094,400.75 Q925.5938,400.75 924.3906,400.125 Q923.4063,399.625 922.7188,398.5625 Q922.0313,397.4844 922.0313,396.2031 L922.0313,395.0469 Q922.0313,393.7188 922.6406,392.5781 Q923.2656,391.4219 924.3594,390.8125 Q925.4531,390.1875 926.6875,390.1875 Q927.4219,390.1875 928.0625,390.3594 Q928.7188,390.5156 929.2656,390.875 Z " fill="#000000"/><text fill="#000000" font-family="sans-serif" font-size="14" lengthAdjust="spacing" textLength="122" x="940.5" y="399.8535">PersistenceContext</text><line style="stroke:#181818;stroke-width:0.5;" x1="912.5" x2="1064.5" y1="411" y2="411"/><line style="stroke:#181818;stroke-width:0.5;" x1="912.5" x2="1064.5" y1="419" y2="419"/><ellipse cx="922.5" cy="432.3203" fill="#84BE84" rx="3" ry="3" style="stroke:#038048;stroke-width:1.0;"/><text fill="#000000" font-family="sans-serif" font-size="14" lengthAdjust="spacing" textLength="84" x="931.5" y="435.6738">repositories()</text></g><!--MD5=[778d7c88755b438107dcd8d97edfe271]
link CreateCourseUI to CreateCourseController--><g id="link_CreateCourseUI_CreateCourseController"><path codeLine="37" d="M714.5,71.1 C714.5,87.74 714.5,108.31 714.5,125.68 " fill="none" id="CreateCourseUI-to-CreateCourseController" style="stroke:#181818;stroke-width:1.0;stroke-dasharray:7.0,7.0;"/><polygon fill="#181818" points="714.5,130.96,718.5,121.96,714.5,125.96,710.5,121.96,714.5,130.96" style="stroke:#181818;stroke-width:1.0;"/></g><!--MD5=[a1cec85391a521dd39757e8602d52fea]
link CreateCourseController to CreateCourseService--><g id="link_CreateCourseController_CreateCourseService"><path codeLine="38" d="M714.5,195.1 C714.5,211.74 714.5,232.31 714.5,249.68 " fill="none" id="CreateCourseController-to-CreateCourseService" style="stroke:#181818;stroke-width:1.0;stroke-dasharray:7.0,7.0;"/><polygon fill="#181818" points="714.5,254.96,718.5,245.96,714.5,249.96,710.5,245.96,714.5,254.96" style="stroke:#181818;stroke-width:1.0;"/></g><!--MD5=[8034c86fae974e280fe2aa71950b45a9]
link CreateCourseService to PersistenceContext--><g id="link_CreateCourseService_PersistenceContext"><path codeLine="39" d="M784.35,319.1 C823.96,336.74 873.53,358.81 913.9,376.78 " fill="none" id="CreateCourseService-to-PersistenceContext" style="stroke:#181818;stroke-width:1.0;stroke-dasharray:7.0,7.0;"/><polygon fill="#181818" points="918.78,378.96,912.176,371.6533,914.2098,376.932,908.9311,378.9657,918.78,378.96" style="stroke:#181818;stroke-width:1.0;"/></g><!--MD5=[fe6e1a2acf510d97363b66b488f95de8]
link CreateCourseService to CourseFactory--><g id="link_CreateCourseService_CourseFactory"><path codeLine="40" d="M644.9,319.1 C605.44,336.74 556.05,358.81 515.83,376.78 " fill="none" id="CreateCourseService-to-CourseFactory" style="stroke:#181818;stroke-width:1.0;stroke-dasharray:7.0,7.0;"/><polygon fill="#181818" points="510.97,378.96,520.8188,378.9285,515.5325,376.9147,517.5464,371.6285,510.97,378.96" style="stroke:#181818;stroke-width:1.0;"/></g><!--MD5=[8fdfa2db037706df7eb4de17f0ab0c25]
link CourseFactory to Course--><g id="link_CourseFactory_Course"><path codeLine="41" d="M441.5,443.28 C441.5,458.56 441.5,477.93 441.5,497.9 " fill="none" id="CourseFactory-to-Course" style="stroke:#181818;stroke-width:1.0;stroke-dasharray:7.0,7.0;"/><polygon fill="#181818" points="441.5,502.99,445.5,493.99,441.5,497.99,437.5,493.99,441.5,502.99" style="stroke:#181818;stroke-width:1.0;"/></g><!--MD5=[754b775031405e096442b27febffa290]
link PersistenceContext to RepositoryFactory--><g id="link_PersistenceContext_RepositoryFactory"><path codeLine="42" d="M988.5,443.28 C988.5,477.31 988.5,531.65 988.5,567.58 " fill="none" id="PersistenceContext-to-RepositoryFactory" style="stroke:#181818;stroke-width:1.0;stroke-dasharray:7.0,7.0;"/><polygon fill="#181818" points="988.5,572.74,992.5,563.74,988.5,567.74,984.5,563.74,988.5,572.74" style="stroke:#181818;stroke-width:1.0;"/></g><!--MD5=[0795949389f741c11f20948df9d921bb]
link RepositoryFactory to CourseRepository--><g id="link_RepositoryFactory_CourseRepository"><path codeLine="43" d="M988.5,637.28 C988.5,671.31 988.5,725.65 988.5,761.58 " fill="none" id="RepositoryFactory-to-CourseRepository" style="stroke:#181818;stroke-width:1.0;stroke-dasharray:7.0,7.0;"/><polygon fill="#181818" points="988.5,766.74,992.5,757.74,988.5,761.74,984.5,757.74,988.5,766.74" style="stroke:#181818;stroke-width:1.0;"/></g><!--MD5=[be8fa2715df9f38a90212f60e1541384]
@startuml

class CreateCourseUI{
+ doShow()
}
class CreateCourseController{
+ createCourse(courseId : String, courseTitle : String, courseName : String, description : String, maxEnrollments : int, minEnrollments : int)
}
class CreateCourseService{
+ createCourse(courseId : String, courseTitle : String, courseName : String, description : String, maxEnrollments : int, minEnrollments : int)
}
class CourseFactory{
+ buildCourse(courseId : String, courseTitle : String, courseName : String, description : String, maxEnrollments : int, minEnrollments : int)
}
class Course{
- courseId : CourseIdentifier
- courseTitle : CourseTitle
- courseName : CourseName
- description : Description
- enrollmentLimits : EnrollmentLimits
- courseStatus : CourseStatus
- teacherInCharge : Teacher
- enrollmentsList : ArrayList<Enrollment>
- classesList : ArrayList<Class>
- extraClassList : ArrayList<ExtraClass>
}
class RepositoryFactory{
+ courses()
}
class CourseRepository{
+ save(newCourse : Course)
}
class PersistenceContext{
+ repositories()
}


CreateCourseUI ..> CreateCourseController
CreateCourseController ..> CreateCourseService
CreateCourseService ..> PersistenceContext
CreateCourseService ..> CourseFactory
CourseFactory ..> Course
PersistenceContext ..> RepositoryFactory
RepositoryFactory ..> CourseRepository
@enduml

PlantUML version 1.2022.13(Sat Nov 19 13:22:17 WET 2022)
(GPL source distribution)
Java Runtime: OpenJDK Runtime Environment
JVM: OpenJDK 64-Bit Server VM
Default Encoding: Cp1252
Language: pt
Country: PT
--></g></svg>