<?xml version="1.0" encoding="UTF-8" standalone="no"?><svg xmlns="http://www.w3.org/2000/svg" xmlns:xlink="http://www.w3.org/1999/xlink" contentStyleType="text/css" height="1119px" preserveAspectRatio="none" style="width:3050px;height:1119px;background:#FFFFFF;" version="1.1" viewBox="0 0 3050 1119" width="3050px" zoomAndPan="magnify"><defs/><g><rect fill="#FFFFFF" height="915.6094" style="stroke:#181818;stroke-width:1.0;" width="10" x="31" y="92.2813"/><rect fill="#FFFFFF" height="924.6094" style="stroke:#181818;stroke-width:1.0;" width="10" x="320" y="92.2813"/><rect fill="#FFFFFF" height="58.5234" style="stroke:#181818;stroke-width:1.0;" width="10" x="917" y="141.3281"/><rect fill="#FFFFFF" height="636.8984" style="stroke:#181818;stroke-width:1.0;" width="10" x="917" y="342.4688"/><rect fill="#FFFFFF" height="30" style="stroke:#181818;stroke-width:1.0;" width="10" x="1514" y="169.8516"/><rect fill="#FFFFFF" height="579.8516" style="stroke:#181818;stroke-width:1.0;" width="10" x="1514" y="370.9922"/><rect fill="#FFFFFF" height="30" style="stroke:#181818;stroke-width:1.0;" width="10" x="2109" y="399.5156"/><rect fill="#FFFFFF" height="87.0469" style="stroke:#181818;stroke-width:1.0;" width="10" x="2109" y="769.75"/><rect fill="#FFFFFF" height="30" style="stroke:#181818;stroke-width:1.0;" width="10" x="2575" y="798.2734"/><rect fill="#FFFFFF" height="87.0469" style="stroke:#181818;stroke-width:1.0;" width="10" x="2691" y="458.0391"/><rect fill="#FFFFFF" height="30" style="stroke:#181818;stroke-width:1.0;" width="10" x="2834" y="486.5625"/><rect fill="#FFFFFF" height="87.0469" style="stroke:#181818;stroke-width:1.0;" width="10" x="2834" y="573.6094"/><rect fill="#FFFFFF" height="30" style="stroke:#181818;stroke-width:1.0;" width="10" x="2969" y="602.1328"/><rect fill="#FFFFFF" height="28.5234" style="stroke:#181818;stroke-width:1.0;" width="10" x="2969" y="689.1797"/><rect fill="#FFFFFF" height="30" style="stroke:#181818;stroke-width:1.0;" width="10" x="2969" y="885.3203"/><rect fill="none" height="190.6172" style="stroke:#000000;stroke-width:1.5;" width="1610" x="1434" y="732.7031"/><line style="stroke:#181818;stroke-width:0.5;stroke-dasharray:5.0,5.0;" x1="36" x2="36" y1="82.2813" y2="1025.8906"/><line style="stroke:#181818;stroke-width:0.5;stroke-dasharray:5.0,5.0;" x1="324.5" x2="324.5" y1="82.2813" y2="1025.8906"/><line style="stroke:#181818;stroke-width:0.5;stroke-dasharray:5.0,5.0;" x1="921.5" x2="921.5" y1="82.2813" y2="1025.8906"/><line style="stroke:#181818;stroke-width:0.5;stroke-dasharray:5.0,5.0;" x1="1519" x2="1519" y1="82.2813" y2="1025.8906"/><line style="stroke:#181818;stroke-width:0.5;stroke-dasharray:5.0,5.0;" x1="2114" x2="2114" y1="82.2813" y2="1025.8906"/><line style="stroke:#181818;stroke-width:0.5;stroke-dasharray:5.0,5.0;" x1="2580" x2="2580" y1="82.2813" y2="1025.8906"/><line style="stroke:#181818;stroke-width:0.5;stroke-dasharray:5.0,5.0;" x1="2696" x2="2696" y1="82.2813" y2="1025.8906"/><line style="stroke:#181818;stroke-width:0.5;stroke-dasharray:5.0,5.0;" x1="2839" x2="2839" y1="82.2813" y2="1025.8906"/><line style="stroke:#181818;stroke-width:0.5;stroke-dasharray:5.0,5.0;" x1="2974" x2="2974" y1="82.2813" y2="1025.8906"/><text fill="#000000" font-family="sans-serif" font-size="14" lengthAdjust="spacing" textLength="56" x="5" y="79.3145">Manager</text><ellipse cx="36" cy="15.1406" fill="#E2E2F0" rx="8" ry="8" style="stroke:#181818;stroke-width:0.5;"/><path d="M36,23.1406 L36,50.1406 M23,31.1406 L49,31.1406 M36,50.1406 L23,65.1406 M36,50.1406 L49,65.1406 " fill="none" style="stroke:#181818;stroke-width:0.5;"/><text fill="#000000" font-family="sans-serif" font-size="14" lengthAdjust="spacing" textLength="56" x="5" y="1037.5645">Manager</text><ellipse cx="36" cy="1049.0313" fill="#E2E2F0" rx="8" ry="8" style="stroke:#181818;stroke-width:0.5;"/><path d="M36,1057.0313 L36,1084.0313 M23,1065.0313 L49,1065.0313 M36,1084.0313 L23,1099.0313 M36,1084.0313 L49,1099.0313 " fill="none" style="stroke:#181818;stroke-width:0.5;"/><rect fill="#E2E2F0" height="45.2813" rx="2.5" ry="2.5" style="stroke:#181818;stroke-width:0.5;" width="115" x="267.5" y="36"/><text fill="#000000" font-family="sans-serif" font-size="14" font-style="italic" lengthAdjust="spacing" textLength="95" x="277.5" y="55.6738">«presentation»</text><text fill="#000000" font-family="sans-serif" font-size="14" lengthAdjust="spacing" textLength="101" x="274.5" y="71.3145">CreateCourseUI</text><rect fill="#E2E2F0" height="45.2813" rx="2.5" ry="2.5" style="stroke:#181818;stroke-width:0.5;" width="115" x="267.5" y="1024.8906"/><text fill="#000000" font-family="sans-serif" font-size="14" font-style="italic" lengthAdjust="spacing" textLength="95" x="277.5" y="1044.5645">«presentation»</text><text fill="#000000" font-family="sans-serif" font-size="14" lengthAdjust="spacing" textLength="101" x="274.5" y="1060.2051">CreateCourseUI</text><text fill="#000000" font-family="sans-serif" font-size="14" font-style="italic" lengthAdjust="spacing" textLength="84" x="877" y="63.6738">«application»</text><text fill="#000000" font-family="sans-serif" font-size="14" lengthAdjust="spacing" textLength="151" x="843.5" y="79.3145">CreateCourseController</text><ellipse cx="922" cy="35" fill="#E2E2F0" rx="12" ry="12" style="stroke:#181818;stroke-width:0.5;"/><polygon fill="#181818" points="918,23,924,18,922,23,924,28,918,23" style="stroke:#181818;stroke-width:1.0;"/><text fill="#000000" font-family="sans-serif" font-size="14" font-style="italic" lengthAdjust="spacing" textLength="84" x="877" y="1037.5645">«application»</text><text fill="#000000" font-family="sans-serif" font-size="14" lengthAdjust="spacing" textLength="151" x="843.5" y="1053.2051">CreateCourseController</text><ellipse cx="922" cy="1072.1719" fill="#E2E2F0" rx="12" ry="12" style="stroke:#181818;stroke-width:0.5;"/><polygon fill="#181818" points="918,1060.1719,924,1055.1719,922,1060.1719,924,1065.1719,918,1060.1719" style="stroke:#181818;stroke-width:1.0;"/><rect fill="#E2E2F0" height="45.2813" rx="2.5" ry="2.5" style="stroke:#181818;stroke-width:0.5;" width="150" x="1444" y="36"/><text fill="#000000" font-family="sans-serif" font-size="14" font-style="italic" lengthAdjust="spacing" textLength="84" x="1477" y="55.6738">«application»</text><text fill="#000000" font-family="sans-serif" font-size="14" lengthAdjust="spacing" textLength="136" x="1451" y="71.3145">CreateCourseService</text><rect fill="#E2E2F0" height="45.2813" rx="2.5" ry="2.5" style="stroke:#181818;stroke-width:0.5;" width="150" x="1444" y="1024.8906"/><text fill="#000000" font-family="sans-serif" font-size="14" font-style="italic" lengthAdjust="spacing" textLength="84" x="1477" y="1044.5645">«application»</text><text fill="#000000" font-family="sans-serif" font-size="14" lengthAdjust="spacing" textLength="136" x="1451" y="1060.2051">CreateCourseService</text><rect fill="#E2E2F0" height="45.2813" rx="2.5" ry="2.5" style="stroke:#181818;stroke-width:0.5;" width="108" x="2060" y="36"/><text fill="#000000" font-family="sans-serif" font-size="14" font-style="italic" lengthAdjust="spacing" textLength="59" x="2084.5" y="55.6738">«factory»</text><text fill="#000000" font-family="sans-serif" font-size="14" lengthAdjust="spacing" textLength="94" x="2067" y="71.3145">CourseFactory</text><rect fill="#E2E2F0" height="45.2813" rx="2.5" ry="2.5" style="stroke:#181818;stroke-width:0.5;" width="108" x="2060" y="1024.8906"/><text fill="#000000" font-family="sans-serif" font-size="14" font-style="italic" lengthAdjust="spacing" textLength="59" x="2084.5" y="1044.5645">«factory»</text><text fill="#000000" font-family="sans-serif" font-size="14" lengthAdjust="spacing" textLength="94" x="2067" y="1060.2051">CourseFactory</text><rect fill="#E2E2F0" height="45.2813" rx="2.5" ry="2.5" style="stroke:#181818;stroke-width:0.5;" width="76" x="2542" y="36"/><text fill="#000000" font-family="sans-serif" font-size="14" font-style="italic" lengthAdjust="spacing" textLength="62" x="2549" y="55.6738">«domain»</text><text fill="#000000" font-family="sans-serif" font-size="14" lengthAdjust="spacing" textLength="46" x="2557" y="71.3145">Course</text><rect fill="#E2E2F0" height="45.2813" rx="2.5" ry="2.5" style="stroke:#181818;stroke-width:0.5;" width="76" x="2542" y="1024.8906"/><text fill="#000000" font-family="sans-serif" font-size="14" font-style="italic" lengthAdjust="spacing" textLength="62" x="2549" y="1044.5645">«domain»</text><text fill="#000000" font-family="sans-serif" font-size="14" lengthAdjust="spacing" textLength="46" x="2557" y="1060.2051">Course</text><rect fill="#E2E2F0" height="45.2813" rx="2.5" ry="2.5" style="stroke:#181818;stroke-width:0.5;" width="136" x="2628" y="36"/><text fill="#000000" font-family="sans-serif" font-size="14" font-style="italic" lengthAdjust="spacing" textLength="89" x="2651.5" y="55.6738">«persistence»</text><text fill="#000000" font-family="sans-serif" font-size="14" lengthAdjust="spacing" textLength="122" x="2635" y="71.3145">PersistenceContext</text><rect fill="#E2E2F0" height="45.2813" rx="2.5" ry="2.5" style="stroke:#181818;stroke-width:0.5;" width="136" x="2628" y="1024.8906"/><text fill="#000000" font-family="sans-serif" font-size="14" font-style="italic" lengthAdjust="spacing" textLength="89" x="2651.5" y="1044.5645">«persistence»</text><text fill="#000000" font-family="sans-serif" font-size="14" lengthAdjust="spacing" textLength="122" x="2635" y="1060.2051">PersistenceContext</text><rect fill="#E2E2F0" height="45.2813" rx="2.5" ry="2.5" style="stroke:#181818;stroke-width:0.5;" width="130" x="2774" y="36"/><text fill="#000000" font-family="sans-serif" font-size="14" font-style="italic" lengthAdjust="spacing" textLength="59" x="2809.5" y="55.6738">«factory»</text><text fill="#000000" font-family="sans-serif" font-size="14" lengthAdjust="spacing" textLength="116" x="2781" y="71.3145">RepositoryFactory</text><rect fill="#E2E2F0" height="45.2813" rx="2.5" ry="2.5" style="stroke:#181818;stroke-width:0.5;" width="130" x="2774" y="1024.8906"/><text fill="#000000" font-family="sans-serif" font-size="14" font-style="italic" lengthAdjust="spacing" textLength="59" x="2809.5" y="1044.5645">«factory»</text><text fill="#000000" font-family="sans-serif" font-size="14" lengthAdjust="spacing" textLength="116" x="2781" y="1060.2051">RepositoryFactory</text><text fill="#000000" font-family="sans-serif" font-size="14" font-style="italic" lengthAdjust="spacing" textLength="79" x="2931.5" y="63.6738">«repository»</text><text fill="#000000" font-family="sans-serif" font-size="14" lengthAdjust="spacing" textLength="114" x="2914" y="79.3145">CourseRepository</text><path d="M2956,15 C2956,5 2974,5 2974,5 C2974,5 2992,5 2992,15 L2992,41 C2992,51 2974,51 2974,51 C2974,51 2956,51 2956,41 L2956,15 " fill="#E2E2F0" style="stroke:#181818;stroke-width:1.5;"/><path d="M2956,15 C2956,25 2974,25 2974,25 C2974,25 2992,25 2992,15 " fill="none" style="stroke:#181818;stroke-width:1.5;"/><text fill="#000000" font-family="sans-serif" font-size="14" font-style="italic" lengthAdjust="spacing" textLength="79" x="2931.5" y="1037.5645">«repository»</text><text fill="#000000" font-family="sans-serif" font-size="14" lengthAdjust="spacing" textLength="114" x="2914" y="1053.2051">CourseRepository</text><path d="M2956,1066.1719 C2956,1056.1719 2974,1056.1719 2974,1056.1719 C2974,1056.1719 2992,1056.1719 2992,1066.1719 L2992,1092.1719 C2992,1102.1719 2974,1102.1719 2974,1102.1719 C2974,1102.1719 2956,1102.1719 2956,1092.1719 L2956,1066.1719 " fill="#E2E2F0" style="stroke:#181818;stroke-width:1.5;"/><path d="M2956,1066.1719 C2956,1076.1719 2974,1076.1719 2974,1076.1719 C2974,1076.1719 2992,1076.1719 2992,1066.1719 " fill="none" style="stroke:#181818;stroke-width:1.5;"/><rect fill="#FFFFFF" height="915.6094" style="stroke:#181818;stroke-width:1.0;" width="10" x="31" y="92.2813"/><rect fill="#FFFFFF" height="924.6094" style="stroke:#181818;stroke-width:1.0;" width="10" x="320" y="92.2813"/><rect fill="#FFFFFF" height="58.5234" style="stroke:#181818;stroke-width:1.0;" width="10" x="917" y="141.3281"/><rect fill="#FFFFFF" height="636.8984" style="stroke:#181818;stroke-width:1.0;" width="10" x="917" y="342.4688"/><rect fill="#FFFFFF" height="30" style="stroke:#181818;stroke-width:1.0;" width="10" x="1514" y="169.8516"/><rect fill="#FFFFFF" height="579.8516" style="stroke:#181818;stroke-width:1.0;" width="10" x="1514" y="370.9922"/><rect fill="#FFFFFF" height="30" style="stroke:#181818;stroke-width:1.0;" width="10" x="2109" y="399.5156"/><rect fill="#FFFFFF" height="87.0469" style="stroke:#181818;stroke-width:1.0;" width="10" x="2109" y="769.75"/><rect fill="#FFFFFF" height="30" style="stroke:#181818;stroke-width:1.0;" width="10" x="2575" y="798.2734"/><rect fill="#FFFFFF" height="87.0469" style="stroke:#181818;stroke-width:1.0;" width="10" x="2691" y="458.0391"/><rect fill="#FFFFFF" height="30" style="stroke:#181818;stroke-width:1.0;" width="10" x="2834" y="486.5625"/><rect fill="#FFFFFF" height="87.0469" style="stroke:#181818;stroke-width:1.0;" width="10" x="2834" y="573.6094"/><rect fill="#FFFFFF" height="30" style="stroke:#181818;stroke-width:1.0;" width="10" x="2969" y="602.1328"/><rect fill="#FFFFFF" height="28.5234" style="stroke:#181818;stroke-width:1.0;" width="10" x="2969" y="689.1797"/><rect fill="#FFFFFF" height="30" style="stroke:#181818;stroke-width:1.0;" width="10" x="2969" y="885.3203"/><polygon fill="#181818" points="308,108.8047,318,112.8047,308,116.8047,312,112.8047" style="stroke:#181818;stroke-width:1.0;"/><line style="stroke:#181818;stroke-width:1.0;" x1="41" x2="314" y1="112.8047" y2="112.8047"/><text fill="#000000" font-family="sans-serif" font-size="13" font-weight="bold" lengthAdjust="spacing" textLength="7" x="48" y="108.0498">1</text><text fill="#000000" font-family="sans-serif" font-size="13" lengthAdjust="spacing" textLength="244" x="59" y="108.0498">Manager selects option to create a course</text><polygon fill="#181818" points="905,137.3281,915,141.3281,905,145.3281,909,141.3281" style="stroke:#181818;stroke-width:1.0;"/><line style="stroke:#181818;stroke-width:1.0;" x1="330" x2="911" y1="141.3281" y2="141.3281"/><text fill="#000000" font-family="sans-serif" font-size="13" font-weight="bold" lengthAdjust="spacing" textLength="7" x="337" y="136.5732">2</text><text fill="#000000" font-family="sans-serif" font-size="13" lengthAdjust="spacing" textLength="44" x="348" y="136.5732">create()</text><polygon fill="#181818" points="1502,165.8516,1512,169.8516,1502,173.8516,1506,169.8516" style="stroke:#181818;stroke-width:1.0;"/><line style="stroke:#181818;stroke-width:1.0;" x1="927" x2="1508" y1="169.8516" y2="169.8516"/><text fill="#000000" font-family="sans-serif" font-size="13" font-weight="bold" lengthAdjust="spacing" textLength="7" x="934" y="165.0967">3</text><text fill="#000000" font-family="sans-serif" font-size="13" lengthAdjust="spacing" textLength="44" x="945" y="165.0967">create()</text><polygon fill="#181818" points="52,224.375,42,228.375,52,232.375,48,228.375" style="stroke:#181818;stroke-width:1.0;"/><line style="stroke:#181818;stroke-width:1.0;stroke-dasharray:2.0,2.0;" x1="46" x2="319" y1="228.375" y2="228.375"/><text fill="#000000" font-family="sans-serif" font-size="13" font-weight="bold" lengthAdjust="spacing" textLength="7" x="58" y="223.6201">4</text><text fill="#000000" font-family="sans-serif" font-size="13" lengthAdjust="spacing" textLength="239" x="69" y="223.6201">System asks for the course creation data</text><polygon fill="#181818" points="308,252.8984,318,256.8984,308,260.8984,312,256.8984" style="stroke:#181818;stroke-width:1.0;"/><line style="stroke:#181818;stroke-width:1.0;" x1="41" x2="314" y1="256.8984" y2="256.8984"/><text fill="#000000" font-family="sans-serif" font-size="13" font-weight="bold" lengthAdjust="spacing" textLength="7" x="48" y="252.1436">5</text><text fill="#000000" font-family="sans-serif" font-size="13" lengthAdjust="spacing" textLength="144" x="59" y="252.1436">Manager inserts the data</text><polygon fill="#181818" points="52,281.4219,42,285.4219,52,289.4219,48,285.4219" style="stroke:#181818;stroke-width:1.0;"/><line style="stroke:#181818;stroke-width:1.0;stroke-dasharray:2.0,2.0;" x1="46" x2="319" y1="285.4219" y2="285.4219"/><text fill="#000000" font-family="sans-serif" font-size="13" font-weight="bold" lengthAdjust="spacing" textLength="7" x="58" y="280.667">6</text><text fill="#000000" font-family="sans-serif" font-size="13" lengthAdjust="spacing" textLength="162" x="69" y="280.667">System ask for confirmation</text><polygon fill="#181818" points="308,309.9453,318,313.9453,308,317.9453,312,313.9453" style="stroke:#181818;stroke-width:1.0;"/><line style="stroke:#181818;stroke-width:1.0;" x1="41" x2="314" y1="313.9453" y2="313.9453"/><text fill="#000000" font-family="sans-serif" font-size="13" font-weight="bold" lengthAdjust="spacing" textLength="7" x="48" y="309.1904">7</text><text fill="#000000" font-family="sans-serif" font-size="13" lengthAdjust="spacing" textLength="103" x="59" y="309.1904">Manager confirms</text><polygon fill="#181818" points="905,338.4688,915,342.4688,905,346.4688,909,342.4688" style="stroke:#181818;stroke-width:1.0;"/><line style="stroke:#181818;stroke-width:1.0;" x1="330" x2="911" y1="342.4688" y2="342.4688"/><text fill="#000000" font-family="sans-serif" font-size="13" font-weight="bold" lengthAdjust="spacing" textLength="7" x="337" y="337.7139">8</text><text fill="#000000" font-family="sans-serif" font-size="13" lengthAdjust="spacing" textLength="557" x="348" y="337.7139">createCourse(courseId, courseTitle, courseName, description, maxEnrollments, minEnrollments)</text><polygon fill="#181818" points="1502,366.9922,1512,370.9922,1502,374.9922,1506,370.9922" style="stroke:#181818;stroke-width:1.0;"/><line style="stroke:#181818;stroke-width:1.0;" x1="927" x2="1508" y1="370.9922" y2="370.9922"/><text fill="#000000" font-family="sans-serif" font-size="13" font-weight="bold" lengthAdjust="spacing" textLength="7" x="934" y="366.2373">9</text><text fill="#000000" font-family="sans-serif" font-size="13" lengthAdjust="spacing" textLength="557" x="945" y="366.2373">createCourse(courseId, courseTitle, courseName, description, maxEnrollments, minEnrollments)</text><polygon fill="#181818" points="2097,395.5156,2107,399.5156,2097,403.5156,2101,399.5156" style="stroke:#181818;stroke-width:1.0;"/><line style="stroke:#181818;stroke-width:1.0;" x1="1524" x2="2103" y1="399.5156" y2="399.5156"/><text fill="#000000" font-family="sans-serif" font-size="13" font-weight="bold" lengthAdjust="spacing" textLength="14" x="1531" y="394.7607">10</text><text fill="#000000" font-family="sans-serif" font-size="13" lengthAdjust="spacing" textLength="44" x="1549" y="394.7607">create()</text><polygon fill="#181818" points="2679,454.0391,2689,458.0391,2679,462.0391,2683,458.0391" style="stroke:#181818;stroke-width:1.0;"/><line style="stroke:#181818;stroke-width:1.0;" x1="1524" x2="2685" y1="458.0391" y2="458.0391"/><text fill="#000000" font-family="sans-serif" font-size="13" font-weight="bold" lengthAdjust="spacing" textLength="14" x="1531" y="453.2842">11</text><text fill="#000000" font-family="sans-serif" font-size="13" lengthAdjust="spacing" textLength="75" x="1549" y="453.2842">repositories()</text><polygon fill="#181818" points="2822,482.5625,2832,486.5625,2822,490.5625,2826,486.5625" style="stroke:#181818;stroke-width:1.0;"/><line style="stroke:#181818;stroke-width:1.0;" x1="2701" x2="2828" y1="486.5625" y2="486.5625"/><text fill="#000000" font-family="sans-serif" font-size="13" font-weight="bold" lengthAdjust="spacing" textLength="14" x="2708" y="481.8076">12</text><text fill="#000000" font-family="sans-serif" font-size="13" lengthAdjust="spacing" textLength="44" x="2726" y="481.8076">create()</text><polygon fill="#181818" points="1535,541.0859,1525,545.0859,1535,549.0859,1531,545.0859" style="stroke:#181818;stroke-width:1.0;"/><line style="stroke:#181818;stroke-width:1.0;stroke-dasharray:2.0,2.0;" x1="1529" x2="2695" y1="545.0859" y2="545.0859"/><text fill="#000000" font-family="sans-serif" font-size="13" font-weight="bold" lengthAdjust="spacing" textLength="14" x="1541" y="540.3311">13</text><text fill="#000000" font-family="sans-serif" font-size="13" lengthAdjust="spacing" textLength="69" x="1559" y="540.3311">repoFactory</text><polygon fill="#181818" points="2822,569.6094,2832,573.6094,2822,577.6094,2826,573.6094" style="stroke:#181818;stroke-width:1.0;"/><line style="stroke:#181818;stroke-width:1.0;" x1="1524" x2="2828" y1="573.6094" y2="573.6094"/><text fill="#000000" font-family="sans-serif" font-size="13" font-weight="bold" lengthAdjust="spacing" textLength="14" x="1531" y="568.8545">14</text><text fill="#000000" font-family="sans-serif" font-size="13" lengthAdjust="spacing" textLength="54" x="1549" y="568.8545">courses()</text><polygon fill="#181818" points="2957,598.1328,2967,602.1328,2957,606.1328,2961,602.1328" style="stroke:#181818;stroke-width:1.0;"/><line style="stroke:#181818;stroke-width:1.0;" x1="2844" x2="2963" y1="602.1328" y2="602.1328"/><text fill="#000000" font-family="sans-serif" font-size="13" font-weight="bold" lengthAdjust="spacing" textLength="14" x="2851" y="597.3779">15</text><text fill="#000000" font-family="sans-serif" font-size="13" lengthAdjust="spacing" textLength="44" x="2869" y="597.3779">create()</text><polygon fill="#181818" points="1535,656.6563,1525,660.6563,1535,664.6563,1531,660.6563" style="stroke:#181818;stroke-width:1.0;"/><line style="stroke:#181818;stroke-width:1.0;stroke-dasharray:2.0,2.0;" x1="1529" x2="2838" y1="660.6563" y2="660.6563"/><text fill="#000000" font-family="sans-serif" font-size="13" font-weight="bold" lengthAdjust="spacing" textLength="14" x="1541" y="655.9014">16</text><text fill="#000000" font-family="sans-serif" font-size="13" lengthAdjust="spacing" textLength="69" x="1559" y="655.9014">courseRepo</text><polygon fill="#181818" points="2957,685.1797,2967,689.1797,2957,693.1797,2961,689.1797" style="stroke:#181818;stroke-width:1.0;"/><line style="stroke:#181818;stroke-width:1.0;" x1="1524" x2="2963" y1="689.1797" y2="689.1797"/><text fill="#000000" font-family="sans-serif" font-size="13" font-weight="bold" lengthAdjust="spacing" textLength="14" x="1531" y="684.4248">17</text><text fill="#000000" font-family="sans-serif" font-size="13" lengthAdjust="spacing" textLength="109" x="1549" y="684.4248">ofIdentity(courseId)</text><polygon fill="#181818" points="1535,713.7031,1525,717.7031,1535,721.7031,1531,717.7031" style="stroke:#181818;stroke-width:1.0;"/><line style="stroke:#181818;stroke-width:1.0;stroke-dasharray:2.0,2.0;" x1="1529" x2="2973" y1="717.7031" y2="717.7031"/><text fill="#000000" font-family="sans-serif" font-size="13" font-weight="bold" lengthAdjust="spacing" textLength="14" x="1541" y="712.9482">18</text><text fill="#000000" font-family="sans-serif" font-size="13" lengthAdjust="spacing" textLength="39" x="1559" y="712.9482">course</text><path d="M1434,732.7031 L1495,732.7031 L1495,739.2266 L1485,749.2266 L1434,749.2266 L1434,732.7031 " fill="#EEEEEE" style="stroke:#000000;stroke-width:1.5;"/><rect fill="none" height="190.6172" style="stroke:#000000;stroke-width:1.5;" width="1610" x="1434" y="732.7031"/><text fill="#000000" font-family="sans-serif" font-size="13" font-weight="bold" lengthAdjust="spacing" textLength="16" x="1449" y="745.4717">alt</text><text fill="#000000" font-family="sans-serif" font-size="11" font-weight="bold" lengthAdjust="spacing" textLength="109" x="1510" y="744.6611">[if no course found]</text><polygon fill="#181818" points="2097,765.75,2107,769.75,2097,773.75,2101,769.75" style="stroke:#181818;stroke-width:1.0;"/><line style="stroke:#181818;stroke-width:1.0;" x1="1524" x2="2103" y1="769.75" y2="769.75"/><text fill="#000000" font-family="sans-serif" font-size="13" font-weight="bold" lengthAdjust="spacing" textLength="14" x="1531" y="764.9951">19</text><text fill="#000000" font-family="sans-serif" font-size="13" lengthAdjust="spacing" textLength="548" x="1549" y="764.9951">buildCourse(courseId, courseTitle, courseName, description, maxEnrollments, minEnrollments)</text><polygon fill="#181818" points="2563,794.2734,2573,798.2734,2563,802.2734,2567,798.2734" style="stroke:#181818;stroke-width:1.0;"/><line style="stroke:#181818;stroke-width:1.0;" x1="2119" x2="2569" y1="798.2734" y2="798.2734"/><text fill="#000000" font-family="sans-serif" font-size="13" font-weight="bold" lengthAdjust="spacing" textLength="14" x="2126" y="793.5186">20</text><text fill="#000000" font-family="sans-serif" font-size="13" lengthAdjust="spacing" textLength="419" x="2144" y="793.5186">create(courseId, courseTitle, courseName, description, enrollmentLimits)</text><polygon fill="#181818" points="1535,852.7969,1525,856.7969,1535,860.7969,1531,856.7969" style="stroke:#181818;stroke-width:1.0;"/><line style="stroke:#181818;stroke-width:1.0;stroke-dasharray:2.0,2.0;" x1="1529" x2="2113" y1="856.7969" y2="856.7969"/><text fill="#000000" font-family="sans-serif" font-size="13" font-weight="bold" lengthAdjust="spacing" textLength="14" x="1541" y="852.042">21</text><text fill="#000000" font-family="sans-serif" font-size="13" lengthAdjust="spacing" textLength="64" x="1559" y="852.042">newCourse</text><polygon fill="#181818" points="2957,881.3203,2967,885.3203,2957,889.3203,2961,885.3203" style="stroke:#181818;stroke-width:1.0;"/><line style="stroke:#181818;stroke-width:1.0;" x1="1524" x2="2963" y1="885.3203" y2="885.3203"/><text fill="#000000" font-family="sans-serif" font-size="13" font-weight="bold" lengthAdjust="spacing" textLength="14" x="1531" y="880.5654">22</text><text fill="#000000" font-family="sans-serif" font-size="13" lengthAdjust="spacing" textLength="98" x="1549" y="880.5654">save(newCourse)</text><polygon fill="#181818" points="938,946.8438,928,950.8438,938,954.8438,934,950.8438" style="stroke:#181818;stroke-width:1.0;"/><line style="stroke:#181818;stroke-width:1.0;stroke-dasharray:2.0,2.0;" x1="932" x2="1518" y1="950.8438" y2="950.8438"/><text fill="#000000" font-family="sans-serif" font-size="13" font-weight="bold" lengthAdjust="spacing" textLength="14" x="944" y="946.0889">23</text><text fill="#000000" font-family="sans-serif" font-size="13" lengthAdjust="spacing" textLength="106" x="962" y="946.0889">operation success</text><polygon fill="#181818" points="341,975.3672,331,979.3672,341,983.3672,337,979.3672" style="stroke:#181818;stroke-width:1.0;"/><line style="stroke:#181818;stroke-width:1.0;stroke-dasharray:2.0,2.0;" x1="335" x2="921" y1="979.3672" y2="979.3672"/><text fill="#000000" font-family="sans-serif" font-size="13" font-weight="bold" lengthAdjust="spacing" textLength="14" x="347" y="974.6123">24</text><text fill="#000000" font-family="sans-serif" font-size="13" lengthAdjust="spacing" textLength="106" x="365" y="974.6123">operation success</text><polygon fill="#181818" points="47,1003.8906,37,1007.8906,47,1011.8906,43,1007.8906" style="stroke:#181818;stroke-width:1.0;"/><line style="stroke:#181818;stroke-width:1.0;stroke-dasharray:2.0,2.0;" x1="41" x2="319" y1="1007.8906" y2="1007.8906"/><text fill="#000000" font-family="sans-serif" font-size="13" font-weight="bold" lengthAdjust="spacing" textLength="14" x="53" y="1003.1357">25</text><text fill="#000000" font-family="sans-serif" font-size="13" lengthAdjust="spacing" textLength="106" x="71" y="1003.1357">operation success</text><!--MD5=[31faba09e23d86d1773a8a4a0ccc88e8]
@startuml
actor Manager as ACTOR
participant CreateCourseUI as UI <<presentation>>
control CreateCourseController as CONTROLLER <<application>>
participant CreateCourseService as SERVICE <<application>>
participant CourseFactory as COURSE_FAC <<factory>>
participant Course as COURSE <<domain>>
participant PersistenceContext as PERS_CONTX <<persistence>>
participant RepositoryFactory as REPO_FAC <<factory>>
database CourseRepository as COURSE_REPO <<repository>>
autonumber
activate ACTOR
activate UI

ACTOR -> UI : Manager selects option to create a course
UI -> CONTROLLER : create()
activate CONTROLLER
CONTROLLER -> SERVICE : create()
activate SERVICE
deactivate SERVICE
deactivate CONTROLLER
UI - -> ACTOR : System asks for the course creation data

ACTOR -> UI : Manager inserts the data
UI - -> ACTOR : System ask for confirmation
ACTOR -> UI : Manager confirms
UI -> CONTROLLER : createCourse(courseId, courseTitle, courseName, description, maxEnrollments, minEnrollments)
activate CONTROLLER
CONTROLLER -> SERVICE : createCourse(courseId, courseTitle, courseName, description, maxEnrollments, minEnrollments)
activate SERVICE
SERVICE -> COURSE_FAC : create()
activate COURSE_FAC
deactivate COURSE_FAC
SERVICE -> PERS_CONTX : repositories()
activate PERS_CONTX
PERS_CONTX -> REPO_FAC : create()
activate REPO_FAC
deactivate REPO_FAC
PERS_CONTX - ->SERVICE : repoFactory
deactivate PERS_CONTX
SERVICE -> REPO_FAC : courses()
activate REPO_FAC
REPO_FAC -> COURSE_REPO : create()
activate COURSE_REPO
deactivate COURSE_REPO
REPO_FAC - -> SERVICE : courseRepo
deactivate REPO_FAC
SERVICE -> COURSE_REPO : ofIdentity(courseId)
activate COURSE_REPO
COURSE_REPO - -> SERVICE : course
deactivate COURSE_REPO
alt if no course found
SERVICE -> COURSE_FAC : buildCourse(courseId, courseTitle, courseName, description, maxEnrollments, minEnrollments)
activate COURSE_FAC
COURSE_FAC -> COURSE : create(courseId, courseTitle, courseName, description, enrollmentLimits)
activate COURSE
deactivate COURSE
COURSE_FAC - -> SERVICE : newCourse
deactivate COURSE_FAC
SERVICE -> COURSE_REPO : save(newCourse)
activate COURSE_REPO
deactivate COURSE_REPO
end alt
SERVICE - -> CONTROLLER : operation success
deactivate SERVICE
CONTROLLER - -> UI : operation success
deactivate CONTROLLER
UI - -> ACTOR : operation success
deactivate ACTOR
@enduml

PlantUML version 1.2022.13(Sat Nov 19 13:22:17 WET 2022)
(GPL source distribution)
Java Runtime: OpenJDK Runtime Environment
JVM: OpenJDK 64-Bit Server VM
Default Encoding: Cp1252
Language: pt
Country: PT
--></g></svg>