<?xml version="1.0" encoding="us-ascii" standalone="no"?><svg xmlns="http://www.w3.org/2000/svg" xmlns:xlink="http://www.w3.org/1999/xlink" contentStyleType="text/css" height="1912px" preserveAspectRatio="none" style="width:2414px;height:1912px;background:#FFFFFF;" version="1.1" viewBox="0 0 2414 1912" width="2414px" zoomAndPan="magnify"><defs/><g><!--class Teacher--><g id="elem_Teacher"><rect codeLine="82" fill="#F1F1F1" height="116.4453" id="Teacher" rx="2.5" ry="2.5" style="stroke:#181818;stroke-width:0.5;" width="233" x="1734" y="1761"/><ellipse cx="1819.75" cy="1783.291" fill="#ADD1B2" rx="11" ry="11" style="stroke:#181818;stroke-width:1.0;"/><path d="M1822.5156,1779.166 Q1822.6719,1778.9473 1822.8594,1778.8379 Q1823.0469,1778.7285 1823.2656,1778.7285 Q1823.6406,1778.7285 1823.875,1778.9941 Q1824.1094,1779.2441 1824.1094,1779.8535 L1824.1094,1781.3066 Q1824.1094,1781.916 1823.875,1782.1816 Q1823.6406,1782.4473 1823.2656,1782.4473 Q1822.9219,1782.4473 1822.7188,1782.2441 Q1822.5156,1782.0566 1822.4063,1781.541 Q1822.3594,1781.1816 1822.1719,1780.9941 Q1821.8438,1780.6191 1821.2344,1780.4004 Q1820.625,1780.1816 1820,1780.1816 Q1819.2344,1780.1816 1818.5938,1780.5098 Q1817.9688,1780.8379 1817.4688,1781.5879 Q1816.9844,1782.3379 1816.9844,1783.3691 L1816.9844,1784.4629 Q1816.9844,1785.6973 1817.875,1786.5254 Q1818.7656,1787.3379 1820.3594,1787.3379 Q1821.2969,1787.3379 1821.9531,1787.0879 Q1822.3438,1786.9316 1822.7656,1786.4941 Q1823.0313,1786.2285 1823.1719,1786.1504 Q1823.3281,1786.0723 1823.5313,1786.0723 Q1823.8594,1786.0723 1824.1094,1786.3379 Q1824.375,1786.5879 1824.375,1786.9316 Q1824.375,1787.2754 1824.0313,1787.6816 Q1823.5313,1788.2598 1822.7344,1788.5879 Q1821.6563,1789.041 1820.3594,1789.041 Q1818.8438,1789.041 1817.6406,1788.416 Q1816.6563,1787.916 1815.9688,1786.8535 Q1815.2813,1785.7754 1815.2813,1784.4941 L1815.2813,1783.3379 Q1815.2813,1782.0098 1815.8906,1780.8691 Q1816.5156,1779.7129 1817.6094,1779.1035 Q1818.7031,1778.4785 1819.9375,1778.4785 Q1820.6719,1778.4785 1821.3125,1778.6504 Q1821.9688,1778.8066 1822.5156,1779.166 Z " fill="#000000"/><text fill="#000000" font-family="sans-serif" font-size="12" font-style="italic" lengthAdjust="spacing" textLength="56" x="1838.75" y="1778.9492">&#171;domain&#187;</text><text fill="#000000" font-family="sans-serif" font-size="14" lengthAdjust="spacing" textLength="53" x="1840.25" y="1797.0684">Teacher</text><line style="stroke:#181818;stroke-width:0.5;" x1="1735" x2="1966" y1="1805.582" y2="1805.582"/><text fill="#000000" font-family="sans-serif" font-size="14" lengthAdjust="spacing" textLength="221" x="1740" y="1824.6895">TaxPayerNumber: taxPayerNumber</text><text fill="#000000" font-family="sans-serif" font-size="14" lengthAdjust="spacing" textLength="121" x="1740" y="1843.3105">Acronym : acronym</text><text fill="#000000" font-family="sans-serif" font-size="14" lengthAdjust="spacing" textLength="158" x="1740" y="1861.9316">DateOfBirth : dateOfBirth</text><line style="stroke:#181818;stroke-width:0.5;" x1="1735" x2="1966" y1="1869.4453" y2="1869.4453"/></g><!--class Student--><g id="elem_Student"><rect codeLine="76" fill="#F1F1F1" height="116.4453" id="Student" rx="2.5" ry="2.5" style="stroke:#181818;stroke-width:0.5;" width="316" x="1325.5" y="1761"/><ellipse cx="1453.25" cy="1783.291" fill="#ADD1B2" rx="11" ry="11" style="stroke:#181818;stroke-width:1.0;"/><path d="M1456.0156,1779.166 Q1456.1719,1778.9473 1456.3594,1778.8379 Q1456.5469,1778.7285 1456.7656,1778.7285 Q1457.1406,1778.7285 1457.375,1778.9941 Q1457.6094,1779.2441 1457.6094,1779.8535 L1457.6094,1781.3066 Q1457.6094,1781.916 1457.375,1782.1816 Q1457.1406,1782.4473 1456.7656,1782.4473 Q1456.4219,1782.4473 1456.2188,1782.2441 Q1456.0156,1782.0566 1455.9063,1781.541 Q1455.8594,1781.1816 1455.6719,1780.9941 Q1455.3438,1780.6191 1454.7344,1780.4004 Q1454.125,1780.1816 1453.5,1780.1816 Q1452.7344,1780.1816 1452.0938,1780.5098 Q1451.4688,1780.8379 1450.9688,1781.5879 Q1450.4844,1782.3379 1450.4844,1783.3691 L1450.4844,1784.4629 Q1450.4844,1785.6973 1451.375,1786.5254 Q1452.2656,1787.3379 1453.8594,1787.3379 Q1454.7969,1787.3379 1455.4531,1787.0879 Q1455.8438,1786.9316 1456.2656,1786.4941 Q1456.5313,1786.2285 1456.6719,1786.1504 Q1456.8281,1786.0723 1457.0313,1786.0723 Q1457.3594,1786.0723 1457.6094,1786.3379 Q1457.875,1786.5879 1457.875,1786.9316 Q1457.875,1787.2754 1457.5313,1787.6816 Q1457.0313,1788.2598 1456.2344,1788.5879 Q1455.1563,1789.041 1453.8594,1789.041 Q1452.3438,1789.041 1451.1406,1788.416 Q1450.1563,1787.916 1449.4688,1786.8535 Q1448.7813,1785.7754 1448.7813,1784.4941 L1448.7813,1783.3379 Q1448.7813,1782.0098 1449.3906,1780.8691 Q1450.0156,1779.7129 1451.1094,1779.1035 Q1452.2031,1778.4785 1453.4375,1778.4785 Q1454.1719,1778.4785 1454.8125,1778.6504 Q1455.4688,1778.8066 1456.0156,1779.166 Z " fill="#000000"/><text fill="#000000" font-family="sans-serif" font-size="12" font-style="italic" lengthAdjust="spacing" textLength="56" x="1471.75" y="1778.9492">&#171;domain&#187;</text><text fill="#000000" font-family="sans-serif" font-size="14" lengthAdjust="spacing" textLength="49" x="1475.25" y="1797.0684">Student</text><line style="stroke:#181818;stroke-width:0.5;" x1="1326.5" x2="1640.5" y1="1805.582" y2="1805.582"/><text fill="#000000" font-family="sans-serif" font-size="14" lengthAdjust="spacing" textLength="221" x="1331.5" y="1824.6895">TaxPayerNumber: taxPayerNumber</text><text fill="#000000" font-family="sans-serif" font-size="14" lengthAdjust="spacing" textLength="304" x="1331.5" y="1843.3105">MecanographicNumber : mecanographicNumber</text><text fill="#000000" font-family="sans-serif" font-size="14" lengthAdjust="spacing" textLength="158" x="1331.5" y="1861.9316">DateOfBirth : dateOfBirth</text><line style="stroke:#181818;stroke-width:0.5;" x1="1326.5" x2="1640.5" y1="1869.4453" y2="1869.4453"/></g><!--class AddUserUI--><g id="elem_AddUserUI"><rect codeLine="62" fill="#F1F1F1" height="116.4453" id="AddUserUI" rx="2.5" ry="2.5" style="stroke:#181818;stroke-width:0.5;" width="127" x="1735" y="7"/><ellipse cx="1757.65" cy="29.291" fill="#ADD1B2" rx="11" ry="11" style="stroke:#181818;stroke-width:1.0;"/><path d="M1760.4156,25.166 Q1760.5719,24.9473 1760.7594,24.8379 Q1760.9469,24.7285 1761.1656,24.7285 Q1761.5406,24.7285 1761.775,24.9941 Q1762.0094,25.2441 1762.0094,25.8535 L1762.0094,27.3066 Q1762.0094,27.916 1761.775,28.1816 Q1761.5406,28.4473 1761.1656,28.4473 Q1760.8219,28.4473 1760.6188,28.2441 Q1760.4156,28.0566 1760.3063,27.541 Q1760.2594,27.1816 1760.0719,26.9941 Q1759.7438,26.6191 1759.1344,26.4004 Q1758.525,26.1816 1757.9,26.1816 Q1757.1344,26.1816 1756.4938,26.5098 Q1755.8688,26.8379 1755.3688,27.5879 Q1754.8844,28.3379 1754.8844,29.3691 L1754.8844,30.4629 Q1754.8844,31.6973 1755.775,32.5254 Q1756.6656,33.3379 1758.2594,33.3379 Q1759.1969,33.3379 1759.8531,33.0879 Q1760.2438,32.9316 1760.6656,32.4941 Q1760.9313,32.2285 1761.0719,32.1504 Q1761.2281,32.0723 1761.4313,32.0723 Q1761.7594,32.0723 1762.0094,32.3379 Q1762.275,32.5879 1762.275,32.9316 Q1762.275,33.2754 1761.9313,33.6816 Q1761.4313,34.2598 1760.6344,34.5879 Q1759.5563,35.041 1758.2594,35.041 Q1756.7438,35.041 1755.5406,34.416 Q1754.5563,33.916 1753.8688,32.8535 Q1753.1813,31.7754 1753.1813,30.4941 L1753.1813,29.3379 Q1753.1813,28.0098 1753.7906,26.8691 Q1754.4156,25.7129 1755.5094,25.1035 Q1756.6031,24.4785 1757.8375,24.4785 Q1758.5719,24.4785 1759.2125,24.6504 Q1759.8688,24.8066 1760.4156,25.166 Z " fill="#000000"/><text fill="#000000" font-family="sans-serif" font-size="12" font-style="italic" lengthAdjust="spacing" textLength="82" x="1771.35" y="24.9492">&#171;presentation&#187;</text><text fill="#000000" font-family="sans-serif" font-size="14" lengthAdjust="spacing" textLength="66" x="1779.35" y="43.0684">AddUserUI</text><line style="stroke:#181818;stroke-width:0.5;" x1="1736" x2="1861" y1="51.582" y2="51.582"/><line style="stroke:#181818;stroke-width:0.5;" x1="1736" x2="1861" y1="59.582" y2="59.582"/><text fill="#000000" font-family="sans-serif" font-size="14" lengthAdjust="spacing" textLength="64" x="1741" y="78.6895">doShow();</text><text fill="#000000" font-family="sans-serif" font-size="14" lengthAdjust="spacing" textLength="82" x="1741" y="97.3105">showRoles();</text><text fill="#000000" font-family="sans-serif" font-size="14" lengthAdjust="spacing" textLength="115" x="1741" y="115.9316">buildRolesMenu();</text></g><!--class AddUserController--><g id="elem_AddUserController"><rect codeLine="88" fill="#F1F1F1" height="116.4453" id="AddUserController" rx="2.5" ry="2.5" style="stroke:#181818;stroke-width:0.5;" width="1217" x="1190" y="183"/><ellipse cx="1736.25" cy="205.291" fill="#ADD1B2" rx="11" ry="11" style="stroke:#181818;stroke-width:1.0;"/><path d="M1739.0156,201.166 Q1739.1719,200.9473 1739.3594,200.8379 Q1739.5469,200.7285 1739.7656,200.7285 Q1740.1406,200.7285 1740.375,200.9941 Q1740.6094,201.2441 1740.6094,201.8535 L1740.6094,203.3066 Q1740.6094,203.916 1740.375,204.1816 Q1740.1406,204.4473 1739.7656,204.4473 Q1739.4219,204.4473 1739.2188,204.2441 Q1739.0156,204.0566 1738.9063,203.541 Q1738.8594,203.1816 1738.6719,202.9941 Q1738.3438,202.6191 1737.7344,202.4004 Q1737.125,202.1816 1736.5,202.1816 Q1735.7344,202.1816 1735.0938,202.5098 Q1734.4688,202.8379 1733.9688,203.5879 Q1733.4844,204.3379 1733.4844,205.3691 L1733.4844,206.4629 Q1733.4844,207.6973 1734.375,208.5254 Q1735.2656,209.3379 1736.8594,209.3379 Q1737.7969,209.3379 1738.4531,209.0879 Q1738.8438,208.9316 1739.2656,208.4941 Q1739.5313,208.2285 1739.6719,208.1504 Q1739.8281,208.0723 1740.0313,208.0723 Q1740.3594,208.0723 1740.6094,208.3379 Q1740.875,208.5879 1740.875,208.9316 Q1740.875,209.2754 1740.5313,209.6816 Q1740.0313,210.2598 1739.2344,210.5879 Q1738.1563,211.041 1736.8594,211.041 Q1735.3438,211.041 1734.1406,210.416 Q1733.1563,209.916 1732.4688,208.8535 Q1731.7813,207.7754 1731.7813,206.4941 L1731.7813,205.3379 Q1731.7813,204.0098 1732.3906,202.8691 Q1733.0156,201.7129 1734.1094,201.1035 Q1735.2031,200.4785 1736.4375,200.4785 Q1737.1719,200.4785 1737.8125,200.6504 Q1738.4688,200.8066 1739.0156,201.166 Z " fill="#000000"/><text fill="#000000" font-family="sans-serif" font-size="12" font-style="italic" lengthAdjust="spacing" textLength="74" x="1777.75" y="200.9492">&#171;application&#187;</text><text fill="#000000" font-family="sans-serif" font-size="14" lengthAdjust="spacing" textLength="116" x="1756.75" y="219.0684">AddUserController</text><line style="stroke:#181818;stroke-width:0.5;" x1="1191" x2="2406" y1="227.582" y2="227.582"/><line style="stroke:#181818;stroke-width:0.5;" x1="1191" x2="2406" y1="235.582" y2="235.582"/><text fill="#000000" font-family="sans-serif" font-size="14" lengthAdjust="spacing" textLength="829" x="1196" y="254.6895">addUser(String: username,String: password,String: firstName, String: lastName,String: fullName,String: email,Set&lt;Role&gt; : roleTypes)</text><text fill="#000000" font-family="sans-serif" font-size="14" lengthAdjust="spacing" textLength="1205" x="1196" y="273.3105">addUser(String: username,String: password,String: firstName, String: lastName,String: fullName,Set&lt;Role&gt;: roleTypes,String: email,String: Acronym ,String: Date of Birth,int: Tax Payer Number)</text><text fill="#000000" font-family="sans-serif" font-size="14" lengthAdjust="spacing" textLength="1097" x="1196" y="291.9316">addUser(String: username,String: password,String: firstName, String: lastName,String: fullName,String: email,Set&lt;Role&gt;: roleTypes,String: Date of Birth,int: Tax Payer Number)</text></g><!--class AuthzRegistry--><g id="elem_AuthzRegistry"><rect codeLine="117" fill="#F1F1F1" height="97.8242" id="AuthzRegistry" rx="2.5" ry="2.5" style="stroke:#181818;stroke-width:0.5;" width="150" x="1796.5" y="535"/><ellipse cx="1825.45" cy="557.291" fill="#ADD1B2" rx="11" ry="11" style="stroke:#181818;stroke-width:1.0;"/><path d="M1828.2156,553.166 Q1828.3719,552.9473 1828.5594,552.8379 Q1828.7469,552.7285 1828.9656,552.7285 Q1829.3406,552.7285 1829.575,552.9941 Q1829.8094,553.2441 1829.8094,553.8535 L1829.8094,555.3066 Q1829.8094,555.916 1829.575,556.1816 Q1829.3406,556.4473 1828.9656,556.4473 Q1828.6219,556.4473 1828.4188,556.2441 Q1828.2156,556.0566 1828.1063,555.541 Q1828.0594,555.1816 1827.8719,554.9941 Q1827.5438,554.6191 1826.9344,554.4004 Q1826.325,554.1816 1825.7,554.1816 Q1824.9344,554.1816 1824.2938,554.5098 Q1823.6688,554.8379 1823.1688,555.5879 Q1822.6844,556.3379 1822.6844,557.3691 L1822.6844,558.4629 Q1822.6844,559.6973 1823.575,560.5254 Q1824.4656,561.3379 1826.0594,561.3379 Q1826.9969,561.3379 1827.6531,561.0879 Q1828.0438,560.9316 1828.4656,560.4941 Q1828.7313,560.2285 1828.8719,560.1504 Q1829.0281,560.0723 1829.2313,560.0723 Q1829.5594,560.0723 1829.8094,560.3379 Q1830.075,560.5879 1830.075,560.9316 Q1830.075,561.2754 1829.7313,561.6816 Q1829.2313,562.2598 1828.4344,562.5879 Q1827.3563,563.041 1826.0594,563.041 Q1824.5438,563.041 1823.3406,562.416 Q1822.3563,561.916 1821.6688,560.8535 Q1820.9813,559.7754 1820.9813,558.4941 L1820.9813,557.3379 Q1820.9813,556.0098 1821.5906,554.8691 Q1822.2156,553.7129 1823.3094,553.1035 Q1824.4031,552.4785 1825.6375,552.4785 Q1826.3719,552.4785 1827.0125,552.6504 Q1827.6688,552.8066 1828.2156,553.166 Z " fill="#000000"/><text fill="#000000" font-family="sans-serif" font-size="12" font-style="italic" lengthAdjust="spacing" textLength="74" x="1849.05" y="552.9492">&#171;application&#187;</text><text fill="#000000" font-family="sans-serif" font-size="14" lengthAdjust="spacing" textLength="87" x="1842.55" y="571.0684">AuthzRegistry</text><line style="stroke:#181818;stroke-width:0.5;" x1="1797.5" x2="1945.5" y1="579.582" y2="579.582"/><line style="stroke:#181818;stroke-width:0.5;" x1="1797.5" x2="1945.5" y1="587.582" y2="587.582"/><text fill="#000000" font-family="sans-serif" font-size="14" lengthAdjust="spacing" textLength="138" x="1802.5" y="606.6895">authorizationService()</text><text fill="#000000" font-family="sans-serif" font-size="14" lengthAdjust="spacing" textLength="85" x="1802.5" y="625.3105">userService()</text></g><!--class AuthorizationService--><g id="elem_AuthorizationService"><rect codeLine="122" fill="#F1F1F1" height="79.2031" id="AuthorizationService" rx="2.5" ry="2.5" style="stroke:#181818;stroke-width:0.5;" width="335" x="1852" y="377.5"/><ellipse cx="1950.75" cy="399.791" fill="#ADD1B2" rx="11" ry="11" style="stroke:#181818;stroke-width:1.0;"/><path d="M1953.5156,395.666 Q1953.6719,395.4473 1953.8594,395.3379 Q1954.0469,395.2285 1954.2656,395.2285 Q1954.6406,395.2285 1954.875,395.4941 Q1955.1094,395.7441 1955.1094,396.3535 L1955.1094,397.8066 Q1955.1094,398.416 1954.875,398.6816 Q1954.6406,398.9473 1954.2656,398.9473 Q1953.9219,398.9473 1953.7188,398.7441 Q1953.5156,398.5566 1953.4063,398.041 Q1953.3594,397.6816 1953.1719,397.4941 Q1952.8438,397.1191 1952.2344,396.9004 Q1951.625,396.6816 1951,396.6816 Q1950.2344,396.6816 1949.5938,397.0098 Q1948.9688,397.3379 1948.4688,398.0879 Q1947.9844,398.8379 1947.9844,399.8691 L1947.9844,400.9629 Q1947.9844,402.1973 1948.875,403.0254 Q1949.7656,403.8379 1951.3594,403.8379 Q1952.2969,403.8379 1952.9531,403.5879 Q1953.3438,403.4316 1953.7656,402.9941 Q1954.0313,402.7285 1954.1719,402.6504 Q1954.3281,402.5723 1954.5313,402.5723 Q1954.8594,402.5723 1955.1094,402.8379 Q1955.375,403.0879 1955.375,403.4316 Q1955.375,403.7754 1955.0313,404.1816 Q1954.5313,404.7598 1953.7344,405.0879 Q1952.6563,405.541 1951.3594,405.541 Q1949.8438,405.541 1948.6406,404.916 Q1947.6563,404.416 1946.9688,403.3535 Q1946.2813,402.2754 1946.2813,400.9941 L1946.2813,399.8379 Q1946.2813,398.5098 1946.8906,397.3691 Q1947.5156,396.2129 1948.6094,395.6035 Q1949.7031,394.9785 1950.9375,394.9785 Q1951.6719,394.9785 1952.3125,395.1504 Q1952.9688,395.3066 1953.5156,395.666 Z " fill="#000000"/><text fill="#000000" font-family="sans-serif" font-size="12" font-style="italic" lengthAdjust="spacing" textLength="74" x="1998.75" y="395.4492">&#171;application&#187;</text><text fill="#000000" font-family="sans-serif" font-size="14" lengthAdjust="spacing" textLength="129" x="1971.25" y="413.5684">AuthorizationService</text><line style="stroke:#181818;stroke-width:0.5;" x1="1853" x2="2186" y1="422.082" y2="422.082"/><line style="stroke:#181818;stroke-width:0.5;" x1="1853" x2="2186" y1="430.082" y2="430.082"/><text fill="#000000" font-family="sans-serif" font-size="14" lengthAdjust="spacing" textLength="323" x="1858" y="449.1895">ensureAuthenticatedUserHasAnyOf(Role... actions)</text></g><!--class UserManagementService--><g id="elem_UserManagementService"><rect codeLine="126" fill="#F1F1F1" height="79.2031" id="UserManagementService" rx="2.5" ry="2.5" style="stroke:#181818;stroke-width:0.5;" width="917" x="7" y="544.5"/><ellipse cx="382.25" cy="566.791" fill="#ADD1B2" rx="11" ry="11" style="stroke:#181818;stroke-width:1.0;"/><path d="M385.0156,562.666 Q385.1719,562.4473 385.3594,562.3379 Q385.5469,562.2285 385.7656,562.2285 Q386.1406,562.2285 386.375,562.4941 Q386.6094,562.7441 386.6094,563.3535 L386.6094,564.8066 Q386.6094,565.416 386.375,565.6816 Q386.1406,565.9473 385.7656,565.9473 Q385.4219,565.9473 385.2188,565.7441 Q385.0156,565.5566 384.9063,565.041 Q384.8594,564.6816 384.6719,564.4941 Q384.3438,564.1191 383.7344,563.9004 Q383.125,563.6816 382.5,563.6816 Q381.7344,563.6816 381.0938,564.0098 Q380.4688,564.3379 379.9688,565.0879 Q379.4844,565.8379 379.4844,566.8691 L379.4844,567.9629 Q379.4844,569.1973 380.375,570.0254 Q381.2656,570.8379 382.8594,570.8379 Q383.7969,570.8379 384.4531,570.5879 Q384.8438,570.4316 385.2656,569.9941 Q385.5313,569.7285 385.6719,569.6504 Q385.8281,569.5723 386.0313,569.5723 Q386.3594,569.5723 386.6094,569.8379 Q386.875,570.0879 386.875,570.4316 Q386.875,570.7754 386.5313,571.1816 Q386.0313,571.7598 385.2344,572.0879 Q384.1563,572.541 382.8594,572.541 Q381.3438,572.541 380.1406,571.916 Q379.1563,571.416 378.4688,570.3535 Q377.7813,569.2754 377.7813,567.9941 L377.7813,566.8379 Q377.7813,565.5098 378.3906,564.3691 Q379.0156,563.2129 380.1094,562.6035 Q381.2031,561.9785 382.4375,561.9785 Q383.1719,561.9785 383.8125,562.1504 Q384.4688,562.3066 385.0156,562.666 Z " fill="#000000"/><text fill="#000000" font-family="sans-serif" font-size="12" font-style="italic" lengthAdjust="spacing" textLength="74" x="444.75" y="562.4492">&#171;application&#187;</text><text fill="#000000" font-family="sans-serif" font-size="14" lengthAdjust="spacing" textLength="158" x="402.75" y="580.5684">UserManagementService</text><line style="stroke:#181818;stroke-width:0.5;" x1="8" x2="923" y1="589.082" y2="589.082"/><line style="stroke:#181818;stroke-width:0.5;" x1="8" x2="923" y1="597.082" y2="597.082"/><text fill="#000000" font-family="sans-serif" font-size="14" lengthAdjust="spacing" textLength="905" x="13" y="616.1895">registerNewUser(String: username,String: rawPassword,String: firstName,String: lastName,String: email,Set&lt;Role&gt;: roles,Calendar: createdOn) }</text></g><!--class SystemUserBuilder--><g id="elem_SystemUserBuilder"><rect codeLine="130" fill="#F1F1F1" height="265.4141" id="SystemUserBuilder" rx="2.5" ry="2.5" style="stroke:#181818;stroke-width:0.5;" width="569" x="77" y="1018"/><ellipse cx="297.75" cy="1040.291" fill="#ADD1B2" rx="11" ry="11" style="stroke:#181818;stroke-width:1.0;"/><path d="M300.5156,1036.166 Q300.6719,1035.9473 300.8594,1035.8379 Q301.0469,1035.7285 301.2656,1035.7285 Q301.6406,1035.7285 301.875,1035.9941 Q302.1094,1036.2441 302.1094,1036.8535 L302.1094,1038.3066 Q302.1094,1038.916 301.875,1039.1816 Q301.6406,1039.4473 301.2656,1039.4473 Q300.9219,1039.4473 300.7188,1039.2441 Q300.5156,1039.0566 300.4063,1038.541 Q300.3594,1038.1816 300.1719,1037.9941 Q299.8438,1037.6191 299.2344,1037.4004 Q298.625,1037.1816 298,1037.1816 Q297.2344,1037.1816 296.5938,1037.5098 Q295.9688,1037.8379 295.4688,1038.5879 Q294.9844,1039.3379 294.9844,1040.3691 L294.9844,1041.4629 Q294.9844,1042.6973 295.875,1043.5254 Q296.7656,1044.3379 298.3594,1044.3379 Q299.2969,1044.3379 299.9531,1044.0879 Q300.3438,1043.9316 300.7656,1043.4941 Q301.0313,1043.2285 301.1719,1043.1504 Q301.3281,1043.0723 301.5313,1043.0723 Q301.8594,1043.0723 302.1094,1043.3379 Q302.375,1043.5879 302.375,1043.9316 Q302.375,1044.2754 302.0313,1044.6816 Q301.5313,1045.2598 300.7344,1045.5879 Q299.6563,1046.041 298.3594,1046.041 Q296.8438,1046.041 295.6406,1045.416 Q294.6563,1044.916 293.9688,1043.8535 Q293.2813,1042.7754 293.2813,1041.4941 L293.2813,1040.3379 Q293.2813,1039.0098 293.8906,1037.8691 Q294.5156,1036.7129 295.6094,1036.1035 Q296.7031,1035.4785 297.9375,1035.4785 Q298.6719,1035.4785 299.3125,1035.6504 Q299.9688,1035.8066 300.5156,1036.166 Z " fill="#000000"/><text fill="#000000" font-family="sans-serif" font-size="12" font-style="italic" lengthAdjust="spacing" textLength="53" x="351.25" y="1035.9492">&#171;builder&#187;</text><text fill="#000000" font-family="sans-serif" font-size="14" lengthAdjust="spacing" textLength="119" x="318.25" y="1054.0684">SystemUserBuilder</text><line style="stroke:#181818;stroke-width:0.5;" x1="78" x2="645" y1="1062.582" y2="1062.582"/><text fill="#000000" font-family="sans-serif" font-size="14" lengthAdjust="spacing" textLength="139" x="83" y="1081.6895">Username: username;</text><text fill="#000000" font-family="sans-serif" font-size="14" lengthAdjust="spacing" textLength="133" x="83" y="1100.3105">Password: password;</text><text fill="#000000" font-family="sans-serif" font-size="14" lengthAdjust="spacing" textLength="83" x="83" y="1118.9316">Name: name;</text><text fill="#000000" font-family="sans-serif" font-size="14" lengthAdjust="spacing" textLength="131" x="83" y="1137.5527">EmailAddress: email;</text><text fill="#000000" font-family="sans-serif" font-size="14" lengthAdjust="spacing" textLength="137" x="83" y="1156.1738">Calendar: createdOn;</text><text fill="#000000" font-family="sans-serif" font-size="14" lengthAdjust="spacing" textLength="93" x="83" y="1174.7949">RoleSet: roles;</text><text fill="#000000" font-family="sans-serif" font-size="14" lengthAdjust="spacing" textLength="146" x="83" y="1193.416">PasswordPolicy: policy;</text><text fill="#000000" font-family="sans-serif" font-size="14" lengthAdjust="spacing" textLength="178" x="83" y="1212.0371">PasswordEncoder: encoder;</text><line style="stroke:#181818;stroke-width:0.5;" x1="78" x2="645" y1="1219.5508" y2="1219.5508"/><text fill="#000000" font-family="sans-serif" font-size="14" lengthAdjust="spacing" textLength="557" x="83" y="1238.6582">with(String: userName,String: password, String: firstName, String: lastName,String: email)</text><text fill="#000000" font-family="sans-serif" font-size="14" lengthAdjust="spacing" textLength="210" x="83" y="1257.2793">createdOn(Calendar: createdOn)</text><text fill="#000000" font-family="sans-serif" font-size="14" lengthAdjust="spacing" textLength="214" x="83" y="1275.9004">withRoles(Set&lt;Role&gt;: someRoles)</text></g><!--class SystemUser--><g id="elem_SystemUser"><rect codeLine="144" fill="#F1F1F1" height="172.3086" id="SystemUser" rx="2.5" ry="2.5" style="stroke:#181818;stroke-width:0.5;" width="151" x="617" y="1733"/><ellipse cx="651.8" cy="1755.291" fill="#ADD1B2" rx="11" ry="11" style="stroke:#181818;stroke-width:1.0;"/><path d="M654.5656,1751.166 Q654.7219,1750.9473 654.9094,1750.8379 Q655.0969,1750.7285 655.3156,1750.7285 Q655.6906,1750.7285 655.925,1750.9941 Q656.1594,1751.2441 656.1594,1751.8535 L656.1594,1753.3066 Q656.1594,1753.916 655.925,1754.1816 Q655.6906,1754.4473 655.3156,1754.4473 Q654.9719,1754.4473 654.7688,1754.2441 Q654.5656,1754.0566 654.4563,1753.541 Q654.4094,1753.1816 654.2219,1752.9941 Q653.8938,1752.6191 653.2844,1752.4004 Q652.675,1752.1816 652.05,1752.1816 Q651.2844,1752.1816 650.6438,1752.5098 Q650.0188,1752.8379 649.5188,1753.5879 Q649.0344,1754.3379 649.0344,1755.3691 L649.0344,1756.4629 Q649.0344,1757.6973 649.925,1758.5254 Q650.8156,1759.3379 652.4094,1759.3379 Q653.3469,1759.3379 654.0031,1759.0879 Q654.3938,1758.9316 654.8156,1758.4941 Q655.0813,1758.2285 655.2219,1758.1504 Q655.3781,1758.0723 655.5813,1758.0723 Q655.9094,1758.0723 656.1594,1758.3379 Q656.425,1758.5879 656.425,1758.9316 Q656.425,1759.2754 656.0813,1759.6816 Q655.5813,1760.2598 654.7844,1760.5879 Q653.7063,1761.041 652.4094,1761.041 Q650.8938,1761.041 649.6906,1760.416 Q648.7063,1759.916 648.0188,1758.8535 Q647.3313,1757.7754 647.3313,1756.4941 L647.3313,1755.3379 Q647.3313,1754.0098 647.9406,1752.8691 Q648.5656,1751.7129 649.6594,1751.1035 Q650.7531,1750.4785 651.9875,1750.4785 Q652.7219,1750.4785 653.3625,1750.6504 Q654.0188,1750.8066 654.5656,1751.166 Z " fill="#000000"/><text fill="#000000" font-family="sans-serif" font-size="12" font-style="italic" lengthAdjust="spacing" textLength="56" x="679.7" y="1750.9492">&#171;domain&#187;</text><text fill="#000000" font-family="sans-serif" font-size="14" lengthAdjust="spacing" textLength="75" x="670.2" y="1769.0684">SystemUser</text><line style="stroke:#181818;stroke-width:0.5;" x1="618" x2="767" y1="1777.582" y2="1777.582"/><text fill="#000000" font-family="sans-serif" font-size="14" lengthAdjust="spacing" textLength="139" x="623" y="1796.6895">Username: username;</text><text fill="#000000" font-family="sans-serif" font-size="14" lengthAdjust="spacing" textLength="133" x="623" y="1815.3105">Password: password;</text><text fill="#000000" font-family="sans-serif" font-size="14" lengthAdjust="spacing" textLength="83" x="623" y="1833.9316">Name: name;</text><text fill="#000000" font-family="sans-serif" font-size="14" lengthAdjust="spacing" textLength="131" x="623" y="1852.5527">EmailAddress: email;</text><text fill="#000000" font-family="sans-serif" font-size="14" lengthAdjust="spacing" textLength="137" x="623" y="1871.1738">Calendar: createdOn;</text><text fill="#000000" font-family="sans-serif" font-size="14" lengthAdjust="spacing" textLength="93" x="623" y="1889.7949">RoleSet: roles;</text><line style="stroke:#181818;stroke-width:0.5;" x1="618" x2="767" y1="1897.3086" y2="1897.3086"/></g><!--class PersonService--><g id="elem_PersonService"><rect codeLine="190" fill="#F1F1F1" height="116.4453" id="PersonService" rx="2.5" ry="2.5" style="stroke:#181818;stroke-width:0.5;" width="724" x="948.5" y="359"/><ellipse cx="1260.25" cy="381.291" fill="#ADD1B2" rx="11" ry="11" style="stroke:#181818;stroke-width:1.0;"/><path d="M1263.0156,377.166 Q1263.1719,376.9473 1263.3594,376.8379 Q1263.5469,376.7285 1263.7656,376.7285 Q1264.1406,376.7285 1264.375,376.9941 Q1264.6094,377.2441 1264.6094,377.8535 L1264.6094,379.3066 Q1264.6094,379.916 1264.375,380.1816 Q1264.1406,380.4473 1263.7656,380.4473 Q1263.4219,380.4473 1263.2188,380.2441 Q1263.0156,380.0566 1262.9063,379.541 Q1262.8594,379.1816 1262.6719,378.9941 Q1262.3438,378.6191 1261.7344,378.4004 Q1261.125,378.1816 1260.5,378.1816 Q1259.7344,378.1816 1259.0938,378.5098 Q1258.4688,378.8379 1257.9688,379.5879 Q1257.4844,380.3379 1257.4844,381.3691 L1257.4844,382.4629 Q1257.4844,383.6973 1258.375,384.5254 Q1259.2656,385.3379 1260.8594,385.3379 Q1261.7969,385.3379 1262.4531,385.0879 Q1262.8438,384.9316 1263.2656,384.4941 Q1263.5313,384.2285 1263.6719,384.1504 Q1263.8281,384.0723 1264.0313,384.0723 Q1264.3594,384.0723 1264.6094,384.3379 Q1264.875,384.5879 1264.875,384.9316 Q1264.875,385.2754 1264.5313,385.6816 Q1264.0313,386.2598 1263.2344,386.5879 Q1262.1563,387.041 1260.8594,387.041 Q1259.3438,387.041 1258.1406,386.416 Q1257.1563,385.916 1256.4688,384.8535 Q1255.7813,383.7754 1255.7813,382.4941 L1255.7813,381.3379 Q1255.7813,380.0098 1256.3906,378.8691 Q1257.0156,377.7129 1258.1094,377.1035 Q1259.2031,376.4785 1260.4375,376.4785 Q1261.1719,376.4785 1261.8125,376.6504 Q1262.4688,376.8066 1263.0156,377.166 Z " fill="#000000"/><text fill="#000000" font-family="sans-serif" font-size="12" font-style="italic" lengthAdjust="spacing" textLength="74" x="1289.75" y="376.9492">&#171;application&#187;</text><text fill="#000000" font-family="sans-serif" font-size="14" lengthAdjust="spacing" textLength="92" x="1280.75" y="395.0684">PersonService</text><line style="stroke:#181818;stroke-width:0.5;" x1="949.5" x2="1671.5" y1="403.582" y2="403.582"/><line style="stroke:#181818;stroke-width:0.5;" x1="949.5" x2="1671.5" y1="411.582" y2="411.582"/><text fill="#000000" font-family="sans-serif" font-size="14" lengthAdjust="spacing" textLength="342" x="954.5" y="430.6895">registerNewPerson(String: fullname,SystemUser: user)</text><text fill="#000000" font-family="sans-serif" font-size="14" lengthAdjust="spacing" textLength="605" x="954.5" y="449.3105">registerNewStudent(String: fullname,SystemUser: user , Date: DateOfBirth, int: taxPayerNumber)</text><text fill="#000000" font-family="sans-serif" font-size="14" lengthAdjust="spacing" textLength="712" x="954.5" y="467.9316">registerNewTeacher(String: fullname,SystemUser: user ,String: acronym, Date: DateOfBirth, int: taxPayerNumber)</text></g><!--class PersonBuilder--><g id="elem_PersonBuilder"><rect codeLine="153" fill="#F1F1F1" height="265.4141" id="PersonBuilder" rx="2.5" ry="2.5" style="stroke:#181818;stroke-width:0.5;" width="376" x="1243.5" y="693"/><ellipse cx="1382.75" cy="715.291" fill="#ADD1B2" rx="11" ry="11" style="stroke:#181818;stroke-width:1.0;"/><path d="M1385.5156,711.166 Q1385.6719,710.9473 1385.8594,710.8379 Q1386.0469,710.7285 1386.2656,710.7285 Q1386.6406,710.7285 1386.875,710.9941 Q1387.1094,711.2441 1387.1094,711.8535 L1387.1094,713.3066 Q1387.1094,713.916 1386.875,714.1816 Q1386.6406,714.4473 1386.2656,714.4473 Q1385.9219,714.4473 1385.7188,714.2441 Q1385.5156,714.0566 1385.4063,713.541 Q1385.3594,713.1816 1385.1719,712.9941 Q1384.8438,712.6191 1384.2344,712.4004 Q1383.625,712.1816 1383,712.1816 Q1382.2344,712.1816 1381.5938,712.5098 Q1380.9688,712.8379 1380.4688,713.5879 Q1379.9844,714.3379 1379.9844,715.3691 L1379.9844,716.4629 Q1379.9844,717.6973 1380.875,718.5254 Q1381.7656,719.3379 1383.3594,719.3379 Q1384.2969,719.3379 1384.9531,719.0879 Q1385.3438,718.9316 1385.7656,718.4941 Q1386.0313,718.2285 1386.1719,718.1504 Q1386.3281,718.0723 1386.5313,718.0723 Q1386.8594,718.0723 1387.1094,718.3379 Q1387.375,718.5879 1387.375,718.9316 Q1387.375,719.2754 1387.0313,719.6816 Q1386.5313,720.2598 1385.7344,720.5879 Q1384.6563,721.041 1383.3594,721.041 Q1381.8438,721.041 1380.6406,720.416 Q1379.6563,719.916 1378.9688,718.8535 Q1378.2813,717.7754 1378.2813,716.4941 L1378.2813,715.3379 Q1378.2813,714.0098 1378.8906,712.8691 Q1379.5156,711.7129 1380.6094,711.1035 Q1381.7031,710.4785 1382.9375,710.4785 Q1383.6719,710.4785 1384.3125,710.6504 Q1384.9688,710.8066 1385.5156,711.166 Z " fill="#000000"/><text fill="#000000" font-family="sans-serif" font-size="12" font-style="italic" lengthAdjust="spacing" textLength="53" x="1421.25" y="710.9492">&#171;builder&#187;</text><text fill="#000000" font-family="sans-serif" font-size="14" lengthAdjust="spacing" textLength="89" x="1403.25" y="729.0684">PersonBuilder</text><line style="stroke:#181818;stroke-width:0.5;" x1="1244.5" x2="1618.5" y1="737.582" y2="737.582"/><text fill="#000000" font-family="sans-serif" font-size="14" lengthAdjust="spacing" textLength="120" x="1249.5" y="756.6895">FullName: fullname</text><text fill="#000000" font-family="sans-serif" font-size="14" lengthAdjust="spacing" textLength="111" x="1249.5" y="775.3105">SystemUser: user</text><text fill="#000000" font-family="sans-serif" font-size="14" lengthAdjust="spacing" textLength="141" x="1249.5" y="793.9316">ID_Person : id_person</text><text fill="#000000" font-family="sans-serif" font-size="14" lengthAdjust="spacing" textLength="109" x="1249.5" y="812.5527">Teacher: teacher</text><text fill="#000000" font-family="sans-serif" font-size="14" lengthAdjust="spacing" textLength="104" x="1249.5" y="831.1738">Student: student</text><line style="stroke:#181818;stroke-width:0.5;" x1="1244.5" x2="1618.5" y1="838.6875" y2="838.6875"/><text fill="#000000" font-family="sans-serif" font-size="14" lengthAdjust="spacing" textLength="247" x="1249.5" y="857.7949">with(String: fullname,SystemUser: user)</text><text fill="#000000" font-family="sans-serif" font-size="14" lengthAdjust="spacing" textLength="364" x="1249.5" y="876.416">with(String: fullname,SystemUser: user, Teacher: teacher)</text><text fill="#000000" font-family="sans-serif" font-size="14" lengthAdjust="spacing" textLength="359" x="1249.5" y="895.0371">with(String: fullname,SystemUser: user, Student: student)</text><text fill="#000000" font-family="sans-serif" font-size="14" lengthAdjust="spacing" textLength="121" x="1249.5" y="913.6582">with(int: Id_Person)</text><text fill="#000000" font-family="sans-serif" font-size="14" lengthAdjust="spacing" textLength="328" x="1249.5" y="932.2793">withMecanographicNumber(int: number,String: year)</text><text fill="#000000" font-family="sans-serif" font-size="14" lengthAdjust="spacing" textLength="40" x="1249.5" y="950.9004">build()</text></g><!--class TeacherBuilder--><g id="elem_TeacherBuilder"><rect codeLine="168" fill="#F1F1F1" height="172.3086" id="TeacherBuilder" rx="2.5" ry="2.5" style="stroke:#181818;stroke-width:0.5;" width="400" x="1725.5" y="1064.5"/><ellipse cx="1872.75" cy="1086.791" fill="#ADD1B2" rx="11" ry="11" style="stroke:#181818;stroke-width:1.0;"/><path d="M1875.5156,1082.666 Q1875.6719,1082.4473 1875.8594,1082.3379 Q1876.0469,1082.2285 1876.2656,1082.2285 Q1876.6406,1082.2285 1876.875,1082.4941 Q1877.1094,1082.7441 1877.1094,1083.3535 L1877.1094,1084.8066 Q1877.1094,1085.416 1876.875,1085.6816 Q1876.6406,1085.9473 1876.2656,1085.9473 Q1875.9219,1085.9473 1875.7188,1085.7441 Q1875.5156,1085.5566 1875.4063,1085.041 Q1875.3594,1084.6816 1875.1719,1084.4941 Q1874.8438,1084.1191 1874.2344,1083.9004 Q1873.625,1083.6816 1873,1083.6816 Q1872.2344,1083.6816 1871.5938,1084.0098 Q1870.9688,1084.3379 1870.4688,1085.0879 Q1869.9844,1085.8379 1869.9844,1086.8691 L1869.9844,1087.9629 Q1869.9844,1089.1973 1870.875,1090.0254 Q1871.7656,1090.8379 1873.3594,1090.8379 Q1874.2969,1090.8379 1874.9531,1090.5879 Q1875.3438,1090.4316 1875.7656,1089.9941 Q1876.0313,1089.7285 1876.1719,1089.6504 Q1876.3281,1089.5723 1876.5313,1089.5723 Q1876.8594,1089.5723 1877.1094,1089.8379 Q1877.375,1090.0879 1877.375,1090.4316 Q1877.375,1090.7754 1877.0313,1091.1816 Q1876.5313,1091.7598 1875.7344,1092.0879 Q1874.6563,1092.541 1873.3594,1092.541 Q1871.8438,1092.541 1870.6406,1091.916 Q1869.6563,1091.416 1868.9688,1090.3535 Q1868.2813,1089.2754 1868.2813,1087.9941 L1868.2813,1086.8379 Q1868.2813,1085.5098 1868.8906,1084.3691 Q1869.5156,1083.2129 1870.6094,1082.6035 Q1871.7031,1081.9785 1872.9375,1081.9785 Q1873.6719,1081.9785 1874.3125,1082.1504 Q1874.9688,1082.3066 1875.5156,1082.666 Z " fill="#000000"/><text fill="#000000" font-family="sans-serif" font-size="12" font-style="italic" lengthAdjust="spacing" textLength="53" x="1915.25" y="1082.4492">&#171;builder&#187;</text><text fill="#000000" font-family="sans-serif" font-size="14" lengthAdjust="spacing" textLength="97" x="1893.25" y="1100.5684">TeacherBuilder</text><line style="stroke:#181818;stroke-width:0.5;" x1="1726.5" x2="2124.5" y1="1109.082" y2="1109.082"/><text fill="#000000" font-family="sans-serif" font-size="14" lengthAdjust="spacing" textLength="156" x="1731.5" y="1128.1895">DateOfBirth: DateOfBirth</text><text fill="#000000" font-family="sans-serif" font-size="14" lengthAdjust="spacing" textLength="221" x="1731.5" y="1146.8105">TaxPayerNumber: taxPayerNumber</text><text fill="#000000" font-family="sans-serif" font-size="14" lengthAdjust="spacing" textLength="117" x="1731.5" y="1165.4316">Acronym: acronym</text><line style="stroke:#181818;stroke-width:0.5;" x1="1726.5" x2="2124.5" y1="1172.9453" y2="1172.9453"/><text fill="#000000" font-family="sans-serif" font-size="14" lengthAdjust="spacing" textLength="388" x="1731.5" y="1192.0527">with(String: acronym, Date: DateOfBirth, int: taxPayerNumber)</text><text fill="#000000" font-family="sans-serif" font-size="14" lengthAdjust="spacing" textLength="4" x="1731.5" y="1210.6738">&#160;</text><text fill="#000000" font-family="sans-serif" font-size="14" lengthAdjust="spacing" textLength="40" x="1731.5" y="1229.2949">build()</text></g><!--class StudentBuilder--><g id="elem_StudentBuilder"><rect codeLine="178" fill="#F1F1F1" height="172.3086" id="StudentBuilder" rx="2.5" ry="2.5" style="stroke:#181818;stroke-width:0.5;" width="332" x="1506.5" y="1501"/><ellipse cx="1621.75" cy="1523.291" fill="#ADD1B2" rx="11" ry="11" style="stroke:#181818;stroke-width:1.0;"/><path d="M1624.5156,1519.166 Q1624.6719,1518.9473 1624.8594,1518.8379 Q1625.0469,1518.7285 1625.2656,1518.7285 Q1625.6406,1518.7285 1625.875,1518.9941 Q1626.1094,1519.2441 1626.1094,1519.8535 L1626.1094,1521.3066 Q1626.1094,1521.916 1625.875,1522.1816 Q1625.6406,1522.4473 1625.2656,1522.4473 Q1624.9219,1522.4473 1624.7188,1522.2441 Q1624.5156,1522.0566 1624.4063,1521.541 Q1624.3594,1521.1816 1624.1719,1520.9941 Q1623.8438,1520.6191 1623.2344,1520.4004 Q1622.625,1520.1816 1622,1520.1816 Q1621.2344,1520.1816 1620.5938,1520.5098 Q1619.9688,1520.8379 1619.4688,1521.5879 Q1618.9844,1522.3379 1618.9844,1523.3691 L1618.9844,1524.4629 Q1618.9844,1525.6973 1619.875,1526.5254 Q1620.7656,1527.3379 1622.3594,1527.3379 Q1623.2969,1527.3379 1623.9531,1527.0879 Q1624.3438,1526.9316 1624.7656,1526.4941 Q1625.0313,1526.2285 1625.1719,1526.1504 Q1625.3281,1526.0723 1625.5313,1526.0723 Q1625.8594,1526.0723 1626.1094,1526.3379 Q1626.375,1526.5879 1626.375,1526.9316 Q1626.375,1527.2754 1626.0313,1527.6816 Q1625.5313,1528.2598 1624.7344,1528.5879 Q1623.6563,1529.041 1622.3594,1529.041 Q1620.8438,1529.041 1619.6406,1528.416 Q1618.6563,1527.916 1617.9688,1526.8535 Q1617.2813,1525.7754 1617.2813,1524.4941 L1617.2813,1523.3379 Q1617.2813,1522.0098 1617.8906,1520.8691 Q1618.5156,1519.7129 1619.6094,1519.1035 Q1620.7031,1518.4785 1621.9375,1518.4785 Q1622.6719,1518.4785 1623.3125,1518.6504 Q1623.9688,1518.8066 1624.5156,1519.166 Z " fill="#000000"/><text fill="#000000" font-family="sans-serif" font-size="12" font-style="italic" lengthAdjust="spacing" textLength="53" x="1662.25" y="1518.9492">&#171;builder&#187;</text><text fill="#000000" font-family="sans-serif" font-size="14" lengthAdjust="spacing" textLength="93" x="1642.25" y="1537.0684">StudentBuilder</text><line style="stroke:#181818;stroke-width:0.5;" x1="1507.5" x2="1837.5" y1="1545.582" y2="1545.582"/><text fill="#000000" font-family="sans-serif" font-size="14" lengthAdjust="spacing" textLength="300" x="1512.5" y="1564.6895">MecanographicNumber: mecanographicNumber</text><text fill="#000000" font-family="sans-serif" font-size="14" lengthAdjust="spacing" textLength="156" x="1512.5" y="1583.3105">DateOfBirth: DateOfBirth</text><text fill="#000000" font-family="sans-serif" font-size="14" lengthAdjust="spacing" textLength="221" x="1512.5" y="1601.9316">TaxPayerNumber: taxPayerNumber</text><line style="stroke:#181818;stroke-width:0.5;" x1="1507.5" x2="1837.5" y1="1609.4453" y2="1609.4453"/><text fill="#000000" font-family="sans-serif" font-size="14" lengthAdjust="spacing" textLength="281" x="1512.5" y="1628.5527">with(Date: DateOfBirth, int: taxPayerNumber)</text><text fill="#000000" font-family="sans-serif" font-size="14" lengthAdjust="spacing" textLength="320" x="1512.5" y="1647.1738">withMecanographicNumber(int number,String year)</text><text fill="#000000" font-family="sans-serif" font-size="14" lengthAdjust="spacing" textLength="40" x="1512.5" y="1665.7949">build()</text></g><!--class Person--><g id="elem_Person"><rect codeLine="68" fill="#F1F1F1" height="153.6875" id="Person" rx="2.5" ry="2.5" style="stroke:#181818;stroke-width:0.5;" width="172" x="1299.5" y="1510"/><ellipse cx="1355.25" cy="1532.291" fill="#ADD1B2" rx="11" ry="11" style="stroke:#181818;stroke-width:1.0;"/><path d="M1358.0156,1528.166 Q1358.1719,1527.9473 1358.3594,1527.8379 Q1358.5469,1527.7285 1358.7656,1527.7285 Q1359.1406,1527.7285 1359.375,1527.9941 Q1359.6094,1528.2441 1359.6094,1528.8535 L1359.6094,1530.3066 Q1359.6094,1530.916 1359.375,1531.1816 Q1359.1406,1531.4473 1358.7656,1531.4473 Q1358.4219,1531.4473 1358.2188,1531.2441 Q1358.0156,1531.0566 1357.9063,1530.541 Q1357.8594,1530.1816 1357.6719,1529.9941 Q1357.3438,1529.6191 1356.7344,1529.4004 Q1356.125,1529.1816 1355.5,1529.1816 Q1354.7344,1529.1816 1354.0938,1529.5098 Q1353.4688,1529.8379 1352.9688,1530.5879 Q1352.4844,1531.3379 1352.4844,1532.3691 L1352.4844,1533.4629 Q1352.4844,1534.6973 1353.375,1535.5254 Q1354.2656,1536.3379 1355.8594,1536.3379 Q1356.7969,1536.3379 1357.4531,1536.0879 Q1357.8438,1535.9316 1358.2656,1535.4941 Q1358.5313,1535.2285 1358.6719,1535.1504 Q1358.8281,1535.0723 1359.0313,1535.0723 Q1359.3594,1535.0723 1359.6094,1535.3379 Q1359.875,1535.5879 1359.875,1535.9316 Q1359.875,1536.2754 1359.5313,1536.6816 Q1359.0313,1537.2598 1358.2344,1537.5879 Q1357.1563,1538.041 1355.8594,1538.041 Q1354.3438,1538.041 1353.1406,1537.416 Q1352.1563,1536.916 1351.4688,1535.8535 Q1350.7813,1534.7754 1350.7813,1533.4941 L1350.7813,1532.3379 Q1350.7813,1531.0098 1351.3906,1529.8691 Q1352.0156,1528.7129 1353.1094,1528.1035 Q1354.2031,1527.4785 1355.4375,1527.4785 Q1356.1719,1527.4785 1356.8125,1527.6504 Q1357.4688,1527.8066 1358.0156,1528.166 Z " fill="#000000"/><text fill="#000000" font-family="sans-serif" font-size="12" font-style="italic" lengthAdjust="spacing" textLength="56" x="1373.75" y="1527.9492">&#171;domain&#187;</text><text fill="#000000" font-family="sans-serif" font-size="14" lengthAdjust="spacing" textLength="45" x="1379.25" y="1546.0684">Person</text><line style="stroke:#181818;stroke-width:0.5;" x1="1300.5" x2="1470.5" y1="1554.582" y2="1554.582"/><text fill="#000000" font-family="sans-serif" font-size="14" lengthAdjust="spacing" textLength="125" x="1305.5" y="1573.6895">FullName : fullName</text><text fill="#000000" font-family="sans-serif" font-size="14" lengthAdjust="spacing" textLength="160" x="1305.5" y="1592.3105">SystemUser : systemUser</text><text fill="#000000" font-family="sans-serif" font-size="14" lengthAdjust="spacing" textLength="89" x="1305.5" y="1610.9316">ID_Person : id</text><text fill="#000000" font-family="sans-serif" font-size="14" lengthAdjust="spacing" textLength="109" x="1305.5" y="1629.5527">Teacher: teacher</text><text fill="#000000" font-family="sans-serif" font-size="14" lengthAdjust="spacing" textLength="104" x="1305.5" y="1648.1738">Student: student</text><line style="stroke:#181818;stroke-width:0.5;" x1="1300.5" x2="1470.5" y1="1655.6875" y2="1655.6875"/></g><!--class PersistenceContext--><g id="elem_PersistenceContext"><rect codeLine="94" fill="#F1F1F1" height="79.2031" id="PersistenceContext" rx="2.5" ry="2.5" style="stroke:#181818;stroke-width:0.5;" width="154" x="841.5" y="786"/><ellipse cx="856.5" cy="808.291" fill="#ADD1B2" rx="11" ry="11" style="stroke:#181818;stroke-width:1.0;"/><path d="M859.2656,804.166 Q859.4219,803.9473 859.6094,803.8379 Q859.7969,803.7285 860.0156,803.7285 Q860.3906,803.7285 860.625,803.9941 Q860.8594,804.2441 860.8594,804.8535 L860.8594,806.3066 Q860.8594,806.916 860.625,807.1816 Q860.3906,807.4473 860.0156,807.4473 Q859.6719,807.4473 859.4688,807.2441 Q859.2656,807.0566 859.1563,806.541 Q859.1094,806.1816 858.9219,805.9941 Q858.5938,805.6191 857.9844,805.4004 Q857.375,805.1816 856.75,805.1816 Q855.9844,805.1816 855.3438,805.5098 Q854.7188,805.8379 854.2188,806.5879 Q853.7344,807.3379 853.7344,808.3691 L853.7344,809.4629 Q853.7344,810.6973 854.625,811.5254 Q855.5156,812.3379 857.1094,812.3379 Q858.0469,812.3379 858.7031,812.0879 Q859.0938,811.9316 859.5156,811.4941 Q859.7813,811.2285 859.9219,811.1504 Q860.0781,811.0723 860.2813,811.0723 Q860.6094,811.0723 860.8594,811.3379 Q861.125,811.5879 861.125,811.9316 Q861.125,812.2754 860.7813,812.6816 Q860.2813,813.2598 859.4844,813.5879 Q858.4063,814.041 857.1094,814.041 Q855.5938,814.041 854.3906,813.416 Q853.4063,812.916 852.7188,811.8535 Q852.0313,810.7754 852.0313,809.4941 L852.0313,808.3379 Q852.0313,807.0098 852.6406,805.8691 Q853.2656,804.7129 854.3594,804.1035 Q855.4531,803.4785 856.6875,803.4785 Q857.4219,803.4785 858.0625,803.6504 Q858.7188,803.8066 859.2656,804.166 Z " fill="#000000"/><text fill="#000000" font-family="sans-serif" font-size="12" font-style="italic" lengthAdjust="spacing" textLength="77" x="893" y="803.9492">&#171;persistence&#187;</text><text fill="#000000" font-family="sans-serif" font-size="14" lengthAdjust="spacing" textLength="122" x="870.5" y="822.0684">PersistenceContext</text><line style="stroke:#181818;stroke-width:0.5;" x1="842.5" x2="994.5" y1="830.582" y2="830.582"/><line style="stroke:#181818;stroke-width:0.5;" x1="842.5" x2="994.5" y1="838.582" y2="838.582"/><text fill="#000000" font-family="sans-serif" font-size="14" lengthAdjust="spacing" textLength="84" x="847.5" y="857.6895">repositories()</text></g><!--class RepositoryFactory--><g id="elem_RepositoryFactory"><rect codeLine="97" fill="#F1F1F1" height="116.4453" id="RepositoryFactory" rx="2.5" ry="2.5" style="stroke:#181818;stroke-width:0.5;" width="148" x="878.5" y="1092.5"/><ellipse cx="893.5" cy="1114.791" fill="#ADD1B2" rx="11" ry="11" style="stroke:#181818;stroke-width:1.0;"/><path d="M896.2656,1110.666 Q896.4219,1110.4473 896.6094,1110.3379 Q896.7969,1110.2285 897.0156,1110.2285 Q897.3906,1110.2285 897.625,1110.4941 Q897.8594,1110.7441 897.8594,1111.3535 L897.8594,1112.8066 Q897.8594,1113.416 897.625,1113.6816 Q897.3906,1113.9473 897.0156,1113.9473 Q896.6719,1113.9473 896.4688,1113.7441 Q896.2656,1113.5566 896.1563,1113.041 Q896.1094,1112.6816 895.9219,1112.4941 Q895.5938,1112.1191 894.9844,1111.9004 Q894.375,1111.6816 893.75,1111.6816 Q892.9844,1111.6816 892.3438,1112.0098 Q891.7188,1112.3379 891.2188,1113.0879 Q890.7344,1113.8379 890.7344,1114.8691 L890.7344,1115.9629 Q890.7344,1117.1973 891.625,1118.0254 Q892.5156,1118.8379 894.1094,1118.8379 Q895.0469,1118.8379 895.7031,1118.5879 Q896.0938,1118.4316 896.5156,1117.9941 Q896.7813,1117.7285 896.9219,1117.6504 Q897.0781,1117.5723 897.2813,1117.5723 Q897.6094,1117.5723 897.8594,1117.8379 Q898.125,1118.0879 898.125,1118.4316 Q898.125,1118.7754 897.7813,1119.1816 Q897.2813,1119.7598 896.4844,1120.0879 Q895.4063,1120.541 894.1094,1120.541 Q892.5938,1120.541 891.3906,1119.916 Q890.4063,1119.416 889.7188,1118.3535 Q889.0313,1117.2754 889.0313,1115.9941 L889.0313,1114.8379 Q889.0313,1113.5098 889.6406,1112.3691 Q890.2656,1111.2129 891.3594,1110.6035 Q892.4531,1109.9785 893.6875,1109.9785 Q894.4219,1109.9785 895.0625,1110.1504 Q895.7188,1110.3066 896.2656,1110.666 Z " fill="#000000"/><text fill="#000000" font-family="sans-serif" font-size="12" font-style="italic" lengthAdjust="spacing" textLength="50" x="940.5" y="1110.4492">&#171;factory&#187;</text><text fill="#000000" font-family="sans-serif" font-size="14" lengthAdjust="spacing" textLength="116" x="907.5" y="1128.5684">RepositoryFactory</text><line style="stroke:#181818;stroke-width:0.5;" x1="879.5" x2="1025.5" y1="1137.082" y2="1137.082"/><line style="stroke:#181818;stroke-width:0.5;" x1="879.5" x2="1025.5" y1="1145.082" y2="1145.082"/><text fill="#000000" font-family="sans-serif" font-size="14" lengthAdjust="spacing" textLength="45" x="884.5" y="1164.1895">users()</text><text fill="#000000" font-family="sans-serif" font-size="14" lengthAdjust="spacing" textLength="122" x="884.5" y="1182.8105">personRepository()</text><text fill="#000000" font-family="sans-serif" font-size="14" lengthAdjust="spacing" textLength="125" x="884.5" y="1201.4316">studentRepository()</text></g><!--class UserRepository--><g id="elem_UserRepository"><rect codeLine="103" fill="#F1F1F1" height="97.8242" id="UserRepository" rx="2.5" ry="2.5" style="stroke:#181818;stroke-width:0.5;" width="176" x="604.5" y="1343"/><ellipse cx="640.65" cy="1365.291" fill="#ADD1B2" rx="11" ry="11" style="stroke:#181818;stroke-width:1.0;"/><path d="M643.4156,1361.166 Q643.5719,1360.9473 643.7594,1360.8379 Q643.9469,1360.7285 644.1656,1360.7285 Q644.5406,1360.7285 644.775,1360.9941 Q645.0094,1361.2441 645.0094,1361.8535 L645.0094,1363.3066 Q645.0094,1363.916 644.775,1364.1816 Q644.5406,1364.4473 644.1656,1364.4473 Q643.8219,1364.4473 643.6188,1364.2441 Q643.4156,1364.0566 643.3063,1363.541 Q643.2594,1363.1816 643.0719,1362.9941 Q642.7438,1362.6191 642.1344,1362.4004 Q641.525,1362.1816 640.9,1362.1816 Q640.1344,1362.1816 639.4938,1362.5098 Q638.8688,1362.8379 638.3688,1363.5879 Q637.8844,1364.3379 637.8844,1365.3691 L637.8844,1366.4629 Q637.8844,1367.6973 638.775,1368.5254 Q639.6656,1369.3379 641.2594,1369.3379 Q642.1969,1369.3379 642.8531,1369.0879 Q643.2438,1368.9316 643.6656,1368.4941 Q643.9313,1368.2285 644.0719,1368.1504 Q644.2281,1368.0723 644.4313,1368.0723 Q644.7594,1368.0723 645.0094,1368.3379 Q645.275,1368.5879 645.275,1368.9316 Q645.275,1369.2754 644.9313,1369.6816 Q644.4313,1370.2598 643.6344,1370.5879 Q642.5563,1371.041 641.2594,1371.041 Q639.7438,1371.041 638.5406,1370.416 Q637.5563,1369.916 636.8688,1368.8535 Q636.1813,1367.7754 636.1813,1366.4941 L636.1813,1365.3379 Q636.1813,1364.0098 636.7906,1362.8691 Q637.4156,1361.7129 638.5094,1361.1035 Q639.6031,1360.4785 640.8375,1360.4785 Q641.5719,1360.4785 642.2125,1360.6504 Q642.8688,1360.8066 643.4156,1361.166 Z " fill="#000000"/><text fill="#000000" font-family="sans-serif" font-size="12" font-style="italic" lengthAdjust="spacing" textLength="68" x="673.85" y="1360.9492">&#171;repository&#187;</text><text fill="#000000" font-family="sans-serif" font-size="14" lengthAdjust="spacing" textLength="97" x="659.35" y="1379.0684">UserRepository</text><line style="stroke:#181818;stroke-width:0.5;" x1="605.5" x2="779.5" y1="1387.582" y2="1387.582"/><line style="stroke:#181818;stroke-width:0.5;" x1="605.5" x2="779.5" y1="1395.582" y2="1395.582"/><text fill="#000000" font-family="sans-serif" font-size="14" lengthAdjust="spacing" textLength="155" x="610.5" y="1414.6895">save(SystemUser : user)</text><text fill="#000000" font-family="sans-serif" font-size="14" lengthAdjust="spacing" textLength="164" x="610.5" y="1433.3105">delete(SystemUser : user)</text></g><!--class PersonRepository--><g id="elem_PersonRepository"><rect codeLine="108" fill="#F1F1F1" height="97.8242" id="PersonRepository" rx="2.5" ry="2.5" style="stroke:#181818;stroke-width:0.5;" width="186" x="1192.5" y="1343"/><ellipse cx="1225.95" cy="1365.291" fill="#ADD1B2" rx="11" ry="11" style="stroke:#181818;stroke-width:1.0;"/><path d="M1228.7156,1361.166 Q1228.8719,1360.9473 1229.0594,1360.8379 Q1229.2469,1360.7285 1229.4656,1360.7285 Q1229.8406,1360.7285 1230.075,1360.9941 Q1230.3094,1361.2441 1230.3094,1361.8535 L1230.3094,1363.3066 Q1230.3094,1363.916 1230.075,1364.1816 Q1229.8406,1364.4473 1229.4656,1364.4473 Q1229.1219,1364.4473 1228.9188,1364.2441 Q1228.7156,1364.0566 1228.6063,1363.541 Q1228.5594,1363.1816 1228.3719,1362.9941 Q1228.0438,1362.6191 1227.4344,1362.4004 Q1226.825,1362.1816 1226.2,1362.1816 Q1225.4344,1362.1816 1224.7938,1362.5098 Q1224.1688,1362.8379 1223.6688,1363.5879 Q1223.1844,1364.3379 1223.1844,1365.3691 L1223.1844,1366.4629 Q1223.1844,1367.6973 1224.075,1368.5254 Q1224.9656,1369.3379 1226.5594,1369.3379 Q1227.4969,1369.3379 1228.1531,1369.0879 Q1228.5438,1368.9316 1228.9656,1368.4941 Q1229.2313,1368.2285 1229.3719,1368.1504 Q1229.5281,1368.0723 1229.7313,1368.0723 Q1230.0594,1368.0723 1230.3094,1368.3379 Q1230.575,1368.5879 1230.575,1368.9316 Q1230.575,1369.2754 1230.2313,1369.6816 Q1229.7313,1370.2598 1228.9344,1370.5879 Q1227.8563,1371.041 1226.5594,1371.041 Q1225.0438,1371.041 1223.8406,1370.416 Q1222.8563,1369.916 1222.1688,1368.8535 Q1221.4813,1367.7754 1221.4813,1366.4941 L1221.4813,1365.3379 Q1221.4813,1364.0098 1222.0906,1362.8691 Q1222.7156,1361.7129 1223.8094,1361.1035 Q1224.9031,1360.4785 1226.1375,1360.4785 Q1226.8719,1360.4785 1227.5125,1360.6504 Q1228.1688,1360.8066 1228.7156,1361.166 Z " fill="#000000"/><text fill="#000000" font-family="sans-serif" font-size="12" font-style="italic" lengthAdjust="spacing" textLength="68" x="1266.55" y="1360.9492">&#171;repository&#187;</text><text fill="#000000" font-family="sans-serif" font-size="14" lengthAdjust="spacing" textLength="113" x="1244.05" y="1379.0684">PersonRepository</text><line style="stroke:#181818;stroke-width:0.5;" x1="1193.5" x2="1377.5" y1="1387.582" y2="1387.582"/><line style="stroke:#181818;stroke-width:0.5;" x1="1193.5" x2="1377.5" y1="1395.582" y2="1395.582"/><text fill="#000000" font-family="sans-serif" font-size="14" lengthAdjust="spacing" textLength="137" x="1198.5" y="1414.6895">save(Person: person)</text><text fill="#000000" font-family="sans-serif" font-size="14" lengthAdjust="spacing" textLength="174" x="1198.5" y="1433.3105">findTotalNumberOfPerson()</text></g><!--class StudentRepository--><g id="elem_StudentRepository"><rect codeLine="113" fill="#F1F1F1" height="79.2031" id="StudentRepository" rx="2.5" ry="2.5" style="stroke:#181818;stroke-width:0.5;" width="342" x="815.5" y="1352.5"/><ellipse cx="923.75" cy="1374.791" fill="#ADD1B2" rx="11" ry="11" style="stroke:#181818;stroke-width:1.0;"/><path d="M926.5156,1370.666 Q926.6719,1370.4473 926.8594,1370.3379 Q927.0469,1370.2285 927.2656,1370.2285 Q927.6406,1370.2285 927.875,1370.4941 Q928.1094,1370.7441 928.1094,1371.3535 L928.1094,1372.8066 Q928.1094,1373.416 927.875,1373.6816 Q927.6406,1373.9473 927.2656,1373.9473 Q926.9219,1373.9473 926.7188,1373.7441 Q926.5156,1373.5566 926.4063,1373.041 Q926.3594,1372.6816 926.1719,1372.4941 Q925.8438,1372.1191 925.2344,1371.9004 Q924.625,1371.6816 924,1371.6816 Q923.2344,1371.6816 922.5938,1372.0098 Q921.9688,1372.3379 921.4688,1373.0879 Q920.9844,1373.8379 920.9844,1374.8691 L920.9844,1375.9629 Q920.9844,1377.1973 921.875,1378.0254 Q922.7656,1378.8379 924.3594,1378.8379 Q925.2969,1378.8379 925.9531,1378.5879 Q926.3438,1378.4316 926.7656,1377.9941 Q927.0313,1377.7285 927.1719,1377.6504 Q927.3281,1377.5723 927.5313,1377.5723 Q927.8594,1377.5723 928.1094,1377.8379 Q928.375,1378.0879 928.375,1378.4316 Q928.375,1378.7754 928.0313,1379.1816 Q927.5313,1379.7598 926.7344,1380.0879 Q925.6563,1380.541 924.3594,1380.541 Q922.8438,1380.541 921.6406,1379.916 Q920.6563,1379.416 919.9688,1378.3535 Q919.2813,1377.2754 919.2813,1375.9941 L919.2813,1374.8379 Q919.2813,1373.5098 919.8906,1372.3691 Q920.5156,1371.2129 921.6094,1370.6035 Q922.7031,1369.9785 923.9375,1369.9785 Q924.6719,1369.9785 925.3125,1370.1504 Q925.9688,1370.3066 926.5156,1370.666 Z " fill="#000000"/><text fill="#000000" font-family="sans-serif" font-size="12" font-style="italic" lengthAdjust="spacing" textLength="68" x="968.75" y="1370.4492">&#171;repository&#187;</text><text fill="#000000" font-family="sans-serif" font-size="14" lengthAdjust="spacing" textLength="117" x="944.25" y="1388.5684">StudentRepository</text><line style="stroke:#181818;stroke-width:0.5;" x1="816.5" x2="1156.5" y1="1397.082" y2="1397.082"/><line style="stroke:#181818;stroke-width:0.5;" x1="816.5" x2="1156.5" y1="1405.082" y2="1405.082"/><text fill="#000000" font-family="sans-serif" font-size="14" lengthAdjust="spacing" textLength="330" x="821.5" y="1424.1895">findTotalMecanographicNumberByYear(String :year)</text></g><!--link AddUserUI to AddUserController--><g id="link_AddUserUI_AddUserController"><path codeLine="25" d="M1798.5,123.46 C1798.5,140.77 1798.5,159.86 1798.5,177.48 " fill="none" id="AddUserUI-to-AddUserController" style="stroke:#181818;stroke-width:1.0;stroke-dasharray:7.0,7.0;"/><polygon fill="#181818" points="1798.5,182.9,1802.5,173.9,1798.5,177.9,1794.5,173.9,1798.5,182.9" style="stroke:#181818;stroke-width:1.0;"/></g><!--link AddUserController to PersonService--><g id="link_AddUserController_PersonService"><path codeLine="26" d="M1638.37,299.09 C1586.04,317.75 1527.85,338.5 1475.19,357.28 " fill="none" id="AddUserController-to-PersonService" style="stroke:#181818;stroke-width:1.0;stroke-dasharray:7.0,7.0;"/><polygon fill="#181818" points="1470.44,358.97,1480.262,359.6967,1475.1464,357.282,1477.5612,352.1664,1470.44,358.97" style="stroke:#181818;stroke-width:1.0;"/></g><!--link PersonService to UserManagementService--><g id="link_PersonService_UserManagementService"><path codeLine="27" d="M1018.52,475.01 C902.88,497.59 772.78,523 667.83,543.49 " fill="none" id="PersonService-to-UserManagementService" style="stroke:#181818;stroke-width:1.0;stroke-dasharray:7.0,7.0;"/><polygon fill="#181818" points="662.86,544.46,672.4599,546.6604,667.7673,543.5014,670.9262,538.8088,662.86,544.46" style="stroke:#181818;stroke-width:1.0;"/></g><!--link AddUserController to AuthzRegistry--><g id="link_AddUserController_AuthzRegistry"><path codeLine="28" d="M1804.46,299.05 C1810.1,346.57 1819.9,415.78 1834.5,475 C1838.99,493.21 1845.21,512.7 1851.28,530.06 " fill="none" id="AddUserController-to-AuthzRegistry" style="stroke:#181818;stroke-width:1.0;stroke-dasharray:7.0,7.0;"/><polygon fill="#181818" points="1852.98,534.89,1853.7426,525.0707,1851.3092,530.1774,1846.2025,527.744,1852.98,534.89" style="stroke:#181818;stroke-width:1.0;"/></g><!--link AddUserController to AuthorizationService--><g id="link_AddUserController_AuthorizationService"><path codeLine="29" d="M1871.17,299.22 C1902.23,323.67 1937.82,351.69 1966.35,374.15 " fill="none" id="AddUserController-to-AuthorizationService" style="stroke:#181818;stroke-width:1.0;stroke-dasharray:7.0,7.0;"/><polygon fill="#181818" points="1970.51,377.43,1965.903,368.7251,1966.5779,374.3415,1960.9615,375.0164,1970.51,377.43" style="stroke:#181818;stroke-width:1.0;"/></g><!--link PersonService to AuthzRegistry--><g id="link_PersonService_AuthzRegistry"><path codeLine="30" d="M1570.13,475.02 C1635.92,491.96 1705.94,512.18 1769.5,535 C1776.82,537.63 1784.33,540.6 1791.79,543.74 " fill="none" id="PersonService-to-AuthzRegistry" style="stroke:#181818;stroke-width:1.0;stroke-dasharray:7.0,7.0;"/><polygon fill="#181818" points="1796.42,545.72,1789.7044,538.5158,1791.8191,543.7625,1786.5724,545.8772,1796.42,545.72" style="stroke:#181818;stroke-width:1.0;"/></g><!--link UserManagementService to SystemUserBuilder--><g id="link_UserManagementService_SystemUserBuilder"><path codeLine="32" d="M458.35,623.8 C443.82,702.67 410.23,885.02 386.7,1012.71 " fill="none" id="UserManagementService-to-SystemUserBuilder" style="stroke:#181818;stroke-width:1.0;stroke-dasharray:7.0,7.0;"/><polygon fill="#181818" points="385.73,1017.99,391.2817,1009.855,386.6282,1013.0713,383.4118,1008.4179,385.73,1017.99" style="stroke:#181818;stroke-width:1.0;"/></g><!--link UserManagementService to PersistenceContext--><g id="link_UserManagementService_PersistenceContext"><path codeLine="33" d="M654.44,623.61 C707.1,639.76 762.45,662.19 808.5,693 C842.93,716.03 872.43,752.88 892.19,781.72 " fill="none" id="UserManagementService-to-PersistenceContext" style="stroke:#181818;stroke-width:1.0;stroke-dasharray:7.0,7.0;"/><polygon fill="#181818" points="895.03,785.91,893.2659,776.2204,892.2138,781.7786,886.6556,780.7264,895.03,785.91" style="stroke:#181818;stroke-width:1.0;"/></g><!--link UserManagementService to RepositoryFactory--><g id="link_UserManagementService_RepositoryFactory"><path codeLine="34" d="M616.28,623.56 C655.88,639.67 695.78,662.08 725.5,693 C812.52,783.53 766.24,846.24 823.5,958 C846.86,1003.6 879.05,1051.39 905.43,1087.83 " fill="none" id="UserManagementService-to-RepositoryFactory" style="stroke:#181818;stroke-width:1.0;stroke-dasharray:7.0,7.0;"/><polygon fill="#181818" points="908.61,1092.22,906.5474,1082.5896,905.6674,1088.1776,900.0794,1087.2976,908.61,1092.22" style="stroke:#181818;stroke-width:1.0;"/></g><!--link UserManagementService to UserRepository--><g id="link_UserManagementService_UserRepository"><path codeLine="35" d="M488.81,623.56 C532.01,697.18 623.69,864.15 663.5,1018 C692.22,1128.99 695.12,1264.26 694.16,1337.55 " fill="none" id="UserManagementService-to-UserRepository" style="stroke:#181818;stroke-width:1.0;stroke-dasharray:7.0,7.0;"/><polygon fill="#181818" points="694.08,1342.72,698.2082,1333.7781,694.1514,1337.7205,690.209,1333.6638,694.08,1342.72" style="stroke:#181818;stroke-width:1.0;"/></g><!--link PersonService to PersonBuilder--><g id="link_PersonService_PersonBuilder"><path codeLine="37" d="M1327.58,475.38 C1343.93,530.31 1369.22,615.27 1390.76,687.63 " fill="none" id="PersonService-to-PersonBuilder" style="stroke:#181818;stroke-width:1.0;stroke-dasharray:7.0,7.0;"/><polygon fill="#181818" points="1392.3,692.82,1393.5853,683.0554,1390.883,688.025,1385.9133,685.3226,1392.3,692.82" style="stroke:#181818;stroke-width:1.0;"/></g><!--link PersonService to TeacherBuilder--><g id="link_PersonService_TeacherBuilder"><path codeLine="38" d="M1607.19,475.17 C1640.63,490.6 1672.11,510.17 1698.5,535 C1848.67,676.28 1899.99,925.64 1917.15,1059.15 " fill="none" id="PersonService-to-TeacherBuilder" style="stroke:#181818;stroke-width:1.0;stroke-dasharray:7.0,7.0;"/><polygon fill="#181818" points="1917.8,1064.24,1920.6361,1054.8083,1917.171,1059.2797,1912.6996,1055.8147,1917.8,1064.24" style="stroke:#181818;stroke-width:1.0;"/></g><!--link PersonService to StudentBuilder--><g id="link_PersonService_StudentBuilder"><path codeLine="39" d="M1406.07,475.05 C1479.9,523.94 1579.04,600.95 1637.5,693 C1669.92,744.05 1672.5,764.02 1672.5,824.5 C1672.5,824.5 1672.5,824.5 1672.5,1151.5 C1672.5,1270.39 1672.5,1407.58 1672.5,1495.48 " fill="none" id="PersonService-to-StudentBuilder" style="stroke:#181818;stroke-width:1.0;stroke-dasharray:7.0,7.0;"/><polygon fill="#181818" points="1672.5,1500.67,1676.5,1491.67,1672.5,1495.67,1668.5,1491.67,1672.5,1500.67" style="stroke:#181818;stroke-width:1.0;"/></g><!--link PersonService to PersistenceContext--><g id="link_PersonService_PersistenceContext"><path codeLine="40" d="M1107.12,475.04 C1075.91,490.62 1046.23,510.28 1022.5,535 C956.32,603.96 931.84,717.99 923.1,780.37 " fill="none" id="PersonService-to-PersistenceContext" style="stroke:#181818;stroke-width:1.0;stroke-dasharray:7.0,7.0;"/><polygon fill="#181818" points="922.4,785.5,927.5988,777.135,923.0871,780.5474,919.6747,776.0357,922.4,785.5" style="stroke:#181818;stroke-width:1.0;"/></g><!--link PersonService to RepositoryFactory--><g id="link_PersonService_RepositoryFactory"><path codeLine="41" d="M1161.59,475.08 C1135.6,490.97 1111.25,510.73 1093.5,535 C980.53,689.42 1060.4,772.5 1013.5,958 C1002.45,1001.71 987.02,1050.07 974.44,1087.26 " fill="none" id="PersonService-to-RepositoryFactory" style="stroke:#181818;stroke-width:1.0;stroke-dasharray:7.0,7.0;"/><polygon fill="#181818" points="972.76,1092.2,979.427,1084.9508,974.3583,1087.4623,971.8467,1082.3936,972.76,1092.2" style="stroke:#181818;stroke-width:1.0;"/></g><!--link PersonService to PersonRepository--><g id="link_PersonService_PersonRepository"><path codeLine="42" d="M1287.62,475.06 C1266.95,529.89 1238.06,615.61 1226.5,693 C1190.8,932.11 1246.12,1220.77 1272.63,1337.83 " fill="none" id="PersonService-to-PersonRepository" style="stroke:#181818;stroke-width:1.0;stroke-dasharray:7.0,7.0;"/><polygon fill="#181818" points="1273.79,1342.94,1275.7094,1333.28,1272.6887,1338.0628,1267.9059,1335.0421,1273.79,1342.94" style="stroke:#181818;stroke-width:1.0;"/></g><!--link PersonService to StudentRepository--><g id="link_PersonService_StudentRepository"><path codeLine="43" d="M1265.48,475.1 C1252.71,493.43 1239.77,514.35 1230.5,535 C1090.27,847.55 1167.83,963.4 1044.5,1283 C1036.02,1304.97 1024.04,1328.11 1013.17,1347.32 " fill="none" id="PersonService-to-StudentRepository" style="stroke:#181818;stroke-width:1.0;stroke-dasharray:7.0,7.0;"/><polygon fill="#181818" points="1010.43,1352.12,1018.3579,1346.2763,1012.903,1347.7744,1011.4049,1342.3195,1010.43,1352.12" style="stroke:#181818;stroke-width:1.0;"/></g><!--link PersistenceContext to RepositoryFactory--><g id="link_PersistenceContext_RepositoryFactory"><path codeLine="46" d="M922.57,865.14 C928.36,920.14 939.04,1021.59 945.95,1087.27 " fill="none" id="PersistenceContext-to-RepositoryFactory" style="stroke:#181818;stroke-width:1.0;stroke-dasharray:7.0,7.0;"/><polygon fill="#181818" points="946.48,1092.33,949.506,1082.9575,945.9514,1087.358,941.5509,1083.8033,946.48,1092.33" style="stroke:#181818;stroke-width:1.0;"/></g><!--link RepositoryFactory to UserRepository--><g id="link_RepositoryFactory_UserRepository"><path codeLine="47" d="M890.55,1208.56 C847.4,1248.32 790.3,1300.91 748.51,1339.41 " fill="none" id="RepositoryFactory-to-UserRepository" style="stroke:#181818;stroke-width:1.0;stroke-dasharray:7.0,7.0;"/><polygon fill="#181818" points="744.77,1342.85,754.0979,1339.6892,748.4457,1339.4604,748.6745,1333.8082,744.77,1342.85" style="stroke:#181818;stroke-width:1.0;"/></g><!--link RepositoryFactory to PersonRepository--><g id="link_RepositoryFactory_PersonRepository"><path codeLine="48" d="M1026.82,1204.95 C1082.86,1245.26 1159.26,1300.2 1214.48,1339.92 " fill="none" id="RepositoryFactory-to-PersonRepository" style="stroke:#181818;stroke-width:1.0;stroke-dasharray:7.0,7.0;"/><polygon fill="#181818" points="1218.75,1342.99,1213.7795,1334.4874,1214.691,1340.0704,1209.108,1340.9819,1218.75,1342.99" style="stroke:#181818;stroke-width:1.0;"/></g><!--link RepositoryFactory to StudentRepository--><g id="link_RepositoryFactory_StudentRepository"><path codeLine="49" d="M960.6,1208.56 C966.63,1251.07 974.75,1308.25 980.28,1347.19 " fill="none" id="RepositoryFactory-to-StudentRepository" style="stroke:#181818;stroke-width:1.0;stroke-dasharray:7.0,7.0;"/><polygon fill="#181818" points="981.01,1352.32,983.7123,1342.8491,980.3109,1347.3691,975.7909,1343.9677,981.01,1352.32" style="stroke:#181818;stroke-width:1.0;"/></g><!--link PersonRepository to Person--><g id="link_PersonRepository_Person"><path codeLine="51" d="M1310.48,1441.2 C1320.52,1460.59 1332.38,1483.48 1343.67,1505.27 " fill="none" id="PersonRepository-to-Person" style="stroke:#181818;stroke-width:1.0;stroke-dasharray:7.0,7.0;"/><polygon fill="#181818" points="1346.07,1509.91,1345.4846,1500.0786,1343.7713,1505.4697,1338.3802,1503.7564,1346.07,1509.91" style="stroke:#181818;stroke-width:1.0;"/></g><!--link PersonBuilder to Person--><g id="link_PersonBuilder_Person"><path codeLine="52" d="M1424.72,958.1 C1418.14,1082.56 1407.55,1274.54 1396.5,1441 C1395.14,1461.55 1393.52,1483.73 1391.96,1504.41 " fill="none" id="PersonBuilder-to-Person" style="stroke:#181818;stroke-width:1.0;stroke-dasharray:7.0,7.0;"/><polygon fill="#181818" points="1391.56,1509.64,1396.2176,1500.962,1391.9315,1504.6538,1388.2397,1500.3677,1391.56,1509.64" style="stroke:#181818;stroke-width:1.0;"/></g><!--link StudentBuilder to Student--><g id="link_StudentBuilder_Student"><path codeLine="53" d="M1602.39,1673.32 C1579.66,1700.98 1554.9,1731.11 1533.89,1756.68 " fill="none" id="StudentBuilder-to-Student" style="stroke:#181818;stroke-width:1.0;stroke-dasharray:7.0,7.0;"/><polygon fill="#181818" points="1530.55,1760.74,1539.3476,1756.3126,1533.7185,1756.8721,1533.159,1751.243,1530.55,1760.74" style="stroke:#181818;stroke-width:1.0;"/></g><!--link TeacherBuilder to Teacher--><g id="link_TeacherBuilder_Teacher"><path codeLine="54" d="M1915.93,1236.59 C1900.63,1372.49 1871.05,1635.41 1857.54,1755.47 " fill="none" id="TeacherBuilder-to-Teacher" style="stroke:#181818;stroke-width:1.0;stroke-dasharray:7.0,7.0;"/><polygon fill="#181818" points="1856.94,1760.73,1861.9175,1752.2315,1857.4969,1755.7611,1853.9672,1751.3405,1856.94,1760.73" style="stroke:#181818;stroke-width:1.0;"/></g><!--link UserRepository to SystemUser--><g id="link_UserRepository_SystemUser"><path codeLine="55" d="M692.5,1441.34 C692.5,1510.77 692.5,1639.99 692.5,1727.49 " fill="none" id="UserRepository-to-SystemUser" style="stroke:#181818;stroke-width:1.0;stroke-dasharray:7.0,7.0;"/><polygon fill="#181818" points="692.5,1732.67,696.5,1723.67,692.5,1727.67,688.5,1723.67,692.5,1732.67" style="stroke:#181818;stroke-width:1.0;"/></g><!--link SystemUserBuilder to SystemUser--><g id="link_SystemUserBuilder_SystemUser"><path codeLine="56" d="M426.89,1283.18 C492.21,1414.71 590.86,1613.33 647.74,1727.88 " fill="none" id="SystemUserBuilder-to-SystemUser" style="stroke:#181818;stroke-width:1.0;stroke-dasharray:7.0,7.0;"/><polygon fill="#181818" points="650.09,1732.59,649.6679,1722.7502,647.8653,1728.1122,642.5034,1726.3096,650.09,1732.59" style="stroke:#181818;stroke-width:1.0;"/></g><!--link Person to SystemUser--><g id="link_Person_SystemUser"><path codeLine="58" d="M1299.48,1616.55 C1164.47,1661.36 904.67,1747.58 773.09,1791.25 " fill="none" id="Person-to-SystemUser" style="stroke:#181818;stroke-width:1.0;"/><polygon fill="#181818" points="768.08,1792.91,777.8813,1793.8764,772.8263,1791.3374,775.3652,1786.2824,768.08,1792.91" style="stroke:#181818;stroke-width:1.0;"/></g><!--link Person to Student--><g id="link_Person_Student"><path codeLine="59" d="M1418,1664.27 C1430.69,1694.06 1445.06,1727.77 1457.09,1756.03 " fill="none" id="Person-to-Student" style="stroke:#181818;stroke-width:1.0;"/><polygon fill="#181818" points="1459.16,1760.87,1459.3172,1751.0224,1457.2025,1756.2691,1451.9558,1754.1544,1459.16,1760.87" style="stroke:#181818;stroke-width:1.0;"/></g><!--link Person to Teacher--><g id="link_Person_Teacher"><path codeLine="60" d="M1471.59,1661.96 C1477.51,1665.9 1483.5,1669.63 1489.5,1673 C1559.34,1712.27 1585.06,1703.35 1659.5,1733 C1682.26,1742.06 1706.3,1752.26 1729.36,1762.36 " fill="none" id="Person-to-Teacher" style="stroke:#181818;stroke-width:1.0;"/><polygon fill="#181818" points="1733.95,1764.37,1727.3186,1757.0882,1729.3722,1762.3592,1724.1012,1764.4128,1733.95,1764.37" style="stroke:#181818;stroke-width:1.0;"/></g><!--SRC=[nLVBRjiw4DtpAxYh1JZEtWu297sWMUI1E5rqLR0I7GkGI86awwf2_hryIUBBidg1swui3Wzd3cU6C-DtUo4QlhwyR2f4nA6kLZcjB_CASNvHbEYLeHe0eDVm1QDyZncykYfeZKfoVMqtjk9GO2BYZPkY-C8n-t8djng6kGGXKT88y9uImMXLQUMeQQeo3t07iV_rZ5zBBbWxWQ6i_AMbMyn-b3c69x3Aw3qYw1NNajCPyBRb0jVgoEsXh0fDyhlvIc0WZFtmX1a_oyc0UXC96zR_4mWRY0c4CU8oT3QaTp79iOe6_YdKyMQK3YgUSKDvAIXhFw5S_IZWpdnw3Xw12i66LK3cBCpUQW87naHRhQwZf09ncacO7nNWnqZj9vFaX2ulGISmOO8cpFggG3fL5J3Aombi7Du9S1JX2QmVQ92uZvVNYNq_hHC0FwjFM0Wk5uFYIvsYwbpd91dtoY3nTj8MuwUJS64Q555BmnBqebSsgWD-pN4sWahYg0P16N92289NxoSfYEje0B1quCM59tQbbeCZwcr7BQS31TtkwN6HRG2Nly-qmbmjT4tKgtjC3aho1lpos85FXwfwG3M6QxYpdmv_AUKZlxiFt-ovDIoBtZzhA2mpIrgUiUm7SttZxC0B-lc4MimU3lLtVTPRWtkS8q9bDsxsPMvaqbWTIy479F3ZxhPaOYyHnRWQhVPz_ApLcvnHqjPI3p9VSxH7jQy3o8WMMy5Ayhg61xaWqgFBNj38WqVAYa6mAnaNokbBs8kaSYCPC3OkWm3BZbOjjrXSgU1UIuAI07vf6yop_vr3RzKn6XApgzwhWq0v5T8Tr8vSbYfJP62WZWGqeSZ-aGzJjvb5z-tqND61eNUNwa5Ax8d1eWFgbWhI13LCYdXOwHQELRyGTO2Z7tZXlL-bEGC5hh18xWGb8L9cnDBj-ZS3kv8KBrIWodZWSMS0BgceDdVZgSG3lss_OjG77AvRkN2KULE2V6A9sKBQLdSPLzxX4Dq1JFY1ORKdMQhf5EkK-upu3MaVTmkL4QlLIXO3TOm7xex60nLdHK-M4toSpbs6Za-dq_TazYQJbI_VemgJ0ibwbZEiRl58ClZcn27iGvrkN8hHo6q3UaRZqzg01uqn-n-LTLdjvFyQRhbiGCBs1YXsagNbDsf-el9FG2lrwzzH_f7aj53r69kF3JYMOk-vxo7vzE6Vl7tDE0C3pqNARzgowPoEdpcjiHPcAQ_-RNS6JtK8Qj_3JPaZVWitr8BU_SsyvXajt8z8htyPwizcufOmD3d_PCZDdjI5-QwmrpF2H9KnEAA_XzGmjKRFIMxPy2U_pfq6J5leXu5vSyKuLlXtjTAbLkafNaBDrbUNWPYfFxvsgVdfxFZqHrSoDvXBU28MVYXi918tzFwPUANMDfuPkUaSiWuxVmhE3ukZtcRE7FN_EGlUVWC0]--></g></svg>