<?xml version="1.0" encoding="us-ascii" standalone="no"?><svg xmlns="http://www.w3.org/2000/svg" xmlns:xlink="http://www.w3.org/1999/xlink" contentStyleType="text/css" height="1505px" preserveAspectRatio="none" style="width:2858px;height:1504px;background:#FFFFFF;" version="1.1" viewBox="0 0 2858 1504" width="2858.8px" zoomAndPan="magnify"><defs/><g><rect fill="#FFFFFF" height="1171.6004" style="stroke:#181818;stroke-width:1.3999999999999997;" width="14" x="43.4" y="170.1465"/><rect fill="#FFFFFF" height="1171.6004" style="stroke:#181818;stroke-width:1.3999999999999997;" width="14" x="383.6" y="170.1465"/><rect fill="#FFFFFF" height="87.6148" style="stroke:#181818;stroke-width:1.3999999999999997;" width="14" x="714" y="213.9539"/><rect fill="#FFFFFF" height="251.6445" style="stroke:#181818;stroke-width:1.3999999999999997;" width="14" x="714" y="345.3762"/><rect fill="#FFFFFF" height="569.4965" style="stroke:#181818;stroke-width:1.3999999999999997;" width="14" x="714" y="728.443"/><rect fill="#FFFFFF" height="60.1111" style="stroke:#181818;stroke-width:1.3999999999999997;" width="14" x="1729" y="476.7984"/><rect fill="#FFFFFF" height="394.2668" style="stroke:#181818;stroke-width:1.3999999999999997;" width="14" x="1968.4" y="859.8652"/><rect fill="#FFFFFF" height="43.8074" style="stroke:#181818;stroke-width:1.3999999999999997;" width="14" x="2163" y="257.7613"/><rect fill="#FFFFFF" height="43.8074" style="stroke:#181818;stroke-width:1.3999999999999997;" width="14" x="2163" y="903.6727"/><rect fill="#FFFFFF" height="43.8074" style="stroke:#181818;stroke-width:1.3999999999999997;" width="14" x="2368.1" y="991.2875"/><rect fill="#FFFFFF" height="131.4223" style="stroke:#181818;stroke-width:1.3999999999999997;" width="14" x="2368.1" y="1078.9023"/><line style="stroke:#181818;stroke-width:0.6999999999999998;stroke-dasharray:5.0,5.0;" x1="50.4" x2="50.4" y1="123.5391" y2="1366.9469"/><line style="stroke:#181818;stroke-width:0.6999999999999998;stroke-dasharray:5.0,5.0;" x1="390.6" x2="390.6" y1="123.5391" y2="1366.9469"/><line style="stroke:#181818;stroke-width:0.6999999999999998;stroke-dasharray:5.0,5.0;" x1="721" x2="721" y1="123.5391" y2="1366.9469"/><line style="stroke:#181818;stroke-width:0.6999999999999998;stroke-dasharray:5.0,5.0;" x1="1505.7" x2="1505.7" y1="123.5391" y2="1366.9469"/><line style="stroke:#181818;stroke-width:0.6999999999999998;stroke-dasharray:5.0,5.0;" x1="1735.3" x2="1735.3" y1="123.5391" y2="1366.9469"/><line style="stroke:#181818;stroke-width:0.6999999999999998;stroke-dasharray:5.0,5.0;" x1="1974.7" x2="1974.7" y1="123.5391" y2="1366.9469"/><line style="stroke:#181818;stroke-width:0.6999999999999998;stroke-dasharray:5.0,5.0;" x1="2169.3" x2="2169.3" y1="123.5391" y2="1366.9469"/><line style="stroke:#181818;stroke-width:0.6999999999999998;stroke-dasharray:5.0,5.0;" x1="2375.1" x2="2375.1" y1="123.5391" y2="1366.9469"/><line style="stroke:#181818;stroke-width:0.6999999999999998;stroke-dasharray:5.0,5.0;" x1="2636.2" x2="2636.2" y1="123.5391" y2="1366.9469"/><line style="stroke:#181818;stroke-width:0.6999999999999998;stroke-dasharray:5.0,5.0;" x1="2784.6" x2="2784.6" y1="123.5391" y2="1366.9469"/><text fill="#000000" font-family="sans-serif" font-size="19.6" lengthAdjust="spacing" textLength="78.4" x="7" y="118.6199">Manager</text><ellipse cx="50.4" cy="25.3695" fill="#E2E2F0" rx="11.2" ry="11.2" style="stroke:#181818;stroke-width:0.6999999999999998;"/><path d="M50.4,36.5695 L50.4,74.3695 M32.2,47.7695 L68.6,47.7695 M50.4,74.3695 L32.2,95.3695 M50.4,74.3695 L68.6,95.3695 " fill="none" style="stroke:#181818;stroke-width:0.6999999999999998;"/><text fill="#000000" font-family="sans-serif" font-size="19.6" lengthAdjust="spacing" textLength="78.4" x="7" y="1386.6973">Manager</text><ellipse cx="50.4" cy="1403.5164" fill="#E2E2F0" rx="11.2" ry="11.2" style="stroke:#181818;stroke-width:0.6999999999999998;"/><path d="M50.4,1414.7164 L50.4,1452.5164 M32.2,1425.9164 L68.6,1425.9164 M50.4,1452.5164 L32.2,1473.5164 M50.4,1452.5164 L68.6,1473.5164 " fill="none" style="stroke:#181818;stroke-width:0.6999999999999998;"/><rect fill="#E2E2F0" height="71.7391" rx="3.5" ry="3.5" style="stroke:#181818;stroke-width:0.6999999999999998;" width="170.8" x="305.2" y="50.4"/><text fill="#000000" font-family="sans-serif" font-size="19.6" font-style="italic" lengthAdjust="spacing" textLength="133" x="324.1" y="81.3504">&#171;presentation&#187;</text><text fill="#000000" font-family="sans-serif" font-size="19.6" lengthAdjust="spacing" textLength="151.2" x="315" y="107.4199">DeactivateUserUI</text><rect fill="#E2E2F0" height="71.7391" rx="3.5" ry="3.5" style="stroke:#181818;stroke-width:0.6999999999999998;" width="170.8" x="305.2" y="1365.5469"/><text fill="#000000" font-family="sans-serif" font-size="19.6" font-style="italic" lengthAdjust="spacing" textLength="133" x="324.1" y="1396.4973">&#171;presentation&#187;</text><text fill="#000000" font-family="sans-serif" font-size="19.6" lengthAdjust="spacing" textLength="151.2" x="315" y="1422.5668">DeactivateUserUI</text><rect fill="#E2E2F0" height="71.7391" rx="3.5" ry="3.5" style="stroke:#181818;stroke-width:0.6999999999999998;" width="240.8" x="600.6" y="50.4"/><text fill="#000000" font-family="sans-serif" font-size="19.6" font-style="italic" lengthAdjust="spacing" textLength="117.6" x="662.2" y="81.3504">&#171;application&#187;</text><text fill="#000000" font-family="sans-serif" font-size="19.6" lengthAdjust="spacing" textLength="221.2" x="610.4" y="107.4199">DeactivateUserController</text><rect fill="#E2E2F0" height="71.7391" rx="3.5" ry="3.5" style="stroke:#181818;stroke-width:0.6999999999999998;" width="240.8" x="600.6" y="1365.5469"/><text fill="#000000" font-family="sans-serif" font-size="19.6" font-style="italic" lengthAdjust="spacing" textLength="117.6" x="662.2" y="1396.4973">&#171;application&#187;</text><text fill="#000000" font-family="sans-serif" font-size="19.6" lengthAdjust="spacing" textLength="221.2" x="610.4" y="1422.5668">DeactivateUserController</text><rect fill="#E2E2F0" height="71.7391" rx="3.5" ry="3.5" style="stroke:#181818;stroke-width:0.6999999999999998;" width="200.2" x="1406.3" y="50.4"/><text fill="#000000" font-family="sans-serif" font-size="19.6" font-style="italic" lengthAdjust="spacing" textLength="117.6" x="1447.6" y="81.3504">&#171;application&#187;</text><text fill="#000000" font-family="sans-serif" font-size="19.6" lengthAdjust="spacing" textLength="180.6" x="1416.1" y="107.4199">AuthorizationService</text><rect fill="#E2E2F0" height="71.7391" rx="3.5" ry="3.5" style="stroke:#181818;stroke-width:0.6999999999999998;" width="200.2" x="1406.3" y="1365.5469"/><text fill="#000000" font-family="sans-serif" font-size="19.6" font-style="italic" lengthAdjust="spacing" textLength="117.6" x="1447.6" y="1396.4973">&#171;application&#187;</text><text fill="#000000" font-family="sans-serif" font-size="19.6" lengthAdjust="spacing" textLength="180.6" x="1416.1" y="1422.5668">AuthorizationService</text><rect fill="#E2E2F0" height="71.7391" rx="3.5" ry="3.5" style="stroke:#181818;stroke-width:0.6999999999999998;" width="231" x="1620.5" y="50.4"/><text fill="#000000" font-family="sans-serif" font-size="19.6" font-style="italic" lengthAdjust="spacing" textLength="117.6" x="1677.2" y="81.3504">&#171;application&#187;</text><text fill="#000000" font-family="sans-serif" font-size="19.6" lengthAdjust="spacing" textLength="211.4" x="1630.3" y="107.4199">ListActiveUserController</text><rect fill="#E2E2F0" height="71.7391" rx="3.5" ry="3.5" style="stroke:#181818;stroke-width:0.6999999999999998;" width="231" x="1620.5" y="1365.5469"/><text fill="#000000" font-family="sans-serif" font-size="19.6" font-style="italic" lengthAdjust="spacing" textLength="117.6" x="1677.2" y="1396.4973">&#171;application&#187;</text><text fill="#000000" font-family="sans-serif" font-size="19.6" lengthAdjust="spacing" textLength="211.4" x="1630.3" y="1422.5668">ListActiveUserController</text><rect fill="#E2E2F0" height="71.7391" rx="3.5" ry="3.5" style="stroke:#181818;stroke-width:0.6999999999999998;" width="219.8" x="1865.5" y="50.4"/><text fill="#000000" font-family="sans-serif" font-size="19.6" font-style="italic" lengthAdjust="spacing" textLength="117.6" x="1916.6" y="81.3504">&#171;application&#187;</text><text fill="#000000" font-family="sans-serif" font-size="19.6" lengthAdjust="spacing" textLength="200.2" x="1875.3" y="107.4199">DeactivateUserService</text><rect fill="#E2E2F0" height="71.7391" rx="3.5" ry="3.5" style="stroke:#181818;stroke-width:0.6999999999999998;" width="219.8" x="1865.5" y="1365.5469"/><text fill="#000000" font-family="sans-serif" font-size="19.6" font-style="italic" lengthAdjust="spacing" textLength="117.6" x="1916.6" y="1396.4973">&#171;application&#187;</text><text fill="#000000" font-family="sans-serif" font-size="19.6" lengthAdjust="spacing" textLength="200.2" x="1875.3" y="1422.5668">DeactivateUserService</text><rect fill="#E2E2F0" height="71.7391" rx="3.5" ry="3.5" style="stroke:#181818;stroke-width:0.6999999999999998;" width="141.4" x="2099.3" y="50.4"/><text fill="#000000" font-family="sans-serif" font-size="19.6" font-style="italic" lengthAdjust="spacing" textLength="117.6" x="2111.2" y="81.3504">&#171;application&#187;</text><text fill="#000000" font-family="sans-serif" font-size="19.6" lengthAdjust="spacing" textLength="121.8" x="2109.1" y="107.4199">AuthzRegistry</text><rect fill="#E2E2F0" height="71.7391" rx="3.5" ry="3.5" style="stroke:#181818;stroke-width:0.6999999999999998;" width="141.4" x="2099.3" y="1365.5469"/><text fill="#000000" font-family="sans-serif" font-size="19.6" font-style="italic" lengthAdjust="spacing" textLength="117.6" x="2111.2" y="1396.4973">&#171;application&#187;</text><text fill="#000000" font-family="sans-serif" font-size="19.6" lengthAdjust="spacing" textLength="121.8" x="2109.1" y="1422.5668">AuthzRegistry</text><rect fill="#E2E2F0" height="71.7391" rx="3.5" ry="3.5" style="stroke:#181818;stroke-width:0.6999999999999998;" width="240.8" x="2254.7" y="50.4"/><text fill="#000000" font-family="sans-serif" font-size="19.6" font-style="italic" lengthAdjust="spacing" textLength="117.6" x="2316.3" y="81.3504">&#171;application&#187;</text><text fill="#000000" font-family="sans-serif" font-size="19.6" lengthAdjust="spacing" textLength="221.2" x="2264.5" y="107.4199">UserManagementService</text><rect fill="#E2E2F0" height="71.7391" rx="3.5" ry="3.5" style="stroke:#181818;stroke-width:0.6999999999999998;" width="240.8" x="2254.7" y="1365.5469"/><text fill="#000000" font-family="sans-serif" font-size="19.6" font-style="italic" lengthAdjust="spacing" textLength="117.6" x="2316.3" y="1396.4973">&#171;application&#187;</text><text fill="#000000" font-family="sans-serif" font-size="19.6" lengthAdjust="spacing" textLength="221.2" x="2264.5" y="1422.5668">UserManagementService</text><rect fill="#E2E2F0" height="71.7391" rx="3.5" ry="3.5" style="stroke:#181818;stroke-width:0.6999999999999998;" width="124.6" x="2574.6" y="50.4"/><text fill="#000000" font-family="sans-serif" font-size="19.6" font-style="italic" lengthAdjust="spacing" textLength="86.8" x="2593.5" y="81.3504">&#171;domain&#187;</text><text fill="#000000" font-family="sans-serif" font-size="19.6" lengthAdjust="spacing" textLength="105" x="2584.4" y="107.4199">SystemUser</text><rect fill="#E2E2F0" height="71.7391" rx="3.5" ry="3.5" style="stroke:#181818;stroke-width:0.6999999999999998;" width="124.6" x="2574.6" y="1365.5469"/><text fill="#000000" font-family="sans-serif" font-size="19.6" font-style="italic" lengthAdjust="spacing" textLength="86.8" x="2593.5" y="1396.4973">&#171;domain&#187;</text><text fill="#000000" font-family="sans-serif" font-size="19.6" lengthAdjust="spacing" textLength="105" x="2584.4" y="1422.5668">SystemUser</text><text fill="#000000" font-family="sans-serif" font-size="19.6" font-style="italic" lengthAdjust="spacing" textLength="110.6" x="2725.8" y="92.5504">&#171;repository&#187;</text><text fill="#000000" font-family="sans-serif" font-size="19.6" lengthAdjust="spacing" textLength="135.8" x="2713.2" y="118.6199">UserRepository</text><path d="M2760.1,21 C2760.1,7 2785.3,7 2785.3,7 C2785.3,7 2810.5,7 2810.5,21 L2810.5,57.4 C2810.5,71.4 2785.3,71.4 2785.3,71.4 C2785.3,71.4 2760.1,71.4 2760.1,57.4 L2760.1,21 " fill="#E2E2F0" style="stroke:#181818;stroke-width:2.0999999999999996;"/><path d="M2760.1,21 C2760.1,35 2785.3,35 2785.3,35 C2785.3,35 2810.5,35 2810.5,21 " fill="none" style="stroke:#181818;stroke-width:2.0999999999999996;"/><text fill="#000000" font-family="sans-serif" font-size="19.6" font-style="italic" lengthAdjust="spacing" textLength="110.6" x="2725.8" y="1386.6973">&#171;repository&#187;</text><text fill="#000000" font-family="sans-serif" font-size="19.6" lengthAdjust="spacing" textLength="135.8" x="2713.2" y="1412.7668">UserRepository</text><path d="M2760.1,1431.6859 C2760.1,1417.6859 2785.3,1417.6859 2785.3,1417.6859 C2785.3,1417.6859 2810.5,1417.6859 2810.5,1431.6859 L2810.5,1468.0859 C2810.5,1482.0859 2785.3,1482.0859 2785.3,1482.0859 C2785.3,1482.0859 2760.1,1482.0859 2760.1,1468.0859 L2760.1,1431.6859 " fill="#E2E2F0" style="stroke:#181818;stroke-width:2.0999999999999996;"/><path d="M2760.1,1431.6859 C2760.1,1445.6859 2785.3,1445.6859 2785.3,1445.6859 C2785.3,1445.6859 2810.5,1445.6859 2810.5,1431.6859 " fill="none" style="stroke:#181818;stroke-width:2.0999999999999996;"/><rect fill="#FFFFFF" height="1171.6004" style="stroke:#181818;stroke-width:1.3999999999999997;" width="14" x="43.4" y="170.1465"/><rect fill="#FFFFFF" height="1171.6004" style="stroke:#181818;stroke-width:1.3999999999999997;" width="14" x="383.6" y="170.1465"/><rect fill="#FFFFFF" height="87.6148" style="stroke:#181818;stroke-width:1.3999999999999997;" width="14" x="714" y="213.9539"/><rect fill="#FFFFFF" height="251.6445" style="stroke:#181818;stroke-width:1.3999999999999997;" width="14" x="714" y="345.3762"/><rect fill="#FFFFFF" height="569.4965" style="stroke:#181818;stroke-width:1.3999999999999997;" width="14" x="714" y="728.443"/><rect fill="#FFFFFF" height="60.1111" style="stroke:#181818;stroke-width:1.3999999999999997;" width="14" x="1729" y="476.7984"/><rect fill="#FFFFFF" height="394.2668" style="stroke:#181818;stroke-width:1.3999999999999997;" width="14" x="1968.4" y="859.8652"/><rect fill="#FFFFFF" height="43.8074" style="stroke:#181818;stroke-width:1.3999999999999997;" width="14" x="2163" y="257.7613"/><rect fill="#FFFFFF" height="43.8074" style="stroke:#181818;stroke-width:1.3999999999999997;" width="14" x="2163" y="903.6727"/><rect fill="#FFFFFF" height="43.8074" style="stroke:#181818;stroke-width:1.3999999999999997;" width="14" x="2368.1" y="991.2875"/><rect fill="#FFFFFF" height="131.4223" style="stroke:#181818;stroke-width:1.3999999999999997;" width="14" x="2368.1" y="1078.9023"/><polygon fill="#181818" points="366.8,164.5465,380.8,170.1465,366.8,175.7465,372.4,170.1465" style="stroke:#181818;stroke-width:1.3999999999999997;"/><line style="stroke:#181818;stroke-width:1.3999999999999997;" x1="57.4" x2="375.2" y1="170.1465" y2="170.1465"/><text fill="#000000" font-family="sans-serif" font-size="18.2" font-weight="bold" lengthAdjust="spacing" textLength="9.8" x="67.2" y="162.7787">1</text><text fill="#000000" font-family="sans-serif" font-size="18.2" lengthAdjust="spacing" textLength="231" x="82.6" y="162.7787">Select option deactivateUser</text><polygon fill="#181818" points="697.2,208.3539,711.2,213.9539,697.2,219.5539,702.8,213.9539" style="stroke:#181818;stroke-width:1.3999999999999997;"/><line style="stroke:#181818;stroke-width:1.3999999999999997;" x1="397.6" x2="705.6" y1="213.9539" y2="213.9539"/><text fill="#000000" font-family="sans-serif" font-size="18.2" font-weight="bold" lengthAdjust="spacing" textLength="9.8" x="407.4" y="206.5861">2</text><text fill="#000000" font-family="sans-serif" font-size="18.2" lengthAdjust="spacing" textLength="61.6" x="422.8" y="206.5861">create()</text><polygon fill="#181818" points="2146.2,252.1613,2160.2,257.7613,2146.2,263.3613,2151.8,257.7613" style="stroke:#181818;stroke-width:1.3999999999999997;"/><line style="stroke:#181818;stroke-width:1.3999999999999997;" x1="728" x2="2154.6" y1="257.7613" y2="257.7613"/><text fill="#000000" font-family="sans-serif" font-size="18.2" font-weight="bold" lengthAdjust="spacing" textLength="9.8" x="737.8" y="250.3936">3</text><text fill="#000000" font-family="sans-serif" font-size="18.2" lengthAdjust="spacing" textLength="173.6" x="753.2" y="250.3936">authorizationService()</text><polygon fill="#181818" points="736.4,295.9687,722.4,301.5687,736.4,307.1687,730.8,301.5687" style="stroke:#181818;stroke-width:1.3999999999999997;"/><line style="stroke:#181818;stroke-width:1.3999999999999997;stroke-dasharray:2.0,2.0;" x1="728" x2="2168.6" y1="301.5687" y2="301.5687"/><text fill="#000000" font-family="sans-serif" font-size="18.2" font-weight="bold" lengthAdjust="spacing" textLength="9.8" x="744.8" y="294.201">4</text><text fill="#000000" font-family="sans-serif" font-size="18.2" lengthAdjust="spacing" textLength="44.8" x="760.2" y="294.201">authz</text><polygon fill="#181818" points="697.2,339.7762,711.2,345.3762,697.2,350.9762,702.8,345.3762" style="stroke:#181818;stroke-width:1.3999999999999997;"/><line style="stroke:#181818;stroke-width:1.3999999999999997;" x1="397.6" x2="705.6" y1="345.3762" y2="345.3762"/><text fill="#000000" font-family="sans-serif" font-size="18.2" font-weight="bold" lengthAdjust="spacing" textLength="9.8" x="407.4" y="338.0084">5</text><text fill="#000000" font-family="sans-serif" font-size="18.2" lengthAdjust="spacing" textLength="131.6" x="422.8" y="338.0084">listActiveUsers()</text><polygon fill="#181818" points="1489.6,383.5836,1503.6,389.1836,1489.6,394.7836,1495.2,389.1836" style="stroke:#181818;stroke-width:1.3999999999999997;"/><line style="stroke:#181818;stroke-width:1.3999999999999997;" x1="728" x2="1498" y1="389.1836" y2="389.1836"/><text fill="#000000" font-family="sans-serif" font-size="18.2" font-weight="bold" lengthAdjust="spacing" textLength="9.8" x="737.8" y="381.8158">6</text><text fill="#000000" font-family="sans-serif" font-size="18.2" lengthAdjust="spacing" textLength="719.6" x="753.2" y="381.8158">ensureAuthenticatedUserHasAnyOf(BaseRoles.POWER_USER, BaseRoles.MANAGER)</text><polygon fill="#181818" points="1719.2,427.391,1733.2,432.991,1719.2,438.591,1724.8,432.991" style="stroke:#181818;stroke-width:1.3999999999999997;"/><line style="stroke:#181818;stroke-width:1.3999999999999997;" x1="728" x2="1727.6" y1="432.991" y2="432.991"/><text fill="#000000" font-family="sans-serif" font-size="18.2" font-weight="bold" lengthAdjust="spacing" textLength="9.8" x="737.8" y="425.6232">7</text><text fill="#000000" font-family="sans-serif" font-size="18.2" lengthAdjust="spacing" textLength="61.6" x="753.2" y="425.6232">create()</text><polygon fill="#181818" points="1712.2,471.1984,1726.2,476.7984,1712.2,482.3984,1717.8,476.7984" style="stroke:#181818;stroke-width:1.3999999999999997;"/><line style="stroke:#181818;stroke-width:1.3999999999999997;" x1="728" x2="1720.6" y1="476.7984" y2="476.7984"/><text fill="#000000" font-family="sans-serif" font-size="18.2" font-weight="bold" lengthAdjust="spacing" textLength="9.8" x="737.8" y="469.4307">8</text><text fill="#000000" font-family="sans-serif" font-size="18.2" lengthAdjust="spacing" textLength="152.6" x="753.2" y="469.4307">listAllActiveUsers()</text><polygon fill="#181818" points="743.4,531.3096,729.4,536.9096,743.4,542.5096,737.8,536.9096" style="stroke:#181818;stroke-width:1.3999999999999997;"/><line style="stroke:#181818;stroke-width:1.3999999999999997;stroke-dasharray:2.0,2.0;" x1="735" x2="1734.6" y1="536.9096" y2="536.9096"/><text fill="#000000" font-family="sans-serif" font-size="18.2" font-weight="bold" lengthAdjust="spacing" textLength="9.8" x="751.8" y="529.5418">9</text><text fill="#000000" font-family="sans-serif" font-size="18.2" lengthAdjust="spacing" textLength="107.8" x="767.2" y="529.5418">listUsersDTO</text><path d="M1750,494.9984 L1750,556.5984 L2156,556.5984 L2156,508.9984 L2142,494.9984 L1750,494.9984 " fill="#FEFFDD" style="stroke:#181818;stroke-width:0.6999999999999998;"/><path d="M2142,494.9984 L2142,508.9984 L2156,508.9984 L2142,494.9984 " fill="#FEFFDD" style="stroke:#181818;stroke-width:0.6999999999999998;"/><text fill="#000000" font-family="sans-serif" font-size="18.2" lengthAdjust="spacing" textLength="359.8" x="1758.4" y="521.6381">for more information abou this method check</text><text fill="#000000" font-family="sans-serif" font-size="18.2" lengthAdjust="spacing" textLength="371" x="1764" y="545.8455">SD_ListActiveUserController in folder us_1001</text><polygon fill="#181818" points="413,591.4207,399,597.0207,413,602.6207,407.4,597.0207" style="stroke:#181818;stroke-width:1.3999999999999997;"/><line style="stroke:#181818;stroke-width:1.3999999999999997;stroke-dasharray:2.0,2.0;" x1="404.6" x2="719.6" y1="597.0207" y2="597.0207"/><text fill="#000000" font-family="sans-serif" font-size="18.2" font-weight="bold" lengthAdjust="spacing" textLength="19.6" x="421.4" y="589.6529">10</text><text fill="#000000" font-family="sans-serif" font-size="18.2" lengthAdjust="spacing" textLength="107.8" x="446.6" y="589.6529">listUsersDTO</text><polygon fill="#181818" points="72.8,635.2281,58.8,640.8281,72.8,646.4281,67.2,640.8281" style="stroke:#181818;stroke-width:1.3999999999999997;"/><line style="stroke:#181818;stroke-width:1.3999999999999997;stroke-dasharray:2.0,2.0;" x1="64.4" x2="382.2" y1="640.8281" y2="640.8281"/><text fill="#000000" font-family="sans-serif" font-size="18.2" font-weight="bold" lengthAdjust="spacing" textLength="19.6" x="81.2" y="633.4604">11</text><text fill="#000000" font-family="sans-serif" font-size="18.2" lengthAdjust="spacing" textLength="203" x="106.4" y="633.4604">shows list of active users</text><polygon fill="#181818" points="366.8,679.0355,380.8,684.6355,366.8,690.2355,372.4,684.6355" style="stroke:#181818;stroke-width:1.3999999999999997;"/><line style="stroke:#181818;stroke-width:1.3999999999999997;" x1="57.4" x2="375.2" y1="684.6355" y2="684.6355"/><text fill="#000000" font-family="sans-serif" font-size="18.2" font-weight="bold" lengthAdjust="spacing" textLength="19.6" x="67.2" y="677.2678">12</text><text fill="#000000" font-family="sans-serif" font-size="18.2" lengthAdjust="spacing" textLength="93.8" x="92.4" y="677.2678">selects one</text><polygon fill="#181818" points="697.2,722.843,711.2,728.443,697.2,734.043,702.8,728.443" style="stroke:#181818;stroke-width:1.3999999999999997;"/><line style="stroke:#181818;stroke-width:1.3999999999999997;" x1="397.6" x2="705.6" y1="728.443" y2="728.443"/><text fill="#000000" font-family="sans-serif" font-size="18.2" font-weight="bold" lengthAdjust="spacing" textLength="19.6" x="407.4" y="721.0752">13</text><text fill="#000000" font-family="sans-serif" font-size="18.2" lengthAdjust="spacing" textLength="264.6" x="432.6" y="721.0752">deactivateUser(systemUserDTO)</text><polygon fill="#181818" points="1489.6,766.6504,1503.6,772.2504,1489.6,777.8504,1495.2,772.2504" style="stroke:#181818;stroke-width:1.3999999999999997;"/><line style="stroke:#181818;stroke-width:1.3999999999999997;" x1="728" x2="1498" y1="772.2504" y2="772.2504"/><text fill="#000000" font-family="sans-serif" font-size="18.2" font-weight="bold" lengthAdjust="spacing" textLength="19.6" x="737.8" y="764.8826">14</text><text fill="#000000" font-family="sans-serif" font-size="18.2" lengthAdjust="spacing" textLength="719.6" x="763" y="764.8826">ensureAuthenticatedUserHasAnyOf(BaseRoles.POWER_USER, BaseRoles.MANAGER)</text><polygon fill="#181818" points="1719.2,810.4578,1733.2,816.0578,1719.2,821.6578,1724.8,816.0578" style="stroke:#181818;stroke-width:1.3999999999999997;"/><line style="stroke:#181818;stroke-width:1.3999999999999997;" x1="728" x2="1727.6" y1="816.0578" y2="816.0578"/><text fill="#000000" font-family="sans-serif" font-size="18.2" font-weight="bold" lengthAdjust="spacing" textLength="19.6" x="737.8" y="808.69">15</text><text fill="#000000" font-family="sans-serif" font-size="18.2" lengthAdjust="spacing" textLength="61.6" x="763" y="808.69">create()</text><polygon fill="#181818" points="1951.6,854.2652,1965.6,859.8652,1951.6,865.4652,1957.2,859.8652" style="stroke:#181818;stroke-width:1.3999999999999997;"/><line style="stroke:#181818;stroke-width:1.3999999999999997;" x1="728" x2="1960" y1="859.8652" y2="859.8652"/><text fill="#000000" font-family="sans-serif" font-size="18.2" font-weight="bold" lengthAdjust="spacing" textLength="19.6" x="737.8" y="852.4975">16</text><text fill="#000000" font-family="sans-serif" font-size="18.2" lengthAdjust="spacing" textLength="264.6" x="763" y="852.4975">deactivateUser(systemUserDTO)</text><polygon fill="#181818" points="2146.2,898.0727,2160.2,903.6727,2146.2,909.2727,2151.8,903.6727" style="stroke:#181818;stroke-width:1.3999999999999997;"/><line style="stroke:#181818;stroke-width:1.3999999999999997;" x1="1982.4" x2="2154.6" y1="903.6727" y2="903.6727"/><text fill="#000000" font-family="sans-serif" font-size="18.2" font-weight="bold" lengthAdjust="spacing" textLength="19.6" x="1992.2" y="896.3049">17</text><text fill="#000000" font-family="sans-serif" font-size="18.2" lengthAdjust="spacing" textLength="105" x="2017.4" y="896.3049">userService()</text><polygon fill="#181818" points="1997.8,941.8801,1983.8,947.4801,1997.8,953.0801,1992.2,947.4801" style="stroke:#181818;stroke-width:1.3999999999999997;"/><line style="stroke:#181818;stroke-width:1.3999999999999997;stroke-dasharray:2.0,2.0;" x1="1989.4" x2="2168.6" y1="947.4801" y2="947.4801"/><text fill="#000000" font-family="sans-serif" font-size="18.2" font-weight="bold" lengthAdjust="spacing" textLength="19.6" x="2006.2" y="940.1123">18</text><text fill="#000000" font-family="sans-serif" font-size="18.2" lengthAdjust="spacing" textLength="64.4" x="2031.4" y="940.1123">userSvc</text><polygon fill="#181818" points="2351.3,985.6875,2365.3,991.2875,2351.3,996.8875,2356.9,991.2875" style="stroke:#181818;stroke-width:1.3999999999999997;"/><line style="stroke:#181818;stroke-width:1.3999999999999997;" x1="1982.4" x2="2359.7" y1="991.2875" y2="991.2875"/><text fill="#000000" font-family="sans-serif" font-size="18.2" font-weight="bold" lengthAdjust="spacing" textLength="19.6" x="1992.2" y="983.9197">19</text><text fill="#000000" font-family="sans-serif" font-size="18.2" lengthAdjust="spacing" textLength="203" x="2017.4" y="983.9197">userOfIdentity(username)</text><polygon fill="#181818" points="1997.8,1029.4949,1983.8,1035.0949,1997.8,1040.6949,1992.2,1035.0949" style="stroke:#181818;stroke-width:1.3999999999999997;"/><line style="stroke:#181818;stroke-width:1.3999999999999997;stroke-dasharray:2.0,2.0;" x1="1989.4" x2="2373.7" y1="1035.0949" y2="1035.0949"/><text fill="#000000" font-family="sans-serif" font-size="18.2" font-weight="bold" lengthAdjust="spacing" textLength="19.6" x="2006.2" y="1027.7271">20</text><text fill="#000000" font-family="sans-serif" font-size="18.2" lengthAdjust="spacing" textLength="88.2" x="2031.4" y="1027.7271">sytemUser</text><polygon fill="#181818" points="2351.3,1073.3023,2365.3,1078.9023,2351.3,1084.5023,2356.9,1078.9023" style="stroke:#181818;stroke-width:1.3999999999999997;"/><line style="stroke:#181818;stroke-width:1.3999999999999997;" x1="1982.4" x2="2359.7" y1="1078.9023" y2="1078.9023"/><text fill="#000000" font-family="sans-serif" font-size="18.2" font-weight="bold" lengthAdjust="spacing" textLength="19.6" x="1992.2" y="1071.5346">21</text><text fill="#000000" font-family="sans-serif" font-size="18.2" lengthAdjust="spacing" textLength="228.2" x="2017.4" y="1071.5346">deactivateUser(systemUser)</text><polygon fill="#181818" points="2620.1,1117.1098,2634.1,1122.7098,2620.1,1128.3098,2625.7,1122.7098" style="stroke:#181818;stroke-width:1.3999999999999997;"/><line style="stroke:#181818;stroke-width:1.3999999999999997;" x1="2382.1" x2="2628.5" y1="1122.7098" y2="1122.7098"/><text fill="#000000" font-family="sans-serif" font-size="18.2" font-weight="bold" lengthAdjust="spacing" textLength="19.6" x="2391.9" y="1115.342">22</text><text fill="#000000" font-family="sans-serif" font-size="18.2" lengthAdjust="spacing" textLength="196" x="2417.1" y="1115.342">deactivate(Current Time)</text><polygon fill="#181818" points="2768.5,1160.9172,2782.5,1166.5172,2768.5,1172.1172,2774.1,1166.5172" style="stroke:#181818;stroke-width:1.3999999999999997;"/><line style="stroke:#181818;stroke-width:1.3999999999999997;" x1="2382.1" x2="2776.9" y1="1166.5172" y2="1166.5172"/><text fill="#000000" font-family="sans-serif" font-size="18.2" font-weight="bold" lengthAdjust="spacing" textLength="19.6" x="2391.9" y="1159.1494">23</text><text fill="#000000" font-family="sans-serif" font-size="18.2" lengthAdjust="spacing" textLength="145.6" x="2417.1" y="1159.1494">save(systemUser)</text><polygon fill="#181818" points="1997.8,1204.7246,1983.8,1210.3246,1997.8,1215.9246,1992.2,1210.3246" style="stroke:#181818;stroke-width:1.3999999999999997;"/><line style="stroke:#181818;stroke-width:1.3999999999999997;stroke-dasharray:2.0,2.0;" x1="1989.4" x2="2373.7" y1="1210.3246" y2="1210.3246"/><text fill="#000000" font-family="sans-serif" font-size="18.2" font-weight="bold" lengthAdjust="spacing" textLength="19.6" x="2006.2" y="1202.9568">24</text><text fill="#000000" font-family="sans-serif" font-size="18.2" lengthAdjust="spacing" textLength="109.2" x="2031.4" y="1202.9568">(systemUser)</text><polygon fill="#181818" points="743.4,1248.532,729.4,1254.132,743.4,1259.732,737.8,1254.132" style="stroke:#181818;stroke-width:1.3999999999999997;"/><line style="stroke:#181818;stroke-width:1.3999999999999997;stroke-dasharray:2.0,2.0;" x1="735" x2="1974" y1="1254.132" y2="1254.132"/><text fill="#000000" font-family="sans-serif" font-size="18.2" font-weight="bold" lengthAdjust="spacing" textLength="19.6" x="751.8" y="1246.7643">25</text><text fill="#000000" font-family="sans-serif" font-size="18.2" lengthAdjust="spacing" textLength="63" x="777" y="1246.7643">boolean</text><polygon fill="#181818" points="413,1292.3395,399,1297.9395,413,1303.5395,407.4,1297.9395" style="stroke:#181818;stroke-width:1.3999999999999997;"/><line style="stroke:#181818;stroke-width:1.3999999999999997;stroke-dasharray:2.0,2.0;" x1="404.6" x2="719.6" y1="1297.9395" y2="1297.9395"/><text fill="#000000" font-family="sans-serif" font-size="18.2" font-weight="bold" lengthAdjust="spacing" textLength="19.6" x="421.4" y="1290.5717">26</text><text fill="#000000" font-family="sans-serif" font-size="18.2" lengthAdjust="spacing" textLength="63" x="446.6" y="1290.5717">boolean</text><polygon fill="#181818" points="65.8,1336.1469,51.8,1341.7469,65.8,1347.3469,60.2,1341.7469" style="stroke:#181818;stroke-width:1.3999999999999997;"/><line style="stroke:#181818;stroke-width:1.3999999999999997;stroke-dasharray:2.0,2.0;" x1="57.4" x2="389.2" y1="1341.7469" y2="1341.7469"/><text fill="#000000" font-family="sans-serif" font-size="18.2" font-weight="bold" lengthAdjust="spacing" textLength="19.6" x="74.2" y="1334.3791">27</text><text fill="#000000" font-family="sans-serif" font-size="18.2" lengthAdjust="spacing" textLength="267.4" x="99.4" y="1334.3791">Informs if operation was Success</text><!--SRC=[pLHDRzim3BtxLn2zB0MMfhqQHO2i3RO2wpB4pNOPK2Wo4mkp9KyVAT9VFqfs53jDqXrtCIoAZtmY7_cXiBOswMXKbqnQLvLNN5KZWtySIex3NB2rPbMIC6ULTDKIDVrpgpGyCidM_bWpRGKNDU7XuXxfLcoOnOL1lNYu06R02RYzhJKQb9PPeUHuV0vrfwJLgYnH1pItkYGyg-jIy6FmYRE5qk8rt6MeDuAZ1nBd8ljn5lfL63lngGyIUtX9TtVlvUupxoJFumKPtwN_EiSrfTFR7UytY1x4vshgNr59ErbTS_7EgxEjiLZv81vZ5a3UkQgO28boPjcI6GnPvbWh8wZVsrruif2xZdOFILenm73icvr2XYLo2whssJkry26JtI5AA1gSI0XEGNpFK-0QoJgut3juUn84GKw-Jcdu7dQ_2_7tIIZfC0RsnzTaJwjnwfn37k8o73U0igSJSvOI5Jy5bCPfzAsb1lakOEwHNvYPoEriDVX41Pwh4itLzzdFwVnvaKtd7s5lVPnyctoUpYzZvAZ6JbcEt0MYPNc2wyunYOXXyy8M6G3tJxD4AlBMObtO55Oqx9NI24BIRnNg36of7DX26AYGwfy3Bv3_XbyIilldarCb94KhS_fpvldc-lgcM_D8ZhV46YdrU1ssoAk575iXfM0AzT9CBgWL15yCgZLzYP9dKAW19R6dkRvM1oQE2gN_lxhUsp3_JBo7IfB-cef3vVRBxFGi7H08c0r_CrPlSyGjrO1cguVSryjk1_ueMOMTdD4vqMYTbc2sxSFEHpvPZwEnzukJefX55pwuSreJFtWIdbZFirs892UsmLwEbkmnsr9HivaySNm8KsP0h6Xzecx6xOMMR-OuHsEwhzu9_oy0]--></g></svg>