<?xml version="1.0" encoding="us-ascii" standalone="no"?><svg xmlns="http://www.w3.org/2000/svg" xmlns:xlink="http://www.w3.org/1999/xlink" contentStyleType="text/css" height="617.6px" preserveAspectRatio="none" style="width:1302px;height:617px;background:#FFFFFF;" version="1.1" viewBox="0 0 1302 617" width="1302.4px" zoomAndPan="magnify"><defs/><g><rect fill="#FFFFFF" height="452.9906" style="stroke:#181818;stroke-width:0.8000000000000002;" width="8" x="68.8" y="78.5938"/><rect fill="#FFFFFF" height="377.0922" style="stroke:#181818;stroke-width:0.8000000000000002;" width="8" x="622" y="147.2922"/><rect fill="#FFFFFF" height="25.0328" style="stroke:#181818;stroke-width:0.8000000000000002;" width="8" x="715.2" y="172.325"/><rect fill="#FFFFFF" height="75.0984" style="stroke:#181818;stroke-width:0.8000000000000002;" width="8" x="832.4" y="222.3906"/><rect fill="#FFFFFF" height="150.1969" style="stroke:#181818;stroke-width:0.8000000000000002;" width="8" x="944.8" y="343.5547"/><rect fill="#FFFFFF" height="100.1313" style="stroke:#181818;stroke-width:0.8000000000000002;" width="8" x="1169.6" y="368.5875"/><rect fill="#FFFFFF" height="25.0328" style="stroke:#181818;stroke-width:0.8000000000000002;" width="8" x="1256.8" y="247.4234"/><rect fill="none" height="190.6625" style="stroke:#000000;stroke-width:1.2000000000000002;" width="646.4" x="573.2" y="309.4891"/><line style="stroke:#181818;stroke-width:0.4000000000000001;stroke-dasharray:5.0,5.0;" x1="72.8" x2="72.8" y1="70.5938" y2="538.7844"/><line style="stroke:#181818;stroke-width:0.4000000000000001;stroke-dasharray:5.0,5.0;" x1="515.6" x2="515.6" y1="70.5938" y2="538.7844"/><line style="stroke:#181818;stroke-width:0.4000000000000001;stroke-dasharray:5.0,5.0;" x1="626" x2="626" y1="70.5938" y2="538.7844"/><line style="stroke:#181818;stroke-width:0.4000000000000001;stroke-dasharray:5.0,5.0;" x1="718.8" x2="718.8" y1="70.5938" y2="538.7844"/><line style="stroke:#181818;stroke-width:0.4000000000000001;stroke-dasharray:5.0,5.0;" x1="836.4" x2="836.4" y1="70.5938" y2="538.7844"/><line style="stroke:#181818;stroke-width:0.4000000000000001;stroke-dasharray:5.0,5.0;" x1="948.4" x2="948.4" y1="70.5938" y2="538.7844"/><line style="stroke:#181818;stroke-width:0.4000000000000001;stroke-dasharray:5.0,5.0;" x1="1173.2" x2="1173.2" y1="70.5938" y2="538.7844"/><line style="stroke:#181818;stroke-width:0.4000000000000001;stroke-dasharray:5.0,5.0;" x1="1260.4" x2="1260.4" y1="70.5938" y2="538.7844"/><rect fill="#E2E2F0" height="40.9938" rx="2" ry="2" style="stroke:#181818;stroke-width:0.4000000000000001;" width="137.6" x="4" y="28.8"/><text fill="#000000" font-family="sans-serif" font-size="11.2" font-style="italic" lengthAdjust="spacing" textLength="67.2" x="39.2" y="46.4859">&#171;application&#187;</text><text fill="#000000" font-family="sans-serif" font-size="11.2" lengthAdjust="spacing" textLength="126.4" x="9.6" y="61.3828">ListActiveUsersController</text><rect fill="#E2E2F0" height="40.9938" rx="2" ry="2" style="stroke:#181818;stroke-width:0.4000000000000001;" width="137.6" x="4" y="537.9844"/><text fill="#000000" font-family="sans-serif" font-size="11.2" font-style="italic" lengthAdjust="spacing" textLength="67.2" x="39.2" y="555.6703">&#171;application&#187;</text><text fill="#000000" font-family="sans-serif" font-size="11.2" lengthAdjust="spacing" textLength="126.4" x="9.6" y="570.5672">ListActiveUsersController</text><rect fill="#E2E2F0" height="40.9938" rx="2" ry="2" style="stroke:#181818;stroke-width:0.4000000000000001;" width="114.4" x="458.8" y="28.8"/><text fill="#000000" font-family="sans-serif" font-size="11.2" font-style="italic" lengthAdjust="spacing" textLength="67.2" x="482.4" y="46.4859">&#171;application&#187;</text><text fill="#000000" font-family="sans-serif" font-size="11.2" lengthAdjust="spacing" textLength="103.2" x="464.4" y="61.3828">AuthorizationService</text><rect fill="#E2E2F0" height="40.9938" rx="2" ry="2" style="stroke:#181818;stroke-width:0.4000000000000001;" width="114.4" x="458.8" y="537.9844"/><text fill="#000000" font-family="sans-serif" font-size="11.2" font-style="italic" lengthAdjust="spacing" textLength="67.2" x="482.4" y="555.6703">&#171;application&#187;</text><text fill="#000000" font-family="sans-serif" font-size="11.2" lengthAdjust="spacing" textLength="103.2" x="464.4" y="570.5672">AuthorizationService</text><rect fill="#E2E2F0" height="40.9938" rx="2" ry="2" style="stroke:#181818;stroke-width:0.4000000000000001;" width="89.6" x="581.2" y="28.8"/><text fill="#000000" font-family="sans-serif" font-size="11.2" font-style="italic" lengthAdjust="spacing" textLength="67.2" x="592.4" y="46.4859">&#171;application&#187;</text><text fill="#000000" font-family="sans-serif" font-size="11.2" lengthAdjust="spacing" textLength="78.4" x="586.8" y="61.3828">ListUserService</text><rect fill="#E2E2F0" height="40.9938" rx="2" ry="2" style="stroke:#181818;stroke-width:0.4000000000000001;" width="89.6" x="581.2" y="537.9844"/><text fill="#000000" font-family="sans-serif" font-size="11.2" font-style="italic" lengthAdjust="spacing" textLength="67.2" x="592.4" y="555.6703">&#171;application&#187;</text><text fill="#000000" font-family="sans-serif" font-size="11.2" lengthAdjust="spacing" textLength="78.4" x="586.8" y="570.5672">ListUserService</text><rect fill="#E2E2F0" height="40.9938" rx="2" ry="2" style="stroke:#181818;stroke-width:0.4000000000000001;" width="80.8" x="678.8" y="28.8"/><text fill="#000000" font-family="sans-serif" font-size="11.2" font-style="italic" lengthAdjust="spacing" textLength="67.2" x="685.6" y="46.4859">&#171;application&#187;</text><text fill="#000000" font-family="sans-serif" font-size="11.2" lengthAdjust="spacing" textLength="69.6" x="684.4" y="61.3828">AuthzRegistry</text><rect fill="#E2E2F0" height="40.9938" rx="2" ry="2" style="stroke:#181818;stroke-width:0.4000000000000001;" width="80.8" x="678.8" y="537.9844"/><text fill="#000000" font-family="sans-serif" font-size="11.2" font-style="italic" lengthAdjust="spacing" textLength="67.2" x="685.6" y="555.6703">&#171;application&#187;</text><text fill="#000000" font-family="sans-serif" font-size="11.2" lengthAdjust="spacing" textLength="69.6" x="684.4" y="570.5672">AuthzRegistry</text><rect fill="#E2E2F0" height="40.9938" rx="2" ry="2" style="stroke:#181818;stroke-width:0.4000000000000001;" width="137.6" x="767.6" y="28.8"/><text fill="#000000" font-family="sans-serif" font-size="11.2" font-style="italic" lengthAdjust="spacing" textLength="67.2" x="802.8" y="46.4859">&#171;application&#187;</text><text fill="#000000" font-family="sans-serif" font-size="11.2" lengthAdjust="spacing" textLength="126.4" x="773.2" y="61.3828">UserManagementService</text><rect fill="#E2E2F0" height="40.9938" rx="2" ry="2" style="stroke:#181818;stroke-width:0.4000000000000001;" width="137.6" x="767.6" y="537.9844"/><text fill="#000000" font-family="sans-serif" font-size="11.2" font-style="italic" lengthAdjust="spacing" textLength="67.2" x="802.8" y="555.6703">&#171;application&#187;</text><text fill="#000000" font-family="sans-serif" font-size="11.2" lengthAdjust="spacing" textLength="126.4" x="773.2" y="570.5672">UserManagementService</text><rect fill="#E2E2F0" height="40.9938" rx="2" ry="2" style="stroke:#181818;stroke-width:0.4000000000000001;" width="71.2" x="913.2" y="28.8"/><text fill="#000000" font-family="sans-serif" font-size="11.2" font-style="italic" lengthAdjust="spacing" textLength="49.6" x="924" y="46.4859">&#171;domain&#187;</text><text fill="#000000" font-family="sans-serif" font-size="11.2" lengthAdjust="spacing" textLength="60" x="918.8" y="61.3828">SystemUser</text><rect fill="#E2E2F0" height="40.9938" rx="2" ry="2" style="stroke:#181818;stroke-width:0.4000000000000001;" width="71.2" x="913.2" y="537.9844"/><text fill="#000000" font-family="sans-serif" font-size="11.2" font-style="italic" lengthAdjust="spacing" textLength="49.6" x="924" y="555.6703">&#171;domain&#187;</text><text fill="#000000" font-family="sans-serif" font-size="11.2" lengthAdjust="spacing" textLength="60" x="918.8" y="570.5672">SystemUser</text><rect fill="#E2E2F0" height="40.9938" rx="2" ry="2" style="stroke:#181818;stroke-width:0.4000000000000001;" width="76" x="1135.6" y="28.8"/><text fill="#000000" font-family="sans-serif" font-size="11.2" font-style="italic" lengthAdjust="spacing" textLength="36.8" x="1155.2" y="46.4859">&#171;DTO&#187;</text><text fill="#000000" font-family="sans-serif" font-size="11.2" lengthAdjust="spacing" textLength="64.8" x="1141.2" y="61.3828">GeneralDTO</text><rect fill="#E2E2F0" height="40.9938" rx="2" ry="2" style="stroke:#181818;stroke-width:0.4000000000000001;" width="76" x="1135.6" y="537.9844"/><text fill="#000000" font-family="sans-serif" font-size="11.2" font-style="italic" lengthAdjust="spacing" textLength="36.8" x="1155.2" y="555.6703">&#171;DTO&#187;</text><text fill="#000000" font-family="sans-serif" font-size="11.2" lengthAdjust="spacing" textLength="64.8" x="1141.2" y="570.5672">GeneralDTO</text><text fill="#000000" font-family="sans-serif" font-size="11.2" font-style="italic" lengthAdjust="spacing" textLength="63.2" x="1226.8" y="52.8859">&#171;repository&#187;</text><text fill="#000000" font-family="sans-serif" font-size="11.2" lengthAdjust="spacing" textLength="77.6" x="1219.6" y="67.7828">UserRepository</text><path d="M1246.4,12 C1246.4,4 1260.8,4 1260.8,4 C1260.8,4 1275.2,4 1275.2,12 L1275.2,32.8 C1275.2,40.8 1260.8,40.8 1260.8,40.8 C1260.8,40.8 1246.4,40.8 1246.4,32.8 L1246.4,12 " fill="#E2E2F0" style="stroke:#181818;stroke-width:1.2000000000000002;"/><path d="M1246.4,12 C1246.4,20 1260.8,20 1260.8,20 C1260.8,20 1275.2,20 1275.2,12 " fill="none" style="stroke:#181818;stroke-width:1.2000000000000002;"/><text fill="#000000" font-family="sans-serif" font-size="11.2" font-style="italic" lengthAdjust="spacing" textLength="63.2" x="1226.8" y="550.0703">&#171;repository&#187;</text><text fill="#000000" font-family="sans-serif" font-size="11.2" lengthAdjust="spacing" textLength="77.6" x="1219.6" y="564.9672">UserRepository</text><path d="M1246.4,575.7781 C1246.4,567.7781 1260.8,567.7781 1260.8,567.7781 C1260.8,567.7781 1275.2,567.7781 1275.2,575.7781 L1275.2,596.5781 C1275.2,604.5781 1260.8,604.5781 1260.8,604.5781 C1260.8,604.5781 1246.4,604.5781 1246.4,596.5781 L1246.4,575.7781 " fill="#E2E2F0" style="stroke:#181818;stroke-width:1.2000000000000002;"/><path d="M1246.4,575.7781 C1246.4,583.7781 1260.8,583.7781 1260.8,583.7781 C1260.8,583.7781 1275.2,583.7781 1275.2,575.7781 " fill="none" style="stroke:#181818;stroke-width:1.2000000000000002;"/><rect fill="#FFFFFF" height="452.9906" style="stroke:#181818;stroke-width:0.8000000000000002;" width="8" x="68.8" y="78.5938"/><rect fill="#FFFFFF" height="377.0922" style="stroke:#181818;stroke-width:0.8000000000000002;" width="8" x="622" y="147.2922"/><rect fill="#FFFFFF" height="25.0328" style="stroke:#181818;stroke-width:0.8000000000000002;" width="8" x="715.2" y="172.325"/><rect fill="#FFFFFF" height="75.0984" style="stroke:#181818;stroke-width:0.8000000000000002;" width="8" x="832.4" y="222.3906"/><rect fill="#FFFFFF" height="150.1969" style="stroke:#181818;stroke-width:0.8000000000000002;" width="8" x="944.8" y="343.5547"/><rect fill="#FFFFFF" height="100.1313" style="stroke:#181818;stroke-width:0.8000000000000002;" width="8" x="1169.6" y="368.5875"/><rect fill="#FFFFFF" height="25.0328" style="stroke:#181818;stroke-width:0.8000000000000002;" width="8" x="1256.8" y="247.4234"/><polygon fill="#181818" points="506.4,94.0266,514.4,97.2266,506.4,100.4266,509.6,97.2266" style="stroke:#181818;stroke-width:0.8000000000000002;"/><line style="stroke:#181818;stroke-width:0.8000000000000002;" x1="76.8" x2="511.2" y1="97.2266" y2="97.2266"/><text fill="#000000" font-family="sans-serif" font-size="10.4" font-weight="bold" lengthAdjust="spacing" textLength="5.6" x="82.4" y="93.0164">1</text><text fill="#000000" font-family="sans-serif" font-size="10.4" lengthAdjust="spacing" textLength="411.2" x="91.2" y="93.0164">ensureAuthenticatedUserHasAnyOf(BaseRoles.POWER_USER, BaseRoles.MANAGER)</text><polygon fill="#181818" points="616.4,119.0594,624.4,122.2594,616.4,125.4594,619.6,122.2594" style="stroke:#181818;stroke-width:0.8000000000000002;"/><line style="stroke:#181818;stroke-width:0.8000000000000002;" x1="76.8" x2="621.2" y1="122.2594" y2="122.2594"/><text fill="#000000" font-family="sans-serif" font-size="10.4" font-weight="bold" lengthAdjust="spacing" textLength="5.6" x="82.4" y="118.0492">2</text><text fill="#000000" font-family="sans-serif" font-size="10.4" lengthAdjust="spacing" textLength="28.8" x="91.2" y="118.0492">create</text><polygon fill="#181818" points="612.4,144.0922,620.4,147.2922,612.4,150.4922,615.6,147.2922" style="stroke:#181818;stroke-width:0.8000000000000002;"/><line style="stroke:#181818;stroke-width:0.8000000000000002;" x1="76.8" x2="617.2" y1="147.2922" y2="147.2922"/><text fill="#000000" font-family="sans-serif" font-size="10.4" font-weight="bold" lengthAdjust="spacing" textLength="5.6" x="82.4" y="143.082">3</text><text fill="#000000" font-family="sans-serif" font-size="10.4" lengthAdjust="spacing" textLength="75.2" x="91.2" y="143.082">listActiveUsers()</text><polygon fill="#181818" points="705.6,169.125,713.6,172.325,705.6,175.525,708.8,172.325" style="stroke:#181818;stroke-width:0.8000000000000002;"/><line style="stroke:#181818;stroke-width:0.8000000000000002;" x1="630" x2="710.4" y1="172.325" y2="172.325"/><text fill="#000000" font-family="sans-serif" font-size="10.4" font-weight="bold" lengthAdjust="spacing" textLength="5.6" x="635.6" y="168.1148">4</text><text fill="#000000" font-family="sans-serif" font-size="10.4" lengthAdjust="spacing" textLength="60" x="644.4" y="168.1148">userService()</text><polygon fill="#181818" points="638.8,194.1578,630.8,197.3578,638.8,200.5578,635.6,197.3578" style="stroke:#181818;stroke-width:0.8000000000000002;"/><line style="stroke:#181818;stroke-width:0.8000000000000002;stroke-dasharray:2.0,2.0;" x1="634" x2="718.4" y1="197.3578" y2="197.3578"/><text fill="#000000" font-family="sans-serif" font-size="10.4" font-weight="bold" lengthAdjust="spacing" textLength="5.6" x="643.6" y="193.1477">5</text><text fill="#000000" font-family="sans-serif" font-size="10.4" lengthAdjust="spacing" textLength="36.8" x="652.4" y="193.1477">userSvc</text><polygon fill="#181818" points="822.8,219.1906,830.8,222.3906,822.8,225.5906,826,222.3906" style="stroke:#181818;stroke-width:0.8000000000000002;"/><line style="stroke:#181818;stroke-width:0.8000000000000002;" x1="630" x2="827.6" y1="222.3906" y2="222.3906"/><text fill="#000000" font-family="sans-serif" font-size="10.4" font-weight="bold" lengthAdjust="spacing" textLength="5.6" x="635.6" y="218.1805">6</text><text fill="#000000" font-family="sans-serif" font-size="10.4" lengthAdjust="spacing" textLength="60" x="644.4" y="218.1805">activeUsers()</text><polygon fill="#181818" points="1247.2,244.2234,1255.2,247.4234,1247.2,250.6234,1250.4,247.4234" style="stroke:#181818;stroke-width:0.8000000000000002;"/><line style="stroke:#181818;stroke-width:0.8000000000000002;" x1="840.4" x2="1252" y1="247.4234" y2="247.4234"/><text fill="#000000" font-family="sans-serif" font-size="10.4" font-weight="bold" lengthAdjust="spacing" textLength="5.6" x="846" y="243.2133">7</text><text fill="#000000" font-family="sans-serif" font-size="10.4" lengthAdjust="spacing" textLength="99.2" x="854.8" y="243.2133">findByActive(boolean)</text><polygon fill="#181818" points="849.2,269.2563,841.2,272.4563,849.2,275.6563,846,272.4563" style="stroke:#181818;stroke-width:0.8000000000000002;"/><line style="stroke:#181818;stroke-width:0.8000000000000002;stroke-dasharray:2.0,2.0;" x1="844.4" x2="1260" y1="272.4563" y2="272.4563"/><text fill="#000000" font-family="sans-serif" font-size="10.4" font-weight="bold" lengthAdjust="spacing" textLength="5.6" x="854" y="268.2461">8</text><text fill="#000000" font-family="sans-serif" font-size="10.4" lengthAdjust="spacing" textLength="104" x="862.8" y="268.2461">Iterable&lt;SystemUser&gt;</text><polygon fill="#181818" points="638.8,294.2891,630.8,297.4891,638.8,300.6891,635.6,297.4891" style="stroke:#181818;stroke-width:0.8000000000000002;"/><line style="stroke:#181818;stroke-width:0.8000000000000002;stroke-dasharray:2.0,2.0;" x1="634" x2="835.6" y1="297.4891" y2="297.4891"/><text fill="#000000" font-family="sans-serif" font-size="10.4" font-weight="bold" lengthAdjust="spacing" textLength="5.6" x="643.6" y="293.2789">9</text><text fill="#000000" font-family="sans-serif" font-size="10.4" lengthAdjust="spacing" textLength="104" x="652.4" y="293.2789">Iterable&lt;SystemUser&gt;</text><path d="M573.2,309.4891 L631.6,309.4891 L631.6,316.9219 L623.6,324.9219 L573.2,324.9219 L573.2,309.4891 " fill="#EEEEEE" style="stroke:#000000;stroke-width:1.2000000000000002;"/><rect fill="none" height="190.6625" style="stroke:#000000;stroke-width:1.2000000000000002;" width="646.4" x="573.2" y="309.4891"/><text fill="#000000" font-family="sans-serif" font-size="10.4" font-weight="bold" lengthAdjust="spacing" textLength="22.4" x="585.2" y="321.5117">loop</text><text fill="#000000" font-family="sans-serif" font-size="8.8" font-weight="bold" lengthAdjust="spacing" textLength="134.4" x="643.6" y="320.5852">[for all SystemUser in Iterable]</text><polygon fill="#181818" points="935.2,340.3547,943.2,343.5547,935.2,346.7547,938.4,343.5547" style="stroke:#181818;stroke-width:0.8000000000000002;"/><line style="stroke:#181818;stroke-width:0.8000000000000002;" x1="630" x2="940" y1="343.5547" y2="343.5547"/><text fill="#000000" font-family="sans-serif" font-size="10.4" font-weight="bold" lengthAdjust="spacing" textLength="11.2" x="635.6" y="339.3445">10</text><text fill="#000000" font-family="sans-serif" font-size="10.4" lengthAdjust="spacing" textLength="92" x="650" y="339.3445">SystemUser.toDto()</text><polygon fill="#181818" points="1160,365.3875,1168,368.5875,1160,371.7875,1163.2,368.5875" style="stroke:#181818;stroke-width:0.8000000000000002;"/><line style="stroke:#181818;stroke-width:0.8000000000000002;" x1="952.8" x2="1164.8" y1="368.5875" y2="368.5875"/><text fill="#000000" font-family="sans-serif" font-size="10.4" font-weight="bold" lengthAdjust="spacing" textLength="11.2" x="958.4" y="364.3773">11</text><text fill="#000000" font-family="sans-serif" font-size="10.4" lengthAdjust="spacing" textLength="63.2" x="972.8" y="364.3773">create("user")</text><polygon fill="#181818" points="1160,390.4203,1168,393.6203,1160,396.8203,1163.2,393.6203" style="stroke:#181818;stroke-width:0.8000000000000002;"/><line style="stroke:#181818;stroke-width:0.8000000000000002;" x1="952.8" x2="1164.8" y1="393.6203" y2="393.6203"/><text fill="#000000" font-family="sans-serif" font-size="10.4" font-weight="bold" lengthAdjust="spacing" textLength="11.2" x="958.4" y="389.4102">12</text><text fill="#000000" font-family="sans-serif" font-size="10.4" lengthAdjust="spacing" textLength="175.2" x="972.8" y="389.4102">put("username", username.toString());</text><polygon fill="#181818" points="1160,415.4531,1168,418.6531,1160,421.8531,1163.2,418.6531" style="stroke:#181818;stroke-width:0.8000000000000002;"/><line style="stroke:#181818;stroke-width:0.8000000000000002;" x1="952.8" x2="1164.8" y1="418.6531" y2="418.6531"/><text fill="#000000" font-family="sans-serif" font-size="10.4" font-weight="bold" lengthAdjust="spacing" textLength="11.2" x="958.4" y="414.443">13</text><text fill="#000000" font-family="sans-serif" font-size="10.4" lengthAdjust="spacing" textLength="135.2" x="972.8" y="414.443">put("name", name.toString());</text><polygon fill="#181818" points="1160,440.4859,1168,443.6859,1160,446.8859,1163.2,443.6859" style="stroke:#181818;stroke-width:0.8000000000000002;"/><line style="stroke:#181818;stroke-width:0.8000000000000002;" x1="952.8" x2="1164.8" y1="443.6859" y2="443.6859"/><text fill="#000000" font-family="sans-serif" font-size="10.4" font-weight="bold" lengthAdjust="spacing" textLength="11.2" x="958.4" y="439.4758">14</text><text fill="#000000" font-family="sans-serif" font-size="10.4" lengthAdjust="spacing" textLength="133.6" x="972.8" y="439.4758">put("email", email.toString());</text><polygon fill="#181818" points="1164,465.5188,1172,468.7188,1164,471.9188,1167.2,468.7188" style="stroke:#181818;stroke-width:0.8000000000000002;"/><line style="stroke:#181818;stroke-width:0.8000000000000002;" x1="952.8" x2="1168.8" y1="468.7188" y2="468.7188"/><text fill="#000000" font-family="sans-serif" font-size="10.4" font-weight="bold" lengthAdjust="spacing" textLength="11.2" x="958.4" y="464.5086">15</text><text fill="#000000" font-family="sans-serif" font-size="10.4" lengthAdjust="spacing" textLength="183.2" x="972.8" y="464.5086">put("roles", roles.roleTypes().toString());</text><polygon fill="#181818" points="638.8,490.5516,630.8,493.7516,638.8,496.9516,635.6,493.7516" style="stroke:#181818;stroke-width:0.8000000000000002;"/><line style="stroke:#181818;stroke-width:0.8000000000000002;stroke-dasharray:2.0,2.0;" x1="634" x2="948" y1="493.7516" y2="493.7516"/><text fill="#000000" font-family="sans-serif" font-size="10.4" font-weight="bold" lengthAdjust="spacing" textLength="11.2" x="643.6" y="489.5414">16</text><text fill="#000000" font-family="sans-serif" font-size="10.4" lengthAdjust="spacing" textLength="56.8" x="658" y="489.5414">GeneralDTO</text><polygon fill="#181818" points="85.6,521.1844,77.6,524.3844,85.6,527.5844,82.4,524.3844" style="stroke:#181818;stroke-width:0.8000000000000002;"/><line style="stroke:#181818;stroke-width:0.8000000000000002;stroke-dasharray:2.0,2.0;" x1="80.8" x2="625.2" y1="524.3844" y2="524.3844"/><text fill="#000000" font-family="sans-serif" font-size="10.4" font-weight="bold" lengthAdjust="spacing" textLength="11.2" x="90.4" y="520.1742">17</text><text fill="#000000" font-family="sans-serif" font-size="10.4" lengthAdjust="spacing" textLength="61.6" x="104.8" y="520.1742">listUsersDTO</text><!--SRC=[ZPD1Zzem48Nl_XKMbuAqWNkwYiHsqRPIjrHXQO-LIGQmvDYfFK5YVtt7Ja8S5ktsGaByFR_nc_6d8sBjqiMYLa9ZKwbvOQg5WxyDw0AIKeg35HLZea6Zcse7bZ5M2ukoa3Kf-EIxTBWiK9vWwy2wBqQZDKg1dN3XU85MyVjxKTTA5WAbqLasqYyRF1ehNyFQ1kn95k25P7ZS_7eZ7MczjJUDPAvx_SZoDOS3gUsvztfNuKsUXHO7g41ZPDUq2pSAZUMRiqEe_2QXn2qdkZILaDVW4sYmGZs-h3rOel4a_VC7BmMAdN0GYicXDawYQUjlsY_4sijtBn6-BG8XT86nq8iawwDDEMZNMF1nqAbywL3wpRyAjzJdzNxwG7QvKU3cFzU_L_cVxMQLt_7Xw_Fon_9fbSykE_VffxomGDlTM53ZSPdEXYexYFLmLseQpjU57lD-aONU9OD5HvyALiAOx80a6vgMSd6xb0l21fWy-g1JlfUwV3Yt1vdk3CKXz9MUGDOBaaxSstv3wlDEmVqm6bbSSAplt4Sf_e- -hPyfOsg-DpHwIiMJAFLbbpXnciuqmkPe7j6CkhHbn119uzdtUJhnXfE8eiKOgnji6IqgcDpn_fMstw2L-Z2TpJw_4NJmno3GNL94XkVxgFMJIsXupltloxa6QlvO5cNP7sNKWE6cnYXb0xhaFl8XqoGBjw0T_J1frwfkxly1]--></g></svg>