<?xml version="1.0" encoding="us-ascii" standalone="no"?><svg xmlns="http://www.w3.org/2000/svg" xmlns:xlink="http://www.w3.org/1999/xlink" contentStyleType="text/css" height="891.9px" preserveAspectRatio="none" style="width:1665px;height:891px;background:#FFFFFF;" version="1.1" viewBox="0 0 1665 891" width="1665.9px" zoomAndPan="magnify"><defs/><g><rect fill="#FFFFFF" height="677.6859" style="stroke:#181818;stroke-width:0.9;" width="9" x="27.9" y="109.3799"/><rect fill="#FFFFFF" height="677.6859" style="stroke:#181818;stroke-width:0.9;" width="9" x="159.3" y="109.3799"/><rect fill="#FFFFFF" height="56.3238" style="stroke:#181818;stroke-width:0.9;" width="9" x="277.65" y="137.5418"/><rect fill="#FFFFFF" height="536.8764" style="stroke:#181818;stroke-width:0.9;" width="9" x="277.65" y="222.0275"/><rect fill="#FFFFFF" height="424.2287" style="stroke:#181818;stroke-width:0.9;" width="9" x="900" y="306.5133"/><rect fill="#FFFFFF" height="28.1619" style="stroke:#181818;stroke-width:0.9;" width="9" x="1004.85" y="165.7037"/><rect fill="#FFFFFF" height="28.1619" style="stroke:#181818;stroke-width:0.9;" width="9" x="1004.85" y="334.6752"/><rect fill="#FFFFFF" height="84.4857" style="stroke:#181818;stroke-width:0.9;" width="9" x="1136.7" y="390.999"/><rect fill="#FFFFFF" height="168.9715" style="stroke:#181818;stroke-width:0.9;" width="9" x="1263.15" y="527.3086"/><rect fill="#FFFFFF" height="112.6477" style="stroke:#181818;stroke-width:0.9;" width="9" x="1516.05" y="555.4705"/><rect fill="#FFFFFF" height="28.1619" style="stroke:#181818;stroke-width:0.9;" width="9" x="1614.15" y="419.1609"/><rect fill="none" height="214.4953" style="stroke:#000000;stroke-width:1.35;" width="727.2" x="845.1" y="488.9848"/><line style="stroke:#181818;stroke-width:0.45;stroke-dasharray:5.0,5.0;" x1="32.4" x2="32.4" y1="79.418" y2="803.2658"/><line style="stroke:#181818;stroke-width:0.45;stroke-dasharray:5.0,5.0;" x1="163.35" x2="163.35" y1="79.418" y2="803.2658"/><line style="stroke:#181818;stroke-width:0.45;stroke-dasharray:5.0,5.0;" x1="282.15" x2="282.15" y1="79.418" y2="803.2658"/><line style="stroke:#181818;stroke-width:0.45;stroke-dasharray:5.0,5.0;" x1="780.3" x2="780.3" y1="79.418" y2="803.2658"/><line style="stroke:#181818;stroke-width:0.45;stroke-dasharray:5.0,5.0;" x1="904.5" x2="904.5" y1="79.418" y2="803.2658"/><line style="stroke:#181818;stroke-width:0.45;stroke-dasharray:5.0,5.0;" x1="1008.9" x2="1008.9" y1="79.418" y2="803.2658"/><line style="stroke:#181818;stroke-width:0.45;stroke-dasharray:5.0,5.0;" x1="1141.2" x2="1141.2" y1="79.418" y2="803.2658"/><line style="stroke:#181818;stroke-width:0.45;stroke-dasharray:5.0,5.0;" x1="1267.2" x2="1267.2" y1="79.418" y2="803.2658"/><line style="stroke:#181818;stroke-width:0.45;stroke-dasharray:5.0,5.0;" x1="1520.1" x2="1520.1" y1="79.418" y2="803.2658"/><line style="stroke:#181818;stroke-width:0.45;stroke-dasharray:5.0,5.0;" x1="1618.2" x2="1618.2" y1="79.418" y2="803.2658"/><text fill="#000000" font-family="sans-serif" font-size="12.6" lengthAdjust="spacing" textLength="50.4" x="4.5" y="76.2557">Manager</text><ellipse cx="32.4" cy="16.309" fill="#E2E2F0" rx="7.2" ry="7.2" style="stroke:#181818;stroke-width:0.45;"/><path d="M32.4,23.509 L32.4,47.809 M20.7,30.709 L44.1,30.709 M32.4,47.809 L20.7,61.309 M32.4,47.809 L44.1,61.309 " fill="none" style="stroke:#181818;stroke-width:0.45;"/><text fill="#000000" font-family="sans-serif" font-size="12.6" lengthAdjust="spacing" textLength="50.4" x="4.5" y="815.9625">Manager</text><ellipse cx="32.4" cy="826.7748" fill="#E2E2F0" rx="7.2" ry="7.2" style="stroke:#181818;stroke-width:0.45;"/><path d="M32.4,833.9748 L32.4,858.2748 M20.7,841.1748 L44.1,841.1748 M32.4,858.2748 L20.7,871.7748 M32.4,858.2748 L44.1,871.7748 " fill="none" style="stroke:#181818;stroke-width:0.45;"/><rect fill="#E2E2F0" height="46.118" rx="2.25" ry="2.25" style="stroke:#181818;stroke-width:0.45;" width="98.1" x="114.75" y="32.4"/><text fill="#000000" font-family="sans-serif" font-size="12.6" font-style="italic" lengthAdjust="spacing" textLength="85.5" x="121.05" y="52.2967">&#171;presentation&#187;</text><text fill="#000000" font-family="sans-serif" font-size="12.6" lengthAdjust="spacing" textLength="63" x="132.3" y="69.0557">ListUsersUI</text><rect fill="#E2E2F0" height="46.118" rx="2.25" ry="2.25" style="stroke:#181818;stroke-width:0.45;" width="98.1" x="114.75" y="802.3658"/><text fill="#000000" font-family="sans-serif" font-size="12.6" font-style="italic" lengthAdjust="spacing" textLength="85.5" x="121.05" y="822.2625">&#171;presentation&#187;</text><text fill="#000000" font-family="sans-serif" font-size="12.6" lengthAdjust="spacing" textLength="63" x="132.3" y="839.0215">ListUsersUI</text><rect fill="#E2E2F0" height="46.118" rx="2.25" ry="2.25" style="stroke:#181818;stroke-width:0.45;" width="120.6" x="221.85" y="32.4"/><text fill="#000000" font-family="sans-serif" font-size="12.6" font-style="italic" lengthAdjust="spacing" textLength="75.6" x="244.35" y="52.2967">&#171;application&#187;</text><text fill="#000000" font-family="sans-serif" font-size="12.6" lengthAdjust="spacing" textLength="108" x="228.15" y="69.0557">ListUsersController</text><rect fill="#E2E2F0" height="46.118" rx="2.25" ry="2.25" style="stroke:#181818;stroke-width:0.45;" width="120.6" x="221.85" y="802.3658"/><text fill="#000000" font-family="sans-serif" font-size="12.6" font-style="italic" lengthAdjust="spacing" textLength="75.6" x="244.35" y="822.2625">&#171;application&#187;</text><text fill="#000000" font-family="sans-serif" font-size="12.6" lengthAdjust="spacing" textLength="108" x="228.15" y="839.0215">ListUsersController</text><rect fill="#E2E2F0" height="46.118" rx="2.25" ry="2.25" style="stroke:#181818;stroke-width:0.45;" width="128.7" x="716.4" y="32.4"/><text fill="#000000" font-family="sans-serif" font-size="12.6" font-style="italic" lengthAdjust="spacing" textLength="75.6" x="742.95" y="52.2967">&#171;application&#187;</text><text fill="#000000" font-family="sans-serif" font-size="12.6" lengthAdjust="spacing" textLength="116.1" x="722.7" y="69.0557">AuthorizationService</text><rect fill="#E2E2F0" height="46.118" rx="2.25" ry="2.25" style="stroke:#181818;stroke-width:0.45;" width="128.7" x="716.4" y="802.3658"/><text fill="#000000" font-family="sans-serif" font-size="12.6" font-style="italic" lengthAdjust="spacing" textLength="75.6" x="742.95" y="822.2625">&#171;application&#187;</text><text fill="#000000" font-family="sans-serif" font-size="12.6" lengthAdjust="spacing" textLength="116.1" x="722.7" y="839.0215">AuthorizationService</text><rect fill="#E2E2F0" height="46.118" rx="2.25" ry="2.25" style="stroke:#181818;stroke-width:0.45;" width="100.8" x="854.1" y="32.4"/><text fill="#000000" font-family="sans-serif" font-size="12.6" font-style="italic" lengthAdjust="spacing" textLength="75.6" x="866.7" y="52.2967">&#171;application&#187;</text><text fill="#000000" font-family="sans-serif" font-size="12.6" lengthAdjust="spacing" textLength="88.2" x="860.4" y="69.0557">ListUserService</text><rect fill="#E2E2F0" height="46.118" rx="2.25" ry="2.25" style="stroke:#181818;stroke-width:0.45;" width="100.8" x="854.1" y="802.3658"/><text fill="#000000" font-family="sans-serif" font-size="12.6" font-style="italic" lengthAdjust="spacing" textLength="75.6" x="866.7" y="822.2625">&#171;application&#187;</text><text fill="#000000" font-family="sans-serif" font-size="12.6" lengthAdjust="spacing" textLength="88.2" x="860.4" y="839.0215">ListUserService</text><rect fill="#E2E2F0" height="46.118" rx="2.25" ry="2.25" style="stroke:#181818;stroke-width:0.45;" width="90.9" x="963.9" y="32.4"/><text fill="#000000" font-family="sans-serif" font-size="12.6" font-style="italic" lengthAdjust="spacing" textLength="75.6" x="971.55" y="52.2967">&#171;application&#187;</text><text fill="#000000" font-family="sans-serif" font-size="12.6" lengthAdjust="spacing" textLength="78.3" x="970.2" y="69.0557">AuthzRegistry</text><rect fill="#E2E2F0" height="46.118" rx="2.25" ry="2.25" style="stroke:#181818;stroke-width:0.45;" width="90.9" x="963.9" y="802.3658"/><text fill="#000000" font-family="sans-serif" font-size="12.6" font-style="italic" lengthAdjust="spacing" textLength="75.6" x="971.55" y="822.2625">&#171;application&#187;</text><text fill="#000000" font-family="sans-serif" font-size="12.6" lengthAdjust="spacing" textLength="78.3" x="970.2" y="839.0215">AuthzRegistry</text><rect fill="#E2E2F0" height="46.118" rx="2.25" ry="2.25" style="stroke:#181818;stroke-width:0.45;" width="154.8" x="1063.8" y="32.4"/><text fill="#000000" font-family="sans-serif" font-size="12.6" font-style="italic" lengthAdjust="spacing" textLength="75.6" x="1103.4" y="52.2967">&#171;application&#187;</text><text fill="#000000" font-family="sans-serif" font-size="12.6" lengthAdjust="spacing" textLength="142.2" x="1070.1" y="69.0557">UserManagementService</text><rect fill="#E2E2F0" height="46.118" rx="2.25" ry="2.25" style="stroke:#181818;stroke-width:0.45;" width="154.8" x="1063.8" y="802.3658"/><text fill="#000000" font-family="sans-serif" font-size="12.6" font-style="italic" lengthAdjust="spacing" textLength="75.6" x="1103.4" y="822.2625">&#171;application&#187;</text><text fill="#000000" font-family="sans-serif" font-size="12.6" lengthAdjust="spacing" textLength="142.2" x="1070.1" y="839.0215">UserManagementService</text><rect fill="#E2E2F0" height="46.118" rx="2.25" ry="2.25" style="stroke:#181818;stroke-width:0.45;" width="80.1" x="1227.6" y="32.4"/><text fill="#000000" font-family="sans-serif" font-size="12.6" font-style="italic" lengthAdjust="spacing" textLength="55.8" x="1239.75" y="52.2967">&#171;domain&#187;</text><text fill="#000000" font-family="sans-serif" font-size="12.6" lengthAdjust="spacing" textLength="67.5" x="1233.9" y="69.0557">SystemUser</text><rect fill="#E2E2F0" height="46.118" rx="2.25" ry="2.25" style="stroke:#181818;stroke-width:0.45;" width="80.1" x="1227.6" y="802.3658"/><text fill="#000000" font-family="sans-serif" font-size="12.6" font-style="italic" lengthAdjust="spacing" textLength="55.8" x="1239.75" y="822.2625">&#171;domain&#187;</text><text fill="#000000" font-family="sans-serif" font-size="12.6" lengthAdjust="spacing" textLength="67.5" x="1233.9" y="839.0215">SystemUser</text><rect fill="#E2E2F0" height="46.118" rx="2.25" ry="2.25" style="stroke:#181818;stroke-width:0.45;" width="85.5" x="1477.8" y="32.4"/><text fill="#000000" font-family="sans-serif" font-size="12.6" font-style="italic" lengthAdjust="spacing" textLength="41.4" x="1499.85" y="52.2967">&#171;DTO&#187;</text><text fill="#000000" font-family="sans-serif" font-size="12.6" lengthAdjust="spacing" textLength="72.9" x="1484.1" y="69.0557">GeneralDTO</text><rect fill="#E2E2F0" height="46.118" rx="2.25" ry="2.25" style="stroke:#181818;stroke-width:0.45;" width="85.5" x="1477.8" y="802.3658"/><text fill="#000000" font-family="sans-serif" font-size="12.6" font-style="italic" lengthAdjust="spacing" textLength="41.4" x="1499.85" y="822.2625">&#171;DTO&#187;</text><text fill="#000000" font-family="sans-serif" font-size="12.6" lengthAdjust="spacing" textLength="72.9" x="1484.1" y="839.0215">GeneralDTO</text><text fill="#000000" font-family="sans-serif" font-size="12.6" font-style="italic" lengthAdjust="spacing" textLength="71.1" x="1580.4" y="59.4967">&#171;repository&#187;</text><text fill="#000000" font-family="sans-serif" font-size="12.6" lengthAdjust="spacing" textLength="87.3" x="1572.3" y="76.2557">UserRepository</text><path d="M1602.45,13.5 C1602.45,4.5 1618.65,4.5 1618.65,4.5 C1618.65,4.5 1634.85,4.5 1634.85,13.5 L1634.85,36.9 C1634.85,45.9 1618.65,45.9 1618.65,45.9 C1618.65,45.9 1602.45,45.9 1602.45,36.9 L1602.45,13.5 " fill="#E2E2F0" style="stroke:#181818;stroke-width:1.35;"/><path d="M1602.45,13.5 C1602.45,22.5 1618.65,22.5 1618.65,22.5 C1618.65,22.5 1634.85,22.5 1634.85,13.5 " fill="none" style="stroke:#181818;stroke-width:1.35;"/><text fill="#000000" font-family="sans-serif" font-size="12.6" font-style="italic" lengthAdjust="spacing" textLength="71.1" x="1580.4" y="815.9625">&#171;repository&#187;</text><text fill="#000000" font-family="sans-serif" font-size="12.6" lengthAdjust="spacing" textLength="87.3" x="1572.3" y="832.7215">UserRepository</text><path d="M1602.45,844.8838 C1602.45,835.8838 1618.65,835.8838 1618.65,835.8838 C1618.65,835.8838 1634.85,835.8838 1634.85,844.8838 L1634.85,868.2838 C1634.85,877.2838 1618.65,877.2838 1618.65,877.2838 C1618.65,877.2838 1602.45,877.2838 1602.45,868.2838 L1602.45,844.8838 " fill="#E2E2F0" style="stroke:#181818;stroke-width:1.35;"/><path d="M1602.45,844.8838 C1602.45,853.8838 1618.65,853.8838 1618.65,853.8838 C1618.65,853.8838 1634.85,853.8838 1634.85,844.8838 " fill="none" style="stroke:#181818;stroke-width:1.35;"/><rect fill="#FFFFFF" height="677.6859" style="stroke:#181818;stroke-width:0.9;" width="9" x="27.9" y="109.3799"/><rect fill="#FFFFFF" height="677.6859" style="stroke:#181818;stroke-width:0.9;" width="9" x="159.3" y="109.3799"/><rect fill="#FFFFFF" height="56.3238" style="stroke:#181818;stroke-width:0.9;" width="9" x="277.65" y="137.5418"/><rect fill="#FFFFFF" height="536.8764" style="stroke:#181818;stroke-width:0.9;" width="9" x="277.65" y="222.0275"/><rect fill="#FFFFFF" height="424.2287" style="stroke:#181818;stroke-width:0.9;" width="9" x="900" y="306.5133"/><rect fill="#FFFFFF" height="28.1619" style="stroke:#181818;stroke-width:0.9;" width="9" x="1004.85" y="165.7037"/><rect fill="#FFFFFF" height="28.1619" style="stroke:#181818;stroke-width:0.9;" width="9" x="1004.85" y="334.6752"/><rect fill="#FFFFFF" height="84.4857" style="stroke:#181818;stroke-width:0.9;" width="9" x="1136.7" y="390.999"/><rect fill="#FFFFFF" height="168.9715" style="stroke:#181818;stroke-width:0.9;" width="9" x="1263.15" y="527.3086"/><rect fill="#FFFFFF" height="112.6477" style="stroke:#181818;stroke-width:0.9;" width="9" x="1516.05" y="555.4705"/><rect fill="#FFFFFF" height="28.1619" style="stroke:#181818;stroke-width:0.9;" width="9" x="1614.15" y="419.1609"/><polygon fill="#181818" points="148.5,105.7799,157.5,109.3799,148.5,112.9799,152.1,109.3799" style="stroke:#181818;stroke-width:0.9;"/><line style="stroke:#181818;stroke-width:0.9;stroke-dasharray:2.0,2.0;" x1="36.9" x2="153.9" y1="109.3799" y2="109.3799"/><text fill="#000000" font-family="sans-serif" font-size="11.7" font-weight="bold" lengthAdjust="spacing" textLength="6.3" x="43.2" y="104.6435">1</text><text fill="#000000" font-family="sans-serif" font-size="11.7" lengthAdjust="spacing" textLength="43.2" x="53.1" y="104.6435">ListUser</text><polygon fill="#181818" points="266.85,133.9418,275.85,137.5418,266.85,141.1418,270.45,137.5418" style="stroke:#181818;stroke-width:0.9;"/><line style="stroke:#181818;stroke-width:0.9;" x1="168.3" x2="272.25" y1="137.5418" y2="137.5418"/><text fill="#000000" font-family="sans-serif" font-size="11.7" font-weight="bold" lengthAdjust="spacing" textLength="6.3" x="174.6" y="132.8054">2</text><text fill="#000000" font-family="sans-serif" font-size="11.7" lengthAdjust="spacing" textLength="32.4" x="184.5" y="132.8054">create</text><polygon fill="#181818" points="994.05,162.1037,1003.05,165.7037,994.05,169.3037,997.65,165.7037" style="stroke:#181818;stroke-width:0.9;"/><line style="stroke:#181818;stroke-width:0.9;" x1="286.65" x2="999.45" y1="165.7037" y2="165.7037"/><text fill="#000000" font-family="sans-serif" font-size="11.7" font-weight="bold" lengthAdjust="spacing" textLength="6.3" x="292.95" y="160.9673">3</text><text fill="#000000" font-family="sans-serif" font-size="11.7" lengthAdjust="spacing" textLength="111.6" x="302.85" y="160.9673">authorizationService()</text><polygon fill="#181818" points="292.05,190.2656,283.05,193.8656,292.05,197.4656,288.45,193.8656" style="stroke:#181818;stroke-width:0.9;"/><line style="stroke:#181818;stroke-width:0.9;" x1="286.65" x2="1008.45" y1="193.8656" y2="193.8656"/><text fill="#000000" font-family="sans-serif" font-size="11.7" font-weight="bold" lengthAdjust="spacing" textLength="6.3" x="297.45" y="189.1292">4</text><text fill="#000000" font-family="sans-serif" font-size="11.7" lengthAdjust="spacing" textLength="28.8" x="307.35" y="189.1292">authz</text><polygon fill="#181818" points="266.85,218.4275,275.85,222.0275,266.85,225.6275,270.45,222.0275" style="stroke:#181818;stroke-width:0.9;"/><line style="stroke:#181818;stroke-width:0.9;" x1="168.3" x2="272.25" y1="222.0275" y2="222.0275"/><text fill="#000000" font-family="sans-serif" font-size="11.7" font-weight="bold" lengthAdjust="spacing" textLength="6.3" x="174.6" y="217.2911">5</text><text fill="#000000" font-family="sans-serif" font-size="11.7" lengthAdjust="spacing" textLength="66.6" x="184.5" y="217.2911">listAllUsers()</text><polygon fill="#181818" points="769.95,246.5895,778.95,250.1895,769.95,253.7895,773.55,250.1895" style="stroke:#181818;stroke-width:0.9;"/><line style="stroke:#181818;stroke-width:0.9;" x1="286.65" x2="775.35" y1="250.1895" y2="250.1895"/><text fill="#000000" font-family="sans-serif" font-size="11.7" font-weight="bold" lengthAdjust="spacing" textLength="6.3" x="292.95" y="245.453">6</text><text fill="#000000" font-family="sans-serif" font-size="11.7" lengthAdjust="spacing" textLength="462.6" x="302.85" y="245.453">ensureAuthenticatedUserHasAnyOf(BaseRoles.POWER_USER, BaseRoles.MANAGER)</text><polygon fill="#181818" points="893.7,274.7514,902.7,278.3514,893.7,281.9514,897.3,278.3514" style="stroke:#181818;stroke-width:0.9;"/><line style="stroke:#181818;stroke-width:0.9;" x1="286.65" x2="899.1" y1="278.3514" y2="278.3514"/><text fill="#000000" font-family="sans-serif" font-size="11.7" font-weight="bold" lengthAdjust="spacing" textLength="6.3" x="292.95" y="273.6149">7</text><text fill="#000000" font-family="sans-serif" font-size="11.7" lengthAdjust="spacing" textLength="32.4" x="302.85" y="273.6149">create</text><polygon fill="#181818" points="889.2,302.9133,898.2,306.5133,889.2,310.1133,892.8,306.5133" style="stroke:#181818;stroke-width:0.9;"/><line style="stroke:#181818;stroke-width:0.9;" x1="286.65" x2="894.6" y1="306.5133" y2="306.5133"/><text fill="#000000" font-family="sans-serif" font-size="11.7" font-weight="bold" lengthAdjust="spacing" textLength="6.3" x="292.95" y="301.7769">8</text><text fill="#000000" font-family="sans-serif" font-size="11.7" lengthAdjust="spacing" textLength="66.6" x="302.85" y="301.7769">listAllUsers()</text><polygon fill="#181818" points="994.05,331.0752,1003.05,334.6752,994.05,338.2752,997.65,334.6752" style="stroke:#181818;stroke-width:0.9;"/><line style="stroke:#181818;stroke-width:0.9;" x1="909" x2="999.45" y1="334.6752" y2="334.6752"/><text fill="#000000" font-family="sans-serif" font-size="11.7" font-weight="bold" lengthAdjust="spacing" textLength="6.3" x="915.3" y="329.9388">9</text><text fill="#000000" font-family="sans-serif" font-size="11.7" lengthAdjust="spacing" textLength="67.5" x="925.2" y="329.9388">userService()</text><polygon fill="#181818" points="918.9,359.2371,909.9,362.8371,918.9,366.4371,915.3,362.8371" style="stroke:#181818;stroke-width:0.9;"/><line style="stroke:#181818;stroke-width:0.9;" x1="913.5" x2="1008.45" y1="362.8371" y2="362.8371"/><text fill="#000000" font-family="sans-serif" font-size="11.7" font-weight="bold" lengthAdjust="spacing" textLength="12.6" x="924.3" y="358.1007">10</text><text fill="#000000" font-family="sans-serif" font-size="11.7" lengthAdjust="spacing" textLength="41.4" x="940.5" y="358.1007">userSvc</text><polygon fill="#181818" points="1125.9,387.399,1134.9,390.999,1125.9,394.599,1129.5,390.999" style="stroke:#181818;stroke-width:0.9;"/><line style="stroke:#181818;stroke-width:0.9;" x1="909" x2="1131.3" y1="390.999" y2="390.999"/><text fill="#000000" font-family="sans-serif" font-size="11.7" font-weight="bold" lengthAdjust="spacing" textLength="12.6" x="915.3" y="386.2626">11</text><text fill="#000000" font-family="sans-serif" font-size="11.7" lengthAdjust="spacing" textLength="49.5" x="931.5" y="386.2626">allUsers()</text><polygon fill="#181818" points="1603.35,415.5609,1612.35,419.1609,1603.35,422.7609,1606.95,419.1609" style="stroke:#181818;stroke-width:0.9;"/><line style="stroke:#181818;stroke-width:0.9;" x1="1145.7" x2="1608.75" y1="419.1609" y2="419.1609"/><text fill="#000000" font-family="sans-serif" font-size="11.7" font-weight="bold" lengthAdjust="spacing" textLength="12.6" x="1152" y="414.4245">12</text><text fill="#000000" font-family="sans-serif" font-size="11.7" lengthAdjust="spacing" textLength="38.7" x="1168.2" y="414.4245">findAll()</text><polygon fill="#181818" points="1155.6,443.7229,1146.6,447.3229,1155.6,450.9229,1152,447.3229" style="stroke:#181818;stroke-width:0.9;"/><line style="stroke:#181818;stroke-width:0.9;" x1="1150.2" x2="1617.75" y1="447.3229" y2="447.3229"/><text fill="#000000" font-family="sans-serif" font-size="11.7" font-weight="bold" lengthAdjust="spacing" textLength="12.6" x="1161" y="442.5864">13</text><text fill="#000000" font-family="sans-serif" font-size="11.7" lengthAdjust="spacing" textLength="117" x="1177.2" y="442.5864">Iterable&lt;SystemUser&gt;</text><polygon fill="#181818" points="918.9,471.8848,909.9,475.4848,918.9,479.0848,915.3,475.4848" style="stroke:#181818;stroke-width:0.9;"/><line style="stroke:#181818;stroke-width:0.9;" x1="913.5" x2="1140.3" y1="475.4848" y2="475.4848"/><text fill="#000000" font-family="sans-serif" font-size="11.7" font-weight="bold" lengthAdjust="spacing" textLength="12.6" x="924.3" y="470.7483">14</text><text fill="#000000" font-family="sans-serif" font-size="11.7" lengthAdjust="spacing" textLength="117" x="940.5" y="470.7483">Iterable&lt;SystemUser&gt;</text><path d="M845.1,488.9848 L910.8,488.9848 L910.8,497.3467 L901.8,506.3467 L845.1,506.3467 L845.1,488.9848 " fill="#EEEEEE" style="stroke:#000000;stroke-width:1.35;"/><rect fill="none" height="214.4953" style="stroke:#000000;stroke-width:1.35;" width="727.2" x="845.1" y="488.9848"/><text fill="#000000" font-family="sans-serif" font-size="11.7" font-weight="bold" lengthAdjust="spacing" textLength="25.2" x="858.6" y="502.5103">loop</text><text fill="#000000" font-family="sans-serif" font-size="9.9" font-weight="bold" lengthAdjust="spacing" textLength="151.2" x="924.3" y="501.4679">[for all SystemUser in Iterable]</text><polygon fill="#181818" points="1252.35,523.7086,1261.35,527.3086,1252.35,530.9086,1255.95,527.3086" style="stroke:#181818;stroke-width:0.9;"/><line style="stroke:#181818;stroke-width:0.9;" x1="909" x2="1257.75" y1="527.3086" y2="527.3086"/><text fill="#000000" font-family="sans-serif" font-size="11.7" font-weight="bold" lengthAdjust="spacing" textLength="12.6" x="915.3" y="522.5722">15</text><text fill="#000000" font-family="sans-serif" font-size="11.7" lengthAdjust="spacing" textLength="103.5" x="931.5" y="522.5722">SystemUser.toDto()</text><polygon fill="#181818" points="1505.25,551.8705,1514.25,555.4705,1505.25,559.0705,1508.85,555.4705" style="stroke:#181818;stroke-width:0.9;"/><line style="stroke:#181818;stroke-width:0.9;" x1="1272.15" x2="1510.65" y1="555.4705" y2="555.4705"/><text fill="#000000" font-family="sans-serif" font-size="11.7" font-weight="bold" lengthAdjust="spacing" textLength="12.6" x="1278.45" y="550.7341">16</text><text fill="#000000" font-family="sans-serif" font-size="11.7" lengthAdjust="spacing" textLength="71.1" x="1294.65" y="550.7341">create("user")</text><polygon fill="#181818" points="1505.25,580.0324,1514.25,583.6324,1505.25,587.2324,1508.85,583.6324" style="stroke:#181818;stroke-width:0.9;"/><line style="stroke:#181818;stroke-width:0.9;" x1="1272.15" x2="1510.65" y1="583.6324" y2="583.6324"/><text fill="#000000" font-family="sans-serif" font-size="11.7" font-weight="bold" lengthAdjust="spacing" textLength="12.6" x="1278.45" y="578.896">17</text><text fill="#000000" font-family="sans-serif" font-size="11.7" lengthAdjust="spacing" textLength="197.1" x="1294.65" y="578.896">put("username", username.toString());</text><polygon fill="#181818" points="1505.25,608.1943,1514.25,611.7943,1505.25,615.3943,1508.85,611.7943" style="stroke:#181818;stroke-width:0.9;"/><line style="stroke:#181818;stroke-width:0.9;" x1="1272.15" x2="1510.65" y1="611.7943" y2="611.7943"/><text fill="#000000" font-family="sans-serif" font-size="11.7" font-weight="bold" lengthAdjust="spacing" textLength="12.6" x="1278.45" y="607.0579">18</text><text fill="#000000" font-family="sans-serif" font-size="11.7" lengthAdjust="spacing" textLength="152.1" x="1294.65" y="607.0579">put("name", name.toString());</text><polygon fill="#181818" points="1505.25,636.3563,1514.25,639.9563,1505.25,643.5563,1508.85,639.9563" style="stroke:#181818;stroke-width:0.9;"/><line style="stroke:#181818;stroke-width:0.9;" x1="1272.15" x2="1510.65" y1="639.9563" y2="639.9563"/><text fill="#000000" font-family="sans-serif" font-size="11.7" font-weight="bold" lengthAdjust="spacing" textLength="12.6" x="1278.45" y="635.2198">19</text><text fill="#000000" font-family="sans-serif" font-size="11.7" lengthAdjust="spacing" textLength="150.3" x="1294.65" y="635.2198">put("email", email.toString());</text><polygon fill="#181818" points="1509.75,664.5182,1518.75,668.1182,1509.75,671.7182,1513.35,668.1182" style="stroke:#181818;stroke-width:0.9;"/><line style="stroke:#181818;stroke-width:0.9;" x1="1272.15" x2="1515.15" y1="668.1182" y2="668.1182"/><text fill="#000000" font-family="sans-serif" font-size="11.7" font-weight="bold" lengthAdjust="spacing" textLength="12.6" x="1278.45" y="663.3817">20</text><text fill="#000000" font-family="sans-serif" font-size="11.7" lengthAdjust="spacing" textLength="206.1" x="1294.65" y="663.3817">put("roles", roles.roleTypes().toString());</text><polygon fill="#181818" points="918.9,692.6801,909.9,696.2801,918.9,699.8801,915.3,696.2801" style="stroke:#181818;stroke-width:0.9;"/><line style="stroke:#181818;stroke-width:0.9;" x1="913.5" x2="1266.75" y1="696.2801" y2="696.2801"/><text fill="#000000" font-family="sans-serif" font-size="11.7" font-weight="bold" lengthAdjust="spacing" textLength="12.6" x="924.3" y="691.5437">21</text><text fill="#000000" font-family="sans-serif" font-size="11.7" lengthAdjust="spacing" textLength="63.9" x="940.5" y="691.5437">GeneralDTO</text><polygon fill="#181818" points="296.55,727.142,287.55,730.742,296.55,734.342,292.95,730.742" style="stroke:#181818;stroke-width:0.9;"/><line style="stroke:#181818;stroke-width:0.9;" x1="291.15" x2="903.6" y1="730.742" y2="730.742"/><text fill="#000000" font-family="sans-serif" font-size="11.7" font-weight="bold" lengthAdjust="spacing" textLength="12.6" x="301.95" y="726.0056">22</text><text fill="#000000" font-family="sans-serif" font-size="11.7" lengthAdjust="spacing" textLength="69.3" x="318.15" y="726.0056">listUsersDTO</text><polygon fill="#181818" points="178.2,755.3039,169.2,758.9039,178.2,762.5039,174.6,758.9039" style="stroke:#181818;stroke-width:0.9;"/><line style="stroke:#181818;stroke-width:0.9;" x1="172.8" x2="281.25" y1="758.9039" y2="758.9039"/><text fill="#000000" font-family="sans-serif" font-size="11.7" font-weight="bold" lengthAdjust="spacing" textLength="12.6" x="183.6" y="754.1675">23</text><text fill="#000000" font-family="sans-serif" font-size="11.7" lengthAdjust="spacing" textLength="69.3" x="199.8" y="754.1675">listUsersDTO</text><polygon fill="#181818" points="42.3,783.4658,33.3,787.0658,42.3,790.6658,38.7,787.0658" style="stroke:#181818;stroke-width:0.9;"/><line style="stroke:#181818;stroke-width:0.9;" x1="36.9" x2="162.9" y1="787.0658" y2="787.0658"/><text fill="#000000" font-family="sans-serif" font-size="11.7" font-weight="bold" lengthAdjust="spacing" textLength="12.6" x="47.7" y="782.3294">24</text><text fill="#000000" font-family="sans-serif" font-size="11.7" lengthAdjust="spacing" textLength="84.6" x="63.9" y="782.3294">shows list users</text><!--SRC=[ZLJRZjem47ttLrYy5AG5tbCKYNRHTgLkgSAoVQnCCe0bnqvzeOAlxzYvcTjkNvBOSuvdSivuFksjhKmodLQ2IUjACSbLEJNmnu7COLnmjjEi98GvgwGhDw0lldEhD7rXakrmMJ5jUSuhF8eEldDZrmQqMJyFA3FKSJgRLHeCICiiLp9Dxn2-Accr4W9q8EPM2wIogX8ylyMSExjNcfz2R0Nwm7FmH2nqltgxefvnswGHpJIV7wKyPR13jZwskTvb-2IrJYKA4ALpTU16eJ5zTJGMIdz8A75D4Lseal5Bu1D8q4mylYuziB3A8t7bVxnWbcsOWL1C1fKo7EqxjbNW3c9rj-yffF6MZiUfjp3f5FFUymEpqDdVRJXE48e4Rrr2SmsusuVzBY71LiHuvPBmlFHmEEevFaw2oDsnVdKY1PnZedMTn_5nMXC4LZuN8lHOV7R0nUMW5ma5QPm6RpJwvKs1mZE_CJENn-Ls-0M5p9G0C_cv_BN8VgzNY-o1zhilyn_pfqKswavk-weJv3fmhy86GLfa9vlhM_UkMWsf0H_oAyaQm3ZjMn7LlL565oSzqhT5qpi9tN9POFsN70oI5jJWspJF5hjr8s3MDtWQ5nZJkuIzOFz3hoicGgcARd5QuP_5rudBxfHONxnYIGIRMFLerPadQu8OHE8TQoqT3dp2GOJ2O0ohdAqnafKmUA3j9nw_ifhBtN0q-dn5QC0V0m47Wa1aUByFrRv94HhU4_zyFLQ0Tf_J8YtxN-drxwTDZ4HfG1RKAnv96jgzxl7GMPUafiVRMn66pJrmkBBrZ6ccJqBDNlqrWH5aDMTzmEDLEx3-0G00]--></g></svg>