<?xml version="1.0" encoding="us-ascii" standalone="no"?><svg xmlns="http://www.w3.org/2000/svg" xmlns:xlink="http://www.w3.org/1999/xlink" contentStyleType="text/css" height="1461px" preserveAspectRatio="none" style="width:2587px;height:1461px;background:#FFFFFF;" version="1.1" viewBox="0 0 2587 1461" width="2587px" zoomAndPan="magnify"><defs/><g><rect fill="#FFFFFF" height="1254.6406" style="stroke:#181818;stroke-width:1.0;" width="10" x="96" y="98.2422"/><rect fill="#FFFFFF" height="563.2383" style="stroke:#181818;stroke-width:1.0;" width="10" x="395" y="121.5332"/><rect fill="#FFFFFF" height="627.8203" style="stroke:#181818;stroke-width:1.0;" width="10" x="395" y="716.0625"/><rect fill="#FFFFFF" height="62.582" style="stroke:#181818;stroke-width:1.0;" width="10" x="561.5" y="152.8242"/><rect fill="#FFFFFF" height="62.582" style="stroke:#181818;stroke-width:1.0;" width="10" x="561.5" y="340.5703"/><rect fill="#FFFFFF" height="62.582" style="stroke:#181818;stroke-width:1.0;" width="10" x="561.5" y="528.3164"/><rect fill="#FFFFFF" height="62.582" style="stroke:#181818;stroke-width:1.0;" width="10" x="704.5" y="246.6973"/><rect fill="#FFFFFF" height="62.582" style="stroke:#181818;stroke-width:1.0;" width="10" x="704.5" y="434.4434"/><rect fill="#FFFFFF" height="62.582" style="stroke:#181818;stroke-width:1.0;" width="10" x="704.5" y="622.1895"/><rect fill="#FFFFFF" height="31.291" style="stroke:#181818;stroke-width:1.0;" width="10" x="830" y="747.3535"/><rect fill="#FFFFFF" height="31.291" style="stroke:#181818;stroke-width:1.0;" width="10" x="962" y="809.9355"/><rect fill="#FFFFFF" height="31.291" style="stroke:#181818;stroke-width:1.0;" width="10" x="1090" y="872.5176"/><rect fill="#FFFFFF" height="31.291" style="stroke:#181818;stroke-width:1.0;" width="10" x="1210" y="935.0996"/><rect fill="#FFFFFF" height="31.291" style="stroke:#181818;stroke-width:1.0;" width="10" x="1337.5" y="997.6816"/><rect fill="#FFFFFF" height="226.0371" style="stroke:#181818;stroke-width:1.0;" width="10" x="1686" y="1086.5547"/><rect fill="#FFFFFF" height="108.873" style="stroke:#181818;stroke-width:1.0;" width="10" x="2119" y="1180.4277"/><rect fill="#FFFFFF" height="31.291" style="stroke:#181818;stroke-width:1.0;" width="10" x="2436" y="1211.7188"/><rect fill="none" height="238.3281" style="stroke:#000000;stroke-width:1.5;" width="2280" x="301.5" y="1043.9727"/><line style="stroke:#181818;stroke-width:0.5;stroke-dasharray:5.0,5.0;" x1="101" x2="101" y1="88.2422" y2="1361.8828"/><line style="stroke:#181818;stroke-width:0.5;stroke-dasharray:5.0,5.0;" x1="399.5" x2="399.5" y1="88.2422" y2="1361.8828"/><line style="stroke:#181818;stroke-width:0.5;stroke-dasharray:5.0,5.0;" x1="566.5" x2="566.5" y1="88.2422" y2="1361.8828"/><line style="stroke:#181818;stroke-width:0.5;stroke-dasharray:5.0,5.0;" x1="709.5" x2="709.5" y1="88.2422" y2="1361.8828"/><line style="stroke:#181818;stroke-width:0.5;stroke-dasharray:5.0,5.0;" x1="834.5" x2="834.5" y1="88.2422" y2="1361.8828"/><line style="stroke:#181818;stroke-width:0.5;stroke-dasharray:5.0,5.0;" x1="966.5" x2="966.5" y1="88.2422" y2="1361.8828"/><line style="stroke:#181818;stroke-width:0.5;stroke-dasharray:5.0,5.0;" x1="1094.5" x2="1094.5" y1="88.2422" y2="1361.8828"/><line style="stroke:#181818;stroke-width:0.5;stroke-dasharray:5.0,5.0;" x1="1214.5" x2="1214.5" y1="88.2422" y2="1361.8828"/><line style="stroke:#181818;stroke-width:0.5;stroke-dasharray:5.0,5.0;" x1="1342.5" x2="1342.5" y1="88.2422" y2="1361.8828"/><line style="stroke:#181818;stroke-width:0.5;stroke-dasharray:5.0,5.0;" x1="1466.5" x2="1466.5" y1="88.2422" y2="1361.8828"/><line style="stroke:#181818;stroke-width:0.5;stroke-dasharray:5.0,5.0;" x1="1690.5" x2="1690.5" y1="88.2422" y2="1361.8828"/><line style="stroke:#181818;stroke-width:0.5;stroke-dasharray:5.0,5.0;" x1="2123.5" x2="2123.5" y1="88.2422" y2="1361.8828"/><line style="stroke:#181818;stroke-width:0.5;stroke-dasharray:5.0,5.0;" x1="2440.5" x2="2440.5" y1="88.2422" y2="1361.8828"/><rect fill="#E2E2F0" height="51.2422" rx="2.5" ry="2.5" style="stroke:#181818;stroke-width:0.5;" width="192" x="5" y="36"/><text fill="#000000" font-family="sans-serif" font-size="14" font-style="italic" lengthAdjust="spacing" textLength="85" x="58.5" y="58.1074">&#171;Application&#187;</text><text fill="#000000" font-family="sans-serif" font-size="14" lengthAdjust="spacing" textLength="178" x="12" y="76.7285">ListTeacherExamsController</text><rect fill="#E2E2F0" height="51.2422" rx="2.5" ry="2.5" style="stroke:#181818;stroke-width:0.5;" width="192" x="5" y="1360.8828"/><text fill="#000000" font-family="sans-serif" font-size="14" font-style="italic" lengthAdjust="spacing" textLength="85" x="58.5" y="1382.9902">&#171;Application&#187;</text><text fill="#000000" font-family="sans-serif" font-size="14" lengthAdjust="spacing" textLength="178" x="12" y="1401.6113">ListTeacherExamsController</text><rect fill="#E2E2F0" height="51.2422" rx="2.5" ry="2.5" style="stroke:#181818;stroke-width:0.5;" width="177" x="311.5" y="36"/><text fill="#000000" font-family="sans-serif" font-size="14" font-style="italic" lengthAdjust="spacing" textLength="62" x="369" y="58.1074">&#171;Service&#187;</text><text fill="#000000" font-family="sans-serif" font-size="14" lengthAdjust="spacing" textLength="163" x="318.5" y="76.7285">ListTeacherExamsService</text><rect fill="#E2E2F0" height="51.2422" rx="2.5" ry="2.5" style="stroke:#181818;stroke-width:0.5;" width="177" x="311.5" y="1360.8828"/><text fill="#000000" font-family="sans-serif" font-size="14" font-style="italic" lengthAdjust="spacing" textLength="62" x="369" y="1382.9902">&#171;Service&#187;</text><text fill="#000000" font-family="sans-serif" font-size="14" lengthAdjust="spacing" textLength="163" x="318.5" y="1401.6113">ListTeacherExamsService</text><rect fill="#E2E2F0" height="51.2422" rx="2.5" ry="2.5" style="stroke:#181818;stroke-width:0.5;" width="136" x="498.5" y="36"/><text fill="#000000" font-family="sans-serif" font-size="14" font-style="italic" lengthAdjust="spacing" textLength="89" x="522" y="58.1074">&#171;persistence&#187;</text><text fill="#000000" font-family="sans-serif" font-size="14" lengthAdjust="spacing" textLength="122" x="505.5" y="76.7285">PersistenceContext</text><rect fill="#E2E2F0" height="51.2422" rx="2.5" ry="2.5" style="stroke:#181818;stroke-width:0.5;" width="136" x="498.5" y="1360.8828"/><text fill="#000000" font-family="sans-serif" font-size="14" font-style="italic" lengthAdjust="spacing" textLength="89" x="522" y="1382.9902">&#171;persistence&#187;</text><text fill="#000000" font-family="sans-serif" font-size="14" lengthAdjust="spacing" textLength="122" x="505.5" y="1401.6113">PersistenceContext</text><rect fill="#E2E2F0" height="51.2422" rx="2.5" ry="2.5" style="stroke:#181818;stroke-width:0.5;" width="130" x="644.5" y="36"/><text fill="#000000" font-family="sans-serif" font-size="14" font-style="italic" lengthAdjust="spacing" textLength="59" x="680" y="58.1074">&#171;factory&#187;</text><text fill="#000000" font-family="sans-serif" font-size="14" lengthAdjust="spacing" textLength="116" x="651.5" y="76.7285">RepositoryFactory</text><rect fill="#E2E2F0" height="51.2422" rx="2.5" ry="2.5" style="stroke:#181818;stroke-width:0.5;" width="130" x="644.5" y="1360.8828"/><text fill="#000000" font-family="sans-serif" font-size="14" font-style="italic" lengthAdjust="spacing" textLength="59" x="680" y="1382.9902">&#171;factory&#187;</text><text fill="#000000" font-family="sans-serif" font-size="14" lengthAdjust="spacing" textLength="116" x="651.5" y="1401.6113">RepositoryFactory</text><rect fill="#E2E2F0" height="51.2422" rx="2.5" ry="2.5" style="stroke:#181818;stroke-width:0.5;" width="101" x="784.5" y="36"/><text fill="#000000" font-family="sans-serif" font-size="14" font-style="italic" lengthAdjust="spacing" textLength="84" x="793" y="58.1074">&#171;application&#187;</text><text fill="#000000" font-family="sans-serif" font-size="14" lengthAdjust="spacing" textLength="87" x="791.5" y="76.7285">AuthzRegistry</text><rect fill="#E2E2F0" height="51.2422" rx="2.5" ry="2.5" style="stroke:#181818;stroke-width:0.5;" width="101" x="784.5" y="1360.8828"/><text fill="#000000" font-family="sans-serif" font-size="14" font-style="italic" lengthAdjust="spacing" textLength="84" x="793" y="1382.9902">&#171;application&#187;</text><text fill="#000000" font-family="sans-serif" font-size="14" lengthAdjust="spacing" textLength="87" x="791.5" y="1401.6113">AuthzRegistry</text><rect fill="#E2E2F0" height="51.2422" rx="2.5" ry="2.5" style="stroke:#181818;stroke-width:0.5;" width="143" x="895.5" y="36"/><text fill="#000000" font-family="sans-serif" font-size="14" font-style="italic" lengthAdjust="spacing" textLength="84" x="925" y="58.1074">&#171;application&#187;</text><text fill="#000000" font-family="sans-serif" font-size="14" lengthAdjust="spacing" textLength="129" x="902.5" y="76.7285">AuthorizationService</text><rect fill="#E2E2F0" height="51.2422" rx="2.5" ry="2.5" style="stroke:#181818;stroke-width:0.5;" width="143" x="895.5" y="1360.8828"/><text fill="#000000" font-family="sans-serif" font-size="14" font-style="italic" lengthAdjust="spacing" textLength="84" x="925" y="1382.9902">&#171;application&#187;</text><text fill="#000000" font-family="sans-serif" font-size="14" lengthAdjust="spacing" textLength="129" x="902.5" y="1401.6113">AuthorizationService</text><rect fill="#E2E2F0" height="51.2422" rx="2.5" ry="2.5" style="stroke:#181818;stroke-width:0.5;" width="93" x="1048.5" y="36"/><text fill="#000000" font-family="sans-serif" font-size="14" font-style="italic" lengthAdjust="spacing" textLength="64" x="1063" y="58.1074">&#171;Domain&#187;</text><text fill="#000000" font-family="sans-serif" font-size="14" lengthAdjust="spacing" textLength="79" x="1055.5" y="76.7285">UserSession</text><rect fill="#E2E2F0" height="51.2422" rx="2.5" ry="2.5" style="stroke:#181818;stroke-width:0.5;" width="93" x="1048.5" y="1360.8828"/><text fill="#000000" font-family="sans-serif" font-size="14" font-style="italic" lengthAdjust="spacing" textLength="64" x="1063" y="1382.9902">&#171;Domain&#187;</text><text fill="#000000" font-family="sans-serif" font-size="14" lengthAdjust="spacing" textLength="79" x="1055.5" y="1401.6113">UserSession</text><text fill="#000000" font-family="sans-serif" font-size="14" font-style="italic" lengthAdjust="spacing" textLength="84" x="1170" y="66.1074">&#171;Repository&#187;</text><text fill="#000000" font-family="sans-serif" font-size="14" lengthAdjust="spacing" textLength="121" x="1151.5" y="84.7285">TeacherRepository</text><path d="M1197,15 C1197,5 1215,5 1215,5 C1215,5 1233,5 1233,15 L1233,41 C1233,51 1215,51 1215,51 C1215,51 1197,51 1197,41 L1197,15 " fill="#E2E2F0" style="stroke:#181818;stroke-width:1.5;"/><path d="M1197,15 C1197,25 1215,25 1215,25 C1215,25 1233,25 1233,15 " fill="none" style="stroke:#181818;stroke-width:1.5;"/><text fill="#000000" font-family="sans-serif" font-size="14" font-style="italic" lengthAdjust="spacing" textLength="84" x="1170" y="1375.9902">&#171;Repository&#187;</text><text fill="#000000" font-family="sans-serif" font-size="14" lengthAdjust="spacing" textLength="121" x="1151.5" y="1394.6113">TeacherRepository</text><path d="M1197,1408.125 C1197,1398.125 1215,1398.125 1215,1398.125 C1215,1398.125 1233,1398.125 1233,1408.125 L1233,1434.125 C1233,1444.125 1215,1444.125 1215,1444.125 C1215,1444.125 1197,1444.125 1197,1434.125 L1197,1408.125 " fill="#E2E2F0" style="stroke:#181818;stroke-width:1.5;"/><path d="M1197,1408.125 C1197,1418.125 1215,1418.125 1215,1418.125 C1215,1418.125 1233,1418.125 1233,1408.125 " fill="none" style="stroke:#181818;stroke-width:1.5;"/><text fill="#000000" font-family="sans-serif" font-size="14" font-style="italic" lengthAdjust="spacing" textLength="84" x="1297.5" y="66.1074">&#171;Repository&#187;</text><text fill="#000000" font-family="sans-serif" font-size="14" lengthAdjust="spacing" textLength="102" x="1288.5" y="84.7285">ExamRepository</text><path d="M1324.5,15 C1324.5,5 1342.5,5 1342.5,5 C1342.5,5 1360.5,5 1360.5,15 L1360.5,41 C1360.5,51 1342.5,51 1342.5,51 C1342.5,51 1324.5,51 1324.5,41 L1324.5,15 " fill="#E2E2F0" style="stroke:#181818;stroke-width:1.5;"/><path d="M1324.5,15 C1324.5,25 1342.5,25 1342.5,25 C1342.5,25 1360.5,25 1360.5,15 " fill="none" style="stroke:#181818;stroke-width:1.5;"/><text fill="#000000" font-family="sans-serif" font-size="14" font-style="italic" lengthAdjust="spacing" textLength="84" x="1297.5" y="1375.9902">&#171;Repository&#187;</text><text fill="#000000" font-family="sans-serif" font-size="14" lengthAdjust="spacing" textLength="102" x="1288.5" y="1394.6113">ExamRepository</text><path d="M1324.5,1408.125 C1324.5,1398.125 1342.5,1398.125 1342.5,1398.125 C1342.5,1398.125 1360.5,1398.125 1360.5,1408.125 L1360.5,1434.125 C1360.5,1444.125 1342.5,1444.125 1342.5,1444.125 C1342.5,1444.125 1324.5,1444.125 1324.5,1434.125 L1324.5,1408.125 " fill="#E2E2F0" style="stroke:#181818;stroke-width:1.5;"/><path d="M1324.5,1408.125 C1324.5,1418.125 1342.5,1418.125 1342.5,1418.125 C1342.5,1418.125 1360.5,1418.125 1360.5,1408.125 " fill="none" style="stroke:#181818;stroke-width:1.5;"/><text fill="#000000" font-family="sans-serif" font-size="14" font-style="italic" lengthAdjust="spacing" textLength="84" x="1421.5" y="66.1074">&#171;Repository&#187;</text><text fill="#000000" font-family="sans-serif" font-size="14" lengthAdjust="spacing" textLength="114" x="1406.5" y="84.7285">CourseRepository</text><path d="M1448.5,15 C1448.5,5 1466.5,5 1466.5,5 C1466.5,5 1484.5,5 1484.5,15 L1484.5,41 C1484.5,51 1466.5,51 1466.5,51 C1466.5,51 1448.5,51 1448.5,41 L1448.5,15 " fill="#E2E2F0" style="stroke:#181818;stroke-width:1.5;"/><path d="M1448.5,15 C1448.5,25 1466.5,25 1466.5,25 C1466.5,25 1484.5,25 1484.5,15 " fill="none" style="stroke:#181818;stroke-width:1.5;"/><text fill="#000000" font-family="sans-serif" font-size="14" font-style="italic" lengthAdjust="spacing" textLength="84" x="1421.5" y="1375.9902">&#171;Repository&#187;</text><text fill="#000000" font-family="sans-serif" font-size="14" lengthAdjust="spacing" textLength="114" x="1406.5" y="1394.6113">CourseRepository</text><path d="M1448.5,1408.125 C1448.5,1398.125 1466.5,1398.125 1466.5,1398.125 C1466.5,1398.125 1484.5,1398.125 1484.5,1408.125 L1484.5,1434.125 C1484.5,1444.125 1466.5,1444.125 1466.5,1444.125 C1466.5,1444.125 1448.5,1444.125 1448.5,1434.125 L1448.5,1408.125 " fill="#E2E2F0" style="stroke:#181818;stroke-width:1.5;"/><path d="M1448.5,1408.125 C1448.5,1418.125 1466.5,1418.125 1466.5,1418.125 C1466.5,1418.125 1484.5,1418.125 1484.5,1408.125 " fill="none" style="stroke:#181818;stroke-width:1.5;"/><rect fill="#E2E2F0" height="51.2422" rx="2.5" ry="2.5" style="stroke:#181818;stroke-width:0.5;" width="309" x="1536.5" y="36"/><text fill="#000000" font-family="sans-serif" font-size="14" font-style="italic" lengthAdjust="spacing" textLength="46" x="1668" y="58.1074">&#171;DTO&#187;</text><text fill="#000000" font-family="sans-serif" font-size="14" lengthAdjust="spacing" textLength="295" x="1543.5" y="76.7285">ExamDTOWithDatesExamTitleCourseIdMapper</text><rect fill="#E2E2F0" height="51.2422" rx="2.5" ry="2.5" style="stroke:#181818;stroke-width:0.5;" width="309" x="1536.5" y="1360.8828"/><text fill="#000000" font-family="sans-serif" font-size="14" font-style="italic" lengthAdjust="spacing" textLength="46" x="1668" y="1382.9902">&#171;DTO&#187;</text><text fill="#000000" font-family="sans-serif" font-size="14" lengthAdjust="spacing" textLength="295" x="1543.5" y="1401.6113">ExamDTOWithDatesExamTitleCourseIdMapper</text><rect fill="#E2E2F0" height="51.2422" rx="2.5" ry="2.5" style="stroke:#181818;stroke-width:0.5;" width="305" x="1971.5" y="36"/><text fill="#000000" font-family="sans-serif" font-size="14" font-style="italic" lengthAdjust="spacing" textLength="46" x="2101" y="58.1074">&#171;DTO&#187;</text><text fill="#000000" font-family="sans-serif" font-size="14" lengthAdjust="spacing" textLength="291" x="1978.5" y="76.7285">ExamDTOWithDatesExamTitleCourseIdBuilder</text><rect fill="#E2E2F0" height="51.2422" rx="2.5" ry="2.5" style="stroke:#181818;stroke-width:0.5;" width="305" x="1971.5" y="1360.8828"/><text fill="#000000" font-family="sans-serif" font-size="14" font-style="italic" lengthAdjust="spacing" textLength="46" x="2101" y="1382.9902">&#171;DTO&#187;</text><text fill="#000000" font-family="sans-serif" font-size="14" lengthAdjust="spacing" textLength="291" x="1978.5" y="1401.6113">ExamDTOWithDatesExamTitleCourseIdBuilder</text><rect fill="#E2E2F0" height="51.2422" rx="2.5" ry="2.5" style="stroke:#181818;stroke-width:0.5;" width="261" x="2310.5" y="36"/><text fill="#000000" font-family="sans-serif" font-size="14" font-style="italic" lengthAdjust="spacing" textLength="46" x="2418" y="58.1074">&#171;DTO&#187;</text><text fill="#000000" font-family="sans-serif" font-size="14" lengthAdjust="spacing" textLength="247" x="2317.5" y="76.7285">ExamDTOWithDatesExamTitleCourseId</text><rect fill="#E2E2F0" height="51.2422" rx="2.5" ry="2.5" style="stroke:#181818;stroke-width:0.5;" width="261" x="2310.5" y="1360.8828"/><text fill="#000000" font-family="sans-serif" font-size="14" font-style="italic" lengthAdjust="spacing" textLength="46" x="2418" y="1382.9902">&#171;DTO&#187;</text><text fill="#000000" font-family="sans-serif" font-size="14" lengthAdjust="spacing" textLength="247" x="2317.5" y="1401.6113">ExamDTOWithDatesExamTitleCourseId</text><rect fill="#FFFFFF" height="1254.6406" style="stroke:#181818;stroke-width:1.0;" width="10" x="96" y="98.2422"/><rect fill="#FFFFFF" height="563.2383" style="stroke:#181818;stroke-width:1.0;" width="10" x="395" y="121.5332"/><rect fill="#FFFFFF" height="627.8203" style="stroke:#181818;stroke-width:1.0;" width="10" x="395" y="716.0625"/><rect fill="#FFFFFF" height="62.582" style="stroke:#181818;stroke-width:1.0;" width="10" x="561.5" y="152.8242"/><rect fill="#FFFFFF" height="62.582" style="stroke:#181818;stroke-width:1.0;" width="10" x="561.5" y="340.5703"/><rect fill="#FFFFFF" height="62.582" style="stroke:#181818;stroke-width:1.0;" width="10" x="561.5" y="528.3164"/><rect fill="#FFFFFF" height="62.582" style="stroke:#181818;stroke-width:1.0;" width="10" x="704.5" y="246.6973"/><rect fill="#FFFFFF" height="62.582" style="stroke:#181818;stroke-width:1.0;" width="10" x="704.5" y="434.4434"/><rect fill="#FFFFFF" height="62.582" style="stroke:#181818;stroke-width:1.0;" width="10" x="704.5" y="622.1895"/><rect fill="#FFFFFF" height="31.291" style="stroke:#181818;stroke-width:1.0;" width="10" x="830" y="747.3535"/><rect fill="#FFFFFF" height="31.291" style="stroke:#181818;stroke-width:1.0;" width="10" x="962" y="809.9355"/><rect fill="#FFFFFF" height="31.291" style="stroke:#181818;stroke-width:1.0;" width="10" x="1090" y="872.5176"/><rect fill="#FFFFFF" height="31.291" style="stroke:#181818;stroke-width:1.0;" width="10" x="1210" y="935.0996"/><rect fill="#FFFFFF" height="31.291" style="stroke:#181818;stroke-width:1.0;" width="10" x="1337.5" y="997.6816"/><rect fill="#FFFFFF" height="226.0371" style="stroke:#181818;stroke-width:1.0;" width="10" x="1686" y="1086.5547"/><rect fill="#FFFFFF" height="108.873" style="stroke:#181818;stroke-width:1.0;" width="10" x="2119" y="1180.4277"/><rect fill="#FFFFFF" height="31.291" style="stroke:#181818;stroke-width:1.0;" width="10" x="2436" y="1211.7188"/><polygon fill="#181818" points="383,117.5332,393,121.5332,383,125.5332,387,121.5332" style="stroke:#181818;stroke-width:1.0;"/><line style="stroke:#181818;stroke-width:1.0;" x1="106" x2="389" y1="121.5332" y2="121.5332"/><text fill="#000000" font-family="sans-serif" font-size="13" font-weight="bold" lengthAdjust="spacing" textLength="7" x="113" y="116.2705">1</text><text fill="#000000" font-family="sans-serif" font-size="13" lengthAdjust="spacing" textLength="44" x="124" y="116.2705">create()</text><polygon fill="#181818" points="549.5,148.8242,559.5,152.8242,549.5,156.8242,553.5,152.8242" style="stroke:#181818;stroke-width:1.0;"/><line style="stroke:#181818;stroke-width:1.0;" x1="405" x2="555.5" y1="152.8242" y2="152.8242"/><text fill="#000000" font-family="sans-serif" font-size="13" font-weight="bold" lengthAdjust="spacing" textLength="7" x="412" y="147.5615">2</text><text fill="#000000" font-family="sans-serif" font-size="13" lengthAdjust="spacing" textLength="75" x="423" y="147.5615">repositories()</text><polygon fill="#181818" points="697.5,180.1152,707.5,184.1152,697.5,188.1152,701.5,184.1152" style="stroke:#181818;stroke-width:1.0;"/><line style="stroke:#181818;stroke-width:1.0;" x1="571.5" x2="703.5" y1="184.1152" y2="184.1152"/><text fill="#000000" font-family="sans-serif" font-size="13" font-weight="bold" lengthAdjust="spacing" textLength="7" x="578.5" y="178.8525">3</text><text fill="#000000" font-family="sans-serif" font-size="13" lengthAdjust="spacing" textLength="36" x="589.5" y="178.8525">create</text><polygon fill="#181818" points="416,211.4063,406,215.4063,416,219.4063,412,215.4063" style="stroke:#181818;stroke-width:1.0;"/><line style="stroke:#181818;stroke-width:1.0;stroke-dasharray:2.0,2.0;" x1="410" x2="565.5" y1="215.4063" y2="215.4063"/><text fill="#000000" font-family="sans-serif" font-size="13" font-weight="bold" lengthAdjust="spacing" textLength="7" x="422" y="210.1436">4</text><text fill="#000000" font-family="sans-serif" font-size="13" lengthAdjust="spacing" textLength="39" x="433" y="210.1436">factory</text><polygon fill="#181818" points="692.5,242.6973,702.5,246.6973,692.5,250.6973,696.5,246.6973" style="stroke:#181818;stroke-width:1.0;"/><line style="stroke:#181818;stroke-width:1.0;" x1="405" x2="698.5" y1="246.6973" y2="246.6973"/><text fill="#000000" font-family="sans-serif" font-size="13" font-weight="bold" lengthAdjust="spacing" textLength="7" x="412" y="241.4346">5</text><text fill="#000000" font-family="sans-serif" font-size="13" lengthAdjust="spacing" textLength="113" x="423" y="241.4346">teacherRepository()</text><polygon fill="#181818" points="1203,273.9883,1213,277.9883,1203,281.9883,1207,277.9883" style="stroke:#181818;stroke-width:1.0;"/><line style="stroke:#181818;stroke-width:1.0;" x1="714.5" x2="1209" y1="277.9883" y2="277.9883"/><text fill="#000000" font-family="sans-serif" font-size="13" font-weight="bold" lengthAdjust="spacing" textLength="7" x="721.5" y="272.7256">6</text><text fill="#000000" font-family="sans-serif" font-size="13" lengthAdjust="spacing" textLength="36" x="732.5" y="272.7256">create</text><polygon fill="#181818" points="416,305.2793,406,309.2793,416,313.2793,412,309.2793" style="stroke:#181818;stroke-width:1.0;"/><line style="stroke:#181818;stroke-width:1.0;stroke-dasharray:2.0,2.0;" x1="410" x2="708.5" y1="309.2793" y2="309.2793"/><text fill="#000000" font-family="sans-serif" font-size="13" font-weight="bold" lengthAdjust="spacing" textLength="7" x="422" y="304.0166">7</text><text fill="#000000" font-family="sans-serif" font-size="13" lengthAdjust="spacing" textLength="105" x="433" y="304.0166">teacherRepository</text><polygon fill="#181818" points="549.5,336.5703,559.5,340.5703,549.5,344.5703,553.5,340.5703" style="stroke:#181818;stroke-width:1.0;"/><line style="stroke:#181818;stroke-width:1.0;" x1="405" x2="555.5" y1="340.5703" y2="340.5703"/><text fill="#000000" font-family="sans-serif" font-size="13" font-weight="bold" lengthAdjust="spacing" textLength="7" x="412" y="335.3076">8</text><text fill="#000000" font-family="sans-serif" font-size="13" lengthAdjust="spacing" textLength="75" x="423" y="335.3076">repositories()</text><polygon fill="#181818" points="697.5,367.8613,707.5,371.8613,697.5,375.8613,701.5,371.8613" style="stroke:#181818;stroke-width:1.0;"/><line style="stroke:#181818;stroke-width:1.0;" x1="571.5" x2="703.5" y1="371.8613" y2="371.8613"/><text fill="#000000" font-family="sans-serif" font-size="13" font-weight="bold" lengthAdjust="spacing" textLength="7" x="578.5" y="366.5986">9</text><text fill="#000000" font-family="sans-serif" font-size="13" lengthAdjust="spacing" textLength="36" x="589.5" y="366.5986">create</text><polygon fill="#181818" points="416,399.1523,406,403.1523,416,407.1523,412,403.1523" style="stroke:#181818;stroke-width:1.0;"/><line style="stroke:#181818;stroke-width:1.0;stroke-dasharray:2.0,2.0;" x1="410" x2="565.5" y1="403.1523" y2="403.1523"/><text fill="#000000" font-family="sans-serif" font-size="13" font-weight="bold" lengthAdjust="spacing" textLength="14" x="422" y="397.8896">10</text><text fill="#000000" font-family="sans-serif" font-size="13" lengthAdjust="spacing" textLength="39" x="440" y="397.8896">factory</text><polygon fill="#181818" points="692.5,430.4434,702.5,434.4434,692.5,438.4434,696.5,434.4434" style="stroke:#181818;stroke-width:1.0;"/><line style="stroke:#181818;stroke-width:1.0;" x1="405" x2="698.5" y1="434.4434" y2="434.4434"/><text fill="#000000" font-family="sans-serif" font-size="13" font-weight="bold" lengthAdjust="spacing" textLength="14" x="412" y="429.1807">11</text><text fill="#000000" font-family="sans-serif" font-size="13" lengthAdjust="spacing" textLength="102" x="430" y="429.1807">examRepository()</text><polygon fill="#181818" points="1330.5,461.7344,1340.5,465.7344,1330.5,469.7344,1334.5,465.7344" style="stroke:#181818;stroke-width:1.0;"/><line style="stroke:#181818;stroke-width:1.0;" x1="714.5" x2="1336.5" y1="465.7344" y2="465.7344"/><text fill="#000000" font-family="sans-serif" font-size="13" font-weight="bold" lengthAdjust="spacing" textLength="14" x="721.5" y="460.4717">12</text><text fill="#000000" font-family="sans-serif" font-size="13" lengthAdjust="spacing" textLength="36" x="739.5" y="460.4717">create</text><polygon fill="#181818" points="416,493.0254,406,497.0254,416,501.0254,412,497.0254" style="stroke:#181818;stroke-width:1.0;"/><line style="stroke:#181818;stroke-width:1.0;stroke-dasharray:2.0,2.0;" x1="410" x2="708.5" y1="497.0254" y2="497.0254"/><text fill="#000000" font-family="sans-serif" font-size="13" font-weight="bold" lengthAdjust="spacing" textLength="14" x="422" y="491.7627">13</text><text fill="#000000" font-family="sans-serif" font-size="13" lengthAdjust="spacing" textLength="94" x="440" y="491.7627">examRepository</text><polygon fill="#181818" points="549.5,524.3164,559.5,528.3164,549.5,532.3164,553.5,528.3164" style="stroke:#181818;stroke-width:1.0;"/><line style="stroke:#181818;stroke-width:1.0;" x1="405" x2="555.5" y1="528.3164" y2="528.3164"/><text fill="#000000" font-family="sans-serif" font-size="13" font-weight="bold" lengthAdjust="spacing" textLength="14" x="412" y="523.0537">14</text><text fill="#000000" font-family="sans-serif" font-size="13" lengthAdjust="spacing" textLength="75" x="430" y="523.0537">repositories()</text><polygon fill="#181818" points="697.5,555.6074,707.5,559.6074,697.5,563.6074,701.5,559.6074" style="stroke:#181818;stroke-width:1.0;"/><line style="stroke:#181818;stroke-width:1.0;" x1="571.5" x2="703.5" y1="559.6074" y2="559.6074"/><text fill="#000000" font-family="sans-serif" font-size="13" font-weight="bold" lengthAdjust="spacing" textLength="14" x="578.5" y="554.3447">15</text><text fill="#000000" font-family="sans-serif" font-size="13" lengthAdjust="spacing" textLength="36" x="596.5" y="554.3447">create</text><polygon fill="#181818" points="416,586.8984,406,590.8984,416,594.8984,412,590.8984" style="stroke:#181818;stroke-width:1.0;"/><line style="stroke:#181818;stroke-width:1.0;stroke-dasharray:2.0,2.0;" x1="410" x2="565.5" y1="590.8984" y2="590.8984"/><text fill="#000000" font-family="sans-serif" font-size="13" font-weight="bold" lengthAdjust="spacing" textLength="14" x="422" y="585.6357">16</text><text fill="#000000" font-family="sans-serif" font-size="13" lengthAdjust="spacing" textLength="39" x="440" y="585.6357">factory</text><polygon fill="#181818" points="692.5,618.1895,702.5,622.1895,692.5,626.1895,696.5,622.1895" style="stroke:#181818;stroke-width:1.0;"/><line style="stroke:#181818;stroke-width:1.0;" x1="405" x2="698.5" y1="622.1895" y2="622.1895"/><text fill="#000000" font-family="sans-serif" font-size="13" font-weight="bold" lengthAdjust="spacing" textLength="14" x="412" y="616.9268">17</text><text fill="#000000" font-family="sans-serif" font-size="13" lengthAdjust="spacing" textLength="109" x="430" y="616.9268">courseRepository()</text><polygon fill="#181818" points="1454.5,649.4805,1464.5,653.4805,1454.5,657.4805,1458.5,653.4805" style="stroke:#181818;stroke-width:1.0;"/><line style="stroke:#181818;stroke-width:1.0;" x1="714.5" x2="1460.5" y1="653.4805" y2="653.4805"/><text fill="#000000" font-family="sans-serif" font-size="13" font-weight="bold" lengthAdjust="spacing" textLength="14" x="721.5" y="648.2178">18</text><text fill="#000000" font-family="sans-serif" font-size="13" lengthAdjust="spacing" textLength="36" x="739.5" y="648.2178">create</text><polygon fill="#181818" points="411,680.7715,401,684.7715,411,688.7715,407,684.7715" style="stroke:#181818;stroke-width:1.0;"/><line style="stroke:#181818;stroke-width:1.0;stroke-dasharray:2.0,2.0;" x1="405" x2="708.5" y1="684.7715" y2="684.7715"/><text fill="#000000" font-family="sans-serif" font-size="13" font-weight="bold" lengthAdjust="spacing" textLength="14" x="417" y="679.5088">19</text><text fill="#000000" font-family="sans-serif" font-size="13" lengthAdjust="spacing" textLength="101" x="435" y="679.5088">courseRepository</text><polygon fill="#181818" points="383,712.0625,393,716.0625,383,720.0625,387,716.0625" style="stroke:#181818;stroke-width:1.0;"/><line style="stroke:#181818;stroke-width:1.0;" x1="106" x2="389" y1="716.0625" y2="716.0625"/><text fill="#000000" font-family="sans-serif" font-size="13" font-weight="bold" lengthAdjust="spacing" textLength="14" x="113" y="710.7998">20</text><text fill="#000000" font-family="sans-serif" font-size="13" lengthAdjust="spacing" textLength="112" x="131" y="710.7998">listTeacherExams()</text><polygon fill="#181818" points="818,743.3535,828,747.3535,818,751.3535,822,747.3535" style="stroke:#181818;stroke-width:1.0;"/><line style="stroke:#181818;stroke-width:1.0;" x1="405" x2="824" y1="747.3535" y2="747.3535"/><text fill="#000000" font-family="sans-serif" font-size="13" font-weight="bold" lengthAdjust="spacing" textLength="14" x="412" y="742.0908">21</text><text fill="#000000" font-family="sans-serif" font-size="13" lengthAdjust="spacing" textLength="124" x="430" y="742.0908">authorizationService()</text><polygon fill="#181818" points="416,774.6445,406,778.6445,416,782.6445,412,778.6445" style="stroke:#181818;stroke-width:1.0;"/><line style="stroke:#181818;stroke-width:1.0;" x1="410" x2="834" y1="778.6445" y2="778.6445"/><text fill="#000000" font-family="sans-serif" font-size="13" font-weight="bold" lengthAdjust="spacing" textLength="14" x="422" y="773.3818">22</text><text fill="#000000" font-family="sans-serif" font-size="13" lengthAdjust="spacing" textLength="32" x="440" y="773.3818">authz</text><polygon fill="#181818" points="950,805.9355,960,809.9355,950,813.9355,954,809.9355" style="stroke:#181818;stroke-width:1.0;"/><line style="stroke:#181818;stroke-width:1.0;" x1="405" x2="956" y1="809.9355" y2="809.9355"/><text fill="#000000" font-family="sans-serif" font-size="13" font-weight="bold" lengthAdjust="spacing" textLength="14" x="412" y="804.6729">23</text><text fill="#000000" font-family="sans-serif" font-size="13" lengthAdjust="spacing" textLength="53" x="430" y="804.6729">session()</text><polygon fill="#181818" points="416,837.2266,406,841.2266,416,845.2266,412,841.2266" style="stroke:#181818;stroke-width:1.0;"/><line style="stroke:#181818;stroke-width:1.0;stroke-dasharray:2.0,2.0;" x1="410" x2="966" y1="841.2266" y2="841.2266"/><text fill="#000000" font-family="sans-serif" font-size="13" font-weight="bold" lengthAdjust="spacing" textLength="14" x="422" y="835.9639">24</text><text fill="#000000" font-family="sans-serif" font-size="13" lengthAdjust="spacing" textLength="72" x="440" y="835.9639">userSession</text><polygon fill="#181818" points="1078,868.5176,1088,872.5176,1078,876.5176,1082,872.5176" style="stroke:#181818;stroke-width:1.0;"/><line style="stroke:#181818;stroke-width:1.0;" x1="405" x2="1084" y1="872.5176" y2="872.5176"/><text fill="#000000" font-family="sans-serif" font-size="13" font-weight="bold" lengthAdjust="spacing" textLength="14" x="412" y="867.2549">25</text><text fill="#000000" font-family="sans-serif" font-size="13" lengthAdjust="spacing" textLength="113" x="430" y="867.2549">authenticatedUser()</text><polygon fill="#181818" points="416,899.8086,406,903.8086,416,907.8086,412,903.8086" style="stroke:#181818;stroke-width:1.0;"/><line style="stroke:#181818;stroke-width:1.0;stroke-dasharray:2.0,2.0;" x1="410" x2="1094" y1="903.8086" y2="903.8086"/><text fill="#000000" font-family="sans-serif" font-size="13" font-weight="bold" lengthAdjust="spacing" textLength="14" x="422" y="898.5459">26</text><text fill="#000000" font-family="sans-serif" font-size="13" lengthAdjust="spacing" textLength="70" x="440" y="898.5459">systemUser</text><polygon fill="#181818" points="1198,931.0996,1208,935.0996,1198,939.0996,1202,935.0996" style="stroke:#181818;stroke-width:1.0;"/><line style="stroke:#181818;stroke-width:1.0;" x1="405" x2="1204" y1="935.0996" y2="935.0996"/><text fill="#000000" font-family="sans-serif" font-size="13" font-weight="bold" lengthAdjust="spacing" textLength="14" x="412" y="929.8369">27</text><text fill="#000000" font-family="sans-serif" font-size="13" lengthAdjust="spacing" textLength="232" x="430" y="929.8369">findTeacherBySystemUser(systemUser)</text><polygon fill="#181818" points="416,962.3906,406,966.3906,416,970.3906,412,966.3906" style="stroke:#181818;stroke-width:1.0;"/><line style="stroke:#181818;stroke-width:1.0;stroke-dasharray:2.0,2.0;" x1="410" x2="1214" y1="966.3906" y2="966.3906"/><text fill="#000000" font-family="sans-serif" font-size="13" font-weight="bold" lengthAdjust="spacing" textLength="14" x="422" y="961.1279">28</text><text fill="#000000" font-family="sans-serif" font-size="13" lengthAdjust="spacing" textLength="43" x="440" y="961.1279">teacher</text><polygon fill="#181818" points="1325.5,993.6816,1335.5,997.6816,1325.5,1001.6816,1329.5,997.6816" style="stroke:#181818;stroke-width:1.0;"/><line style="stroke:#181818;stroke-width:1.0;" x1="405" x2="1331.5" y1="997.6816" y2="997.6816"/><text fill="#000000" font-family="sans-serif" font-size="13" font-weight="bold" lengthAdjust="spacing" textLength="14" x="412" y="992.4189">29</text><text fill="#000000" font-family="sans-serif" font-size="13" lengthAdjust="spacing" textLength="158" x="430" y="992.4189">findTeacherExams(teacher)</text><polygon fill="#181818" points="416,1024.9727,406,1028.9727,416,1032.9727,412,1028.9727" style="stroke:#181818;stroke-width:1.0;"/><line style="stroke:#181818;stroke-width:1.0;" x1="410" x2="1341.5" y1="1028.9727" y2="1028.9727"/><text fill="#000000" font-family="sans-serif" font-size="13" font-weight="bold" lengthAdjust="spacing" textLength="14" x="422" y="1023.71">30</text><text fill="#000000" font-family="sans-serif" font-size="13" lengthAdjust="spacing" textLength="58" x="440" y="1023.71">listExams</text><path d="M301.5,1043.9727 L374.5,1043.9727 L374.5,1053.2637 L364.5,1063.2637 L301.5,1063.2637 L301.5,1043.9727 " fill="#EEEEEE" style="stroke:#000000;stroke-width:1.5;"/><rect fill="none" height="238.3281" style="stroke:#000000;stroke-width:1.5;" width="2280" x="301.5" y="1043.9727"/><text fill="#000000" font-family="sans-serif" font-size="13" font-weight="bold" lengthAdjust="spacing" textLength="28" x="316.5" y="1059.001">loop</text><text fill="#000000" font-family="sans-serif" font-size="11" font-weight="bold" lengthAdjust="spacing" textLength="169" x="389.5" y="1057.8428">[foreach exam from listExams]</text><polygon fill="#181818" points="1674,1082.5547,1684,1086.5547,1674,1090.5547,1678,1086.5547" style="stroke:#181818;stroke-width:1.0;"/><line style="stroke:#181818;stroke-width:1.0;" x1="405" x2="1680" y1="1086.5547" y2="1086.5547"/><text fill="#000000" font-family="sans-serif" font-size="13" font-weight="bold" lengthAdjust="spacing" textLength="14" x="412" y="1081.292">31</text><text fill="#000000" font-family="sans-serif" font-size="13" lengthAdjust="spacing" textLength="124" x="430" y="1081.292">toDTO(exam, course)</text><polygon fill="#181818" points="2112,1113.8457,2122,1117.8457,2112,1121.8457,2116,1117.8457" style="stroke:#181818;stroke-width:1.0;"/><line style="stroke:#181818;stroke-width:1.0;" x1="1696" x2="2118" y1="1117.8457" y2="1117.8457"/><text fill="#000000" font-family="sans-serif" font-size="13" font-weight="bold" lengthAdjust="spacing" textLength="14" x="1703" y="1112.583">32</text><text fill="#000000" font-family="sans-serif" font-size="13" lengthAdjust="spacing" textLength="44" x="1721" y="1112.583">create()</text><polygon fill="#181818" points="2112,1145.1367,2122,1149.1367,2112,1153.1367,2116,1149.1367" style="stroke:#181818;stroke-width:1.0;"/><line style="stroke:#181818;stroke-width:1.0;" x1="1696" x2="2118" y1="1149.1367" y2="1149.1367"/><text fill="#000000" font-family="sans-serif" font-size="13" font-weight="bold" lengthAdjust="spacing" textLength="14" x="1703" y="1143.874">33</text><text fill="#000000" font-family="sans-serif" font-size="13" lengthAdjust="spacing" textLength="386" x="1721" y="1143.874">withDatesExamIdCourseId(initialDate,finalDate,examTitle,courseID)</text><polygon fill="#181818" points="2107,1176.4277,2117,1180.4277,2107,1184.4277,2111,1180.4277" style="stroke:#181818;stroke-width:1.0;"/><line style="stroke:#181818;stroke-width:1.0;" x1="1696" x2="2113" y1="1180.4277" y2="1180.4277"/><text fill="#000000" font-family="sans-serif" font-size="13" font-weight="bold" lengthAdjust="spacing" textLength="14" x="1703" y="1175.165">34</text><text fill="#000000" font-family="sans-serif" font-size="13" lengthAdjust="spacing" textLength="35" x="1721" y="1175.165">build()</text><polygon fill="#181818" points="2424,1207.7188,2434,1211.7188,2424,1215.7188,2428,1211.7188" style="stroke:#181818;stroke-width:1.0;"/><line style="stroke:#181818;stroke-width:1.0;" x1="2129" x2="2430" y1="1211.7188" y2="1211.7188"/><text fill="#000000" font-family="sans-serif" font-size="13" font-weight="bold" lengthAdjust="spacing" textLength="14" x="2136" y="1206.4561">35</text><text fill="#000000" font-family="sans-serif" font-size="13" lengthAdjust="spacing" textLength="270" x="2154" y="1206.4561">create(initialDate,finalDate,examTitle,courseID)</text><polygon fill="#181818" points="2140,1239.0098,2130,1243.0098,2140,1247.0098,2136,1243.0098" style="stroke:#181818;stroke-width:1.0;"/><line style="stroke:#181818;stroke-width:1.0;stroke-dasharray:2.0,2.0;" x1="2134" x2="2440" y1="1243.0098" y2="1243.0098"/><text fill="#000000" font-family="sans-serif" font-size="13" font-weight="bold" lengthAdjust="spacing" textLength="14" x="2146" y="1237.7471">36</text><text fill="#000000" font-family="sans-serif" font-size="13" lengthAdjust="spacing" textLength="228" x="2164" y="1237.7471">examDTOWithDatesExamTitleCourseId</text><polygon fill="#181818" points="1707,1270.3008,1697,1274.3008,1707,1278.3008,1703,1274.3008" style="stroke:#181818;stroke-width:1.0;"/><line style="stroke:#181818;stroke-width:1.0;stroke-dasharray:2.0,2.0;" x1="1701" x2="2118" y1="1274.3008" y2="1274.3008"/><text fill="#000000" font-family="sans-serif" font-size="13" font-weight="bold" lengthAdjust="spacing" textLength="14" x="1713" y="1269.0381">37</text><text fill="#000000" font-family="sans-serif" font-size="13" lengthAdjust="spacing" textLength="228" x="1731" y="1269.0381">examDTOWithDatesExamTitleCourseId</text><polygon fill="#181818" points="416,1308.5918,406,1312.5918,416,1316.5918,412,1312.5918" style="stroke:#181818;stroke-width:1.0;"/><line style="stroke:#181818;stroke-width:1.0;stroke-dasharray:2.0,2.0;" x1="410" x2="1690" y1="1312.5918" y2="1312.5918"/><text fill="#000000" font-family="sans-serif" font-size="13" font-weight="bold" lengthAdjust="spacing" textLength="14" x="422" y="1307.3291">38</text><text fill="#000000" font-family="sans-serif" font-size="13" lengthAdjust="spacing" textLength="228" x="440" y="1307.3291">examDTOWithDatesExamTitleCourseId</text><polygon fill="#181818" points="117,1339.8828,107,1343.8828,117,1347.8828,113,1343.8828" style="stroke:#181818;stroke-width:1.0;"/><line style="stroke:#181818;stroke-width:1.0;stroke-dasharray:2.0,2.0;" x1="111" x2="399" y1="1343.8828" y2="1343.8828"/><text fill="#000000" font-family="sans-serif" font-size="13" font-weight="bold" lengthAdjust="spacing" textLength="14" x="123" y="1338.6201">39</text><text fill="#000000" font-family="sans-serif" font-size="13" lengthAdjust="spacing" textLength="247" x="141" y="1338.6201">listExamDTOWithDatesExamTitleCourseId</text><!--SRC=[tPPDRzim38Rl-XL6Byk0Tha7GO2ssO006peqMNTMRROHO5kU97TjV_r8VTYq-f5Wjor0KbdYyvAYABCVzivrTZ6VTxLiNT_KdqhTp2tywg4juQnIyjx8HWZPEztspIqO8Jffd2fLXq1nybLPjmDPxi5yVfIDlTIjCxgkmPmKqXQbCtMnN9vtNQrAwPHkLwlt1RPW7bG9dhPXZ09n5k49_HsCHPvY9SVmw0Zhnbb4sLFc-newRPNJvkcBBEaFmGQwzBHSteLHxlQyT_ldQxX7sG1XUlPeBj_S9X7Qg6U_5ZUJmEtDk-WFpC8MhCKL8dh_YCHQDrAHCNugwUIjj52Sn5IEM_E9T21n1g5n7i61eiIFAmH0c7cJkDIziJ1boZINKzC39sVhtTLFvVPhwS3Iyqwv6eBcflg6kOZb0mrjT7UL5yr1ZOjUrLKKkGtZlrJo4fNJ0-u_M1Vg0UrzWGjVvMUhMAwBeZI0QxEFerbS4gcYprQyIXTKTI5V2Ypdc97WPOtyMAZ9uTG2JOQ0OXsB2bvLPb5nLPVN4eziD1Jiog12gBKX9hx8GteXpeDZulzKnc1oaOvALqGEvcig_JyagypU8KUbQu0E9YoNVoDbR3PTqdIVHwqwQr87hZQzrHV-Dt_dSv3MXUySt1LDFFEel5aclhrP8E5xGgwulH6ngKooqOzT91T7Wia7mn07j8vw4bJKWxYZO2HYBsAE2eph2O-z8O8xYWHp57iILezggvZSYwVjGCz68UOvK2B2hxrHkDTepRmErurv3KSQSUOhsehK3FEAy1ntbm1HQzqLTzgGf9yjxenk6CGZQZ07JcDpcP7bQInS7aSZq0XDOoTZ3IQR_ytRsAPAFMocMkMKh6df53SUHv1wtMbmkLc_4FG3Vl9nHQIcYiRO78U8ZdSqA28ky8j7ENY5GqsP9vtu8HgVpsC4eAqAEYMkbFPcmFMcFK8a6gPZVTzuKYZuB_KV]--></g></svg>