<?xml version="1.0" encoding="us-ascii" standalone="no"?><svg xmlns="http://www.w3.org/2000/svg" xmlns:xlink="http://www.w3.org/1999/xlink" contentStyleType="text/css" height="1375px" preserveAspectRatio="none" style="width:2291px;height:1375px;background:#FFFFFF;" version="1.1" viewBox="0 0 2291 1375" width="2291px" zoomAndPan="magnify"><defs/><g><rect fill="#FFFFFF" height="1169.3984" style="stroke:#181818;stroke-width:1.0;" width="10" x="29.5" y="98.2422"/><rect fill="#FFFFFF" height="1137.1074" style="stroke:#181818;stroke-width:1.0;" width="10" x="423.5" y="121.5332"/><rect fill="#FFFFFF" height="148.4551" style="stroke:#181818;stroke-width:1.0;" width="10" x="773.5" y="152.8242"/><rect fill="#FFFFFF" height="769.6152" style="stroke:#181818;stroke-width:1.0;" width="10" x="773.5" y="457.7344"/><rect fill="#FFFFFF" height="42.9365" style="stroke:#181818;stroke-width:1.0;" width="10" x="957" y="215.4063"/><rect fill="#FFFFFF" height="187.7461" style="stroke:#181818;stroke-width:1.0;" width="10" x="1154.5" y="489.0254"/><rect fill="#FFFFFF" height="487.9961" style="stroke:#181818;stroke-width:1.0;" width="10" x="1154.5" y="708.0625"/><rect fill="#FFFFFF" height="62.582" style="stroke:#181818;stroke-width:1.0;" width="10" x="1324" y="520.3164"/><rect fill="#FFFFFF" height="62.582" style="stroke:#181818;stroke-width:1.0;" width="10" x="1467" y="614.1895"/><rect fill="#FFFFFF" height="31.291" style="stroke:#181818;stroke-width:1.0;" width="10" x="1581" y="739.3535"/><rect fill="#FFFFFF" height="31.291" style="stroke:#181818;stroke-width:1.0;" width="10" x="1694" y="890.8086"/><rect fill="#FFFFFF" height="31.291" style="stroke:#181818;stroke-width:1.0;" width="10" x="1873.5" y="953.3906"/><rect fill="#FFFFFF" height="31.291" style="stroke:#181818;stroke-width:1.0;" width="10" x="2231" y="801.9355"/><rect fill="none" height="286.25" style="stroke:#000000;stroke-width:1.5;" width="1124" x="1058" y="848.2266"/><line style="stroke:#181818;stroke-width:0.5;stroke-dasharray:5.0,5.0;" x1="34" x2="34" y1="88.2422" y2="1276.6406"/><line style="stroke:#181818;stroke-width:0.5;stroke-dasharray:5.0,5.0;" x1="428.5" x2="428.5" y1="88.2422" y2="1276.6406"/><line style="stroke:#181818;stroke-width:0.5;stroke-dasharray:5.0,5.0;" x1="778" x2="778" y1="88.2422" y2="1276.6406"/><line style="stroke:#181818;stroke-width:0.5;stroke-dasharray:5.0,5.0;" x1="962" x2="962" y1="88.2422" y2="1276.6406"/><line style="stroke:#181818;stroke-width:0.5;stroke-dasharray:5.0,5.0;" x1="1159" x2="1159" y1="88.2422" y2="1276.6406"/><line style="stroke:#181818;stroke-width:0.5;stroke-dasharray:5.0,5.0;" x1="1329" x2="1329" y1="88.2422" y2="1276.6406"/><line style="stroke:#181818;stroke-width:0.5;stroke-dasharray:5.0,5.0;" x1="1472" x2="1472" y1="88.2422" y2="1276.6406"/><line style="stroke:#181818;stroke-width:0.5;stroke-dasharray:5.0,5.0;" x1="1586" x2="1586" y1="88.2422" y2="1276.6406"/><line style="stroke:#181818;stroke-width:0.5;stroke-dasharray:5.0,5.0;" x1="1699" x2="1699" y1="88.2422" y2="1276.6406"/><line style="stroke:#181818;stroke-width:0.5;stroke-dasharray:5.0,5.0;" x1="1878" x2="1878" y1="88.2422" y2="1276.6406"/><line style="stroke:#181818;stroke-width:0.5;stroke-dasharray:5.0,5.0;" x1="2039" x2="2039" y1="88.2422" y2="1276.6406"/><line style="stroke:#181818;stroke-width:0.5;stroke-dasharray:5.0,5.0;" x1="2133" x2="2133" y1="88.2422" y2="1276.6406"/><line style="stroke:#181818;stroke-width:0.5;stroke-dasharray:5.0,5.0;" x1="2236" x2="2236" y1="88.2422" y2="1276.6406"/><text fill="#000000" font-family="sans-serif" font-size="14" lengthAdjust="spacing" textLength="53" x="5" y="84.7285">Teacher</text><ellipse cx="34.5" cy="18.1211" fill="#E2E2F0" rx="8" ry="8" style="stroke:#181818;stroke-width:0.5;"/><path d="M34.5,26.1211 L34.5,53.1211 M21.5,34.1211 L47.5,34.1211 M34.5,53.1211 L21.5,68.1211 M34.5,53.1211 L47.5,68.1211 " fill="none" style="stroke:#181818;stroke-width:0.5;"/><text fill="#000000" font-family="sans-serif" font-size="14" lengthAdjust="spacing" textLength="53" x="5" y="1290.748">Teacher</text><ellipse cx="34.5" cy="1302.7617" fill="#E2E2F0" rx="8" ry="8" style="stroke:#181818;stroke-width:0.5;"/><path d="M34.5,1310.7617 L34.5,1337.7617 M21.5,1318.7617 L47.5,1318.7617 M34.5,1337.7617 L21.5,1352.7617 M34.5,1337.7617 L47.5,1352.7617 " fill="none" style="stroke:#181818;stroke-width:0.5;"/><rect fill="#E2E2F0" height="51.2422" rx="2.5" ry="2.5" style="stroke:#181818;stroke-width:0.5;" width="110" x="373.5" y="36"/><text fill="#000000" font-family="sans-serif" font-size="14" font-style="italic" lengthAdjust="spacing" textLength="96" x="380.5" y="58.1074">&#171;Presentation&#187;</text><text fill="#000000" font-family="sans-serif" font-size="14" lengthAdjust="spacing" textLength="91" x="383" y="76.7285">UpdateExamUI</text><rect fill="#E2E2F0" height="51.2422" rx="2.5" ry="2.5" style="stroke:#181818;stroke-width:0.5;" width="110" x="373.5" y="1275.6406"/><text fill="#000000" font-family="sans-serif" font-size="14" font-style="italic" lengthAdjust="spacing" textLength="96" x="380.5" y="1297.748">&#171;Presentation&#187;</text><text fill="#000000" font-family="sans-serif" font-size="14" lengthAdjust="spacing" textLength="91" x="383" y="1316.3691">UpdateExamUI</text><rect fill="#E2E2F0" height="51.2422" rx="2.5" ry="2.5" style="stroke:#181818;stroke-width:0.5;" width="155" x="701" y="36"/><text fill="#000000" font-family="sans-serif" font-size="14" font-style="italic" lengthAdjust="spacing" textLength="85" x="736" y="58.1074">&#171;Application&#187;</text><text fill="#000000" font-family="sans-serif" font-size="14" lengthAdjust="spacing" textLength="141" x="708" y="76.7285">UpdateExamController</text><rect fill="#E2E2F0" height="51.2422" rx="2.5" ry="2.5" style="stroke:#181818;stroke-width:0.5;" width="155" x="701" y="1275.6406"/><text fill="#000000" font-family="sans-serif" font-size="14" font-style="italic" lengthAdjust="spacing" textLength="85" x="736" y="1297.748">&#171;Application&#187;</text><text fill="#000000" font-family="sans-serif" font-size="14" lengthAdjust="spacing" textLength="141" x="708" y="1316.3691">UpdateExamController</text><rect fill="#E2E2F0" height="51.2422" rx="2.5" ry="2.5" style="stroke:#181818;stroke-width:0.5;" width="192" x="866" y="36"/><text fill="#000000" font-family="sans-serif" font-size="14" font-style="italic" lengthAdjust="spacing" textLength="85" x="919.5" y="58.1074">&#171;Application&#187;</text><text fill="#000000" font-family="sans-serif" font-size="14" lengthAdjust="spacing" textLength="178" x="873" y="76.7285">ListTeacherExamsController</text><rect fill="#E2E2F0" height="51.2422" rx="2.5" ry="2.5" style="stroke:#181818;stroke-width:0.5;" width="192" x="866" y="1275.6406"/><text fill="#000000" font-family="sans-serif" font-size="14" font-style="italic" lengthAdjust="spacing" textLength="85" x="919.5" y="1297.748">&#171;Application&#187;</text><text fill="#000000" font-family="sans-serif" font-size="14" lengthAdjust="spacing" textLength="178" x="873" y="1316.3691">ListTeacherExamsController</text><rect fill="#E2E2F0" height="51.2422" rx="2.5" ry="2.5" style="stroke:#181818;stroke-width:0.5;" width="183" x="1068" y="36"/><text fill="#000000" font-family="sans-serif" font-size="14" font-style="italic" lengthAdjust="spacing" textLength="62" x="1128.5" y="58.1074">&#171;Service&#187;</text><text fill="#000000" font-family="sans-serif" font-size="14" lengthAdjust="spacing" textLength="169" x="1075" y="76.7285">CreateUpdateExamService</text><rect fill="#E2E2F0" height="51.2422" rx="2.5" ry="2.5" style="stroke:#181818;stroke-width:0.5;" width="183" x="1068" y="1275.6406"/><text fill="#000000" font-family="sans-serif" font-size="14" font-style="italic" lengthAdjust="spacing" textLength="62" x="1128.5" y="1297.748">&#171;Service&#187;</text><text fill="#000000" font-family="sans-serif" font-size="14" lengthAdjust="spacing" textLength="169" x="1075" y="1316.3691">CreateUpdateExamService</text><rect fill="#E2E2F0" height="51.2422" rx="2.5" ry="2.5" style="stroke:#181818;stroke-width:0.5;" width="136" x="1261" y="36"/><text fill="#000000" font-family="sans-serif" font-size="14" font-style="italic" lengthAdjust="spacing" textLength="89" x="1284.5" y="58.1074">&#171;persistence&#187;</text><text fill="#000000" font-family="sans-serif" font-size="14" lengthAdjust="spacing" textLength="122" x="1268" y="76.7285">PersistenceContext</text><rect fill="#E2E2F0" height="51.2422" rx="2.5" ry="2.5" style="stroke:#181818;stroke-width:0.5;" width="136" x="1261" y="1275.6406"/><text fill="#000000" font-family="sans-serif" font-size="14" font-style="italic" lengthAdjust="spacing" textLength="89" x="1284.5" y="1297.748">&#171;persistence&#187;</text><text fill="#000000" font-family="sans-serif" font-size="14" lengthAdjust="spacing" textLength="122" x="1268" y="1316.3691">PersistenceContext</text><rect fill="#E2E2F0" height="51.2422" rx="2.5" ry="2.5" style="stroke:#181818;stroke-width:0.5;" width="130" x="1407" y="36"/><text fill="#000000" font-family="sans-serif" font-size="14" font-style="italic" lengthAdjust="spacing" textLength="59" x="1442.5" y="58.1074">&#171;factory&#187;</text><text fill="#000000" font-family="sans-serif" font-size="14" lengthAdjust="spacing" textLength="116" x="1414" y="76.7285">RepositoryFactory</text><rect fill="#E2E2F0" height="51.2422" rx="2.5" ry="2.5" style="stroke:#181818;stroke-width:0.5;" width="130" x="1407" y="1275.6406"/><text fill="#000000" font-family="sans-serif" font-size="14" font-style="italic" lengthAdjust="spacing" textLength="59" x="1442.5" y="1297.748">&#171;factory&#187;</text><text fill="#000000" font-family="sans-serif" font-size="14" lengthAdjust="spacing" textLength="116" x="1414" y="1316.3691">RepositoryFactory</text><rect fill="#E2E2F0" height="51.2422" rx="2.5" ry="2.5" style="stroke:#181818;stroke-width:0.5;" width="78" x="1547" y="36"/><text fill="#000000" font-family="sans-serif" font-size="14" font-style="italic" lengthAdjust="spacing" textLength="64" x="1554" y="58.1074">&#171;Domain&#187;</text><text fill="#000000" font-family="sans-serif" font-size="14" lengthAdjust="spacing" textLength="61" x="1555.5" y="76.7285">ExamTitle</text><rect fill="#E2E2F0" height="51.2422" rx="2.5" ry="2.5" style="stroke:#181818;stroke-width:0.5;" width="78" x="1547" y="1275.6406"/><text fill="#000000" font-family="sans-serif" font-size="14" font-style="italic" lengthAdjust="spacing" textLength="64" x="1554" y="1297.748">&#171;Domain&#187;</text><text fill="#000000" font-family="sans-serif" font-size="14" lengthAdjust="spacing" textLength="61" x="1555.5" y="1316.3691">ExamTitle</text><rect fill="#E2E2F0" height="51.2422" rx="2.5" ry="2.5" style="stroke:#181818;stroke-width:0.5;" width="128" x="1635" y="36"/><text fill="#000000" font-family="sans-serif" font-size="14" font-style="italic" lengthAdjust="spacing" textLength="64" x="1667" y="58.1074">&#171;Domain&#187;</text><text fill="#000000" font-family="sans-serif" font-size="14" lengthAdjust="spacing" textLength="114" x="1642" y="76.7285">ExamSpecification</text><rect fill="#E2E2F0" height="51.2422" rx="2.5" ry="2.5" style="stroke:#181818;stroke-width:0.5;" width="128" x="1635" y="1275.6406"/><text fill="#000000" font-family="sans-serif" font-size="14" font-style="italic" lengthAdjust="spacing" textLength="64" x="1667" y="1297.748">&#171;Domain&#187;</text><text fill="#000000" font-family="sans-serif" font-size="14" lengthAdjust="spacing" textLength="114" x="1642" y="1316.3691">ExamSpecification</text><rect fill="#E2E2F0" height="51.2422" rx="2.5" ry="2.5" style="stroke:#181818;stroke-width:0.5;" width="211" x="1773" y="36"/><text fill="#000000" font-family="sans-serif" font-size="14" font-style="italic" lengthAdjust="spacing" textLength="62" x="1847.5" y="58.1074">&#171;Service&#187;</text><text fill="#000000" font-family="sans-serif" font-size="14" lengthAdjust="spacing" textLength="197" x="1780" y="76.7285">VerifyExamSpecificationService</text><rect fill="#E2E2F0" height="51.2422" rx="2.5" ry="2.5" style="stroke:#181818;stroke-width:0.5;" width="211" x="1773" y="1275.6406"/><text fill="#000000" font-family="sans-serif" font-size="14" font-style="italic" lengthAdjust="spacing" textLength="62" x="1847.5" y="1297.748">&#171;Service&#187;</text><text fill="#000000" font-family="sans-serif" font-size="14" lengthAdjust="spacing" textLength="197" x="1780" y="1316.3691">VerifyExamSpecificationService</text><rect fill="#E2E2F0" height="51.2422" rx="2.5" ry="2.5" style="stroke:#181818;stroke-width:0.5;" width="90" x="1994" y="36"/><text fill="#000000" font-family="sans-serif" font-size="14" font-style="italic" lengthAdjust="spacing" textLength="64" x="2007" y="58.1074">&#171;Domain&#187;</text><text fill="#000000" font-family="sans-serif" font-size="14" lengthAdjust="spacing" textLength="76" x="2001" y="76.7285">DateInterval</text><rect fill="#E2E2F0" height="51.2422" rx="2.5" ry="2.5" style="stroke:#181818;stroke-width:0.5;" width="90" x="1994" y="1275.6406"/><text fill="#000000" font-family="sans-serif" font-size="14" font-style="italic" lengthAdjust="spacing" textLength="64" x="2007" y="1297.748">&#171;Domain&#187;</text><text fill="#000000" font-family="sans-serif" font-size="14" lengthAdjust="spacing" textLength="76" x="2001" y="1316.3691">DateInterval</text><rect fill="#E2E2F0" height="51.2422" rx="2.5" ry="2.5" style="stroke:#181818;stroke-width:0.5;" width="78" x="2094" y="36"/><text fill="#000000" font-family="sans-serif" font-size="14" font-style="italic" lengthAdjust="spacing" textLength="64" x="2101" y="58.1074">&#171;Domain&#187;</text><text fill="#000000" font-family="sans-serif" font-size="14" lengthAdjust="spacing" textLength="34" x="2116" y="76.7285">Exam</text><rect fill="#E2E2F0" height="51.2422" rx="2.5" ry="2.5" style="stroke:#181818;stroke-width:0.5;" width="78" x="2094" y="1275.6406"/><text fill="#000000" font-family="sans-serif" font-size="14" font-style="italic" lengthAdjust="spacing" textLength="64" x="2101" y="1297.748">&#171;Domain&#187;</text><text fill="#000000" font-family="sans-serif" font-size="14" lengthAdjust="spacing" textLength="34" x="2116" y="1316.3691">Exam</text><text fill="#000000" font-family="sans-serif" font-size="14" font-style="italic" lengthAdjust="spacing" textLength="84" x="2191" y="66.1074">&#171;Repository&#187;</text><text fill="#000000" font-family="sans-serif" font-size="14" lengthAdjust="spacing" textLength="102" x="2182" y="84.7285">ExamRepository</text><path d="M2218,15 C2218,5 2236,5 2236,5 C2236,5 2254,5 2254,15 L2254,41 C2254,51 2236,51 2236,51 C2236,51 2218,51 2218,41 L2218,15 " fill="#E2E2F0" style="stroke:#181818;stroke-width:1.5;"/><path d="M2218,15 C2218,25 2236,25 2236,25 C2236,25 2254,25 2254,15 " fill="none" style="stroke:#181818;stroke-width:1.5;"/><text fill="#000000" font-family="sans-serif" font-size="14" font-style="italic" lengthAdjust="spacing" textLength="84" x="2191" y="1290.748">&#171;Repository&#187;</text><text fill="#000000" font-family="sans-serif" font-size="14" lengthAdjust="spacing" textLength="102" x="2182" y="1309.3691">ExamRepository</text><path d="M2218,1322.8828 C2218,1312.8828 2236,1312.8828 2236,1312.8828 C2236,1312.8828 2254,1312.8828 2254,1322.8828 L2254,1348.8828 C2254,1358.8828 2236,1358.8828 2236,1358.8828 C2236,1358.8828 2218,1358.8828 2218,1348.8828 L2218,1322.8828 " fill="#E2E2F0" style="stroke:#181818;stroke-width:1.5;"/><path d="M2218,1322.8828 C2218,1332.8828 2236,1332.8828 2236,1332.8828 C2236,1332.8828 2254,1332.8828 2254,1322.8828 " fill="none" style="stroke:#181818;stroke-width:1.5;"/><rect fill="#FFFFFF" height="1169.3984" style="stroke:#181818;stroke-width:1.0;" width="10" x="29.5" y="98.2422"/><rect fill="#FFFFFF" height="1137.1074" style="stroke:#181818;stroke-width:1.0;" width="10" x="423.5" y="121.5332"/><rect fill="#FFFFFF" height="148.4551" style="stroke:#181818;stroke-width:1.0;" width="10" x="773.5" y="152.8242"/><rect fill="#FFFFFF" height="769.6152" style="stroke:#181818;stroke-width:1.0;" width="10" x="773.5" y="457.7344"/><rect fill="#FFFFFF" height="42.9365" style="stroke:#181818;stroke-width:1.0;" width="10" x="957" y="215.4063"/><rect fill="#FFFFFF" height="187.7461" style="stroke:#181818;stroke-width:1.0;" width="10" x="1154.5" y="489.0254"/><rect fill="#FFFFFF" height="487.9961" style="stroke:#181818;stroke-width:1.0;" width="10" x="1154.5" y="708.0625"/><rect fill="#FFFFFF" height="62.582" style="stroke:#181818;stroke-width:1.0;" width="10" x="1324" y="520.3164"/><rect fill="#FFFFFF" height="62.582" style="stroke:#181818;stroke-width:1.0;" width="10" x="1467" y="614.1895"/><rect fill="#FFFFFF" height="31.291" style="stroke:#181818;stroke-width:1.0;" width="10" x="1581" y="739.3535"/><rect fill="#FFFFFF" height="31.291" style="stroke:#181818;stroke-width:1.0;" width="10" x="1694" y="890.8086"/><rect fill="#FFFFFF" height="31.291" style="stroke:#181818;stroke-width:1.0;" width="10" x="1873.5" y="953.3906"/><rect fill="#FFFFFF" height="31.291" style="stroke:#181818;stroke-width:1.0;" width="10" x="2231" y="801.9355"/><polygon fill="#181818" points="411.5,117.5332,421.5,121.5332,411.5,125.5332,415.5,121.5332" style="stroke:#181818;stroke-width:1.0;"/><line style="stroke:#181818;stroke-width:1.0;" x1="39.5" x2="417.5" y1="121.5332" y2="121.5332"/><text fill="#000000" font-family="sans-serif" font-size="13" font-weight="bold" lengthAdjust="spacing" textLength="7" x="46.5" y="116.2705">1</text><text fill="#000000" font-family="sans-serif" font-size="13" lengthAdjust="spacing" textLength="173" x="57.5" y="116.2705">Select option update an exam</text><polygon fill="#181818" points="761.5,148.8242,771.5,152.8242,761.5,156.8242,765.5,152.8242" style="stroke:#181818;stroke-width:1.0;"/><line style="stroke:#181818;stroke-width:1.0;" x1="433.5" x2="767.5" y1="152.8242" y2="152.8242"/><text fill="#000000" font-family="sans-serif" font-size="13" font-weight="bold" lengthAdjust="spacing" textLength="7" x="440.5" y="147.5615">2</text><text fill="#000000" font-family="sans-serif" font-size="13" lengthAdjust="spacing" textLength="112" x="451.5" y="147.5615">listTeacherExams()</text><polygon fill="#181818" points="950,180.1152,960,184.1152,950,188.1152,954,184.1152" style="stroke:#181818;stroke-width:1.0;"/><line style="stroke:#181818;stroke-width:1.0;" x1="783.5" x2="956" y1="184.1152" y2="184.1152"/><text fill="#000000" font-family="sans-serif" font-size="13" font-weight="bold" lengthAdjust="spacing" textLength="7" x="790.5" y="178.8525">3</text><text fill="#000000" font-family="sans-serif" font-size="13" lengthAdjust="spacing" textLength="44" x="801.5" y="178.8525">create()</text><polygon fill="#181818" points="945,211.4063,955,215.4063,945,219.4063,949,215.4063" style="stroke:#181818;stroke-width:1.0;"/><line style="stroke:#181818;stroke-width:1.0;" x1="783.5" x2="951" y1="215.4063" y2="215.4063"/><text fill="#000000" font-family="sans-serif" font-size="13" font-weight="bold" lengthAdjust="spacing" textLength="7" x="790.5" y="210.1436">4</text><text fill="#000000" font-family="sans-serif" font-size="13" lengthAdjust="spacing" textLength="112" x="801.5" y="210.1436">listTeacherExams()</text><polygon fill="#181818" points="794.5,254.3428,784.5,258.3428,794.5,262.3428,790.5,258.3428" style="stroke:#181818;stroke-width:1.0;"/><line style="stroke:#181818;stroke-width:1.0;stroke-dasharray:2.0,2.0;" x1="788.5" x2="961" y1="258.3428" y2="258.3428"/><text fill="#000000" font-family="sans-serif" font-size="13" font-weight="bold" lengthAdjust="spacing" textLength="7" x="800.5" y="253.0801">5</text><text fill="#000000" font-family="sans-serif" font-size="13" lengthAdjust="spacing" textLength="78" x="811.5" y="253.0801">listExamsDto</text><path d="M972,228.4063 L972,272.4063 L1370,272.4063 L1370,238.4063 L1360,228.4063 L972,228.4063 " fill="#FEFFDD" style="stroke:#181818;stroke-width:0.5;"/><path d="M1360,228.4063 L1360,238.4063 L1370,238.4063 L1360,228.4063 " fill="#FEFFDD" style="stroke:#181818;stroke-width:0.5;"/><text fill="#000000" font-family="sans-serif" font-size="13" lengthAdjust="spacing" textLength="373" x="978" y="247.4346">For more information about the function listTeacherExams check</text><text fill="#000000" font-family="sans-serif" font-size="13" lengthAdjust="spacing" textLength="355" x="982" y="264.7256">SD_listTeacherExamsController present in the folder us_2001</text><polygon fill="#181818" points="444.5,297.2793,434.5,301.2793,444.5,305.2793,440.5,301.2793" style="stroke:#181818;stroke-width:1.0;"/><line style="stroke:#181818;stroke-width:1.0;stroke-dasharray:2.0,2.0;" x1="438.5" x2="777.5" y1="301.2793" y2="301.2793"/><text fill="#000000" font-family="sans-serif" font-size="13" font-weight="bold" lengthAdjust="spacing" textLength="7" x="450.5" y="296.0166">6</text><text fill="#000000" font-family="sans-serif" font-size="13" lengthAdjust="spacing" textLength="78" x="461.5" y="296.0166">listExamsDto</text><polygon fill="#181818" points="50.5,328.5703,40.5,332.5703,50.5,336.5703,46.5,332.5703" style="stroke:#181818;stroke-width:1.0;"/><line style="stroke:#181818;stroke-width:1.0;" x1="44.5" x2="422.5" y1="332.5703" y2="332.5703"/><text fill="#000000" font-family="sans-serif" font-size="13" font-weight="bold" lengthAdjust="spacing" textLength="7" x="56.5" y="327.3076">7</text><text fill="#000000" font-family="sans-serif" font-size="13" lengthAdjust="spacing" textLength="231" x="67.5" y="327.3076">shows list of exams the teacher created</text><polygon fill="#181818" points="411.5,359.8613,421.5,363.8613,411.5,367.8613,415.5,363.8613" style="stroke:#181818;stroke-width:1.0;"/><line style="stroke:#181818;stroke-width:1.0;" x1="39.5" x2="417.5" y1="363.8613" y2="363.8613"/><text fill="#000000" font-family="sans-serif" font-size="13" font-weight="bold" lengthAdjust="spacing" textLength="7" x="46.5" y="358.5986">8</text><text fill="#000000" font-family="sans-serif" font-size="13" lengthAdjust="spacing" textLength="96" x="57.5" y="358.5986">select one exam</text><polygon fill="#181818" points="50.5,391.1523,40.5,395.1523,50.5,399.1523,46.5,395.1523" style="stroke:#181818;stroke-width:1.0;"/><line style="stroke:#181818;stroke-width:1.0;" x1="44.5" x2="422.5" y1="395.1523" y2="395.1523"/><text fill="#000000" font-family="sans-serif" font-size="13" font-weight="bold" lengthAdjust="spacing" textLength="7" x="56.5" y="389.8896">9</text><text fill="#000000" font-family="sans-serif" font-size="13" lengthAdjust="spacing" textLength="349" x="67.5" y="389.8896">what do you which to update, and for the specific information</text><polygon fill="#181818" points="411.5,422.4434,421.5,426.4434,411.5,430.4434,415.5,426.4434" style="stroke:#181818;stroke-width:1.0;"/><line style="stroke:#181818;stroke-width:1.0;" x1="39.5" x2="417.5" y1="426.4434" y2="426.4434"/><text fill="#000000" font-family="sans-serif" font-size="13" font-weight="bold" lengthAdjust="spacing" textLength="14" x="46.5" y="421.1807">10</text><text fill="#000000" font-family="sans-serif" font-size="13" lengthAdjust="spacing" textLength="106" x="64.5" y="421.1807">inserts information</text><polygon fill="#181818" points="761.5,453.7344,771.5,457.7344,761.5,461.7344,765.5,457.7344" style="stroke:#181818;stroke-width:1.0;"/><line style="stroke:#181818;stroke-width:1.0;" x1="433.5" x2="767.5" y1="457.7344" y2="457.7344"/><text fill="#000000" font-family="sans-serif" font-size="13" font-weight="bold" lengthAdjust="spacing" textLength="14" x="440.5" y="452.4717">11</text><text fill="#000000" font-family="sans-serif" font-size="13" lengthAdjust="spacing" textLength="303" x="458.5" y="452.4717">updateExam(structure,initialDate,finalDate,examDto)</text><polygon fill="#181818" points="1142.5,485.0254,1152.5,489.0254,1142.5,493.0254,1146.5,489.0254" style="stroke:#181818;stroke-width:1.0;"/><line style="stroke:#181818;stroke-width:1.0;" x1="783.5" x2="1148.5" y1="489.0254" y2="489.0254"/><text fill="#000000" font-family="sans-serif" font-size="13" font-weight="bold" lengthAdjust="spacing" textLength="14" x="790.5" y="483.7627">12</text><text fill="#000000" font-family="sans-serif" font-size="13" lengthAdjust="spacing" textLength="44" x="808.5" y="483.7627">create()</text><polygon fill="#181818" points="1312,516.3164,1322,520.3164,1312,524.3164,1316,520.3164" style="stroke:#181818;stroke-width:1.0;"/><line style="stroke:#181818;stroke-width:1.0;" x1="1164.5" x2="1318" y1="520.3164" y2="520.3164"/><text fill="#000000" font-family="sans-serif" font-size="13" font-weight="bold" lengthAdjust="spacing" textLength="14" x="1171.5" y="515.0537">13</text><text fill="#000000" font-family="sans-serif" font-size="13" lengthAdjust="spacing" textLength="75" x="1189.5" y="515.0537">repositories()</text><polygon fill="#181818" points="1460,547.6074,1470,551.6074,1460,555.6074,1464,551.6074" style="stroke:#181818;stroke-width:1.0;"/><line style="stroke:#181818;stroke-width:1.0;" x1="1334" x2="1466" y1="551.6074" y2="551.6074"/><text fill="#000000" font-family="sans-serif" font-size="13" font-weight="bold" lengthAdjust="spacing" textLength="14" x="1341" y="546.3447">14</text><text fill="#000000" font-family="sans-serif" font-size="13" lengthAdjust="spacing" textLength="36" x="1359" y="546.3447">create</text><polygon fill="#181818" points="1175.5,578.8984,1165.5,582.8984,1175.5,586.8984,1171.5,582.8984" style="stroke:#181818;stroke-width:1.0;"/><line style="stroke:#181818;stroke-width:1.0;stroke-dasharray:2.0,2.0;" x1="1169.5" x2="1328" y1="582.8984" y2="582.8984"/><text fill="#000000" font-family="sans-serif" font-size="13" font-weight="bold" lengthAdjust="spacing" textLength="14" x="1181.5" y="577.6357">15</text><text fill="#000000" font-family="sans-serif" font-size="13" lengthAdjust="spacing" textLength="39" x="1199.5" y="577.6357">factory</text><polygon fill="#181818" points="1455,610.1895,1465,614.1895,1455,618.1895,1459,614.1895" style="stroke:#181818;stroke-width:1.0;"/><line style="stroke:#181818;stroke-width:1.0;" x1="1164.5" x2="1461" y1="614.1895" y2="614.1895"/><text fill="#000000" font-family="sans-serif" font-size="13" font-weight="bold" lengthAdjust="spacing" textLength="14" x="1171.5" y="608.9268">16</text><text fill="#000000" font-family="sans-serif" font-size="13" lengthAdjust="spacing" textLength="102" x="1189.5" y="608.9268">examRepository()</text><polygon fill="#181818" points="2224,641.4805,2234,645.4805,2224,649.4805,2228,645.4805" style="stroke:#181818;stroke-width:1.0;"/><line style="stroke:#181818;stroke-width:1.0;" x1="1477" x2="2230" y1="645.4805" y2="645.4805"/><text fill="#000000" font-family="sans-serif" font-size="13" font-weight="bold" lengthAdjust="spacing" textLength="14" x="1484" y="640.2178">17</text><text fill="#000000" font-family="sans-serif" font-size="13" lengthAdjust="spacing" textLength="36" x="1502" y="640.2178">create</text><polygon fill="#181818" points="1170.5,672.7715,1160.5,676.7715,1170.5,680.7715,1166.5,676.7715" style="stroke:#181818;stroke-width:1.0;"/><line style="stroke:#181818;stroke-width:1.0;stroke-dasharray:2.0,2.0;" x1="1164.5" x2="1471" y1="676.7715" y2="676.7715"/><text fill="#000000" font-family="sans-serif" font-size="13" font-weight="bold" lengthAdjust="spacing" textLength="14" x="1176.5" y="671.5088">18</text><text fill="#000000" font-family="sans-serif" font-size="13" lengthAdjust="spacing" textLength="94" x="1194.5" y="671.5088">examRepository</text><polygon fill="#181818" points="1142.5,704.0625,1152.5,708.0625,1142.5,712.0625,1146.5,708.0625" style="stroke:#181818;stroke-width:1.0;"/><line style="stroke:#181818;stroke-width:1.0;" x1="783.5" x2="1148.5" y1="708.0625" y2="708.0625"/><text fill="#000000" font-family="sans-serif" font-size="13" font-weight="bold" lengthAdjust="spacing" textLength="14" x="790.5" y="702.7998">19</text><text fill="#000000" font-family="sans-serif" font-size="13" lengthAdjust="spacing" textLength="303" x="808.5" y="702.7998">updateExam(structure,initialDate,finalDate,examDto)</text><polygon fill="#181818" points="1569,735.3535,1579,739.3535,1569,743.3535,1573,739.3535" style="stroke:#181818;stroke-width:1.0;"/><line style="stroke:#181818;stroke-width:1.0;" x1="1164.5" x2="1575" y1="739.3535" y2="739.3535"/><text fill="#000000" font-family="sans-serif" font-size="13" font-weight="bold" lengthAdjust="spacing" textLength="14" x="1171.5" y="734.0908">20</text><text fill="#000000" font-family="sans-serif" font-size="13" lengthAdjust="spacing" textLength="156" x="1189.5" y="734.0908">create(examDto.examTitle)</text><polygon fill="#181818" points="1175.5,766.6445,1165.5,770.6445,1175.5,774.6445,1171.5,770.6445" style="stroke:#181818;stroke-width:1.0;"/><line style="stroke:#181818;stroke-width:1.0;stroke-dasharray:2.0,2.0;" x1="1169.5" x2="1585" y1="770.6445" y2="770.6445"/><text fill="#000000" font-family="sans-serif" font-size="13" font-weight="bold" lengthAdjust="spacing" textLength="14" x="1181.5" y="765.3818">21</text><text fill="#000000" font-family="sans-serif" font-size="13" lengthAdjust="spacing" textLength="56" x="1199.5" y="765.3818">examTitle</text><polygon fill="#181818" points="2219,797.9355,2229,801.9355,2219,805.9355,2223,801.9355" style="stroke:#181818;stroke-width:1.0;"/><line style="stroke:#181818;stroke-width:1.0;" x1="1164.5" x2="2225" y1="801.9355" y2="801.9355"/><text fill="#000000" font-family="sans-serif" font-size="13" font-weight="bold" lengthAdjust="spacing" textLength="14" x="1171.5" y="796.6729">22</text><text fill="#000000" font-family="sans-serif" font-size="13" lengthAdjust="spacing" textLength="116" x="1189.5" y="796.6729">ofIdentity(examTitle)</text><polygon fill="#181818" points="1175.5,829.2266,1165.5,833.2266,1175.5,837.2266,1171.5,833.2266" style="stroke:#181818;stroke-width:1.0;"/><line style="stroke:#181818;stroke-width:1.0;stroke-dasharray:2.0,2.0;" x1="1169.5" x2="2235" y1="833.2266" y2="833.2266"/><text fill="#000000" font-family="sans-serif" font-size="13" font-weight="bold" lengthAdjust="spacing" textLength="14" x="1181.5" y="827.9639">23</text><text fill="#000000" font-family="sans-serif" font-size="13" lengthAdjust="spacing" textLength="32" x="1199.5" y="827.9639">exam</text><path d="M1058,848.2266 L1119,848.2266 L1119,857.5176 L1109,867.5176 L1058,867.5176 L1058,848.2266 " fill="#EEEEEE" style="stroke:#000000;stroke-width:1.5;"/><rect fill="none" height="286.25" style="stroke:#000000;stroke-width:1.5;" width="1124" x="1058" y="848.2266"/><text fill="#000000" font-family="sans-serif" font-size="13" font-weight="bold" lengthAdjust="spacing" textLength="16" x="1073" y="863.2549">alt</text><text fill="#000000" font-family="sans-serif" font-size="11" font-weight="bold" lengthAdjust="spacing" textLength="92" x="1134" y="862.0967">[structure!= null]</text><polygon fill="#181818" points="1682,886.8086,1692,890.8086,1682,894.8086,1686,890.8086" style="stroke:#181818;stroke-width:1.0;"/><line style="stroke:#181818;stroke-width:1.0;" x1="1164.5" x2="1688" y1="890.8086" y2="890.8086"/><text fill="#000000" font-family="sans-serif" font-size="13" font-weight="bold" lengthAdjust="spacing" textLength="14" x="1171.5" y="885.5459">24</text><text fill="#000000" font-family="sans-serif" font-size="13" lengthAdjust="spacing" textLength="99" x="1189.5" y="885.5459">create(structure);</text><polygon fill="#181818" points="1175.5,918.0996,1165.5,922.0996,1175.5,926.0996,1171.5,922.0996" style="stroke:#181818;stroke-width:1.0;"/><line style="stroke:#181818;stroke-width:1.0;stroke-dasharray:2.0,2.0;" x1="1169.5" x2="1698" y1="922.0996" y2="922.0996"/><text fill="#000000" font-family="sans-serif" font-size="13" font-weight="bold" lengthAdjust="spacing" textLength="14" x="1181.5" y="916.8369">25</text><text fill="#000000" font-family="sans-serif" font-size="13" lengthAdjust="spacing" textLength="82" x="1199.5" y="916.8369">specificication</text><polygon fill="#181818" points="1861.5,949.3906,1871.5,953.3906,1861.5,957.3906,1865.5,953.3906" style="stroke:#181818;stroke-width:1.0;"/><line style="stroke:#181818;stroke-width:1.0;" x1="1164.5" x2="1867.5" y1="953.3906" y2="953.3906"/><text fill="#000000" font-family="sans-serif" font-size="13" font-weight="bold" lengthAdjust="spacing" textLength="14" x="1171.5" y="948.1279">26</text><text fill="#000000" font-family="sans-serif" font-size="13" lengthAdjust="spacing" textLength="196" x="1189.5" y="948.1279">verifyExamSpecification(structure)</text><polygon fill="#181818" points="1175.5,980.6816,1165.5,984.6816,1175.5,988.6816,1171.5,984.6816" style="stroke:#181818;stroke-width:1.0;"/><line style="stroke:#181818;stroke-width:1.0;stroke-dasharray:2.0,2.0;" x1="1169.5" x2="1877.5" y1="984.6816" y2="984.6816"/><text fill="#000000" font-family="sans-serif" font-size="13" font-weight="bold" lengthAdjust="spacing" textLength="14" x="1181.5" y="979.4189">27</text><text fill="#000000" font-family="sans-serif" font-size="13" lengthAdjust="spacing" textLength="45" x="1199.5" y="979.4189">boolean</text><polygon fill="#181818" points="2121,1011.9727,2131,1015.9727,2121,1019.9727,2125,1015.9727" style="stroke:#181818;stroke-width:1.0;"/><line style="stroke:#181818;stroke-width:1.0;" x1="1164.5" x2="2127" y1="1015.9727" y2="1015.9727"/><text fill="#000000" font-family="sans-serif" font-size="13" font-weight="bold" lengthAdjust="spacing" textLength="14" x="1171.5" y="1010.71">28</text><text fill="#000000" font-family="sans-serif" font-size="13" lengthAdjust="spacing" textLength="227" x="1189.5" y="1010.71">updateExamSpecification(specification)</text><line style="stroke:#000000;stroke-width:1.0;stroke-dasharray:2.0,2.0;" x1="1058" x2="2182" y1="1024.9727" y2="1024.9727"/><text fill="#000000" font-family="sans-serif" font-size="11" font-weight="bold" lengthAdjust="spacing" textLength="200" x="1063" y="1036.8428">[initialDate != null &amp;&amp; finalDate != null]</text><polygon fill="#181818" points="2027,1059.8945,2037,1063.8945,2027,1067.8945,2031,1063.8945" style="stroke:#181818;stroke-width:1.0;"/><line style="stroke:#181818;stroke-width:1.0;" x1="1164.5" x2="2033" y1="1063.8945" y2="1063.8945"/><text fill="#000000" font-family="sans-serif" font-size="13" font-weight="bold" lengthAdjust="spacing" textLength="14" x="1171.5" y="1058.6318">29</text><text fill="#000000" font-family="sans-serif" font-size="13" lengthAdjust="spacing" textLength="155" x="1189.5" y="1058.6318">create(initialDate,finalDate)</text><polygon fill="#181818" points="1175.5,1091.1855,1165.5,1095.1855,1175.5,1099.1855,1171.5,1095.1855" style="stroke:#181818;stroke-width:1.0;"/><line style="stroke:#181818;stroke-width:1.0;stroke-dasharray:2.0,2.0;" x1="1169.5" x2="2038" y1="1095.1855" y2="1095.1855"/><text fill="#000000" font-family="sans-serif" font-size="13" font-weight="bold" lengthAdjust="spacing" textLength="14" x="1181.5" y="1089.9229">30</text><text fill="#000000" font-family="sans-serif" font-size="13" lengthAdjust="spacing" textLength="65" x="1199.5" y="1089.9229">dateInterval</text><polygon fill="#181818" points="2121,1122.4766,2131,1126.4766,2121,1130.4766,2125,1126.4766" style="stroke:#181818;stroke-width:1.0;"/><line style="stroke:#181818;stroke-width:1.0;" x1="1164.5" x2="2127" y1="1126.4766" y2="1126.4766"/><text fill="#000000" font-family="sans-serif" font-size="13" font-weight="bold" lengthAdjust="spacing" textLength="14" x="1171.5" y="1121.2139">31</text><text fill="#000000" font-family="sans-serif" font-size="13" lengthAdjust="spacing" textLength="179" x="1189.5" y="1121.2139">updateDateInterval(dateInterval)</text><polygon fill="#181818" points="2224,1160.7676,2234,1164.7676,2224,1168.7676,2228,1164.7676" style="stroke:#181818;stroke-width:1.0;"/><line style="stroke:#181818;stroke-width:1.0;" x1="1164.5" x2="2230" y1="1164.7676" y2="1164.7676"/><text fill="#000000" font-family="sans-serif" font-size="13" font-weight="bold" lengthAdjust="spacing" textLength="14" x="1171.5" y="1159.5049">32</text><text fill="#000000" font-family="sans-serif" font-size="13" lengthAdjust="spacing" textLength="66" x="1189.5" y="1159.5049">save(exam)</text><polygon fill="#181818" points="794.5,1192.0586,784.5,1196.0586,794.5,1200.0586,790.5,1196.0586" style="stroke:#181818;stroke-width:1.0;"/><line style="stroke:#181818;stroke-width:1.0;" x1="788.5" x2="1158.5" y1="1196.0586" y2="1196.0586"/><text fill="#000000" font-family="sans-serif" font-size="13" font-weight="bold" lengthAdjust="spacing" textLength="14" x="800.5" y="1190.7959">33</text><text fill="#000000" font-family="sans-serif" font-size="13" lengthAdjust="spacing" textLength="45" x="818.5" y="1190.7959">boolean</text><polygon fill="#181818" points="444.5,1223.3496,434.5,1227.3496,444.5,1231.3496,440.5,1227.3496" style="stroke:#181818;stroke-width:1.0;"/><line style="stroke:#181818;stroke-width:1.0;stroke-dasharray:2.0,2.0;" x1="438.5" x2="777.5" y1="1227.3496" y2="1227.3496"/><text fill="#000000" font-family="sans-serif" font-size="13" font-weight="bold" lengthAdjust="spacing" textLength="14" x="450.5" y="1222.0869">34</text><text fill="#000000" font-family="sans-serif" font-size="13" lengthAdjust="spacing" textLength="45" x="468.5" y="1222.0869">boolean</text><polygon fill="#181818" points="50.5,1254.6406,40.5,1258.6406,50.5,1262.6406,46.5,1258.6406" style="stroke:#181818;stroke-width:1.0;"/><line style="stroke:#181818;stroke-width:1.0;stroke-dasharray:2.0,2.0;" x1="44.5" x2="427.5" y1="1258.6406" y2="1258.6406"/><text fill="#000000" font-family="sans-serif" font-size="13" font-weight="bold" lengthAdjust="spacing" textLength="14" x="56.5" y="1253.3779">35</text><text fill="#000000" font-family="sans-serif" font-size="13" lengthAdjust="spacing" textLength="190" x="74.5" y="1253.3779">Informs operation was a success</text><!--SRC=[dLLDZnit3BthLx1xIDV0Eflsw6uC1Da6CD13q4roAX1eDNGiL9Qc-l36_xwKHZF36OzJe3TzFFAHZnJryo76DcpkxriZRKn7yrgvutt0Vn9QXUj6oszU7eMGAJgRZi_eQQsYyt3p2QKweBy16I0AqKeVjT8jkO6RpsqZ8_x-NHu_xmeWQNXu-EWne8qoQcUtssiMxvsDtXbJNQle3Tc-QrkZrQBf7ph46aos3miECkJ7Jjvx9FunYYVq9wsmU0ZTcXpKKpAUM7z47uWXIvR9yNlCPkruIgPiD-F-4riND6bw_b2aFMTZZss_UtZOTwivxKqEz9EEfWiJQRTh2FxeZb9VP5YoQb7fVPMWourEhffyGQ_tvmj3hisf4tsYpSJ78mcw8qtyIPfYqR03phoGsv0Mnv6zV9O18ID6xNeedH1wFC-UIJvz8jhSft6zJNe3JsXGHN1jJWXIgJj8MroC-AH5qkjjwQ4Dc5cZtQv6P4Q8qgiLdbjk0wgq5G4lh_xBMqQ9eNdNaoYAmMDqmZf2U_tj46437-XP7fr7q7Rl_B7K2kIpIn7Y0M6Vh2f7SsQWbVeR_hBmzFZLN7rDq7Rlbznt_fnfw3I5hx- -UVEBQ70v_19wbdmI-0nDCcTrI9PmS2-XOC7jIpb2OOjTJ5NHHaIeRaEjfCMkU8EdbuECq3WukqHhhGuGNQtq7PMweGHySHrgStFTSfyKzzhIyuzXSjTHTEL8myYu3T4d5PF7EsrrrDBath_RQrjNEJpA_LhNr373ccR0rIiX-b54S3PGDdbSTFskST9832JuF2BxSSBqZ5C4ZwWE85urxfb5nRtYv87oi4QKO8EEpAl9416_vG5DNVEuc6jssWkOjLvl1pV_ftZYnsNffl1Gn6hs6ljHpLJeeABExOly2fmdKV5pjgANs-yQUfiwdc-lKH5Ez1FoWcpEay4vLHDXKEQdjs2JCPm_FvqXrm6u-erfH0XHVfa9P__cwfSogLMn63dg5xF9YwNlYF6EjDL8zF_JXFpPEODoGjhZPzho5fcHyjrAe0bvxWwT0rKiUFKAXYQ21GNvTpWekTY2Ap7vEYSPyPjhEV2V-9ORKFIsMUog84zT2w_uTHbOYohs3y8ZbSCEYBhTbH4QwDD5ttrEB_HfImX9AGo1skrV]--></g></svg>