<?xml version="1.0" encoding="us-ascii" standalone="no"?><svg xmlns="http://www.w3.org/2000/svg" xmlns:xlink="http://www.w3.org/1999/xlink" contentStyleType="text/css" height="770px" preserveAspectRatio="none" style="width:1740px;height:770px;background:#FFFFFF;" version="1.1" viewBox="0 0 1740 770" width="1740px" zoomAndPan="magnify"><defs/><g><rect fill="#FFFFFF" height="566.4688" style="stroke:#181818;stroke-width:1.0;" width="10" x="27.5" y="92.2813"/><rect fill="#FFFFFF" height="545.9453" style="stroke:#181818;stroke-width:1.0;" width="10" x="345.5" y="112.8047"/><rect fill="#FFFFFF" height="488.8984" style="stroke:#181818;stroke-width:1.0;" width="10" x="511.5" y="141.3281"/><rect fill="#FFFFFF" height="431.8516" style="stroke:#181818;stroke-width:1.0;" width="10" x="695" y="169.8516"/><rect fill="#FFFFFF" height="28.5234" style="stroke:#181818;stroke-width:1.0;" width="10" x="859" y="198.375"/><rect fill="#FFFFFF" height="28.5234" style="stroke:#181818;stroke-width:1.0;" width="10" x="1003" y="255.4219"/><rect fill="#FFFFFF" height="28.5234" style="stroke:#181818;stroke-width:1.0;" width="10" x="1143" y="312.4688"/><rect fill="#FFFFFF" height="28.5234" style="stroke:#181818;stroke-width:1.0;" width="10" x="1265.5" y="369.5156"/><rect fill="#FFFFFF" height="28.5234" style="stroke:#181818;stroke-width:1.0;" width="10" x="1389.5" y="450.0859"/><rect fill="#FFFFFF" height="28.5234" style="stroke:#181818;stroke-width:1.0;" width="10" x="1581.5" y="530.6563"/><rect fill="none" height="161.1406" style="stroke:#000000;stroke-width:1.5;" width="1141.5" x="593" y="413.0391"/><rect fill="none" height="73.5703" style="stroke:#000000;stroke-width:1.5;" width="1121.5" x="603" y="493.6094"/><line style="stroke:#181818;stroke-width:0.5;stroke-dasharray:5.0,5.0;" x1="32" x2="32" y1="82.2813" y2="676.75"/><line style="stroke:#181818;stroke-width:0.5;stroke-dasharray:5.0,5.0;" x1="350" x2="350" y1="82.2813" y2="676.75"/><line style="stroke:#181818;stroke-width:0.5;stroke-dasharray:5.0,5.0;" x1="516" x2="516" y1="82.2813" y2="676.75"/><line style="stroke:#181818;stroke-width:0.5;stroke-dasharray:5.0,5.0;" x1="700" x2="700" y1="82.2813" y2="676.75"/><line style="stroke:#181818;stroke-width:0.5;stroke-dasharray:5.0,5.0;" x1="863.5" x2="863.5" y1="82.2813" y2="676.75"/><line style="stroke:#181818;stroke-width:0.5;stroke-dasharray:5.0,5.0;" x1="1007.5" x2="1007.5" y1="82.2813" y2="676.75"/><line style="stroke:#181818;stroke-width:0.5;stroke-dasharray:5.0,5.0;" x1="1147.5" x2="1147.5" y1="82.2813" y2="676.75"/><line style="stroke:#181818;stroke-width:0.5;stroke-dasharray:5.0,5.0;" x1="1270.5" x2="1270.5" y1="82.2813" y2="676.75"/><line style="stroke:#181818;stroke-width:0.5;stroke-dasharray:5.0,5.0;" x1="1394.5" x2="1394.5" y1="82.2813" y2="676.75"/><line style="stroke:#181818;stroke-width:0.5;stroke-dasharray:5.0,5.0;" x1="1586.5" x2="1586.5" y1="82.2813" y2="676.75"/><text fill="#000000" font-family="sans-serif" font-size="14" lengthAdjust="spacing" textLength="49" x="5" y="79.3145">Student</text><ellipse cx="32.5" cy="15.1406" fill="#E2E2F0" rx="8" ry="8" style="stroke:#181818;stroke-width:0.5;"/><path d="M32.5,23.1406 L32.5,50.1406 M19.5,31.1406 L45.5,31.1406 M32.5,50.1406 L19.5,65.1406 M32.5,50.1406 L45.5,65.1406 " fill="none" style="stroke:#181818;stroke-width:0.5;"/><text fill="#000000" font-family="sans-serif" font-size="14" lengthAdjust="spacing" textLength="49" x="5" y="688.4238">Student</text><ellipse cx="32.5" cy="699.8906" fill="#E2E2F0" rx="8" ry="8" style="stroke:#181818;stroke-width:0.5;"/><path d="M32.5,707.8906 L32.5,734.8906 M19.5,715.8906 L45.5,715.8906 M32.5,734.8906 L19.5,749.8906 M32.5,734.8906 L45.5,749.8906 " fill="none" style="stroke:#181818;stroke-width:0.5;"/><rect fill="#E2E2F0" height="45.2813" rx="2.5" ry="2.5" style="stroke:#181818;stroke-width:0.5;" width="139" x="281" y="36"/><text fill="#000000" font-family="sans-serif" font-size="14" font-style="italic" lengthAdjust="spacing" textLength="96" x="302.5" y="55.6738">&#171;Presentation&#187;</text><text fill="#000000" font-family="sans-serif" font-size="14" lengthAdjust="spacing" textLength="125" x="288" y="71.3145">: ListFutureExamsUI</text><rect fill="#E2E2F0" height="45.2813" rx="2.5" ry="2.5" style="stroke:#181818;stroke-width:0.5;" width="139" x="281" y="675.75"/><text fill="#000000" font-family="sans-serif" font-size="14" font-style="italic" lengthAdjust="spacing" textLength="96" x="302.5" y="695.4238">&#171;Presentation&#187;</text><text fill="#000000" font-family="sans-serif" font-size="14" lengthAdjust="spacing" textLength="125" x="288" y="711.0645">: ListFutureExamsUI</text><text fill="#000000" font-family="sans-serif" font-size="14" font-style="italic" lengthAdjust="spacing" textLength="85" x="471" y="63.6738">&#171;Application&#187;</text><text fill="#000000" font-family="sans-serif" font-size="14" lengthAdjust="spacing" textLength="167" x="430" y="79.3145">ListFutureExamsController</text><ellipse cx="516.5" cy="35" fill="#E2E2F0" rx="12" ry="12" style="stroke:#181818;stroke-width:0.5;"/><polygon fill="#181818" points="512.5,23,518.5,18,516.5,23,518.5,28,512.5,23" style="stroke:#181818;stroke-width:1.0;"/><text fill="#000000" font-family="sans-serif" font-size="14" font-style="italic" lengthAdjust="spacing" textLength="85" x="471" y="688.4238">&#171;Application&#187;</text><text fill="#000000" font-family="sans-serif" font-size="14" lengthAdjust="spacing" textLength="167" x="430" y="704.0645">ListFutureExamsController</text><ellipse cx="516.5" cy="723.0313" fill="#E2E2F0" rx="12" ry="12" style="stroke:#181818;stroke-width:0.5;"/><polygon fill="#181818" points="512.5,711.0313,518.5,706.0313,516.5,711.0313,518.5,716.0313,512.5,711.0313" style="stroke:#181818;stroke-width:1.0;"/><rect fill="#E2E2F0" height="45.2813" rx="2.5" ry="2.5" style="stroke:#181818;stroke-width:0.5;" width="174" x="613" y="36"/><text fill="#000000" font-family="sans-serif" font-size="14" font-style="italic" lengthAdjust="spacing" textLength="62" x="669" y="55.6738">&#171;Service&#187;</text><text fill="#000000" font-family="sans-serif" font-size="14" lengthAdjust="spacing" textLength="160" x="620" y="71.3145">: ListFutureExamsService</text><rect fill="#E2E2F0" height="45.2813" rx="2.5" ry="2.5" style="stroke:#181818;stroke-width:0.5;" width="174" x="613" y="675.75"/><text fill="#000000" font-family="sans-serif" font-size="14" font-style="italic" lengthAdjust="spacing" textLength="62" x="669" y="695.4238">&#171;Service&#187;</text><text fill="#000000" font-family="sans-serif" font-size="14" lengthAdjust="spacing" textLength="160" x="620" y="711.0645">: ListFutureExamsService</text><rect fill="#E2E2F0" height="45.2813" rx="2.5" ry="2.5" style="stroke:#181818;stroke-width:0.5;" width="113" x="807.5" y="36"/><text fill="#000000" font-family="sans-serif" font-size="14" font-style="italic" lengthAdjust="spacing" textLength="85" x="821.5" y="55.6738">&#171;Application&#187;</text><text fill="#000000" font-family="sans-serif" font-size="14" lengthAdjust="spacing" textLength="95" x="818.5" y="71.3145">: AuthzRegistry</text><rect fill="#E2E2F0" height="45.2813" rx="2.5" ry="2.5" style="stroke:#181818;stroke-width:0.5;" width="113" x="807.5" y="675.75"/><text fill="#000000" font-family="sans-serif" font-size="14" font-style="italic" lengthAdjust="spacing" textLength="85" x="821.5" y="695.4238">&#171;Application&#187;</text><text fill="#000000" font-family="sans-serif" font-size="14" lengthAdjust="spacing" textLength="95" x="818.5" y="711.0645">: AuthzRegistry</text><rect fill="#E2E2F0" height="45.2813" rx="2.5" ry="2.5" style="stroke:#181818;stroke-width:0.5;" width="155" x="930.5" y="36"/><text fill="#000000" font-family="sans-serif" font-size="14" font-style="italic" lengthAdjust="spacing" textLength="62" x="977" y="55.6738">&#171;Service&#187;</text><text fill="#000000" font-family="sans-serif" font-size="14" lengthAdjust="spacing" textLength="137" x="941.5" y="71.3145">: AuthorizationService</text><rect fill="#E2E2F0" height="45.2813" rx="2.5" ry="2.5" style="stroke:#181818;stroke-width:0.5;" width="155" x="930.5" y="675.75"/><text fill="#000000" font-family="sans-serif" font-size="14" font-style="italic" lengthAdjust="spacing" textLength="62" x="977" y="695.4238">&#171;Service&#187;</text><text fill="#000000" font-family="sans-serif" font-size="14" lengthAdjust="spacing" textLength="137" x="941.5" y="711.0645">: AuthorizationService</text><rect fill="#E2E2F0" height="45.2813" rx="2.5" ry="2.5" style="stroke:#181818;stroke-width:0.5;" width="105" x="1095.5" y="36"/><text fill="#000000" font-family="sans-serif" font-size="14" font-style="italic" lengthAdjust="spacing" textLength="85" x="1105.5" y="55.6738">&#171;Application&#187;</text><text fill="#000000" font-family="sans-serif" font-size="14" lengthAdjust="spacing" textLength="87" x="1106.5" y="71.3145">: UserSession</text><rect fill="#E2E2F0" height="45.2813" rx="2.5" ry="2.5" style="stroke:#181818;stroke-width:0.5;" width="105" x="1095.5" y="675.75"/><text fill="#000000" font-family="sans-serif" font-size="14" font-style="italic" lengthAdjust="spacing" textLength="85" x="1105.5" y="695.4238">&#171;Application&#187;</text><text fill="#000000" font-family="sans-serif" font-size="14" lengthAdjust="spacing" textLength="87" x="1106.5" y="711.0645">: UserSession</text><text fill="#000000" font-family="sans-serif" font-size="14" font-style="italic" lengthAdjust="spacing" textLength="84" x="1225.5" y="63.6738">&#171;Repository&#187;</text><text fill="#000000" font-family="sans-serif" font-size="14" lengthAdjust="spacing" textLength="114" x="1210.5" y="79.3145">CourseRepository</text><path d="M1252.5,15 C1252.5,5 1270.5,5 1270.5,5 C1270.5,5 1288.5,5 1288.5,15 L1288.5,41 C1288.5,51 1270.5,51 1270.5,51 C1270.5,51 1252.5,51 1252.5,41 L1252.5,15 " fill="#E2E2F0" style="stroke:#181818;stroke-width:1.5;"/><path d="M1252.5,15 C1252.5,25 1270.5,25 1270.5,25 C1270.5,25 1288.5,25 1288.5,15 " fill="none" style="stroke:#181818;stroke-width:1.5;"/><text fill="#000000" font-family="sans-serif" font-size="14" font-style="italic" lengthAdjust="spacing" textLength="84" x="1225.5" y="688.4238">&#171;Repository&#187;</text><text fill="#000000" font-family="sans-serif" font-size="14" lengthAdjust="spacing" textLength="114" x="1210.5" y="704.0645">CourseRepository</text><path d="M1252.5,717.0313 C1252.5,707.0313 1270.5,707.0313 1270.5,707.0313 C1270.5,707.0313 1288.5,707.0313 1288.5,717.0313 L1288.5,743.0313 C1288.5,753.0313 1270.5,753.0313 1270.5,753.0313 C1270.5,753.0313 1252.5,753.0313 1252.5,743.0313 L1252.5,717.0313 " fill="#E2E2F0" style="stroke:#181818;stroke-width:1.5;"/><path d="M1252.5,717.0313 C1252.5,727.0313 1270.5,727.0313 1270.5,727.0313 C1270.5,727.0313 1288.5,727.0313 1288.5,717.0313 " fill="none" style="stroke:#181818;stroke-width:1.5;"/><text fill="#000000" font-family="sans-serif" font-size="14" font-style="italic" lengthAdjust="spacing" textLength="84" x="1349.5" y="63.6738">&#171;Repository&#187;</text><text fill="#000000" font-family="sans-serif" font-size="14" lengthAdjust="spacing" textLength="102" x="1340.5" y="79.3145">ExamRepository</text><path d="M1376.5,15 C1376.5,5 1394.5,5 1394.5,5 C1394.5,5 1412.5,5 1412.5,15 L1412.5,41 C1412.5,51 1394.5,51 1394.5,51 C1394.5,51 1376.5,51 1376.5,41 L1376.5,15 " fill="#E2E2F0" style="stroke:#181818;stroke-width:1.5;"/><path d="M1376.5,15 C1376.5,25 1394.5,25 1394.5,25 C1394.5,25 1412.5,25 1412.5,15 " fill="none" style="stroke:#181818;stroke-width:1.5;"/><text fill="#000000" font-family="sans-serif" font-size="14" font-style="italic" lengthAdjust="spacing" textLength="84" x="1349.5" y="688.4238">&#171;Repository&#187;</text><text fill="#000000" font-family="sans-serif" font-size="14" lengthAdjust="spacing" textLength="102" x="1340.5" y="704.0645">ExamRepository</text><path d="M1376.5,717.0313 C1376.5,707.0313 1394.5,707.0313 1394.5,707.0313 C1394.5,707.0313 1412.5,707.0313 1412.5,717.0313 L1412.5,743.0313 C1412.5,753.0313 1394.5,753.0313 1394.5,753.0313 C1394.5,753.0313 1376.5,753.0313 1376.5,743.0313 L1376.5,717.0313 " fill="#E2E2F0" style="stroke:#181818;stroke-width:1.5;"/><path d="M1376.5,717.0313 C1376.5,727.0313 1394.5,727.0313 1394.5,727.0313 C1394.5,727.0313 1412.5,727.0313 1412.5,717.0313 " fill="none" style="stroke:#181818;stroke-width:1.5;"/><rect fill="#E2E2F0" height="45.2813" rx="2.5" ry="2.5" style="stroke:#181818;stroke-width:0.5;" width="256" x="1458.5" y="36"/><text fill="#000000" font-family="sans-serif" font-size="14" font-style="italic" lengthAdjust="spacing" textLength="46" x="1563.5" y="55.6738">&#171;DTO&#187;</text><text fill="#000000" font-family="sans-serif" font-size="14" lengthAdjust="spacing" textLength="242" x="1465.5" y="71.3145">: ExamDTOWithDatesCourseIdMapper</text><rect fill="#E2E2F0" height="45.2813" rx="2.5" ry="2.5" style="stroke:#181818;stroke-width:0.5;" width="256" x="1458.5" y="675.75"/><text fill="#000000" font-family="sans-serif" font-size="14" font-style="italic" lengthAdjust="spacing" textLength="46" x="1563.5" y="695.4238">&#171;DTO&#187;</text><text fill="#000000" font-family="sans-serif" font-size="14" lengthAdjust="spacing" textLength="242" x="1465.5" y="711.0645">: ExamDTOWithDatesCourseIdMapper</text><rect fill="#FFFFFF" height="566.4688" style="stroke:#181818;stroke-width:1.0;" width="10" x="27.5" y="92.2813"/><rect fill="#FFFFFF" height="545.9453" style="stroke:#181818;stroke-width:1.0;" width="10" x="345.5" y="112.8047"/><rect fill="#FFFFFF" height="488.8984" style="stroke:#181818;stroke-width:1.0;" width="10" x="511.5" y="141.3281"/><rect fill="#FFFFFF" height="431.8516" style="stroke:#181818;stroke-width:1.0;" width="10" x="695" y="169.8516"/><rect fill="#FFFFFF" height="28.5234" style="stroke:#181818;stroke-width:1.0;" width="10" x="859" y="198.375"/><rect fill="#FFFFFF" height="28.5234" style="stroke:#181818;stroke-width:1.0;" width="10" x="1003" y="255.4219"/><rect fill="#FFFFFF" height="28.5234" style="stroke:#181818;stroke-width:1.0;" width="10" x="1143" y="312.4688"/><rect fill="#FFFFFF" height="28.5234" style="stroke:#181818;stroke-width:1.0;" width="10" x="1265.5" y="369.5156"/><rect fill="#FFFFFF" height="28.5234" style="stroke:#181818;stroke-width:1.0;" width="10" x="1389.5" y="450.0859"/><rect fill="#FFFFFF" height="28.5234" style="stroke:#181818;stroke-width:1.0;" width="10" x="1581.5" y="530.6563"/><polygon fill="#181818" points="333.5,108.8047,343.5,112.8047,333.5,116.8047,337.5,112.8047" style="stroke:#181818;stroke-width:1.0;"/><line style="stroke:#181818;stroke-width:1.0;" x1="37.5" x2="339.5" y1="112.8047" y2="112.8047"/><text fill="#000000" font-family="sans-serif" font-size="13" font-weight="bold" lengthAdjust="spacing" textLength="7" x="44.5" y="108.0498">1</text><text fill="#000000" font-family="sans-serif" font-size="13" lengthAdjust="spacing" textLength="201" x="55.5" y="108.0498">Student asks to list its own exams</text><polygon fill="#181818" points="499.5,137.3281,509.5,141.3281,499.5,145.3281,503.5,141.3281" style="stroke:#181818;stroke-width:1.0;"/><line style="stroke:#181818;stroke-width:1.0;" x1="355.5" x2="505.5" y1="141.3281" y2="141.3281"/><text fill="#000000" font-family="sans-serif" font-size="13" font-weight="bold" lengthAdjust="spacing" textLength="7" x="362.5" y="136.5732">2</text><text fill="#000000" font-family="sans-serif" font-size="13" lengthAdjust="spacing" textLength="103" x="373.5" y="136.5732">listFutureExams()</text><polygon fill="#181818" points="683,165.8516,693,169.8516,683,173.8516,687,169.8516" style="stroke:#181818;stroke-width:1.0;"/><line style="stroke:#181818;stroke-width:1.0;" x1="521.5" x2="689" y1="169.8516" y2="169.8516"/><text fill="#000000" font-family="sans-serif" font-size="13" font-weight="bold" lengthAdjust="spacing" textLength="7" x="528.5" y="165.0967">3</text><text fill="#000000" font-family="sans-serif" font-size="13" lengthAdjust="spacing" textLength="103" x="539.5" y="165.0967">listFutureExams()</text><polygon fill="#181818" points="847,194.375,857,198.375,847,202.375,851,198.375" style="stroke:#181818;stroke-width:1.0;"/><line style="stroke:#181818;stroke-width:1.0;" x1="705" x2="853" y1="198.375" y2="198.375"/><text fill="#000000" font-family="sans-serif" font-size="13" font-weight="bold" lengthAdjust="spacing" textLength="7" x="712" y="193.6201">4</text><text fill="#000000" font-family="sans-serif" font-size="13" lengthAdjust="spacing" textLength="124" x="723" y="193.6201">authorizationService()</text><polygon fill="#181818" points="716,222.8984,706,226.8984,716,230.8984,712,226.8984" style="stroke:#181818;stroke-width:1.0;"/><line style="stroke:#181818;stroke-width:1.0;" x1="710" x2="863" y1="226.8984" y2="226.8984"/><text fill="#000000" font-family="sans-serif" font-size="13" font-weight="bold" lengthAdjust="spacing" textLength="7" x="722" y="222.1436">5</text><text fill="#000000" font-family="sans-serif" font-size="13" lengthAdjust="spacing" textLength="32" x="733" y="222.1436">authz</text><polygon fill="#181818" points="991,251.4219,1001,255.4219,991,259.4219,995,255.4219" style="stroke:#181818;stroke-width:1.0;"/><line style="stroke:#181818;stroke-width:1.0;" x1="705" x2="997" y1="255.4219" y2="255.4219"/><text fill="#000000" font-family="sans-serif" font-size="13" font-weight="bold" lengthAdjust="spacing" textLength="7" x="712" y="250.667">6</text><text fill="#000000" font-family="sans-serif" font-size="13" lengthAdjust="spacing" textLength="53" x="723" y="250.667">session()</text><polygon fill="#181818" points="716,279.9453,706,283.9453,716,287.9453,712,283.9453" style="stroke:#181818;stroke-width:1.0;"/><line style="stroke:#181818;stroke-width:1.0;stroke-dasharray:2.0,2.0;" x1="710" x2="1007" y1="283.9453" y2="283.9453"/><text fill="#000000" font-family="sans-serif" font-size="13" font-weight="bold" lengthAdjust="spacing" textLength="7" x="722" y="279.1904">7</text><text fill="#000000" font-family="sans-serif" font-size="13" lengthAdjust="spacing" textLength="72" x="733" y="279.1904">userSession</text><polygon fill="#181818" points="1131,308.4688,1141,312.4688,1131,316.4688,1135,312.4688" style="stroke:#181818;stroke-width:1.0;"/><line style="stroke:#181818;stroke-width:1.0;" x1="705" x2="1137" y1="312.4688" y2="312.4688"/><text fill="#000000" font-family="sans-serif" font-size="13" font-weight="bold" lengthAdjust="spacing" textLength="7" x="712" y="307.7139">8</text><text fill="#000000" font-family="sans-serif" font-size="13" lengthAdjust="spacing" textLength="113" x="723" y="307.7139">authenticatedUser()</text><polygon fill="#181818" points="716,336.9922,706,340.9922,716,344.9922,712,340.9922" style="stroke:#181818;stroke-width:1.0;"/><line style="stroke:#181818;stroke-width:1.0;stroke-dasharray:2.0,2.0;" x1="710" x2="1147" y1="340.9922" y2="340.9922"/><text fill="#000000" font-family="sans-serif" font-size="13" font-weight="bold" lengthAdjust="spacing" textLength="7" x="722" y="336.2373">9</text><text fill="#000000" font-family="sans-serif" font-size="13" lengthAdjust="spacing" textLength="70" x="733" y="336.2373">systemUser</text><polygon fill="#181818" points="1253.5,365.5156,1263.5,369.5156,1253.5,373.5156,1257.5,369.5156" style="stroke:#181818;stroke-width:1.0;"/><line style="stroke:#181818;stroke-width:1.0;stroke-dasharray:2.0,2.0;" x1="705" x2="1259.5" y1="369.5156" y2="369.5156"/><text fill="#000000" font-family="sans-serif" font-size="13" font-weight="bold" lengthAdjust="spacing" textLength="14" x="712" y="364.7607">10</text><text fill="#000000" font-family="sans-serif" font-size="13" lengthAdjust="spacing" textLength="214" x="730" y="364.7607">listAcceptedCoursesByStudent(user)</text><polygon fill="#181818" points="716,394.0391,706,398.0391,716,402.0391,712,398.0391" style="stroke:#181818;stroke-width:1.0;"/><line style="stroke:#181818;stroke-width:1.0;stroke-dasharray:2.0,2.0;" x1="710" x2="1269.5" y1="398.0391" y2="398.0391"/><text fill="#000000" font-family="sans-serif" font-size="13" font-weight="bold" lengthAdjust="spacing" textLength="14" x="722" y="393.2842">11</text><text fill="#000000" font-family="sans-serif" font-size="13" lengthAdjust="spacing" textLength="60" x="740" y="393.2842">courseList</text><path d="M593,413.0391 L666,413.0391 L666,419.5625 L656,429.5625 L593,429.5625 L593,413.0391 " fill="#EEEEEE" style="stroke:#000000;stroke-width:1.5;"/><rect fill="none" height="161.1406" style="stroke:#000000;stroke-width:1.5;" width="1141.5" x="593" y="413.0391"/><text fill="#000000" font-family="sans-serif" font-size="13" font-weight="bold" lengthAdjust="spacing" textLength="28" x="608" y="425.8076">loop</text><text fill="#000000" font-family="sans-serif" font-size="11" font-weight="bold" lengthAdjust="spacing" textLength="168" x="681" y="424.9971">[foreach course in courseList]</text><polygon fill="#181818" points="1377.5,446.0859,1387.5,450.0859,1377.5,454.0859,1381.5,450.0859" style="stroke:#181818;stroke-width:1.0;"/><line style="stroke:#181818;stroke-width:1.0;" x1="705" x2="1383.5" y1="450.0859" y2="450.0859"/><text fill="#000000" font-family="sans-serif" font-size="13" font-weight="bold" lengthAdjust="spacing" textLength="14" x="712" y="445.3311">12</text><text fill="#000000" font-family="sans-serif" font-size="13" lengthAdjust="spacing" textLength="199" x="730" y="445.3311">listFutureExamsByCourse(course)</text><polygon fill="#181818" points="716,474.6094,706,478.6094,716,482.6094,712,478.6094" style="stroke:#181818;stroke-width:1.0;"/><line style="stroke:#181818;stroke-width:1.0;stroke-dasharray:2.0,2.0;" x1="710" x2="1393.5" y1="478.6094" y2="478.6094"/><text fill="#000000" font-family="sans-serif" font-size="13" font-weight="bold" lengthAdjust="spacing" textLength="14" x="722" y="473.8545">13</text><text fill="#000000" font-family="sans-serif" font-size="13" lengthAdjust="spacing" textLength="94" x="740" y="473.8545">futureExamsList</text><path d="M603,493.6094 L676,493.6094 L676,500.1328 L666,510.1328 L603,510.1328 L603,493.6094 " fill="#EEEEEE" style="stroke:#000000;stroke-width:1.5;"/><rect fill="none" height="73.5703" style="stroke:#000000;stroke-width:1.5;" width="1121.5" x="603" y="493.6094"/><text fill="#000000" font-family="sans-serif" font-size="13" font-weight="bold" lengthAdjust="spacing" textLength="28" x="618" y="506.3779">loop</text><text fill="#000000" font-family="sans-serif" font-size="11" font-weight="bold" lengthAdjust="spacing" textLength="200" x="691" y="505.5674">[foreach exam from futureExamList]</text><polygon fill="#181818" points="1569.5,526.6563,1579.5,530.6563,1569.5,534.6563,1573.5,530.6563" style="stroke:#181818;stroke-width:1.0;"/><line style="stroke:#181818;stroke-width:1.0;" x1="705" x2="1575.5" y1="530.6563" y2="530.6563"/><text fill="#000000" font-family="sans-serif" font-size="13" font-weight="bold" lengthAdjust="spacing" textLength="14" x="712" y="525.9014">14</text><text fill="#000000" font-family="sans-serif" font-size="13" lengthAdjust="spacing" textLength="124" x="730" y="525.9014">toDTO(exam, course)</text><polygon fill="#181818" points="716,555.1797,706,559.1797,716,563.1797,712,559.1797" style="stroke:#181818;stroke-width:1.0;"/><line style="stroke:#181818;stroke-width:1.0;stroke-dasharray:2.0,2.0;" x1="710" x2="1585.5" y1="559.1797" y2="559.1797"/><text fill="#000000" font-family="sans-serif" font-size="13" font-weight="bold" lengthAdjust="spacing" textLength="14" x="722" y="554.4248">15</text><text fill="#000000" font-family="sans-serif" font-size="13" lengthAdjust="spacing" textLength="58" x="740" y="554.4248">examDTO</text><polygon fill="#181818" points="532.5,597.7031,522.5,601.7031,532.5,605.7031,528.5,601.7031" style="stroke:#181818;stroke-width:1.0;"/><line style="stroke:#181818;stroke-width:1.0;stroke-dasharray:2.0,2.0;" x1="526.5" x2="699" y1="601.7031" y2="601.7031"/><text fill="#000000" font-family="sans-serif" font-size="13" font-weight="bold" lengthAdjust="spacing" textLength="14" x="538.5" y="596.9482">16</text><text fill="#000000" font-family="sans-serif" font-size="13" lengthAdjust="spacing" textLength="79" x="556.5" y="596.9482">examDTOList</text><polygon fill="#181818" points="366.5,626.2266,356.5,630.2266,366.5,634.2266,362.5,630.2266" style="stroke:#181818;stroke-width:1.0;"/><line style="stroke:#181818;stroke-width:1.0;stroke-dasharray:2.0,2.0;" x1="360.5" x2="515.5" y1="630.2266" y2="630.2266"/><text fill="#000000" font-family="sans-serif" font-size="13" font-weight="bold" lengthAdjust="spacing" textLength="14" x="372.5" y="625.4717">17</text><text fill="#000000" font-family="sans-serif" font-size="13" lengthAdjust="spacing" textLength="79" x="390.5" y="625.4717">examDTOList</text><polygon fill="#181818" points="43.5,654.75,33.5,658.75,43.5,662.75,39.5,658.75" style="stroke:#181818;stroke-width:1.0;"/><line style="stroke:#181818;stroke-width:1.0;stroke-dasharray:2.0,2.0;" x1="37.5" x2="349.5" y1="658.75" y2="658.75"/><text fill="#000000" font-family="sans-serif" font-size="13" font-weight="bold" lengthAdjust="spacing" textLength="14" x="49.5" y="653.9951">18</text><text fill="#000000" font-family="sans-serif" font-size="13" lengthAdjust="spacing" textLength="266" x="67.5" y="653.9951">shows all future exams referent to the Student</text><!--SRC=[VLFDRk8m4BxxAKQSgBIy0AgGKffAaHfj5JVQiviCYxKXZcodNNZw7Tk1sD3bWeZz_Opdcn6ZLVru-43DH6ELXWMtOukzNO0mm1aRXBQoaOFeBIpMy2gDVHdjg37_AmwcBZokBk3nyKsZ8QAmKlMR3MjKRxNgO755sORp3hMdRj-hLo9dmz39viozRyfHVye6FVqbvvpeqn5HKowi8Hlj_bJXRzBGHy_9glk64qbfUVBtiL-MkbtpQeEQep742etXDrQjiE9368Ij6hN12WTb97N-wBlXIfkFOhXxUWhERy1NVNEKv_UVlwJTFmkB9ZWMRIc6OMf_Nf86OLpdt0J8Jm9IxXnM6nVh6gPv8F0V0rP1Huq4QGsehnxGvJ7pweBLnMhZCrrxP1JRyc46EWHpF-JY8xoBTWZ6F8xmMRK6yKq-CIEh6AKyYGVuYRKOtr_awDw4o185pYZhrKLYd9DDXFX5g9wCg5akRMpTCCIIDMVrB4bFDaTZyU1WiMHzbYGWpKFeJDOqE91cYD0y7QTObgwkkB4L8qxaqNY2sw3OWs2TKWFibAR3_OG2sSVuyyFowZQUfsEeP1dmKGLvnVAaWjtCkYw3iEbNKfGRBjXfTOWaqi9AahUAndVfi3_WjfYICK95rM3OYSItPDYtuBpdFtC4OPWdtlKB_6XwoEgyCFz1-f6dzV10d_vUVHaGNJSzBomJQDoXTWj7kqR3TDw_P4AA-8kpVm00]--></g></svg>