<?xml version="1.0" encoding="us-ascii" standalone="no"?><svg xmlns="http://www.w3.org/2000/svg" xmlns:xlink="http://www.w3.org/1999/xlink" contentStyleType="text/css" height="750px" preserveAspectRatio="none" style="width:2025px;height:750px;background:#FFFFFF;" version="1.1" viewBox="0 0 2025 750" width="2025px" zoomAndPan="magnify"><defs/><g><rect fill="#FFFFFF" height="555.9453" style="stroke:#181818;stroke-width:1.0;" width="10" x="29.5" y="92.2813"/><rect fill="#FFFFFF" height="546.9453" style="stroke:#181818;stroke-width:1.0;" width="10" x="265.5" y="92.2813"/><rect fill="#FFFFFF" height="469.375" style="stroke:#181818;stroke-width:1.0;" width="10" x="602.5" y="141.3281"/><rect fill="#FFFFFF" height="412.3281" style="stroke:#181818;stroke-width:1.0;" width="10" x="939.5" y="169.8516"/><rect fill="#FFFFFF" height="57.0469" style="stroke:#181818;stroke-width:1.0;" width="10" x="1099.5" y="198.375"/><rect fill="#FFFFFF" height="57.0469" style="stroke:#181818;stroke-width:1.0;" width="10" x="1242.5" y="283.9453"/><rect fill="#FFFFFF" height="85.5703" style="stroke:#181818;stroke-width:1.0;" width="10" x="1397" y="439.5625"/><line style="stroke:#181818;stroke-width:0.5;stroke-dasharray:5.0,5.0;" x1="34" x2="34" y1="82.2813" y2="657.2266"/><line style="stroke:#181818;stroke-width:0.5;stroke-dasharray:5.0,5.0;" x1="270" x2="270" y1="82.2813" y2="657.2266"/><line style="stroke:#181818;stroke-width:0.5;stroke-dasharray:5.0,5.0;" x1="607.5" x2="607.5" y1="82.2813" y2="657.2266"/><line style="stroke:#181818;stroke-width:0.5;stroke-dasharray:5.0,5.0;" x1="944" x2="944" y1="82.2813" y2="657.2266"/><line style="stroke:#181818;stroke-width:0.5;stroke-dasharray:5.0,5.0;" x1="1104.5" x2="1104.5" y1="82.2813" y2="657.2266"/><line style="stroke:#181818;stroke-width:0.5;stroke-dasharray:5.0,5.0;" x1="1247.5" x2="1247.5" y1="82.2813" y2="657.2266"/><line style="stroke:#181818;stroke-width:0.5;stroke-dasharray:5.0,5.0;" x1="1401.5" x2="1401.5" y1="82.2813" y2="657.2266"/><line style="stroke:#181818;stroke-width:0.5;stroke-dasharray:5.0,5.0;" x1="1529.5" x2="1529.5" y1="82.2813" y2="657.2266"/><line style="stroke:#181818;stroke-width:0.5;stroke-dasharray:5.0,5.0;" x1="1636.5" x2="1636.5" y1="82.2813" y2="657.2266"/><line style="stroke:#181818;stroke-width:0.5;stroke-dasharray:5.0,5.0;" x1="1770.5" x2="1770.5" y1="82.2813" y2="657.2266"/><line style="stroke:#181818;stroke-width:0.5;stroke-dasharray:5.0,5.0;" x1="1935.5" x2="1935.5" y1="82.2813" y2="657.2266"/><text fill="#000000" font-family="sans-serif" font-size="14" lengthAdjust="spacing" textLength="53" x="5" y="79.3145">Teacher</text><ellipse cx="34.5" cy="15.1406" fill="#E2E2F0" rx="8" ry="8" style="stroke:#181818;stroke-width:0.5;"/><path d="M34.5,23.1406 L34.5,50.1406 M21.5,31.1406 L47.5,31.1406 M34.5,50.1406 L21.5,65.1406 M34.5,50.1406 L47.5,65.1406 " fill="none" style="stroke:#181818;stroke-width:0.5;"/><text fill="#000000" font-family="sans-serif" font-size="14" lengthAdjust="spacing" textLength="53" x="5" y="668.9004">Teacher</text><ellipse cx="34.5" cy="680.3672" fill="#E2E2F0" rx="8" ry="8" style="stroke:#181818;stroke-width:0.5;"/><path d="M34.5,688.3672 L34.5,715.3672 M21.5,696.3672 L47.5,696.3672 M34.5,715.3672 L21.5,730.3672 M34.5,715.3672 L47.5,730.3672 " fill="none" style="stroke:#181818;stroke-width:0.5;"/><rect fill="#E2E2F0" height="45.2813" rx="2.5" ry="2.5" style="stroke:#181818;stroke-width:0.5;" width="109" x="216" y="36"/><text fill="#000000" font-family="sans-serif" font-size="14" font-style="italic" lengthAdjust="spacing" textLength="95" x="223" y="55.6738">&#171;presentation&#187;</text><text fill="#000000" font-family="sans-serif" font-size="14" lengthAdjust="spacing" textLength="70" x="235.5" y="71.3145">formativeUI</text><rect fill="#E2E2F0" height="45.2813" rx="2.5" ry="2.5" style="stroke:#181818;stroke-width:0.5;" width="109" x="216" y="656.2266"/><text fill="#000000" font-family="sans-serif" font-size="14" font-style="italic" lengthAdjust="spacing" textLength="95" x="223" y="675.9004">&#171;presentation&#187;</text><text fill="#000000" font-family="sans-serif" font-size="14" lengthAdjust="spacing" textLength="70" x="235.5" y="691.541">formativeUI</text><rect fill="#E2E2F0" height="45.2813" rx="2.5" ry="2.5" style="stroke:#181818;stroke-width:0.5;" width="134" x="540.5" y="36"/><text fill="#000000" font-family="sans-serif" font-size="14" font-style="italic" lengthAdjust="spacing" textLength="84" x="565.5" y="55.6738">&#171;application&#187;</text><text fill="#000000" font-family="sans-serif" font-size="14" lengthAdjust="spacing" textLength="120" x="547.5" y="71.3145">formativeController</text><rect fill="#E2E2F0" height="45.2813" rx="2.5" ry="2.5" style="stroke:#181818;stroke-width:0.5;" width="134" x="540.5" y="656.2266"/><text fill="#000000" font-family="sans-serif" font-size="14" font-style="italic" lengthAdjust="spacing" textLength="84" x="565.5" y="675.9004">&#171;application&#187;</text><text fill="#000000" font-family="sans-serif" font-size="14" lengthAdjust="spacing" textLength="120" x="547.5" y="691.541">formativeController</text><rect fill="#E2E2F0" height="45.2813" rx="2.5" ry="2.5" style="stroke:#181818;stroke-width:0.5;" width="119" x="885" y="36"/><text fill="#000000" font-family="sans-serif" font-size="14" font-style="italic" lengthAdjust="spacing" textLength="84" x="902.5" y="55.6738">&#171;application&#187;</text><text fill="#000000" font-family="sans-serif" font-size="14" lengthAdjust="spacing" textLength="105" x="892" y="71.3145">formativeService</text><rect fill="#E2E2F0" height="45.2813" rx="2.5" ry="2.5" style="stroke:#181818;stroke-width:0.5;" width="119" x="885" y="656.2266"/><text fill="#000000" font-family="sans-serif" font-size="14" font-style="italic" lengthAdjust="spacing" textLength="84" x="902.5" y="675.9004">&#171;application&#187;</text><text fill="#000000" font-family="sans-serif" font-size="14" lengthAdjust="spacing" textLength="105" x="892" y="691.541">formativeService</text><rect fill="#E2E2F0" height="45.2813" rx="2.5" ry="2.5" style="stroke:#181818;stroke-width:0.5;" width="136" x="1036.5" y="36"/><text fill="#000000" font-family="sans-serif" font-size="14" font-style="italic" lengthAdjust="spacing" textLength="89" x="1060" y="55.6738">&#171;persistence&#187;</text><text fill="#000000" font-family="sans-serif" font-size="14" lengthAdjust="spacing" textLength="122" x="1043.5" y="71.3145">PersistenceContext</text><rect fill="#E2E2F0" height="45.2813" rx="2.5" ry="2.5" style="stroke:#181818;stroke-width:0.5;" width="136" x="1036.5" y="656.2266"/><text fill="#000000" font-family="sans-serif" font-size="14" font-style="italic" lengthAdjust="spacing" textLength="89" x="1060" y="675.9004">&#171;persistence&#187;</text><text fill="#000000" font-family="sans-serif" font-size="14" lengthAdjust="spacing" textLength="122" x="1043.5" y="691.541">PersistenceContext</text><rect fill="#E2E2F0" height="45.2813" rx="2.5" ry="2.5" style="stroke:#181818;stroke-width:0.5;" width="130" x="1182.5" y="36"/><text fill="#000000" font-family="sans-serif" font-size="14" font-style="italic" lengthAdjust="spacing" textLength="59" x="1218" y="55.6738">&#171;factory&#187;</text><text fill="#000000" font-family="sans-serif" font-size="14" lengthAdjust="spacing" textLength="116" x="1189.5" y="71.3145">RepositoryFactory</text><rect fill="#E2E2F0" height="45.2813" rx="2.5" ry="2.5" style="stroke:#181818;stroke-width:0.5;" width="130" x="1182.5" y="656.2266"/><text fill="#000000" font-family="sans-serif" font-size="14" font-style="italic" lengthAdjust="spacing" textLength="59" x="1218" y="675.9004">&#171;factory&#187;</text><text fill="#000000" font-family="sans-serif" font-size="14" lengthAdjust="spacing" textLength="116" x="1189.5" y="691.541">RepositoryFactory</text><rect fill="#E2E2F0" height="45.2813" rx="2.5" ry="2.5" style="stroke:#181818;stroke-width:0.5;" width="159" x="1322.5" y="36"/><text fill="#000000" font-family="sans-serif" font-size="14" font-style="italic" lengthAdjust="spacing" textLength="59" x="1372.5" y="55.6738">&#171;factory&#187;</text><text fill="#000000" font-family="sans-serif" font-size="14" lengthAdjust="spacing" textLength="145" x="1329.5" y="71.3145">FormativeExamFactory</text><rect fill="#E2E2F0" height="45.2813" rx="2.5" ry="2.5" style="stroke:#181818;stroke-width:0.5;" width="159" x="1322.5" y="656.2266"/><text fill="#000000" font-family="sans-serif" font-size="14" font-style="italic" lengthAdjust="spacing" textLength="59" x="1372.5" y="675.9004">&#171;factory&#187;</text><text fill="#000000" font-family="sans-serif" font-size="14" lengthAdjust="spacing" textLength="145" x="1329.5" y="691.541">FormativeExamFactory</text><rect fill="#E2E2F0" height="45.2813" rx="2.5" ry="2.5" style="stroke:#181818;stroke-width:0.5;" width="76" x="1491.5" y="36"/><text fill="#000000" font-family="sans-serif" font-size="14" font-style="italic" lengthAdjust="spacing" textLength="62" x="1498.5" y="55.6738">&#171;domain&#187;</text><text fill="#000000" font-family="sans-serif" font-size="14" lengthAdjust="spacing" textLength="57" x="1501" y="71.3145">Question</text><rect fill="#E2E2F0" height="45.2813" rx="2.5" ry="2.5" style="stroke:#181818;stroke-width:0.5;" width="76" x="1491.5" y="656.2266"/><text fill="#000000" font-family="sans-serif" font-size="14" font-style="italic" lengthAdjust="spacing" textLength="62" x="1498.5" y="675.9004">&#171;domain&#187;</text><text fill="#000000" font-family="sans-serif" font-size="14" lengthAdjust="spacing" textLength="57" x="1501" y="691.541">Question</text><rect fill="#E2E2F0" height="45.2813" rx="2.5" ry="2.5" style="stroke:#181818;stroke-width:0.5;" width="118" x="1577.5" y="36"/><text fill="#000000" font-family="sans-serif" font-size="14" font-style="italic" lengthAdjust="spacing" textLength="62" x="1605.5" y="55.6738">&#171;domain&#187;</text><text fill="#000000" font-family="sans-serif" font-size="14" lengthAdjust="spacing" textLength="104" x="1584.5" y="71.3145">FormativeExams</text><rect fill="#E2E2F0" height="45.2813" rx="2.5" ry="2.5" style="stroke:#181818;stroke-width:0.5;" width="118" x="1577.5" y="656.2266"/><text fill="#000000" font-family="sans-serif" font-size="14" font-style="italic" lengthAdjust="spacing" textLength="62" x="1605.5" y="675.9004">&#171;domain&#187;</text><text fill="#000000" font-family="sans-serif" font-size="14" lengthAdjust="spacing" textLength="104" x="1584.5" y="691.541">FormativeExams</text><text fill="#000000" font-family="sans-serif" font-size="14" font-style="italic" lengthAdjust="spacing" textLength="79" x="1728.5" y="63.6738">&#171;repository&#187;</text><text fill="#000000" font-family="sans-serif" font-size="14" lengthAdjust="spacing" textLength="125" x="1705.5" y="79.3145">QuestionRepository</text><path d="M1753,15 C1753,5 1771,5 1771,5 C1771,5 1789,5 1789,15 L1789,41 C1789,51 1771,51 1771,51 C1771,51 1753,51 1753,41 L1753,15 " fill="#E2E2F0" style="stroke:#181818;stroke-width:1.5;"/><path d="M1753,15 C1753,25 1771,25 1771,25 C1771,25 1789,25 1789,15 " fill="none" style="stroke:#181818;stroke-width:1.5;"/><text fill="#000000" font-family="sans-serif" font-size="14" font-style="italic" lengthAdjust="spacing" textLength="79" x="1728.5" y="668.9004">&#171;repository&#187;</text><text fill="#000000" font-family="sans-serif" font-size="14" lengthAdjust="spacing" textLength="125" x="1705.5" y="684.541">QuestionRepository</text><path d="M1753,697.5078 C1753,687.5078 1771,687.5078 1771,687.5078 C1771,687.5078 1789,687.5078 1789,697.5078 L1789,723.5078 C1789,733.5078 1771,733.5078 1771,733.5078 C1771,733.5078 1753,733.5078 1753,723.5078 L1753,697.5078 " fill="#E2E2F0" style="stroke:#181818;stroke-width:1.5;"/><path d="M1753,697.5078 C1753,707.5078 1771,707.5078 1771,707.5078 C1771,707.5078 1789,707.5078 1789,697.5078 " fill="none" style="stroke:#181818;stroke-width:1.5;"/><text fill="#000000" font-family="sans-serif" font-size="14" font-style="italic" lengthAdjust="spacing" textLength="79" x="1893" y="63.6738">&#171;repository&#187;</text><text fill="#000000" font-family="sans-serif" font-size="14" lengthAdjust="spacing" textLength="172" x="1846.5" y="79.3145">FormativeExamsRepository</text><path d="M1917.5,15 C1917.5,5 1935.5,5 1935.5,5 C1935.5,5 1953.5,5 1953.5,15 L1953.5,41 C1953.5,51 1935.5,51 1935.5,51 C1935.5,51 1917.5,51 1917.5,41 L1917.5,15 " fill="#E2E2F0" style="stroke:#181818;stroke-width:1.5;"/><path d="M1917.5,15 C1917.5,25 1935.5,25 1935.5,25 C1935.5,25 1953.5,25 1953.5,15 " fill="none" style="stroke:#181818;stroke-width:1.5;"/><text fill="#000000" font-family="sans-serif" font-size="14" font-style="italic" lengthAdjust="spacing" textLength="79" x="1893" y="668.9004">&#171;repository&#187;</text><text fill="#000000" font-family="sans-serif" font-size="14" lengthAdjust="spacing" textLength="172" x="1846.5" y="684.541">FormativeExamsRepository</text><path d="M1917.5,697.5078 C1917.5,687.5078 1935.5,687.5078 1935.5,687.5078 C1935.5,687.5078 1953.5,687.5078 1953.5,697.5078 L1953.5,723.5078 C1953.5,733.5078 1935.5,733.5078 1935.5,733.5078 C1935.5,733.5078 1917.5,733.5078 1917.5,723.5078 L1917.5,697.5078 " fill="#E2E2F0" style="stroke:#181818;stroke-width:1.5;"/><path d="M1917.5,697.5078 C1917.5,707.5078 1935.5,707.5078 1935.5,707.5078 C1935.5,707.5078 1953.5,707.5078 1953.5,697.5078 " fill="none" style="stroke:#181818;stroke-width:1.5;"/><rect fill="#FFFFFF" height="555.9453" style="stroke:#181818;stroke-width:1.0;" width="10" x="29.5" y="92.2813"/><rect fill="#FFFFFF" height="546.9453" style="stroke:#181818;stroke-width:1.0;" width="10" x="265.5" y="92.2813"/><rect fill="#FFFFFF" height="469.375" style="stroke:#181818;stroke-width:1.0;" width="10" x="602.5" y="141.3281"/><rect fill="#FFFFFF" height="412.3281" style="stroke:#181818;stroke-width:1.0;" width="10" x="939.5" y="169.8516"/><rect fill="#FFFFFF" height="57.0469" style="stroke:#181818;stroke-width:1.0;" width="10" x="1099.5" y="198.375"/><rect fill="#FFFFFF" height="57.0469" style="stroke:#181818;stroke-width:1.0;" width="10" x="1242.5" y="283.9453"/><rect fill="#FFFFFF" height="85.5703" style="stroke:#181818;stroke-width:1.0;" width="10" x="1397" y="439.5625"/><polygon fill="#181818" points="253.5,108.8047,263.5,112.8047,253.5,116.8047,257.5,112.8047" style="stroke:#181818;stroke-width:1.0;"/><line style="stroke:#181818;stroke-width:1.0;" x1="39.5" x2="259.5" y1="112.8047" y2="112.8047"/><text fill="#000000" font-family="sans-serif" font-size="13" font-weight="bold" lengthAdjust="spacing" textLength="7" x="46.5" y="108.0498">1</text><text fill="#000000" font-family="sans-serif" font-size="13" lengthAdjust="spacing" textLength="191" x="57.5" y="108.0498">wants to create a formative exam</text><polygon fill="#181818" points="590.5,137.3281,600.5,141.3281,590.5,145.3281,594.5,141.3281" style="stroke:#181818;stroke-width:1.0;"/><line style="stroke:#181818;stroke-width:1.0;" x1="275.5" x2="596.5" y1="141.3281" y2="141.3281"/><text fill="#000000" font-family="sans-serif" font-size="13" font-weight="bold" lengthAdjust="spacing" textLength="7" x="282.5" y="136.5732">2</text><text fill="#000000" font-family="sans-serif" font-size="13" lengthAdjust="spacing" textLength="297" x="293.5" y="136.5732">createFormativeExam(String questions, int number)</text><polygon fill="#181818" points="927.5,165.8516,937.5,169.8516,927.5,173.8516,931.5,169.8516" style="stroke:#181818;stroke-width:1.0;"/><line style="stroke:#181818;stroke-width:1.0;" x1="612.5" x2="933.5" y1="169.8516" y2="169.8516"/><text fill="#000000" font-family="sans-serif" font-size="13" font-weight="bold" lengthAdjust="spacing" textLength="7" x="619.5" y="165.0967">3</text><text fill="#000000" font-family="sans-serif" font-size="13" lengthAdjust="spacing" textLength="297" x="630.5" y="165.0967">createFormativeExam(String questions, int number)</text><polygon fill="#181818" points="1087.5,194.375,1097.5,198.375,1087.5,202.375,1091.5,198.375" style="stroke:#181818;stroke-width:1.0;"/><line style="stroke:#181818;stroke-width:1.0;" x1="949.5" x2="1093.5" y1="198.375" y2="198.375"/><text fill="#000000" font-family="sans-serif" font-size="13" font-weight="bold" lengthAdjust="spacing" textLength="7" x="956.5" y="193.6201">4</text><text fill="#000000" font-family="sans-serif" font-size="13" lengthAdjust="spacing" textLength="75" x="967.5" y="193.6201">repositories()</text><polygon fill="#181818" points="1235.5,222.8984,1245.5,226.8984,1235.5,230.8984,1239.5,226.8984" style="stroke:#181818;stroke-width:1.0;"/><line style="stroke:#181818;stroke-width:1.0;" x1="1109.5" x2="1241.5" y1="226.8984" y2="226.8984"/><text fill="#000000" font-family="sans-serif" font-size="13" font-weight="bold" lengthAdjust="spacing" textLength="7" x="1116.5" y="222.1436">5</text><text fill="#000000" font-family="sans-serif" font-size="13" lengthAdjust="spacing" textLength="36" x="1127.5" y="222.1436">create</text><polygon fill="#181818" points="960.5,251.4219,950.5,255.4219,960.5,259.4219,956.5,255.4219" style="stroke:#181818;stroke-width:1.0;"/><line style="stroke:#181818;stroke-width:1.0;" x1="954.5" x2="1103.5" y1="255.4219" y2="255.4219"/><text fill="#000000" font-family="sans-serif" font-size="13" font-weight="bold" lengthAdjust="spacing" textLength="7" x="966.5" y="250.667">6</text><text fill="#000000" font-family="sans-serif" font-size="13" lengthAdjust="spacing" textLength="39" x="977.5" y="250.667">factory</text><polygon fill="#181818" points="1230.5,279.9453,1240.5,283.9453,1230.5,287.9453,1234.5,283.9453" style="stroke:#181818;stroke-width:1.0;"/><line style="stroke:#181818;stroke-width:1.0;" x1="949.5" x2="1236.5" y1="283.9453" y2="283.9453"/><text fill="#000000" font-family="sans-serif" font-size="13" font-weight="bold" lengthAdjust="spacing" textLength="7" x="956.5" y="279.1904">7</text><text fill="#000000" font-family="sans-serif" font-size="13" lengthAdjust="spacing" textLength="64" x="967.5" y="279.1904">questions()</text><polygon fill="#181818" points="1759,308.4688,1769,312.4688,1759,316.4688,1763,312.4688" style="stroke:#181818;stroke-width:1.0;"/><line style="stroke:#181818;stroke-width:1.0;" x1="1252.5" x2="1765" y1="312.4688" y2="312.4688"/><text fill="#000000" font-family="sans-serif" font-size="13" font-weight="bold" lengthAdjust="spacing" textLength="7" x="1259.5" y="307.7139">8</text><text fill="#000000" font-family="sans-serif" font-size="13" lengthAdjust="spacing" textLength="36" x="1270.5" y="307.7139">create</text><polygon fill="#181818" points="960.5,336.9922,950.5,340.9922,960.5,344.9922,956.5,340.9922" style="stroke:#181818;stroke-width:1.0;"/><line style="stroke:#181818;stroke-width:1.0;" x1="954.5" x2="1246.5" y1="340.9922" y2="340.9922"/><text fill="#000000" font-family="sans-serif" font-size="13" font-weight="bold" lengthAdjust="spacing" textLength="7" x="966.5" y="336.2373">9</text><text fill="#000000" font-family="sans-serif" font-size="13" lengthAdjust="spacing" textLength="118" x="977.5" y="336.2373">questionsRepository</text><polygon fill="#181818" points="1759,365.5156,1769,369.5156,1759,373.5156,1763,369.5156" style="stroke:#181818;stroke-width:1.0;"/><line style="stroke:#181818;stroke-width:1.0;" x1="949.5" x2="1765" y1="369.5156" y2="369.5156"/><text fill="#000000" font-family="sans-serif" font-size="13" font-weight="bold" lengthAdjust="spacing" textLength="14" x="956.5" y="364.7607">10</text><text fill="#000000" font-family="sans-serif" font-size="13" lengthAdjust="spacing" textLength="43" x="974.5" y="364.7607">findAll()</text><line style="stroke:#181818;stroke-width:1.0;" x1="949.5" x2="991.5" y1="398.0391" y2="398.0391"/><line style="stroke:#181818;stroke-width:1.0;" x1="991.5" x2="991.5" y1="398.0391" y2="411.0391"/><line style="stroke:#181818;stroke-width:1.0;" x1="950.5" x2="991.5" y1="411.0391" y2="411.0391"/><polygon fill="#181818" points="960.5,407.0391,950.5,411.0391,960.5,415.0391,956.5,411.0391" style="stroke:#181818;stroke-width:1.0;"/><text fill="#000000" font-family="sans-serif" font-size="13" font-weight="bold" lengthAdjust="spacing" textLength="14" x="956.5" y="393.2842">11</text><text fill="#000000" font-family="sans-serif" font-size="13" lengthAdjust="spacing" textLength="118" x="974.5" y="393.2842">verify question types</text><polygon fill="#181818" points="1385,435.5625,1395,439.5625,1385,443.5625,1389,439.5625" style="stroke:#181818;stroke-width:1.0;"/><line style="stroke:#181818;stroke-width:1.0;" x1="949.5" x2="1391" y1="439.5625" y2="439.5625"/><text fill="#000000" font-family="sans-serif" font-size="13" font-weight="bold" lengthAdjust="spacing" textLength="14" x="956.5" y="434.8076">12</text><text fill="#000000" font-family="sans-serif" font-size="13" lengthAdjust="spacing" textLength="60" x="974.5" y="434.8076">build(data)</text><polygon fill="#181818" points="1624.5,464.0859,1634.5,468.0859,1624.5,472.0859,1628.5,468.0859" style="stroke:#181818;stroke-width:1.0;"/><line style="stroke:#181818;stroke-width:1.0;" x1="1407" x2="1630.5" y1="468.0859" y2="468.0859"/><text fill="#000000" font-family="sans-serif" font-size="13" font-weight="bold" lengthAdjust="spacing" textLength="14" x="1414" y="463.3311">13</text><text fill="#000000" font-family="sans-serif" font-size="13" lengthAdjust="spacing" textLength="36" x="1432" y="463.3311">create</text><polygon fill="#181818" points="1418,492.6094,1408,496.6094,1418,500.6094,1414,496.6094" style="stroke:#181818;stroke-width:1.0;"/><line style="stroke:#181818;stroke-width:1.0;" x1="1412" x2="1635.5" y1="496.6094" y2="496.6094"/><text fill="#000000" font-family="sans-serif" font-size="13" font-weight="bold" lengthAdjust="spacing" textLength="14" x="1424" y="491.8545">14</text><text fill="#000000" font-family="sans-serif" font-size="13" lengthAdjust="spacing" textLength="85" x="1442" y="491.8545">formativeExam</text><polygon fill="#181818" points="960.5,521.1328,950.5,525.1328,960.5,529.1328,956.5,525.1328" style="stroke:#181818;stroke-width:1.0;"/><line style="stroke:#181818;stroke-width:1.0;" x1="954.5" x2="1401" y1="525.1328" y2="525.1328"/><text fill="#000000" font-family="sans-serif" font-size="13" font-weight="bold" lengthAdjust="spacing" textLength="14" x="966.5" y="520.3779">15</text><text fill="#000000" font-family="sans-serif" font-size="13" lengthAdjust="spacing" textLength="85" x="984.5" y="520.3779">formativeExam</text><polygon fill="#181818" points="1923.5,549.6563,1933.5,553.6563,1923.5,557.6563,1927.5,553.6563" style="stroke:#181818;stroke-width:1.0;"/><line style="stroke:#181818;stroke-width:1.0;" x1="949.5" x2="1929.5" y1="553.6563" y2="553.6563"/><text fill="#000000" font-family="sans-serif" font-size="13" font-weight="bold" lengthAdjust="spacing" textLength="14" x="956.5" y="548.9014">16</text><text fill="#000000" font-family="sans-serif" font-size="13" lengthAdjust="spacing" textLength="119" x="974.5" y="548.9014">save(formativeExam)</text><polygon fill="#181818" points="623.5,578.1797,613.5,582.1797,623.5,586.1797,619.5,582.1797" style="stroke:#181818;stroke-width:1.0;"/><line style="stroke:#181818;stroke-width:1.0;" x1="617.5" x2="943.5" y1="582.1797" y2="582.1797"/><text fill="#000000" font-family="sans-serif" font-size="13" font-weight="bold" lengthAdjust="spacing" textLength="14" x="629.5" y="577.4248">17</text><text fill="#000000" font-family="sans-serif" font-size="13" lengthAdjust="spacing" textLength="22" x="647.5" y="577.4248">true</text><polygon fill="#181818" points="286.5,606.7031,276.5,610.7031,286.5,614.7031,282.5,610.7031" style="stroke:#181818;stroke-width:1.0;"/><line style="stroke:#181818;stroke-width:1.0;" x1="280.5" x2="606.5" y1="610.7031" y2="610.7031"/><text fill="#000000" font-family="sans-serif" font-size="13" font-weight="bold" lengthAdjust="spacing" textLength="14" x="292.5" y="605.9482">18</text><text fill="#000000" font-family="sans-serif" font-size="13" lengthAdjust="spacing" textLength="22" x="310.5" y="605.9482">true</text><polygon fill="#181818" points="50.5,635.2266,40.5,639.2266,50.5,643.2266,46.5,639.2266" style="stroke:#181818;stroke-width:1.0;"/><line style="stroke:#181818;stroke-width:1.0;" x1="44.5" x2="269.5" y1="639.2266" y2="639.2266"/><text fill="#000000" font-family="sans-serif" font-size="13" font-weight="bold" lengthAdjust="spacing" textLength="14" x="56.5" y="634.4717">19</text><text fill="#000000" font-family="sans-serif" font-size="13" lengthAdjust="spacing" textLength="106" x="74.5" y="634.4717">success message</text><!--SRC=[fLJDRjim3BxhAOHUcW7hSZUA0CEm0hcjw_80Yioa0cpB5MMlUVlHhYnH_kbbbqAI-VsG_PZxL-zRBFRxjbADx-hgcxRr7k6jWqR3GsdKrQbQ2DLvstJr6HoTjRTE_W6bNuThgvmtshI4btSNwshbJG-duvrKA4z7-VZOEa1eFBtRvd3O0FomZNUsgi2Dm7Gb0jMsbT6Vur_0zKR320xd1JA7_WA71ltGwA06xtu4i-V1UxhDfNz3Qz7GB6vFuqXk8poS2NhvE2rqdoRBFzzLdK5NFdp2yzm13esDsEb2zQMjbLaCAYF7fHvof2YLLsU5a5HIjvbUUYQyYnVYI1Ivpenew-ESReYTwPM7cBpuS3eA4Hxbmu6kXVnBFQFqLce7GucICIWII4XGCAaqfQm8bPcTtOjtfhdAjz0iVfM6Plcn25-IWKGZM6w9FmJnlyW3XvX2JRGieeMCKpA0EuPZHO9dcl0XMvEj-UVeEYHFbB3AoXn5njWDjnA-YYdJ15Z9JxJ3ogALo9i0tDQam2mj5QWXqvJVgugyiSBfMCWUdBdSefRqjnOmQtDbGmjvxanLxeQyyvvNIiNgXizvCGqYNz1D0nV-kYcI_grPEP_YckUjzf4F5bKFkumt6p7VC-ywuA9JllFD6PPuNidMx7Iach3pfDvf3OYofZ_gcc66tmRn3m00]--></g></svg>