<?xml version="1.0" encoding="us-ascii" standalone="no"?><svg xmlns="http://www.w3.org/2000/svg" xmlns:xlink="http://www.w3.org/1999/xlink" contentStyleType="text/css" height="647px" preserveAspectRatio="none" style="width:1238px;height:647px;background:#FFFFFF;" version="1.1" viewBox="0 0 1238 647" width="1238px" zoomAndPan="magnify"><defs/><g><text fill="#000000" font-family="sans-serif" font-size="14" font-weight="bold" lengthAdjust="spacing" textLength="297" x="469.5" y="27.6738">ChangePostItPosition - SharedBoardClient</text><rect fill="#FFFFFF" height="430.7578" style="stroke:#181818;stroke-width:1.0;" width="10" x="17.5" y="127.2813"/><rect fill="#FFFFFF" height="401.2344" style="stroke:#181818;stroke-width:1.0;" width="10" x="315.5" y="147.8047"/><rect fill="#FFFFFF" height="329.1875" style="stroke:#181818;stroke-width:1.0;" width="10" x="320.5" y="184.3281"/><rect fill="#FFFFFF" height="28.5234" style="stroke:#181818;stroke-width:1.0;" width="10" x="883.5" y="217.8516"/><rect fill="#FFFFFF" height="30" style="stroke:#181818;stroke-width:1.0;" width="10" x="1031" y="274.8984"/><rect fill="#FFFFFF" height="30" style="stroke:#181818;stroke-width:1.0;" width="10" x="1031" y="391.9453"/><rect fill="#FFFFFF" height="30" style="stroke:#181818;stroke-width:1.0;" width="10" x="1167" y="333.4219"/><rect fill="#FFFFFF" height="28.5234" style="stroke:#181818;stroke-width:1.0;" width="10" x="1167" y="450.4688"/><line style="stroke:#181818;stroke-width:0.5;stroke-dasharray:5.0,5.0;" x1="22" x2="22" y1="117.2813" y2="567.0391"/><line style="stroke:#181818;stroke-width:0.5;stroke-dasharray:5.0,5.0;" x1="320" x2="320" y1="117.2813" y2="567.0391"/><line style="stroke:#181818;stroke-width:0.5;stroke-dasharray:5.0,5.0;" x1="888" x2="888" y1="117.2813" y2="567.0391"/><line style="stroke:#181818;stroke-width:0.5;stroke-dasharray:5.0,5.0;" x1="1036" x2="1036" y1="117.2813" y2="567.0391"/><line style="stroke:#181818;stroke-width:0.5;stroke-dasharray:5.0,5.0;" x1="1172" x2="1172" y1="117.2813" y2="567.0391"/><text fill="#000000" font-family="sans-serif" font-size="14" lengthAdjust="spacing" textLength="29" x="5" y="114.3145">User</text><ellipse cx="22.5" cy="50.1406" fill="#E2E2F0" rx="8" ry="8" style="stroke:#181818;stroke-width:0.5;"/><path d="M22.5,58.1406 L22.5,85.1406 M9.5,66.1406 L35.5,66.1406 M22.5,85.1406 L9.5,100.1406 M22.5,85.1406 L35.5,100.1406 " fill="none" style="stroke:#181818;stroke-width:0.5;"/><text fill="#000000" font-family="sans-serif" font-size="14" lengthAdjust="spacing" textLength="29" x="5" y="578.7129">User</text><ellipse cx="22.5" cy="590.1797" fill="#E2E2F0" rx="8" ry="8" style="stroke:#181818;stroke-width:0.5;"/><path d="M22.5,598.1797 L22.5,625.1797 M9.5,606.1797 L35.5,606.1797 M22.5,625.1797 L9.5,640.1797 M22.5,625.1797 L35.5,640.1797 " fill="none" style="stroke:#181818;stroke-width:0.5;"/><rect fill="#E2E2F0" height="60.9219" rx="2.5" ry="2.5" style="stroke:#181818;stroke-width:0.5;" width="161" x="240" y="55.3594"/><text fill="#000000" font-family="sans-serif" font-size="14" font-style="italic" lengthAdjust="spacing" textLength="128" x="256.5" y="75.0332">&#171;ShareBoardClient&#187;</text><text fill="#000000" font-family="sans-serif" font-size="14" font-style="italic" lengthAdjust="spacing" textLength="96" x="272.5" y="90.6738">&#171;Presentation&#187;</text><text fill="#000000" font-family="sans-serif" font-size="14" lengthAdjust="spacing" textLength="147" x="247" y="106.3145">ChangePostItPositionUI</text><rect fill="#E2E2F0" height="60.9219" rx="2.5" ry="2.5" style="stroke:#181818;stroke-width:0.5;" width="161" x="240" y="566.0391"/><text fill="#000000" font-family="sans-serif" font-size="14" font-style="italic" lengthAdjust="spacing" textLength="128" x="256.5" y="585.7129">&#171;ShareBoardClient&#187;</text><text fill="#000000" font-family="sans-serif" font-size="14" font-style="italic" lengthAdjust="spacing" textLength="96" x="272.5" y="601.3535">&#171;Presentation&#187;</text><text fill="#000000" font-family="sans-serif" font-size="14" lengthAdjust="spacing" textLength="147" x="247" y="616.9941">ChangePostItPositionUI</text><rect fill="#E2E2F0" height="29.6406" rx="2.5" ry="2.5" style="stroke:#181818;stroke-width:0.5;" width="143" x="817" y="86.6406"/><text fill="#000000" font-family="sans-serif" font-size="14" lengthAdjust="spacing" textLength="129" x="824" y="106.3145">SBPMessageFormat</text><rect fill="#E2E2F0" height="29.6406" rx="2.5" ry="2.5" style="stroke:#181818;stroke-width:0.5;" width="143" x="817" y="566.0391"/><text fill="#000000" font-family="sans-serif" font-size="14" lengthAdjust="spacing" textLength="129" x="824" y="585.7129">SBPMessageFormat</text><rect fill="#E2E2F0" height="29.6406" rx="2.5" ry="2.5" style="stroke:#181818;stroke-width:0.5;" width="132" x="970" y="86.6406"/><text fill="#000000" font-family="sans-serif" font-size="14" lengthAdjust="spacing" textLength="118" x="977" y="106.3145">DataOutputStream</text><rect fill="#E2E2F0" height="29.6406" rx="2.5" ry="2.5" style="stroke:#181818;stroke-width:0.5;" width="132" x="970" y="566.0391"/><text fill="#000000" font-family="sans-serif" font-size="14" lengthAdjust="spacing" textLength="118" x="977" y="585.7129">DataOutputStream</text><rect fill="#E2E2F0" height="29.6406" rx="2.5" ry="2.5" style="stroke:#181818;stroke-width:0.5;" width="120" x="1112" y="86.6406"/><text fill="#000000" font-family="sans-serif" font-size="14" lengthAdjust="spacing" textLength="106" x="1119" y="106.3145">DataInputStream</text><rect fill="#E2E2F0" height="29.6406" rx="2.5" ry="2.5" style="stroke:#181818;stroke-width:0.5;" width="120" x="1112" y="566.0391"/><text fill="#000000" font-family="sans-serif" font-size="14" lengthAdjust="spacing" textLength="106" x="1119" y="585.7129">DataInputStream</text><rect fill="#FFFFFF" height="430.7578" style="stroke:#181818;stroke-width:1.0;" width="10" x="17.5" y="127.2813"/><rect fill="#FFFFFF" height="401.2344" style="stroke:#181818;stroke-width:1.0;" width="10" x="315.5" y="147.8047"/><rect fill="#FFFFFF" height="329.1875" style="stroke:#181818;stroke-width:1.0;" width="10" x="320.5" y="184.3281"/><rect fill="#FFFFFF" height="28.5234" style="stroke:#181818;stroke-width:1.0;" width="10" x="883.5" y="217.8516"/><rect fill="#FFFFFF" height="30" style="stroke:#181818;stroke-width:1.0;" width="10" x="1031" y="274.8984"/><rect fill="#FFFFFF" height="30" style="stroke:#181818;stroke-width:1.0;" width="10" x="1031" y="391.9453"/><rect fill="#FFFFFF" height="30" style="stroke:#181818;stroke-width:1.0;" width="10" x="1167" y="333.4219"/><rect fill="#FFFFFF" height="28.5234" style="stroke:#181818;stroke-width:1.0;" width="10" x="1167" y="450.4688"/><polygon fill="#181818" points="303.5,143.8047,313.5,147.8047,303.5,151.8047,307.5,147.8047" style="stroke:#181818;stroke-width:1.0;"/><line style="stroke:#181818;stroke-width:1.0;" x1="27.5" x2="309.5" y1="147.8047" y2="147.8047"/><text fill="#000000" font-family="sans-serif" font-size="13" font-weight="bold" lengthAdjust="spacing" textLength="7" x="34.5" y="143.0498">1</text><text fill="#000000" font-family="sans-serif" font-size="13" lengthAdjust="spacing" textLength="258" x="45.5" y="143.0498">chooses boardTitle , post-it and new position</text><line style="stroke:#181818;stroke-width:1.0;" x1="325.5" x2="372.5" y1="171.3281" y2="171.3281"/><line style="stroke:#181818;stroke-width:1.0;" x1="372.5" x2="372.5" y1="171.3281" y2="184.3281"/><line style="stroke:#181818;stroke-width:1.0;" x1="331.5" x2="372.5" y1="184.3281" y2="184.3281"/><polygon fill="#181818" points="341.5,180.3281,331.5,184.3281,341.5,188.3281,337.5,184.3281" style="stroke:#181818;stroke-width:1.0;"/><text fill="#000000" font-family="sans-serif" font-size="13" font-weight="bold" lengthAdjust="spacing" textLength="7" x="337.5" y="166.5732">2</text><text fill="#000000" font-family="sans-serif" font-size="13" lengthAdjust="spacing" textLength="515" x="348.5" y="166.5732">sendChangePostItPositionRequest(boardTitle, oldRow, oldColumn, newRow, newColumn)</text><polygon fill="#181818" points="871.5,213.8516,881.5,217.8516,871.5,221.8516,875.5,217.8516" style="stroke:#181818;stroke-width:1.0;"/><line style="stroke:#181818;stroke-width:1.0;" x1="330.5" x2="877.5" y1="217.8516" y2="217.8516"/><text fill="#000000" font-family="sans-serif" font-size="13" font-weight="bold" lengthAdjust="spacing" textLength="7" x="337.5" y="213.0967">3</text><text fill="#000000" font-family="sans-serif" font-size="13" lengthAdjust="spacing" textLength="523" x="348.5" y="213.0967">createChangePostItPositionRequest(boardTitle, oldRow, oldColumn, newRow, newColumn)</text><polygon fill="#181818" points="341.5,242.375,331.5,246.375,341.5,250.375,337.5,246.375" style="stroke:#181818;stroke-width:1.0;"/><line style="stroke:#181818;stroke-width:1.0;stroke-dasharray:2.0,2.0;" x1="335.5" x2="887.5" y1="246.375" y2="246.375"/><text fill="#000000" font-family="sans-serif" font-size="13" font-weight="bold" lengthAdjust="spacing" textLength="7" x="347.5" y="241.6201">4</text><text fill="#000000" font-family="sans-serif" font-size="13" lengthAdjust="spacing" textLength="171" x="358.5" y="241.6201">changePostItPositionRequest</text><polygon fill="#181818" points="1019,270.8984,1029,274.8984,1019,278.8984,1023,274.8984" style="stroke:#181818;stroke-width:1.0;"/><line style="stroke:#181818;stroke-width:1.0;" x1="330.5" x2="1025" y1="274.8984" y2="274.8984"/><text fill="#000000" font-family="sans-serif" font-size="13" font-weight="bold" lengthAdjust="spacing" textLength="7" x="337.5" y="270.1436">5</text><text fill="#000000" font-family="sans-serif" font-size="13" lengthAdjust="spacing" textLength="83" x="348.5" y="270.1436">create(socket)</text><polygon fill="#181818" points="1155,329.4219,1165,333.4219,1155,337.4219,1159,333.4219" style="stroke:#181818;stroke-width:1.0;"/><line style="stroke:#181818;stroke-width:1.0;" x1="330.5" x2="1161" y1="333.4219" y2="333.4219"/><text fill="#000000" font-family="sans-serif" font-size="13" font-weight="bold" lengthAdjust="spacing" textLength="7" x="337.5" y="328.667">6</text><text fill="#000000" font-family="sans-serif" font-size="13" lengthAdjust="spacing" textLength="83" x="348.5" y="328.667">create(socket)</text><polygon fill="#181818" points="1019,387.9453,1029,391.9453,1019,395.9453,1023,391.9453" style="stroke:#181818;stroke-width:1.0;"/><line style="stroke:#181818;stroke-width:1.0;" x1="330.5" x2="1025" y1="391.9453" y2="391.9453"/><text fill="#000000" font-family="sans-serif" font-size="13" font-weight="bold" lengthAdjust="spacing" textLength="7" x="337.5" y="387.1904">7</text><text fill="#000000" font-family="sans-serif" font-size="13" lengthAdjust="spacing" textLength="230" x="348.5" y="387.1904">writeUTF(changePostItPositionRequest)</text><polygon fill="#181818" points="1155,446.4688,1165,450.4688,1155,454.4688,1159,450.4688" style="stroke:#181818;stroke-width:1.0;"/><line style="stroke:#181818;stroke-width:1.0;" x1="330.5" x2="1161" y1="450.4688" y2="450.4688"/><text fill="#000000" font-family="sans-serif" font-size="13" font-weight="bold" lengthAdjust="spacing" textLength="7" x="337.5" y="445.7139">8</text><text fill="#000000" font-family="sans-serif" font-size="13" lengthAdjust="spacing" textLength="57" x="348.5" y="445.7139">readUTF()</text><polygon fill="#181818" points="341.5,474.9922,331.5,478.9922,341.5,482.9922,337.5,478.9922" style="stroke:#181818;stroke-width:1.0;"/><line style="stroke:#181818;stroke-width:1.0;stroke-dasharray:2.0,2.0;" x1="335.5" x2="1171" y1="478.9922" y2="478.9922"/><text fill="#000000" font-family="sans-serif" font-size="13" font-weight="bold" lengthAdjust="spacing" textLength="7" x="347.5" y="474.2373">9</text><text fill="#000000" font-family="sans-serif" font-size="13" lengthAdjust="spacing" textLength="53" x="358.5" y="474.2373">message</text><line style="stroke:#181818;stroke-width:1.0;stroke-dasharray:2.0,2.0;" x1="330.5" x2="372.5" y1="512.5156" y2="512.5156"/><line style="stroke:#181818;stroke-width:1.0;stroke-dasharray:2.0,2.0;" x1="372.5" x2="372.5" y1="512.5156" y2="525.5156"/><line style="stroke:#181818;stroke-width:1.0;stroke-dasharray:2.0,2.0;" x1="325.5" x2="372.5" y1="525.5156" y2="525.5156"/><polygon fill="#181818" points="335.5,521.5156,325.5,525.5156,335.5,529.5156,331.5,525.5156" style="stroke:#181818;stroke-width:1.0;"/><text fill="#000000" font-family="sans-serif" font-size="13" font-weight="bold" lengthAdjust="spacing" textLength="14" x="337.5" y="507.7607">10</text><text fill="#000000" font-family="sans-serif" font-size="13" lengthAdjust="spacing" textLength="22" x="355.5" y="507.7607">true</text><polygon fill="#181818" points="38.5,545.0391,28.5,549.0391,38.5,553.0391,34.5,549.0391" style="stroke:#181818;stroke-width:1.0;"/><line style="stroke:#181818;stroke-width:1.0;stroke-dasharray:2.0,2.0;" x1="32.5" x2="319.5" y1="549.0391" y2="549.0391"/><text fill="#000000" font-family="sans-serif" font-size="13" font-weight="bold" lengthAdjust="spacing" textLength="14" x="44.5" y="544.2842">11</text><text fill="#000000" font-family="sans-serif" font-size="13" lengthAdjust="spacing" textLength="152" x="62.5" y="544.2842">informs operation success</text><!--SRC=[jLBBRi8m4BpdArQSg0G_KA4S027vK848-O0bte95OgVskln-RGTeGYdgfHS_LhCpisEZPwDzioURiUAQO754VQ2DSImuh8gLqJ25ueYMvDoWbOjQaUOimugDXL7fo8u07SH3bhLeMLMgHSqmUaHMYWujO3PBh3tIF0_5ZIKNpXZ1UJuaBEQRDt8E3xGoja5ELA6u6iAMoBZst7eks18s2RPS5pzHGj-1H147Kv_8r4qK5vZcqV0hL4TZ73dOHy-x5DW4sZ3VL36Wbg3f7EzfqXwHoBBGVsK9uyb7qMpfmvFZyJVx14mjj-QSzeMfVQCdKIELmjwLNWPAdL0C9HeEap7zarWAtX9xgqColqfS78NyRuR6pbGduXvNV1r9W-kbJJnj4yCsKGpKpbOnbRlL-8czlvi87cGakzE_9D1q7_DwPUjlPwNVmtTrO5gowL-3yrKLy7srKdm1]--></g></svg>