<?xml version="1.0" encoding="us-ascii" standalone="no"?><svg xmlns="http://www.w3.org/2000/svg" xmlns:xlink="http://www.w3.org/1999/xlink" contentStyleType="text/css" height="1353px" preserveAspectRatio="none" style="width:2608px;height:1353px;background:#FFFFFF;" version="1.1" viewBox="0 0 2608 1353" width="2608px" zoomAndPan="magnify"><defs/><g><text fill="#000000" font-family="sans-serif" font-size="14" font-weight="bold" lengthAdjust="spacing" textLength="236" x="1187.75" y="27.6738">ShareBoard - SharedBoardServer</text><rect fill="#FFFFFF" height="1111.7969" style="stroke:#181818;stroke-width:1.0;" width="10" x="49.5" y="130.5625"/><rect fill="#FFFFFF" height="917.1797" style="stroke:#181818;stroke-width:1.0;" width="10" x="302.5" y="325.1797"/><rect fill="#FFFFFF" height="30" style="stroke:#181818;stroke-width:1.0;" width="10" x="473.5" y="151.0859"/><rect fill="#FFFFFF" height="28.5234" style="stroke:#181818;stroke-width:1.0;" width="10" x="473.5" y="268.1328"/><rect fill="#FFFFFF" height="30" style="stroke:#181818;stroke-width:1.0;" width="10" x="609.5" y="209.6094"/><rect fill="#FFFFFF" height="30" style="stroke:#181818;stroke-width:1.0;" width="10" x="609.5" y="1212.3594"/><rect fill="#FFFFFF" height="28.5234" style="stroke:#181818;stroke-width:1.0;" width="10" x="757" y="353.7031"/><rect fill="#FFFFFF" height="28.5234" style="stroke:#181818;stroke-width:1.0;" width="10" x="757" y="410.75"/><rect fill="#FFFFFF" height="28.5234" style="stroke:#181818;stroke-width:1.0;" width="10" x="757" y="1155.3125"/><rect fill="#FFFFFF" height="658.9922" style="stroke:#181818;stroke-width:1.0;" width="10" x="940" y="467.7969"/><rect fill="#FFFFFF" height="601.9453" style="stroke:#181818;stroke-width:1.0;" width="10" x="1301" y="496.3203"/><rect fill="#FFFFFF" height="142.6172" style="stroke:#181818;stroke-width:1.0;" width="10" x="1755" y="695.9844"/><rect fill="#FFFFFF" height="28.5234" style="stroke:#181818;stroke-width:1.0;" width="10" x="1755" y="982.6953"/><rect fill="#FFFFFF" height="28.5234" style="stroke:#181818;stroke-width:1.0;" width="10" x="1884" y="724.5078"/><rect fill="#FFFFFF" height="28.5234" style="stroke:#181818;stroke-width:1.0;" width="10" x="2069.5" y="867.125"/><rect fill="#FFFFFF" height="28.5234" style="stroke:#181818;stroke-width:1.0;" width="10" x="2226" y="781.5547"/><rect fill="#FFFFFF" height="28.5234" style="stroke:#181818;stroke-width:1.0;" width="10" x="2322.5" y="581.8906"/><rect fill="#FFFFFF" height="28.5234" style="stroke:#181818;stroke-width:1.0;" width="10" x="2322.5" y="638.9375"/><rect fill="#FFFFFF" height="28.5234" style="stroke:#181818;stroke-width:1.0;" width="10" x="2427.5" y="524.8438"/><rect fill="#FFFFFF" height="30" style="stroke:#181818;stroke-width:1.0;" width="10" x="2427.5" y="1039.7422"/><rect fill="#FFFFFF" height="30" style="stroke:#181818;stroke-width:1.0;" width="10" x="2548" y="924.1719"/><line style="stroke:#181818;stroke-width:0.5;stroke-dasharray:5.0,5.0;" x1="54" x2="54" y1="120.5625" y2="1260.3594"/><line style="stroke:#181818;stroke-width:0.5;stroke-dasharray:5.0,5.0;" x1="307.5" x2="307.5" y1="120.5625" y2="1260.3594"/><line style="stroke:#181818;stroke-width:0.5;stroke-dasharray:5.0,5.0;" x1="478.5" x2="478.5" y1="120.5625" y2="1260.3594"/><line style="stroke:#181818;stroke-width:0.5;stroke-dasharray:5.0,5.0;" x1="614.5" x2="614.5" y1="120.5625" y2="1260.3594"/><line style="stroke:#181818;stroke-width:0.5;stroke-dasharray:5.0,5.0;" x1="761.5" x2="761.5" y1="120.5625" y2="1260.3594"/><line style="stroke:#181818;stroke-width:0.5;stroke-dasharray:5.0,5.0;" x1="944.5" x2="944.5" y1="120.5625" y2="1260.3594"/><line style="stroke:#181818;stroke-width:0.5;stroke-dasharray:5.0,5.0;" x1="1306" x2="1306" y1="120.5625" y2="1260.3594"/><line style="stroke:#181818;stroke-width:0.5;stroke-dasharray:5.0,5.0;" x1="1760" x2="1760" y1="120.5625" y2="1260.3594"/><line style="stroke:#181818;stroke-width:0.5;stroke-dasharray:5.0,5.0;" x1="1889" x2="1889" y1="120.5625" y2="1260.3594"/><line style="stroke:#181818;stroke-width:0.5;stroke-dasharray:5.0,5.0;" x1="1977" x2="1977" y1="120.5625" y2="1260.3594"/><line style="stroke:#181818;stroke-width:0.5;stroke-dasharray:5.0,5.0;" x1="2074" x2="2074" y1="120.5625" y2="1260.3594"/><line style="stroke:#181818;stroke-width:0.5;stroke-dasharray:5.0,5.0;" x1="2230.5" x2="2230.5" y1="120.5625" y2="1260.3594"/><line style="stroke:#181818;stroke-width:0.5;stroke-dasharray:5.0,5.0;" x1="2327.5" x2="2327.5" y1="120.5625" y2="1260.3594"/><line style="stroke:#181818;stroke-width:0.5;stroke-dasharray:5.0,5.0;" x1="2432.5" x2="2432.5" y1="120.5625" y2="1260.3594"/><line style="stroke:#181818;stroke-width:0.5;stroke-dasharray:5.0,5.0;" x1="2552.5" x2="2552.5" y1="120.5625" y2="1260.3594"/><rect fill="#E2E2F0" height="45.2813" rx="2.5" ry="2.5" style="stroke:#181818;stroke-width:0.5;" width="99" x="5" y="74.2813"/><text fill="#000000" font-family="sans-serif" font-size="14" font-style="italic" lengthAdjust="spacing" textLength="85" x="12" y="93.9551">&#171;Application&#187;</text><text fill="#000000" font-family="sans-serif" font-size="14" lengthAdjust="spacing" textLength="77" x="16" y="109.5957">AttendClient</text><rect fill="#E2E2F0" height="45.2813" rx="2.5" ry="2.5" style="stroke:#181818;stroke-width:0.5;" width="99" x="5" y="1259.3594"/><text fill="#000000" font-family="sans-serif" font-size="14" font-style="italic" lengthAdjust="spacing" textLength="85" x="12" y="1279.0332">&#171;Application&#187;</text><text fill="#000000" font-family="sans-serif" font-size="14" lengthAdjust="spacing" textLength="77" x="16" y="1294.6738">AttendClient</text><rect fill="#E2E2F0" height="29.6406" rx="2.5" ry="2.5" style="stroke:#181818;stroke-width:0.5;" width="202" x="206.5" y="89.9219"/><text fill="#000000" font-family="sans-serif" font-size="14" lengthAdjust="spacing" textLength="188" x="213.5" y="109.5957">ChangePostItContentRequest</text><rect fill="#E2E2F0" height="29.6406" rx="2.5" ry="2.5" style="stroke:#181818;stroke-width:0.5;" width="202" x="206.5" y="1259.3594"/><text fill="#000000" font-family="sans-serif" font-size="14" lengthAdjust="spacing" textLength="188" x="213.5" y="1279.0332">ChangePostItContentRequest</text><rect fill="#E2E2F0" height="29.6406" rx="2.5" ry="2.5" style="stroke:#181818;stroke-width:0.5;" width="120" x="418.5" y="89.9219"/><text fill="#000000" font-family="sans-serif" font-size="14" lengthAdjust="spacing" textLength="106" x="425.5" y="109.5957">DataInputStream</text><rect fill="#E2E2F0" height="29.6406" rx="2.5" ry="2.5" style="stroke:#181818;stroke-width:0.5;" width="120" x="418.5" y="1259.3594"/><text fill="#000000" font-family="sans-serif" font-size="14" lengthAdjust="spacing" textLength="106" x="425.5" y="1279.0332">DataInputStream</text><rect fill="#E2E2F0" height="29.6406" rx="2.5" ry="2.5" style="stroke:#181818;stroke-width:0.5;" width="132" x="548.5" y="89.9219"/><text fill="#000000" font-family="sans-serif" font-size="14" lengthAdjust="spacing" textLength="118" x="555.5" y="109.5957">DataOutputStream</text><rect fill="#E2E2F0" height="29.6406" rx="2.5" ry="2.5" style="stroke:#181818;stroke-width:0.5;" width="132" x="548.5" y="1259.3594"/><text fill="#000000" font-family="sans-serif" font-size="14" lengthAdjust="spacing" textLength="118" x="555.5" y="1279.0332">DataOutputStream</text><rect fill="#E2E2F0" height="29.6406" rx="2.5" ry="2.5" style="stroke:#181818;stroke-width:0.5;" width="143" x="690.5" y="89.9219"/><text fill="#000000" font-family="sans-serif" font-size="14" lengthAdjust="spacing" textLength="129" x="697.5" y="109.5957">SBPMessageFormat</text><rect fill="#E2E2F0" height="29.6406" rx="2.5" ry="2.5" style="stroke:#181818;stroke-width:0.5;" width="143" x="690.5" y="1259.3594"/><text fill="#000000" font-family="sans-serif" font-size="14" lengthAdjust="spacing" textLength="129" x="697.5" y="1279.0332">SBPMessageFormat</text><text fill="#000000" font-family="sans-serif" font-size="14" font-style="italic" lengthAdjust="spacing" textLength="133" x="875.5" y="86.3145">&#171;ShareBoardServer&#187;</text><text fill="#000000" font-family="sans-serif" font-size="14" font-style="italic" lengthAdjust="spacing" textLength="85" x="899.5" y="101.9551">&#171;Application&#187;</text><text fill="#000000" font-family="sans-serif" font-size="14" lengthAdjust="spacing" textLength="197" x="843.5" y="117.5957">ChangePostItContentController</text><ellipse cx="945" cy="57.6406" fill="#E2E2F0" rx="12" ry="12" style="stroke:#181818;stroke-width:0.5;"/><polygon fill="#181818" points="941,45.6406,947,40.6406,945,45.6406,947,50.6406,941,45.6406" style="stroke:#181818;stroke-width:1.0;"/><text fill="#000000" font-family="sans-serif" font-size="14" font-style="italic" lengthAdjust="spacing" textLength="133" x="875.5" y="1272.0332">&#171;ShareBoardServer&#187;</text><text fill="#000000" font-family="sans-serif" font-size="14" font-style="italic" lengthAdjust="spacing" textLength="85" x="899.5" y="1287.6738">&#171;Application&#187;</text><text fill="#000000" font-family="sans-serif" font-size="14" lengthAdjust="spacing" textLength="197" x="843.5" y="1303.3145">ChangePostItContentController</text><ellipse cx="945" cy="1322.2813" fill="#E2E2F0" rx="12" ry="12" style="stroke:#181818;stroke-width:0.5;"/><polygon fill="#181818" points="941,1310.2813,947,1305.2813,945,1310.2813,947,1315.2813,941,1310.2813" style="stroke:#181818;stroke-width:1.0;"/><rect fill="#E2E2F0" height="45.2813" rx="2.5" ry="2.5" style="stroke:#181818;stroke-width:0.5;" width="196" x="1208" y="74.2813"/><text fill="#000000" font-family="sans-serif" font-size="14" font-style="italic" lengthAdjust="spacing" textLength="62" x="1275" y="93.9551">&#171;Service&#187;</text><text fill="#000000" font-family="sans-serif" font-size="14" lengthAdjust="spacing" textLength="182" x="1215" y="109.5957">ChangePostItContentService</text><rect fill="#E2E2F0" height="45.2813" rx="2.5" ry="2.5" style="stroke:#181818;stroke-width:0.5;" width="196" x="1208" y="1259.3594"/><text fill="#000000" font-family="sans-serif" font-size="14" font-style="italic" lengthAdjust="spacing" textLength="62" x="1275" y="1279.0332">&#171;Service&#187;</text><text fill="#000000" font-family="sans-serif" font-size="14" lengthAdjust="spacing" textLength="182" x="1215" y="1294.6738">ChangePostItContentService</text><rect fill="#E2E2F0" height="45.2813" rx="2.5" ry="2.5" style="stroke:#181818;stroke-width:0.5;" width="78" x="1721" y="74.2813"/><text fill="#000000" font-family="sans-serif" font-size="14" font-style="italic" lengthAdjust="spacing" textLength="64" x="1728" y="93.9551">&#171;Domain&#187;</text><text fill="#000000" font-family="sans-serif" font-size="14" lengthAdjust="spacing" textLength="38" x="1741" y="109.5957">Board</text><rect fill="#E2E2F0" height="45.2813" rx="2.5" ry="2.5" style="stroke:#181818;stroke-width:0.5;" width="78" x="1721" y="1259.3594"/><text fill="#000000" font-family="sans-serif" font-size="14" font-style="italic" lengthAdjust="spacing" textLength="64" x="1728" y="1279.0332">&#171;Domain&#187;</text><text fill="#000000" font-family="sans-serif" font-size="14" lengthAdjust="spacing" textLength="38" x="1741" y="1294.6738">Board</text><rect fill="#E2E2F0" height="45.2813" rx="2.5" ry="2.5" style="stroke:#181818;stroke-width:0.5;" width="78" x="1850" y="74.2813"/><text fill="#000000" font-family="sans-serif" font-size="14" font-style="italic" lengthAdjust="spacing" textLength="64" x="1857" y="93.9551">&#171;Domain&#187;</text><text fill="#000000" font-family="sans-serif" font-size="14" lengthAdjust="spacing" textLength="24" x="1877" y="109.5957">Cell</text><rect fill="#E2E2F0" height="45.2813" rx="2.5" ry="2.5" style="stroke:#181818;stroke-width:0.5;" width="78" x="1850" y="1259.3594"/><text fill="#000000" font-family="sans-serif" font-size="14" font-style="italic" lengthAdjust="spacing" textLength="64" x="1857" y="1279.0332">&#171;Domain&#187;</text><text fill="#000000" font-family="sans-serif" font-size="14" lengthAdjust="spacing" textLength="24" x="1877" y="1294.6738">Cell</text><rect fill="#E2E2F0" height="45.2813" rx="2.5" ry="2.5" style="stroke:#181818;stroke-width:0.5;" width="78" x="1938" y="74.2813"/><text fill="#000000" font-family="sans-serif" font-size="14" font-style="italic" lengthAdjust="spacing" textLength="64" x="1945" y="93.9551">&#171;Domain&#187;</text><text fill="#000000" font-family="sans-serif" font-size="14" lengthAdjust="spacing" textLength="35" x="1959.5" y="109.5957">PostIt</text><rect fill="#E2E2F0" height="45.2813" rx="2.5" ry="2.5" style="stroke:#181818;stroke-width:0.5;" width="78" x="1938" y="1259.3594"/><text fill="#000000" font-family="sans-serif" font-size="14" font-style="italic" lengthAdjust="spacing" textLength="64" x="1945" y="1279.0332">&#171;Domain&#187;</text><text fill="#000000" font-family="sans-serif" font-size="14" lengthAdjust="spacing" textLength="35" x="1959.5" y="1294.6738">PostIt</text><rect fill="#E2E2F0" height="45.2813" rx="2.5" ry="2.5" style="stroke:#181818;stroke-width:0.5;" width="97" x="2026" y="74.2813"/><text fill="#000000" font-family="sans-serif" font-size="14" font-style="italic" lengthAdjust="spacing" textLength="64" x="2042.5" y="93.9551">&#171;Domain&#187;</text><text fill="#000000" font-family="sans-serif" font-size="14" lengthAdjust="spacing" textLength="83" x="2033" y="109.5957">PostItFactory</text><rect fill="#E2E2F0" height="45.2813" rx="2.5" ry="2.5" style="stroke:#181818;stroke-width:0.5;" width="97" x="2026" y="1259.3594"/><text fill="#000000" font-family="sans-serif" font-size="14" font-style="italic" lengthAdjust="spacing" textLength="64" x="2042.5" y="1279.0332">&#171;Domain&#187;</text><text fill="#000000" font-family="sans-serif" font-size="14" lengthAdjust="spacing" textLength="83" x="2033" y="1294.6738">PostItFactory</text><rect fill="#E2E2F0" height="45.2813" rx="2.5" ry="2.5" style="stroke:#181818;stroke-width:0.5;" width="95" x="2183.5" y="74.2813"/><text fill="#000000" font-family="sans-serif" font-size="14" font-style="italic" lengthAdjust="spacing" textLength="64" x="2199" y="93.9551">&#171;Domain&#187;</text><text fill="#000000" font-family="sans-serif" font-size="14" lengthAdjust="spacing" textLength="81" x="2190.5" y="109.5957">BoardHistory</text><rect fill="#E2E2F0" height="45.2813" rx="2.5" ry="2.5" style="stroke:#181818;stroke-width:0.5;" width="95" x="2183.5" y="1259.3594"/><text fill="#000000" font-family="sans-serif" font-size="14" font-style="italic" lengthAdjust="spacing" textLength="64" x="2199" y="1279.0332">&#171;Domain&#187;</text><text fill="#000000" font-family="sans-serif" font-size="14" lengthAdjust="spacing" textLength="81" x="2190.5" y="1294.6738">BoardHistory</text><rect fill="#E2E2F0" height="45.2813" rx="2.5" ry="2.5" style="stroke:#181818;stroke-width:0.5;" width="78" x="2288.5" y="74.2813"/><text fill="#000000" font-family="sans-serif" font-size="14" font-style="italic" lengthAdjust="spacing" textLength="64" x="2295.5" y="93.9551">&#171;Domain&#187;</text><text fill="#000000" font-family="sans-serif" font-size="14" lengthAdjust="spacing" textLength="45" x="2305" y="109.5957">Person</text><rect fill="#E2E2F0" height="45.2813" rx="2.5" ry="2.5" style="stroke:#181818;stroke-width:0.5;" width="78" x="2288.5" y="1259.3594"/><text fill="#000000" font-family="sans-serif" font-size="14" font-style="italic" lengthAdjust="spacing" textLength="64" x="2295.5" y="1279.0332">&#171;Domain&#187;</text><text fill="#000000" font-family="sans-serif" font-size="14" lengthAdjust="spacing" textLength="45" x="2305" y="1294.6738">Person</text><text fill="#000000" font-family="sans-serif" font-size="14" font-style="italic" lengthAdjust="spacing" textLength="90" x="2384.5" y="101.9551">&#171;Persistence&#187;</text><text fill="#000000" font-family="sans-serif" font-size="14" lengthAdjust="spacing" textLength="106" x="2376.5" y="117.5957">BoardRepository</text><path d="M2414.5,53.2813 C2414.5,43.2813 2432.5,43.2813 2432.5,43.2813 C2432.5,43.2813 2450.5,43.2813 2450.5,53.2813 L2450.5,79.2813 C2450.5,89.2813 2432.5,89.2813 2432.5,89.2813 C2432.5,89.2813 2414.5,89.2813 2414.5,79.2813 L2414.5,53.2813 " fill="#E2E2F0" style="stroke:#181818;stroke-width:1.5;"/><path d="M2414.5,53.2813 C2414.5,63.2813 2432.5,63.2813 2432.5,63.2813 C2432.5,63.2813 2450.5,63.2813 2450.5,53.2813 " fill="none" style="stroke:#181818;stroke-width:1.5;"/><text fill="#000000" font-family="sans-serif" font-size="14" font-style="italic" lengthAdjust="spacing" textLength="90" x="2384.5" y="1272.0332">&#171;Persistence&#187;</text><text fill="#000000" font-family="sans-serif" font-size="14" lengthAdjust="spacing" textLength="106" x="2376.5" y="1287.6738">BoardRepository</text><path d="M2414.5,1300.6406 C2414.5,1290.6406 2432.5,1290.6406 2432.5,1290.6406 C2432.5,1290.6406 2450.5,1290.6406 2450.5,1300.6406 L2450.5,1326.6406 C2450.5,1336.6406 2432.5,1336.6406 2432.5,1336.6406 C2432.5,1336.6406 2414.5,1336.6406 2414.5,1326.6406 L2414.5,1300.6406 " fill="#E2E2F0" style="stroke:#181818;stroke-width:1.5;"/><path d="M2414.5,1300.6406 C2414.5,1310.6406 2432.5,1310.6406 2432.5,1310.6406 C2432.5,1310.6406 2450.5,1310.6406 2450.5,1300.6406 " fill="none" style="stroke:#181818;stroke-width:1.5;"/><text fill="#000000" font-family="sans-serif" font-size="14" font-style="italic" lengthAdjust="spacing" textLength="90" x="2505" y="101.9551">&#171;Persistence&#187;</text><text fill="#000000" font-family="sans-serif" font-size="14" lengthAdjust="spacing" textLength="103" x="2498.5" y="117.5957">PostItRepository</text><path d="M2535,53.2813 C2535,43.2813 2553,43.2813 2553,43.2813 C2553,43.2813 2571,43.2813 2571,53.2813 L2571,79.2813 C2571,89.2813 2553,89.2813 2553,89.2813 C2553,89.2813 2535,89.2813 2535,79.2813 L2535,53.2813 " fill="#E2E2F0" style="stroke:#181818;stroke-width:1.5;"/><path d="M2535,53.2813 C2535,63.2813 2553,63.2813 2553,63.2813 C2553,63.2813 2571,63.2813 2571,53.2813 " fill="none" style="stroke:#181818;stroke-width:1.5;"/><text fill="#000000" font-family="sans-serif" font-size="14" font-style="italic" lengthAdjust="spacing" textLength="90" x="2505" y="1272.0332">&#171;Persistence&#187;</text><text fill="#000000" font-family="sans-serif" font-size="14" lengthAdjust="spacing" textLength="103" x="2498.5" y="1287.6738">PostItRepository</text><path d="M2535,1300.6406 C2535,1290.6406 2553,1290.6406 2553,1290.6406 C2553,1290.6406 2571,1290.6406 2571,1300.6406 L2571,1326.6406 C2571,1336.6406 2553,1336.6406 2553,1336.6406 C2553,1336.6406 2535,1336.6406 2535,1326.6406 L2535,1300.6406 " fill="#E2E2F0" style="stroke:#181818;stroke-width:1.5;"/><path d="M2535,1300.6406 C2535,1310.6406 2553,1310.6406 2553,1310.6406 C2553,1310.6406 2571,1310.6406 2571,1300.6406 " fill="none" style="stroke:#181818;stroke-width:1.5;"/><rect fill="#FFFFFF" height="1111.7969" style="stroke:#181818;stroke-width:1.0;" width="10" x="49.5" y="130.5625"/><rect fill="#FFFFFF" height="917.1797" style="stroke:#181818;stroke-width:1.0;" width="10" x="302.5" y="325.1797"/><rect fill="#FFFFFF" height="30" style="stroke:#181818;stroke-width:1.0;" width="10" x="473.5" y="151.0859"/><rect fill="#FFFFFF" height="28.5234" style="stroke:#181818;stroke-width:1.0;" width="10" x="473.5" y="268.1328"/><rect fill="#FFFFFF" height="30" style="stroke:#181818;stroke-width:1.0;" width="10" x="609.5" y="209.6094"/><rect fill="#FFFFFF" height="30" style="stroke:#181818;stroke-width:1.0;" width="10" x="609.5" y="1212.3594"/><rect fill="#FFFFFF" height="28.5234" style="stroke:#181818;stroke-width:1.0;" width="10" x="757" y="353.7031"/><rect fill="#FFFFFF" height="28.5234" style="stroke:#181818;stroke-width:1.0;" width="10" x="757" y="410.75"/><rect fill="#FFFFFF" height="28.5234" style="stroke:#181818;stroke-width:1.0;" width="10" x="757" y="1155.3125"/><rect fill="#FFFFFF" height="658.9922" style="stroke:#181818;stroke-width:1.0;" width="10" x="940" y="467.7969"/><rect fill="#FFFFFF" height="601.9453" style="stroke:#181818;stroke-width:1.0;" width="10" x="1301" y="496.3203"/><rect fill="#FFFFFF" height="142.6172" style="stroke:#181818;stroke-width:1.0;" width="10" x="1755" y="695.9844"/><rect fill="#FFFFFF" height="28.5234" style="stroke:#181818;stroke-width:1.0;" width="10" x="1755" y="982.6953"/><rect fill="#FFFFFF" height="28.5234" style="stroke:#181818;stroke-width:1.0;" width="10" x="1884" y="724.5078"/><rect fill="#FFFFFF" height="28.5234" style="stroke:#181818;stroke-width:1.0;" width="10" x="2069.5" y="867.125"/><rect fill="#FFFFFF" height="28.5234" style="stroke:#181818;stroke-width:1.0;" width="10" x="2226" y="781.5547"/><rect fill="#FFFFFF" height="28.5234" style="stroke:#181818;stroke-width:1.0;" width="10" x="2322.5" y="581.8906"/><rect fill="#FFFFFF" height="28.5234" style="stroke:#181818;stroke-width:1.0;" width="10" x="2322.5" y="638.9375"/><rect fill="#FFFFFF" height="28.5234" style="stroke:#181818;stroke-width:1.0;" width="10" x="2427.5" y="524.8438"/><rect fill="#FFFFFF" height="30" style="stroke:#181818;stroke-width:1.0;" width="10" x="2427.5" y="1039.7422"/><rect fill="#FFFFFF" height="30" style="stroke:#181818;stroke-width:1.0;" width="10" x="2548" y="924.1719"/><polygon fill="#181818" points="461.5,147.0859,471.5,151.0859,461.5,155.0859,465.5,151.0859" style="stroke:#181818;stroke-width:1.0;"/><line style="stroke:#181818;stroke-width:1.0;" x1="59.5" x2="467.5" y1="151.0859" y2="151.0859"/><text fill="#000000" font-family="sans-serif" font-size="13" font-weight="bold" lengthAdjust="spacing" textLength="7" x="66.5" y="146.3311">1</text><text fill="#000000" font-family="sans-serif" font-size="13" lengthAdjust="spacing" textLength="83" x="77.5" y="146.3311">create(socket)</text><polygon fill="#181818" points="597.5,205.6094,607.5,209.6094,597.5,213.6094,601.5,209.6094" style="stroke:#181818;stroke-width:1.0;"/><line style="stroke:#181818;stroke-width:1.0;" x1="59.5" x2="603.5" y1="209.6094" y2="209.6094"/><text fill="#000000" font-family="sans-serif" font-size="13" font-weight="bold" lengthAdjust="spacing" textLength="7" x="66.5" y="204.8545">2</text><text fill="#000000" font-family="sans-serif" font-size="13" lengthAdjust="spacing" textLength="83" x="77.5" y="204.8545">create(socket)</text><polygon fill="#181818" points="461.5,264.1328,471.5,268.1328,461.5,272.1328,465.5,268.1328" style="stroke:#181818;stroke-width:1.0;"/><line style="stroke:#181818;stroke-width:1.0;" x1="59.5" x2="467.5" y1="268.1328" y2="268.1328"/><text fill="#000000" font-family="sans-serif" font-size="13" font-weight="bold" lengthAdjust="spacing" textLength="7" x="66.5" y="263.3779">3</text><text fill="#000000" font-family="sans-serif" font-size="13" lengthAdjust="spacing" textLength="57" x="77.5" y="263.3779">readUTF()</text><polygon fill="#181818" points="70.5,292.6563,60.5,296.6563,70.5,300.6563,66.5,296.6563" style="stroke:#181818;stroke-width:1.0;"/><line style="stroke:#181818;stroke-width:1.0;stroke-dasharray:2.0,2.0;" x1="64.5" x2="477.5" y1="296.6563" y2="296.6563"/><text fill="#000000" font-family="sans-serif" font-size="13" font-weight="bold" lengthAdjust="spacing" textLength="7" x="76.5" y="291.9014">4</text><text fill="#000000" font-family="sans-serif" font-size="13" lengthAdjust="spacing" textLength="53" x="87.5" y="291.9014">message</text><polygon fill="#181818" points="290.5,321.1797,300.5,325.1797,290.5,329.1797,294.5,325.1797" style="stroke:#181818;stroke-width:1.0;"/><line style="stroke:#181818;stroke-width:1.0;" x1="59.5" x2="296.5" y1="325.1797" y2="325.1797"/><text fill="#000000" font-family="sans-serif" font-size="13" font-weight="bold" lengthAdjust="spacing" textLength="7" x="66.5" y="320.4248">5</text><text fill="#000000" font-family="sans-serif" font-size="13" lengthAdjust="spacing" textLength="213" x="77.5" y="320.4248">changePostItPosition(message, dos)</text><polygon fill="#181818" points="745,349.7031,755,353.7031,745,357.7031,749,353.7031" style="stroke:#181818;stroke-width:1.0;"/><line style="stroke:#181818;stroke-width:1.0;" x1="312.5" x2="751" y1="353.7031" y2="353.7031"/><text fill="#000000" font-family="sans-serif" font-size="13" font-weight="bold" lengthAdjust="spacing" textLength="7" x="319.5" y="348.9482">6</text><text fill="#000000" font-family="sans-serif" font-size="13" lengthAdjust="spacing" textLength="144" x="330.5" y="348.9482">decodeFormat(message)</text><polygon fill="#181818" points="323.5,378.2266,313.5,382.2266,323.5,386.2266,319.5,382.2266" style="stroke:#181818;stroke-width:1.0;"/><line style="stroke:#181818;stroke-width:1.0;stroke-dasharray:2.0,2.0;" x1="317.5" x2="761" y1="382.2266" y2="382.2266"/><text fill="#000000" font-family="sans-serif" font-size="13" font-weight="bold" lengthAdjust="spacing" textLength="7" x="329.5" y="377.4717">7</text><text fill="#000000" font-family="sans-serif" font-size="13" lengthAdjust="spacing" textLength="70" x="340.5" y="377.4717">arrayFormat</text><polygon fill="#181818" points="745,406.75,755,410.75,745,414.75,749,410.75" style="stroke:#181818;stroke-width:1.0;"/><line style="stroke:#181818;stroke-width:1.0;" x1="312.5" x2="751" y1="410.75" y2="410.75"/><text fill="#000000" font-family="sans-serif" font-size="13" font-weight="bold" lengthAdjust="spacing" textLength="7" x="319.5" y="405.9951">8</text><text fill="#000000" font-family="sans-serif" font-size="13" lengthAdjust="spacing" textLength="148" x="330.5" y="405.9951">decodeParams(message)</text><polygon fill="#181818" points="323.5,435.2734,313.5,439.2734,323.5,443.2734,319.5,439.2734" style="stroke:#181818;stroke-width:1.0;"/><line style="stroke:#181818;stroke-width:1.0;stroke-dasharray:2.0,2.0;" x1="317.5" x2="761" y1="439.2734" y2="439.2734"/><text fill="#000000" font-family="sans-serif" font-size="13" font-weight="bold" lengthAdjust="spacing" textLength="7" x="329.5" y="434.5186">9</text><text fill="#000000" font-family="sans-serif" font-size="13" lengthAdjust="spacing" textLength="43" x="340.5" y="434.5186">params</text><polygon fill="#181818" points="928,463.7969,938,467.7969,928,471.7969,932,467.7969" style="stroke:#181818;stroke-width:1.0;"/><line style="stroke:#181818;stroke-width:1.0;" x1="312.5" x2="934" y1="467.7969" y2="467.7969"/><text fill="#000000" font-family="sans-serif" font-size="13" font-weight="bold" lengthAdjust="spacing" textLength="14" x="319.5" y="463.042">10</text><text fill="#000000" font-family="sans-serif" font-size="13" lengthAdjust="spacing" textLength="314" x="337.5" y="463.042">changePostItContent(boardTitle, row, column, content)</text><polygon fill="#181818" points="1289,492.3203,1299,496.3203,1289,500.3203,1293,496.3203" style="stroke:#181818;stroke-width:1.0;"/><line style="stroke:#181818;stroke-width:1.0;" x1="950" x2="1295" y1="496.3203" y2="496.3203"/><text fill="#000000" font-family="sans-serif" font-size="13" font-weight="bold" lengthAdjust="spacing" textLength="14" x="957" y="491.5654">11</text><text fill="#000000" font-family="sans-serif" font-size="13" lengthAdjust="spacing" textLength="314" x="975" y="491.5654">changePostItContent(boardTitle, row, column, content)</text><polygon fill="#181818" points="2415.5,520.8438,2425.5,524.8438,2415.5,528.8438,2419.5,524.8438" style="stroke:#181818;stroke-width:1.0;"/><line style="stroke:#181818;stroke-width:1.0;" x1="1311" x2="2421.5" y1="524.8438" y2="524.8438"/><text fill="#000000" font-family="sans-serif" font-size="13" font-weight="bold" lengthAdjust="spacing" textLength="14" x="1318" y="520.0889">12</text><text fill="#000000" font-family="sans-serif" font-size="13" lengthAdjust="spacing" textLength="158" x="1336" y="520.0889">findBoardByTitle(boardTitle)</text><polygon fill="#181818" points="1322,549.3672,1312,553.3672,1322,557.3672,1318,553.3672" style="stroke:#181818;stroke-width:1.0;"/><line style="stroke:#181818;stroke-width:1.0;stroke-dasharray:2.0,2.0;" x1="1316" x2="2431.5" y1="553.3672" y2="553.3672"/><text fill="#000000" font-family="sans-serif" font-size="13" font-weight="bold" lengthAdjust="spacing" textLength="14" x="1328" y="548.6123">13</text><text fill="#000000" font-family="sans-serif" font-size="13" lengthAdjust="spacing" textLength="32" x="1346" y="548.6123">board</text><polygon fill="#181818" points="2310.5,577.8906,2320.5,581.8906,2310.5,585.8906,2314.5,581.8906" style="stroke:#181818;stroke-width:1.0;"/><line style="stroke:#181818;stroke-width:1.0;" x1="1311" x2="2316.5" y1="581.8906" y2="581.8906"/><text fill="#000000" font-family="sans-serif" font-size="13" font-weight="bold" lengthAdjust="spacing" textLength="14" x="1318" y="577.1357">14</text><text fill="#000000" font-family="sans-serif" font-size="13" lengthAdjust="spacing" textLength="181" x="1336" y="577.1357">boardParticipantOfBoard(board)</text><polygon fill="#181818" points="1322,606.4141,1312,610.4141,1322,614.4141,1318,610.4141" style="stroke:#181818;stroke-width:1.0;"/><line style="stroke:#181818;stroke-width:1.0;stroke-dasharray:2.0,2.0;" x1="1316" x2="2326.5" y1="610.4141" y2="610.4141"/><text fill="#000000" font-family="sans-serif" font-size="13" font-weight="bold" lengthAdjust="spacing" textLength="14" x="1328" y="605.6592">15</text><text fill="#000000" font-family="sans-serif" font-size="13" lengthAdjust="spacing" textLength="94" x="1346" y="605.6592">boardParticipant</text><polygon fill="#181818" points="2310.5,634.9375,2320.5,638.9375,2310.5,642.9375,2314.5,638.9375" style="stroke:#181818;stroke-width:1.0;"/><line style="stroke:#181818;stroke-width:1.0;" x1="1311" x2="2316.5" y1="638.9375" y2="638.9375"/><text fill="#000000" font-family="sans-serif" font-size="13" font-weight="bold" lengthAdjust="spacing" textLength="14" x="1318" y="634.1826">16</text><text fill="#000000" font-family="sans-serif" font-size="13" lengthAdjust="spacing" textLength="156" x="1336" y="634.1826">boardOwnerOfBoard(board)</text><polygon fill="#181818" points="1322,663.4609,1312,667.4609,1322,671.4609,1318,667.4609" style="stroke:#181818;stroke-width:1.0;"/><line style="stroke:#181818;stroke-width:1.0;stroke-dasharray:2.0,2.0;" x1="1316" x2="2326.5" y1="667.4609" y2="667.4609"/><text fill="#000000" font-family="sans-serif" font-size="13" font-weight="bold" lengthAdjust="spacing" textLength="14" x="1328" y="662.7061">17</text><text fill="#000000" font-family="sans-serif" font-size="13" lengthAdjust="spacing" textLength="69" x="1346" y="662.7061">boardOwner</text><polygon fill="#181818" points="1743,691.9844,1753,695.9844,1743,699.9844,1747,695.9844" style="stroke:#181818;stroke-width:1.0;"/><line style="stroke:#181818;stroke-width:1.0;" x1="1311" x2="1749" y1="695.9844" y2="695.9844"/><text fill="#000000" font-family="sans-serif" font-size="13" font-weight="bold" lengthAdjust="spacing" textLength="14" x="1318" y="691.2295">18</text><text fill="#000000" font-family="sans-serif" font-size="13" lengthAdjust="spacing" textLength="407" x="1336" y="691.2295">verifyPostItCanBeUpdated(row, column, boardParticipant, boardOwner)</text><polygon fill="#181818" points="1872,720.5078,1882,724.5078,1872,728.5078,1876,724.5078" style="stroke:#181818;stroke-width:1.0;"/><line style="stroke:#181818;stroke-width:1.0;" x1="1765" x2="1878" y1="724.5078" y2="724.5078"/><text fill="#000000" font-family="sans-serif" font-size="13" font-weight="bold" lengthAdjust="spacing" textLength="14" x="1772" y="719.7529">19</text><text fill="#000000" font-family="sans-serif" font-size="13" lengthAdjust="spacing" textLength="82" x="1790" y="719.7529">currentPostIt()</text><polygon fill="#181818" points="1776,749.0313,1766,753.0313,1776,757.0313,1772,753.0313" style="stroke:#181818;stroke-width:1.0;"/><line style="stroke:#181818;stroke-width:1.0;stroke-dasharray:2.0,2.0;" x1="1770" x2="1888" y1="753.0313" y2="753.0313"/><text fill="#000000" font-family="sans-serif" font-size="13" font-weight="bold" lengthAdjust="spacing" textLength="14" x="1782" y="748.2764">20</text><text fill="#000000" font-family="sans-serif" font-size="13" lengthAdjust="spacing" textLength="32" x="1800" y="748.2764">postIt</text><polygon fill="#181818" points="2214,777.5547,2224,781.5547,2214,785.5547,2218,781.5547" style="stroke:#181818;stroke-width:1.0;"/><line style="stroke:#181818;stroke-width:1.0;" x1="1765" x2="2220" y1="781.5547" y2="781.5547"/><text fill="#000000" font-family="sans-serif" font-size="13" font-weight="bold" lengthAdjust="spacing" textLength="14" x="1772" y="776.7998">21</text><text fill="#000000" font-family="sans-serif" font-size="13" lengthAdjust="spacing" textLength="424" x="1790" y="776.7998">checkIfPostItCanBeUpdatedByUser(postIt, boardParticipant, boardOwner)</text><polygon fill="#181818" points="1776,806.0781,1766,810.0781,1776,814.0781,1772,810.0781" style="stroke:#181818;stroke-width:1.0;"/><line style="stroke:#181818;stroke-width:1.0;stroke-dasharray:2.0,2.0;" x1="1770" x2="2230" y1="810.0781" y2="810.0781"/><text fill="#000000" font-family="sans-serif" font-size="13" font-weight="bold" lengthAdjust="spacing" textLength="14" x="1782" y="805.3232">22</text><text fill="#000000" font-family="sans-serif" font-size="13" lengthAdjust="spacing" textLength="45" x="1800" y="805.3232">boolean</text><polygon fill="#181818" points="1322,834.6016,1312,838.6016,1322,842.6016,1318,838.6016" style="stroke:#181818;stroke-width:1.0;"/><line style="stroke:#181818;stroke-width:1.0;stroke-dasharray:2.0,2.0;" x1="1316" x2="1759" y1="838.6016" y2="838.6016"/><text fill="#000000" font-family="sans-serif" font-size="13" font-weight="bold" lengthAdjust="spacing" textLength="14" x="1328" y="833.8467">23</text><text fill="#000000" font-family="sans-serif" font-size="13" lengthAdjust="spacing" textLength="51" x="1346" y="833.8467">oldPostIt</text><polygon fill="#181818" points="2057.5,863.125,2067.5,867.125,2057.5,871.125,2061.5,867.125" style="stroke:#181818;stroke-width:1.0;"/><line style="stroke:#181818;stroke-width:1.0;" x1="1311" x2="2063.5" y1="867.125" y2="867.125"/><text fill="#000000" font-family="sans-serif" font-size="13" font-weight="bold" lengthAdjust="spacing" textLength="14" x="1318" y="862.3701">24</text><text fill="#000000" font-family="sans-serif" font-size="13" lengthAdjust="spacing" textLength="252" x="1336" y="862.3701">buildFromExistingPostIt(content, postItKey)</text><polygon fill="#181818" points="1322,891.6484,1312,895.6484,1322,899.6484,1318,895.6484" style="stroke:#181818;stroke-width:1.0;"/><line style="stroke:#181818;stroke-width:1.0;stroke-dasharray:2.0,2.0;" x1="1316" x2="2073.5" y1="895.6484" y2="895.6484"/><text fill="#000000" font-family="sans-serif" font-size="13" font-weight="bold" lengthAdjust="spacing" textLength="14" x="1328" y="890.8936">25</text><text fill="#000000" font-family="sans-serif" font-size="13" lengthAdjust="spacing" textLength="57" x="1346" y="890.8936">newPostIt</text><polygon fill="#181818" points="2536,920.1719,2546,924.1719,2536,928.1719,2540,924.1719" style="stroke:#181818;stroke-width:1.0;"/><line style="stroke:#181818;stroke-width:1.0;" x1="1311" x2="2542" y1="924.1719" y2="924.1719"/><text fill="#000000" font-family="sans-serif" font-size="13" font-weight="bold" lengthAdjust="spacing" textLength="14" x="1318" y="919.417">26</text><text fill="#000000" font-family="sans-serif" font-size="13" lengthAdjust="spacing" textLength="91" x="1336" y="919.417">save(newPostIt)</text><polygon fill="#181818" points="1743,978.6953,1753,982.6953,1743,986.6953,1747,982.6953" style="stroke:#181818;stroke-width:1.0;"/><line style="stroke:#181818;stroke-width:1.0;" x1="1311" x2="1749" y1="982.6953" y2="982.6953"/><text fill="#000000" font-family="sans-serif" font-size="13" font-weight="bold" lengthAdjust="spacing" textLength="14" x="1318" y="977.9404">27</text><text fill="#000000" font-family="sans-serif" font-size="13" lengthAdjust="spacing" textLength="196" x="1336" y="977.9404">updateCell(newPostIt,row,column)</text><polygon fill="#181818" points="1322,1007.2188,1312,1011.2188,1322,1015.2188,1318,1011.2188" style="stroke:#181818;stroke-width:1.0;"/><line style="stroke:#181818;stroke-width:1.0;stroke-dasharray:2.0,2.0;" x1="1316" x2="1759" y1="1011.2188" y2="1011.2188"/><text fill="#000000" font-family="sans-serif" font-size="13" font-weight="bold" lengthAdjust="spacing" textLength="14" x="1328" y="1006.4639">28</text><text fill="#000000" font-family="sans-serif" font-size="13" lengthAdjust="spacing" textLength="45" x="1346" y="1006.4639">boolean</text><polygon fill="#181818" points="2415.5,1035.7422,2425.5,1039.7422,2415.5,1043.7422,2419.5,1039.7422" style="stroke:#181818;stroke-width:1.0;"/><line style="stroke:#181818;stroke-width:1.0;" x1="1311" x2="2421.5" y1="1039.7422" y2="1039.7422"/><text fill="#000000" font-family="sans-serif" font-size="13" font-weight="bold" lengthAdjust="spacing" textLength="14" x="1318" y="1034.9873">29</text><text fill="#000000" font-family="sans-serif" font-size="13" lengthAdjust="spacing" textLength="66" x="1336" y="1034.9873">save(board)</text><polygon fill="#181818" points="961,1094.2656,951,1098.2656,961,1102.2656,957,1098.2656" style="stroke:#181818;stroke-width:1.0;"/><line style="stroke:#181818;stroke-width:1.0;stroke-dasharray:2.0,2.0;" x1="955" x2="1305" y1="1098.2656" y2="1098.2656"/><text fill="#000000" font-family="sans-serif" font-size="13" font-weight="bold" lengthAdjust="spacing" textLength="14" x="967" y="1093.5107">30</text><text fill="#000000" font-family="sans-serif" font-size="13" lengthAdjust="spacing" textLength="106" x="985" y="1093.5107">operation success</text><polygon fill="#181818" points="323.5,1122.7891,313.5,1126.7891,323.5,1130.7891,319.5,1126.7891" style="stroke:#181818;stroke-width:1.0;"/><line style="stroke:#181818;stroke-width:1.0;stroke-dasharray:2.0,2.0;" x1="317.5" x2="944" y1="1126.7891" y2="1126.7891"/><text fill="#000000" font-family="sans-serif" font-size="13" font-weight="bold" lengthAdjust="spacing" textLength="14" x="329.5" y="1122.0342">31</text><text fill="#000000" font-family="sans-serif" font-size="13" lengthAdjust="spacing" textLength="106" x="347.5" y="1122.0342">operation success</text><polygon fill="#181818" points="745,1151.3125,755,1155.3125,745,1159.3125,749,1155.3125" style="stroke:#181818;stroke-width:1.0;"/><line style="stroke:#181818;stroke-width:1.0;" x1="312.5" x2="751" y1="1155.3125" y2="1155.3125"/><text fill="#000000" font-family="sans-serif" font-size="13" font-weight="bold" lengthAdjust="spacing" textLength="14" x="319.5" y="1150.5576">32</text><text fill="#000000" font-family="sans-serif" font-size="13" lengthAdjust="spacing" textLength="169" x="337.5" y="1150.5576">createAcknowledgeRequest()</text><polygon fill="#181818" points="323.5,1179.8359,313.5,1183.8359,323.5,1187.8359,319.5,1183.8359" style="stroke:#181818;stroke-width:1.0;"/><line style="stroke:#181818;stroke-width:1.0;stroke-dasharray:2.0,2.0;" x1="317.5" x2="761" y1="1183.8359" y2="1183.8359"/><text fill="#000000" font-family="sans-serif" font-size="13" font-weight="bold" lengthAdjust="spacing" textLength="14" x="329.5" y="1179.0811">33</text><text fill="#000000" font-family="sans-serif" font-size="13" lengthAdjust="spacing" textLength="69" x="347.5" y="1179.0811">ackRequest</text><polygon fill="#181818" points="597.5,1208.3594,607.5,1212.3594,597.5,1216.3594,601.5,1212.3594" style="stroke:#181818;stroke-width:1.0;"/><line style="stroke:#181818;stroke-width:1.0;" x1="312.5" x2="603.5" y1="1212.3594" y2="1212.3594"/><text fill="#000000" font-family="sans-serif" font-size="13" font-weight="bold" lengthAdjust="spacing" textLength="14" x="319.5" y="1207.6045">34</text><text fill="#000000" font-family="sans-serif" font-size="13" lengthAdjust="spacing" textLength="128" x="337.5" y="1207.6045">writeUTF(ackRequest)</text><!--SRC=[fLRTRjem6BtFK-Goa-WBe0e9Gb2ZiIPBw6uhatnGYyJERAUCjv__qjW1EbMxGexFET__Pr0lAEdRFR10OD50MBuX1YkAM1q-c4EjJoMmTmaAEiG4hd27Y0YNGW2fumQ3F20UBkFmyN7PTGskaC2KB1OUF7v3v0WvvI8LCIMIAmhutGFNv2BvwQ7NIA2KTBqe1GFKAiWwBQyWMIzyJEPZobN-0pX7HzXGrY9jIdtR19LqWT7cbbknkMg0ANYSFU-ARBjD2XdUc1-JaSNYgp4h7gv0Ev8Klz8uKRBcuuHjwY21gsnPh2LiJLk4hsn0qsW_a-ts7iPue51vLkvUqztdm0sg16KNZN_TwBhUH6i7dp0VmDhFrwUql2iFZ5EYTPEYp9vTN2tBkKSSZ6e17UNO5owIF9CC9I9j0j49-w0PrtsUZVOsCmXacFWT2P2j6yWe7nQgny9vMCbs4X1nMfr0V1jXgWDhy8wMbdrAotnQLdhM9Aj-sMsYYI46ecSaR4txMeOS4sN8QQjSXIixBxB0MLXJxaYfmL8iITQDB-arLBIs0p7G78QP3siUCOOk1dfR9aSCjVnVCfr63GhEIFd1s1c9zge5TceZpK96pxEmeatV4lMh0OwPKIjmP9MRThh-su8L2WP1gUtqupmyO6AMvEgY1HrjHsMa33dHC5VLpiJStEJZt6G7hM-47Kr3yFGSrdtfx4o0VK5Kuw_Ybsfo0-B3nMOMaHMyT78UeOwyb4uTcpcgqmm5HberYTfdidWzOx8UneOx8-h-extqxSWT5v6gFbIdz73jvEhome55XlirBvNqc27Q02B3aJQrCUMbNszHcVqUD_M6qJRv8_SG9aSRbcswcGtaErpSWYZo84_WV4FUNNFpaADtY3w0hfA3SpUIz_r6cNkTCFNGZB8pLM9JuQiQJZ9pRt2qdzFsS-R4yV1wUcW7J3-v8U-hIcwV-nUEZhCj9jlCBEzbTIBqt41z1Fld9Bgx6QkJXGnIvXKuCon0xVCHyFbRu1pLidQEo_Wl]--></g></svg>