<?xml version="1.0" encoding="us-ascii" standalone="no"?><svg xmlns="http://www.w3.org/2000/svg" xmlns:xlink="http://www.w3.org/1999/xlink" contentStyleType="text/css" height="647px" preserveAspectRatio="none" style="width:1031px;height:647px;background:#FFFFFF;" version="1.1" viewBox="0 0 1031 647" width="1031px" zoomAndPan="magnify"><defs/><g><text fill="#000000" font-family="sans-serif" font-size="14" font-weight="bold" lengthAdjust="spacing" textLength="296" x="366.5" y="27.6738">ChangePostItContent - SharedBoardClient</text><rect fill="#FFFFFF" height="430.7578" style="stroke:#181818;stroke-width:1.0;" width="10" x="17.5" y="127.2813"/><rect fill="#FFFFFF" height="401.2344" style="stroke:#181818;stroke-width:1.0;" width="10" x="231.5" y="147.8047"/><rect fill="#FFFFFF" height="329.1875" style="stroke:#181818;stroke-width:1.0;" width="10" x="236.5" y="184.3281"/><rect fill="#FFFFFF" height="28.5234" style="stroke:#181818;stroke-width:1.0;" width="10" x="676.5" y="217.8516"/><rect fill="#FFFFFF" height="30" style="stroke:#181818;stroke-width:1.0;" width="10" x="824" y="274.8984"/><rect fill="#FFFFFF" height="30" style="stroke:#181818;stroke-width:1.0;" width="10" x="824" y="391.9453"/><rect fill="#FFFFFF" height="30" style="stroke:#181818;stroke-width:1.0;" width="10" x="960" y="333.4219"/><rect fill="#FFFFFF" height="28.5234" style="stroke:#181818;stroke-width:1.0;" width="10" x="960" y="450.4688"/><line style="stroke:#181818;stroke-width:0.5;stroke-dasharray:5.0,5.0;" x1="22" x2="22" y1="117.2813" y2="567.0391"/><line style="stroke:#181818;stroke-width:0.5;stroke-dasharray:5.0,5.0;" x1="236" x2="236" y1="117.2813" y2="567.0391"/><line style="stroke:#181818;stroke-width:0.5;stroke-dasharray:5.0,5.0;" x1="681" x2="681" y1="117.2813" y2="567.0391"/><line style="stroke:#181818;stroke-width:0.5;stroke-dasharray:5.0,5.0;" x1="829" x2="829" y1="117.2813" y2="567.0391"/><line style="stroke:#181818;stroke-width:0.5;stroke-dasharray:5.0,5.0;" x1="965" x2="965" y1="117.2813" y2="567.0391"/><text fill="#000000" font-family="sans-serif" font-size="14" lengthAdjust="spacing" textLength="29" x="5" y="114.3145">User</text><ellipse cx="22.5" cy="50.1406" fill="#E2E2F0" rx="8" ry="8" style="stroke:#181818;stroke-width:0.5;"/><path d="M22.5,58.1406 L22.5,85.1406 M9.5,66.1406 L35.5,66.1406 M22.5,85.1406 L9.5,100.1406 M22.5,85.1406 L35.5,100.1406 " fill="none" style="stroke:#181818;stroke-width:0.5;"/><text fill="#000000" font-family="sans-serif" font-size="14" lengthAdjust="spacing" textLength="29" x="5" y="578.7129">User</text><ellipse cx="22.5" cy="590.1797" fill="#E2E2F0" rx="8" ry="8" style="stroke:#181818;stroke-width:0.5;"/><path d="M22.5,598.1797 L22.5,625.1797 M9.5,606.1797 L35.5,606.1797 M22.5,625.1797 L9.5,640.1797 M22.5,625.1797 L35.5,640.1797 " fill="none" style="stroke:#181818;stroke-width:0.5;"/><rect fill="#E2E2F0" height="60.9219" rx="2.5" ry="2.5" style="stroke:#181818;stroke-width:0.5;" width="161" x="156" y="55.3594"/><text fill="#000000" font-family="sans-serif" font-size="14" font-style="italic" lengthAdjust="spacing" textLength="128" x="172.5" y="75.0332">&#171;ShareBoardClient&#187;</text><text fill="#000000" font-family="sans-serif" font-size="14" font-style="italic" lengthAdjust="spacing" textLength="96" x="188.5" y="90.6738">&#171;Presentation&#187;</text><text fill="#000000" font-family="sans-serif" font-size="14" lengthAdjust="spacing" textLength="147" x="163" y="106.3145">ChangePostItContentUI</text><rect fill="#E2E2F0" height="60.9219" rx="2.5" ry="2.5" style="stroke:#181818;stroke-width:0.5;" width="161" x="156" y="566.0391"/><text fill="#000000" font-family="sans-serif" font-size="14" font-style="italic" lengthAdjust="spacing" textLength="128" x="172.5" y="585.7129">&#171;ShareBoardClient&#187;</text><text fill="#000000" font-family="sans-serif" font-size="14" font-style="italic" lengthAdjust="spacing" textLength="96" x="188.5" y="601.3535">&#171;Presentation&#187;</text><text fill="#000000" font-family="sans-serif" font-size="14" lengthAdjust="spacing" textLength="147" x="163" y="616.9941">ChangePostItContentUI</text><rect fill="#E2E2F0" height="29.6406" rx="2.5" ry="2.5" style="stroke:#181818;stroke-width:0.5;" width="143" x="610" y="86.6406"/><text fill="#000000" font-family="sans-serif" font-size="14" lengthAdjust="spacing" textLength="129" x="617" y="106.3145">SBPMessageFormat</text><rect fill="#E2E2F0" height="29.6406" rx="2.5" ry="2.5" style="stroke:#181818;stroke-width:0.5;" width="143" x="610" y="566.0391"/><text fill="#000000" font-family="sans-serif" font-size="14" lengthAdjust="spacing" textLength="129" x="617" y="585.7129">SBPMessageFormat</text><rect fill="#E2E2F0" height="29.6406" rx="2.5" ry="2.5" style="stroke:#181818;stroke-width:0.5;" width="132" x="763" y="86.6406"/><text fill="#000000" font-family="sans-serif" font-size="14" lengthAdjust="spacing" textLength="118" x="770" y="106.3145">DataOutputStream</text><rect fill="#E2E2F0" height="29.6406" rx="2.5" ry="2.5" style="stroke:#181818;stroke-width:0.5;" width="132" x="763" y="566.0391"/><text fill="#000000" font-family="sans-serif" font-size="14" lengthAdjust="spacing" textLength="118" x="770" y="585.7129">DataOutputStream</text><rect fill="#E2E2F0" height="29.6406" rx="2.5" ry="2.5" style="stroke:#181818;stroke-width:0.5;" width="120" x="905" y="86.6406"/><text fill="#000000" font-family="sans-serif" font-size="14" lengthAdjust="spacing" textLength="106" x="912" y="106.3145">DataInputStream</text><rect fill="#E2E2F0" height="29.6406" rx="2.5" ry="2.5" style="stroke:#181818;stroke-width:0.5;" width="120" x="905" y="566.0391"/><text fill="#000000" font-family="sans-serif" font-size="14" lengthAdjust="spacing" textLength="106" x="912" y="585.7129">DataInputStream</text><rect fill="#FFFFFF" height="430.7578" style="stroke:#181818;stroke-width:1.0;" width="10" x="17.5" y="127.2813"/><rect fill="#FFFFFF" height="401.2344" style="stroke:#181818;stroke-width:1.0;" width="10" x="231.5" y="147.8047"/><rect fill="#FFFFFF" height="329.1875" style="stroke:#181818;stroke-width:1.0;" width="10" x="236.5" y="184.3281"/><rect fill="#FFFFFF" height="28.5234" style="stroke:#181818;stroke-width:1.0;" width="10" x="676.5" y="217.8516"/><rect fill="#FFFFFF" height="30" style="stroke:#181818;stroke-width:1.0;" width="10" x="824" y="274.8984"/><rect fill="#FFFFFF" height="30" style="stroke:#181818;stroke-width:1.0;" width="10" x="824" y="391.9453"/><rect fill="#FFFFFF" height="30" style="stroke:#181818;stroke-width:1.0;" width="10" x="960" y="333.4219"/><rect fill="#FFFFFF" height="28.5234" style="stroke:#181818;stroke-width:1.0;" width="10" x="960" y="450.4688"/><polygon fill="#181818" points="219.5,143.8047,229.5,147.8047,219.5,151.8047,223.5,147.8047" style="stroke:#181818;stroke-width:1.0;"/><line style="stroke:#181818;stroke-width:1.0;" x1="27.5" x2="225.5" y1="147.8047" y2="147.8047"/><text fill="#000000" font-family="sans-serif" font-size="13" font-weight="bold" lengthAdjust="spacing" textLength="7" x="34.5" y="143.0498">1</text><text fill="#000000" font-family="sans-serif" font-size="13" lengthAdjust="spacing" textLength="174" x="45.5" y="143.0498">chooses boardTitle and post-it</text><line style="stroke:#181818;stroke-width:1.0;" x1="241.5" x2="288.5" y1="171.3281" y2="171.3281"/><line style="stroke:#181818;stroke-width:1.0;" x1="288.5" x2="288.5" y1="171.3281" y2="184.3281"/><line style="stroke:#181818;stroke-width:1.0;" x1="247.5" x2="288.5" y1="184.3281" y2="184.3281"/><polygon fill="#181818" points="257.5,180.3281,247.5,184.3281,257.5,188.3281,253.5,184.3281" style="stroke:#181818;stroke-width:1.0;"/><text fill="#000000" font-family="sans-serif" font-size="13" font-weight="bold" lengthAdjust="spacing" textLength="7" x="253.5" y="166.5732">2</text><text fill="#000000" font-family="sans-serif" font-size="13" lengthAdjust="spacing" textLength="392" x="264.5" y="166.5732">sendChangePostItContentRequest(boardTitle, row, column, content)</text><polygon fill="#181818" points="664.5,213.8516,674.5,217.8516,664.5,221.8516,668.5,217.8516" style="stroke:#181818;stroke-width:1.0;"/><line style="stroke:#181818;stroke-width:1.0;" x1="246.5" x2="670.5" y1="217.8516" y2="217.8516"/><text fill="#000000" font-family="sans-serif" font-size="13" font-weight="bold" lengthAdjust="spacing" textLength="7" x="253.5" y="213.0967">3</text><text fill="#000000" font-family="sans-serif" font-size="13" lengthAdjust="spacing" textLength="400" x="264.5" y="213.0967">createChangePostItContentRequest(boardTitle, row, column, content)</text><polygon fill="#181818" points="257.5,242.375,247.5,246.375,257.5,250.375,253.5,246.375" style="stroke:#181818;stroke-width:1.0;"/><line style="stroke:#181818;stroke-width:1.0;stroke-dasharray:2.0,2.0;" x1="251.5" x2="680.5" y1="246.375" y2="246.375"/><text fill="#000000" font-family="sans-serif" font-size="13" font-weight="bold" lengthAdjust="spacing" textLength="7" x="263.5" y="241.6201">4</text><text fill="#000000" font-family="sans-serif" font-size="13" lengthAdjust="spacing" textLength="169" x="274.5" y="241.6201">changePostItContentRequest</text><polygon fill="#181818" points="812,270.8984,822,274.8984,812,278.8984,816,274.8984" style="stroke:#181818;stroke-width:1.0;"/><line style="stroke:#181818;stroke-width:1.0;" x1="246.5" x2="818" y1="274.8984" y2="274.8984"/><text fill="#000000" font-family="sans-serif" font-size="13" font-weight="bold" lengthAdjust="spacing" textLength="7" x="253.5" y="270.1436">5</text><text fill="#000000" font-family="sans-serif" font-size="13" lengthAdjust="spacing" textLength="83" x="264.5" y="270.1436">create(socket)</text><polygon fill="#181818" points="948,329.4219,958,333.4219,948,337.4219,952,333.4219" style="stroke:#181818;stroke-width:1.0;"/><line style="stroke:#181818;stroke-width:1.0;" x1="246.5" x2="954" y1="333.4219" y2="333.4219"/><text fill="#000000" font-family="sans-serif" font-size="13" font-weight="bold" lengthAdjust="spacing" textLength="7" x="253.5" y="328.667">6</text><text fill="#000000" font-family="sans-serif" font-size="13" lengthAdjust="spacing" textLength="83" x="264.5" y="328.667">create(socket)</text><polygon fill="#181818" points="812,387.9453,822,391.9453,812,395.9453,816,391.9453" style="stroke:#181818;stroke-width:1.0;"/><line style="stroke:#181818;stroke-width:1.0;" x1="246.5" x2="818" y1="391.9453" y2="391.9453"/><text fill="#000000" font-family="sans-serif" font-size="13" font-weight="bold" lengthAdjust="spacing" textLength="7" x="253.5" y="387.1904">7</text><text fill="#000000" font-family="sans-serif" font-size="13" lengthAdjust="spacing" textLength="228" x="264.5" y="387.1904">writeUTF(changePostItContentRequest)</text><polygon fill="#181818" points="948,446.4688,958,450.4688,948,454.4688,952,450.4688" style="stroke:#181818;stroke-width:1.0;"/><line style="stroke:#181818;stroke-width:1.0;" x1="246.5" x2="954" y1="450.4688" y2="450.4688"/><text fill="#000000" font-family="sans-serif" font-size="13" font-weight="bold" lengthAdjust="spacing" textLength="7" x="253.5" y="445.7139">8</text><text fill="#000000" font-family="sans-serif" font-size="13" lengthAdjust="spacing" textLength="57" x="264.5" y="445.7139">readUTF()</text><polygon fill="#181818" points="257.5,474.9922,247.5,478.9922,257.5,482.9922,253.5,478.9922" style="stroke:#181818;stroke-width:1.0;"/><line style="stroke:#181818;stroke-width:1.0;stroke-dasharray:2.0,2.0;" x1="251.5" x2="964" y1="478.9922" y2="478.9922"/><text fill="#000000" font-family="sans-serif" font-size="13" font-weight="bold" lengthAdjust="spacing" textLength="7" x="263.5" y="474.2373">9</text><text fill="#000000" font-family="sans-serif" font-size="13" lengthAdjust="spacing" textLength="53" x="274.5" y="474.2373">message</text><line style="stroke:#181818;stroke-width:1.0;stroke-dasharray:2.0,2.0;" x1="246.5" x2="288.5" y1="512.5156" y2="512.5156"/><line style="stroke:#181818;stroke-width:1.0;stroke-dasharray:2.0,2.0;" x1="288.5" x2="288.5" y1="512.5156" y2="525.5156"/><line style="stroke:#181818;stroke-width:1.0;stroke-dasharray:2.0,2.0;" x1="241.5" x2="288.5" y1="525.5156" y2="525.5156"/><polygon fill="#181818" points="251.5,521.5156,241.5,525.5156,251.5,529.5156,247.5,525.5156" style="stroke:#181818;stroke-width:1.0;"/><text fill="#000000" font-family="sans-serif" font-size="13" font-weight="bold" lengthAdjust="spacing" textLength="14" x="253.5" y="507.7607">10</text><text fill="#000000" font-family="sans-serif" font-size="13" lengthAdjust="spacing" textLength="22" x="271.5" y="507.7607">true</text><polygon fill="#181818" points="38.5,545.0391,28.5,549.0391,38.5,553.0391,34.5,549.0391" style="stroke:#181818;stroke-width:1.0;"/><line style="stroke:#181818;stroke-width:1.0;stroke-dasharray:2.0,2.0;" x1="32.5" x2="235.5" y1="549.0391" y2="549.0391"/><text fill="#000000" font-family="sans-serif" font-size="13" font-weight="bold" lengthAdjust="spacing" textLength="14" x="44.5" y="544.2842">11</text><text fill="#000000" font-family="sans-serif" font-size="13" lengthAdjust="spacing" textLength="152" x="62.5" y="544.2842">informs operation success</text><!--SRC=[hLB1Ri8m3BtdAonEJ88Vc50FW91oc40h_G3JUX2D9ftZZDzVqW9h6KmxxD8wrdlFxrd68Cw6UaUinCYHO750kwUDyw9buQoG5PX2Va2cQkwGgyNHn9vIM8fZ61MUU0Je8HLADSXYIjDWf8tkQ1Mw0skOpLhHdcQMnUQ6oSSQnJYRPKEzVBvv8UznJol7DKeh5Pkh8Mo9WkiWJP1ScB1kOSjr_XEbxGr8vocN-KIXBb3wm3HBXf-XF3ZdoSCkUTwswq9RGHC3Jetqc5gfIBZGOfxgpYfUwIEGb_6tsWJOdIPGkcEeRVgtkAU1SAURGYT3qRdG_sYtUsIIm3O6VQHudX-tUHq_zgvyfxvKsdL5W-UPfd-bwI5DvuDf9pP2nNOrVkpkxnwYXIfftOm_vw-xAxiyXSErDlOjtfu7rn2tHme-b6N4zwSL-Wi0]--></g></svg>