<?xml version="1.0" encoding="us-ascii" standalone="no"?><svg xmlns="http://www.w3.org/2000/svg" xmlns:xlink="http://www.w3.org/1999/xlink" contentStyleType="text/css" height="1352px" preserveAspectRatio="none" style="width:2657px;height:1352px;background:#FFFFFF;" version="1.1" viewBox="0 0 2657 1352" width="2657px" zoomAndPan="magnify"><defs/><g><text fill="#000000" font-family="sans-serif" font-size="14" font-weight="bold" lengthAdjust="spacing" textLength="236" x="1212.25" y="27.6738">ShareBoard - SharedBoardServer</text><rect fill="#FFFFFF" height="1110.3203" style="stroke:#181818;stroke-width:1.0;" width="10" x="49.5" y="130.5625"/><rect fill="#FFFFFF" height="858.6563" style="stroke:#181818;stroke-width:1.0;" width="10" x="302.5" y="382.2266"/><rect fill="#FFFFFF" height="30" style="stroke:#181818;stroke-width:1.0;" width="10" x="473.5" y="151.0859"/><rect fill="#FFFFFF" height="28.5234" style="stroke:#181818;stroke-width:1.0;" width="10" x="473.5" y="268.1328"/><rect fill="#FFFFFF" height="30" style="stroke:#181818;stroke-width:1.0;" width="10" x="609.5" y="209.6094"/><rect fill="#FFFFFF" height="30" style="stroke:#181818;stroke-width:1.0;" width="10" x="609.5" y="1210.8828"/><rect fill="#FFFFFF" height="28.5234" style="stroke:#181818;stroke-width:1.0;" width="10" x="757" y="325.1797"/><rect fill="#FFFFFF" height="28.5234" style="stroke:#181818;stroke-width:1.0;" width="10" x="757" y="410.75"/><rect fill="#FFFFFF" height="28.5234" style="stroke:#181818;stroke-width:1.0;" width="10" x="757" y="1153.8359"/><rect fill="#FFFFFF" height="657.5156" style="stroke:#181818;stroke-width:1.0;" width="10" x="940" y="467.7969"/><rect fill="#FFFFFF" height="600.4688" style="stroke:#181818;stroke-width:1.0;" width="10" x="1428" y="496.3203"/><rect fill="#FFFFFF" height="142.6172" style="stroke:#181818;stroke-width:1.0;" width="10" x="1923" y="695.9844"/><rect fill="#FFFFFF" height="28.5234" style="stroke:#181818;stroke-width:1.0;" width="10" x="1923" y="867.125"/><rect fill="#FFFFFF" height="28.5234" style="stroke:#181818;stroke-width:1.0;" width="10" x="1923" y="924.1719"/><rect fill="#FFFFFF" height="28.5234" style="stroke:#181818;stroke-width:1.0;" width="10" x="1923" y="981.2188"/><rect fill="#FFFFFF" height="28.5234" style="stroke:#181818;stroke-width:1.0;" width="10" x="2052" y="724.5078"/><rect fill="#FFFFFF" height="28.5234" style="stroke:#181818;stroke-width:1.0;" width="10" x="2394" y="781.5547"/><rect fill="#FFFFFF" height="28.5234" style="stroke:#181818;stroke-width:1.0;" width="10" x="2490.5" y="581.8906"/><rect fill="#FFFFFF" height="28.5234" style="stroke:#181818;stroke-width:1.0;" width="10" x="2490.5" y="638.9375"/><rect fill="#FFFFFF" height="28.5234" style="stroke:#181818;stroke-width:1.0;" width="10" x="2595.5" y="524.8438"/><rect fill="#FFFFFF" height="30" style="stroke:#181818;stroke-width:1.0;" width="10" x="2595.5" y="1038.2656"/><line style="stroke:#181818;stroke-width:0.5;stroke-dasharray:5.0,5.0;" x1="54" x2="54" y1="120.5625" y2="1258.8828"/><line style="stroke:#181818;stroke-width:0.5;stroke-dasharray:5.0,5.0;" x1="307.5" x2="307.5" y1="120.5625" y2="1258.8828"/><line style="stroke:#181818;stroke-width:0.5;stroke-dasharray:5.0,5.0;" x1="478.5" x2="478.5" y1="120.5625" y2="1258.8828"/><line style="stroke:#181818;stroke-width:0.5;stroke-dasharray:5.0,5.0;" x1="614.5" x2="614.5" y1="120.5625" y2="1258.8828"/><line style="stroke:#181818;stroke-width:0.5;stroke-dasharray:5.0,5.0;" x1="761.5" x2="761.5" y1="120.5625" y2="1258.8828"/><line style="stroke:#181818;stroke-width:0.5;stroke-dasharray:5.0,5.0;" x1="944.5" x2="944.5" y1="120.5625" y2="1258.8828"/><line style="stroke:#181818;stroke-width:0.5;stroke-dasharray:5.0,5.0;" x1="1433" x2="1433" y1="120.5625" y2="1258.8828"/><line style="stroke:#181818;stroke-width:0.5;stroke-dasharray:5.0,5.0;" x1="1928" x2="1928" y1="120.5625" y2="1258.8828"/><line style="stroke:#181818;stroke-width:0.5;stroke-dasharray:5.0,5.0;" x1="2057" x2="2057" y1="120.5625" y2="1258.8828"/><line style="stroke:#181818;stroke-width:0.5;stroke-dasharray:5.0,5.0;" x1="2398.5" x2="2398.5" y1="120.5625" y2="1258.8828"/><line style="stroke:#181818;stroke-width:0.5;stroke-dasharray:5.0,5.0;" x1="2495.5" x2="2495.5" y1="120.5625" y2="1258.8828"/><line style="stroke:#181818;stroke-width:0.5;stroke-dasharray:5.0,5.0;" x1="2600.5" x2="2600.5" y1="120.5625" y2="1258.8828"/><rect fill="#E2E2F0" height="45.2813" rx="2.5" ry="2.5" style="stroke:#181818;stroke-width:0.5;" width="99" x="5" y="74.2813"/><text fill="#000000" font-family="sans-serif" font-size="14" font-style="italic" lengthAdjust="spacing" textLength="85" x="12" y="93.9551">&#171;Application&#187;</text><text fill="#000000" font-family="sans-serif" font-size="14" lengthAdjust="spacing" textLength="77" x="16" y="109.5957">AttendClient</text><rect fill="#E2E2F0" height="45.2813" rx="2.5" ry="2.5" style="stroke:#181818;stroke-width:0.5;" width="99" x="5" y="1257.8828"/><text fill="#000000" font-family="sans-serif" font-size="14" font-style="italic" lengthAdjust="spacing" textLength="85" x="12" y="1277.5566">&#171;Application&#187;</text><text fill="#000000" font-family="sans-serif" font-size="14" lengthAdjust="spacing" textLength="77" x="16" y="1293.1973">AttendClient</text><rect fill="#E2E2F0" height="29.6406" rx="2.5" ry="2.5" style="stroke:#181818;stroke-width:0.5;" width="202" x="206.5" y="89.9219"/><text fill="#000000" font-family="sans-serif" font-size="14" lengthAdjust="spacing" textLength="188" x="213.5" y="109.5957">ChangePostItPositionRequest</text><rect fill="#E2E2F0" height="29.6406" rx="2.5" ry="2.5" style="stroke:#181818;stroke-width:0.5;" width="202" x="206.5" y="1257.8828"/><text fill="#000000" font-family="sans-serif" font-size="14" lengthAdjust="spacing" textLength="188" x="213.5" y="1277.5566">ChangePostItPositionRequest</text><rect fill="#E2E2F0" height="29.6406" rx="2.5" ry="2.5" style="stroke:#181818;stroke-width:0.5;" width="120" x="418.5" y="89.9219"/><text fill="#000000" font-family="sans-serif" font-size="14" lengthAdjust="spacing" textLength="106" x="425.5" y="109.5957">DataInputStream</text><rect fill="#E2E2F0" height="29.6406" rx="2.5" ry="2.5" style="stroke:#181818;stroke-width:0.5;" width="120" x="418.5" y="1257.8828"/><text fill="#000000" font-family="sans-serif" font-size="14" lengthAdjust="spacing" textLength="106" x="425.5" y="1277.5566">DataInputStream</text><rect fill="#E2E2F0" height="29.6406" rx="2.5" ry="2.5" style="stroke:#181818;stroke-width:0.5;" width="132" x="548.5" y="89.9219"/><text fill="#000000" font-family="sans-serif" font-size="14" lengthAdjust="spacing" textLength="118" x="555.5" y="109.5957">DataOutputStream</text><rect fill="#E2E2F0" height="29.6406" rx="2.5" ry="2.5" style="stroke:#181818;stroke-width:0.5;" width="132" x="548.5" y="1257.8828"/><text fill="#000000" font-family="sans-serif" font-size="14" lengthAdjust="spacing" textLength="118" x="555.5" y="1277.5566">DataOutputStream</text><rect fill="#E2E2F0" height="29.6406" rx="2.5" ry="2.5" style="stroke:#181818;stroke-width:0.5;" width="143" x="690.5" y="89.9219"/><text fill="#000000" font-family="sans-serif" font-size="14" lengthAdjust="spacing" textLength="129" x="697.5" y="109.5957">SBPMessageFormat</text><rect fill="#E2E2F0" height="29.6406" rx="2.5" ry="2.5" style="stroke:#181818;stroke-width:0.5;" width="143" x="690.5" y="1257.8828"/><text fill="#000000" font-family="sans-serif" font-size="14" lengthAdjust="spacing" textLength="129" x="697.5" y="1277.5566">SBPMessageFormat</text><text fill="#000000" font-family="sans-serif" font-size="14" font-style="italic" lengthAdjust="spacing" textLength="133" x="875.5" y="86.3145">&#171;ShareBoardServer&#187;</text><text fill="#000000" font-family="sans-serif" font-size="14" font-style="italic" lengthAdjust="spacing" textLength="85" x="899.5" y="101.9551">&#171;Application&#187;</text><text fill="#000000" font-family="sans-serif" font-size="14" lengthAdjust="spacing" textLength="197" x="843.5" y="117.5957">ChangePostItPositionController</text><ellipse cx="945" cy="57.6406" fill="#E2E2F0" rx="12" ry="12" style="stroke:#181818;stroke-width:0.5;"/><polygon fill="#181818" points="941,45.6406,947,40.6406,945,45.6406,947,50.6406,941,45.6406" style="stroke:#181818;stroke-width:1.0;"/><text fill="#000000" font-family="sans-serif" font-size="14" font-style="italic" lengthAdjust="spacing" textLength="133" x="875.5" y="1270.5566">&#171;ShareBoardServer&#187;</text><text fill="#000000" font-family="sans-serif" font-size="14" font-style="italic" lengthAdjust="spacing" textLength="85" x="899.5" y="1286.1973">&#171;Application&#187;</text><text fill="#000000" font-family="sans-serif" font-size="14" lengthAdjust="spacing" textLength="197" x="843.5" y="1301.8379">ChangePostItPositionController</text><ellipse cx="945" cy="1320.8047" fill="#E2E2F0" rx="12" ry="12" style="stroke:#181818;stroke-width:0.5;"/><polygon fill="#181818" points="941,1308.8047,947,1303.8047,945,1308.8047,947,1313.8047,941,1308.8047" style="stroke:#181818;stroke-width:1.0;"/><rect fill="#E2E2F0" height="45.2813" rx="2.5" ry="2.5" style="stroke:#181818;stroke-width:0.5;" width="196" x="1335" y="74.2813"/><text fill="#000000" font-family="sans-serif" font-size="14" font-style="italic" lengthAdjust="spacing" textLength="62" x="1402" y="93.9551">&#171;Service&#187;</text><text fill="#000000" font-family="sans-serif" font-size="14" lengthAdjust="spacing" textLength="182" x="1342" y="109.5957">ChangePostItPositionService</text><rect fill="#E2E2F0" height="45.2813" rx="2.5" ry="2.5" style="stroke:#181818;stroke-width:0.5;" width="196" x="1335" y="1257.8828"/><text fill="#000000" font-family="sans-serif" font-size="14" font-style="italic" lengthAdjust="spacing" textLength="62" x="1402" y="1277.5566">&#171;Service&#187;</text><text fill="#000000" font-family="sans-serif" font-size="14" lengthAdjust="spacing" textLength="182" x="1342" y="1293.1973">ChangePostItPositionService</text><rect fill="#E2E2F0" height="45.2813" rx="2.5" ry="2.5" style="stroke:#181818;stroke-width:0.5;" width="78" x="1889" y="74.2813"/><text fill="#000000" font-family="sans-serif" font-size="14" font-style="italic" lengthAdjust="spacing" textLength="64" x="1896" y="93.9551">&#171;Domain&#187;</text><text fill="#000000" font-family="sans-serif" font-size="14" lengthAdjust="spacing" textLength="38" x="1909" y="109.5957">Board</text><rect fill="#E2E2F0" height="45.2813" rx="2.5" ry="2.5" style="stroke:#181818;stroke-width:0.5;" width="78" x="1889" y="1257.8828"/><text fill="#000000" font-family="sans-serif" font-size="14" font-style="italic" lengthAdjust="spacing" textLength="64" x="1896" y="1277.5566">&#171;Domain&#187;</text><text fill="#000000" font-family="sans-serif" font-size="14" lengthAdjust="spacing" textLength="38" x="1909" y="1293.1973">Board</text><rect fill="#E2E2F0" height="45.2813" rx="2.5" ry="2.5" style="stroke:#181818;stroke-width:0.5;" width="78" x="2018" y="74.2813"/><text fill="#000000" font-family="sans-serif" font-size="14" font-style="italic" lengthAdjust="spacing" textLength="64" x="2025" y="93.9551">&#171;Domain&#187;</text><text fill="#000000" font-family="sans-serif" font-size="14" lengthAdjust="spacing" textLength="24" x="2045" y="109.5957">Cell</text><rect fill="#E2E2F0" height="45.2813" rx="2.5" ry="2.5" style="stroke:#181818;stroke-width:0.5;" width="78" x="2018" y="1257.8828"/><text fill="#000000" font-family="sans-serif" font-size="14" font-style="italic" lengthAdjust="spacing" textLength="64" x="2025" y="1277.5566">&#171;Domain&#187;</text><text fill="#000000" font-family="sans-serif" font-size="14" lengthAdjust="spacing" textLength="24" x="2045" y="1293.1973">Cell</text><rect fill="#E2E2F0" height="45.2813" rx="2.5" ry="2.5" style="stroke:#181818;stroke-width:0.5;" width="95" x="2351.5" y="74.2813"/><text fill="#000000" font-family="sans-serif" font-size="14" font-style="italic" lengthAdjust="spacing" textLength="64" x="2367" y="93.9551">&#171;Domain&#187;</text><text fill="#000000" font-family="sans-serif" font-size="14" lengthAdjust="spacing" textLength="81" x="2358.5" y="109.5957">BoardHistory</text><rect fill="#E2E2F0" height="45.2813" rx="2.5" ry="2.5" style="stroke:#181818;stroke-width:0.5;" width="95" x="2351.5" y="1257.8828"/><text fill="#000000" font-family="sans-serif" font-size="14" font-style="italic" lengthAdjust="spacing" textLength="64" x="2367" y="1277.5566">&#171;Domain&#187;</text><text fill="#000000" font-family="sans-serif" font-size="14" lengthAdjust="spacing" textLength="81" x="2358.5" y="1293.1973">BoardHistory</text><rect fill="#E2E2F0" height="45.2813" rx="2.5" ry="2.5" style="stroke:#181818;stroke-width:0.5;" width="78" x="2456.5" y="74.2813"/><text fill="#000000" font-family="sans-serif" font-size="14" font-style="italic" lengthAdjust="spacing" textLength="64" x="2463.5" y="93.9551">&#171;Domain&#187;</text><text fill="#000000" font-family="sans-serif" font-size="14" lengthAdjust="spacing" textLength="45" x="2473" y="109.5957">Person</text><rect fill="#E2E2F0" height="45.2813" rx="2.5" ry="2.5" style="stroke:#181818;stroke-width:0.5;" width="78" x="2456.5" y="1257.8828"/><text fill="#000000" font-family="sans-serif" font-size="14" font-style="italic" lengthAdjust="spacing" textLength="64" x="2463.5" y="1277.5566">&#171;Domain&#187;</text><text fill="#000000" font-family="sans-serif" font-size="14" lengthAdjust="spacing" textLength="45" x="2473" y="1293.1973">Person</text><text fill="#000000" font-family="sans-serif" font-size="14" font-style="italic" lengthAdjust="spacing" textLength="90" x="2552.5" y="101.9551">&#171;Persistence&#187;</text><text fill="#000000" font-family="sans-serif" font-size="14" lengthAdjust="spacing" textLength="106" x="2544.5" y="117.5957">BoardRepository</text><path d="M2582.5,53.2813 C2582.5,43.2813 2600.5,43.2813 2600.5,43.2813 C2600.5,43.2813 2618.5,43.2813 2618.5,53.2813 L2618.5,79.2813 C2618.5,89.2813 2600.5,89.2813 2600.5,89.2813 C2600.5,89.2813 2582.5,89.2813 2582.5,79.2813 L2582.5,53.2813 " fill="#E2E2F0" style="stroke:#181818;stroke-width:1.5;"/><path d="M2582.5,53.2813 C2582.5,63.2813 2600.5,63.2813 2600.5,63.2813 C2600.5,63.2813 2618.5,63.2813 2618.5,53.2813 " fill="none" style="stroke:#181818;stroke-width:1.5;"/><text fill="#000000" font-family="sans-serif" font-size="14" font-style="italic" lengthAdjust="spacing" textLength="90" x="2552.5" y="1270.5566">&#171;Persistence&#187;</text><text fill="#000000" font-family="sans-serif" font-size="14" lengthAdjust="spacing" textLength="106" x="2544.5" y="1286.1973">BoardRepository</text><path d="M2582.5,1299.1641 C2582.5,1289.1641 2600.5,1289.1641 2600.5,1289.1641 C2600.5,1289.1641 2618.5,1289.1641 2618.5,1299.1641 L2618.5,1325.1641 C2618.5,1335.1641 2600.5,1335.1641 2600.5,1335.1641 C2600.5,1335.1641 2582.5,1335.1641 2582.5,1325.1641 L2582.5,1299.1641 " fill="#E2E2F0" style="stroke:#181818;stroke-width:1.5;"/><path d="M2582.5,1299.1641 C2582.5,1309.1641 2600.5,1309.1641 2600.5,1309.1641 C2600.5,1309.1641 2618.5,1309.1641 2618.5,1299.1641 " fill="none" style="stroke:#181818;stroke-width:1.5;"/><rect fill="#FFFFFF" height="1110.3203" style="stroke:#181818;stroke-width:1.0;" width="10" x="49.5" y="130.5625"/><rect fill="#FFFFFF" height="858.6563" style="stroke:#181818;stroke-width:1.0;" width="10" x="302.5" y="382.2266"/><rect fill="#FFFFFF" height="30" style="stroke:#181818;stroke-width:1.0;" width="10" x="473.5" y="151.0859"/><rect fill="#FFFFFF" height="28.5234" style="stroke:#181818;stroke-width:1.0;" width="10" x="473.5" y="268.1328"/><rect fill="#FFFFFF" height="30" style="stroke:#181818;stroke-width:1.0;" width="10" x="609.5" y="209.6094"/><rect fill="#FFFFFF" height="30" style="stroke:#181818;stroke-width:1.0;" width="10" x="609.5" y="1210.8828"/><rect fill="#FFFFFF" height="28.5234" style="stroke:#181818;stroke-width:1.0;" width="10" x="757" y="325.1797"/><rect fill="#FFFFFF" height="28.5234" style="stroke:#181818;stroke-width:1.0;" width="10" x="757" y="410.75"/><rect fill="#FFFFFF" height="28.5234" style="stroke:#181818;stroke-width:1.0;" width="10" x="757" y="1153.8359"/><rect fill="#FFFFFF" height="657.5156" style="stroke:#181818;stroke-width:1.0;" width="10" x="940" y="467.7969"/><rect fill="#FFFFFF" height="600.4688" style="stroke:#181818;stroke-width:1.0;" width="10" x="1428" y="496.3203"/><rect fill="#FFFFFF" height="142.6172" style="stroke:#181818;stroke-width:1.0;" width="10" x="1923" y="695.9844"/><rect fill="#FFFFFF" height="28.5234" style="stroke:#181818;stroke-width:1.0;" width="10" x="1923" y="867.125"/><rect fill="#FFFFFF" height="28.5234" style="stroke:#181818;stroke-width:1.0;" width="10" x="1923" y="924.1719"/><rect fill="#FFFFFF" height="28.5234" style="stroke:#181818;stroke-width:1.0;" width="10" x="1923" y="981.2188"/><rect fill="#FFFFFF" height="28.5234" style="stroke:#181818;stroke-width:1.0;" width="10" x="2052" y="724.5078"/><rect fill="#FFFFFF" height="28.5234" style="stroke:#181818;stroke-width:1.0;" width="10" x="2394" y="781.5547"/><rect fill="#FFFFFF" height="28.5234" style="stroke:#181818;stroke-width:1.0;" width="10" x="2490.5" y="581.8906"/><rect fill="#FFFFFF" height="28.5234" style="stroke:#181818;stroke-width:1.0;" width="10" x="2490.5" y="638.9375"/><rect fill="#FFFFFF" height="28.5234" style="stroke:#181818;stroke-width:1.0;" width="10" x="2595.5" y="524.8438"/><rect fill="#FFFFFF" height="30" style="stroke:#181818;stroke-width:1.0;" width="10" x="2595.5" y="1038.2656"/><polygon fill="#181818" points="461.5,147.0859,471.5,151.0859,461.5,155.0859,465.5,151.0859" style="stroke:#181818;stroke-width:1.0;"/><line style="stroke:#181818;stroke-width:1.0;" x1="59.5" x2="467.5" y1="151.0859" y2="151.0859"/><text fill="#000000" font-family="sans-serif" font-size="13" font-weight="bold" lengthAdjust="spacing" textLength="7" x="66.5" y="146.3311">1</text><text fill="#000000" font-family="sans-serif" font-size="13" lengthAdjust="spacing" textLength="83" x="77.5" y="146.3311">create(socket)</text><polygon fill="#181818" points="597.5,205.6094,607.5,209.6094,597.5,213.6094,601.5,209.6094" style="stroke:#181818;stroke-width:1.0;"/><line style="stroke:#181818;stroke-width:1.0;" x1="59.5" x2="603.5" y1="209.6094" y2="209.6094"/><text fill="#000000" font-family="sans-serif" font-size="13" font-weight="bold" lengthAdjust="spacing" textLength="7" x="66.5" y="204.8545">2</text><text fill="#000000" font-family="sans-serif" font-size="13" lengthAdjust="spacing" textLength="83" x="77.5" y="204.8545">create(socket)</text><polygon fill="#181818" points="461.5,264.1328,471.5,268.1328,461.5,272.1328,465.5,268.1328" style="stroke:#181818;stroke-width:1.0;"/><line style="stroke:#181818;stroke-width:1.0;" x1="59.5" x2="467.5" y1="268.1328" y2="268.1328"/><text fill="#000000" font-family="sans-serif" font-size="13" font-weight="bold" lengthAdjust="spacing" textLength="7" x="66.5" y="263.3779">3</text><text fill="#000000" font-family="sans-serif" font-size="13" lengthAdjust="spacing" textLength="57" x="77.5" y="263.3779">readUTF()</text><polygon fill="#181818" points="70.5,292.6563,60.5,296.6563,70.5,300.6563,66.5,296.6563" style="stroke:#181818;stroke-width:1.0;"/><line style="stroke:#181818;stroke-width:1.0;stroke-dasharray:2.0,2.0;" x1="64.5" x2="477.5" y1="296.6563" y2="296.6563"/><text fill="#000000" font-family="sans-serif" font-size="13" font-weight="bold" lengthAdjust="spacing" textLength="7" x="76.5" y="291.9014">4</text><text fill="#000000" font-family="sans-serif" font-size="13" lengthAdjust="spacing" textLength="53" x="87.5" y="291.9014">message</text><polygon fill="#181818" points="745,321.1797,755,325.1797,745,329.1797,749,325.1797" style="stroke:#181818;stroke-width:1.0;"/><line style="stroke:#181818;stroke-width:1.0;" x1="59.5" x2="751" y1="325.1797" y2="325.1797"/><text fill="#000000" font-family="sans-serif" font-size="13" font-weight="bold" lengthAdjust="spacing" textLength="7" x="66.5" y="320.4248">5</text><text fill="#000000" font-family="sans-serif" font-size="13" lengthAdjust="spacing" textLength="144" x="77.5" y="320.4248">decodeFormat(message)</text><polygon fill="#181818" points="70.5,349.7031,60.5,353.7031,70.5,357.7031,66.5,353.7031" style="stroke:#181818;stroke-width:1.0;"/><line style="stroke:#181818;stroke-width:1.0;stroke-dasharray:2.0,2.0;" x1="64.5" x2="761" y1="353.7031" y2="353.7031"/><text fill="#000000" font-family="sans-serif" font-size="13" font-weight="bold" lengthAdjust="spacing" textLength="7" x="76.5" y="348.9482">6</text><text fill="#000000" font-family="sans-serif" font-size="13" lengthAdjust="spacing" textLength="70" x="87.5" y="348.9482">arrayFormat</text><polygon fill="#181818" points="290.5,378.2266,300.5,382.2266,290.5,386.2266,294.5,382.2266" style="stroke:#181818;stroke-width:1.0;"/><line style="stroke:#181818;stroke-width:1.0;" x1="59.5" x2="296.5" y1="382.2266" y2="382.2266"/><text fill="#000000" font-family="sans-serif" font-size="13" font-weight="bold" lengthAdjust="spacing" textLength="7" x="66.5" y="377.4717">7</text><text fill="#000000" font-family="sans-serif" font-size="13" lengthAdjust="spacing" textLength="213" x="77.5" y="377.4717">changePostItPosition(message, dos)</text><polygon fill="#181818" points="745,406.75,755,410.75,745,414.75,749,410.75" style="stroke:#181818;stroke-width:1.0;"/><line style="stroke:#181818;stroke-width:1.0;" x1="312.5" x2="751" y1="410.75" y2="410.75"/><text fill="#000000" font-family="sans-serif" font-size="13" font-weight="bold" lengthAdjust="spacing" textLength="7" x="319.5" y="405.9951">8</text><text fill="#000000" font-family="sans-serif" font-size="13" lengthAdjust="spacing" textLength="148" x="330.5" y="405.9951">decodeParams(message)</text><polygon fill="#181818" points="323.5,435.2734,313.5,439.2734,323.5,443.2734,319.5,439.2734" style="stroke:#181818;stroke-width:1.0;"/><line style="stroke:#181818;stroke-width:1.0;stroke-dasharray:2.0,2.0;" x1="317.5" x2="761" y1="439.2734" y2="439.2734"/><text fill="#000000" font-family="sans-serif" font-size="13" font-weight="bold" lengthAdjust="spacing" textLength="7" x="329.5" y="434.5186">9</text><text fill="#000000" font-family="sans-serif" font-size="13" lengthAdjust="spacing" textLength="43" x="340.5" y="434.5186">params</text><polygon fill="#181818" points="928,463.7969,938,467.7969,928,471.7969,932,467.7969" style="stroke:#181818;stroke-width:1.0;"/><line style="stroke:#181818;stroke-width:1.0;" x1="312.5" x2="934" y1="467.7969" y2="467.7969"/><text fill="#000000" font-family="sans-serif" font-size="13" font-weight="bold" lengthAdjust="spacing" textLength="14" x="319.5" y="463.042">10</text><text fill="#000000" font-family="sans-serif" font-size="13" lengthAdjust="spacing" textLength="441" x="337.5" y="463.042">changePostItPosition(boardTitle, oldRow, oldColumn, newRow , newColumn)</text><polygon fill="#181818" points="1416,492.3203,1426,496.3203,1416,500.3203,1420,496.3203" style="stroke:#181818;stroke-width:1.0;"/><line style="stroke:#181818;stroke-width:1.0;" x1="950" x2="1422" y1="496.3203" y2="496.3203"/><text fill="#000000" font-family="sans-serif" font-size="13" font-weight="bold" lengthAdjust="spacing" textLength="14" x="957" y="491.5654">11</text><text fill="#000000" font-family="sans-serif" font-size="13" lengthAdjust="spacing" textLength="441" x="975" y="491.5654">changePostItPosition(boardTitle, oldRow, oldColumn, newRow , newColumn)</text><polygon fill="#181818" points="2583.5,520.8438,2593.5,524.8438,2583.5,528.8438,2587.5,524.8438" style="stroke:#181818;stroke-width:1.0;"/><line style="stroke:#181818;stroke-width:1.0;" x1="1438" x2="2589.5" y1="524.8438" y2="524.8438"/><text fill="#000000" font-family="sans-serif" font-size="13" font-weight="bold" lengthAdjust="spacing" textLength="14" x="1445" y="520.0889">12</text><text fill="#000000" font-family="sans-serif" font-size="13" lengthAdjust="spacing" textLength="158" x="1463" y="520.0889">findBoardByTitle(boardTitle)</text><polygon fill="#181818" points="1449,549.3672,1439,553.3672,1449,557.3672,1445,553.3672" style="stroke:#181818;stroke-width:1.0;"/><line style="stroke:#181818;stroke-width:1.0;stroke-dasharray:2.0,2.0;" x1="1443" x2="2599.5" y1="553.3672" y2="553.3672"/><text fill="#000000" font-family="sans-serif" font-size="13" font-weight="bold" lengthAdjust="spacing" textLength="14" x="1455" y="548.6123">13</text><text fill="#000000" font-family="sans-serif" font-size="13" lengthAdjust="spacing" textLength="32" x="1473" y="548.6123">board</text><polygon fill="#181818" points="2478.5,577.8906,2488.5,581.8906,2478.5,585.8906,2482.5,581.8906" style="stroke:#181818;stroke-width:1.0;"/><line style="stroke:#181818;stroke-width:1.0;" x1="1438" x2="2484.5" y1="581.8906" y2="581.8906"/><text fill="#000000" font-family="sans-serif" font-size="13" font-weight="bold" lengthAdjust="spacing" textLength="14" x="1445" y="577.1357">14</text><text fill="#000000" font-family="sans-serif" font-size="13" lengthAdjust="spacing" textLength="181" x="1463" y="577.1357">boardParticipantOfBoard(board)</text><polygon fill="#181818" points="1449,606.4141,1439,610.4141,1449,614.4141,1445,610.4141" style="stroke:#181818;stroke-width:1.0;"/><line style="stroke:#181818;stroke-width:1.0;stroke-dasharray:2.0,2.0;" x1="1443" x2="2494.5" y1="610.4141" y2="610.4141"/><text fill="#000000" font-family="sans-serif" font-size="13" font-weight="bold" lengthAdjust="spacing" textLength="14" x="1455" y="605.6592">15</text><text fill="#000000" font-family="sans-serif" font-size="13" lengthAdjust="spacing" textLength="94" x="1473" y="605.6592">boardParticipant</text><polygon fill="#181818" points="2478.5,634.9375,2488.5,638.9375,2478.5,642.9375,2482.5,638.9375" style="stroke:#181818;stroke-width:1.0;"/><line style="stroke:#181818;stroke-width:1.0;" x1="1438" x2="2484.5" y1="638.9375" y2="638.9375"/><text fill="#000000" font-family="sans-serif" font-size="13" font-weight="bold" lengthAdjust="spacing" textLength="14" x="1445" y="634.1826">16</text><text fill="#000000" font-family="sans-serif" font-size="13" lengthAdjust="spacing" textLength="156" x="1463" y="634.1826">boardOwnerOfBoard(board)</text><polygon fill="#181818" points="1449,663.4609,1439,667.4609,1449,671.4609,1445,667.4609" style="stroke:#181818;stroke-width:1.0;"/><line style="stroke:#181818;stroke-width:1.0;stroke-dasharray:2.0,2.0;" x1="1443" x2="2494.5" y1="667.4609" y2="667.4609"/><text fill="#000000" font-family="sans-serif" font-size="13" font-weight="bold" lengthAdjust="spacing" textLength="14" x="1455" y="662.7061">17</text><text fill="#000000" font-family="sans-serif" font-size="13" lengthAdjust="spacing" textLength="69" x="1473" y="662.7061">boardOwner</text><polygon fill="#181818" points="1911,691.9844,1921,695.9844,1911,699.9844,1915,695.9844" style="stroke:#181818;stroke-width:1.0;"/><line style="stroke:#181818;stroke-width:1.0;" x1="1438" x2="1917" y1="695.9844" y2="695.9844"/><text fill="#000000" font-family="sans-serif" font-size="13" font-weight="bold" lengthAdjust="spacing" textLength="14" x="1445" y="691.2295">18</text><text fill="#000000" font-family="sans-serif" font-size="13" lengthAdjust="spacing" textLength="448" x="1463" y="691.2295">verifyPostItCanBeUpdated(oldRow, oldColumn, boardParticipant, boardOwner)</text><polygon fill="#181818" points="2040,720.5078,2050,724.5078,2040,728.5078,2044,724.5078" style="stroke:#181818;stroke-width:1.0;"/><line style="stroke:#181818;stroke-width:1.0;" x1="1933" x2="2046" y1="724.5078" y2="724.5078"/><text fill="#000000" font-family="sans-serif" font-size="13" font-weight="bold" lengthAdjust="spacing" textLength="14" x="1940" y="719.7529">19</text><text fill="#000000" font-family="sans-serif" font-size="13" lengthAdjust="spacing" textLength="82" x="1958" y="719.7529">currentPostIt()</text><polygon fill="#181818" points="1944,749.0313,1934,753.0313,1944,757.0313,1940,753.0313" style="stroke:#181818;stroke-width:1.0;"/><line style="stroke:#181818;stroke-width:1.0;stroke-dasharray:2.0,2.0;" x1="1938" x2="2056" y1="753.0313" y2="753.0313"/><text fill="#000000" font-family="sans-serif" font-size="13" font-weight="bold" lengthAdjust="spacing" textLength="14" x="1950" y="748.2764">20</text><text fill="#000000" font-family="sans-serif" font-size="13" lengthAdjust="spacing" textLength="32" x="1968" y="748.2764">postIt</text><polygon fill="#181818" points="2382,777.5547,2392,781.5547,2382,785.5547,2386,781.5547" style="stroke:#181818;stroke-width:1.0;"/><line style="stroke:#181818;stroke-width:1.0;" x1="1933" x2="2388" y1="781.5547" y2="781.5547"/><text fill="#000000" font-family="sans-serif" font-size="13" font-weight="bold" lengthAdjust="spacing" textLength="14" x="1940" y="776.7998">21</text><text fill="#000000" font-family="sans-serif" font-size="13" lengthAdjust="spacing" textLength="424" x="1958" y="776.7998">checkIfPostItCanBeUpdatedByUser(postIt, boardParticipant, boardOwner)</text><polygon fill="#181818" points="1944,806.0781,1934,810.0781,1944,814.0781,1940,810.0781" style="stroke:#181818;stroke-width:1.0;"/><line style="stroke:#181818;stroke-width:1.0;stroke-dasharray:2.0,2.0;" x1="1938" x2="2398" y1="810.0781" y2="810.0781"/><text fill="#000000" font-family="sans-serif" font-size="13" font-weight="bold" lengthAdjust="spacing" textLength="14" x="1950" y="805.3232">22</text><text fill="#000000" font-family="sans-serif" font-size="13" lengthAdjust="spacing" textLength="45" x="1968" y="805.3232">boolean</text><polygon fill="#181818" points="1449,834.6016,1439,838.6016,1449,842.6016,1445,838.6016" style="stroke:#181818;stroke-width:1.0;"/><line style="stroke:#181818;stroke-width:1.0;stroke-dasharray:2.0,2.0;" x1="1443" x2="1927" y1="838.6016" y2="838.6016"/><text fill="#000000" font-family="sans-serif" font-size="13" font-weight="bold" lengthAdjust="spacing" textLength="14" x="1455" y="833.8467">23</text><text fill="#000000" font-family="sans-serif" font-size="13" lengthAdjust="spacing" textLength="32" x="1473" y="833.8467">postIt</text><polygon fill="#181818" points="1911,863.125,1921,867.125,1911,871.125,1915,867.125" style="stroke:#181818;stroke-width:1.0;"/><line style="stroke:#181818;stroke-width:1.0;" x1="1438" x2="1917" y1="867.125" y2="867.125"/><text fill="#000000" font-family="sans-serif" font-size="13" font-weight="bold" lengthAdjust="spacing" textLength="14" x="1445" y="862.3701">24</text><text fill="#000000" font-family="sans-serif" font-size="13" lengthAdjust="spacing" textLength="249" x="1463" y="862.3701">verifyIfCellIsAvailable(newRow, newColumn)</text><polygon fill="#181818" points="1449,891.6484,1439,895.6484,1449,899.6484,1445,895.6484" style="stroke:#181818;stroke-width:1.0;"/><line style="stroke:#181818;stroke-width:1.0;stroke-dasharray:2.0,2.0;" x1="1443" x2="1927" y1="895.6484" y2="895.6484"/><text fill="#000000" font-family="sans-serif" font-size="13" font-weight="bold" lengthAdjust="spacing" textLength="14" x="1455" y="890.8936">25</text><text fill="#000000" font-family="sans-serif" font-size="13" lengthAdjust="spacing" textLength="45" x="1473" y="890.8936">boolean</text><polygon fill="#181818" points="1911,920.1719,1921,924.1719,1911,928.1719,1915,924.1719" style="stroke:#181818;stroke-width:1.0;"/><line style="stroke:#181818;stroke-width:1.0;" x1="1438" x2="1917" y1="924.1719" y2="924.1719"/><text fill="#000000" font-family="sans-serif" font-size="13" font-weight="bold" lengthAdjust="spacing" textLength="14" x="1445" y="919.417">26</text><text fill="#000000" font-family="sans-serif" font-size="13" lengthAdjust="spacing" textLength="242" x="1463" y="919.417">updateCellPostIt(null, oldRow, oldColumn)</text><polygon fill="#181818" points="1449,948.6953,1439,952.6953,1449,956.6953,1445,952.6953" style="stroke:#181818;stroke-width:1.0;"/><line style="stroke:#181818;stroke-width:1.0;stroke-dasharray:2.0,2.0;" x1="1443" x2="1927" y1="952.6953" y2="952.6953"/><text fill="#000000" font-family="sans-serif" font-size="13" font-weight="bold" lengthAdjust="spacing" textLength="14" x="1455" y="947.9404">27</text><text fill="#000000" font-family="sans-serif" font-size="13" lengthAdjust="spacing" textLength="45" x="1473" y="947.9404">boolean</text><polygon fill="#181818" points="1911,977.2188,1921,981.2188,1911,985.2188,1915,981.2188" style="stroke:#181818;stroke-width:1.0;"/><line style="stroke:#181818;stroke-width:1.0;" x1="1438" x2="1917" y1="981.2188" y2="981.2188"/><text fill="#000000" font-family="sans-serif" font-size="13" font-weight="bold" lengthAdjust="spacing" textLength="14" x="1445" y="976.4639">28</text><text fill="#000000" font-family="sans-serif" font-size="13" lengthAdjust="spacing" textLength="266" x="1463" y="976.4639">updateCellPostIt(postIt, newRow, newColumn)</text><polygon fill="#181818" points="1449,1005.7422,1439,1009.7422,1449,1013.7422,1445,1009.7422" style="stroke:#181818;stroke-width:1.0;"/><line style="stroke:#181818;stroke-width:1.0;stroke-dasharray:2.0,2.0;" x1="1443" x2="1927" y1="1009.7422" y2="1009.7422"/><text fill="#000000" font-family="sans-serif" font-size="13" font-weight="bold" lengthAdjust="spacing" textLength="14" x="1455" y="1004.9873">29</text><text fill="#000000" font-family="sans-serif" font-size="13" lengthAdjust="spacing" textLength="45" x="1473" y="1004.9873">boolean</text><polygon fill="#181818" points="2583.5,1034.2656,2593.5,1038.2656,2583.5,1042.2656,2587.5,1038.2656" style="stroke:#181818;stroke-width:1.0;"/><line style="stroke:#181818;stroke-width:1.0;" x1="1438" x2="2589.5" y1="1038.2656" y2="1038.2656"/><text fill="#000000" font-family="sans-serif" font-size="13" font-weight="bold" lengthAdjust="spacing" textLength="14" x="1445" y="1033.5107">30</text><text fill="#000000" font-family="sans-serif" font-size="13" lengthAdjust="spacing" textLength="66" x="1463" y="1033.5107">save(board)</text><polygon fill="#181818" points="961,1092.7891,951,1096.7891,961,1100.7891,957,1096.7891" style="stroke:#181818;stroke-width:1.0;"/><line style="stroke:#181818;stroke-width:1.0;stroke-dasharray:2.0,2.0;" x1="955" x2="1432" y1="1096.7891" y2="1096.7891"/><text fill="#000000" font-family="sans-serif" font-size="13" font-weight="bold" lengthAdjust="spacing" textLength="14" x="967" y="1092.0342">31</text><text fill="#000000" font-family="sans-serif" font-size="13" lengthAdjust="spacing" textLength="45" x="985" y="1092.0342">boolean</text><polygon fill="#181818" points="323.5,1121.3125,313.5,1125.3125,323.5,1129.3125,319.5,1125.3125" style="stroke:#181818;stroke-width:1.0;"/><line style="stroke:#181818;stroke-width:1.0;stroke-dasharray:2.0,2.0;" x1="317.5" x2="944" y1="1125.3125" y2="1125.3125"/><text fill="#000000" font-family="sans-serif" font-size="13" font-weight="bold" lengthAdjust="spacing" textLength="14" x="329.5" y="1120.5576">32</text><text fill="#000000" font-family="sans-serif" font-size="13" lengthAdjust="spacing" textLength="45" x="347.5" y="1120.5576">boolean</text><polygon fill="#181818" points="745,1149.8359,755,1153.8359,745,1157.8359,749,1153.8359" style="stroke:#181818;stroke-width:1.0;"/><line style="stroke:#181818;stroke-width:1.0;" x1="312.5" x2="751" y1="1153.8359" y2="1153.8359"/><text fill="#000000" font-family="sans-serif" font-size="13" font-weight="bold" lengthAdjust="spacing" textLength="14" x="319.5" y="1149.0811">33</text><text fill="#000000" font-family="sans-serif" font-size="13" lengthAdjust="spacing" textLength="169" x="337.5" y="1149.0811">createAcknowledgeRequest()</text><polygon fill="#181818" points="323.5,1178.3594,313.5,1182.3594,323.5,1186.3594,319.5,1182.3594" style="stroke:#181818;stroke-width:1.0;"/><line style="stroke:#181818;stroke-width:1.0;stroke-dasharray:2.0,2.0;" x1="317.5" x2="761" y1="1182.3594" y2="1182.3594"/><text fill="#000000" font-family="sans-serif" font-size="13" font-weight="bold" lengthAdjust="spacing" textLength="14" x="329.5" y="1177.6045">34</text><text fill="#000000" font-family="sans-serif" font-size="13" lengthAdjust="spacing" textLength="69" x="347.5" y="1177.6045">ackRequest</text><polygon fill="#181818" points="597.5,1206.8828,607.5,1210.8828,597.5,1214.8828,601.5,1210.8828" style="stroke:#181818;stroke-width:1.0;"/><line style="stroke:#181818;stroke-width:1.0;" x1="312.5" x2="603.5" y1="1210.8828" y2="1210.8828"/><text fill="#000000" font-family="sans-serif" font-size="13" font-weight="bold" lengthAdjust="spacing" textLength="14" x="319.5" y="1206.1279">35</text><text fill="#000000" font-family="sans-serif" font-size="13" lengthAdjust="spacing" textLength="128" x="337.5" y="1206.1279">writeUTF(ackRequest)</text><!--SRC=[jLPTRvim57tdL_2OITaVgAf82Q4gKbOOj7kTRk2cjM9iPfj4-VVp1nH3IATgsqiIs-USUtrzV1re5MTjlKSHAA8eXiKR2Dnm45NurGqgEofGd3GeQ40eKf86c0hNIY6h8afG3q26woYylryt3IKbACBPQZM2Hs_0NZ7ZKYLAVn83oV5NYzAoy_Zx2Bu51GbhMbKeWL0Ro3OfhY1fgyQOT8mfDjatb19UyO6B6cmeC_SGb9mfmUbiNf5ReoWCFagVdlDqjujplS6XGgucgzMdTss8f4IRIfp_IABOwBh92TqTXGPkqdM-rR0jhu5S1K5ARQBnRdSBOvKUYLHSNDu5VpucnIr2Xa9oPg1Pd1Vfau-hTENt8D6fvjYOdOs4ypXBDSE8w9Z8xCw204f5Jg1GcoNGVlcwCeSQteMbFZ-52ydB8wel0ymSUOMZOKTBFwIbOrfQZA9fLlNo_B2O11AeMi72slcbOrYpQ4w59Qyw4oqwYCTtdkeKG0YuE6YdejrjqfqnGw-r32ikFK5p7mphAeKC1DJoJoaq5jKhU0w-aSNU7EIpwG7BaDCgvsVx7N7QrcmPCZphgT3-S7DUu44zy0APn3jt_uUOdNJGXz3HFEFTXGV2NEVQN6m4BvYdCb3wkbcOhzgP_ywjPCC5IGzMtmbxceumqlDOjwNJCqFn2L6Blzg_LjDDYHmkhjOHi0s-DFg-OhMOgV4qlQMdFQrJu08OEva-em-r5KBtVXV9lqnc_Ts8TdNW3dt7k0BBOtAuJdLpUP4e5exxkIoDz50dJX7O99MR9KiEff4cSdq2Gc6lJUCiEEz0LvD9f1djrcx9A7U5OYsbCuR_5z9zmVuwx_uQIJZXbHczM-CrsRcxvCJzfl3U2_j5Jy7h8vFEv_hykZmoVgPOlMBtns5nimENnmxIIxa7uoo8GjFw1y37puOtD1tP6-eNx3S0]--></g></svg>