<?xml version="1.0" encoding="us-ascii" standalone="no"?><svg xmlns="http://www.w3.org/2000/svg" xmlns:xlink="http://www.w3.org/1999/xlink" contentStyleType="text/css" height="447px" preserveAspectRatio="none" style="width:861px;height:447px;background:#FFFFFF;" version="1.1" viewBox="0 0 861 447" width="861px" zoomAndPan="magnify"><defs/><g><text fill="#000000" font-family="sans-serif" font-size="14" font-weight="bold" lengthAdjust="spacing" textLength="242" x="308.5" y="27.6738">ArchiveBoard - SharedBoardClient</text><rect fill="#FFFFFF" height="230.6641" style="stroke:#181818;stroke-width:1.0;" width="10" x="17.5" y="127.2813"/><rect fill="#FFFFFF" height="201.1406" style="stroke:#181818;stroke-width:1.0;" width="10" x="222.5" y="147.8047"/><rect fill="#FFFFFF" height="28.5234" style="stroke:#181818;stroke-width:1.0;" width="10" x="486.5" y="176.3281"/><rect fill="#FFFFFF" height="30" style="stroke:#181818;stroke-width:1.0;" width="10" x="642" y="233.375"/><rect fill="#FFFFFF" height="28.5234" style="stroke:#181818;stroke-width:1.0;" width="10" x="786" y="291.8984"/><line style="stroke:#181818;stroke-width:0.5;stroke-dasharray:5.0,5.0;" x1="22" x2="22" y1="117.2813" y2="366.9453"/><line style="stroke:#181818;stroke-width:0.5;stroke-dasharray:5.0,5.0;" x1="227.5" x2="227.5" y1="117.2813" y2="366.9453"/><line style="stroke:#181818;stroke-width:0.5;stroke-dasharray:5.0,5.0;" x1="491" x2="491" y1="117.2813" y2="366.9453"/><line style="stroke:#181818;stroke-width:0.5;stroke-dasharray:5.0,5.0;" x1="647" x2="647" y1="117.2813" y2="366.9453"/><line style="stroke:#181818;stroke-width:0.5;stroke-dasharray:5.0,5.0;" x1="791" x2="791" y1="117.2813" y2="366.9453"/><text fill="#000000" font-family="sans-serif" font-size="14" lengthAdjust="spacing" textLength="29" x="5" y="114.3145">User</text><ellipse cx="22.5" cy="50.1406" fill="#E2E2F0" rx="8" ry="8" style="stroke:#181818;stroke-width:0.5;"/><path d="M22.5,58.1406 L22.5,85.1406 M9.5,66.1406 L35.5,66.1406 M22.5,85.1406 L9.5,100.1406 M22.5,85.1406 L35.5,100.1406 " fill="none" style="stroke:#181818;stroke-width:0.5;"/><text fill="#000000" font-family="sans-serif" font-size="14" lengthAdjust="spacing" textLength="29" x="5" y="378.6191">User</text><ellipse cx="22.5" cy="390.0859" fill="#E2E2F0" rx="8" ry="8" style="stroke:#181818;stroke-width:0.5;"/><path d="M22.5,398.0859 L22.5,425.0859 M9.5,406.0859 L35.5,406.0859 M22.5,425.0859 L9.5,440.0859 M22.5,425.0859 L35.5,440.0859 " fill="none" style="stroke:#181818;stroke-width:0.5;"/><rect fill="#E2E2F0" height="60.9219" rx="2.5" ry="2.5" style="stroke:#181818;stroke-width:0.5;" width="150" x="152.5" y="55.3594"/><text fill="#000000" font-family="sans-serif" font-size="14" font-style="italic" lengthAdjust="spacing" textLength="136" x="159.5" y="75.0332">&#171;SharedBoardClient&#187;</text><text fill="#000000" font-family="sans-serif" font-size="14" font-style="italic" lengthAdjust="spacing" textLength="96" x="179.5" y="90.6738">&#171;Presentation&#187;</text><text fill="#000000" font-family="sans-serif" font-size="14" lengthAdjust="spacing" textLength="105" x="175" y="106.3145">: ArchiveBoardUI</text><rect fill="#E2E2F0" height="60.9219" rx="2.5" ry="2.5" style="stroke:#181818;stroke-width:0.5;" width="150" x="152.5" y="365.9453"/><text fill="#000000" font-family="sans-serif" font-size="14" font-style="italic" lengthAdjust="spacing" textLength="136" x="159.5" y="385.6191">&#171;SharedBoardClient&#187;</text><text fill="#000000" font-family="sans-serif" font-size="14" font-style="italic" lengthAdjust="spacing" textLength="96" x="179.5" y="401.2598">&#171;Presentation&#187;</text><text fill="#000000" font-family="sans-serif" font-size="14" lengthAdjust="spacing" textLength="105" x="175" y="416.9004">: ArchiveBoardUI</text><rect fill="#E2E2F0" height="29.6406" rx="2.5" ry="2.5" style="stroke:#181818;stroke-width:0.5;" width="151" x="416" y="86.6406"/><text fill="#000000" font-family="sans-serif" font-size="14" lengthAdjust="spacing" textLength="137" x="423" y="106.3145">: SBPMessageFormat</text><rect fill="#E2E2F0" height="29.6406" rx="2.5" ry="2.5" style="stroke:#181818;stroke-width:0.5;" width="151" x="416" y="365.9453"/><text fill="#000000" font-family="sans-serif" font-size="14" lengthAdjust="spacing" textLength="137" x="423" y="385.6191">: SBPMessageFormat</text><rect fill="#E2E2F0" height="29.6406" rx="2.5" ry="2.5" style="stroke:#181818;stroke-width:0.5;" width="140" x="577" y="86.6406"/><text fill="#000000" font-family="sans-serif" font-size="14" lengthAdjust="spacing" textLength="126" x="584" y="106.3145">: DataOutputStream</text><rect fill="#E2E2F0" height="29.6406" rx="2.5" ry="2.5" style="stroke:#181818;stroke-width:0.5;" width="140" x="577" y="365.9453"/><text fill="#000000" font-family="sans-serif" font-size="14" lengthAdjust="spacing" textLength="126" x="584" y="385.6191">: DataOutputStream</text><rect fill="#E2E2F0" height="29.6406" rx="2.5" ry="2.5" style="stroke:#181818;stroke-width:0.5;" width="128" x="727" y="86.6406"/><text fill="#000000" font-family="sans-serif" font-size="14" lengthAdjust="spacing" textLength="114" x="734" y="106.3145">: DataInputStream</text><rect fill="#E2E2F0" height="29.6406" rx="2.5" ry="2.5" style="stroke:#181818;stroke-width:0.5;" width="128" x="727" y="365.9453"/><text fill="#000000" font-family="sans-serif" font-size="14" lengthAdjust="spacing" textLength="114" x="734" y="385.6191">: DataInputStream</text><rect fill="#FFFFFF" height="230.6641" style="stroke:#181818;stroke-width:1.0;" width="10" x="17.5" y="127.2813"/><rect fill="#FFFFFF" height="201.1406" style="stroke:#181818;stroke-width:1.0;" width="10" x="222.5" y="147.8047"/><rect fill="#FFFFFF" height="28.5234" style="stroke:#181818;stroke-width:1.0;" width="10" x="486.5" y="176.3281"/><rect fill="#FFFFFF" height="30" style="stroke:#181818;stroke-width:1.0;" width="10" x="642" y="233.375"/><rect fill="#FFFFFF" height="28.5234" style="stroke:#181818;stroke-width:1.0;" width="10" x="786" y="291.8984"/><polygon fill="#181818" points="210.5,143.8047,220.5,147.8047,210.5,151.8047,214.5,147.8047" style="stroke:#181818;stroke-width:1.0;"/><line style="stroke:#181818;stroke-width:1.0;" x1="27.5" x2="216.5" y1="147.8047" y2="147.8047"/><text fill="#000000" font-family="sans-serif" font-size="13" font-weight="bold" lengthAdjust="spacing" textLength="7" x="34.5" y="143.0498">1</text><text fill="#000000" font-family="sans-serif" font-size="13" lengthAdjust="spacing" textLength="85" x="45.5" y="143.0498">chooses board</text><polygon fill="#181818" points="474.5,172.3281,484.5,176.3281,474.5,180.3281,478.5,176.3281" style="stroke:#181818;stroke-width:1.0;"/><line style="stroke:#181818;stroke-width:1.0;" x1="232.5" x2="480.5" y1="176.3281" y2="176.3281"/><text fill="#000000" font-family="sans-serif" font-size="13" font-weight="bold" lengthAdjust="spacing" textLength="7" x="239.5" y="171.5732">2</text><text fill="#000000" font-family="sans-serif" font-size="13" lengthAdjust="spacing" textLength="224" x="250.5" y="171.5732">createArchiveBoardRequest(boardTitle)</text><polygon fill="#181818" points="243.5,200.8516,233.5,204.8516,243.5,208.8516,239.5,204.8516" style="stroke:#181818;stroke-width:1.0;"/><line style="stroke:#181818;stroke-width:1.0;stroke-dasharray:2.0,2.0;" x1="237.5" x2="490.5" y1="204.8516" y2="204.8516"/><text fill="#000000" font-family="sans-serif" font-size="13" font-weight="bold" lengthAdjust="spacing" textLength="7" x="249.5" y="200.0967">3</text><text fill="#000000" font-family="sans-serif" font-size="13" lengthAdjust="spacing" textLength="122" x="260.5" y="200.0967">archiveBoardRequest</text><polygon fill="#181818" points="630,229.375,640,233.375,630,237.375,634,233.375" style="stroke:#181818;stroke-width:1.0;"/><line style="stroke:#181818;stroke-width:1.0;" x1="232.5" x2="636" y1="233.375" y2="233.375"/><text fill="#000000" font-family="sans-serif" font-size="13" font-weight="bold" lengthAdjust="spacing" textLength="7" x="239.5" y="228.6201">4</text><text fill="#000000" font-family="sans-serif" font-size="13" lengthAdjust="spacing" textLength="181" x="250.5" y="228.6201">writeUTF(archiveBoardRequest)</text><polygon fill="#181818" points="774,287.8984,784,291.8984,774,295.8984,778,291.8984" style="stroke:#181818;stroke-width:1.0;"/><line style="stroke:#181818;stroke-width:1.0;" x1="232.5" x2="780" y1="291.8984" y2="291.8984"/><text fill="#000000" font-family="sans-serif" font-size="13" font-weight="bold" lengthAdjust="spacing" textLength="7" x="239.5" y="287.1436">5</text><text fill="#000000" font-family="sans-serif" font-size="13" lengthAdjust="spacing" textLength="57" x="250.5" y="287.1436">readUTF()</text><polygon fill="#181818" points="243.5,316.4219,233.5,320.4219,243.5,324.4219,239.5,320.4219" style="stroke:#181818;stroke-width:1.0;"/><line style="stroke:#181818;stroke-width:1.0;stroke-dasharray:2.0,2.0;" x1="237.5" x2="790" y1="320.4219" y2="320.4219"/><text fill="#000000" font-family="sans-serif" font-size="13" font-weight="bold" lengthAdjust="spacing" textLength="7" x="249.5" y="315.667">6</text><text fill="#000000" font-family="sans-serif" font-size="13" lengthAdjust="spacing" textLength="53" x="260.5" y="315.667">message</text><polygon fill="#181818" points="38.5,344.9453,28.5,348.9453,38.5,352.9453,34.5,348.9453" style="stroke:#181818;stroke-width:1.0;"/><line style="stroke:#181818;stroke-width:1.0;stroke-dasharray:2.0,2.0;" x1="32.5" x2="226.5" y1="348.9453" y2="348.9453"/><text fill="#000000" font-family="sans-serif" font-size="13" font-weight="bold" lengthAdjust="spacing" textLength="7" x="44.5" y="344.1904">7</text><text fill="#000000" font-family="sans-serif" font-size="13" lengthAdjust="spacing" textLength="160" x="55.5" y="344.1904">: informs operation success</text><!--SRC=[RP71ReCm38RlUGgBKtVe2w0AQLs5b4FLQfG7SC4RaKh27ATx_INGRPJsWkBeynV_1eCu6_epiH8Z5u9NRZfpfQr3Rc4DLOTCxLYzNGnPKGeRSGnPxOapG0_feDI0BAOn0rg1BB_Jr7hYD6ms3xwYYBT79X_FACRPebYwgkrnJzxZ9vMEUvJH5Y_B9RX3mKEG8KWbJDYFuEvGFUEqNM2wIidC5OMcIEa3woBDdKFJEUV9mpbDFWErKYe24Ki39J0QXURnt-aha9VLs7fAItxv5umnc2Im1Nni-hF7557-pKQeFfMh9-XCcYAtT5VUB3fPueHjaimxOlhR5Fsqwjyo1sC_ujezk85u_4FWGzD4Qlv6hNy0]--></g></svg>