<?xml version="1.0" encoding="us-ascii" standalone="no"?><svg xmlns="http://www.w3.org/2000/svg" xmlns:xlink="http://www.w3.org/1999/xlink" contentStyleType="text/css" height="949px" preserveAspectRatio="none" style="width:2027px;height:949px;background:#FFFFFF;" version="1.1" viewBox="0 0 2027 949" width="2027px" zoomAndPan="magnify"><defs/><g><text fill="#000000" font-family="sans-serif" font-size="14" font-weight="bold" lengthAdjust="spacing" textLength="249" x="888" y="27.6738">ArchiveBoard - SharedBoardServer</text><rect fill="#FFFFFF" height="708.0391" style="stroke:#181818;stroke-width:1.0;" width="10" x="49.5" y="130.5625"/><rect fill="#FFFFFF" height="687.5156" style="stroke:#181818;stroke-width:1.0;" width="10" x="310.5" y="151.0859"/><rect fill="#FFFFFF" height="28.5234" style="stroke:#181818;stroke-width:1.0;" width="10" x="464.5" y="179.6094"/><rect fill="#FFFFFF" height="30" style="stroke:#181818;stroke-width:1.0;" width="10" x="608.5" y="808.6016"/><rect fill="#FFFFFF" height="28.5234" style="stroke:#181818;stroke-width:1.0;" width="10" x="764" y="236.6563"/><rect fill="#FFFFFF" height="28.5234" style="stroke:#181818;stroke-width:1.0;" width="10" x="764" y="293.7031"/><rect fill="#FFFFFF" height="28.5234" style="stroke:#181818;stroke-width:1.0;" width="10" x="764" y="751.5547"/><rect fill="#FFFFFF" height="372.2813" style="stroke:#181818;stroke-width:1.0;" width="10" x="926" y="350.75"/><rect fill="#FFFFFF" height="315.2344" style="stroke:#181818;stroke-width:1.0;" width="10" x="1104" y="379.2734"/><rect fill="#FFFFFF" height="28.5234" style="stroke:#181818;stroke-width:1.0;" width="10" x="1233" y="464.8438"/><rect fill="#FFFFFF" height="28.5234" style="stroke:#181818;stroke-width:1.0;" width="10" x="1550" y="407.7969"/><rect fill="#FFFFFF" height="30" style="stroke:#181818;stroke-width:1.0;" width="10" x="1550" y="521.8906"/><rect fill="#FFFFFF" height="28.5234" style="stroke:#181818;stroke-width:1.0;" width="10" x="1701.5" y="580.4141"/><rect fill="#FFFFFF" height="28.5234" style="stroke:#181818;stroke-width:1.0;" width="10" x="1904.5" y="637.4609"/><line style="stroke:#181818;stroke-width:0.5;stroke-dasharray:5.0,5.0;" x1="54" x2="54" y1="120.5625" y2="856.6016"/><line style="stroke:#181818;stroke-width:0.5;stroke-dasharray:5.0,5.0;" x1="315.5" x2="315.5" y1="120.5625" y2="856.6016"/><line style="stroke:#181818;stroke-width:0.5;stroke-dasharray:5.0,5.0;" x1="469.5" x2="469.5" y1="120.5625" y2="856.6016"/><line style="stroke:#181818;stroke-width:0.5;stroke-dasharray:5.0,5.0;" x1="613.5" x2="613.5" y1="120.5625" y2="856.6016"/><line style="stroke:#181818;stroke-width:0.5;stroke-dasharray:5.0,5.0;" x1="768.5" x2="768.5" y1="120.5625" y2="856.6016"/><line style="stroke:#181818;stroke-width:0.5;stroke-dasharray:5.0,5.0;" x1="930.5" x2="930.5" y1="120.5625" y2="856.6016"/><line style="stroke:#181818;stroke-width:0.5;stroke-dasharray:5.0,5.0;" x1="1109" x2="1109" y1="120.5625" y2="856.6016"/><line style="stroke:#181818;stroke-width:0.5;stroke-dasharray:5.0,5.0;" x1="1238" x2="1238" y1="120.5625" y2="856.6016"/><line style="stroke:#181818;stroke-width:0.5;stroke-dasharray:5.0,5.0;" x1="1332" x2="1332" y1="120.5625" y2="856.6016"/><line style="stroke:#181818;stroke-width:0.5;stroke-dasharray:5.0,5.0;" x1="1436" x2="1436" y1="120.5625" y2="856.6016"/><line style="stroke:#181818;stroke-width:0.5;stroke-dasharray:5.0,5.0;" x1="1555" x2="1555" y1="120.5625" y2="856.6016"/><line style="stroke:#181818;stroke-width:0.5;stroke-dasharray:5.0,5.0;" x1="1706" x2="1706" y1="120.5625" y2="856.6016"/><line style="stroke:#181818;stroke-width:0.5;stroke-dasharray:5.0,5.0;" x1="1909" x2="1909" y1="120.5625" y2="856.6016"/><rect fill="#E2E2F0" height="45.2813" rx="2.5" ry="2.5" style="stroke:#181818;stroke-width:0.5;" width="99" x="5" y="74.2813"/><text fill="#000000" font-family="sans-serif" font-size="14" font-style="italic" lengthAdjust="spacing" textLength="30" x="39.5" y="93.9551">&#171;UI&#187;</text><text fill="#000000" font-family="sans-serif" font-size="14" lengthAdjust="spacing" textLength="85" x="12" y="109.5957">: AttendClient</text><rect fill="#E2E2F0" height="45.2813" rx="2.5" ry="2.5" style="stroke:#181818;stroke-width:0.5;" width="99" x="5" y="855.6016"/><text fill="#000000" font-family="sans-serif" font-size="14" font-style="italic" lengthAdjust="spacing" textLength="30" x="39.5" y="875.2754">&#171;UI&#187;</text><text fill="#000000" font-family="sans-serif" font-size="14" lengthAdjust="spacing" textLength="85" x="12" y="890.916">: AttendClient</text><rect fill="#E2E2F0" height="45.2813" rx="2.5" ry="2.5" style="stroke:#181818;stroke-width:0.5;" width="160" x="235.5" y="74.2813"/><text fill="#000000" font-family="sans-serif" font-size="14" font-style="italic" lengthAdjust="spacing" textLength="30" x="300.5" y="93.9551">&#171;UI&#187;</text><text fill="#000000" font-family="sans-serif" font-size="14" lengthAdjust="spacing" textLength="146" x="242.5" y="109.5957">: ArchiveBoardRequest</text><rect fill="#E2E2F0" height="45.2813" rx="2.5" ry="2.5" style="stroke:#181818;stroke-width:0.5;" width="160" x="235.5" y="855.6016"/><text fill="#000000" font-family="sans-serif" font-size="14" font-style="italic" lengthAdjust="spacing" textLength="30" x="300.5" y="875.2754">&#171;UI&#187;</text><text fill="#000000" font-family="sans-serif" font-size="14" lengthAdjust="spacing" textLength="146" x="242.5" y="890.916">: ArchiveBoardRequest</text><rect fill="#E2E2F0" height="29.6406" rx="2.5" ry="2.5" style="stroke:#181818;stroke-width:0.5;" width="128" x="405.5" y="89.9219"/><text fill="#000000" font-family="sans-serif" font-size="14" lengthAdjust="spacing" textLength="114" x="412.5" y="109.5957">: DataInputStream</text><rect fill="#E2E2F0" height="29.6406" rx="2.5" ry="2.5" style="stroke:#181818;stroke-width:0.5;" width="128" x="405.5" y="855.6016"/><text fill="#000000" font-family="sans-serif" font-size="14" lengthAdjust="spacing" textLength="114" x="412.5" y="875.2754">: DataInputStream</text><rect fill="#E2E2F0" height="29.6406" rx="2.5" ry="2.5" style="stroke:#181818;stroke-width:0.5;" width="140" x="543.5" y="89.9219"/><text fill="#000000" font-family="sans-serif" font-size="14" lengthAdjust="spacing" textLength="126" x="550.5" y="109.5957">: DataOutputStream</text><rect fill="#E2E2F0" height="29.6406" rx="2.5" ry="2.5" style="stroke:#181818;stroke-width:0.5;" width="140" x="543.5" y="855.6016"/><text fill="#000000" font-family="sans-serif" font-size="14" lengthAdjust="spacing" textLength="126" x="550.5" y="875.2754">: DataOutputStream</text><rect fill="#E2E2F0" height="29.6406" rx="2.5" ry="2.5" style="stroke:#181818;stroke-width:0.5;" width="151" x="693.5" y="89.9219"/><text fill="#000000" font-family="sans-serif" font-size="14" lengthAdjust="spacing" textLength="137" x="700.5" y="109.5957">: SBPMessageFormat</text><rect fill="#E2E2F0" height="29.6406" rx="2.5" ry="2.5" style="stroke:#181818;stroke-width:0.5;" width="151" x="693.5" y="855.6016"/><text fill="#000000" font-family="sans-serif" font-size="14" lengthAdjust="spacing" textLength="137" x="700.5" y="875.2754">: SBPMessageFormat</text><text fill="#000000" font-family="sans-serif" font-size="14" font-style="italic" lengthAdjust="spacing" textLength="133" x="861.5" y="86.3145">&#171;ShareBoardServer&#187;</text><text fill="#000000" font-family="sans-serif" font-size="14" font-style="italic" lengthAdjust="spacing" textLength="85" x="885.5" y="101.9551">&#171;Application&#187;</text><text fill="#000000" font-family="sans-serif" font-size="14" lengthAdjust="spacing" textLength="147" x="854.5" y="117.5957">ArchiveBoardController</text><ellipse cx="931" cy="57.6406" fill="#E2E2F0" rx="12" ry="12" style="stroke:#181818;stroke-width:0.5;"/><polygon fill="#181818" points="927,45.6406,933,40.6406,931,45.6406,933,50.6406,927,45.6406" style="stroke:#181818;stroke-width:1.0;"/><text fill="#000000" font-family="sans-serif" font-size="14" font-style="italic" lengthAdjust="spacing" textLength="133" x="861.5" y="868.2754">&#171;ShareBoardServer&#187;</text><text fill="#000000" font-family="sans-serif" font-size="14" font-style="italic" lengthAdjust="spacing" textLength="85" x="885.5" y="883.916">&#171;Application&#187;</text><text fill="#000000" font-family="sans-serif" font-size="14" lengthAdjust="spacing" textLength="147" x="854.5" y="899.5566">ArchiveBoardController</text><ellipse cx="931" cy="918.5234" fill="#E2E2F0" rx="12" ry="12" style="stroke:#181818;stroke-width:0.5;"/><polygon fill="#181818" points="927,906.5234,933,901.5234,931,906.5234,933,911.5234,927,906.5234" style="stroke:#181818;stroke-width:1.0;"/><rect fill="#E2E2F0" height="45.2813" rx="2.5" ry="2.5" style="stroke:#181818;stroke-width:0.5;" width="154" x="1032" y="74.2813"/><text fill="#000000" font-family="sans-serif" font-size="14" font-style="italic" lengthAdjust="spacing" textLength="62" x="1078" y="93.9551">&#171;Service&#187;</text><text fill="#000000" font-family="sans-serif" font-size="14" lengthAdjust="spacing" textLength="140" x="1039" y="109.5957">: ArchiveBoardService</text><rect fill="#E2E2F0" height="45.2813" rx="2.5" ry="2.5" style="stroke:#181818;stroke-width:0.5;" width="154" x="1032" y="855.6016"/><text fill="#000000" font-family="sans-serif" font-size="14" font-style="italic" lengthAdjust="spacing" textLength="62" x="1078" y="875.2754">&#171;Service&#187;</text><text fill="#000000" font-family="sans-serif" font-size="14" lengthAdjust="spacing" textLength="140" x="1039" y="890.916">: ArchiveBoardService</text><rect fill="#E2E2F0" height="45.2813" rx="2.5" ry="2.5" style="stroke:#181818;stroke-width:0.5;" width="78" x="1199" y="74.2813"/><text fill="#000000" font-family="sans-serif" font-size="14" font-style="italic" lengthAdjust="spacing" textLength="64" x="1206" y="93.9551">&#171;Domain&#187;</text><text fill="#000000" font-family="sans-serif" font-size="14" lengthAdjust="spacing" textLength="46" x="1215" y="109.5957">: Board</text><rect fill="#E2E2F0" height="45.2813" rx="2.5" ry="2.5" style="stroke:#181818;stroke-width:0.5;" width="78" x="1199" y="855.6016"/><text fill="#000000" font-family="sans-serif" font-size="14" font-style="italic" lengthAdjust="spacing" textLength="64" x="1206" y="875.2754">&#171;Domain&#187;</text><text fill="#000000" font-family="sans-serif" font-size="14" lengthAdjust="spacing" textLength="46" x="1215" y="890.916">: Board</text><rect fill="#E2E2F0" height="45.2813" rx="2.5" ry="2.5" style="stroke:#181818;stroke-width:0.5;" width="91" x="1287" y="74.2813"/><text fill="#000000" font-family="sans-serif" font-size="14" font-style="italic" lengthAdjust="spacing" textLength="64" x="1300.5" y="93.9551">&#171;Domain&#187;</text><text fill="#000000" font-family="sans-serif" font-size="14" lengthAdjust="spacing" textLength="77" x="1294" y="109.5957">: Notification</text><rect fill="#E2E2F0" height="45.2813" rx="2.5" ry="2.5" style="stroke:#181818;stroke-width:0.5;" width="91" x="1287" y="855.6016"/><text fill="#000000" font-family="sans-serif" font-size="14" font-style="italic" lengthAdjust="spacing" textLength="64" x="1300.5" y="875.2754">&#171;Domain&#187;</text><text fill="#000000" font-family="sans-serif" font-size="14" lengthAdjust="spacing" textLength="77" x="1294" y="890.916">: Notification</text><rect fill="#E2E2F0" height="45.2813" rx="2.5" ry="2.5" style="stroke:#181818;stroke-width:0.5;" width="97" x="1388" y="74.2813"/><text fill="#000000" font-family="sans-serif" font-size="14" font-style="italic" lengthAdjust="spacing" textLength="60" x="1406.5" y="93.9551">&#171;Builder&#187;</text><text fill="#000000" font-family="sans-serif" font-size="14" lengthAdjust="spacing" textLength="83" x="1395" y="109.5957">: TaskBuilder</text><rect fill="#E2E2F0" height="45.2813" rx="2.5" ry="2.5" style="stroke:#181818;stroke-width:0.5;" width="97" x="1388" y="855.6016"/><text fill="#000000" font-family="sans-serif" font-size="14" font-style="italic" lengthAdjust="spacing" textLength="60" x="1406.5" y="875.2754">&#171;Builder&#187;</text><text fill="#000000" font-family="sans-serif" font-size="14" lengthAdjust="spacing" textLength="83" x="1395" y="890.916">: TaskBuilder</text><text fill="#000000" font-family="sans-serif" font-size="14" font-style="italic" lengthAdjust="spacing" textLength="84" x="1510" y="101.9551">&#171;Repository&#187;</text><text fill="#000000" font-family="sans-serif" font-size="14" lengthAdjust="spacing" textLength="114" x="1495" y="117.5957">: BoardRepository</text><path d="M1537,53.2813 C1537,43.2813 1555,43.2813 1555,43.2813 C1555,43.2813 1573,43.2813 1573,53.2813 L1573,79.2813 C1573,89.2813 1555,89.2813 1555,89.2813 C1555,89.2813 1537,89.2813 1537,79.2813 L1537,53.2813 " fill="#E2E2F0" style="stroke:#181818;stroke-width:1.5;"/><path d="M1537,53.2813 C1537,63.2813 1555,63.2813 1555,63.2813 C1555,63.2813 1573,63.2813 1573,53.2813 " fill="none" style="stroke:#181818;stroke-width:1.5;"/><text fill="#000000" font-family="sans-serif" font-size="14" font-style="italic" lengthAdjust="spacing" textLength="84" x="1510" y="868.2754">&#171;Repository&#187;</text><text fill="#000000" font-family="sans-serif" font-size="14" lengthAdjust="spacing" textLength="114" x="1495" y="883.916">: BoardRepository</text><path d="M1537,896.8828 C1537,886.8828 1555,886.8828 1555,886.8828 C1555,886.8828 1573,886.8828 1573,896.8828 L1573,922.8828 C1573,932.8828 1555,932.8828 1555,932.8828 C1555,932.8828 1537,932.8828 1537,922.8828 L1537,896.8828 " fill="#E2E2F0" style="stroke:#181818;stroke-width:1.5;"/><path d="M1537,896.8828 C1537,906.8828 1555,906.8828 1555,906.8828 C1555,906.8828 1573,906.8828 1573,896.8828 " fill="none" style="stroke:#181818;stroke-width:1.5;"/><rect fill="#E2E2F0" height="45.2813" rx="2.5" ry="2.5" style="stroke:#181818;stroke-width:0.5;" width="163" x="1625" y="74.2813"/><text fill="#000000" font-family="sans-serif" font-size="14" font-style="italic" lengthAdjust="spacing" textLength="62" x="1675.5" y="93.9551">&#171;Service&#187;</text><text fill="#000000" font-family="sans-serif" font-size="14" lengthAdjust="spacing" textLength="149" x="1632" y="109.5957">: AddNotificationService</text><rect fill="#E2E2F0" height="45.2813" rx="2.5" ry="2.5" style="stroke:#181818;stroke-width:0.5;" width="163" x="1625" y="855.6016"/><text fill="#000000" font-family="sans-serif" font-size="14" font-style="italic" lengthAdjust="spacing" textLength="62" x="1675.5" y="875.2754">&#171;Service&#187;</text><text fill="#000000" font-family="sans-serif" font-size="14" lengthAdjust="spacing" textLength="149" x="1632" y="890.916">: AddNotificationService</text><rect fill="#E2E2F0" height="45.2813" rx="2.5" ry="2.5" style="stroke:#181818;stroke-width:0.5;" width="223" x="1798" y="74.2813"/><text fill="#000000" font-family="sans-serif" font-size="14" font-style="italic" lengthAdjust="spacing" textLength="62" x="1878.5" y="93.9551">&#171;Service&#187;</text><text fill="#000000" font-family="sans-serif" font-size="14" lengthAdjust="spacing" textLength="209" x="1805" y="109.5957">: AddTaskToBoardHistoryService</text><rect fill="#E2E2F0" height="45.2813" rx="2.5" ry="2.5" style="stroke:#181818;stroke-width:0.5;" width="223" x="1798" y="855.6016"/><text fill="#000000" font-family="sans-serif" font-size="14" font-style="italic" lengthAdjust="spacing" textLength="62" x="1878.5" y="875.2754">&#171;Service&#187;</text><text fill="#000000" font-family="sans-serif" font-size="14" lengthAdjust="spacing" textLength="209" x="1805" y="890.916">: AddTaskToBoardHistoryService</text><rect fill="#FFFFFF" height="708.0391" style="stroke:#181818;stroke-width:1.0;" width="10" x="49.5" y="130.5625"/><rect fill="#FFFFFF" height="687.5156" style="stroke:#181818;stroke-width:1.0;" width="10" x="310.5" y="151.0859"/><rect fill="#FFFFFF" height="28.5234" style="stroke:#181818;stroke-width:1.0;" width="10" x="464.5" y="179.6094"/><rect fill="#FFFFFF" height="30" style="stroke:#181818;stroke-width:1.0;" width="10" x="608.5" y="808.6016"/><rect fill="#FFFFFF" height="28.5234" style="stroke:#181818;stroke-width:1.0;" width="10" x="764" y="236.6563"/><rect fill="#FFFFFF" height="28.5234" style="stroke:#181818;stroke-width:1.0;" width="10" x="764" y="293.7031"/><rect fill="#FFFFFF" height="28.5234" style="stroke:#181818;stroke-width:1.0;" width="10" x="764" y="751.5547"/><rect fill="#FFFFFF" height="372.2813" style="stroke:#181818;stroke-width:1.0;" width="10" x="926" y="350.75"/><rect fill="#FFFFFF" height="315.2344" style="stroke:#181818;stroke-width:1.0;" width="10" x="1104" y="379.2734"/><rect fill="#FFFFFF" height="28.5234" style="stroke:#181818;stroke-width:1.0;" width="10" x="1233" y="464.8438"/><rect fill="#FFFFFF" height="28.5234" style="stroke:#181818;stroke-width:1.0;" width="10" x="1550" y="407.7969"/><rect fill="#FFFFFF" height="30" style="stroke:#181818;stroke-width:1.0;" width="10" x="1550" y="521.8906"/><rect fill="#FFFFFF" height="28.5234" style="stroke:#181818;stroke-width:1.0;" width="10" x="1701.5" y="580.4141"/><rect fill="#FFFFFF" height="28.5234" style="stroke:#181818;stroke-width:1.0;" width="10" x="1904.5" y="637.4609"/><polygon fill="#181818" points="298.5,147.0859,308.5,151.0859,298.5,155.0859,302.5,151.0859" style="stroke:#181818;stroke-width:1.0;"/><line style="stroke:#181818;stroke-width:1.0;" x1="59.5" x2="304.5" y1="151.0859" y2="151.0859"/><text fill="#000000" font-family="sans-serif" font-size="13" font-weight="bold" lengthAdjust="spacing" textLength="7" x="66.5" y="146.3311">1</text><text fill="#000000" font-family="sans-serif" font-size="13" lengthAdjust="spacing" textLength="221" x="77.5" y="146.3311">archiveBoard(message, outputStream)</text><polygon fill="#181818" points="452.5,175.6094,462.5,179.6094,452.5,183.6094,456.5,179.6094" style="stroke:#181818;stroke-width:1.0;"/><line style="stroke:#181818;stroke-width:1.0;" x1="320.5" x2="458.5" y1="179.6094" y2="179.6094"/><text fill="#000000" font-family="sans-serif" font-size="13" font-weight="bold" lengthAdjust="spacing" textLength="7" x="327.5" y="174.8545">2</text><text fill="#000000" font-family="sans-serif" font-size="13" lengthAdjust="spacing" textLength="57" x="338.5" y="174.8545">readUTF()</text><polygon fill="#181818" points="331.5,204.1328,321.5,208.1328,331.5,212.1328,327.5,208.1328" style="stroke:#181818;stroke-width:1.0;"/><line style="stroke:#181818;stroke-width:1.0;stroke-dasharray:2.0,2.0;" x1="325.5" x2="468.5" y1="208.1328" y2="208.1328"/><text fill="#000000" font-family="sans-serif" font-size="13" font-weight="bold" lengthAdjust="spacing" textLength="7" x="337.5" y="203.3779">3</text><text fill="#000000" font-family="sans-serif" font-size="13" lengthAdjust="spacing" textLength="53" x="348.5" y="203.3779">message</text><polygon fill="#181818" points="752,232.6563,762,236.6563,752,240.6563,756,236.6563" style="stroke:#181818;stroke-width:1.0;"/><line style="stroke:#181818;stroke-width:1.0;" x1="320.5" x2="758" y1="236.6563" y2="236.6563"/><text fill="#000000" font-family="sans-serif" font-size="13" font-weight="bold" lengthAdjust="spacing" textLength="7" x="327.5" y="231.9014">4</text><text fill="#000000" font-family="sans-serif" font-size="13" lengthAdjust="spacing" textLength="144" x="338.5" y="231.9014">decodeFormat(message)</text><polygon fill="#181818" points="331.5,261.1797,321.5,265.1797,331.5,269.1797,327.5,265.1797" style="stroke:#181818;stroke-width:1.0;"/><line style="stroke:#181818;stroke-width:1.0;stroke-dasharray:2.0,2.0;" x1="325.5" x2="768" y1="265.1797" y2="265.1797"/><text fill="#000000" font-family="sans-serif" font-size="13" font-weight="bold" lengthAdjust="spacing" textLength="7" x="337.5" y="260.4248">5</text><text fill="#000000" font-family="sans-serif" font-size="13" lengthAdjust="spacing" textLength="70" x="348.5" y="260.4248">arrayFormat</text><polygon fill="#181818" points="752,289.7031,762,293.7031,752,297.7031,756,293.7031" style="stroke:#181818;stroke-width:1.0;"/><line style="stroke:#181818;stroke-width:1.0;" x1="320.5" x2="758" y1="293.7031" y2="293.7031"/><text fill="#000000" font-family="sans-serif" font-size="13" font-weight="bold" lengthAdjust="spacing" textLength="7" x="327.5" y="288.9482">6</text><text fill="#000000" font-family="sans-serif" font-size="13" lengthAdjust="spacing" textLength="148" x="338.5" y="288.9482">decodeParams(message)</text><polygon fill="#181818" points="331.5,318.2266,321.5,322.2266,331.5,326.2266,327.5,322.2266" style="stroke:#181818;stroke-width:1.0;"/><line style="stroke:#181818;stroke-width:1.0;stroke-dasharray:2.0,2.0;" x1="325.5" x2="768" y1="322.2266" y2="322.2266"/><text fill="#000000" font-family="sans-serif" font-size="13" font-weight="bold" lengthAdjust="spacing" textLength="7" x="337.5" y="317.4717">7</text><text fill="#000000" font-family="sans-serif" font-size="13" lengthAdjust="spacing" textLength="43" x="348.5" y="317.4717">params</text><polygon fill="#181818" points="914,346.75,924,350.75,914,354.75,918,350.75" style="stroke:#181818;stroke-width:1.0;"/><line style="stroke:#181818;stroke-width:1.0;" x1="320.5" x2="920" y1="350.75" y2="350.75"/><text fill="#000000" font-family="sans-serif" font-size="13" font-weight="bold" lengthAdjust="spacing" textLength="7" x="327.5" y="345.9951">8</text><text fill="#000000" font-family="sans-serif" font-size="13" lengthAdjust="spacing" textLength="138" x="338.5" y="345.9951">archiveBoard(boardTitle)</text><polygon fill="#181818" points="1092,375.2734,1102,379.2734,1092,383.2734,1096,379.2734" style="stroke:#181818;stroke-width:1.0;"/><line style="stroke:#181818;stroke-width:1.0;" x1="936" x2="1098" y1="379.2734" y2="379.2734"/><text fill="#000000" font-family="sans-serif" font-size="13" font-weight="bold" lengthAdjust="spacing" textLength="7" x="943" y="374.5186">9</text><text fill="#000000" font-family="sans-serif" font-size="13" lengthAdjust="spacing" textLength="138" x="954" y="374.5186">archiveBoard(boardTitle)</text><polygon fill="#181818" points="1538,403.7969,1548,407.7969,1538,411.7969,1542,407.7969" style="stroke:#181818;stroke-width:1.0;"/><line style="stroke:#181818;stroke-width:1.0;" x1="1114" x2="1544" y1="407.7969" y2="407.7969"/><text fill="#000000" font-family="sans-serif" font-size="13" font-weight="bold" lengthAdjust="spacing" textLength="14" x="1121" y="403.042">10</text><text fill="#000000" font-family="sans-serif" font-size="13" lengthAdjust="spacing" textLength="158" x="1139" y="403.042">findBoardByTitle(boardTitle)</text><polygon fill="#181818" points="1125,432.3203,1115,436.3203,1125,440.3203,1121,436.3203" style="stroke:#181818;stroke-width:1.0;"/><line style="stroke:#181818;stroke-width:1.0;stroke-dasharray:2.0,2.0;" x1="1119" x2="1554" y1="436.3203" y2="436.3203"/><text fill="#000000" font-family="sans-serif" font-size="13" font-weight="bold" lengthAdjust="spacing" textLength="14" x="1131" y="431.5654">11</text><text fill="#000000" font-family="sans-serif" font-size="13" lengthAdjust="spacing" textLength="32" x="1149" y="431.5654">board</text><polygon fill="#181818" points="1221,460.8438,1231,464.8438,1221,468.8438,1225,464.8438" style="stroke:#181818;stroke-width:1.0;"/><line style="stroke:#181818;stroke-width:1.0;" x1="1114" x2="1227" y1="464.8438" y2="464.8438"/><text fill="#000000" font-family="sans-serif" font-size="13" font-weight="bold" lengthAdjust="spacing" textLength="14" x="1121" y="460.0889">12</text><text fill="#000000" font-family="sans-serif" font-size="13" lengthAdjust="spacing" textLength="82" x="1139" y="460.0889">archiveBoard()</text><polygon fill="#181818" points="1125,489.3672,1115,493.3672,1125,497.3672,1121,493.3672" style="stroke:#181818;stroke-width:1.0;"/><line style="stroke:#181818;stroke-width:1.0;stroke-dasharray:2.0,2.0;" x1="1119" x2="1237" y1="493.3672" y2="493.3672"/><text fill="#000000" font-family="sans-serif" font-size="13" font-weight="bold" lengthAdjust="spacing" textLength="14" x="1131" y="488.6123">13</text><text fill="#000000" font-family="sans-serif" font-size="13" lengthAdjust="spacing" textLength="22" x="1149" y="488.6123">true</text><polygon fill="#181818" points="1538,517.8906,1548,521.8906,1538,525.8906,1542,521.8906" style="stroke:#181818;stroke-width:1.0;"/><line style="stroke:#181818;stroke-width:1.0;" x1="1114" x2="1544" y1="521.8906" y2="521.8906"/><text fill="#000000" font-family="sans-serif" font-size="13" font-weight="bold" lengthAdjust="spacing" textLength="14" x="1121" y="517.1357">14</text><text fill="#000000" font-family="sans-serif" font-size="13" lengthAdjust="spacing" textLength="66" x="1139" y="517.1357">save(board)</text><polygon fill="#181818" points="1689.5,576.4141,1699.5,580.4141,1689.5,584.4141,1693.5,580.4141" style="stroke:#181818;stroke-width:1.0;"/><line style="stroke:#181818;stroke-width:1.0;" x1="1114" x2="1695.5" y1="580.4141" y2="580.4141"/><text fill="#000000" font-family="sans-serif" font-size="13" font-weight="bold" lengthAdjust="spacing" textLength="14" x="1121" y="575.6592">15</text><text fill="#000000" font-family="sans-serif" font-size="13" lengthAdjust="spacing" textLength="210" x="1139" y="575.6592">addNotification(message, boardTitle)</text><polygon fill="#181818" points="1125,604.9375,1115,608.9375,1125,612.9375,1121,608.9375" style="stroke:#181818;stroke-width:1.0;"/><line style="stroke:#181818;stroke-width:1.0;stroke-dasharray:2.0,2.0;" x1="1119" x2="1705.5" y1="608.9375" y2="608.9375"/><text fill="#000000" font-family="sans-serif" font-size="13" font-weight="bold" lengthAdjust="spacing" textLength="14" x="1131" y="604.1826">16</text><text fill="#000000" font-family="sans-serif" font-size="13" lengthAdjust="spacing" textLength="22" x="1149" y="604.1826">true</text><polygon fill="#181818" points="1892.5,633.4609,1902.5,637.4609,1892.5,641.4609,1896.5,637.4609" style="stroke:#181818;stroke-width:1.0;"/><line style="stroke:#181818;stroke-width:1.0;" x1="1114" x2="1898.5" y1="637.4609" y2="637.4609"/><text fill="#000000" font-family="sans-serif" font-size="13" font-weight="bold" lengthAdjust="spacing" textLength="14" x="1121" y="632.7061">17</text><text fill="#000000" font-family="sans-serif" font-size="13" lengthAdjust="spacing" textLength="244" x="1139" y="632.7061">addArchiveBoardTaskToHistory(boardTitle)</text><polygon fill="#181818" points="1125,661.9844,1115,665.9844,1125,669.9844,1121,665.9844" style="stroke:#181818;stroke-width:1.0;"/><line style="stroke:#181818;stroke-width:1.0;stroke-dasharray:2.0,2.0;" x1="1119" x2="1908.5" y1="665.9844" y2="665.9844"/><text fill="#000000" font-family="sans-serif" font-size="13" font-weight="bold" lengthAdjust="spacing" textLength="14" x="1131" y="661.2295">18</text><text fill="#000000" font-family="sans-serif" font-size="13" lengthAdjust="spacing" textLength="22" x="1149" y="661.2295">true</text><polygon fill="#181818" points="947,690.5078,937,694.5078,947,698.5078,943,694.5078" style="stroke:#181818;stroke-width:1.0;"/><line style="stroke:#181818;stroke-width:1.0;stroke-dasharray:2.0,2.0;" x1="941" x2="1108" y1="694.5078" y2="694.5078"/><text fill="#000000" font-family="sans-serif" font-size="13" font-weight="bold" lengthAdjust="spacing" textLength="14" x="953" y="689.7529">19</text><text fill="#000000" font-family="sans-serif" font-size="13" lengthAdjust="spacing" textLength="22" x="971" y="689.7529">true</text><polygon fill="#181818" points="331.5,719.0313,321.5,723.0313,331.5,727.0313,327.5,723.0313" style="stroke:#181818;stroke-width:1.0;"/><line style="stroke:#181818;stroke-width:1.0;stroke-dasharray:2.0,2.0;" x1="325.5" x2="930" y1="723.0313" y2="723.0313"/><text fill="#000000" font-family="sans-serif" font-size="13" font-weight="bold" lengthAdjust="spacing" textLength="14" x="337.5" y="718.2764">20</text><text fill="#000000" font-family="sans-serif" font-size="13" lengthAdjust="spacing" textLength="22" x="355.5" y="718.2764">true</text><polygon fill="#181818" points="752,747.5547,762,751.5547,752,755.5547,756,751.5547" style="stroke:#181818;stroke-width:1.0;"/><line style="stroke:#181818;stroke-width:1.0;" x1="320.5" x2="758" y1="751.5547" y2="751.5547"/><text fill="#000000" font-family="sans-serif" font-size="13" font-weight="bold" lengthAdjust="spacing" textLength="14" x="327.5" y="746.7998">21</text><text fill="#000000" font-family="sans-serif" font-size="13" lengthAdjust="spacing" textLength="169" x="345.5" y="746.7998">createAcknowledgeRequest()</text><polygon fill="#181818" points="331.5,776.0781,321.5,780.0781,331.5,784.0781,327.5,780.0781" style="stroke:#181818;stroke-width:1.0;"/><line style="stroke:#181818;stroke-width:1.0;stroke-dasharray:2.0,2.0;" x1="325.5" x2="768" y1="780.0781" y2="780.0781"/><text fill="#000000" font-family="sans-serif" font-size="13" font-weight="bold" lengthAdjust="spacing" textLength="14" x="337.5" y="775.3232">22</text><text fill="#000000" font-family="sans-serif" font-size="13" lengthAdjust="spacing" textLength="69" x="355.5" y="775.3232">ackRequest</text><polygon fill="#181818" points="596.5,804.6016,606.5,808.6016,596.5,812.6016,600.5,808.6016" style="stroke:#181818;stroke-width:1.0;"/><line style="stroke:#181818;stroke-width:1.0;" x1="320.5" x2="602.5" y1="808.6016" y2="808.6016"/><text fill="#000000" font-family="sans-serif" font-size="13" font-weight="bold" lengthAdjust="spacing" textLength="14" x="327.5" y="803.8467">23</text><text fill="#000000" font-family="sans-serif" font-size="13" lengthAdjust="spacing" textLength="128" x="345.5" y="803.8467">writeUTF(ackRequest)</text><!--SRC=[ZLJRRk8m47tFLrWyiTBs1weAAG6X8kr2HS873F6qjKZYh3EXukztV04SIDbzYUJ9kSoCJm8zwQQlzsWIKbIXI4tvgOwOQJ1IF8dy4mnATyhH71cMj618bQg5XiJaMQH4sCXvfR2XYO1Ex5RYvMMtcitka97q5l_qs7b2ccs_OIo0ODMqFULa46g7NgpoCTYcfnlSvWwNPs-_iUlW0vVQrE3TRN6PbBeXeoinYPkS-sA5nY7dnVOND-fM4craDkDYshQLAe6KRXuFRZcgn62TMprVkQSvl0Dc35le6jI8-5gJUW_M3hn-02wWEsIzgcGOgR3AeS1eoOlSGuSNzosskbEapSdtOI_gMXkPLCgudtZOTFrmM6RQvWhjV5zLPmq6_AB8NeSIK98w0Y57Bk7KFSrSb9u5HFkUrlx6VmeT9UJ7bSkKnDAOpT5YDh-Nks8vZJ0sSmQfDuq8ScUAIm-J99PQXbYTBIC17x8W0SR0oKF7PTx0GDtzIwPrgBE22-VDw7lxBEnd7MbOOEBGpZV_BnBZ4ejbYjlmkshyJo4xEUWuYpSRUdMlBmgtbZ7bp23Juy2oWsEm6Jf8Z4-1OSF69iCqNgCmsYrpnin3xfnQ_27xj8QWZi_lgVUYr-jojMW2ksT_DvSmtqBS_Tt4fkJC4gRbeT5V5SeF3B_NwRSHB0y1Sid-nixuPHIX3VyL47y6_4kDEhavfiFBsAt-0W00]--></g></svg>