<?xml version="1.0" encoding="us-ascii" standalone="no"?><svg xmlns="http://www.w3.org/2000/svg" xmlns:xlink="http://www.w3.org/1999/xlink" contentStyleType="text/css" height="1376px" preserveAspectRatio="none" style="width:2500px;height:1376px;background:#FFFFFF;" version="1.1" viewBox="0 0 2500 1376" width="2500px" zoomAndPan="magnify"><defs/><g><text fill="#000000" font-family="sans-serif" font-size="14" font-weight="bold" lengthAdjust="spacing" textLength="236" x="1133.5" y="30.1074">ShareBoard - SharedBoardServer</text><rect fill="#FFFFFF" height="1121.1855" style="stroke:#181818;stroke-width:1.0;" width="10" x="49.5" y="137.8633"/><rect fill="#FFFFFF" height="31.291" style="stroke:#181818;stroke-width:1.0;" width="10" x="172.5" y="161.1543"/><rect fill="#FFFFFF" height="31.291" style="stroke:#181818;stroke-width:1.0;" width="10" x="172.5" y="286.3184"/><rect fill="#FFFFFF" height="825.2754" style="stroke:#181818;stroke-width:1.0;" width="10" x="327.5" y="442.7734"/><rect fill="#FFFFFF" height="31.291" style="stroke:#181818;stroke-width:1.0;" width="10" x="533.5" y="223.7363"/><rect fill="#FFFFFF" height="30" style="stroke:#181818;stroke-width:1.0;" width="10" x="533.5" y="1229.0488"/><rect fill="#FFFFFF" height="31.291" style="stroke:#181818;stroke-width:1.0;" width="10" x="757.5" y="348.9004"/><rect fill="#FFFFFF" height="31.291" style="stroke:#181818;stroke-width:1.0;" width="10" x="757.5" y="474.0645"/><rect fill="#FFFFFF" height="31.291" style="stroke:#181818;stroke-width:1.0;" width="10" x="757.5" y="1166.4668"/><rect fill="#FFFFFF" height="598.5293" style="stroke:#181818;stroke-width:1.0;" width="10" x="931" y="536.6465"/><rect fill="#FFFFFF" height="535.9473" style="stroke:#181818;stroke-width:1.0;" width="10" x="1220" y="567.9375"/><rect fill="#FFFFFF" height="156.4551" style="stroke:#181818;stroke-width:1.0;" width="10" x="1492" y="909.1387"/><rect fill="#FFFFFF" height="93.873" style="stroke:#181818;stroke-width:1.0;" width="10" x="1802" y="940.4297"/><rect fill="#FFFFFF" height="31.291" style="stroke:#181818;stroke-width:1.0;" width="10" x="2220" y="971.7207"/><rect fill="#FFFFFF" height="31.291" style="stroke:#181818;stroke-width:1.0;" width="10" x="2413" y="599.2285"/><rect fill="#FFFFFF" height="31.291" style="stroke:#181818;stroke-width:1.0;" width="10" x="2413" y="661.8105"/><rect fill="#FFFFFF" height="31.291" style="stroke:#181818;stroke-width:1.0;" width="10" x="2413" y="750.6836"/><rect fill="#FFFFFF" height="31.291" style="stroke:#181818;stroke-width:1.0;" width="10" x="2413" y="839.5566"/><rect fill="none" height="365.4922" style="stroke:#000000;stroke-width:1.5;" width="1373.5" x="1120.5" y="708.1016"/><rect fill="none" height="81.873" style="stroke:#000000;stroke-width:1.5;" width="1353.5" x="1130.5" y="796.9746"/><line style="stroke:#181818;stroke-width:0.5;stroke-dasharray:5.0,5.0;" x1="54" x2="54" y1="127.8633" y2="1277.0488"/><line style="stroke:#181818;stroke-width:0.5;stroke-dasharray:5.0,5.0;" x1="177.5" x2="177.5" y1="127.8633" y2="1277.0488"/><line style="stroke:#181818;stroke-width:0.5;stroke-dasharray:5.0,5.0;" x1="332" x2="332" y1="127.8633" y2="1277.0488"/><line style="stroke:#181818;stroke-width:0.5;stroke-dasharray:5.0,5.0;" x1="538.5" x2="538.5" y1="127.8633" y2="1277.0488"/><line style="stroke:#181818;stroke-width:0.5;stroke-dasharray:5.0,5.0;" x1="762" x2="762" y1="127.8633" y2="1277.0488"/><line style="stroke:#181818;stroke-width:0.5;stroke-dasharray:5.0,5.0;" x1="936" x2="936" y1="127.8633" y2="1277.0488"/><line style="stroke:#181818;stroke-width:0.5;stroke-dasharray:5.0,5.0;" x1="1224.5" x2="1224.5" y1="127.8633" y2="1277.0488"/><line style="stroke:#181818;stroke-width:0.5;stroke-dasharray:5.0,5.0;" x1="1497" x2="1497" y1="127.8633" y2="1277.0488"/><line style="stroke:#181818;stroke-width:0.5;stroke-dasharray:5.0,5.0;" x1="1807" x2="1807" y1="127.8633" y2="1277.0488"/><line style="stroke:#181818;stroke-width:0.5;stroke-dasharray:5.0,5.0;" x1="2225" x2="2225" y1="127.8633" y2="1277.0488"/><line style="stroke:#181818;stroke-width:0.5;stroke-dasharray:5.0,5.0;" x1="2418" x2="2418" y1="127.8633" y2="1277.0488"/><rect fill="#E2E2F0" height="51.2422" rx="2.5" ry="2.5" style="stroke:#181818;stroke-width:0.5;" width="99" x="5" y="75.6211"/><text fill="#000000" font-family="sans-serif" font-size="14" font-style="italic" lengthAdjust="spacing" textLength="85" x="12" y="97.7285">&#171;Application&#187;</text><text fill="#000000" font-family="sans-serif" font-size="14" lengthAdjust="spacing" textLength="77" x="16" y="116.3496">AttendClient</text><rect fill="#E2E2F0" height="51.2422" rx="2.5" ry="2.5" style="stroke:#181818;stroke-width:0.5;" width="99" x="5" y="1276.0488"/><text fill="#000000" font-family="sans-serif" font-size="14" font-style="italic" lengthAdjust="spacing" textLength="85" x="12" y="1298.1563">&#171;Application&#187;</text><text fill="#000000" font-family="sans-serif" font-size="14" lengthAdjust="spacing" textLength="77" x="16" y="1316.7773">AttendClient</text><rect fill="#E2E2F0" height="32.6211" rx="2.5" ry="2.5" style="stroke:#181818;stroke-width:0.5;" width="120" x="117.5" y="94.2422"/><text fill="#000000" font-family="sans-serif" font-size="14" lengthAdjust="spacing" textLength="106" x="124.5" y="116.3496">DataInputStream</text><rect fill="#E2E2F0" height="32.6211" rx="2.5" ry="2.5" style="stroke:#181818;stroke-width:0.5;" width="120" x="117.5" y="1276.0488"/><text fill="#000000" font-family="sans-serif" font-size="14" lengthAdjust="spacing" textLength="106" x="124.5" y="1298.1563">DataInputStream</text><rect fill="#E2E2F0" height="32.6211" rx="2.5" ry="2.5" style="stroke:#181818;stroke-width:0.5;" width="167" x="249" y="94.2422"/><text fill="#000000" font-family="sans-serif" font-size="14" lengthAdjust="spacing" textLength="153" x="256" y="116.3496">ViewInRealTimeRequest</text><rect fill="#E2E2F0" height="32.6211" rx="2.5" ry="2.5" style="stroke:#181818;stroke-width:0.5;" width="167" x="249" y="1276.0488"/><text fill="#000000" font-family="sans-serif" font-size="14" lengthAdjust="spacing" textLength="153" x="256" y="1298.1563">ViewInRealTimeRequest</text><rect fill="#E2E2F0" height="32.6211" rx="2.5" ry="2.5" style="stroke:#181818;stroke-width:0.5;" width="132" x="472.5" y="94.2422"/><text fill="#000000" font-family="sans-serif" font-size="14" lengthAdjust="spacing" textLength="118" x="479.5" y="116.3496">DataOutputStream</text><rect fill="#E2E2F0" height="32.6211" rx="2.5" ry="2.5" style="stroke:#181818;stroke-width:0.5;" width="132" x="472.5" y="1276.0488"/><text fill="#000000" font-family="sans-serif" font-size="14" lengthAdjust="spacing" textLength="118" x="479.5" y="1298.1563">DataOutputStream</text><rect fill="#E2E2F0" height="32.6211" rx="2.5" ry="2.5" style="stroke:#181818;stroke-width:0.5;" width="143" x="691" y="94.2422"/><text fill="#000000" font-family="sans-serif" font-size="14" lengthAdjust="spacing" textLength="129" x="698" y="116.3496">SBPMessageFormat</text><rect fill="#E2E2F0" height="32.6211" rx="2.5" ry="2.5" style="stroke:#181818;stroke-width:0.5;" width="143" x="691" y="1276.0488"/><text fill="#000000" font-family="sans-serif" font-size="14" lengthAdjust="spacing" textLength="129" x="698" y="1298.1563">SBPMessageFormat</text><rect fill="#E2E2F0" height="69.8633" rx="2.5" ry="2.5" style="stroke:#181818;stroke-width:0.5;" width="184" x="844" y="57"/><text fill="#000000" font-family="sans-serif" font-size="14" font-style="italic" lengthAdjust="spacing" textLength="133" x="869.5" y="79.1074">&#171;ShareBoardServer&#187;</text><text fill="#000000" font-family="sans-serif" font-size="14" font-style="italic" lengthAdjust="spacing" textLength="85" x="893.5" y="97.7285">&#171;Application&#187;</text><text fill="#000000" font-family="sans-serif" font-size="14" lengthAdjust="spacing" textLength="170" x="851" y="116.3496">BoardInformationController</text><rect fill="#E2E2F0" height="69.8633" rx="2.5" ry="2.5" style="stroke:#181818;stroke-width:0.5;" width="184" x="844" y="1276.0488"/><text fill="#000000" font-family="sans-serif" font-size="14" font-style="italic" lengthAdjust="spacing" textLength="133" x="869.5" y="1298.1563">&#171;ShareBoardServer&#187;</text><text fill="#000000" font-family="sans-serif" font-size="14" font-style="italic" lengthAdjust="spacing" textLength="85" x="893.5" y="1316.7773">&#171;Application&#187;</text><text fill="#000000" font-family="sans-serif" font-size="14" lengthAdjust="spacing" textLength="170" x="851" y="1335.3984">BoardInformationController</text><rect fill="#E2E2F0" height="51.2422" rx="2.5" ry="2.5" style="stroke:#181818;stroke-width:0.5;" width="169" x="1140.5" y="75.6211"/><text fill="#000000" font-family="sans-serif" font-size="14" font-style="italic" lengthAdjust="spacing" textLength="62" x="1194" y="97.7285">&#171;Service&#187;</text><text fill="#000000" font-family="sans-serif" font-size="14" lengthAdjust="spacing" textLength="155" x="1147.5" y="116.3496">BoardInformationService</text><rect fill="#E2E2F0" height="51.2422" rx="2.5" ry="2.5" style="stroke:#181818;stroke-width:0.5;" width="169" x="1140.5" y="1276.0488"/><text fill="#000000" font-family="sans-serif" font-size="14" font-style="italic" lengthAdjust="spacing" textLength="62" x="1194" y="1298.1563">&#171;Service&#187;</text><text fill="#000000" font-family="sans-serif" font-size="14" lengthAdjust="spacing" textLength="155" x="1147.5" y="1316.7773">BoardInformationService</text><rect fill="#E2E2F0" height="51.2422" rx="2.5" ry="2.5" style="stroke:#181818;stroke-width:0.5;" width="302" x="1346" y="75.6211"/><text fill="#000000" font-family="sans-serif" font-size="14" font-style="italic" lengthAdjust="spacing" textLength="46" x="1474" y="97.7285">&#171;DTO&#187;</text><text fill="#000000" font-family="sans-serif" font-size="14" lengthAdjust="spacing" textLength="288" x="1353" y="116.3496">CellDTOWithColumnRowPostItCreatorMapper</text><rect fill="#E2E2F0" height="51.2422" rx="2.5" ry="2.5" style="stroke:#181818;stroke-width:0.5;" width="302" x="1346" y="1276.0488"/><text fill="#000000" font-family="sans-serif" font-size="14" font-style="italic" lengthAdjust="spacing" textLength="46" x="1474" y="1298.1563">&#171;DTO&#187;</text><text fill="#000000" font-family="sans-serif" font-size="14" lengthAdjust="spacing" textLength="288" x="1353" y="1316.7773">CellDTOWithColumnRowPostItCreatorMapper</text><rect fill="#E2E2F0" height="51.2422" rx="2.5" ry="2.5" style="stroke:#181818;stroke-width:0.5;" width="298" x="1658" y="75.6211"/><text fill="#000000" font-family="sans-serif" font-size="14" font-style="italic" lengthAdjust="spacing" textLength="46" x="1784" y="97.7285">&#171;DTO&#187;</text><text fill="#000000" font-family="sans-serif" font-size="14" lengthAdjust="spacing" textLength="284" x="1665" y="116.3496">CellDTOWithColumnRowPostItCreatorBuilder</text><rect fill="#E2E2F0" height="51.2422" rx="2.5" ry="2.5" style="stroke:#181818;stroke-width:0.5;" width="298" x="1658" y="1276.0488"/><text fill="#000000" font-family="sans-serif" font-size="14" font-style="italic" lengthAdjust="spacing" textLength="46" x="1784" y="1298.1563">&#171;DTO&#187;</text><text fill="#000000" font-family="sans-serif" font-size="14" lengthAdjust="spacing" textLength="284" x="1665" y="1316.7773">CellDTOWithColumnRowPostItCreatorBuilder</text><rect fill="#E2E2F0" height="51.2422" rx="2.5" ry="2.5" style="stroke:#181818;stroke-width:0.5;" width="254" x="2098" y="75.6211"/><text fill="#000000" font-family="sans-serif" font-size="14" font-style="italic" lengthAdjust="spacing" textLength="46" x="2202" y="97.7285">&#171;DTO&#187;</text><text fill="#000000" font-family="sans-serif" font-size="14" lengthAdjust="spacing" textLength="240" x="2105" y="116.3496">CellDTOWithColumnRowPostItCreator</text><rect fill="#E2E2F0" height="51.2422" rx="2.5" ry="2.5" style="stroke:#181818;stroke-width:0.5;" width="254" x="2098" y="1276.0488"/><text fill="#000000" font-family="sans-serif" font-size="14" font-style="italic" lengthAdjust="spacing" textLength="46" x="2202" y="1298.1563">&#171;DTO&#187;</text><text fill="#000000" font-family="sans-serif" font-size="14" lengthAdjust="spacing" textLength="240" x="2105" y="1316.7773">CellDTOWithColumnRowPostItCreator</text><text fill="#000000" font-family="sans-serif" font-size="14" font-style="italic" lengthAdjust="spacing" textLength="84" x="2373" y="105.7285">&#171;Repository&#187;</text><text fill="#000000" font-family="sans-serif" font-size="14" lengthAdjust="spacing" textLength="106" x="2362" y="124.3496">BoardRepository</text><path d="M2400,54.6211 C2400,44.6211 2418,44.6211 2418,44.6211 C2418,44.6211 2436,44.6211 2436,54.6211 L2436,80.6211 C2436,90.6211 2418,90.6211 2418,90.6211 C2418,90.6211 2400,90.6211 2400,80.6211 L2400,54.6211 " fill="#E2E2F0" style="stroke:#181818;stroke-width:1.5;"/><path d="M2400,54.6211 C2400,64.6211 2418,64.6211 2418,64.6211 C2418,64.6211 2436,64.6211 2436,54.6211 " fill="none" style="stroke:#181818;stroke-width:1.5;"/><text fill="#000000" font-family="sans-serif" font-size="14" font-style="italic" lengthAdjust="spacing" textLength="84" x="2373" y="1291.1563">&#171;Repository&#187;</text><text fill="#000000" font-family="sans-serif" font-size="14" lengthAdjust="spacing" textLength="106" x="2362" y="1309.7773">BoardRepository</text><path d="M2400,1323.291 C2400,1313.291 2418,1313.291 2418,1313.291 C2418,1313.291 2436,1313.291 2436,1323.291 L2436,1349.291 C2436,1359.291 2418,1359.291 2418,1359.291 C2418,1359.291 2400,1359.291 2400,1349.291 L2400,1323.291 " fill="#E2E2F0" style="stroke:#181818;stroke-width:1.5;"/><path d="M2400,1323.291 C2400,1333.291 2418,1333.291 2418,1333.291 C2418,1333.291 2436,1333.291 2436,1323.291 " fill="none" style="stroke:#181818;stroke-width:1.5;"/><rect fill="#FFFFFF" height="1121.1855" style="stroke:#181818;stroke-width:1.0;" width="10" x="49.5" y="137.8633"/><rect fill="#FFFFFF" height="31.291" style="stroke:#181818;stroke-width:1.0;" width="10" x="172.5" y="161.1543"/><rect fill="#FFFFFF" height="31.291" style="stroke:#181818;stroke-width:1.0;" width="10" x="172.5" y="286.3184"/><rect fill="#FFFFFF" height="825.2754" style="stroke:#181818;stroke-width:1.0;" width="10" x="327.5" y="442.7734"/><rect fill="#FFFFFF" height="31.291" style="stroke:#181818;stroke-width:1.0;" width="10" x="533.5" y="223.7363"/><rect fill="#FFFFFF" height="30" style="stroke:#181818;stroke-width:1.0;" width="10" x="533.5" y="1229.0488"/><rect fill="#FFFFFF" height="31.291" style="stroke:#181818;stroke-width:1.0;" width="10" x="757.5" y="348.9004"/><rect fill="#FFFFFF" height="31.291" style="stroke:#181818;stroke-width:1.0;" width="10" x="757.5" y="474.0645"/><rect fill="#FFFFFF" height="31.291" style="stroke:#181818;stroke-width:1.0;" width="10" x="757.5" y="1166.4668"/><rect fill="#FFFFFF" height="598.5293" style="stroke:#181818;stroke-width:1.0;" width="10" x="931" y="536.6465"/><rect fill="#FFFFFF" height="535.9473" style="stroke:#181818;stroke-width:1.0;" width="10" x="1220" y="567.9375"/><rect fill="#FFFFFF" height="156.4551" style="stroke:#181818;stroke-width:1.0;" width="10" x="1492" y="909.1387"/><rect fill="#FFFFFF" height="93.873" style="stroke:#181818;stroke-width:1.0;" width="10" x="1802" y="940.4297"/><rect fill="#FFFFFF" height="31.291" style="stroke:#181818;stroke-width:1.0;" width="10" x="2220" y="971.7207"/><rect fill="#FFFFFF" height="31.291" style="stroke:#181818;stroke-width:1.0;" width="10" x="2413" y="599.2285"/><rect fill="#FFFFFF" height="31.291" style="stroke:#181818;stroke-width:1.0;" width="10" x="2413" y="661.8105"/><rect fill="#FFFFFF" height="31.291" style="stroke:#181818;stroke-width:1.0;" width="10" x="2413" y="750.6836"/><rect fill="#FFFFFF" height="31.291" style="stroke:#181818;stroke-width:1.0;" width="10" x="2413" y="839.5566"/><polygon fill="#181818" points="160.5,157.1543,170.5,161.1543,160.5,165.1543,164.5,161.1543" style="stroke:#181818;stroke-width:1.0;"/><line style="stroke:#181818;stroke-width:1.0;" x1="59.5" x2="166.5" y1="161.1543" y2="161.1543"/><text fill="#000000" font-family="sans-serif" font-size="13" font-weight="bold" lengthAdjust="spacing" textLength="7" x="66.5" y="155.8916">1</text><text fill="#000000" font-family="sans-serif" font-size="13" lengthAdjust="spacing" textLength="83" x="77.5" y="155.8916">create(socket)</text><polygon fill="#181818" points="70.5,188.4453,60.5,192.4453,70.5,196.4453,66.5,192.4453" style="stroke:#181818;stroke-width:1.0;"/><line style="stroke:#181818;stroke-width:1.0;stroke-dasharray:2.0,2.0;" x1="64.5" x2="176.5" y1="192.4453" y2="192.4453"/><text fill="#000000" font-family="sans-serif" font-size="13" font-weight="bold" lengthAdjust="spacing" textLength="7" x="76.5" y="187.1826">2</text><text fill="#000000" font-family="sans-serif" font-size="13" lengthAdjust="spacing" textLength="70" x="87.5" y="187.1826">inputStream</text><polygon fill="#181818" points="521.5,219.7363,531.5,223.7363,521.5,227.7363,525.5,223.7363" style="stroke:#181818;stroke-width:1.0;"/><line style="stroke:#181818;stroke-width:1.0;" x1="59.5" x2="527.5" y1="223.7363" y2="223.7363"/><text fill="#000000" font-family="sans-serif" font-size="13" font-weight="bold" lengthAdjust="spacing" textLength="7" x="66.5" y="218.4736">3</text><text fill="#000000" font-family="sans-serif" font-size="13" lengthAdjust="spacing" textLength="83" x="77.5" y="218.4736">create(socket)</text><polygon fill="#181818" points="70.5,251.0273,60.5,255.0273,70.5,259.0273,66.5,255.0273" style="stroke:#181818;stroke-width:1.0;"/><line style="stroke:#181818;stroke-width:1.0;stroke-dasharray:2.0,2.0;" x1="64.5" x2="537.5" y1="255.0273" y2="255.0273"/><text fill="#000000" font-family="sans-serif" font-size="13" font-weight="bold" lengthAdjust="spacing" textLength="7" x="76.5" y="249.7646">4</text><text fill="#000000" font-family="sans-serif" font-size="13" lengthAdjust="spacing" textLength="78" x="87.5" y="249.7646">outputStream</text><polygon fill="#181818" points="160.5,282.3184,170.5,286.3184,160.5,290.3184,164.5,286.3184" style="stroke:#181818;stroke-width:1.0;"/><line style="stroke:#181818;stroke-width:1.0;" x1="59.5" x2="166.5" y1="286.3184" y2="286.3184"/><text fill="#000000" font-family="sans-serif" font-size="13" font-weight="bold" lengthAdjust="spacing" textLength="7" x="66.5" y="281.0557">5</text><text fill="#000000" font-family="sans-serif" font-size="13" lengthAdjust="spacing" textLength="57" x="77.5" y="281.0557">readUTF()</text><polygon fill="#181818" points="70.5,313.6094,60.5,317.6094,70.5,321.6094,66.5,317.6094" style="stroke:#181818;stroke-width:1.0;"/><line style="stroke:#181818;stroke-width:1.0;stroke-dasharray:2.0,2.0;" x1="64.5" x2="176.5" y1="317.6094" y2="317.6094"/><text fill="#000000" font-family="sans-serif" font-size="13" font-weight="bold" lengthAdjust="spacing" textLength="7" x="76.5" y="312.3467">6</text><text fill="#000000" font-family="sans-serif" font-size="13" lengthAdjust="spacing" textLength="53" x="87.5" y="312.3467">message</text><polygon fill="#181818" points="745.5,344.9004,755.5,348.9004,745.5,352.9004,749.5,348.9004" style="stroke:#181818;stroke-width:1.0;"/><line style="stroke:#181818;stroke-width:1.0;" x1="59.5" x2="751.5" y1="348.9004" y2="348.9004"/><text fill="#000000" font-family="sans-serif" font-size="13" font-weight="bold" lengthAdjust="spacing" textLength="7" x="66.5" y="343.6377">7</text><text fill="#000000" font-family="sans-serif" font-size="13" lengthAdjust="spacing" textLength="144" x="77.5" y="343.6377">decodeFormat(message)</text><polygon fill="#181818" points="70.5,376.1914,60.5,380.1914,70.5,384.1914,66.5,380.1914" style="stroke:#181818;stroke-width:1.0;"/><line style="stroke:#181818;stroke-width:1.0;stroke-dasharray:2.0,2.0;" x1="64.5" x2="761.5" y1="380.1914" y2="380.1914"/><text fill="#000000" font-family="sans-serif" font-size="13" font-weight="bold" lengthAdjust="spacing" textLength="7" x="76.5" y="374.9287">8</text><text fill="#000000" font-family="sans-serif" font-size="13" lengthAdjust="spacing" textLength="70" x="87.5" y="374.9287">arrayFormat</text><polygon fill="#181818" points="320.5,407.4824,330.5,411.4824,320.5,415.4824,324.5,411.4824" style="stroke:#181818;stroke-width:1.0;"/><line style="stroke:#181818;stroke-width:1.0;" x1="59.5" x2="326.5" y1="411.4824" y2="411.4824"/><text fill="#000000" font-family="sans-serif" font-size="13" font-weight="bold" lengthAdjust="spacing" textLength="7" x="66.5" y="406.2197">9</text><text fill="#000000" font-family="sans-serif" font-size="13" lengthAdjust="spacing" textLength="44" x="77.5" y="406.2197">create()</text><polygon fill="#181818" points="315.5,438.7734,325.5,442.7734,315.5,446.7734,319.5,442.7734" style="stroke:#181818;stroke-width:1.0;"/><line style="stroke:#181818;stroke-width:1.0;" x1="59.5" x2="321.5" y1="442.7734" y2="442.7734"/><text fill="#000000" font-family="sans-serif" font-size="13" font-weight="bold" lengthAdjust="spacing" textLength="14" x="66.5" y="437.5107">10</text><text fill="#000000" font-family="sans-serif" font-size="13" lengthAdjust="spacing" textLength="231" x="84.5" y="437.5107">viewInRealTime(message,outputStream)</text><polygon fill="#181818" points="745.5,470.0645,755.5,474.0645,745.5,478.0645,749.5,474.0645" style="stroke:#181818;stroke-width:1.0;"/><line style="stroke:#181818;stroke-width:1.0;" x1="337.5" x2="751.5" y1="474.0645" y2="474.0645"/><text fill="#000000" font-family="sans-serif" font-size="13" font-weight="bold" lengthAdjust="spacing" textLength="14" x="344.5" y="468.8018">11</text><text fill="#000000" font-family="sans-serif" font-size="13" lengthAdjust="spacing" textLength="148" x="362.5" y="468.8018">decodeParams(message)</text><polygon fill="#181818" points="348.5,501.3555,338.5,505.3555,348.5,509.3555,344.5,505.3555" style="stroke:#181818;stroke-width:1.0;"/><line style="stroke:#181818;stroke-width:1.0;stroke-dasharray:2.0,2.0;" x1="342.5" x2="761.5" y1="505.3555" y2="505.3555"/><text fill="#000000" font-family="sans-serif" font-size="13" font-weight="bold" lengthAdjust="spacing" textLength="14" x="354.5" y="500.0928">12</text><text fill="#000000" font-family="sans-serif" font-size="13" lengthAdjust="spacing" textLength="43" x="372.5" y="500.0928">params</text><polygon fill="#181818" points="919,532.6465,929,536.6465,919,540.6465,923,536.6465" style="stroke:#181818;stroke-width:1.0;"/><line style="stroke:#181818;stroke-width:1.0;" x1="337.5" x2="925" y1="536.6465" y2="536.6465"/><text fill="#000000" font-family="sans-serif" font-size="13" font-weight="bold" lengthAdjust="spacing" textLength="14" x="344.5" y="531.3838">13</text><text fill="#000000" font-family="sans-serif" font-size="13" lengthAdjust="spacing" textLength="165" x="362.5" y="531.3838">getBoardInformation(boardId)</text><polygon fill="#181818" points="1208,563.9375,1218,567.9375,1208,571.9375,1212,567.9375" style="stroke:#181818;stroke-width:1.0;"/><line style="stroke:#181818;stroke-width:1.0;" x1="941" x2="1214" y1="567.9375" y2="567.9375"/><text fill="#000000" font-family="sans-serif" font-size="13" font-weight="bold" lengthAdjust="spacing" textLength="14" x="948" y="562.6748">14</text><text fill="#000000" font-family="sans-serif" font-size="13" lengthAdjust="spacing" textLength="194" x="966" y="562.6748">getBoardCellsInformation(boardId)</text><polygon fill="#181818" points="2401,595.2285,2411,599.2285,2401,603.2285,2405,599.2285" style="stroke:#181818;stroke-width:1.0;"/><line style="stroke:#181818;stroke-width:1.0;" x1="1230" x2="2407" y1="599.2285" y2="599.2285"/><text fill="#000000" font-family="sans-serif" font-size="13" font-weight="bold" lengthAdjust="spacing" textLength="14" x="1237" y="593.9658">15</text><text fill="#000000" font-family="sans-serif" font-size="13" lengthAdjust="spacing" textLength="144" x="1255" y="593.9658">findBoardByTitle(boardId)</text><polygon fill="#181818" points="1241,626.5195,1231,630.5195,1241,634.5195,1237,630.5195" style="stroke:#181818;stroke-width:1.0;"/><line style="stroke:#181818;stroke-width:1.0;stroke-dasharray:2.0,2.0;" x1="1235" x2="2417" y1="630.5195" y2="630.5195"/><text fill="#000000" font-family="sans-serif" font-size="13" font-weight="bold" lengthAdjust="spacing" textLength="14" x="1247" y="625.2568">16</text><text fill="#000000" font-family="sans-serif" font-size="13" lengthAdjust="spacing" textLength="32" x="1265" y="625.2568">board</text><polygon fill="#181818" points="2401,657.8105,2411,661.8105,2401,665.8105,2405,661.8105" style="stroke:#181818;stroke-width:1.0;"/><line style="stroke:#181818;stroke-width:1.0;" x1="1230" x2="2407" y1="661.8105" y2="661.8105"/><text fill="#000000" font-family="sans-serif" font-size="13" font-weight="bold" lengthAdjust="spacing" textLength="14" x="1237" y="656.5479">17</text><text fill="#000000" font-family="sans-serif" font-size="13" lengthAdjust="spacing" textLength="175" x="1255" y="656.5479">getAllCellsFromABoard(board)</text><polygon fill="#181818" points="1241,689.1016,1231,693.1016,1241,697.1016,1237,693.1016" style="stroke:#181818;stroke-width:1.0;"/><line style="stroke:#181818;stroke-width:1.0;stroke-dasharray:2.0,2.0;" x1="1235" x2="2417" y1="693.1016" y2="693.1016"/><text fill="#000000" font-family="sans-serif" font-size="13" font-weight="bold" lengthAdjust="spacing" textLength="14" x="1247" y="687.8389">18</text><text fill="#000000" font-family="sans-serif" font-size="13" lengthAdjust="spacing" textLength="46" x="1265" y="687.8389">listCells</text><path d="M1120.5,708.1016 L1193.5,708.1016 L1193.5,717.3926 L1183.5,727.3926 L1120.5,727.3926 L1120.5,708.1016 " fill="#EEEEEE" style="stroke:#000000;stroke-width:1.5;"/><rect fill="none" height="365.4922" style="stroke:#000000;stroke-width:1.5;" width="1373.5" x="1120.5" y="708.1016"/><text fill="#000000" font-family="sans-serif" font-size="13" font-weight="bold" lengthAdjust="spacing" textLength="28" x="1135.5" y="723.1299">loop</text><text fill="#000000" font-family="sans-serif" font-size="11" font-weight="bold" lengthAdjust="spacing" textLength="131" x="1208.5" y="721.9717">[for each cell in cellList]</text><polygon fill="#181818" points="2401,746.6836,2411,750.6836,2401,754.6836,2405,750.6836" style="stroke:#181818;stroke-width:1.0;"/><line style="stroke:#181818;stroke-width:1.0;" x1="1230" x2="2407" y1="750.6836" y2="750.6836"/><text fill="#000000" font-family="sans-serif" font-size="13" font-weight="bold" lengthAdjust="spacing" textLength="14" x="1237" y="745.4209">19</text><text fill="#000000" font-family="sans-serif" font-size="13" lengthAdjust="spacing" textLength="215" x="1255" y="745.4209">getCreatorOfAPostItBoardOwner(cell)</text><polygon fill="#181818" points="1241,777.9746,1231,781.9746,1241,785.9746,1237,781.9746" style="stroke:#181818;stroke-width:1.0;"/><line style="stroke:#181818;stroke-width:1.0;stroke-dasharray:2.0,2.0;" x1="1235" x2="2417" y1="781.9746" y2="781.9746"/><text fill="#000000" font-family="sans-serif" font-size="13" font-weight="bold" lengthAdjust="spacing" textLength="14" x="1247" y="776.7119">20</text><text fill="#000000" font-family="sans-serif" font-size="13" lengthAdjust="spacing" textLength="39" x="1265" y="776.7119">person</text><path d="M1130.5,796.9746 L1191.5,796.9746 L1191.5,806.2656 L1181.5,816.2656 L1130.5,816.2656 L1130.5,796.9746 " fill="#EEEEEE" style="stroke:#000000;stroke-width:1.5;"/><rect fill="none" height="81.873" style="stroke:#000000;stroke-width:1.5;" width="1353.5" x="1130.5" y="796.9746"/><text fill="#000000" font-family="sans-serif" font-size="13" font-weight="bold" lengthAdjust="spacing" textLength="16" x="1145.5" y="812.0029">alt</text><text fill="#000000" font-family="sans-serif" font-size="11" font-weight="bold" lengthAdjust="spacing" textLength="142" x="1206.5" y="810.8447">[error NoResultException]</text><polygon fill="#181818" points="2401,835.5566,2411,839.5566,2401,843.5566,2405,839.5566" style="stroke:#181818;stroke-width:1.0;"/><line style="stroke:#181818;stroke-width:1.0;" x1="1230" x2="2407" y1="839.5566" y2="839.5566"/><text fill="#000000" font-family="sans-serif" font-size="13" font-weight="bold" lengthAdjust="spacing" textLength="14" x="1237" y="834.2939">21</text><text fill="#000000" font-family="sans-serif" font-size="13" lengthAdjust="spacing" textLength="240" x="1255" y="834.2939">getCreatorOfAPostItBoardParticipant(cell)</text><polygon fill="#181818" points="1241,866.8477,1231,870.8477,1241,874.8477,1237,870.8477" style="stroke:#181818;stroke-width:1.0;"/><line style="stroke:#181818;stroke-width:1.0;stroke-dasharray:2.0,2.0;" x1="1235" x2="2417" y1="870.8477" y2="870.8477"/><text fill="#000000" font-family="sans-serif" font-size="13" font-weight="bold" lengthAdjust="spacing" textLength="14" x="1247" y="865.585">22</text><text fill="#000000" font-family="sans-serif" font-size="13" lengthAdjust="spacing" textLength="39" x="1265" y="865.585">person</text><polygon fill="#181818" points="1480,905.1387,1490,909.1387,1480,913.1387,1484,909.1387" style="stroke:#181818;stroke-width:1.0;"/><line style="stroke:#181818;stroke-width:1.0;" x1="1230" x2="1486" y1="909.1387" y2="909.1387"/><text fill="#000000" font-family="sans-serif" font-size="13" font-weight="bold" lengthAdjust="spacing" textLength="14" x="1237" y="903.876">23</text><text fill="#000000" font-family="sans-serif" font-size="13" lengthAdjust="spacing" textLength="102" x="1255" y="903.876">toDto(cell,person)</text><polygon fill="#181818" points="1790,936.4297,1800,940.4297,1790,944.4297,1794,940.4297" style="stroke:#181818;stroke-width:1.0;"/><line style="stroke:#181818;stroke-width:1.0;" x1="1502" x2="1796" y1="940.4297" y2="940.4297"/><text fill="#000000" font-family="sans-serif" font-size="13" font-weight="bold" lengthAdjust="spacing" textLength="14" x="1509" y="935.167">24</text><text fill="#000000" font-family="sans-serif" font-size="13" lengthAdjust="spacing" textLength="35" x="1527" y="935.167">build()</text><polygon fill="#181818" points="2208,967.7207,2218,971.7207,2208,975.7207,2212,971.7207" style="stroke:#181818;stroke-width:1.0;"/><line style="stroke:#181818;stroke-width:1.0;" x1="1812" x2="2214" y1="971.7207" y2="971.7207"/><text fill="#000000" font-family="sans-serif" font-size="13" font-weight="bold" lengthAdjust="spacing" textLength="14" x="1819" y="966.458">25</text><text fill="#000000" font-family="sans-serif" font-size="13" lengthAdjust="spacing" textLength="371" x="1837" y="966.458">create(rowIdentifier,rowTitle,columnIdentifier,columnTitle,content)</text><polygon fill="#181818" points="1823,999.0117,1813,1003.0117,1823,1007.0117,1819,1003.0117" style="stroke:#181818;stroke-width:1.0;"/><line style="stroke:#181818;stroke-width:1.0;stroke-dasharray:2.0,2.0;" x1="1817" x2="2224" y1="1003.0117" y2="1003.0117"/><text fill="#000000" font-family="sans-serif" font-size="13" font-weight="bold" lengthAdjust="spacing" textLength="14" x="1829" y="997.749">26</text><text fill="#000000" font-family="sans-serif" font-size="13" lengthAdjust="spacing" textLength="220" x="1847" y="997.749">CellDTOWithColumnRowPostItCreator</text><polygon fill="#181818" points="1513,1030.3027,1503,1034.3027,1513,1038.3027,1509,1034.3027" style="stroke:#181818;stroke-width:1.0;"/><line style="stroke:#181818;stroke-width:1.0;stroke-dasharray:2.0,2.0;" x1="1507" x2="1806" y1="1034.3027" y2="1034.3027"/><text fill="#000000" font-family="sans-serif" font-size="13" font-weight="bold" lengthAdjust="spacing" textLength="14" x="1519" y="1029.04">27</text><text fill="#000000" font-family="sans-serif" font-size="13" lengthAdjust="spacing" textLength="220" x="1537" y="1029.04">CellDTOWithColumnRowPostItCreator</text><polygon fill="#181818" points="1241,1061.5938,1231,1065.5938,1241,1069.5938,1237,1065.5938" style="stroke:#181818;stroke-width:1.0;"/><line style="stroke:#181818;stroke-width:1.0;stroke-dasharray:2.0,2.0;" x1="1235" x2="1496" y1="1065.5938" y2="1065.5938"/><text fill="#000000" font-family="sans-serif" font-size="13" font-weight="bold" lengthAdjust="spacing" textLength="14" x="1247" y="1060.3311">28</text><text fill="#000000" font-family="sans-serif" font-size="13" lengthAdjust="spacing" textLength="220" x="1265" y="1060.3311">CellDTOWithColumnRowPostItCreator</text><polygon fill="#181818" points="952,1099.8848,942,1103.8848,952,1107.8848,948,1103.8848" style="stroke:#181818;stroke-width:1.0;"/><line style="stroke:#181818;stroke-width:1.0;stroke-dasharray:2.0,2.0;" x1="946" x2="1224" y1="1103.8848" y2="1103.8848"/><text fill="#000000" font-family="sans-serif" font-size="13" font-weight="bold" lengthAdjust="spacing" textLength="14" x="958" y="1098.6221">29</text><text fill="#000000" font-family="sans-serif" font-size="13" lengthAdjust="spacing" textLength="237" x="976" y="1098.6221">listCellDTOWithColumnRowPostItCreator</text><polygon fill="#181818" points="348.5,1131.1758,338.5,1135.1758,348.5,1139.1758,344.5,1135.1758" style="stroke:#181818;stroke-width:1.0;"/><line style="stroke:#181818;stroke-width:1.0;stroke-dasharray:2.0,2.0;" x1="342.5" x2="935" y1="1135.1758" y2="1135.1758"/><text fill="#000000" font-family="sans-serif" font-size="13" font-weight="bold" lengthAdjust="spacing" textLength="14" x="354.5" y="1129.9131">30</text><text fill="#000000" font-family="sans-serif" font-size="13" lengthAdjust="spacing" textLength="237" x="372.5" y="1129.9131">listCellDTOWithColumnRowPostItCreator</text><polygon fill="#181818" points="745.5,1162.4668,755.5,1166.4668,745.5,1170.4668,749.5,1166.4668" style="stroke:#181818;stroke-width:1.0;"/><line style="stroke:#181818;stroke-width:1.0;" x1="337.5" x2="751.5" y1="1166.4668" y2="1166.4668"/><text fill="#000000" font-family="sans-serif" font-size="13" font-weight="bold" lengthAdjust="spacing" textLength="14" x="344.5" y="1161.2041">31</text><text fill="#000000" font-family="sans-serif" font-size="13" lengthAdjust="spacing" textLength="383" x="362.5" y="1161.2041">createBoardInfoRequest(listCellDTOWithColumnRowPostItCreator)</text><polygon fill="#181818" points="348.5,1193.7578,338.5,1197.7578,348.5,1201.7578,344.5,1197.7578" style="stroke:#181818;stroke-width:1.0;"/><line style="stroke:#181818;stroke-width:1.0;stroke-dasharray:2.0,2.0;" x1="342.5" x2="761.5" y1="1197.7578" y2="1197.7578"/><text fill="#000000" font-family="sans-serif" font-size="13" font-weight="bold" lengthAdjust="spacing" textLength="14" x="354.5" y="1192.4951">32</text><text fill="#000000" font-family="sans-serif" font-size="13" lengthAdjust="spacing" textLength="100" x="372.5" y="1192.4951">boardInfoRequest</text><polygon fill="#181818" points="521.5,1225.0488,531.5,1229.0488,521.5,1233.0488,525.5,1229.0488" style="stroke:#181818;stroke-width:1.0;"/><line style="stroke:#181818;stroke-width:1.0;" x1="337.5" x2="527.5" y1="1229.0488" y2="1229.0488"/><text fill="#000000" font-family="sans-serif" font-size="13" font-weight="bold" lengthAdjust="spacing" textLength="14" x="344.5" y="1223.7861">33</text><text fill="#000000" font-family="sans-serif" font-size="13" lengthAdjust="spacing" textLength="159" x="362.5" y="1223.7861">writeUTF(boardInfoRequest)</text><!--SRC=[jLNBRjim4BphAuXSwW1sSpS20tuqW86cDcotFLFKEYPAaIgvYfk_x_8XMr8C9mtGaoXoPdQvcbrzEY1MRdntLockiIxLPs7AEmU_Qz02HeNaJvQNMSPhDBekSx2TDKfKmBO7Rc5ck2tOABuKuMqBzjaJAcvH2bbH17OpHGHTp9K4ZJUCEyO5kx-VLfMIWgCqUZBf4XOS-L9NDMxH0Yy3fv2k2_eXuRZK6-1g9qlO-FnTbBTn_LfpLMDFrFH4jxFr8pZ7d-31s997FPTNNLIuwbBl0uJodnkDrYW5Dk05MaKNFDSeLcKokNxhlgfdIG51CfVEAyQTFd4EIYrsgvyI3tEZwb9lp75j72vnJZT5OnzvLQNSIauw1FvdZLajLP54yhZ-e5AiF9eJlQ1FatC7gGGRg8oJ17o9mNoSynxXCovGFdC4CXAjsMZYtS76JFW0C716_0AyFSEyTonWRJMJPrirL7ELQavKqt9F9onj5Dzt3uFB4SlefyGWBn6Z066APB510hJOtd29pQtbBn6O59AxJodVzlUVEutHo0_RwRTYDSsIdlqSrvo6WRkUOnKmRONG0MFs1DWtzI0F6qLBoOEpm21c7YhQ4BsNt7Ks4J9FybnBrBtKSHJDNdP-L5sYs2RpSDQXK-IfKY7kWpNbD4X5ZQu2eKSntp5Jqc6WP0MqCSgOYb7oZ7OFJ122_1UUNudHZvlQOxMVndO9eLT73NRWAHSlG6tjZCwuGWRMKgHlPWEkLlZbZu3Ab-nTKTRd1dup5etoHhFaOuPcWIQGXX7GufOyetdZWyU1COwBTgEaawmPARwfq9pCRSrnMT1lG-ubs26zXMyw566mj4xYHdEewN_JQM8qpINUd4x_0UWh5akMMkFicEl4jfl8vh57pgtEFg0JckrLhyTgdter_Km7xrA_F1FodbOxPfouHoiH_DZiGtlJjvLyxvMBlm00]--></g></svg>