<?xml version="1.0" encoding="us-ascii" standalone="no"?><svg xmlns="http://www.w3.org/2000/svg" xmlns:xlink="http://www.w3.org/1999/xlink" contentStyleType="text/css" height="686px" preserveAspectRatio="none" style="width:822px;height:686px;background:#FFFFFF;" version="1.1" viewBox="0 0 822 686" width="822px" zoomAndPan="magnify"><defs/><g><text fill="#000000" font-family="sans-serif" font-size="14" font-weight="bold" lengthAdjust="spacing" textLength="242" x="289" y="30.1074">ArchiveBoard - SharedBoardClient</text><rect fill="#FFFFFF" height="461.2012" style="stroke:#181818;stroke-width:1.0;" width="10" x="55.5" y="133.2422"/><rect fill="#FFFFFF" height="428.9102" style="stroke:#181818;stroke-width:1.0;" width="10" x="202.5" y="156.5332"/><rect fill="#FFFFFF" height="351.3281" style="stroke:#181818;stroke-width:1.0;" width="10" x="207.5" y="195.8242"/><rect fill="#FFFFFF" height="31.291" style="stroke:#181818;stroke-width:1.0;" width="10" x="447.5" y="232.1152"/><rect fill="#FFFFFF" height="30" style="stroke:#181818;stroke-width:1.0;" width="10" x="603" y="294.6973"/><rect fill="#FFFFFF" height="30" style="stroke:#181818;stroke-width:1.0;" width="10" x="603" y="417.2793"/><rect fill="#FFFFFF" height="30" style="stroke:#181818;stroke-width:1.0;" width="10" x="747" y="355.9883"/><rect fill="#FFFFFF" height="31.291" style="stroke:#181818;stroke-width:1.0;" width="10" x="747" y="478.5703"/><line style="stroke:#181818;stroke-width:0.5;stroke-dasharray:5.0,5.0;" x1="60" x2="60" y1="123.2422" y2="603.4434"/><line style="stroke:#181818;stroke-width:0.5;stroke-dasharray:5.0,5.0;" x1="207.5" x2="207.5" y1="123.2422" y2="603.4434"/><line style="stroke:#181818;stroke-width:0.5;stroke-dasharray:5.0,5.0;" x1="452" x2="452" y1="123.2422" y2="603.4434"/><line style="stroke:#181818;stroke-width:0.5;stroke-dasharray:5.0,5.0;" x1="608" x2="608" y1="123.2422" y2="603.4434"/><line style="stroke:#181818;stroke-width:0.5;stroke-dasharray:5.0,5.0;" x1="752" x2="752" y1="123.2422" y2="603.4434"/><text fill="#000000" font-family="sans-serif" font-size="14" lengthAdjust="spacing" textLength="105" x="5" y="119.7285">BoardParticipant</text><ellipse cx="60.5" cy="53.1211" fill="#E2E2F0" rx="8" ry="8" style="stroke:#181818;stroke-width:0.5;"/><path d="M60.5,61.1211 L60.5,88.1211 M47.5,69.1211 L73.5,69.1211 M60.5,88.1211 L47.5,103.1211 M60.5,88.1211 L73.5,103.1211 " fill="none" style="stroke:#181818;stroke-width:0.5;"/><text fill="#000000" font-family="sans-serif" font-size="14" lengthAdjust="spacing" textLength="105" x="5" y="617.5508">BoardParticipant</text><ellipse cx="60.5" cy="629.5645" fill="#E2E2F0" rx="8" ry="8" style="stroke:#181818;stroke-width:0.5;"/><path d="M60.5,637.5645 L60.5,664.5645 M47.5,645.5645 L73.5,645.5645 M60.5,664.5645 L47.5,679.5645 M60.5,664.5645 L73.5,679.5645 " fill="none" style="stroke:#181818;stroke-width:0.5;"/><rect fill="#E2E2F0" height="69.8633" rx="2.5" ry="2.5" style="stroke:#181818;stroke-width:0.5;" width="150" x="132.5" y="52.3789"/><text fill="#000000" font-family="sans-serif" font-size="14" font-style="italic" lengthAdjust="spacing" textLength="136" x="139.5" y="74.4863">&#171;SharedBoardClient&#187;</text><text fill="#000000" font-family="sans-serif" font-size="14" font-style="italic" lengthAdjust="spacing" textLength="96" x="159.5" y="93.1074">&#171;Presentation&#187;</text><text fill="#000000" font-family="sans-serif" font-size="14" lengthAdjust="spacing" textLength="130" x="142.5" y="111.7285">: HistoryOfUpdatesUI</text><rect fill="#E2E2F0" height="69.8633" rx="2.5" ry="2.5" style="stroke:#181818;stroke-width:0.5;" width="150" x="132.5" y="602.4434"/><text fill="#000000" font-family="sans-serif" font-size="14" font-style="italic" lengthAdjust="spacing" textLength="136" x="139.5" y="624.5508">&#171;SharedBoardClient&#187;</text><text fill="#000000" font-family="sans-serif" font-size="14" font-style="italic" lengthAdjust="spacing" textLength="96" x="159.5" y="643.1719">&#171;Presentation&#187;</text><text fill="#000000" font-family="sans-serif" font-size="14" lengthAdjust="spacing" textLength="130" x="142.5" y="661.793">: HistoryOfUpdatesUI</text><rect fill="#E2E2F0" height="32.6211" rx="2.5" ry="2.5" style="stroke:#181818;stroke-width:0.5;" width="151" x="377" y="89.6211"/><text fill="#000000" font-family="sans-serif" font-size="14" lengthAdjust="spacing" textLength="137" x="384" y="111.7285">: SBPMessageFormat</text><rect fill="#E2E2F0" height="32.6211" rx="2.5" ry="2.5" style="stroke:#181818;stroke-width:0.5;" width="151" x="377" y="602.4434"/><text fill="#000000" font-family="sans-serif" font-size="14" lengthAdjust="spacing" textLength="137" x="384" y="624.5508">: SBPMessageFormat</text><rect fill="#E2E2F0" height="32.6211" rx="2.5" ry="2.5" style="stroke:#181818;stroke-width:0.5;" width="140" x="538" y="89.6211"/><text fill="#000000" font-family="sans-serif" font-size="14" lengthAdjust="spacing" textLength="126" x="545" y="111.7285">: DataOutputStream</text><rect fill="#E2E2F0" height="32.6211" rx="2.5" ry="2.5" style="stroke:#181818;stroke-width:0.5;" width="140" x="538" y="602.4434"/><text fill="#000000" font-family="sans-serif" font-size="14" lengthAdjust="spacing" textLength="126" x="545" y="624.5508">: DataOutputStream</text><rect fill="#E2E2F0" height="32.6211" rx="2.5" ry="2.5" style="stroke:#181818;stroke-width:0.5;" width="128" x="688" y="89.6211"/><text fill="#000000" font-family="sans-serif" font-size="14" lengthAdjust="spacing" textLength="114" x="695" y="111.7285">: DataInputStream</text><rect fill="#E2E2F0" height="32.6211" rx="2.5" ry="2.5" style="stroke:#181818;stroke-width:0.5;" width="128" x="688" y="602.4434"/><text fill="#000000" font-family="sans-serif" font-size="14" lengthAdjust="spacing" textLength="114" x="695" y="624.5508">: DataInputStream</text><rect fill="#FFFFFF" height="461.2012" style="stroke:#181818;stroke-width:1.0;" width="10" x="55.5" y="133.2422"/><rect fill="#FFFFFF" height="428.9102" style="stroke:#181818;stroke-width:1.0;" width="10" x="202.5" y="156.5332"/><rect fill="#FFFFFF" height="351.3281" style="stroke:#181818;stroke-width:1.0;" width="10" x="207.5" y="195.8242"/><rect fill="#FFFFFF" height="31.291" style="stroke:#181818;stroke-width:1.0;" width="10" x="447.5" y="232.1152"/><rect fill="#FFFFFF" height="30" style="stroke:#181818;stroke-width:1.0;" width="10" x="603" y="294.6973"/><rect fill="#FFFFFF" height="30" style="stroke:#181818;stroke-width:1.0;" width="10" x="603" y="417.2793"/><rect fill="#FFFFFF" height="30" style="stroke:#181818;stroke-width:1.0;" width="10" x="747" y="355.9883"/><rect fill="#FFFFFF" height="31.291" style="stroke:#181818;stroke-width:1.0;" width="10" x="747" y="478.5703"/><polygon fill="#181818" points="190.5,152.5332,200.5,156.5332,190.5,160.5332,194.5,156.5332" style="stroke:#181818;stroke-width:1.0;"/><line style="stroke:#181818;stroke-width:1.0;" x1="65.5" x2="196.5" y1="156.5332" y2="156.5332"/><text fill="#000000" font-family="sans-serif" font-size="13" font-weight="bold" lengthAdjust="spacing" textLength="7" x="72.5" y="151.2705">1</text><text fill="#000000" font-family="sans-serif" font-size="13" lengthAdjust="spacing" textLength="85" x="83.5" y="151.2705">chooses board</text><line style="stroke:#181818;stroke-width:1.0;" x1="212.5" x2="259.5" y1="182.8242" y2="182.8242"/><line style="stroke:#181818;stroke-width:1.0;" x1="259.5" x2="259.5" y1="182.8242" y2="195.8242"/><line style="stroke:#181818;stroke-width:1.0;" x1="218.5" x2="259.5" y1="195.8242" y2="195.8242"/><polygon fill="#181818" points="228.5,191.8242,218.5,195.8242,228.5,199.8242,224.5,195.8242" style="stroke:#181818;stroke-width:1.0;"/><text fill="#000000" font-family="sans-serif" font-size="13" font-weight="bold" lengthAdjust="spacing" textLength="7" x="224.5" y="177.5615">2</text><text fill="#000000" font-family="sans-serif" font-size="13" lengthAdjust="spacing" textLength="200" x="235.5" y="177.5615">HistoryOfUpdatesRequest(boardId)</text><polygon fill="#181818" points="435.5,228.1152,445.5,232.1152,435.5,236.1152,439.5,232.1152" style="stroke:#181818;stroke-width:1.0;"/><line style="stroke:#181818;stroke-width:1.0;" x1="217.5" x2="441.5" y1="232.1152" y2="232.1152"/><text fill="#000000" font-family="sans-serif" font-size="13" font-weight="bold" lengthAdjust="spacing" textLength="7" x="224.5" y="226.8525">3</text><text fill="#000000" font-family="sans-serif" font-size="13" lengthAdjust="spacing" textLength="200" x="235.5" y="226.8525">HistoryOfUpdatesRequest(boardId)</text><polygon fill="#181818" points="228.5,259.4063,218.5,263.4063,228.5,267.4063,224.5,263.4063" style="stroke:#181818;stroke-width:1.0;"/><line style="stroke:#181818;stroke-width:1.0;stroke-dasharray:2.0,2.0;" x1="222.5" x2="451.5" y1="263.4063" y2="263.4063"/><text fill="#000000" font-family="sans-serif" font-size="13" font-weight="bold" lengthAdjust="spacing" textLength="7" x="234.5" y="258.1436">4</text><text fill="#000000" font-family="sans-serif" font-size="13" lengthAdjust="spacing" textLength="148" x="245.5" y="258.1436">historyOfUpdatesRequest</text><polygon fill="#181818" points="591,290.6973,601,294.6973,591,298.6973,595,294.6973" style="stroke:#181818;stroke-width:1.0;"/><line style="stroke:#181818;stroke-width:1.0;" x1="217.5" x2="597" y1="294.6973" y2="294.6973"/><text fill="#000000" font-family="sans-serif" font-size="13" font-weight="bold" lengthAdjust="spacing" textLength="7" x="224.5" y="289.4346">5</text><text fill="#000000" font-family="sans-serif" font-size="13" lengthAdjust="spacing" textLength="83" x="235.5" y="289.4346">create(socket)</text><polygon fill="#181818" points="735,351.9883,745,355.9883,735,359.9883,739,355.9883" style="stroke:#181818;stroke-width:1.0;"/><line style="stroke:#181818;stroke-width:1.0;" x1="217.5" x2="741" y1="355.9883" y2="355.9883"/><text fill="#000000" font-family="sans-serif" font-size="13" font-weight="bold" lengthAdjust="spacing" textLength="7" x="224.5" y="350.7256">6</text><text fill="#000000" font-family="sans-serif" font-size="13" lengthAdjust="spacing" textLength="83" x="235.5" y="350.7256">create(socket)</text><polygon fill="#181818" points="591,413.2793,601,417.2793,591,421.2793,595,417.2793" style="stroke:#181818;stroke-width:1.0;"/><line style="stroke:#181818;stroke-width:1.0;" x1="217.5" x2="597" y1="417.2793" y2="417.2793"/><text fill="#000000" font-family="sans-serif" font-size="13" font-weight="bold" lengthAdjust="spacing" textLength="7" x="224.5" y="412.0166">7</text><text fill="#000000" font-family="sans-serif" font-size="13" lengthAdjust="spacing" textLength="207" x="235.5" y="412.0166">writeUTF(historyOfUpdatesRequest)</text><polygon fill="#181818" points="735,474.5703,745,478.5703,735,482.5703,739,478.5703" style="stroke:#181818;stroke-width:1.0;"/><line style="stroke:#181818;stroke-width:1.0;" x1="217.5" x2="741" y1="478.5703" y2="478.5703"/><text fill="#000000" font-family="sans-serif" font-size="13" font-weight="bold" lengthAdjust="spacing" textLength="7" x="224.5" y="473.3076">8</text><text fill="#000000" font-family="sans-serif" font-size="13" lengthAdjust="spacing" textLength="57" x="235.5" y="473.3076">readUTF()</text><polygon fill="#181818" points="228.5,505.8613,218.5,509.8613,228.5,513.8613,224.5,509.8613" style="stroke:#181818;stroke-width:1.0;"/><line style="stroke:#181818;stroke-width:1.0;stroke-dasharray:2.0,2.0;" x1="222.5" x2="751" y1="509.8613" y2="509.8613"/><text fill="#000000" font-family="sans-serif" font-size="13" font-weight="bold" lengthAdjust="spacing" textLength="7" x="234.5" y="504.5986">9</text><text fill="#000000" font-family="sans-serif" font-size="13" lengthAdjust="spacing" textLength="53" x="245.5" y="504.5986">message</text><line style="stroke:#181818;stroke-width:1.0;stroke-dasharray:2.0,2.0;" x1="217.5" x2="259.5" y1="546.1523" y2="546.1523"/><line style="stroke:#181818;stroke-width:1.0;stroke-dasharray:2.0,2.0;" x1="259.5" x2="259.5" y1="546.1523" y2="559.1523"/><line style="stroke:#181818;stroke-width:1.0;stroke-dasharray:2.0,2.0;" x1="212.5" x2="259.5" y1="559.1523" y2="559.1523"/><polygon fill="#181818" points="222.5,555.1523,212.5,559.1523,222.5,563.1523,218.5,559.1523" style="stroke:#181818;stroke-width:1.0;"/><text fill="#000000" font-family="sans-serif" font-size="13" font-weight="bold" lengthAdjust="spacing" textLength="14" x="224.5" y="540.8896">10</text><text fill="#000000" font-family="sans-serif" font-size="13" lengthAdjust="spacing" textLength="22" x="242.5" y="540.8896">true</text><polygon fill="#181818" points="76.5,581.4434,66.5,585.4434,76.5,589.4434,72.5,585.4434" style="stroke:#181818;stroke-width:1.0;"/><line style="stroke:#181818;stroke-width:1.0;stroke-dasharray:2.0,2.0;" x1="70.5" x2="206.5" y1="585.4434" y2="585.4434"/><text fill="#000000" font-family="sans-serif" font-size="13" font-weight="bold" lengthAdjust="spacing" textLength="14" x="82.5" y="580.1807">11</text><text fill="#000000" font-family="sans-serif" font-size="13" lengthAdjust="spacing" textLength="95" x="100.5" y="580.1807">: shows task list</text><!--SRC=[bLBDRi8m3BxdAInExC0B85Hf7KBBOQ9QrmSmhRT6qAQB7T3UVac1GJisRRVO-NwZe1VR-cP3JecH7S6zAskpfzIYgs06UOsEgdvws1bgHIainJgOzBiCdPZITDZA190XpPJgBZkOpE7HSC1_h5-Bha8XBdIFB3Gi5j_KaoHiCqSSpYZ6jaaorilJx8cOyOrMrZLuz0tBrHYuHC6rbyvBBewmwO7BTNuBfziHJEUnfzc7nB5Kci4iYPddKDRMCZ5iOkeBgD1AXVipQjpwcTuziKnxbgxk1iGZBtRu5xClxKYyQw6-pJf9XzOnUQWdD6LRRackTEARL3GOJpJzAqqFQJeVk1sS4IfULjCVelqzGF2lej38-zIyENw6yoZEVvtdmBKzC0Zo5dOXnhLBeJy1]--></g></svg>