<?xml version="1.0" encoding="us-ascii" standalone="no"?><svg xmlns="http://www.w3.org/2000/svg" xmlns:xlink="http://www.w3.org/1999/xlink" contentStyleType="text/css" height="609px" preserveAspectRatio="none" style="width:1757px;height:609px;background:#FFFFFF;" version="1.1" viewBox="0 0 1757 609" width="1757px" zoomAndPan="magnify"><defs/><g><rect fill="#FFFFFF" height="406.3281" style="stroke:#181818;stroke-width:1.0;" width="10" x="31" y="92.2813"/><rect fill="#FFFFFF" height="406.3281" style="stroke:#181818;stroke-width:1.0;" width="10" x="223" y="92.2813"/><rect fill="#FFFFFF" height="328.7578" style="stroke:#181818;stroke-width:1.0;" width="10" x="726" y="141.3281"/><rect fill="#FFFFFF" height="271.7109" style="stroke:#181818;stroke-width:1.0;" width="10" x="1225" y="169.8516"/><rect fill="none" height="115.0938" style="stroke:#000000;stroke-width:1.5;" width="483.5" x="1152.5" y="184.8516"/><line style="stroke:#181818;stroke-width:0.5;stroke-dasharray:5.0,5.0;" x1="36" x2="36" y1="82.2813" y2="516.6094"/><line style="stroke:#181818;stroke-width:0.5;stroke-dasharray:5.0,5.0;" x1="227.5" x2="227.5" y1="82.2813" y2="516.6094"/><line style="stroke:#181818;stroke-width:0.5;stroke-dasharray:5.0,5.0;" x1="731" x2="731" y1="82.2813" y2="516.6094"/><line style="stroke:#181818;stroke-width:0.5;stroke-dasharray:5.0,5.0;" x1="1229.5" x2="1229.5" y1="82.2813" y2="516.6094"/><line style="stroke:#181818;stroke-width:0.5;stroke-dasharray:5.0,5.0;" x1="1451" x2="1451" y1="82.2813" y2="516.6094"/><line style="stroke:#181818;stroke-width:0.5;stroke-dasharray:5.0,5.0;" x1="1562" x2="1562" y1="82.2813" y2="516.6094"/><line style="stroke:#181818;stroke-width:0.5;stroke-dasharray:5.0,5.0;" x1="1696" x2="1696" y1="82.2813" y2="516.6094"/><text fill="#000000" font-family="sans-serif" font-size="14" lengthAdjust="spacing" textLength="56" x="5" y="79.3145">Manager</text><ellipse cx="36" cy="15.1406" fill="#E2E2F0" rx="8" ry="8" style="stroke:#181818;stroke-width:0.5;"/><path d="M36,23.1406 L36,50.1406 M23,31.1406 L49,31.1406 M36,50.1406 L23,65.1406 M36,50.1406 L49,65.1406 " fill="none" style="stroke:#181818;stroke-width:0.5;"/><text fill="#000000" font-family="sans-serif" font-size="14" lengthAdjust="spacing" textLength="56" x="5" y="528.2832">Manager</text><ellipse cx="36" cy="539.75" fill="#E2E2F0" rx="8" ry="8" style="stroke:#181818;stroke-width:0.5;"/><path d="M36,547.75 L36,574.75 M23,555.75 L49,555.75 M36,574.75 L23,589.75 M36,574.75 L49,589.75 " fill="none" style="stroke:#181818;stroke-width:0.5;"/><rect fill="#E2E2F0" height="45.2813" rx="2.5" ry="2.5" style="stroke:#181818;stroke-width:0.5;" width="109" x="173.5" y="36"/><text fill="#000000" font-family="sans-serif" font-size="14" font-style="italic" lengthAdjust="spacing" textLength="95" x="180.5" y="55.6738">&#171;presentation&#187;</text><text fill="#000000" font-family="sans-serif" font-size="14" lengthAdjust="spacing" textLength="86" x="185" y="71.3145">SetTeacherUI</text><rect fill="#E2E2F0" height="45.2813" rx="2.5" ry="2.5" style="stroke:#181818;stroke-width:0.5;" width="109" x="173.5" y="515.6094"/><text fill="#000000" font-family="sans-serif" font-size="14" font-style="italic" lengthAdjust="spacing" textLength="95" x="180.5" y="535.2832">&#171;presentation&#187;</text><text fill="#000000" font-family="sans-serif" font-size="14" lengthAdjust="spacing" textLength="86" x="185" y="550.9238">SetTeacherUI</text><rect fill="#E2E2F0" height="45.2813" rx="2.5" ry="2.5" style="stroke:#181818;stroke-width:0.5;" width="220" x="621" y="36"/><text fill="#000000" font-family="sans-serif" font-size="14" font-style="italic" lengthAdjust="spacing" textLength="84" x="689" y="55.6738">&#171;application&#187;</text><text fill="#000000" font-family="sans-serif" font-size="14" lengthAdjust="spacing" textLength="206" x="628" y="71.3145">AddTeacherInACourseController</text><rect fill="#E2E2F0" height="45.2813" rx="2.5" ry="2.5" style="stroke:#181818;stroke-width:0.5;" width="220" x="621" y="515.6094"/><text fill="#000000" font-family="sans-serif" font-size="14" font-style="italic" lengthAdjust="spacing" textLength="84" x="689" y="535.2832">&#171;application&#187;</text><text fill="#000000" font-family="sans-serif" font-size="14" lengthAdjust="spacing" textLength="206" x="628" y="550.9238">AddTeacherInACourseController</text><rect fill="#E2E2F0" height="45.2813" rx="2.5" ry="2.5" style="stroke:#181818;stroke-width:0.5;" width="135" x="1162.5" y="36"/><text fill="#000000" font-family="sans-serif" font-size="14" font-style="italic" lengthAdjust="spacing" textLength="84" x="1188" y="55.6738">&#171;application&#187;</text><text fill="#000000" font-family="sans-serif" font-size="14" lengthAdjust="spacing" textLength="121" x="1169.5" y="71.3145">SetTeacherService</text><rect fill="#E2E2F0" height="45.2813" rx="2.5" ry="2.5" style="stroke:#181818;stroke-width:0.5;" width="135" x="1162.5" y="515.6094"/><text fill="#000000" font-family="sans-serif" font-size="14" font-style="italic" lengthAdjust="spacing" textLength="84" x="1188" y="535.2832">&#171;application&#187;</text><text fill="#000000" font-family="sans-serif" font-size="14" lengthAdjust="spacing" textLength="121" x="1169.5" y="550.9238">SetTeacherService</text><rect fill="#E2E2F0" height="45.2813" rx="2.5" ry="2.5" style="stroke:#181818;stroke-width:0.5;" width="76" x="1413" y="36"/><text fill="#000000" font-family="sans-serif" font-size="14" font-style="italic" lengthAdjust="spacing" textLength="62" x="1420" y="55.6738">&#171;domain&#187;</text><text fill="#000000" font-family="sans-serif" font-size="14" lengthAdjust="spacing" textLength="46" x="1428" y="71.3145">Course</text><rect fill="#E2E2F0" height="45.2813" rx="2.5" ry="2.5" style="stroke:#181818;stroke-width:0.5;" width="76" x="1413" y="515.6094"/><text fill="#000000" font-family="sans-serif" font-size="14" font-style="italic" lengthAdjust="spacing" textLength="62" x="1420" y="535.2832">&#171;domain&#187;</text><text fill="#000000" font-family="sans-serif" font-size="14" lengthAdjust="spacing" textLength="46" x="1428" y="550.9238">Course</text><text fill="#000000" font-family="sans-serif" font-size="14" font-style="italic" lengthAdjust="spacing" textLength="79" x="1520" y="63.6738">&#171;repository&#187;</text><text fill="#000000" font-family="sans-serif" font-size="14" lengthAdjust="spacing" textLength="121" x="1499" y="79.3145">TeacherRepository</text><path d="M1544.5,15 C1544.5,5 1562.5,5 1562.5,5 C1562.5,5 1580.5,5 1580.5,15 L1580.5,41 C1580.5,51 1562.5,51 1562.5,51 C1562.5,51 1544.5,51 1544.5,41 L1544.5,15 " fill="#E2E2F0" style="stroke:#181818;stroke-width:1.5;"/><path d="M1544.5,15 C1544.5,25 1562.5,25 1562.5,25 C1562.5,25 1580.5,25 1580.5,15 " fill="none" style="stroke:#181818;stroke-width:1.5;"/><text fill="#000000" font-family="sans-serif" font-size="14" font-style="italic" lengthAdjust="spacing" textLength="79" x="1520" y="528.2832">&#171;repository&#187;</text><text fill="#000000" font-family="sans-serif" font-size="14" lengthAdjust="spacing" textLength="121" x="1499" y="543.9238">TeacherRepository</text><path d="M1544.5,556.8906 C1544.5,546.8906 1562.5,546.8906 1562.5,546.8906 C1562.5,546.8906 1580.5,546.8906 1580.5,556.8906 L1580.5,582.8906 C1580.5,592.8906 1562.5,592.8906 1562.5,592.8906 C1562.5,592.8906 1544.5,592.8906 1544.5,582.8906 L1544.5,556.8906 " fill="#E2E2F0" style="stroke:#181818;stroke-width:1.5;"/><path d="M1544.5,556.8906 C1544.5,566.8906 1562.5,566.8906 1562.5,566.8906 C1562.5,566.8906 1580.5,566.8906 1580.5,556.8906 " fill="none" style="stroke:#181818;stroke-width:1.5;"/><text fill="#000000" font-family="sans-serif" font-size="14" font-style="italic" lengthAdjust="spacing" textLength="79" x="1653.5" y="63.6738">&#171;repository&#187;</text><text fill="#000000" font-family="sans-serif" font-size="14" lengthAdjust="spacing" textLength="114" x="1636" y="79.3145">CourseRepository</text><path d="M1678,15 C1678,5 1696,5 1696,5 C1696,5 1714,5 1714,15 L1714,41 C1714,51 1696,51 1696,51 C1696,51 1678,51 1678,41 L1678,15 " fill="#E2E2F0" style="stroke:#181818;stroke-width:1.5;"/><path d="M1678,15 C1678,25 1696,25 1696,25 C1696,25 1714,25 1714,15 " fill="none" style="stroke:#181818;stroke-width:1.5;"/><text fill="#000000" font-family="sans-serif" font-size="14" font-style="italic" lengthAdjust="spacing" textLength="79" x="1653.5" y="528.2832">&#171;repository&#187;</text><text fill="#000000" font-family="sans-serif" font-size="14" lengthAdjust="spacing" textLength="114" x="1636" y="543.9238">CourseRepository</text><path d="M1678,556.8906 C1678,546.8906 1696,546.8906 1696,546.8906 C1696,546.8906 1714,546.8906 1714,556.8906 L1714,582.8906 C1714,592.8906 1696,592.8906 1696,592.8906 C1696,592.8906 1678,592.8906 1678,582.8906 L1678,556.8906 " fill="#E2E2F0" style="stroke:#181818;stroke-width:1.5;"/><path d="M1678,556.8906 C1678,566.8906 1696,566.8906 1696,566.8906 C1696,566.8906 1714,566.8906 1714,556.8906 " fill="none" style="stroke:#181818;stroke-width:1.5;"/><rect fill="#FFFFFF" height="406.3281" style="stroke:#181818;stroke-width:1.0;" width="10" x="31" y="92.2813"/><rect fill="#FFFFFF" height="406.3281" style="stroke:#181818;stroke-width:1.0;" width="10" x="223" y="92.2813"/><rect fill="#FFFFFF" height="328.7578" style="stroke:#181818;stroke-width:1.0;" width="10" x="726" y="141.3281"/><rect fill="#FFFFFF" height="271.7109" style="stroke:#181818;stroke-width:1.0;" width="10" x="1225" y="169.8516"/><polygon fill="#181818" points="211,108.8047,221,112.8047,211,116.8047,215,112.8047" style="stroke:#181818;stroke-width:1.0;"/><line style="stroke:#181818;stroke-width:1.0;" x1="41" x2="217" y1="112.8047" y2="112.8047"/><text fill="#000000" font-family="sans-serif" font-size="13" font-weight="bold" lengthAdjust="spacing" textLength="7" x="48" y="108.0498">1</text><text fill="#000000" font-family="sans-serif" font-size="13" lengthAdjust="spacing" textLength="64" x="59" y="108.0498">select data</text><polygon fill="#181818" points="714,137.3281,724,141.3281,714,145.3281,718,141.3281" style="stroke:#181818;stroke-width:1.0;"/><line style="stroke:#181818;stroke-width:1.0;" x1="233" x2="720" y1="141.3281" y2="141.3281"/><text fill="#000000" font-family="sans-serif" font-size="13" font-weight="bold" lengthAdjust="spacing" textLength="7" x="240" y="136.5732">2</text><text fill="#000000" font-family="sans-serif" font-size="13" lengthAdjust="spacing" textLength="463" x="251" y="136.5732">addTeacherInACourse(List&lt;TeacherDTOWithAcronym&gt;, CourseDTOWithIdTitle )</text><polygon fill="#181818" points="1213,165.8516,1223,169.8516,1213,173.8516,1217,169.8516" style="stroke:#181818;stroke-width:1.0;"/><line style="stroke:#181818;stroke-width:1.0;" x1="736" x2="1219" y1="169.8516" y2="169.8516"/><text fill="#000000" font-family="sans-serif" font-size="13" font-weight="bold" lengthAdjust="spacing" textLength="7" x="743" y="165.0967">3</text><text fill="#000000" font-family="sans-serif" font-size="13" lengthAdjust="spacing" textLength="459" x="754" y="165.0967">addTeacherInACourse(List&lt;TeacherDTOWithAcronym&gt;, CourseDTOWithIdTitle)</text><path d="M1152.5,184.8516 L1225.5,184.8516 L1225.5,191.375 L1215.5,201.375 L1152.5,201.375 L1152.5,184.8516 " fill="#EEEEEE" style="stroke:#000000;stroke-width:1.5;"/><rect fill="none" height="115.0938" style="stroke:#000000;stroke-width:1.5;" width="483.5" x="1152.5" y="184.8516"/><text fill="#000000" font-family="sans-serif" font-size="13" font-weight="bold" lengthAdjust="spacing" textLength="28" x="1167.5" y="197.6201">loop</text><text fill="#000000" font-family="sans-serif" font-size="11" font-weight="bold" lengthAdjust="spacing" textLength="238" x="1240.5" y="196.8096">[for each teacher selected by the manager]</text><polygon fill="#181818" points="1550.5,217.8984,1560.5,221.8984,1550.5,225.8984,1554.5,221.8984" style="stroke:#181818;stroke-width:1.0;"/><line style="stroke:#181818;stroke-width:1.0;" x1="1235" x2="1556.5" y1="221.8984" y2="221.8984"/><text fill="#000000" font-family="sans-serif" font-size="13" font-weight="bold" lengthAdjust="spacing" textLength="7" x="1242" y="217.1436">4</text><text fill="#000000" font-family="sans-serif" font-size="13" lengthAdjust="spacing" textLength="192" x="1253" y="217.1436">findTeacherByAcronym(acronym)</text><polygon fill="#181818" points="1246,246.4219,1236,250.4219,1246,254.4219,1242,250.4219" style="stroke:#181818;stroke-width:1.0;"/><line style="stroke:#181818;stroke-width:1.0;" x1="1240" x2="1561.5" y1="250.4219" y2="250.4219"/><text fill="#000000" font-family="sans-serif" font-size="13" font-weight="bold" lengthAdjust="spacing" textLength="7" x="1252" y="245.667">5</text><text fill="#000000" font-family="sans-serif" font-size="13" lengthAdjust="spacing" textLength="43" x="1263" y="245.667">teacher</text><line style="stroke:#181818;stroke-width:1.0;" x1="1235" x2="1277" y1="278.9453" y2="278.9453"/><line style="stroke:#181818;stroke-width:1.0;" x1="1277" x2="1277" y1="278.9453" y2="291.9453"/><line style="stroke:#181818;stroke-width:1.0;" x1="1236" x2="1277" y1="291.9453" y2="291.9453"/><polygon fill="#181818" points="1246,287.9453,1236,291.9453,1246,295.9453,1242,291.9453" style="stroke:#181818;stroke-width:1.0;"/><text fill="#000000" font-family="sans-serif" font-size="13" font-weight="bold" lengthAdjust="spacing" textLength="7" x="1242" y="274.1904">6</text><text fill="#000000" font-family="sans-serif" font-size="13" lengthAdjust="spacing" textLength="140" x="1253" y="274.1904">teacherList.add(teacher)</text><polygon fill="#181818" points="1684,323.4688,1694,327.4688,1684,331.4688,1688,327.4688" style="stroke:#181818;stroke-width:1.0;"/><line style="stroke:#181818;stroke-width:1.0;" x1="1235" x2="1690" y1="327.4688" y2="327.4688"/><text fill="#000000" font-family="sans-serif" font-size="13" font-weight="bold" lengthAdjust="spacing" textLength="7" x="1242" y="322.7139">7</text><text fill="#000000" font-family="sans-serif" font-size="13" lengthAdjust="spacing" textLength="182" x="1253" y="322.7139">findCourseById(courseIdentifier)</text><polygon fill="#181818" points="1246,351.9922,1236,355.9922,1246,359.9922,1242,355.9922" style="stroke:#181818;stroke-width:1.0;"/><line style="stroke:#181818;stroke-width:1.0;" x1="1240" x2="1695" y1="355.9922" y2="355.9922"/><text fill="#000000" font-family="sans-serif" font-size="13" font-weight="bold" lengthAdjust="spacing" textLength="7" x="1252" y="351.2373">8</text><text fill="#000000" font-family="sans-serif" font-size="13" lengthAdjust="spacing" textLength="39" x="1263" y="351.2373">course</text><polygon fill="#181818" points="1439,380.5156,1449,384.5156,1439,388.5156,1443,384.5156" style="stroke:#181818;stroke-width:1.0;"/><line style="stroke:#181818;stroke-width:1.0;" x1="1235" x2="1445" y1="384.5156" y2="384.5156"/><text fill="#000000" font-family="sans-serif" font-size="13" font-weight="bold" lengthAdjust="spacing" textLength="7" x="1242" y="379.7607">9</text><text fill="#000000" font-family="sans-serif" font-size="13" lengthAdjust="spacing" textLength="181" x="1253" y="379.7607">addTeachersToList(teacherList)</text><polygon fill="#181818" points="1684,409.0391,1694,413.0391,1684,417.0391,1688,413.0391" style="stroke:#181818;stroke-width:1.0;"/><line style="stroke:#181818;stroke-width:1.0;" x1="1235" x2="1690" y1="413.0391" y2="413.0391"/><text fill="#000000" font-family="sans-serif" font-size="13" font-weight="bold" lengthAdjust="spacing" textLength="14" x="1242" y="408.2842">10</text><text fill="#000000" font-family="sans-serif" font-size="13" lengthAdjust="spacing" textLength="73" x="1260" y="408.2842">save(course)</text><polygon fill="#181818" points="747,437.5625,737,441.5625,747,445.5625,743,441.5625" style="stroke:#181818;stroke-width:1.0;"/><line style="stroke:#181818;stroke-width:1.0;" x1="741" x2="1229" y1="441.5625" y2="441.5625"/><text fill="#000000" font-family="sans-serif" font-size="13" font-weight="bold" lengthAdjust="spacing" textLength="14" x="753" y="436.8076">11</text><text fill="#000000" font-family="sans-serif" font-size="13" lengthAdjust="spacing" textLength="59" x="771" y="436.8076">return true</text><polygon fill="#181818" points="244,466.0859,234,470.0859,244,474.0859,240,470.0859" style="stroke:#181818;stroke-width:1.0;"/><line style="stroke:#181818;stroke-width:1.0;" x1="238" x2="730" y1="470.0859" y2="470.0859"/><text fill="#000000" font-family="sans-serif" font-size="13" font-weight="bold" lengthAdjust="spacing" textLength="14" x="250" y="465.3311">12</text><text fill="#000000" font-family="sans-serif" font-size="13" lengthAdjust="spacing" textLength="59" x="268" y="465.3311">return true</text><polygon fill="#181818" points="47,494.6094,37,498.6094,47,502.6094,43,498.6094" style="stroke:#181818;stroke-width:1.0;"/><line style="stroke:#181818;stroke-width:1.0;" x1="41" x2="227" y1="498.6094" y2="498.6094"/><text fill="#000000" font-family="sans-serif" font-size="13" font-weight="bold" lengthAdjust="spacing" textLength="14" x="53" y="493.8545">13</text><text fill="#000000" font-family="sans-serif" font-size="13" lengthAdjust="spacing" textLength="140" x="71" y="493.8545">show success message</text><!--SRC=[hPHDRzim38Rl-XL2BhM1fRa7WO6qknZOC61Di3CZCRK0Mt8bEeF__UXOZh-wMo-9IElX-ugY_LGGrM6_szKbM6ggybcvQXVmeq6hSAiDl7keX826d6sg2tfUAt9U_WGBxrrOWoUZJCsytBmXdH1KWVwSRoG4USxbuL1x36W9o3YRPNFYg7KaSdjyTOqF-EeiULUMwEybnf1BGLsNHdrQQTH-Gtyp2kzqNA_GETiBHxbkoVkrgy3SjmeD11VWx2Og_CRQ1SDzQE_CAikuVmHSOYpGbr_mo-GIxtfkRa3uQFiZSSw5Y4cvpJZSou0bAfAT9diNV0NyODB5lOHrqvCV9j0XPh-VVlqnL1oLTxQjic_HO4pd-cIeH9cEBiRgGaoKM7Ve_nU9faAKpjNooYFOOP9wE1uQjRoqaWgKrR9HqOWO3B6tzRNjvTNOmUPB6xqaqF-dOatCZXZDJ3LM3xiZFtClaXYd0gqM0xBDLhFGU-hJBssk4tLVvffVANCrNGMnWcRAFI2cjkAKJsybd5pdBPduJ3zXPiu2t33wMUwTZ9j7QhoLv1iseN5r9OkHuO7zFpETj7woX-bdDuNxAqEZ58OWA_xX_0pcbsKIFJvX_m00]--></g></svg>