<?xml version="1.0" encoding="us-ascii" standalone="no"?><svg xmlns="http://www.w3.org/2000/svg" xmlns:xlink="http://www.w3.org/1999/xlink" contentStyleType="text/css" height="537px" preserveAspectRatio="none" style="width:1727px;height:537px;background:#FFFFFF;" version="1.1" viewBox="0 0 1727 537" width="1727px" zoomAndPan="magnify"><defs/><g><rect fill="#FFFFFF" height="334.2813" style="stroke:#181818;stroke-width:1.0;" width="10" x="31" y="92.2813"/><rect fill="#FFFFFF" height="334.2813" style="stroke:#181818;stroke-width:1.0;" width="10" x="223" y="92.2813"/><rect fill="#FFFFFF" height="256.7109" style="stroke:#181818;stroke-width:1.0;" width="10" x="717" y="141.3281"/><rect fill="#FFFFFF" height="199.6641" style="stroke:#181818;stroke-width:1.0;" width="10" x="1207" y="169.8516"/><line style="stroke:#181818;stroke-width:0.5;stroke-dasharray:5.0,5.0;" x1="36" x2="36" y1="82.2813" y2="444.5625"/><line style="stroke:#181818;stroke-width:0.5;stroke-dasharray:5.0,5.0;" x1="227.5" x2="227.5" y1="82.2813" y2="444.5625"/><line style="stroke:#181818;stroke-width:0.5;stroke-dasharray:5.0,5.0;" x1="722" x2="722" y1="82.2813" y2="444.5625"/><line style="stroke:#181818;stroke-width:0.5;stroke-dasharray:5.0,5.0;" x1="1211.5" x2="1211.5" y1="82.2813" y2="444.5625"/><line style="stroke:#181818;stroke-width:0.5;stroke-dasharray:5.0,5.0;" x1="1421" x2="1421" y1="82.2813" y2="444.5625"/><line style="stroke:#181818;stroke-width:0.5;stroke-dasharray:5.0,5.0;" x1="1532" x2="1532" y1="82.2813" y2="444.5625"/><line style="stroke:#181818;stroke-width:0.5;stroke-dasharray:5.0,5.0;" x1="1666" x2="1666" y1="82.2813" y2="444.5625"/><text fill="#000000" font-family="sans-serif" font-size="14" lengthAdjust="spacing" textLength="56" x="5" y="79.3145">Manager</text><ellipse cx="36" cy="15.1406" fill="#E2E2F0" rx="8" ry="8" style="stroke:#181818;stroke-width:0.5;"/><path d="M36,23.1406 L36,50.1406 M23,31.1406 L49,31.1406 M36,50.1406 L23,65.1406 M36,50.1406 L49,65.1406 " fill="none" style="stroke:#181818;stroke-width:0.5;"/><text fill="#000000" font-family="sans-serif" font-size="14" lengthAdjust="spacing" textLength="56" x="5" y="456.2363">Manager</text><ellipse cx="36" cy="467.7031" fill="#E2E2F0" rx="8" ry="8" style="stroke:#181818;stroke-width:0.5;"/><path d="M36,475.7031 L36,502.7031 M23,483.7031 L49,483.7031 M36,502.7031 L23,517.7031 M36,502.7031 L49,517.7031 " fill="none" style="stroke:#181818;stroke-width:0.5;"/><rect fill="#E2E2F0" height="45.2813" rx="2.5" ry="2.5" style="stroke:#181818;stroke-width:0.5;" width="109" x="173.5" y="36"/><text fill="#000000" font-family="sans-serif" font-size="14" font-style="italic" lengthAdjust="spacing" textLength="95" x="180.5" y="55.6738">&#171;presentation&#187;</text><text fill="#000000" font-family="sans-serif" font-size="14" lengthAdjust="spacing" textLength="86" x="185" y="71.3145">SetTeacherUI</text><rect fill="#E2E2F0" height="45.2813" rx="2.5" ry="2.5" style="stroke:#181818;stroke-width:0.5;" width="109" x="173.5" y="443.5625"/><text fill="#000000" font-family="sans-serif" font-size="14" font-style="italic" lengthAdjust="spacing" textLength="95" x="180.5" y="463.2363">&#171;presentation&#187;</text><text fill="#000000" font-family="sans-serif" font-size="14" lengthAdjust="spacing" textLength="86" x="185" y="478.877">SetTeacherUI</text><rect fill="#E2E2F0" height="45.2813" rx="2.5" ry="2.5" style="stroke:#181818;stroke-width:0.5;" width="278" x="583" y="36"/><text fill="#000000" font-family="sans-serif" font-size="14" font-style="italic" lengthAdjust="spacing" textLength="84" x="680" y="55.6738">&#171;application&#187;</text><text fill="#000000" font-family="sans-serif" font-size="14" lengthAdjust="spacing" textLength="264" x="590" y="71.3145">AddTeacherInChargeInACourseController</text><rect fill="#E2E2F0" height="45.2813" rx="2.5" ry="2.5" style="stroke:#181818;stroke-width:0.5;" width="278" x="583" y="443.5625"/><text fill="#000000" font-family="sans-serif" font-size="14" font-style="italic" lengthAdjust="spacing" textLength="84" x="680" y="463.2363">&#171;application&#187;</text><text fill="#000000" font-family="sans-serif" font-size="14" lengthAdjust="spacing" textLength="264" x="590" y="478.877">AddTeacherInChargeInACourseController</text><rect fill="#E2E2F0" height="45.2813" rx="2.5" ry="2.5" style="stroke:#181818;stroke-width:0.5;" width="135" x="1144.5" y="36"/><text fill="#000000" font-family="sans-serif" font-size="14" font-style="italic" lengthAdjust="spacing" textLength="84" x="1170" y="55.6738">&#171;application&#187;</text><text fill="#000000" font-family="sans-serif" font-size="14" lengthAdjust="spacing" textLength="121" x="1151.5" y="71.3145">SetTeacherService</text><rect fill="#E2E2F0" height="45.2813" rx="2.5" ry="2.5" style="stroke:#181818;stroke-width:0.5;" width="135" x="1144.5" y="443.5625"/><text fill="#000000" font-family="sans-serif" font-size="14" font-style="italic" lengthAdjust="spacing" textLength="84" x="1170" y="463.2363">&#171;application&#187;</text><text fill="#000000" font-family="sans-serif" font-size="14" lengthAdjust="spacing" textLength="121" x="1151.5" y="478.877">SetTeacherService</text><rect fill="#E2E2F0" height="45.2813" rx="2.5" ry="2.5" style="stroke:#181818;stroke-width:0.5;" width="76" x="1383" y="36"/><text fill="#000000" font-family="sans-serif" font-size="14" font-style="italic" lengthAdjust="spacing" textLength="62" x="1390" y="55.6738">&#171;domain&#187;</text><text fill="#000000" font-family="sans-serif" font-size="14" lengthAdjust="spacing" textLength="46" x="1398" y="71.3145">Course</text><rect fill="#E2E2F0" height="45.2813" rx="2.5" ry="2.5" style="stroke:#181818;stroke-width:0.5;" width="76" x="1383" y="443.5625"/><text fill="#000000" font-family="sans-serif" font-size="14" font-style="italic" lengthAdjust="spacing" textLength="62" x="1390" y="463.2363">&#171;domain&#187;</text><text fill="#000000" font-family="sans-serif" font-size="14" lengthAdjust="spacing" textLength="46" x="1398" y="478.877">Course</text><text fill="#000000" font-family="sans-serif" font-size="14" font-style="italic" lengthAdjust="spacing" textLength="79" x="1490" y="63.6738">&#171;repository&#187;</text><text fill="#000000" font-family="sans-serif" font-size="14" lengthAdjust="spacing" textLength="121" x="1469" y="79.3145">TeacherRepository</text><path d="M1514.5,15 C1514.5,5 1532.5,5 1532.5,5 C1532.5,5 1550.5,5 1550.5,15 L1550.5,41 C1550.5,51 1532.5,51 1532.5,51 C1532.5,51 1514.5,51 1514.5,41 L1514.5,15 " fill="#E2E2F0" style="stroke:#181818;stroke-width:1.5;"/><path d="M1514.5,15 C1514.5,25 1532.5,25 1532.5,25 C1532.5,25 1550.5,25 1550.5,15 " fill="none" style="stroke:#181818;stroke-width:1.5;"/><text fill="#000000" font-family="sans-serif" font-size="14" font-style="italic" lengthAdjust="spacing" textLength="79" x="1490" y="456.2363">&#171;repository&#187;</text><text fill="#000000" font-family="sans-serif" font-size="14" lengthAdjust="spacing" textLength="121" x="1469" y="471.877">TeacherRepository</text><path d="M1514.5,484.8438 C1514.5,474.8438 1532.5,474.8438 1532.5,474.8438 C1532.5,474.8438 1550.5,474.8438 1550.5,484.8438 L1550.5,510.8438 C1550.5,520.8438 1532.5,520.8438 1532.5,520.8438 C1532.5,520.8438 1514.5,520.8438 1514.5,510.8438 L1514.5,484.8438 " fill="#E2E2F0" style="stroke:#181818;stroke-width:1.5;"/><path d="M1514.5,484.8438 C1514.5,494.8438 1532.5,494.8438 1532.5,494.8438 C1532.5,494.8438 1550.5,494.8438 1550.5,484.8438 " fill="none" style="stroke:#181818;stroke-width:1.5;"/><text fill="#000000" font-family="sans-serif" font-size="14" font-style="italic" lengthAdjust="spacing" textLength="79" x="1623.5" y="63.6738">&#171;repository&#187;</text><text fill="#000000" font-family="sans-serif" font-size="14" lengthAdjust="spacing" textLength="114" x="1606" y="79.3145">CourseRepository</text><path d="M1648,15 C1648,5 1666,5 1666,5 C1666,5 1684,5 1684,15 L1684,41 C1684,51 1666,51 1666,51 C1666,51 1648,51 1648,41 L1648,15 " fill="#E2E2F0" style="stroke:#181818;stroke-width:1.5;"/><path d="M1648,15 C1648,25 1666,25 1666,25 C1666,25 1684,25 1684,15 " fill="none" style="stroke:#181818;stroke-width:1.5;"/><text fill="#000000" font-family="sans-serif" font-size="14" font-style="italic" lengthAdjust="spacing" textLength="79" x="1623.5" y="456.2363">&#171;repository&#187;</text><text fill="#000000" font-family="sans-serif" font-size="14" lengthAdjust="spacing" textLength="114" x="1606" y="471.877">CourseRepository</text><path d="M1648,484.8438 C1648,474.8438 1666,474.8438 1666,474.8438 C1666,474.8438 1684,474.8438 1684,484.8438 L1684,510.8438 C1684,520.8438 1666,520.8438 1666,520.8438 C1666,520.8438 1648,520.8438 1648,510.8438 L1648,484.8438 " fill="#E2E2F0" style="stroke:#181818;stroke-width:1.5;"/><path d="M1648,484.8438 C1648,494.8438 1666,494.8438 1666,494.8438 C1666,494.8438 1684,494.8438 1684,484.8438 " fill="none" style="stroke:#181818;stroke-width:1.5;"/><rect fill="#FFFFFF" height="334.2813" style="stroke:#181818;stroke-width:1.0;" width="10" x="31" y="92.2813"/><rect fill="#FFFFFF" height="334.2813" style="stroke:#181818;stroke-width:1.0;" width="10" x="223" y="92.2813"/><rect fill="#FFFFFF" height="256.7109" style="stroke:#181818;stroke-width:1.0;" width="10" x="717" y="141.3281"/><rect fill="#FFFFFF" height="199.6641" style="stroke:#181818;stroke-width:1.0;" width="10" x="1207" y="169.8516"/><polygon fill="#181818" points="211,108.8047,221,112.8047,211,116.8047,215,112.8047" style="stroke:#181818;stroke-width:1.0;"/><line style="stroke:#181818;stroke-width:1.0;" x1="41" x2="217" y1="112.8047" y2="112.8047"/><text fill="#000000" font-family="sans-serif" font-size="13" font-weight="bold" lengthAdjust="spacing" textLength="7" x="48" y="108.0498">1</text><text fill="#000000" font-family="sans-serif" font-size="13" lengthAdjust="spacing" textLength="64" x="59" y="108.0498">select data</text><polygon fill="#181818" points="705,137.3281,715,141.3281,705,145.3281,709,141.3281" style="stroke:#181818;stroke-width:1.0;"/><line style="stroke:#181818;stroke-width:1.0;" x1="233" x2="711" y1="141.3281" y2="141.3281"/><text fill="#000000" font-family="sans-serif" font-size="13" font-weight="bold" lengthAdjust="spacing" textLength="7" x="240" y="136.5732">2</text><text fill="#000000" font-family="sans-serif" font-size="13" lengthAdjust="spacing" textLength="454" x="251" y="136.5732">addTeacherInCharge(List&lt;TeacherDTOWithAcronym&gt;, CourseDTOWithIdTitle )</text><polygon fill="#181818" points="1195,165.8516,1205,169.8516,1195,173.8516,1199,169.8516" style="stroke:#181818;stroke-width:1.0;"/><line style="stroke:#181818;stroke-width:1.0;" x1="727" x2="1201" y1="169.8516" y2="169.8516"/><text fill="#000000" font-family="sans-serif" font-size="13" font-weight="bold" lengthAdjust="spacing" textLength="7" x="734" y="165.0967">3</text><text fill="#000000" font-family="sans-serif" font-size="13" lengthAdjust="spacing" textLength="450" x="745" y="165.0967">addTeacherInCharge(List&lt;TeacherDTOWithAcronym&gt;, CourseDTOWithIdTitle)</text><polygon fill="#181818" points="1520.5,194.375,1530.5,198.375,1520.5,202.375,1524.5,198.375" style="stroke:#181818;stroke-width:1.0;"/><line style="stroke:#181818;stroke-width:1.0;" x1="1217" x2="1526.5" y1="198.375" y2="198.375"/><text fill="#000000" font-family="sans-serif" font-size="13" font-weight="bold" lengthAdjust="spacing" textLength="7" x="1224" y="193.6201">4</text><text fill="#000000" font-family="sans-serif" font-size="13" lengthAdjust="spacing" textLength="192" x="1235" y="193.6201">findTeacherByAcronym(acronym)</text><polygon fill="#181818" points="1228,222.8984,1218,226.8984,1228,230.8984,1224,226.8984" style="stroke:#181818;stroke-width:1.0;"/><line style="stroke:#181818;stroke-width:1.0;" x1="1222" x2="1531.5" y1="226.8984" y2="226.8984"/><text fill="#000000" font-family="sans-serif" font-size="13" font-weight="bold" lengthAdjust="spacing" textLength="7" x="1234" y="222.1436">5</text><text fill="#000000" font-family="sans-serif" font-size="13" lengthAdjust="spacing" textLength="43" x="1245" y="222.1436">teacher</text><polygon fill="#181818" points="1654,251.4219,1664,255.4219,1654,259.4219,1658,255.4219" style="stroke:#181818;stroke-width:1.0;"/><line style="stroke:#181818;stroke-width:1.0;" x1="1217" x2="1660" y1="255.4219" y2="255.4219"/><text fill="#000000" font-family="sans-serif" font-size="13" font-weight="bold" lengthAdjust="spacing" textLength="7" x="1224" y="250.667">6</text><text fill="#000000" font-family="sans-serif" font-size="13" lengthAdjust="spacing" textLength="182" x="1235" y="250.667">findCourseById(courseIdentifier)</text><polygon fill="#181818" points="1228,279.9453,1218,283.9453,1228,287.9453,1224,283.9453" style="stroke:#181818;stroke-width:1.0;"/><line style="stroke:#181818;stroke-width:1.0;" x1="1222" x2="1665" y1="283.9453" y2="283.9453"/><text fill="#000000" font-family="sans-serif" font-size="13" font-weight="bold" lengthAdjust="spacing" textLength="7" x="1234" y="279.1904">7</text><text fill="#000000" font-family="sans-serif" font-size="13" lengthAdjust="spacing" textLength="39" x="1245" y="279.1904">course</text><polygon fill="#181818" points="1409,308.4688,1419,312.4688,1409,316.4688,1413,312.4688" style="stroke:#181818;stroke-width:1.0;"/><line style="stroke:#181818;stroke-width:1.0;" x1="1217" x2="1415" y1="312.4688" y2="312.4688"/><text fill="#000000" font-family="sans-serif" font-size="13" font-weight="bold" lengthAdjust="spacing" textLength="7" x="1224" y="307.7139">8</text><text fill="#000000" font-family="sans-serif" font-size="13" lengthAdjust="spacing" textLength="169" x="1235" y="307.7139">addTeacherInCharge(teacher)</text><polygon fill="#181818" points="1654,336.9922,1664,340.9922,1654,344.9922,1658,340.9922" style="stroke:#181818;stroke-width:1.0;"/><line style="stroke:#181818;stroke-width:1.0;" x1="1217" x2="1660" y1="340.9922" y2="340.9922"/><text fill="#000000" font-family="sans-serif" font-size="13" font-weight="bold" lengthAdjust="spacing" textLength="7" x="1224" y="336.2373">9</text><text fill="#000000" font-family="sans-serif" font-size="13" lengthAdjust="spacing" textLength="73" x="1235" y="336.2373">save(course)</text><polygon fill="#181818" points="738,365.5156,728,369.5156,738,373.5156,734,369.5156" style="stroke:#181818;stroke-width:1.0;"/><line style="stroke:#181818;stroke-width:1.0;" x1="732" x2="1211" y1="369.5156" y2="369.5156"/><text fill="#000000" font-family="sans-serif" font-size="13" font-weight="bold" lengthAdjust="spacing" textLength="14" x="744" y="364.7607">10</text><text fill="#000000" font-family="sans-serif" font-size="13" lengthAdjust="spacing" textLength="59" x="762" y="364.7607">return true</text><polygon fill="#181818" points="244,394.0391,234,398.0391,244,402.0391,240,398.0391" style="stroke:#181818;stroke-width:1.0;"/><line style="stroke:#181818;stroke-width:1.0;" x1="238" x2="721" y1="398.0391" y2="398.0391"/><text fill="#000000" font-family="sans-serif" font-size="13" font-weight="bold" lengthAdjust="spacing" textLength="14" x="250" y="393.2842">11</text><text fill="#000000" font-family="sans-serif" font-size="13" lengthAdjust="spacing" textLength="59" x="268" y="393.2842">return true</text><polygon fill="#181818" points="47,422.5625,37,426.5625,47,430.5625,43,426.5625" style="stroke:#181818;stroke-width:1.0;"/><line style="stroke:#181818;stroke-width:1.0;" x1="41" x2="227" y1="426.5625" y2="426.5625"/><text fill="#000000" font-family="sans-serif" font-size="13" font-weight="bold" lengthAdjust="spacing" textLength="14" x="53" y="421.8076">12</text><text fill="#000000" font-family="sans-serif" font-size="13" lengthAdjust="spacing" textLength="140" x="71" y="421.8076">show success message</text><!--SRC=[hLHDZzem4BtxLrXSbaXbkICK2UWbqgvMwe9w7knPOYcni_Q4Yd_VIMB85xtr4kmNluyyZtZ9YQgmMQ-h0YpLPV6gNBaE-5sZLRZI1YuUIY6W9cVhyen-ibRal7m72vTcMu4deqp5MdBnYNH4K3dwKxQG4EGfazjjvJ6W9I3ZR9gE6Jkj8oEpXnpy1JExExZQ1pmuIzuL1VfMgj-o95HLOTHJnJx39_ghKTYoutf67NCxusZNBFcyTYMOzgZGG706HXVHuHTMBXZkuzPoPYZJ_MF34hr09p_XJy4flUdUN87mKVy3E6L2H52kKjvkPC025Sd6axCBlWf-CMXn8s5M_lBD1Df6yEVnuxUXVAUyixSo_H7pHJZJHqC5ogGFqOiBCJ1Ystlz_ySp6JGHbSNTWStcrx2HNyRUVVUtgBw4xZSHSyOeCtMlkSI8hTBPLNKM7Ro_PNgfscMcUVBDbq6VD9rCI2ENZY26NnA7y6bhCLJoX32A5U2ACSpqx60KF5BjhIHVSmADitedzyd3z6_ES0owgRjF9gV9tHyPQgKm15doW_4HcGTvi7lypVm5]--></g></svg>