<?xml version="1.0" encoding="us-ascii" standalone="no"?><svg xmlns="http://www.w3.org/2000/svg" xmlns:xlink="http://www.w3.org/1999/xlink" contentStyleType="text/css" height="1346px" preserveAspectRatio="none" style="width:2540px;height:1346px;background:#FFFFFF;" version="1.1" viewBox="0 0 2540 1346" width="2540px" zoomAndPan="magnify"><defs/><g><rect fill="#FFFFFF" height="1152.4141" style="stroke:#181818;stroke-width:1.0;" width="10" x="31" y="92.2813"/><rect fill="#FFFFFF" height="1152.4141" style="stroke:#181818;stroke-width:1.0;" width="10" x="205" y="92.2813"/><rect fill="#FFFFFF" height="1094.3672" style="stroke:#181818;stroke-width:1.0;" width="10" x="463" y="141.3281"/><rect fill="#FFFFFF" height="1008.7969" style="stroke:#181818;stroke-width:1.0;" width="10" x="721" y="169.8516"/><rect fill="#FFFFFF" height="57.0469" style="stroke:#181818;stroke-width:1.0;" width="10" x="987" y="198.375"/><rect fill="#FFFFFF" height="57.0469" style="stroke:#181818;stroke-width:1.0;" width="10" x="987" y="509.6094"/><rect fill="#FFFFFF" height="57.0469" style="stroke:#181818;stroke-width:1.0;" width="10" x="1130" y="283.9453"/><rect fill="#FFFFFF" height="57.0469" style="stroke:#181818;stroke-width:1.0;" width="10" x="1130" y="595.1797"/><rect fill="#FFFFFF" height="171.1406" style="stroke:#181818;stroke-width:1.0;" width="10" x="1262.5" y="779.3203"/><rect fill="#FFFFFF" height="171.1406" style="stroke:#181818;stroke-width:1.0;" width="10" x="1384" y="978.9844"/><rect fill="#FFFFFF" height="57.0469" style="stroke:#181818;stroke-width:1.0;" width="10" x="1540.5" y="864.8906"/><rect fill="#FFFFFF" height="57.0469" style="stroke:#181818;stroke-width:1.0;" width="10" x="1705" y="1064.5547"/><line style="stroke:#181818;stroke-width:0.5;stroke-dasharray:5.0,5.0;" x1="36" x2="36" y1="82.2813" y2="1253.6953"/><line style="stroke:#181818;stroke-width:0.5;stroke-dasharray:5.0,5.0;" x1="209.5" x2="209.5" y1="82.2813" y2="1253.6953"/><line style="stroke:#181818;stroke-width:0.5;stroke-dasharray:5.0,5.0;" x1="467.5" x2="467.5" y1="82.2813" y2="1253.6953"/><line style="stroke:#181818;stroke-width:0.5;stroke-dasharray:5.0,5.0;" x1="725.5" x2="725.5" y1="82.2813" y2="1253.6953"/><line style="stroke:#181818;stroke-width:0.5;stroke-dasharray:5.0,5.0;" x1="876" x2="876" y1="82.2813" y2="1253.6953"/><line style="stroke:#181818;stroke-width:0.5;stroke-dasharray:5.0,5.0;" x1="992" x2="992" y1="82.2813" y2="1253.6953"/><line style="stroke:#181818;stroke-width:0.5;stroke-dasharray:5.0,5.0;" x1="1135" x2="1135" y1="82.2813" y2="1253.6953"/><line style="stroke:#181818;stroke-width:0.5;stroke-dasharray:5.0,5.0;" x1="1267" x2="1267" y1="82.2813" y2="1253.6953"/><line style="stroke:#181818;stroke-width:0.5;stroke-dasharray:5.0,5.0;" x1="1389" x2="1389" y1="82.2813" y2="1253.6953"/><line style="stroke:#181818;stroke-width:0.5;stroke-dasharray:5.0,5.0;" x1="1545.5" x2="1545.5" y1="82.2813" y2="1253.6953"/><line style="stroke:#181818;stroke-width:0.5;stroke-dasharray:5.0,5.0;" x1="1709.5" x2="1709.5" y1="82.2813" y2="1253.6953"/><line style="stroke:#181818;stroke-width:0.5;stroke-dasharray:5.0,5.0;" x1="1927.5" x2="1927.5" y1="82.2813" y2="1253.6953"/><line style="stroke:#181818;stroke-width:0.5;stroke-dasharray:5.0,5.0;" x1="2170.5" x2="2170.5" y1="82.2813" y2="1253.6953"/><line style="stroke:#181818;stroke-width:0.5;stroke-dasharray:5.0,5.0;" x1="2345.5" x2="2345.5" y1="82.2813" y2="1253.6953"/><line style="stroke:#181818;stroke-width:0.5;stroke-dasharray:5.0,5.0;" x1="2479.5" x2="2479.5" y1="82.2813" y2="1253.6953"/><text fill="#000000" font-family="sans-serif" font-size="14" lengthAdjust="spacing" textLength="56" x="5" y="79.3145">Manager</text><ellipse cx="36" cy="15.1406" fill="#E2E2F0" rx="8" ry="8" style="stroke:#181818;stroke-width:0.5;"/><path d="M36,23.1406 L36,50.1406 M23,31.1406 L49,31.1406 M36,50.1406 L23,65.1406 M36,50.1406 L49,65.1406 " fill="none" style="stroke:#181818;stroke-width:0.5;"/><text fill="#000000" font-family="sans-serif" font-size="14" lengthAdjust="spacing" textLength="56" x="5" y="1265.3691">Manager</text><ellipse cx="36" cy="1276.8359" fill="#E2E2F0" rx="8" ry="8" style="stroke:#181818;stroke-width:0.5;"/><path d="M36,1284.8359 L36,1311.8359 M23,1292.8359 L49,1292.8359 M36,1311.8359 L23,1326.8359 M36,1311.8359 L49,1326.8359 " fill="none" style="stroke:#181818;stroke-width:0.5;"/><rect fill="#E2E2F0" height="45.2813" rx="2.5" ry="2.5" style="stroke:#181818;stroke-width:0.5;" width="109" x="155.5" y="36"/><text fill="#000000" font-family="sans-serif" font-size="14" font-style="italic" lengthAdjust="spacing" textLength="95" x="162.5" y="55.6738">&#171;presentation&#187;</text><text fill="#000000" font-family="sans-serif" font-size="14" lengthAdjust="spacing" textLength="86" x="167" y="71.3145">SetTeacherUI</text><rect fill="#E2E2F0" height="45.2813" rx="2.5" ry="2.5" style="stroke:#181818;stroke-width:0.5;" width="109" x="155.5" y="1252.6953"/><text fill="#000000" font-family="sans-serif" font-size="14" font-style="italic" lengthAdjust="spacing" textLength="95" x="162.5" y="1272.3691">&#171;presentation&#187;</text><text fill="#000000" font-family="sans-serif" font-size="14" lengthAdjust="spacing" textLength="86" x="167" y="1288.0098">SetTeacherUI</text><rect fill="#E2E2F0" height="45.2813" rx="2.5" ry="2.5" style="stroke:#181818;stroke-width:0.5;" width="297" x="319.5" y="36"/><text fill="#000000" font-family="sans-serif" font-size="14" font-style="italic" lengthAdjust="spacing" textLength="84" x="426" y="55.6738">&#171;application&#187;</text><text fill="#000000" font-family="sans-serif" font-size="14" lengthAdjust="spacing" textLength="283" x="326.5" y="71.3145">RequestInformationToSetTeachersController</text><rect fill="#E2E2F0" height="45.2813" rx="2.5" ry="2.5" style="stroke:#181818;stroke-width:0.5;" width="297" x="319.5" y="1252.6953"/><text fill="#000000" font-family="sans-serif" font-size="14" font-style="italic" lengthAdjust="spacing" textLength="84" x="426" y="1272.3691">&#171;application&#187;</text><text fill="#000000" font-family="sans-serif" font-size="14" lengthAdjust="spacing" textLength="283" x="326.5" y="1288.0098">RequestInformationToSetTeachersController</text><rect fill="#E2E2F0" height="45.2813" rx="2.5" ry="2.5" style="stroke:#181818;stroke-width:0.5;" width="135" x="658.5" y="36"/><text fill="#000000" font-family="sans-serif" font-size="14" font-style="italic" lengthAdjust="spacing" textLength="84" x="684" y="55.6738">&#171;application&#187;</text><text fill="#000000" font-family="sans-serif" font-size="14" lengthAdjust="spacing" textLength="121" x="665.5" y="71.3145">SetTeacherService</text><rect fill="#E2E2F0" height="45.2813" rx="2.5" ry="2.5" style="stroke:#181818;stroke-width:0.5;" width="135" x="658.5" y="1252.6953"/><text fill="#000000" font-family="sans-serif" font-size="14" font-style="italic" lengthAdjust="spacing" textLength="84" x="684" y="1272.3691">&#171;application&#187;</text><text fill="#000000" font-family="sans-serif" font-size="14" lengthAdjust="spacing" textLength="121" x="665.5" y="1288.0098">SetTeacherService</text><rect fill="#E2E2F0" height="45.2813" rx="2.5" ry="2.5" style="stroke:#181818;stroke-width:0.5;" width="76" x="838" y="36"/><text fill="#000000" font-family="sans-serif" font-size="14" font-style="italic" lengthAdjust="spacing" textLength="62" x="845" y="55.6738">&#171;domain&#187;</text><text fill="#000000" font-family="sans-serif" font-size="14" lengthAdjust="spacing" textLength="46" x="853" y="71.3145">Course</text><rect fill="#E2E2F0" height="45.2813" rx="2.5" ry="2.5" style="stroke:#181818;stroke-width:0.5;" width="76" x="838" y="1252.6953"/><text fill="#000000" font-family="sans-serif" font-size="14" font-style="italic" lengthAdjust="spacing" textLength="62" x="845" y="1272.3691">&#171;domain&#187;</text><text fill="#000000" font-family="sans-serif" font-size="14" lengthAdjust="spacing" textLength="46" x="853" y="1288.0098">Course</text><rect fill="#E2E2F0" height="45.2813" rx="2.5" ry="2.5" style="stroke:#181818;stroke-width:0.5;" width="136" x="924" y="36"/><text fill="#000000" font-family="sans-serif" font-size="14" font-style="italic" lengthAdjust="spacing" textLength="89" x="947.5" y="55.6738">&#171;persistence&#187;</text><text fill="#000000" font-family="sans-serif" font-size="14" lengthAdjust="spacing" textLength="122" x="931" y="71.3145">PersistenceContext</text><rect fill="#E2E2F0" height="45.2813" rx="2.5" ry="2.5" style="stroke:#181818;stroke-width:0.5;" width="136" x="924" y="1252.6953"/><text fill="#000000" font-family="sans-serif" font-size="14" font-style="italic" lengthAdjust="spacing" textLength="89" x="947.5" y="1272.3691">&#171;persistence&#187;</text><text fill="#000000" font-family="sans-serif" font-size="14" lengthAdjust="spacing" textLength="122" x="931" y="1288.0098">PersistenceContext</text><rect fill="#E2E2F0" height="45.2813" rx="2.5" ry="2.5" style="stroke:#181818;stroke-width:0.5;" width="130" x="1070" y="36"/><text fill="#000000" font-family="sans-serif" font-size="14" font-style="italic" lengthAdjust="spacing" textLength="59" x="1105.5" y="55.6738">&#171;factory&#187;</text><text fill="#000000" font-family="sans-serif" font-size="14" lengthAdjust="spacing" textLength="116" x="1077" y="71.3145">RepositoryFactory</text><rect fill="#E2E2F0" height="45.2813" rx="2.5" ry="2.5" style="stroke:#181818;stroke-width:0.5;" width="130" x="1070" y="1252.6953"/><text fill="#000000" font-family="sans-serif" font-size="14" font-style="italic" lengthAdjust="spacing" textLength="59" x="1105.5" y="1272.3691">&#171;factory&#187;</text><text fill="#000000" font-family="sans-serif" font-size="14" lengthAdjust="spacing" textLength="116" x="1077" y="1288.0098">RepositoryFactory</text><rect fill="#E2E2F0" height="45.2813" rx="2.5" ry="2.5" style="stroke:#181818;stroke-width:0.5;" width="115" x="1210" y="36"/><text fill="#000000" font-family="sans-serif" font-size="14" font-style="italic" lengthAdjust="spacing" textLength="65" x="1235" y="55.6738">&#171;Mapper&#187;</text><text fill="#000000" font-family="sans-serif" font-size="14" lengthAdjust="spacing" textLength="101" x="1217" y="71.3145">TeacherMapper</text><rect fill="#E2E2F0" height="45.2813" rx="2.5" ry="2.5" style="stroke:#181818;stroke-width:0.5;" width="115" x="1210" y="1252.6953"/><text fill="#000000" font-family="sans-serif" font-size="14" font-style="italic" lengthAdjust="spacing" textLength="65" x="1235" y="1272.3691">&#171;Mapper&#187;</text><text fill="#000000" font-family="sans-serif" font-size="14" lengthAdjust="spacing" textLength="101" x="1217" y="1288.0098">TeacherMapper</text><rect fill="#E2E2F0" height="45.2813" rx="2.5" ry="2.5" style="stroke:#181818;stroke-width:0.5;" width="108" x="1335" y="36"/><text fill="#000000" font-family="sans-serif" font-size="14" font-style="italic" lengthAdjust="spacing" textLength="65" x="1356.5" y="55.6738">&#171;Mapper&#187;</text><text fill="#000000" font-family="sans-serif" font-size="14" lengthAdjust="spacing" textLength="94" x="1342" y="71.3145">CourseMapper</text><rect fill="#E2E2F0" height="45.2813" rx="2.5" ry="2.5" style="stroke:#181818;stroke-width:0.5;" width="108" x="1335" y="1252.6953"/><text fill="#000000" font-family="sans-serif" font-size="14" font-style="italic" lengthAdjust="spacing" textLength="65" x="1356.5" y="1272.3691">&#171;Mapper&#187;</text><text fill="#000000" font-family="sans-serif" font-size="14" lengthAdjust="spacing" textLength="94" x="1342" y="1288.0098">CourseMapper</text><rect fill="#E2E2F0" height="29.6406" rx="2.5" ry="2.5" style="stroke:#181818;stroke-width:0.5;" width="158" x="1466.5" y="51.6406"/><text fill="#000000" font-family="sans-serif" font-size="14" lengthAdjust="spacing" textLength="144" x="1473.5" y="71.3145">TeacherToDTOBuilder</text><rect fill="#E2E2F0" height="29.6406" rx="2.5" ry="2.5" style="stroke:#181818;stroke-width:0.5;" width="158" x="1466.5" y="1252.6953"/><text fill="#000000" font-family="sans-serif" font-size="14" lengthAdjust="spacing" textLength="144" x="1473.5" y="1272.3691">TeacherToDTOBuilder</text><rect fill="#E2E2F0" height="29.6406" rx="2.5" ry="2.5" style="stroke:#181818;stroke-width:0.5;" width="151" x="1634.5" y="51.6406"/><text fill="#000000" font-family="sans-serif" font-size="14" lengthAdjust="spacing" textLength="137" x="1641.5" y="71.3145">CourseToDTOBuilder</text><rect fill="#E2E2F0" height="29.6406" rx="2.5" ry="2.5" style="stroke:#181818;stroke-width:0.5;" width="151" x="1634.5" y="1252.6953"/><text fill="#000000" font-family="sans-serif" font-size="14" lengthAdjust="spacing" textLength="137" x="1641.5" y="1272.3691">CourseToDTOBuilder</text><rect fill="#E2E2F0" height="29.6406" rx="2.5" ry="2.5" style="stroke:#181818;stroke-width:0.5;" width="264" x="1795.5" y="51.6406"/><text fill="#000000" font-family="sans-serif" font-size="14" lengthAdjust="spacing" textLength="250" x="1802.5" y="71.3145">TeacherWithFullNameAndAcronymDTO</text><rect fill="#E2E2F0" height="29.6406" rx="2.5" ry="2.5" style="stroke:#181818;stroke-width:0.5;" width="264" x="1795.5" y="1252.6953"/><text fill="#000000" font-family="sans-serif" font-size="14" lengthAdjust="spacing" textLength="250" x="1802.5" y="1272.3691">TeacherWithFullNameAndAcronymDTO</text><rect fill="#E2E2F0" height="29.6406" rx="2.5" ry="2.5" style="stroke:#181818;stroke-width:0.5;" width="203" x="2069.5" y="51.6406"/><text fill="#000000" font-family="sans-serif" font-size="14" lengthAdjust="spacing" textLength="189" x="2076.5" y="71.3145">CourseWithNameAndIdentifier</text><rect fill="#E2E2F0" height="29.6406" rx="2.5" ry="2.5" style="stroke:#181818;stroke-width:0.5;" width="203" x="2069.5" y="1252.6953"/><text fill="#000000" font-family="sans-serif" font-size="14" lengthAdjust="spacing" textLength="189" x="2076.5" y="1272.3691">CourseWithNameAndIdentifier</text><text fill="#000000" font-family="sans-serif" font-size="14" font-style="italic" lengthAdjust="spacing" textLength="79" x="2303.5" y="63.6738">&#171;repository&#187;</text><text fill="#000000" font-family="sans-serif" font-size="14" lengthAdjust="spacing" textLength="121" x="2282.5" y="79.3145">TeacherRepository</text><path d="M2328,15 C2328,5 2346,5 2346,5 C2346,5 2364,5 2364,15 L2364,41 C2364,51 2346,51 2346,51 C2346,51 2328,51 2328,41 L2328,15 " fill="#E2E2F0" style="stroke:#181818;stroke-width:1.5;"/><path d="M2328,15 C2328,25 2346,25 2346,25 C2346,25 2364,25 2364,15 " fill="none" style="stroke:#181818;stroke-width:1.5;"/><text fill="#000000" font-family="sans-serif" font-size="14" font-style="italic" lengthAdjust="spacing" textLength="79" x="2303.5" y="1265.3691">&#171;repository&#187;</text><text fill="#000000" font-family="sans-serif" font-size="14" lengthAdjust="spacing" textLength="121" x="2282.5" y="1281.0098">TeacherRepository</text><path d="M2328,1293.9766 C2328,1283.9766 2346,1283.9766 2346,1283.9766 C2346,1283.9766 2364,1283.9766 2364,1293.9766 L2364,1319.9766 C2364,1329.9766 2346,1329.9766 2346,1329.9766 C2346,1329.9766 2328,1329.9766 2328,1319.9766 L2328,1293.9766 " fill="#E2E2F0" style="stroke:#181818;stroke-width:1.5;"/><path d="M2328,1293.9766 C2328,1303.9766 2346,1303.9766 2346,1303.9766 C2346,1303.9766 2364,1303.9766 2364,1293.9766 " fill="none" style="stroke:#181818;stroke-width:1.5;"/><text fill="#000000" font-family="sans-serif" font-size="14" font-style="italic" lengthAdjust="spacing" textLength="79" x="2437" y="63.6738">&#171;repository&#187;</text><text fill="#000000" font-family="sans-serif" font-size="14" lengthAdjust="spacing" textLength="114" x="2419.5" y="79.3145">CourseRepository</text><path d="M2461.5,15 C2461.5,5 2479.5,5 2479.5,5 C2479.5,5 2497.5,5 2497.5,15 L2497.5,41 C2497.5,51 2479.5,51 2479.5,51 C2479.5,51 2461.5,51 2461.5,41 L2461.5,15 " fill="#E2E2F0" style="stroke:#181818;stroke-width:1.5;"/><path d="M2461.5,15 C2461.5,25 2479.5,25 2479.5,25 C2479.5,25 2497.5,25 2497.5,15 " fill="none" style="stroke:#181818;stroke-width:1.5;"/><text fill="#000000" font-family="sans-serif" font-size="14" font-style="italic" lengthAdjust="spacing" textLength="79" x="2437" y="1265.3691">&#171;repository&#187;</text><text fill="#000000" font-family="sans-serif" font-size="14" lengthAdjust="spacing" textLength="114" x="2419.5" y="1281.0098">CourseRepository</text><path d="M2461.5,1293.9766 C2461.5,1283.9766 2479.5,1283.9766 2479.5,1283.9766 C2479.5,1283.9766 2497.5,1283.9766 2497.5,1293.9766 L2497.5,1319.9766 C2497.5,1329.9766 2479.5,1329.9766 2479.5,1329.9766 C2479.5,1329.9766 2461.5,1329.9766 2461.5,1319.9766 L2461.5,1293.9766 " fill="#E2E2F0" style="stroke:#181818;stroke-width:1.5;"/><path d="M2461.5,1293.9766 C2461.5,1303.9766 2479.5,1303.9766 2479.5,1303.9766 C2479.5,1303.9766 2497.5,1303.9766 2497.5,1293.9766 " fill="none" style="stroke:#181818;stroke-width:1.5;"/><rect fill="#FFFFFF" height="1152.4141" style="stroke:#181818;stroke-width:1.0;" width="10" x="31" y="92.2813"/><rect fill="#FFFFFF" height="1152.4141" style="stroke:#181818;stroke-width:1.0;" width="10" x="205" y="92.2813"/><rect fill="#FFFFFF" height="1094.3672" style="stroke:#181818;stroke-width:1.0;" width="10" x="463" y="141.3281"/><rect fill="#FFFFFF" height="1008.7969" style="stroke:#181818;stroke-width:1.0;" width="10" x="721" y="169.8516"/><rect fill="#FFFFFF" height="57.0469" style="stroke:#181818;stroke-width:1.0;" width="10" x="987" y="198.375"/><rect fill="#FFFFFF" height="57.0469" style="stroke:#181818;stroke-width:1.0;" width="10" x="987" y="509.6094"/><rect fill="#FFFFFF" height="57.0469" style="stroke:#181818;stroke-width:1.0;" width="10" x="1130" y="283.9453"/><rect fill="#FFFFFF" height="57.0469" style="stroke:#181818;stroke-width:1.0;" width="10" x="1130" y="595.1797"/><rect fill="#FFFFFF" height="171.1406" style="stroke:#181818;stroke-width:1.0;" width="10" x="1262.5" y="779.3203"/><rect fill="#FFFFFF" height="171.1406" style="stroke:#181818;stroke-width:1.0;" width="10" x="1384" y="978.9844"/><rect fill="#FFFFFF" height="57.0469" style="stroke:#181818;stroke-width:1.0;" width="10" x="1540.5" y="864.8906"/><rect fill="#FFFFFF" height="57.0469" style="stroke:#181818;stroke-width:1.0;" width="10" x="1705" y="1064.5547"/><polygon fill="#181818" points="193,108.8047,203,112.8047,193,116.8047,197,112.8047" style="stroke:#181818;stroke-width:1.0;"/><line style="stroke:#181818;stroke-width:1.0;" x1="41" x2="199" y1="112.8047" y2="112.8047"/><text fill="#000000" font-family="sans-serif" font-size="13" font-weight="bold" lengthAdjust="spacing" textLength="7" x="48" y="108.0498">1</text><text fill="#000000" font-family="sans-serif" font-size="13" lengthAdjust="spacing" textLength="129" x="59" y="108.0498">wants to set a teacher</text><polygon fill="#181818" points="451,137.3281,461,141.3281,451,145.3281,455,141.3281" style="stroke:#181818;stroke-width:1.0;"/><line style="stroke:#181818;stroke-width:1.0;" x1="215" x2="457" y1="141.3281" y2="141.3281"/><text fill="#000000" font-family="sans-serif" font-size="13" font-weight="bold" lengthAdjust="spacing" textLength="7" x="222" y="136.5732">2</text><text fill="#000000" font-family="sans-serif" font-size="13" lengthAdjust="spacing" textLength="114" x="233" y="136.5732">requestInformation()</text><polygon fill="#181818" points="709,165.8516,719,169.8516,709,173.8516,713,169.8516" style="stroke:#181818;stroke-width:1.0;"/><line style="stroke:#181818;stroke-width:1.0;" x1="473" x2="715" y1="169.8516" y2="169.8516"/><text fill="#000000" font-family="sans-serif" font-size="13" font-weight="bold" lengthAdjust="spacing" textLength="7" x="480" y="165.0967">3</text><text fill="#000000" font-family="sans-serif" font-size="13" lengthAdjust="spacing" textLength="114" x="491" y="165.0967">requestInformation()</text><polygon fill="#181818" points="975,194.375,985,198.375,975,202.375,979,198.375" style="stroke:#181818;stroke-width:1.0;"/><line style="stroke:#181818;stroke-width:1.0;" x1="731" x2="981" y1="198.375" y2="198.375"/><text fill="#000000" font-family="sans-serif" font-size="13" font-weight="bold" lengthAdjust="spacing" textLength="7" x="738" y="193.6201">4</text><text fill="#000000" font-family="sans-serif" font-size="13" lengthAdjust="spacing" textLength="193" x="749" y="193.6201">PersistenceContext.repositories()</text><polygon fill="#181818" points="1123,222.8984,1133,226.8984,1123,230.8984,1127,226.8984" style="stroke:#181818;stroke-width:1.0;"/><line style="stroke:#181818;stroke-width:1.0;" x1="997" x2="1129" y1="226.8984" y2="226.8984"/><text fill="#000000" font-family="sans-serif" font-size="13" font-weight="bold" lengthAdjust="spacing" textLength="7" x="1004" y="222.1436">5</text><text fill="#000000" font-family="sans-serif" font-size="13" lengthAdjust="spacing" textLength="36" x="1015" y="222.1436">create</text><polygon fill="#181818" points="742,251.4219,732,255.4219,742,259.4219,738,255.4219" style="stroke:#181818;stroke-width:1.0;"/><line style="stroke:#181818;stroke-width:1.0;" x1="736" x2="991" y1="255.4219" y2="255.4219"/><text fill="#000000" font-family="sans-serif" font-size="13" font-weight="bold" lengthAdjust="spacing" textLength="7" x="748" y="250.667">6</text><text fill="#000000" font-family="sans-serif" font-size="13" lengthAdjust="spacing" textLength="39" x="759" y="250.667">factory</text><polygon fill="#181818" points="1118,279.9453,1128,283.9453,1118,287.9453,1122,283.9453" style="stroke:#181818;stroke-width:1.0;"/><line style="stroke:#181818;stroke-width:1.0;" x1="731" x2="1124" y1="283.9453" y2="283.9453"/><text fill="#000000" font-family="sans-serif" font-size="13" font-weight="bold" lengthAdjust="spacing" textLength="7" x="738" y="279.1904">7</text><text fill="#000000" font-family="sans-serif" font-size="13" lengthAdjust="spacing" textLength="58" x="749" y="279.1904">teachers()</text><polygon fill="#181818" points="2334,308.4688,2344,312.4688,2334,316.4688,2338,312.4688" style="stroke:#181818;stroke-width:1.0;"/><line style="stroke:#181818;stroke-width:1.0;" x1="1140" x2="2340" y1="312.4688" y2="312.4688"/><text fill="#000000" font-family="sans-serif" font-size="13" font-weight="bold" lengthAdjust="spacing" textLength="7" x="1147" y="307.7139">8</text><text fill="#000000" font-family="sans-serif" font-size="13" lengthAdjust="spacing" textLength="36" x="1158" y="307.7139">create</text><polygon fill="#181818" points="742,336.9922,732,340.9922,742,344.9922,738,340.9922" style="stroke:#181818;stroke-width:1.0;"/><line style="stroke:#181818;stroke-width:1.0;" x1="736" x2="1134" y1="340.9922" y2="340.9922"/><text fill="#000000" font-family="sans-serif" font-size="13" font-weight="bold" lengthAdjust="spacing" textLength="7" x="748" y="336.2373">9</text><text fill="#000000" font-family="sans-serif" font-size="13" lengthAdjust="spacing" textLength="105" x="759" y="336.2373">teacherRepository</text><polygon fill="#181818" points="2334,365.5156,2344,369.5156,2334,373.5156,2338,369.5156" style="stroke:#181818;stroke-width:1.0;"/><line style="stroke:#181818;stroke-width:1.0;" x1="731" x2="2340" y1="369.5156" y2="369.5156"/><text fill="#000000" font-family="sans-serif" font-size="13" font-weight="bold" lengthAdjust="spacing" textLength="14" x="738" y="364.7607">10</text><text fill="#000000" font-family="sans-serif" font-size="13" lengthAdjust="spacing" textLength="96" x="756" y="364.7607">findAllTeachers()</text><polygon fill="#181818" points="742,394.0391,732,398.0391,742,402.0391,738,398.0391" style="stroke:#181818;stroke-width:1.0;"/><line style="stroke:#181818;stroke-width:1.0;" x1="736" x2="2345" y1="398.0391" y2="398.0391"/><text fill="#000000" font-family="sans-serif" font-size="13" font-weight="bold" lengthAdjust="spacing" textLength="14" x="748" y="393.2842">11</text><text fill="#000000" font-family="sans-serif" font-size="13" lengthAdjust="spacing" textLength="64" x="766" y="393.2842">teacherList</text><line style="stroke:#181818;stroke-width:1.0;" x1="731" x2="773" y1="426.5625" y2="426.5625"/><line style="stroke:#181818;stroke-width:1.0;" x1="773" x2="773" y1="426.5625" y2="439.5625"/><line style="stroke:#181818;stroke-width:1.0;" x1="732" x2="773" y1="439.5625" y2="439.5625"/><polygon fill="#181818" points="742,435.5625,732,439.5625,742,443.5625,738,439.5625" style="stroke:#181818;stroke-width:1.0;"/><text fill="#000000" font-family="sans-serif" font-size="13" font-weight="bold" lengthAdjust="spacing" textLength="14" x="738" y="421.8076">12</text><text fill="#000000" font-family="sans-serif" font-size="13" lengthAdjust="spacing" textLength="64" x="756" y="421.8076">teacherList</text><line style="stroke:#181818;stroke-width:1.0;" x1="731" x2="773" y1="468.0859" y2="468.0859"/><line style="stroke:#181818;stroke-width:1.0;" x1="773" x2="773" y1="468.0859" y2="481.0859"/><line style="stroke:#181818;stroke-width:1.0;" x1="732" x2="773" y1="481.0859" y2="481.0859"/><polygon fill="#181818" points="742,477.0859,732,481.0859,742,485.0859,738,481.0859" style="stroke:#181818;stroke-width:1.0;"/><text fill="#000000" font-family="sans-serif" font-size="13" font-weight="bold" lengthAdjust="spacing" textLength="14" x="738" y="463.3311">13</text><text fill="#000000" font-family="sans-serif" font-size="13" lengthAdjust="spacing" textLength="108" x="756" y="463.3311">getListOfCourses()</text><polygon fill="#181818" points="975,505.6094,985,509.6094,975,513.6094,979,509.6094" style="stroke:#181818;stroke-width:1.0;"/><line style="stroke:#181818;stroke-width:1.0;" x1="731" x2="981" y1="509.6094" y2="509.6094"/><text fill="#000000" font-family="sans-serif" font-size="13" font-weight="bold" lengthAdjust="spacing" textLength="14" x="738" y="504.8545">14</text><text fill="#000000" font-family="sans-serif" font-size="13" lengthAdjust="spacing" textLength="193" x="756" y="504.8545">PersistenceContext.repositories()</text><polygon fill="#181818" points="1123,534.1328,1133,538.1328,1123,542.1328,1127,538.1328" style="stroke:#181818;stroke-width:1.0;"/><line style="stroke:#181818;stroke-width:1.0;" x1="997" x2="1129" y1="538.1328" y2="538.1328"/><text fill="#000000" font-family="sans-serif" font-size="13" font-weight="bold" lengthAdjust="spacing" textLength="14" x="1004" y="533.3779">15</text><text fill="#000000" font-family="sans-serif" font-size="13" lengthAdjust="spacing" textLength="36" x="1022" y="533.3779">create</text><polygon fill="#181818" points="742,562.6563,732,566.6563,742,570.6563,738,566.6563" style="stroke:#181818;stroke-width:1.0;"/><line style="stroke:#181818;stroke-width:1.0;" x1="736" x2="991" y1="566.6563" y2="566.6563"/><text fill="#000000" font-family="sans-serif" font-size="13" font-weight="bold" lengthAdjust="spacing" textLength="14" x="748" y="561.9014">16</text><text fill="#000000" font-family="sans-serif" font-size="13" lengthAdjust="spacing" textLength="39" x="766" y="561.9014">factory</text><polygon fill="#181818" points="1118,591.1797,1128,595.1797,1118,599.1797,1122,595.1797" style="stroke:#181818;stroke-width:1.0;"/><line style="stroke:#181818;stroke-width:1.0;" x1="731" x2="1124" y1="595.1797" y2="595.1797"/><text fill="#000000" font-family="sans-serif" font-size="13" font-weight="bold" lengthAdjust="spacing" textLength="14" x="738" y="590.4248">17</text><text fill="#000000" font-family="sans-serif" font-size="13" lengthAdjust="spacing" textLength="54" x="756" y="590.4248">courses()</text><polygon fill="#181818" points="2467.5,619.7031,2477.5,623.7031,2467.5,627.7031,2471.5,623.7031" style="stroke:#181818;stroke-width:1.0;"/><line style="stroke:#181818;stroke-width:1.0;" x1="1140" x2="2473.5" y1="623.7031" y2="623.7031"/><text fill="#000000" font-family="sans-serif" font-size="13" font-weight="bold" lengthAdjust="spacing" textLength="14" x="1147" y="618.9482">18</text><text fill="#000000" font-family="sans-serif" font-size="13" lengthAdjust="spacing" textLength="36" x="1165" y="618.9482">create</text><polygon fill="#181818" points="742,648.2266,732,652.2266,742,656.2266,738,652.2266" style="stroke:#181818;stroke-width:1.0;"/><line style="stroke:#181818;stroke-width:1.0;" x1="736" x2="1134" y1="652.2266" y2="652.2266"/><text fill="#000000" font-family="sans-serif" font-size="13" font-weight="bold" lengthAdjust="spacing" textLength="14" x="748" y="647.4717">19</text><text fill="#000000" font-family="sans-serif" font-size="13" lengthAdjust="spacing" textLength="101" x="766" y="647.4717">courseRepository</text><polygon fill="#181818" points="2467.5,676.75,2477.5,680.75,2467.5,684.75,2471.5,680.75" style="stroke:#181818;stroke-width:1.0;"/><line style="stroke:#181818;stroke-width:1.0;" x1="731" x2="2473.5" y1="680.75" y2="680.75"/><text fill="#000000" font-family="sans-serif" font-size="13" font-weight="bold" lengthAdjust="spacing" textLength="14" x="738" y="675.9951">20</text><text fill="#000000" font-family="sans-serif" font-size="13" lengthAdjust="spacing" textLength="91" x="756" y="675.9951">findAllCourses()</text><polygon fill="#181818" points="742,705.2734,732,709.2734,742,713.2734,738,709.2734" style="stroke:#181818;stroke-width:1.0;"/><line style="stroke:#181818;stroke-width:1.0;" x1="736" x2="2478.5" y1="709.2734" y2="709.2734"/><text fill="#000000" font-family="sans-serif" font-size="13" font-weight="bold" lengthAdjust="spacing" textLength="14" x="748" y="704.5186">21</text><text fill="#000000" font-family="sans-serif" font-size="13" lengthAdjust="spacing" textLength="67" x="766" y="704.5186">coursesList</text><line style="stroke:#181818;stroke-width:1.0;" x1="731" x2="773" y1="737.7969" y2="737.7969"/><line style="stroke:#181818;stroke-width:1.0;" x1="773" x2="773" y1="737.7969" y2="750.7969"/><line style="stroke:#181818;stroke-width:1.0;" x1="732" x2="773" y1="750.7969" y2="750.7969"/><polygon fill="#181818" points="742,746.7969,732,750.7969,742,754.7969,738,750.7969" style="stroke:#181818;stroke-width:1.0;"/><text fill="#000000" font-family="sans-serif" font-size="13" font-weight="bold" lengthAdjust="spacing" textLength="14" x="738" y="733.042">22</text><text fill="#000000" font-family="sans-serif" font-size="13" lengthAdjust="spacing" textLength="67" x="756" y="733.042">coursesList</text><polygon fill="#181818" points="1250.5,775.3203,1260.5,779.3203,1250.5,783.3203,1254.5,779.3203" style="stroke:#181818;stroke-width:1.0;"/><line style="stroke:#181818;stroke-width:1.0;" x1="731" x2="1256.5" y1="779.3203" y2="779.3203"/><text fill="#000000" font-family="sans-serif" font-size="13" font-weight="bold" lengthAdjust="spacing" textLength="14" x="738" y="774.5654">23</text><text fill="#000000" font-family="sans-serif" font-size="13" lengthAdjust="spacing" textLength="294" x="756" y="774.5654">teacherWithFullNameAndAcronymToDTO(Teacher)</text><polygon fill="#181818" points="1533.5,803.8438,1543.5,807.8438,1533.5,811.8438,1537.5,807.8438" style="stroke:#181818;stroke-width:1.0;"/><line style="stroke:#181818;stroke-width:1.0;" x1="1272.5" x2="1539.5" y1="807.8438" y2="807.8438"/><text fill="#000000" font-family="sans-serif" font-size="13" font-weight="bold" lengthAdjust="spacing" textLength="14" x="1279.5" y="803.0889">24</text><text fill="#000000" font-family="sans-serif" font-size="13" lengthAdjust="spacing" textLength="117" x="1297.5" y="803.0889">buildWithFullName()</text><polygon fill="#181818" points="1533.5,832.3672,1543.5,836.3672,1533.5,840.3672,1537.5,836.3672" style="stroke:#181818;stroke-width:1.0;"/><line style="stroke:#181818;stroke-width:1.0;" x1="1272.5" x2="1539.5" y1="836.3672" y2="836.3672"/><text fill="#000000" font-family="sans-serif" font-size="13" font-weight="bold" lengthAdjust="spacing" textLength="14" x="1279.5" y="831.6123">25</text><text fill="#000000" font-family="sans-serif" font-size="13" lengthAdjust="spacing" textLength="114" x="1297.5" y="831.6123">buildWithAcronym()</text><polygon fill="#181818" points="1528.5,860.8906,1538.5,864.8906,1528.5,868.8906,1532.5,864.8906" style="stroke:#181818;stroke-width:1.0;"/><line style="stroke:#181818;stroke-width:1.0;" x1="1272.5" x2="1534.5" y1="864.8906" y2="864.8906"/><text fill="#000000" font-family="sans-serif" font-size="13" font-weight="bold" lengthAdjust="spacing" textLength="14" x="1279.5" y="860.1357">26</text><text fill="#000000" font-family="sans-serif" font-size="13" lengthAdjust="spacing" textLength="35" x="1297.5" y="860.1357">build()</text><polygon fill="#181818" points="1915.5,889.4141,1925.5,893.4141,1915.5,897.4141,1919.5,893.4141" style="stroke:#181818;stroke-width:1.0;"/><line style="stroke:#181818;stroke-width:1.0;" x1="1550.5" x2="1921.5" y1="893.4141" y2="893.4141"/><text fill="#000000" font-family="sans-serif" font-size="13" font-weight="bold" lengthAdjust="spacing" textLength="14" x="1557.5" y="888.6592">27</text><text fill="#000000" font-family="sans-serif" font-size="13" lengthAdjust="spacing" textLength="36" x="1575.5" y="888.6592">create</text><polygon fill="#181818" points="1283.5,917.9375,1273.5,921.9375,1283.5,925.9375,1279.5,921.9375" style="stroke:#181818;stroke-width:1.0;"/><line style="stroke:#181818;stroke-width:1.0;" x1="1277.5" x2="1544.5" y1="921.9375" y2="921.9375"/><text fill="#000000" font-family="sans-serif" font-size="13" font-weight="bold" lengthAdjust="spacing" textLength="14" x="1289.5" y="917.1826">28</text><text fill="#000000" font-family="sans-serif" font-size="13" lengthAdjust="spacing" textLength="226" x="1307.5" y="917.1826">teacherWithFullNameAndAcronymDTO</text><polygon fill="#181818" points="742,946.4609,732,950.4609,742,954.4609,738,950.4609" style="stroke:#181818;stroke-width:1.0;"/><line style="stroke:#181818;stroke-width:1.0;" x1="736" x2="1266.5" y1="950.4609" y2="950.4609"/><text fill="#000000" font-family="sans-serif" font-size="13" font-weight="bold" lengthAdjust="spacing" textLength="14" x="748" y="945.7061">29</text><text fill="#000000" font-family="sans-serif" font-size="13" lengthAdjust="spacing" textLength="226" x="766" y="945.7061">teacherWithFullNameAndAcronymDTO</text><polygon fill="#181818" points="1372,974.9844,1382,978.9844,1372,982.9844,1376,978.9844" style="stroke:#181818;stroke-width:1.0;"/><line style="stroke:#181818;stroke-width:1.0;" x1="731" x2="1378" y1="978.9844" y2="978.9844"/><text fill="#000000" font-family="sans-serif" font-size="13" font-weight="bold" lengthAdjust="spacing" textLength="14" x="738" y="974.2295">30</text><text fill="#000000" font-family="sans-serif" font-size="13" lengthAdjust="spacing" textLength="347" x="756" y="974.2295">courseWithCourseIdentifierAndCourseNameToDTO(Teacher)</text><polygon fill="#181818" points="1698,1003.5078,1708,1007.5078,1698,1011.5078,1702,1007.5078" style="stroke:#181818;stroke-width:1.0;"/><line style="stroke:#181818;stroke-width:1.0;" x1="1394" x2="1704" y1="1007.5078" y2="1007.5078"/><text fill="#000000" font-family="sans-serif" font-size="13" font-weight="bold" lengthAdjust="spacing" textLength="14" x="1401" y="1002.7529">31</text><text fill="#000000" font-family="sans-serif" font-size="13" lengthAdjust="spacing" textLength="96" x="1419" y="1002.7529">buildWithName()</text><polygon fill="#181818" points="1698,1032.0313,1708,1036.0313,1698,1040.0313,1702,1036.0313" style="stroke:#181818;stroke-width:1.0;"/><line style="stroke:#181818;stroke-width:1.0;" x1="1394" x2="1704" y1="1036.0313" y2="1036.0313"/><text fill="#000000" font-family="sans-serif" font-size="13" font-weight="bold" lengthAdjust="spacing" textLength="14" x="1401" y="1031.2764">32</text><text fill="#000000" font-family="sans-serif" font-size="13" lengthAdjust="spacing" textLength="110" x="1419" y="1031.2764">buildWithIdentifier()</text><polygon fill="#181818" points="1693,1060.5547,1703,1064.5547,1693,1068.5547,1697,1064.5547" style="stroke:#181818;stroke-width:1.0;"/><line style="stroke:#181818;stroke-width:1.0;" x1="1394" x2="1699" y1="1064.5547" y2="1064.5547"/><text fill="#000000" font-family="sans-serif" font-size="13" font-weight="bold" lengthAdjust="spacing" textLength="14" x="1401" y="1059.7998">33</text><text fill="#000000" font-family="sans-serif" font-size="13" lengthAdjust="spacing" textLength="35" x="1419" y="1059.7998">build()</text><polygon fill="#181818" points="2159,1089.0781,2169,1093.0781,2159,1097.0781,2163,1093.0781" style="stroke:#181818;stroke-width:1.0;"/><line style="stroke:#181818;stroke-width:1.0;" x1="1715" x2="2165" y1="1093.0781" y2="1093.0781"/><text fill="#000000" font-family="sans-serif" font-size="13" font-weight="bold" lengthAdjust="spacing" textLength="14" x="1722" y="1088.3232">34</text><text fill="#000000" font-family="sans-serif" font-size="13" lengthAdjust="spacing" textLength="36" x="1740" y="1088.3232">create</text><polygon fill="#181818" points="1405,1117.6016,1395,1121.6016,1405,1125.6016,1401,1121.6016" style="stroke:#181818;stroke-width:1.0;"/><line style="stroke:#181818;stroke-width:1.0;" x1="1399" x2="1709" y1="1121.6016" y2="1121.6016"/><text fill="#000000" font-family="sans-serif" font-size="13" font-weight="bold" lengthAdjust="spacing" textLength="14" x="1411" y="1116.8467">35</text><text fill="#000000" font-family="sans-serif" font-size="13" lengthAdjust="spacing" textLength="171" x="1429" y="1116.8467">courseWithNameAndIdentifier</text><polygon fill="#181818" points="742,1146.125,732,1150.125,742,1154.125,738,1150.125" style="stroke:#181818;stroke-width:1.0;"/><line style="stroke:#181818;stroke-width:1.0;" x1="736" x2="1388" y1="1150.125" y2="1150.125"/><text fill="#000000" font-family="sans-serif" font-size="13" font-weight="bold" lengthAdjust="spacing" textLength="14" x="748" y="1145.3701">36</text><text fill="#000000" font-family="sans-serif" font-size="13" lengthAdjust="spacing" textLength="171" x="766" y="1145.3701">courseWithNameAndIdentifier</text><polygon fill="#181818" points="484,1174.6484,474,1178.6484,484,1182.6484,480,1178.6484" style="stroke:#181818;stroke-width:1.0;"/><line style="stroke:#181818;stroke-width:1.0;" x1="478" x2="725" y1="1178.6484" y2="1178.6484"/><text fill="#000000" font-family="sans-serif" font-size="13" font-weight="bold" lengthAdjust="spacing" textLength="14" x="490" y="1173.8936">37</text><text fill="#000000" font-family="sans-serif" font-size="13" lengthAdjust="spacing" textLength="206" x="508" y="1173.8936">return Pair&lt;List&lt;DTO&gt;,List&lt;DTO&gt;&gt;</text><polygon fill="#181818" points="226,1203.1719,216,1207.1719,226,1211.1719,222,1207.1719" style="stroke:#181818;stroke-width:1.0;"/><line style="stroke:#181818;stroke-width:1.0;" x1="220" x2="462" y1="1207.1719" y2="1207.1719"/><text fill="#000000" font-family="sans-serif" font-size="13" font-weight="bold" lengthAdjust="spacing" textLength="14" x="232" y="1202.417">38</text><text fill="#000000" font-family="sans-serif" font-size="13" lengthAdjust="spacing" textLength="206" x="250" y="1202.417">return Pair&lt;List&lt;DTO&gt;,List&lt;DTO&gt;&gt;</text><polygon fill="#181818" points="52,1231.6953,42,1235.6953,52,1239.6953,48,1235.6953" style="stroke:#181818;stroke-width:1.0;"/><line style="stroke:#181818;stroke-width:1.0;" x1="46" x2="204" y1="1235.6953" y2="1235.6953"/><text fill="#000000" font-family="sans-serif" font-size="13" font-weight="bold" lengthAdjust="spacing" textLength="14" x="58" y="1230.9404">39</text><text fill="#000000" font-family="sans-serif" font-size="13" lengthAdjust="spacing" textLength="97" x="76" y="1230.9404">show information</text><!--SRC=[rLPTRziW57tdLw2-B9EMvjsA8dMTAaLQrsfDj6TgamR9DXxWTlttkzWOBeQasUFUuFgUSoxtm_3fQ4odYzMggrbh-gQ-BcMpqlntpzkIBol1NXHh266zaMtVF7C5wz98HUzPorxijcFAY59qWATNJzpiE2kFNEstLvHfkj_IzRfJNFFMC2Dakzd4Y9zMIvjjUv2g6JnsCh3eMzaQ9UkQgu4kR86MTLqjoYnhO7ZYwbMKV42xTGADiRUoLvexERi4_qesJ2GgZn2WqCQcoWR6_vW1XSpsy66NdhsJMa0st- -6fBuFSBS6w65S9H6wezt3ALnU8WiWnyLSRpmEWc43HcNbTlBRxk5hB-eg5iNsd5w2IyrvmL_27E_wklx16dxJLZUbakrx0oYi3jkSgCKwtBQ2tXC74QbR6AcOOSyC2ZmfXe9WYM2572c_WJm5Wf5rXfyRvt0xIkAL6UwdoHlsMqASaIuti2te6nnFKoEfveOoQiRW224mO-22HgEWAfcgnUT07bm9GW77D20V4JW_GYO0O57N5pITZ6j_Si4rvaAk14yEKBf9A6YfEBZEFplnWhev8HNFig8WFQFBNXI9-qYc0GJ_f0DyBCZ9ns7ctZYYYHr5as4_26Zqkjw5yD8cp4X-XxDYvb18x418tkU56_lzuJ0sh5Kb_t5jIt-ASwMT3-VPofOpvmyActAxkeO49_-6L4wVhYfsY4iLtmI-_lb_wV0FNZW8IbT4GaZC6KJmBxoWptQ1TKBpNefqOLq8f0wvI2EFBfSSD322aVhQdtUzBAdsQa7jSIQYSBfaNazJPxYdEf6q1tt8fRyMnm_XLWJwqMIrJdK4PYCaulPQ9uhgMk6VC26wYv2vJiYyCZ90JnUrmJd7J4QJXmQkqSauSjK_nvcIdgXxz0umlMhf8nDgRNyMQuXYyyMlDX6flzNZHm4yBouXsc-Nc-d5Kb1zb6zKXDV3B7h__lWB]--></g></svg>