<?xml version="1.0" encoding="us-ascii" standalone="no"?><svg xmlns="http://www.w3.org/2000/svg" xmlns:xlink="http://www.w3.org/1999/xlink" contentStyleType="text/css" height="551px" preserveAspectRatio="none" style="width:1803px;height:551px;background:#FFFFFF;" version="1.1" viewBox="0 0 1803 551" width="1803px" zoomAndPan="magnify"><defs/><g><rect fill="#FFFFFF" height="312.9102" style="stroke:#181818;stroke-width:1.0;" width="10" x="27.5" y="121.5332"/><rect fill="#FFFFFF" height="312.9102" style="stroke:#181818;stroke-width:1.0;" width="10" x="401.5" y="121.5332"/><rect fill="#FFFFFF" height="250.3281" style="stroke:#181818;stroke-width:1.0;" width="10" x="760.5" y="152.8242"/><rect fill="#FFFFFF" height="187.7461" style="stroke:#181818;stroke-width:1.0;" width="10" x="1119.5" y="184.1152"/><rect fill="#FFFFFF" height="31.291" style="stroke:#181818;stroke-width:1.0;" width="10" x="1310" y="215.4063"/><rect fill="#FFFFFF" height="31.291" style="stroke:#181818;stroke-width:1.0;" width="10" x="1701" y="309.2793"/><line style="stroke:#181818;stroke-width:0.5;stroke-dasharray:5.0,5.0;" x1="32" x2="32" y1="88.2422" y2="452.4434"/><line style="stroke:#181818;stroke-width:0.5;stroke-dasharray:5.0,5.0;" x1="406" x2="406" y1="88.2422" y2="452.4434"/><line style="stroke:#181818;stroke-width:0.5;stroke-dasharray:5.0,5.0;" x1="765" x2="765" y1="88.2422" y2="452.4434"/><line style="stroke:#181818;stroke-width:0.5;stroke-dasharray:5.0,5.0;" x1="1124.5" x2="1124.5" y1="88.2422" y2="452.4434"/><line style="stroke:#181818;stroke-width:0.5;stroke-dasharray:5.0,5.0;" x1="1314.5" x2="1314.5" y1="88.2422" y2="452.4434"/><line style="stroke:#181818;stroke-width:0.5;stroke-dasharray:5.0,5.0;" x1="1507.5" x2="1507.5" y1="88.2422" y2="452.4434"/><line style="stroke:#181818;stroke-width:0.5;stroke-dasharray:5.0,5.0;" x1="1705.5" x2="1705.5" y1="88.2422" y2="452.4434"/><text fill="#000000" font-family="sans-serif" font-size="14" lengthAdjust="spacing" textLength="49" x="5" y="84.7285">Student</text><ellipse cx="32.5" cy="18.1211" fill="#E2E2F0" rx="8" ry="8" style="stroke:#181818;stroke-width:0.5;"/><path d="M32.5,26.1211 L32.5,53.1211 M19.5,34.1211 L45.5,34.1211 M32.5,53.1211 L19.5,68.1211 M32.5,53.1211 L45.5,68.1211 " fill="none" style="stroke:#181818;stroke-width:0.5;"/><text fill="#000000" font-family="sans-serif" font-size="14" lengthAdjust="spacing" textLength="49" x="5" y="466.5508">Student</text><ellipse cx="32.5" cy="478.5645" fill="#E2E2F0" rx="8" ry="8" style="stroke:#181818;stroke-width:0.5;"/><path d="M32.5,486.5645 L32.5,513.5645 M19.5,494.5645 L45.5,494.5645 M32.5,513.5645 L19.5,528.5645 M32.5,513.5645 L45.5,528.5645 " fill="none" style="stroke:#181818;stroke-width:0.5;"/><rect fill="#E2E2F0" height="51.2422" rx="2.5" ry="2.5" style="stroke:#181818;stroke-width:0.5;" width="155" x="329" y="36"/><text fill="#000000" font-family="sans-serif" font-size="14" font-style="italic" lengthAdjust="spacing" textLength="96" x="358.5" y="58.1074">&#171;Presentation&#187;</text><text fill="#000000" font-family="sans-serif" font-size="14" lengthAdjust="spacing" textLength="141" x="336" y="76.7285">TakeFormativeExamUI</text><rect fill="#E2E2F0" height="51.2422" rx="2.5" ry="2.5" style="stroke:#181818;stroke-width:0.5;" width="155" x="329" y="451.4434"/><text fill="#000000" font-family="sans-serif" font-size="14" font-style="italic" lengthAdjust="spacing" textLength="96" x="358.5" y="473.5508">&#171;Presentation&#187;</text><text fill="#000000" font-family="sans-serif" font-size="14" lengthAdjust="spacing" textLength="141" x="336" y="492.1719">TakeFormativeExamUI</text><text fill="#000000" font-family="sans-serif" font-size="14" font-style="italic" lengthAdjust="spacing" textLength="85" x="720" y="66.1074">&#171;Application&#187;</text><text fill="#000000" font-family="sans-serif" font-size="14" lengthAdjust="spacing" textLength="191" x="667" y="84.7285">TakeFormativeExamController</text><ellipse cx="765.5" cy="35" fill="#E2E2F0" rx="12" ry="12" style="stroke:#181818;stroke-width:0.5;"/><polygon fill="#181818" points="761.5,23,767.5,18,765.5,23,767.5,28,761.5,23" style="stroke:#181818;stroke-width:1.0;"/><text fill="#000000" font-family="sans-serif" font-size="14" font-style="italic" lengthAdjust="spacing" textLength="85" x="720" y="466.5508">&#171;Application&#187;</text><text fill="#000000" font-family="sans-serif" font-size="14" lengthAdjust="spacing" textLength="191" x="667" y="485.1719">TakeFormativeExamController</text><ellipse cx="765.5" cy="504.6855" fill="#E2E2F0" rx="12" ry="12" style="stroke:#181818;stroke-width:0.5;"/><polygon fill="#181818" points="761.5,492.6855,767.5,487.6855,765.5,492.6855,767.5,497.6855,761.5,492.6855" style="stroke:#181818;stroke-width:1.0;"/><rect fill="#E2E2F0" height="51.2422" rx="2.5" ry="2.5" style="stroke:#181818;stroke-width:0.5;" width="190" x="1029.5" y="36"/><text fill="#000000" font-family="sans-serif" font-size="14" font-style="italic" lengthAdjust="spacing" textLength="62" x="1093.5" y="58.1074">&#171;Service&#187;</text><text fill="#000000" font-family="sans-serif" font-size="14" lengthAdjust="spacing" textLength="176" x="1036.5" y="76.7285">TakeFormativeExamService</text><rect fill="#E2E2F0" height="51.2422" rx="2.5" ry="2.5" style="stroke:#181818;stroke-width:0.5;" width="190" x="1029.5" y="451.4434"/><text fill="#000000" font-family="sans-serif" font-size="14" font-style="italic" lengthAdjust="spacing" textLength="62" x="1093.5" y="473.5508">&#171;Service&#187;</text><text fill="#000000" font-family="sans-serif" font-size="14" lengthAdjust="spacing" textLength="176" x="1036.5" y="492.1719">TakeFormativeExamService</text><text fill="#000000" font-family="sans-serif" font-size="14" font-style="italic" lengthAdjust="spacing" textLength="90" x="1267" y="66.1074">&#171;Persistence&#187;</text><text fill="#000000" font-family="sans-serif" font-size="14" lengthAdjust="spacing" textLength="165" x="1229.5" y="84.7285">FormativeExamRepository</text><path d="M1297,15 C1297,5 1315,5 1315,5 C1315,5 1333,5 1333,15 L1333,41 C1333,51 1315,51 1315,51 C1315,51 1297,51 1297,41 L1297,15 " fill="#E2E2F0" style="stroke:#181818;stroke-width:1.5;"/><path d="M1297,15 C1297,25 1315,25 1315,25 C1315,25 1333,25 1333,15 " fill="none" style="stroke:#181818;stroke-width:1.5;"/><text fill="#000000" font-family="sans-serif" font-size="14" font-style="italic" lengthAdjust="spacing" textLength="90" x="1267" y="466.5508">&#171;Persistence&#187;</text><text fill="#000000" font-family="sans-serif" font-size="14" lengthAdjust="spacing" textLength="165" x="1229.5" y="485.1719">FormativeExamRepository</text><path d="M1297,498.6855 C1297,488.6855 1315,488.6855 1315,488.6855 C1315,488.6855 1333,488.6855 1333,498.6855 L1333,524.6855 C1333,534.6855 1315,534.6855 1315,534.6855 C1315,534.6855 1297,534.6855 1297,524.6855 L1297,498.6855 " fill="#E2E2F0" style="stroke:#181818;stroke-width:1.5;"/><path d="M1297,498.6855 C1297,508.6855 1315,508.6855 1315,508.6855 C1315,508.6855 1333,508.6855 1333,498.6855 " fill="none" style="stroke:#181818;stroke-width:1.5;"/><rect fill="#E2E2F0" height="51.2422" rx="2.5" ry="2.5" style="stroke:#181818;stroke-width:0.5;" width="194" x="1410.5" y="36"/><text fill="#000000" font-family="sans-serif" font-size="14" lengthAdjust="spacing" textLength="61" x="1477" y="58.1074">&#171;service&#187;</text><text fill="#000000" font-family="sans-serif" font-size="14" lengthAdjust="spacing" textLength="180" x="1417.5" y="76.7285">VerifyFormativeExamService</text><rect fill="#E2E2F0" height="51.2422" rx="2.5" ry="2.5" style="stroke:#181818;stroke-width:0.5;" width="194" x="1410.5" y="451.4434"/><text fill="#000000" font-family="sans-serif" font-size="14" lengthAdjust="spacing" textLength="61" x="1477" y="473.5508">&#171;service&#187;</text><text fill="#000000" font-family="sans-serif" font-size="14" lengthAdjust="spacing" textLength="180" x="1417.5" y="492.1719">VerifyFormativeExamService</text><rect fill="#E2E2F0" height="51.2422" rx="2.5" ry="2.5" style="stroke:#181818;stroke-width:0.5;" width="183" x="1614.5" y="36"/><text fill="#000000" font-family="sans-serif" font-size="14" lengthAdjust="spacing" textLength="61" x="1675.5" y="58.1074">&#171;service&#187;</text><text fill="#000000" font-family="sans-serif" font-size="14" lengthAdjust="spacing" textLength="169" x="1621.5" y="76.7285">EvaluateResolutionService</text><rect fill="#E2E2F0" height="51.2422" rx="2.5" ry="2.5" style="stroke:#181818;stroke-width:0.5;" width="183" x="1614.5" y="451.4434"/><text fill="#000000" font-family="sans-serif" font-size="14" lengthAdjust="spacing" textLength="61" x="1675.5" y="473.5508">&#171;service&#187;</text><text fill="#000000" font-family="sans-serif" font-size="14" lengthAdjust="spacing" textLength="169" x="1621.5" y="492.1719">EvaluateResolutionService</text><rect fill="#FFFFFF" height="312.9102" style="stroke:#181818;stroke-width:1.0;" width="10" x="27.5" y="121.5332"/><rect fill="#FFFFFF" height="312.9102" style="stroke:#181818;stroke-width:1.0;" width="10" x="401.5" y="121.5332"/><rect fill="#FFFFFF" height="250.3281" style="stroke:#181818;stroke-width:1.0;" width="10" x="760.5" y="152.8242"/><rect fill="#FFFFFF" height="187.7461" style="stroke:#181818;stroke-width:1.0;" width="10" x="1119.5" y="184.1152"/><rect fill="#FFFFFF" height="31.291" style="stroke:#181818;stroke-width:1.0;" width="10" x="1310" y="215.4063"/><rect fill="#FFFFFF" height="31.291" style="stroke:#181818;stroke-width:1.0;" width="10" x="1701" y="309.2793"/><polygon fill="#181818" points="389.5,117.5332,399.5,121.5332,389.5,125.5332,393.5,121.5332" style="stroke:#181818;stroke-width:1.0;"/><line style="stroke:#181818;stroke-width:1.0;" x1="37.5" x2="395.5" y1="121.5332" y2="121.5332"/><text fill="#000000" font-family="sans-serif" font-size="13" lengthAdjust="spacing" textLength="350" x="44.5" y="116.2705">Selects the formative exam and introduce the resolution path</text><polygon fill="#181818" points="748.5,148.8242,758.5,152.8242,748.5,156.8242,752.5,152.8242" style="stroke:#181818;stroke-width:1.0;"/><line style="stroke:#181818;stroke-width:1.0;" x1="411.5" x2="754.5" y1="152.8242" y2="152.8242"/><text fill="#000000" font-family="sans-serif" font-size="13" lengthAdjust="spacing" textLength="330" x="418.5" y="147.5615">takeFormativeExam(formativeExamId, resolutionFilePath)</text><polygon fill="#181818" points="1107.5,180.1152,1117.5,184.1152,1107.5,188.1152,1111.5,184.1152" style="stroke:#181818;stroke-width:1.0;"/><line style="stroke:#181818;stroke-width:1.0;" x1="770.5" x2="1113.5" y1="184.1152" y2="184.1152"/><text fill="#000000" font-family="sans-serif" font-size="13" lengthAdjust="spacing" textLength="330" x="777.5" y="178.8525">takeFormativeExam(formativeExamId, resolutionFilePath)</text><polygon fill="#181818" points="1298,211.4063,1308,215.4063,1298,219.4063,1302,215.4063" style="stroke:#181818;stroke-width:1.0;"/><line style="stroke:#181818;stroke-width:1.0;" x1="1129.5" x2="1304" y1="215.4063" y2="215.4063"/><text fill="#000000" font-family="sans-serif" font-size="13" lengthAdjust="spacing" textLength="154" x="1136.5" y="210.1436">ofIdentify(formativeExamId)</text><polygon fill="#181818" points="1140.5,242.6973,1130.5,246.6973,1140.5,250.6973,1136.5,246.6973" style="stroke:#181818;stroke-width:1.0;"/><line style="stroke:#181818;stroke-width:1.0;stroke-dasharray:2.0,2.0;" x1="1134.5" x2="1314" y1="246.6973" y2="246.6973"/><text fill="#000000" font-family="sans-serif" font-size="13" lengthAdjust="spacing" textLength="85" x="1146.5" y="241.4346">formativeExam</text><polygon fill="#181818" points="1495.5,273.9883,1505.5,277.9883,1495.5,281.9883,1499.5,277.9883" style="stroke:#181818;stroke-width:1.0;"/><line style="stroke:#181818;stroke-width:1.0;" x1="1129.5" x2="1501.5" y1="277.9883" y2="277.9883"/><text fill="#000000" font-family="sans-serif" font-size="13" lengthAdjust="spacing" textLength="119" x="1136.5" y="272.7256">verifyFormativeExam</text><polygon fill="#181818" points="1689,305.2793,1699,309.2793,1689,313.2793,1693,309.2793" style="stroke:#181818;stroke-width:1.0;"/><line style="stroke:#181818;stroke-width:1.0;" x1="1129.5" x2="1695" y1="309.2793" y2="309.2793"/><text fill="#000000" font-family="sans-serif" font-size="13" lengthAdjust="spacing" textLength="179" x="1136.5" y="304.0166">takeFormativeExam(resolution)</text><polygon fill="#181818" points="1140.5,336.5703,1130.5,340.5703,1140.5,344.5703,1136.5,340.5703" style="stroke:#181818;stroke-width:1.0;"/><line style="stroke:#181818;stroke-width:1.0;stroke-dasharray:2.0,2.0;" x1="1134.5" x2="1705" y1="340.5703" y2="340.5703"/><text fill="#000000" font-family="sans-serif" font-size="13" lengthAdjust="spacing" textLength="113" x="1146.5" y="335.3076">grade and feedback</text><polygon fill="#181818" points="781.5,367.8613,771.5,371.8613,781.5,375.8613,777.5,371.8613" style="stroke:#181818;stroke-width:1.0;"/><line style="stroke:#181818;stroke-width:1.0;stroke-dasharray:2.0,2.0;" x1="775.5" x2="1123.5" y1="371.8613" y2="371.8613"/><text fill="#000000" font-family="sans-serif" font-size="13" lengthAdjust="spacing" textLength="113" x="787.5" y="366.5986">grade and feedback</text><polygon fill="#181818" points="422.5,399.1523,412.5,403.1523,422.5,407.1523,418.5,403.1523" style="stroke:#181818;stroke-width:1.0;"/><line style="stroke:#181818;stroke-width:1.0;stroke-dasharray:2.0,2.0;" x1="416.5" x2="764.5" y1="403.1523" y2="403.1523"/><text fill="#000000" font-family="sans-serif" font-size="13" lengthAdjust="spacing" textLength="113" x="428.5" y="397.8896">grade and feedback</text><polygon fill="#181818" points="43.5,430.4434,33.5,434.4434,43.5,438.4434,39.5,434.4434" style="stroke:#181818;stroke-width:1.0;"/><line style="stroke:#181818;stroke-width:1.0;stroke-dasharray:2.0,2.0;" x1="37.5" x2="405.5" y1="434.4434" y2="434.4434"/><text fill="#000000" font-family="sans-serif" font-size="13" lengthAdjust="spacing" textLength="154" x="49.5" y="429.1807">shows grade and feedback</text><!--SRC=[fP9DReCm48NtFeMLLIkL2qG8gOg8XDH5X0EhRYRsq5WX6Dc6DhVlsCqFITDika7WcU-zyJn0UcEvy8F2pdDmNB0UhDTIzq07ipNiS6di7hmUCV-2VLNCGbjLy3HTMNI4KSrqMSQawRmrxHreyLDfqKPuiIxV27_j-rRB4_tOLg0TjSI8YvhWum612Znim26VNH4bziPfkjqXGiky31EZTTfvx29vPPccxYJvtjLeTNFuSu9wcOln0PwFq0xWiKHdsY5SS4hdfM1C95bLpBd05gLtt6-HDoSxZkJ7eLDSXxsfGM9ii6SvteFVCf3KJJOKslcrAbXL95bSyPpxspq-DTElGhrCH9UwnHNfFb_KWWmBZoIZhVzVJzHCr4aMmfXpqnJXhwD5twfC26fb5lrWEtxL57LY3gGq_euhrcdJTuU-p3Xn2h4SdJuiA8m1D8Xg0tBtduhRcazthwvm6jlaItm3]--></g></svg>