<?xml version="1.0" encoding="us-ascii" standalone="no"?><svg xmlns="http://www.w3.org/2000/svg" xmlns:xlink="http://www.w3.org/1999/xlink" contentStyleType="text/css" height="461px" preserveAspectRatio="none" style="width:983px;height:461px;background:#FFFFFF;" version="1.1" viewBox="0 0 983 461" width="983px" zoomAndPan="magnify"><defs/><g><text fill="#000000" font-family="sans-serif" font-size="14" font-weight="bold" lengthAdjust="spacing" textLength="229" x="376" y="27.6738">ShareBoard - SharedBoardClient</text><rect fill="#FFFFFF" height="245.1875" style="stroke:#181818;stroke-width:1.0;" width="10" x="17.5" y="127.2813"/><rect fill="#FFFFFF" height="201.1406" style="stroke:#181818;stroke-width:1.0;" width="10" x="242.5" y="162.3281"/><rect fill="#FFFFFF" height="28.5234" style="stroke:#181818;stroke-width:1.0;" width="10" x="608.5" y="190.8516"/><rect fill="#FFFFFF" height="30" style="stroke:#181818;stroke-width:1.0;" width="10" x="764" y="247.8984"/><rect fill="#FFFFFF" height="28.5234" style="stroke:#181818;stroke-width:1.0;" width="10" x="908" y="306.4219"/><line style="stroke:#181818;stroke-width:0.5;stroke-dasharray:5.0,5.0;" x1="22" x2="22" y1="117.2813" y2="381.4688"/><line style="stroke:#181818;stroke-width:0.5;stroke-dasharray:5.0,5.0;" x1="247.5" x2="247.5" y1="117.2813" y2="381.4688"/><line style="stroke:#181818;stroke-width:0.5;stroke-dasharray:5.0,5.0;" x1="613" x2="613" y1="117.2813" y2="381.4688"/><line style="stroke:#181818;stroke-width:0.5;stroke-dasharray:5.0,5.0;" x1="769" x2="769" y1="117.2813" y2="381.4688"/><line style="stroke:#181818;stroke-width:0.5;stroke-dasharray:5.0,5.0;" x1="913" x2="913" y1="117.2813" y2="381.4688"/><text fill="#000000" font-family="sans-serif" font-size="14" lengthAdjust="spacing" textLength="29" x="5" y="114.3145">User</text><ellipse cx="22.5" cy="50.1406" fill="#E2E2F0" rx="8" ry="8" style="stroke:#181818;stroke-width:0.5;"/><path d="M22.5,58.1406 L22.5,85.1406 M9.5,66.1406 L35.5,66.1406 M22.5,85.1406 L9.5,100.1406 M22.5,85.1406 L35.5,100.1406 " fill="none" style="stroke:#181818;stroke-width:0.5;"/><text fill="#000000" font-family="sans-serif" font-size="14" lengthAdjust="spacing" textLength="29" x="5" y="393.1426">User</text><ellipse cx="22.5" cy="404.6094" fill="#E2E2F0" rx="8" ry="8" style="stroke:#181818;stroke-width:0.5;"/><path d="M22.5,412.6094 L22.5,439.6094 M9.5,420.6094 L35.5,420.6094 M22.5,439.6094 L9.5,454.6094 M22.5,439.6094 L35.5,454.6094 " fill="none" style="stroke:#181818;stroke-width:0.5;"/><rect fill="#E2E2F0" height="60.9219" rx="2.5" ry="2.5" style="stroke:#181818;stroke-width:0.5;" width="142" x="176.5" y="55.3594"/><text fill="#000000" font-family="sans-serif" font-size="14" font-style="italic" lengthAdjust="spacing" textLength="128" x="183.5" y="75.0332">&#171;ShareBoardClient&#187;</text><text fill="#000000" font-family="sans-serif" font-size="14" font-style="italic" lengthAdjust="spacing" textLength="96" x="199.5" y="90.6738">&#171;Presentation&#187;</text><text fill="#000000" font-family="sans-serif" font-size="14" lengthAdjust="spacing" textLength="96" x="199.5" y="106.3145">: ShareBoardUI</text><rect fill="#E2E2F0" height="60.9219" rx="2.5" ry="2.5" style="stroke:#181818;stroke-width:0.5;" width="142" x="176.5" y="380.4688"/><text fill="#000000" font-family="sans-serif" font-size="14" font-style="italic" lengthAdjust="spacing" textLength="128" x="183.5" y="400.1426">&#171;ShareBoardClient&#187;</text><text fill="#000000" font-family="sans-serif" font-size="14" font-style="italic" lengthAdjust="spacing" textLength="96" x="199.5" y="415.7832">&#171;Presentation&#187;</text><text fill="#000000" font-family="sans-serif" font-size="14" lengthAdjust="spacing" textLength="96" x="199.5" y="431.4238">: ShareBoardUI</text><rect fill="#E2E2F0" height="29.6406" rx="2.5" ry="2.5" style="stroke:#181818;stroke-width:0.5;" width="151" x="538" y="86.6406"/><text fill="#000000" font-family="sans-serif" font-size="14" lengthAdjust="spacing" textLength="137" x="545" y="106.3145">: SBPMessageFormat</text><rect fill="#E2E2F0" height="29.6406" rx="2.5" ry="2.5" style="stroke:#181818;stroke-width:0.5;" width="151" x="538" y="380.4688"/><text fill="#000000" font-family="sans-serif" font-size="14" lengthAdjust="spacing" textLength="137" x="545" y="400.1426">: SBPMessageFormat</text><rect fill="#E2E2F0" height="29.6406" rx="2.5" ry="2.5" style="stroke:#181818;stroke-width:0.5;" width="140" x="699" y="86.6406"/><text fill="#000000" font-family="sans-serif" font-size="14" lengthAdjust="spacing" textLength="126" x="706" y="106.3145">: DataOutputStream</text><rect fill="#E2E2F0" height="29.6406" rx="2.5" ry="2.5" style="stroke:#181818;stroke-width:0.5;" width="140" x="699" y="380.4688"/><text fill="#000000" font-family="sans-serif" font-size="14" lengthAdjust="spacing" textLength="126" x="706" y="400.1426">: DataOutputStream</text><rect fill="#E2E2F0" height="29.6406" rx="2.5" ry="2.5" style="stroke:#181818;stroke-width:0.5;" width="128" x="849" y="86.6406"/><text fill="#000000" font-family="sans-serif" font-size="14" lengthAdjust="spacing" textLength="114" x="856" y="106.3145">: DataInputStream</text><rect fill="#E2E2F0" height="29.6406" rx="2.5" ry="2.5" style="stroke:#181818;stroke-width:0.5;" width="128" x="849" y="380.4688"/><text fill="#000000" font-family="sans-serif" font-size="14" lengthAdjust="spacing" textLength="114" x="856" y="400.1426">: DataInputStream</text><rect fill="#FFFFFF" height="245.1875" style="stroke:#181818;stroke-width:1.0;" width="10" x="17.5" y="127.2813"/><rect fill="#FFFFFF" height="201.1406" style="stroke:#181818;stroke-width:1.0;" width="10" x="242.5" y="162.3281"/><rect fill="#FFFFFF" height="28.5234" style="stroke:#181818;stroke-width:1.0;" width="10" x="608.5" y="190.8516"/><rect fill="#FFFFFF" height="30" style="stroke:#181818;stroke-width:1.0;" width="10" x="764" y="247.8984"/><rect fill="#FFFFFF" height="28.5234" style="stroke:#181818;stroke-width:1.0;" width="10" x="908" y="306.4219"/><polygon fill="#181818" points="230.5,158.3281,240.5,162.3281,230.5,166.3281,234.5,162.3281" style="stroke:#181818;stroke-width:1.0;"/><line style="stroke:#181818;stroke-width:1.0;" x1="27.5" x2="236.5" y1="162.3281" y2="162.3281"/><text fill="#000000" font-family="sans-serif" font-size="13" font-weight="bold" lengthAdjust="spacing" textLength="7" x="34.5" y="150.3115">1</text><text fill="#000000" font-family="sans-serif" font-size="13" lengthAdjust="spacing" textLength="181" x="45.5" y="143.0498">chooses board, permission and</text><text fill="#000000" font-family="sans-serif" font-size="13" lengthAdjust="spacing" textLength="95" x="45.5" y="157.5732">participant email</text><polygon fill="#181818" points="596.5,186.8516,606.5,190.8516,596.5,194.8516,600.5,190.8516" style="stroke:#181818;stroke-width:1.0;"/><line style="stroke:#181818;stroke-width:1.0;" x1="252.5" x2="602.5" y1="190.8516" y2="190.8516"/><text fill="#000000" font-family="sans-serif" font-size="13" font-weight="bold" lengthAdjust="spacing" textLength="7" x="259.5" y="186.0967">2</text><text fill="#000000" font-family="sans-serif" font-size="13" lengthAdjust="spacing" textLength="326" x="270.5" y="186.0967">createShareBoardRequest(boardTitle, email, permission)</text><polygon fill="#181818" points="263.5,215.375,253.5,219.375,263.5,223.375,259.5,219.375" style="stroke:#181818;stroke-width:1.0;"/><line style="stroke:#181818;stroke-width:1.0;stroke-dasharray:2.0,2.0;" x1="257.5" x2="612.5" y1="219.375" y2="219.375"/><text fill="#000000" font-family="sans-serif" font-size="13" font-weight="bold" lengthAdjust="spacing" textLength="7" x="269.5" y="214.6201">3</text><text fill="#000000" font-family="sans-serif" font-size="13" lengthAdjust="spacing" textLength="114" x="280.5" y="214.6201">shareBoardRequest</text><polygon fill="#181818" points="752,243.8984,762,247.8984,752,251.8984,756,247.8984" style="stroke:#181818;stroke-width:1.0;"/><line style="stroke:#181818;stroke-width:1.0;" x1="252.5" x2="758" y1="247.8984" y2="247.8984"/><text fill="#000000" font-family="sans-serif" font-size="13" font-weight="bold" lengthAdjust="spacing" textLength="7" x="259.5" y="243.1436">4</text><text fill="#000000" font-family="sans-serif" font-size="13" lengthAdjust="spacing" textLength="173" x="270.5" y="243.1436">writeUTF(shareBoardRequest)</text><polygon fill="#181818" points="896,302.4219,906,306.4219,896,310.4219,900,306.4219" style="stroke:#181818;stroke-width:1.0;"/><line style="stroke:#181818;stroke-width:1.0;" x1="252.5" x2="902" y1="306.4219" y2="306.4219"/><text fill="#000000" font-family="sans-serif" font-size="13" font-weight="bold" lengthAdjust="spacing" textLength="7" x="259.5" y="301.667">5</text><text fill="#000000" font-family="sans-serif" font-size="13" lengthAdjust="spacing" textLength="57" x="270.5" y="301.667">readUTF()</text><polygon fill="#181818" points="263.5,330.9453,253.5,334.9453,263.5,338.9453,259.5,334.9453" style="stroke:#181818;stroke-width:1.0;"/><line style="stroke:#181818;stroke-width:1.0;stroke-dasharray:2.0,2.0;" x1="257.5" x2="912" y1="334.9453" y2="334.9453"/><text fill="#000000" font-family="sans-serif" font-size="13" font-weight="bold" lengthAdjust="spacing" textLength="7" x="269.5" y="330.1904">6</text><text fill="#000000" font-family="sans-serif" font-size="13" lengthAdjust="spacing" textLength="53" x="280.5" y="330.1904">message</text><polygon fill="#181818" points="38.5,359.4688,28.5,363.4688,38.5,367.4688,34.5,363.4688" style="stroke:#181818;stroke-width:1.0;"/><line style="stroke:#181818;stroke-width:1.0;stroke-dasharray:2.0,2.0;" x1="32.5" x2="246.5" y1="363.4688" y2="363.4688"/><text fill="#000000" font-family="sans-serif" font-size="13" font-weight="bold" lengthAdjust="spacing" textLength="7" x="44.5" y="358.7139">7</text><text fill="#000000" font-family="sans-serif" font-size="13" lengthAdjust="spacing" textLength="160" x="55.5" y="358.7139">: informs operation success</text><!--SRC=[RP71Ri8m38RlUGgB4vFO2o3K0qD8EKoWbTvsCQqt8j6aYvtjzUUq83BOfOgjlz__syOamQV-ID68apD1VS98wu2nW-UfwCRgvUp8Yp7OIeWmQvZY390XFumPC8fhtO1UOBOi88sTL1PMgrjtWbMLDlUHMDyeBlYgUW2jzw_4Z9-q3R576M7QtDuBDoYuIp8agIKIzgDmiwl_qrb_9xDr7ijzez0qJ_x0SvLZBw4zXS34SCp95p1Gx1spnWNq7Rpxqe5wTES2Peqn2b5K3frXwYfqsyGRVILYcO_mGxx0OeAKHaytuZXx94dH0zzJhbuwjrhzH2VK7BRp1rt1oolgw4zvOTZCqBHTHfH_wBOk0VhfDDTo2Sv_w9aOWcOVBmgSsbPLfKTZVm40]--></g></svg>