<?xml version="1.0" encoding="us-ascii" standalone="no"?><svg xmlns="http://www.w3.org/2000/svg" xmlns:xlink="http://www.w3.org/1999/xlink" contentStyleType="text/css" height="1238px" preserveAspectRatio="none" style="width:2544px;height:1238px;background:#FFFFFF;" version="1.1" viewBox="0 0 2544 1238" width="2544px" zoomAndPan="magnify"><defs/><g><text fill="#000000" font-family="sans-serif" font-size="14" font-weight="bold" lengthAdjust="spacing" textLength="236" x="1153" y="27.6738">ShareBoard - SharedBoardServer</text><rect fill="#FFFFFF" height="996.2266" style="stroke:#181818;stroke-width:1.0;" width="10" x="49.5" y="130.5625"/><rect fill="#FFFFFF" height="975.7031" style="stroke:#181818;stroke-width:1.0;" width="10" x="302.5" y="151.0859"/><rect fill="#FFFFFF" height="28.5234" style="stroke:#181818;stroke-width:1.0;" width="10" x="452" y="179.6094"/><rect fill="#FFFFFF" height="30" style="stroke:#181818;stroke-width:1.0;" width="10" x="596" y="1096.7891"/><rect fill="#FFFFFF" height="28.5234" style="stroke:#181818;stroke-width:1.0;" width="10" x="751.5" y="236.6563"/><rect fill="#FFFFFF" height="28.5234" style="stroke:#181818;stroke-width:1.0;" width="10" x="751.5" y="293.7031"/><rect fill="#FFFFFF" height="28.5234" style="stroke:#181818;stroke-width:1.0;" width="10" x="751.5" y="1039.7422"/><rect fill="#FFFFFF" height="660.4688" style="stroke:#181818;stroke-width:1.0;" width="10" x="909" y="350.75"/><rect fill="#FFFFFF" height="603.4219" style="stroke:#181818;stroke-width:1.0;" width="10" x="1189" y="379.2734"/><rect fill="#FFFFFF" height="28.5234" style="stroke:#181818;stroke-width:1.0;" width="10" x="1455" y="694.5078"/><rect fill="#FFFFFF" height="30" style="stroke:#181818;stroke-width:1.0;" width="10" x="1591.5" y="464.8438"/><rect fill="#FFFFFF" height="28.5234" style="stroke:#181818;stroke-width:1.0;" width="10" x="1591.5" y="580.4141"/><rect fill="#FFFFFF" height="28.5234" style="stroke:#181818;stroke-width:1.0;" width="10" x="1745" y="407.7969"/><rect fill="#FFFFFF" height="28.5234" style="stroke:#181818;stroke-width:1.0;" width="10" x="1904.5" y="523.3672"/><rect fill="#FFFFFF" height="30" style="stroke:#181818;stroke-width:1.0;" width="10" x="1904.5" y="751.5547"/><rect fill="#FFFFFF" height="28.5234" style="stroke:#181818;stroke-width:1.0;" width="10" x="2067.5" y="637.4609"/><rect fill="#FFFFFF" height="30" style="stroke:#181818;stroke-width:1.0;" width="10" x="2067.5" y="810.0781"/><rect fill="#FFFFFF" height="28.5234" style="stroke:#181818;stroke-width:1.0;" width="10" x="2218.5" y="868.6016"/><rect fill="#FFFFFF" height="28.5234" style="stroke:#181818;stroke-width:1.0;" width="10" x="2421.5" y="925.6484"/><line style="stroke:#181818;stroke-width:0.5;stroke-dasharray:5.0,5.0;" x1="54" x2="54" y1="120.5625" y2="1144.7891"/><line style="stroke:#181818;stroke-width:0.5;stroke-dasharray:5.0,5.0;" x1="307" x2="307" y1="120.5625" y2="1144.7891"/><line style="stroke:#181818;stroke-width:0.5;stroke-dasharray:5.0,5.0;" x1="457" x2="457" y1="120.5625" y2="1144.7891"/><line style="stroke:#181818;stroke-width:0.5;stroke-dasharray:5.0,5.0;" x1="601" x2="601" y1="120.5625" y2="1144.7891"/><line style="stroke:#181818;stroke-width:0.5;stroke-dasharray:5.0,5.0;" x1="756" x2="756" y1="120.5625" y2="1144.7891"/><line style="stroke:#181818;stroke-width:0.5;stroke-dasharray:5.0,5.0;" x1="914" x2="914" y1="120.5625" y2="1144.7891"/><line style="stroke:#181818;stroke-width:0.5;stroke-dasharray:5.0,5.0;" x1="1193.5" x2="1193.5" y1="120.5625" y2="1144.7891"/><line style="stroke:#181818;stroke-width:0.5;stroke-dasharray:5.0,5.0;" x1="1460" x2="1460" y1="120.5625" y2="1144.7891"/><line style="stroke:#181818;stroke-width:0.5;stroke-dasharray:5.0,5.0;" x1="1596" x2="1596" y1="120.5625" y2="1144.7891"/><line style="stroke:#181818;stroke-width:0.5;stroke-dasharray:5.0,5.0;" x1="1750" x2="1750" y1="120.5625" y2="1144.7891"/><line style="stroke:#181818;stroke-width:0.5;stroke-dasharray:5.0,5.0;" x1="1909" x2="1909" y1="120.5625" y2="1144.7891"/><line style="stroke:#181818;stroke-width:0.5;stroke-dasharray:5.0,5.0;" x1="2072" x2="2072" y1="120.5625" y2="1144.7891"/><line style="stroke:#181818;stroke-width:0.5;stroke-dasharray:5.0,5.0;" x1="2223" x2="2223" y1="120.5625" y2="1144.7891"/><line style="stroke:#181818;stroke-width:0.5;stroke-dasharray:5.0,5.0;" x1="2426" x2="2426" y1="120.5625" y2="1144.7891"/><rect fill="#E2E2F0" height="45.2813" rx="2.5" ry="2.5" style="stroke:#181818;stroke-width:0.5;" width="99" x="5" y="74.2813"/><text fill="#000000" font-family="sans-serif" font-size="14" font-style="italic" lengthAdjust="spacing" textLength="30" x="39.5" y="93.9551">&#171;UI&#187;</text><text fill="#000000" font-family="sans-serif" font-size="14" lengthAdjust="spacing" textLength="85" x="12" y="109.5957">: AttendClient</text><rect fill="#E2E2F0" height="45.2813" rx="2.5" ry="2.5" style="stroke:#181818;stroke-width:0.5;" width="99" x="5" y="1143.7891"/><text fill="#000000" font-family="sans-serif" font-size="14" font-style="italic" lengthAdjust="spacing" textLength="30" x="39.5" y="1163.4629">&#171;UI&#187;</text><text fill="#000000" font-family="sans-serif" font-size="14" lengthAdjust="spacing" textLength="85" x="12" y="1179.1035">: AttendClient</text><rect fill="#E2E2F0" height="45.2813" rx="2.5" ry="2.5" style="stroke:#181818;stroke-width:0.5;" width="151" x="232" y="74.2813"/><text fill="#000000" font-family="sans-serif" font-size="14" font-style="italic" lengthAdjust="spacing" textLength="30" x="292.5" y="93.9551">&#171;UI&#187;</text><text fill="#000000" font-family="sans-serif" font-size="14" lengthAdjust="spacing" textLength="137" x="239" y="109.5957">: ShareBoardRequest</text><rect fill="#E2E2F0" height="45.2813" rx="2.5" ry="2.5" style="stroke:#181818;stroke-width:0.5;" width="151" x="232" y="1143.7891"/><text fill="#000000" font-family="sans-serif" font-size="14" font-style="italic" lengthAdjust="spacing" textLength="30" x="292.5" y="1163.4629">&#171;UI&#187;</text><text fill="#000000" font-family="sans-serif" font-size="14" lengthAdjust="spacing" textLength="137" x="239" y="1179.1035">: ShareBoardRequest</text><rect fill="#E2E2F0" height="29.6406" rx="2.5" ry="2.5" style="stroke:#181818;stroke-width:0.5;" width="128" x="393" y="89.9219"/><text fill="#000000" font-family="sans-serif" font-size="14" lengthAdjust="spacing" textLength="114" x="400" y="109.5957">: DataInputStream</text><rect fill="#E2E2F0" height="29.6406" rx="2.5" ry="2.5" style="stroke:#181818;stroke-width:0.5;" width="128" x="393" y="1143.7891"/><text fill="#000000" font-family="sans-serif" font-size="14" lengthAdjust="spacing" textLength="114" x="400" y="1163.4629">: DataInputStream</text><rect fill="#E2E2F0" height="29.6406" rx="2.5" ry="2.5" style="stroke:#181818;stroke-width:0.5;" width="140" x="531" y="89.9219"/><text fill="#000000" font-family="sans-serif" font-size="14" lengthAdjust="spacing" textLength="126" x="538" y="109.5957">: DataOutputStream</text><rect fill="#E2E2F0" height="29.6406" rx="2.5" ry="2.5" style="stroke:#181818;stroke-width:0.5;" width="140" x="531" y="1143.7891"/><text fill="#000000" font-family="sans-serif" font-size="14" lengthAdjust="spacing" textLength="126" x="538" y="1163.4629">: DataOutputStream</text><rect fill="#E2E2F0" height="29.6406" rx="2.5" ry="2.5" style="stroke:#181818;stroke-width:0.5;" width="151" x="681" y="89.9219"/><text fill="#000000" font-family="sans-serif" font-size="14" lengthAdjust="spacing" textLength="137" x="688" y="109.5957">: SBPMessageFormat</text><rect fill="#E2E2F0" height="29.6406" rx="2.5" ry="2.5" style="stroke:#181818;stroke-width:0.5;" width="151" x="681" y="1143.7891"/><text fill="#000000" font-family="sans-serif" font-size="14" lengthAdjust="spacing" textLength="137" x="688" y="1163.4629">: SBPMessageFormat</text><text fill="#000000" font-family="sans-serif" font-size="14" font-style="italic" lengthAdjust="spacing" textLength="133" x="844.5" y="86.3145">&#171;ShareBoardServer&#187;</text><text fill="#000000" font-family="sans-serif" font-size="14" font-style="italic" lengthAdjust="spacing" textLength="85" x="868.5" y="101.9551">&#171;Application&#187;</text><text fill="#000000" font-family="sans-serif" font-size="14" lengthAdjust="spacing" textLength="138" x="842" y="117.5957">ShareBoardController</text><ellipse cx="914" cy="57.6406" fill="#E2E2F0" rx="12" ry="12" style="stroke:#181818;stroke-width:0.5;"/><polygon fill="#181818" points="910,45.6406,916,40.6406,914,45.6406,916,50.6406,910,45.6406" style="stroke:#181818;stroke-width:1.0;"/><text fill="#000000" font-family="sans-serif" font-size="14" font-style="italic" lengthAdjust="spacing" textLength="133" x="844.5" y="1156.4629">&#171;ShareBoardServer&#187;</text><text fill="#000000" font-family="sans-serif" font-size="14" font-style="italic" lengthAdjust="spacing" textLength="85" x="868.5" y="1172.1035">&#171;Application&#187;</text><text fill="#000000" font-family="sans-serif" font-size="14" lengthAdjust="spacing" textLength="138" x="842" y="1187.7441">ShareBoardController</text><ellipse cx="914" cy="1206.7109" fill="#E2E2F0" rx="12" ry="12" style="stroke:#181818;stroke-width:0.5;"/><polygon fill="#181818" points="910,1194.7109,916,1189.7109,914,1194.7109,916,1199.7109,910,1194.7109" style="stroke:#181818;stroke-width:1.0;"/><rect fill="#E2E2F0" height="45.2813" rx="2.5" ry="2.5" style="stroke:#181818;stroke-width:0.5;" width="145" x="1121.5" y="74.2813"/><text fill="#000000" font-family="sans-serif" font-size="14" font-style="italic" lengthAdjust="spacing" textLength="62" x="1163" y="93.9551">&#171;Service&#187;</text><text fill="#000000" font-family="sans-serif" font-size="14" lengthAdjust="spacing" textLength="131" x="1128.5" y="109.5957">: ShareBoardService</text><rect fill="#E2E2F0" height="45.2813" rx="2.5" ry="2.5" style="stroke:#181818;stroke-width:0.5;" width="145" x="1121.5" y="1143.7891"/><text fill="#000000" font-family="sans-serif" font-size="14" font-style="italic" lengthAdjust="spacing" textLength="62" x="1163" y="1163.4629">&#171;Service&#187;</text><text fill="#000000" font-family="sans-serif" font-size="14" lengthAdjust="spacing" textLength="131" x="1128.5" y="1179.1035">: ShareBoardService</text><rect fill="#E2E2F0" height="45.2813" rx="2.5" ry="2.5" style="stroke:#181818;stroke-width:0.5;" width="78" x="1421" y="74.2813"/><text fill="#000000" font-family="sans-serif" font-size="14" font-style="italic" lengthAdjust="spacing" textLength="64" x="1428" y="93.9551">&#171;Domain&#187;</text><text fill="#000000" font-family="sans-serif" font-size="14" lengthAdjust="spacing" textLength="53" x="1433.5" y="109.5957">: Person</text><rect fill="#E2E2F0" height="45.2813" rx="2.5" ry="2.5" style="stroke:#181818;stroke-width:0.5;" width="78" x="1421" y="1143.7891"/><text fill="#000000" font-family="sans-serif" font-size="14" font-style="italic" lengthAdjust="spacing" textLength="64" x="1428" y="1163.4629">&#171;Domain&#187;</text><text fill="#000000" font-family="sans-serif" font-size="14" lengthAdjust="spacing" textLength="53" x="1433.5" y="1179.1035">: Person</text><rect fill="#E2E2F0" height="45.2813" rx="2.5" ry="2.5" style="stroke:#181818;stroke-width:0.5;" width="175" x="1509" y="74.2813"/><text fill="#000000" font-family="sans-serif" font-size="14" font-style="italic" lengthAdjust="spacing" textLength="64" x="1564.5" y="93.9551">&#171;Factory&#187;</text><text fill="#000000" font-family="sans-serif" font-size="14" lengthAdjust="spacing" textLength="161" x="1516" y="109.5957">: BoardParticipantFactory</text><rect fill="#E2E2F0" height="45.2813" rx="2.5" ry="2.5" style="stroke:#181818;stroke-width:0.5;" width="175" x="1509" y="1143.7891"/><text fill="#000000" font-family="sans-serif" font-size="14" font-style="italic" lengthAdjust="spacing" textLength="64" x="1564.5" y="1163.4629">&#171;Factory&#187;</text><text fill="#000000" font-family="sans-serif" font-size="14" lengthAdjust="spacing" textLength="161" x="1516" y="1179.1035">: BoardParticipantFactory</text><text fill="#000000" font-family="sans-serif" font-size="14" font-style="italic" lengthAdjust="spacing" textLength="84" x="1705" y="101.9551">&#171;Repository&#187;</text><text fill="#000000" font-family="sans-serif" font-size="14" lengthAdjust="spacing" textLength="106" x="1694" y="117.5957">BoardRepository</text><path d="M1732,53.2813 C1732,43.2813 1750,43.2813 1750,43.2813 C1750,43.2813 1768,43.2813 1768,53.2813 L1768,79.2813 C1768,89.2813 1750,89.2813 1750,89.2813 C1750,89.2813 1732,89.2813 1732,79.2813 L1732,53.2813 " fill="#E2E2F0" style="stroke:#181818;stroke-width:1.5;"/><path d="M1732,53.2813 C1732,63.2813 1750,63.2813 1750,63.2813 C1750,63.2813 1768,63.2813 1768,53.2813 " fill="none" style="stroke:#181818;stroke-width:1.5;"/><text fill="#000000" font-family="sans-serif" font-size="14" font-style="italic" lengthAdjust="spacing" textLength="84" x="1705" y="1156.4629">&#171;Repository&#187;</text><text fill="#000000" font-family="sans-serif" font-size="14" lengthAdjust="spacing" textLength="106" x="1694" y="1172.1035">BoardRepository</text><path d="M1732,1185.0703 C1732,1175.0703 1750,1175.0703 1750,1175.0703 C1750,1175.0703 1768,1175.0703 1768,1185.0703 L1768,1211.0703 C1768,1221.0703 1750,1221.0703 1750,1221.0703 C1750,1221.0703 1732,1221.0703 1732,1211.0703 L1732,1185.0703 " fill="#E2E2F0" style="stroke:#181818;stroke-width:1.5;"/><path d="M1732,1185.0703 C1732,1195.0703 1750,1195.0703 1750,1195.0703 C1750,1195.0703 1768,1195.0703 1768,1185.0703 " fill="none" style="stroke:#181818;stroke-width:1.5;"/><text fill="#000000" font-family="sans-serif" font-size="14" font-style="italic" lengthAdjust="spacing" textLength="84" x="1864.5" y="101.9551">&#171;Repository&#187;</text><text fill="#000000" font-family="sans-serif" font-size="14" lengthAdjust="spacing" textLength="181" x="1816" y="117.5957">: BoardParticipantRepository</text><path d="M1891.5,53.2813 C1891.5,43.2813 1909.5,43.2813 1909.5,43.2813 C1909.5,43.2813 1927.5,43.2813 1927.5,53.2813 L1927.5,79.2813 C1927.5,89.2813 1909.5,89.2813 1909.5,89.2813 C1909.5,89.2813 1891.5,89.2813 1891.5,79.2813 L1891.5,53.2813 " fill="#E2E2F0" style="stroke:#181818;stroke-width:1.5;"/><path d="M1891.5,53.2813 C1891.5,63.2813 1909.5,63.2813 1909.5,63.2813 C1909.5,63.2813 1927.5,63.2813 1927.5,53.2813 " fill="none" style="stroke:#181818;stroke-width:1.5;"/><text fill="#000000" font-family="sans-serif" font-size="14" font-style="italic" lengthAdjust="spacing" textLength="84" x="1864.5" y="1156.4629">&#171;Repository&#187;</text><text fill="#000000" font-family="sans-serif" font-size="14" lengthAdjust="spacing" textLength="181" x="1816" y="1172.1035">: BoardParticipantRepository</text><path d="M1891.5,1185.0703 C1891.5,1175.0703 1909.5,1175.0703 1909.5,1175.0703 C1909.5,1175.0703 1927.5,1175.0703 1927.5,1185.0703 L1927.5,1211.0703 C1927.5,1221.0703 1909.5,1221.0703 1909.5,1221.0703 C1909.5,1221.0703 1891.5,1221.0703 1891.5,1211.0703 L1891.5,1185.0703 " fill="#E2E2F0" style="stroke:#181818;stroke-width:1.5;"/><path d="M1891.5,1185.0703 C1891.5,1195.0703 1909.5,1195.0703 1909.5,1195.0703 C1909.5,1195.0703 1927.5,1195.0703 1927.5,1185.0703 " fill="none" style="stroke:#181818;stroke-width:1.5;"/><text fill="#000000" font-family="sans-serif" font-size="14" font-style="italic" lengthAdjust="spacing" textLength="84" x="2027.5" y="101.9551">&#171;Repository&#187;</text><text fill="#000000" font-family="sans-serif" font-size="14" lengthAdjust="spacing" textLength="113" x="2013" y="117.5957">PersonRepository</text><path d="M2054.5,53.2813 C2054.5,43.2813 2072.5,43.2813 2072.5,43.2813 C2072.5,43.2813 2090.5,43.2813 2090.5,53.2813 L2090.5,79.2813 C2090.5,89.2813 2072.5,89.2813 2072.5,89.2813 C2072.5,89.2813 2054.5,89.2813 2054.5,79.2813 L2054.5,53.2813 " fill="#E2E2F0" style="stroke:#181818;stroke-width:1.5;"/><path d="M2054.5,53.2813 C2054.5,63.2813 2072.5,63.2813 2072.5,63.2813 C2072.5,63.2813 2090.5,63.2813 2090.5,53.2813 " fill="none" style="stroke:#181818;stroke-width:1.5;"/><text fill="#000000" font-family="sans-serif" font-size="14" font-style="italic" lengthAdjust="spacing" textLength="84" x="2027.5" y="1156.4629">&#171;Repository&#187;</text><text fill="#000000" font-family="sans-serif" font-size="14" lengthAdjust="spacing" textLength="113" x="2013" y="1172.1035">PersonRepository</text><path d="M2054.5,1185.0703 C2054.5,1175.0703 2072.5,1175.0703 2072.5,1175.0703 C2072.5,1175.0703 2090.5,1175.0703 2090.5,1185.0703 L2090.5,1211.0703 C2090.5,1221.0703 2072.5,1221.0703 2072.5,1221.0703 C2072.5,1221.0703 2054.5,1221.0703 2054.5,1211.0703 L2054.5,1185.0703 " fill="#E2E2F0" style="stroke:#181818;stroke-width:1.5;"/><path d="M2054.5,1185.0703 C2054.5,1195.0703 2072.5,1195.0703 2072.5,1195.0703 C2072.5,1195.0703 2090.5,1195.0703 2090.5,1185.0703 " fill="none" style="stroke:#181818;stroke-width:1.5;"/><rect fill="#E2E2F0" height="45.2813" rx="2.5" ry="2.5" style="stroke:#181818;stroke-width:0.5;" width="163" x="2142" y="74.2813"/><text fill="#000000" font-family="sans-serif" font-size="14" font-style="italic" lengthAdjust="spacing" textLength="62" x="2192.5" y="93.9551">&#171;Service&#187;</text><text fill="#000000" font-family="sans-serif" font-size="14" lengthAdjust="spacing" textLength="149" x="2149" y="109.5957">: AddNotificationService</text><rect fill="#E2E2F0" height="45.2813" rx="2.5" ry="2.5" style="stroke:#181818;stroke-width:0.5;" width="163" x="2142" y="1143.7891"/><text fill="#000000" font-family="sans-serif" font-size="14" font-style="italic" lengthAdjust="spacing" textLength="62" x="2192.5" y="1163.4629">&#171;Service&#187;</text><text fill="#000000" font-family="sans-serif" font-size="14" lengthAdjust="spacing" textLength="149" x="2149" y="1179.1035">: AddNotificationService</text><rect fill="#E2E2F0" height="45.2813" rx="2.5" ry="2.5" style="stroke:#181818;stroke-width:0.5;" width="223" x="2315" y="74.2813"/><text fill="#000000" font-family="sans-serif" font-size="14" font-style="italic" lengthAdjust="spacing" textLength="62" x="2395.5" y="93.9551">&#171;Service&#187;</text><text fill="#000000" font-family="sans-serif" font-size="14" lengthAdjust="spacing" textLength="209" x="2322" y="109.5957">: AddTaskToBoardHistoryService</text><rect fill="#E2E2F0" height="45.2813" rx="2.5" ry="2.5" style="stroke:#181818;stroke-width:0.5;" width="223" x="2315" y="1143.7891"/><text fill="#000000" font-family="sans-serif" font-size="14" font-style="italic" lengthAdjust="spacing" textLength="62" x="2395.5" y="1163.4629">&#171;Service&#187;</text><text fill="#000000" font-family="sans-serif" font-size="14" lengthAdjust="spacing" textLength="209" x="2322" y="1179.1035">: AddTaskToBoardHistoryService</text><rect fill="#FFFFFF" height="996.2266" style="stroke:#181818;stroke-width:1.0;" width="10" x="49.5" y="130.5625"/><rect fill="#FFFFFF" height="975.7031" style="stroke:#181818;stroke-width:1.0;" width="10" x="302.5" y="151.0859"/><rect fill="#FFFFFF" height="28.5234" style="stroke:#181818;stroke-width:1.0;" width="10" x="452" y="179.6094"/><rect fill="#FFFFFF" height="30" style="stroke:#181818;stroke-width:1.0;" width="10" x="596" y="1096.7891"/><rect fill="#FFFFFF" height="28.5234" style="stroke:#181818;stroke-width:1.0;" width="10" x="751.5" y="236.6563"/><rect fill="#FFFFFF" height="28.5234" style="stroke:#181818;stroke-width:1.0;" width="10" x="751.5" y="293.7031"/><rect fill="#FFFFFF" height="28.5234" style="stroke:#181818;stroke-width:1.0;" width="10" x="751.5" y="1039.7422"/><rect fill="#FFFFFF" height="660.4688" style="stroke:#181818;stroke-width:1.0;" width="10" x="909" y="350.75"/><rect fill="#FFFFFF" height="603.4219" style="stroke:#181818;stroke-width:1.0;" width="10" x="1189" y="379.2734"/><rect fill="#FFFFFF" height="28.5234" style="stroke:#181818;stroke-width:1.0;" width="10" x="1455" y="694.5078"/><rect fill="#FFFFFF" height="30" style="stroke:#181818;stroke-width:1.0;" width="10" x="1591.5" y="464.8438"/><rect fill="#FFFFFF" height="28.5234" style="stroke:#181818;stroke-width:1.0;" width="10" x="1591.5" y="580.4141"/><rect fill="#FFFFFF" height="28.5234" style="stroke:#181818;stroke-width:1.0;" width="10" x="1745" y="407.7969"/><rect fill="#FFFFFF" height="28.5234" style="stroke:#181818;stroke-width:1.0;" width="10" x="1904.5" y="523.3672"/><rect fill="#FFFFFF" height="30" style="stroke:#181818;stroke-width:1.0;" width="10" x="1904.5" y="751.5547"/><rect fill="#FFFFFF" height="28.5234" style="stroke:#181818;stroke-width:1.0;" width="10" x="2067.5" y="637.4609"/><rect fill="#FFFFFF" height="30" style="stroke:#181818;stroke-width:1.0;" width="10" x="2067.5" y="810.0781"/><rect fill="#FFFFFF" height="28.5234" style="stroke:#181818;stroke-width:1.0;" width="10" x="2218.5" y="868.6016"/><rect fill="#FFFFFF" height="28.5234" style="stroke:#181818;stroke-width:1.0;" width="10" x="2421.5" y="925.6484"/><polygon fill="#181818" points="290.5,147.0859,300.5,151.0859,290.5,155.0859,294.5,151.0859" style="stroke:#181818;stroke-width:1.0;"/><line style="stroke:#181818;stroke-width:1.0;" x1="59.5" x2="296.5" y1="151.0859" y2="151.0859"/><text fill="#000000" font-family="sans-serif" font-size="13" font-weight="bold" lengthAdjust="spacing" textLength="7" x="66.5" y="146.3311">1</text><text fill="#000000" font-family="sans-serif" font-size="13" lengthAdjust="spacing" textLength="213" x="77.5" y="146.3311">shareBoard(message, outputStream)</text><polygon fill="#181818" points="440,175.6094,450,179.6094,440,183.6094,444,179.6094" style="stroke:#181818;stroke-width:1.0;"/><line style="stroke:#181818;stroke-width:1.0;" x1="312.5" x2="446" y1="179.6094" y2="179.6094"/><text fill="#000000" font-family="sans-serif" font-size="13" font-weight="bold" lengthAdjust="spacing" textLength="7" x="319.5" y="174.8545">2</text><text fill="#000000" font-family="sans-serif" font-size="13" lengthAdjust="spacing" textLength="57" x="330.5" y="174.8545">readUTF()</text><polygon fill="#181818" points="323.5,204.1328,313.5,208.1328,323.5,212.1328,319.5,208.1328" style="stroke:#181818;stroke-width:1.0;"/><line style="stroke:#181818;stroke-width:1.0;stroke-dasharray:2.0,2.0;" x1="317.5" x2="456" y1="208.1328" y2="208.1328"/><text fill="#000000" font-family="sans-serif" font-size="13" font-weight="bold" lengthAdjust="spacing" textLength="7" x="329.5" y="203.3779">3</text><text fill="#000000" font-family="sans-serif" font-size="13" lengthAdjust="spacing" textLength="53" x="340.5" y="203.3779">message</text><polygon fill="#181818" points="739.5,232.6563,749.5,236.6563,739.5,240.6563,743.5,236.6563" style="stroke:#181818;stroke-width:1.0;"/><line style="stroke:#181818;stroke-width:1.0;" x1="312.5" x2="745.5" y1="236.6563" y2="236.6563"/><text fill="#000000" font-family="sans-serif" font-size="13" font-weight="bold" lengthAdjust="spacing" textLength="7" x="319.5" y="231.9014">4</text><text fill="#000000" font-family="sans-serif" font-size="13" lengthAdjust="spacing" textLength="144" x="330.5" y="231.9014">decodeFormat(message)</text><polygon fill="#181818" points="323.5,261.1797,313.5,265.1797,323.5,269.1797,319.5,265.1797" style="stroke:#181818;stroke-width:1.0;"/><line style="stroke:#181818;stroke-width:1.0;stroke-dasharray:2.0,2.0;" x1="317.5" x2="755.5" y1="265.1797" y2="265.1797"/><text fill="#000000" font-family="sans-serif" font-size="13" font-weight="bold" lengthAdjust="spacing" textLength="7" x="329.5" y="260.4248">5</text><text fill="#000000" font-family="sans-serif" font-size="13" lengthAdjust="spacing" textLength="70" x="340.5" y="260.4248">arrayFormat</text><polygon fill="#181818" points="739.5,289.7031,749.5,293.7031,739.5,297.7031,743.5,293.7031" style="stroke:#181818;stroke-width:1.0;"/><line style="stroke:#181818;stroke-width:1.0;" x1="312.5" x2="745.5" y1="293.7031" y2="293.7031"/><text fill="#000000" font-family="sans-serif" font-size="13" font-weight="bold" lengthAdjust="spacing" textLength="7" x="319.5" y="288.9482">6</text><text fill="#000000" font-family="sans-serif" font-size="13" lengthAdjust="spacing" textLength="148" x="330.5" y="288.9482">decodeParams(message)</text><polygon fill="#181818" points="323.5,318.2266,313.5,322.2266,323.5,326.2266,319.5,322.2266" style="stroke:#181818;stroke-width:1.0;"/><line style="stroke:#181818;stroke-width:1.0;stroke-dasharray:2.0,2.0;" x1="317.5" x2="755.5" y1="322.2266" y2="322.2266"/><text fill="#000000" font-family="sans-serif" font-size="13" font-weight="bold" lengthAdjust="spacing" textLength="7" x="329.5" y="317.4717">7</text><text fill="#000000" font-family="sans-serif" font-size="13" lengthAdjust="spacing" textLength="43" x="340.5" y="317.4717">params</text><polygon fill="#181818" points="897,346.75,907,350.75,897,354.75,901,350.75" style="stroke:#181818;stroke-width:1.0;"/><line style="stroke:#181818;stroke-width:1.0;" x1="312.5" x2="903" y1="350.75" y2="350.75"/><text fill="#000000" font-family="sans-serif" font-size="13" font-weight="bold" lengthAdjust="spacing" textLength="7" x="319.5" y="345.9951">8</text><text fill="#000000" font-family="sans-serif" font-size="13" lengthAdjust="spacing" textLength="240" x="330.5" y="345.9951">shareBoard(boardTitle, email, permission)</text><polygon fill="#181818" points="1177,375.2734,1187,379.2734,1177,383.2734,1181,379.2734" style="stroke:#181818;stroke-width:1.0;"/><line style="stroke:#181818;stroke-width:1.0;" x1="919" x2="1183" y1="379.2734" y2="379.2734"/><text fill="#000000" font-family="sans-serif" font-size="13" font-weight="bold" lengthAdjust="spacing" textLength="7" x="926" y="374.5186">9</text><text fill="#000000" font-family="sans-serif" font-size="13" lengthAdjust="spacing" textLength="240" x="937" y="374.5186">shareBoard(boardTitle, email, permission)</text><polygon fill="#181818" points="1733,403.7969,1743,407.7969,1733,411.7969,1737,407.7969" style="stroke:#181818;stroke-width:1.0;"/><line style="stroke:#181818;stroke-width:1.0;" x1="1199" x2="1739" y1="407.7969" y2="407.7969"/><text fill="#000000" font-family="sans-serif" font-size="13" font-weight="bold" lengthAdjust="spacing" textLength="14" x="1206" y="403.042">10</text><text fill="#000000" font-family="sans-serif" font-size="13" lengthAdjust="spacing" textLength="158" x="1224" y="403.042">findBoardByTitle(boardTitle)</text><polygon fill="#181818" points="1210,432.3203,1200,436.3203,1210,440.3203,1206,436.3203" style="stroke:#181818;stroke-width:1.0;"/><line style="stroke:#181818;stroke-width:1.0;stroke-dasharray:2.0,2.0;" x1="1204" x2="1749" y1="436.3203" y2="436.3203"/><text fill="#000000" font-family="sans-serif" font-size="13" font-weight="bold" lengthAdjust="spacing" textLength="14" x="1216" y="431.5654">11</text><text fill="#000000" font-family="sans-serif" font-size="13" lengthAdjust="spacing" textLength="32" x="1234" y="431.5654">board</text><polygon fill="#181818" points="1579.5,460.8438,1589.5,464.8438,1579.5,468.8438,1583.5,464.8438" style="stroke:#181818;stroke-width:1.0;"/><line style="stroke:#181818;stroke-width:1.0;" x1="1199" x2="1585.5" y1="464.8438" y2="464.8438"/><text fill="#000000" font-family="sans-serif" font-size="13" font-weight="bold" lengthAdjust="spacing" textLength="14" x="1206" y="460.0889">12</text><text fill="#000000" font-family="sans-serif" font-size="13" lengthAdjust="spacing" textLength="44" x="1224" y="460.0889">create()</text><polygon fill="#181818" points="1892.5,519.3672,1902.5,523.3672,1892.5,527.3672,1896.5,523.3672" style="stroke:#181818;stroke-width:1.0;"/><line style="stroke:#181818;stroke-width:1.0;" x1="1199" x2="1898.5" y1="523.3672" y2="523.3672"/><text fill="#000000" font-family="sans-serif" font-size="13" font-weight="bold" lengthAdjust="spacing" textLength="14" x="1206" y="518.6123">13</text><text fill="#000000" font-family="sans-serif" font-size="13" lengthAdjust="spacing" textLength="63" x="1224" y="518.6123">findMaxId()</text><polygon fill="#181818" points="1210,547.8906,1200,551.8906,1210,555.8906,1206,551.8906" style="stroke:#181818;stroke-width:1.0;"/><line style="stroke:#181818;stroke-width:1.0;stroke-dasharray:2.0,2.0;" x1="1204" x2="1908.5" y1="551.8906" y2="551.8906"/><text fill="#000000" font-family="sans-serif" font-size="13" font-weight="bold" lengthAdjust="spacing" textLength="14" x="1216" y="547.1357">14</text><text fill="#000000" font-family="sans-serif" font-size="13" lengthAdjust="spacing" textLength="35" x="1234" y="547.1357">maxId</text><polygon fill="#181818" points="1579.5,576.4141,1589.5,580.4141,1579.5,584.4141,1583.5,580.4141" style="stroke:#181818;stroke-width:1.0;"/><line style="stroke:#181818;stroke-width:1.0;" x1="1199" x2="1585.5" y1="580.4141" y2="580.4141"/><text fill="#000000" font-family="sans-serif" font-size="13" font-weight="bold" lengthAdjust="spacing" textLength="14" x="1206" y="575.6592">15</text><text fill="#000000" font-family="sans-serif" font-size="13" lengthAdjust="spacing" textLength="252" x="1224" y="575.6592">buildBoardParticipant(id, permission, board)</text><polygon fill="#181818" points="1210,604.9375,1200,608.9375,1210,612.9375,1206,608.9375" style="stroke:#181818;stroke-width:1.0;"/><line style="stroke:#181818;stroke-width:1.0;stroke-dasharray:2.0,2.0;" x1="1204" x2="1595.5" y1="608.9375" y2="608.9375"/><text fill="#000000" font-family="sans-serif" font-size="13" font-weight="bold" lengthAdjust="spacing" textLength="14" x="1216" y="604.1826">16</text><text fill="#000000" font-family="sans-serif" font-size="13" lengthAdjust="spacing" textLength="94" x="1234" y="604.1826">boardParticipant</text><polygon fill="#181818" points="2055.5,633.4609,2065.5,637.4609,2055.5,641.4609,2059.5,637.4609" style="stroke:#181818;stroke-width:1.0;"/><line style="stroke:#181818;stroke-width:1.0;" x1="1199" x2="2061.5" y1="637.4609" y2="637.4609"/><text fill="#000000" font-family="sans-serif" font-size="13" font-weight="bold" lengthAdjust="spacing" textLength="14" x="1206" y="632.7061">17</text><text fill="#000000" font-family="sans-serif" font-size="13" lengthAdjust="spacing" textLength="149" x="1224" y="632.7061">findPersonByEmail(email)</text><polygon fill="#181818" points="1210,661.9844,1200,665.9844,1210,669.9844,1206,665.9844" style="stroke:#181818;stroke-width:1.0;"/><line style="stroke:#181818;stroke-width:1.0;stroke-dasharray:2.0,2.0;" x1="1204" x2="2071.5" y1="665.9844" y2="665.9844"/><text fill="#000000" font-family="sans-serif" font-size="13" font-weight="bold" lengthAdjust="spacing" textLength="14" x="1216" y="661.2295">18</text><text fill="#000000" font-family="sans-serif" font-size="13" lengthAdjust="spacing" textLength="39" x="1234" y="661.2295">person</text><polygon fill="#181818" points="1443,690.5078,1453,694.5078,1443,698.5078,1447,694.5078" style="stroke:#181818;stroke-width:1.0;"/><line style="stroke:#181818;stroke-width:1.0;" x1="1199" x2="1449" y1="694.5078" y2="694.5078"/><text fill="#000000" font-family="sans-serif" font-size="13" font-weight="bold" lengthAdjust="spacing" textLength="14" x="1206" y="689.7529">19</text><text fill="#000000" font-family="sans-serif" font-size="13" lengthAdjust="spacing" textLength="219" x="1224" y="689.7529">addBoardParticipant(boardParticipant)</text><polygon fill="#181818" points="1210,719.0313,1200,723.0313,1210,727.0313,1206,723.0313" style="stroke:#181818;stroke-width:1.0;"/><line style="stroke:#181818;stroke-width:1.0;stroke-dasharray:2.0,2.0;" x1="1204" x2="1459" y1="723.0313" y2="723.0313"/><text fill="#000000" font-family="sans-serif" font-size="13" font-weight="bold" lengthAdjust="spacing" textLength="14" x="1216" y="718.2764">20</text><text fill="#000000" font-family="sans-serif" font-size="13" lengthAdjust="spacing" textLength="22" x="1234" y="718.2764">true</text><polygon fill="#181818" points="1892.5,747.5547,1902.5,751.5547,1892.5,755.5547,1896.5,751.5547" style="stroke:#181818;stroke-width:1.0;"/><line style="stroke:#181818;stroke-width:1.0;" x1="1199" x2="1898.5" y1="751.5547" y2="751.5547"/><text fill="#000000" font-family="sans-serif" font-size="13" font-weight="bold" lengthAdjust="spacing" textLength="14" x="1206" y="746.7998">21</text><text fill="#000000" font-family="sans-serif" font-size="13" lengthAdjust="spacing" textLength="128" x="1224" y="746.7998">save(boardParticipant)</text><polygon fill="#181818" points="2055.5,806.0781,2065.5,810.0781,2055.5,814.0781,2059.5,810.0781" style="stroke:#181818;stroke-width:1.0;"/><line style="stroke:#181818;stroke-width:1.0;" x1="1199" x2="2061.5" y1="810.0781" y2="810.0781"/><text fill="#000000" font-family="sans-serif" font-size="13" font-weight="bold" lengthAdjust="spacing" textLength="14" x="1206" y="805.3232">22</text><text fill="#000000" font-family="sans-serif" font-size="13" lengthAdjust="spacing" textLength="73" x="1224" y="805.3232">save(person)</text><polygon fill="#181818" points="2206.5,864.6016,2216.5,868.6016,2206.5,872.6016,2210.5,868.6016" style="stroke:#181818;stroke-width:1.0;"/><line style="stroke:#181818;stroke-width:1.0;" x1="1199" x2="2212.5" y1="868.6016" y2="868.6016"/><text fill="#000000" font-family="sans-serif" font-size="13" font-weight="bold" lengthAdjust="spacing" textLength="14" x="1206" y="863.8467">23</text><text fill="#000000" font-family="sans-serif" font-size="13" lengthAdjust="spacing" textLength="210" x="1224" y="863.8467">addNotification(message, boardTitle)</text><polygon fill="#181818" points="1210,893.125,1200,897.125,1210,901.125,1206,897.125" style="stroke:#181818;stroke-width:1.0;"/><line style="stroke:#181818;stroke-width:1.0;stroke-dasharray:2.0,2.0;" x1="1204" x2="2222.5" y1="897.125" y2="897.125"/><text fill="#000000" font-family="sans-serif" font-size="13" font-weight="bold" lengthAdjust="spacing" textLength="14" x="1216" y="892.3701">24</text><text fill="#000000" font-family="sans-serif" font-size="13" lengthAdjust="spacing" textLength="22" x="1234" y="892.3701">true</text><polygon fill="#181818" points="2409.5,921.6484,2419.5,925.6484,2409.5,929.6484,2413.5,925.6484" style="stroke:#181818;stroke-width:1.0;"/><line style="stroke:#181818;stroke-width:1.0;" x1="1199" x2="2415.5" y1="925.6484" y2="925.6484"/><text fill="#000000" font-family="sans-serif" font-size="13" font-weight="bold" lengthAdjust="spacing" textLength="14" x="1206" y="920.8936">25</text><text fill="#000000" font-family="sans-serif" font-size="13" lengthAdjust="spacing" textLength="338" x="1224" y="920.8936">addShareBoardTaskToHistory(boardTitle, boardParticipant)</text><polygon fill="#181818" points="1210,950.1719,1200,954.1719,1210,958.1719,1206,954.1719" style="stroke:#181818;stroke-width:1.0;"/><line style="stroke:#181818;stroke-width:1.0;stroke-dasharray:2.0,2.0;" x1="1204" x2="2425.5" y1="954.1719" y2="954.1719"/><text fill="#000000" font-family="sans-serif" font-size="13" font-weight="bold" lengthAdjust="spacing" textLength="14" x="1216" y="949.417">26</text><text fill="#000000" font-family="sans-serif" font-size="13" lengthAdjust="spacing" textLength="22" x="1234" y="949.417">true</text><polygon fill="#181818" points="930,978.6953,920,982.6953,930,986.6953,926,982.6953" style="stroke:#181818;stroke-width:1.0;"/><line style="stroke:#181818;stroke-width:1.0;stroke-dasharray:2.0,2.0;" x1="924" x2="1193" y1="982.6953" y2="982.6953"/><text fill="#000000" font-family="sans-serif" font-size="13" font-weight="bold" lengthAdjust="spacing" textLength="14" x="936" y="977.9404">27</text><text fill="#000000" font-family="sans-serif" font-size="13" lengthAdjust="spacing" textLength="22" x="954" y="977.9404">true</text><polygon fill="#181818" points="323.5,1007.2188,313.5,1011.2188,323.5,1015.2188,319.5,1011.2188" style="stroke:#181818;stroke-width:1.0;"/><line style="stroke:#181818;stroke-width:1.0;stroke-dasharray:2.0,2.0;" x1="317.5" x2="913" y1="1011.2188" y2="1011.2188"/><text fill="#000000" font-family="sans-serif" font-size="13" font-weight="bold" lengthAdjust="spacing" textLength="14" x="329.5" y="1006.4639">28</text><text fill="#000000" font-family="sans-serif" font-size="13" lengthAdjust="spacing" textLength="22" x="347.5" y="1006.4639">true</text><polygon fill="#181818" points="739.5,1035.7422,749.5,1039.7422,739.5,1043.7422,743.5,1039.7422" style="stroke:#181818;stroke-width:1.0;"/><line style="stroke:#181818;stroke-width:1.0;" x1="312.5" x2="745.5" y1="1039.7422" y2="1039.7422"/><text fill="#000000" font-family="sans-serif" font-size="13" font-weight="bold" lengthAdjust="spacing" textLength="14" x="319.5" y="1034.9873">29</text><text fill="#000000" font-family="sans-serif" font-size="13" lengthAdjust="spacing" textLength="169" x="337.5" y="1034.9873">createAcknowledgeRequest()</text><polygon fill="#181818" points="323.5,1064.2656,313.5,1068.2656,323.5,1072.2656,319.5,1068.2656" style="stroke:#181818;stroke-width:1.0;"/><line style="stroke:#181818;stroke-width:1.0;stroke-dasharray:2.0,2.0;" x1="317.5" x2="755.5" y1="1068.2656" y2="1068.2656"/><text fill="#000000" font-family="sans-serif" font-size="13" font-weight="bold" lengthAdjust="spacing" textLength="14" x="329.5" y="1063.5107">30</text><text fill="#000000" font-family="sans-serif" font-size="13" lengthAdjust="spacing" textLength="69" x="347.5" y="1063.5107">ackRequest</text><polygon fill="#181818" points="584,1092.7891,594,1096.7891,584,1100.7891,588,1096.7891" style="stroke:#181818;stroke-width:1.0;"/><line style="stroke:#181818;stroke-width:1.0;" x1="312.5" x2="590" y1="1096.7891" y2="1096.7891"/><text fill="#000000" font-family="sans-serif" font-size="13" font-weight="bold" lengthAdjust="spacing" textLength="14" x="319.5" y="1092.0342">31</text><text fill="#000000" font-family="sans-serif" font-size="13" lengthAdjust="spacing" textLength="128" x="337.5" y="1092.0342">writeUTF(ackRequest)</text><!--SRC=[dLNRRgCm57pdAwm-PQNq1wegKcWtQgHjWmBv00UVTgq2PcsJRlv-Zo-0JKWgxGkIxPav5uyFjDEYwUeZo4HpNG79VrC9gQ2IaNktO7QLWpmXA6cfrBpaBMqqkNiWQwsXOKyLXqRV4Qh8OKiU7m_RrMgA78NtyAS3vU1vkh-2VwQQRfksqxcMG6kBVjxcSx1TfoUutGKkJxDNK8f-m4R8clRHizTDKef6Ir6Hkp759xTLWRIufsB_2zCSprqtLYlSNBTjnKkgkMXk5MqOl0GVDZTgRkUIb85Keh78377FegPyHjlAPkFUXfPQoBFbfTa6cNu7gGoxTAGAYB-0LYXkZYpMtC2u5Q9deen07-WwszKH1xk4Jmt5s9lG_DstD6pR-krcsv1PKFLP29lo2rScGCGlYlGbbi06yHFLWBPDqBdtAsl81wA6UrlKpZLB8WAN_HYPI4WC2RbeJ-JYEJiKcqM0CRwLe3lP42_NKwm3aSIW5CnRimyP1J56zH9KIdfsq7aPl2vQg-zaMelg5Qp5eyAFvbkOeR0aW1QibgG5MNEby5u2KSDCBDqcal-V2X8JGqODUmFll7639prRTY0KiB3tlXfxF2XafXabteI6y1vmFs4GBGT67_IL_jsoc3G4gSrP7EJOyOfD7yc2ix3CfSjkaaYOUC3jvOU4t3DAppzDznQsXu7Ic5nhSM5zsNuGGotABlES1W-5UrqjEuZRfEW9Rb5Dnw8sxwEYBDrb6nSocxfvzJRvS2oChtBM5iYPozuF0AisJcOtDFoyYFnweqGdTHbaV4bsBwZ86Dozac7AJ27s9KrUj3Fnklnin5S5x0FyttDnTJgKdnuoZAMTgVbBSWrcBes0S4BX7pF8PB8qCovO7hR_0000]--></g></svg>