<?xml version="1.0" encoding="us-ascii" standalone="no"?><svg xmlns="http://www.w3.org/2000/svg" xmlns:xlink="http://www.w3.org/1999/xlink" contentStyleType="text/css" height="991px" preserveAspectRatio="none" style="width:2416px;height:991px;background:#FFFFFF;" version="1.1" viewBox="0 0 2416 991" width="2416px" zoomAndPan="magnify"><defs/><g><rect fill="#FFFFFF" height="776.2754" style="stroke:#181818;stroke-width:1.0;" width="10" x="25.5" y="98.2422"/><rect fill="#FFFFFF" height="752.9844" style="stroke:#181818;stroke-width:1.0;" width="10" x="348.5" y="121.5332"/><rect fill="#FFFFFF" height="699.4023" style="stroke:#181818;stroke-width:1.0;" width="10" x="633.5" y="184.1152"/><rect fill="#FFFFFF" height="565.2383" style="stroke:#181818;stroke-width:1.0;" width="10" x="918.5" y="246.6973"/><rect fill="#FFFFFF" height="62.582" style="stroke:#181818;stroke-width:1.0;" width="10" x="1118.5" y="277.9883"/><rect fill="#FFFFFF" height="62.582" style="stroke:#181818;stroke-width:1.0;" width="10" x="1261.5" y="371.8613"/><rect fill="#FFFFFF" height="219.0371" style="stroke:#181818;stroke-width:1.0;" width="10" x="1497.5" y="554.6074"/><rect fill="#FFFFFF" height="93.873" style="stroke:#181818;stroke-width:1.0;" width="10" x="1827.5" y="648.4805"/><rect fill="#FFFFFF" height="31.291" style="stroke:#181818;stroke-width:1.0;" width="10" x="2133.5" y="679.7715"/><rect fill="#FFFFFF" height="31.291" style="stroke:#181818;stroke-width:1.0;" width="10" x="2345.5" y="465.7344"/><rect fill="none" height="269.6191" style="stroke:#000000;stroke-width:1.5;" width="1494" x="791.5" y="512.0254"/><line style="stroke:#181818;stroke-width:0.5;stroke-dasharray:5.0,5.0;" x1="30" x2="30" y1="88.2422" y2="892.5176"/><line style="stroke:#181818;stroke-width:0.5;stroke-dasharray:5.0,5.0;" x1="353" x2="353" y1="88.2422" y2="892.5176"/><line style="stroke:#181818;stroke-width:0.5;stroke-dasharray:5.0,5.0;" x1="638" x2="638" y1="88.2422" y2="892.5176"/><line style="stroke:#181818;stroke-width:0.5;stroke-dasharray:5.0,5.0;" x1="923.5" x2="923.5" y1="88.2422" y2="892.5176"/><line style="stroke:#181818;stroke-width:0.5;stroke-dasharray:5.0,5.0;" x1="1123.5" x2="1123.5" y1="88.2422" y2="892.5176"/><line style="stroke:#181818;stroke-width:0.5;stroke-dasharray:5.0,5.0;" x1="1266.5" x2="1266.5" y1="88.2422" y2="892.5176"/><line style="stroke:#181818;stroke-width:0.5;stroke-dasharray:5.0,5.0;" x1="1502.5" x2="1502.5" y1="88.2422" y2="892.5176"/><line style="stroke:#181818;stroke-width:0.5;stroke-dasharray:5.0,5.0;" x1="1832.5" x2="1832.5" y1="88.2422" y2="892.5176"/><line style="stroke:#181818;stroke-width:0.5;stroke-dasharray:5.0,5.0;" x1="2138.5" x2="2138.5" y1="88.2422" y2="892.5176"/><line style="stroke:#181818;stroke-width:0.5;stroke-dasharray:5.0,5.0;" x1="2350.5" x2="2350.5" y1="88.2422" y2="892.5176"/><text fill="#000000" font-family="sans-serif" font-size="14" lengthAdjust="spacing" textLength="45" x="5" y="84.7285">Person</text><ellipse cx="30.5" cy="18.1211" fill="#E2E2F0" rx="8" ry="8" style="stroke:#181818;stroke-width:0.5;"/><path d="M30.5,26.1211 L30.5,53.1211 M17.5,34.1211 L43.5,34.1211 M30.5,53.1211 L17.5,68.1211 M30.5,53.1211 L43.5,68.1211 " fill="none" style="stroke:#181818;stroke-width:0.5;"/><text fill="#000000" font-family="sans-serif" font-size="14" lengthAdjust="spacing" textLength="45" x="5" y="906.625">Person</text><ellipse cx="30.5" cy="918.6387" fill="#E2E2F0" rx="8" ry="8" style="stroke:#181818;stroke-width:0.5;"/><path d="M30.5,926.6387 L30.5,953.6387 M17.5,934.6387 L43.5,934.6387 M30.5,953.6387 L17.5,968.6387 M30.5,953.6387 L43.5,968.6387 " fill="none" style="stroke:#181818;stroke-width:0.5;"/><rect fill="#E2E2F0" height="51.2422" rx="2.5" ry="2.5" style="stroke:#181818;stroke-width:0.5;" width="209" x="249" y="36"/><text fill="#000000" font-family="sans-serif" font-size="14" font-style="italic" lengthAdjust="spacing" textLength="96" x="305.5" y="58.1074">&#171;Presentation&#187;</text><text fill="#000000" font-family="sans-serif" font-size="14" lengthAdjust="spacing" textLength="195" x="256" y="76.7285">ListAllInvitationsFromMeetingUI</text><rect fill="#E2E2F0" height="51.2422" rx="2.5" ry="2.5" style="stroke:#181818;stroke-width:0.5;" width="209" x="249" y="891.5176"/><text fill="#000000" font-family="sans-serif" font-size="14" font-style="italic" lengthAdjust="spacing" textLength="96" x="305.5" y="913.625">&#171;Presentation&#187;</text><text fill="#000000" font-family="sans-serif" font-size="14" lengthAdjust="spacing" textLength="195" x="256" y="932.2461">ListAllInvitationsFromMeetingUI</text><rect fill="#E2E2F0" height="51.2422" rx="2.5" ry="2.5" style="stroke:#181818;stroke-width:0.5;" width="259" x="509" y="36"/><text fill="#000000" font-family="sans-serif" font-size="14" font-style="italic" lengthAdjust="spacing" textLength="85" x="596" y="58.1074">&#171;Application&#187;</text><text fill="#000000" font-family="sans-serif" font-size="14" lengthAdjust="spacing" textLength="245" x="516" y="76.7285">ListAllInvitationsFromMeetingController</text><rect fill="#E2E2F0" height="51.2422" rx="2.5" ry="2.5" style="stroke:#181818;stroke-width:0.5;" width="259" x="509" y="891.5176"/><text fill="#000000" font-family="sans-serif" font-size="14" font-style="italic" lengthAdjust="spacing" textLength="85" x="596" y="913.625">&#171;Application&#187;</text><text fill="#000000" font-family="sans-serif" font-size="14" lengthAdjust="spacing" textLength="245" x="516" y="932.2461">ListAllInvitationsFromMeetingController</text><rect fill="#E2E2F0" height="51.2422" rx="2.5" ry="2.5" style="stroke:#181818;stroke-width:0.5;" width="244" x="801.5" y="36"/><text fill="#000000" font-family="sans-serif" font-size="14" font-style="italic" lengthAdjust="spacing" textLength="62" x="892.5" y="58.1074">&#171;Service&#187;</text><text fill="#000000" font-family="sans-serif" font-size="14" lengthAdjust="spacing" textLength="230" x="808.5" y="76.7285">ListAllInvitationsFromMeetingService</text><rect fill="#E2E2F0" height="51.2422" rx="2.5" ry="2.5" style="stroke:#181818;stroke-width:0.5;" width="244" x="801.5" y="891.5176"/><text fill="#000000" font-family="sans-serif" font-size="14" font-style="italic" lengthAdjust="spacing" textLength="62" x="892.5" y="913.625">&#171;Service&#187;</text><text fill="#000000" font-family="sans-serif" font-size="14" lengthAdjust="spacing" textLength="230" x="808.5" y="932.2461">ListAllInvitationsFromMeetingService</text><rect fill="#E2E2F0" height="51.2422" rx="2.5" ry="2.5" style="stroke:#181818;stroke-width:0.5;" width="136" x="1055.5" y="36"/><text fill="#000000" font-family="sans-serif" font-size="14" font-style="italic" lengthAdjust="spacing" textLength="89" x="1079" y="58.1074">&#171;persistence&#187;</text><text fill="#000000" font-family="sans-serif" font-size="14" lengthAdjust="spacing" textLength="122" x="1062.5" y="76.7285">PersistenceContext</text><rect fill="#E2E2F0" height="51.2422" rx="2.5" ry="2.5" style="stroke:#181818;stroke-width:0.5;" width="136" x="1055.5" y="891.5176"/><text fill="#000000" font-family="sans-serif" font-size="14" font-style="italic" lengthAdjust="spacing" textLength="89" x="1079" y="913.625">&#171;persistence&#187;</text><text fill="#000000" font-family="sans-serif" font-size="14" lengthAdjust="spacing" textLength="122" x="1062.5" y="932.2461">PersistenceContext</text><rect fill="#E2E2F0" height="51.2422" rx="2.5" ry="2.5" style="stroke:#181818;stroke-width:0.5;" width="130" x="1201.5" y="36"/><text fill="#000000" font-family="sans-serif" font-size="14" font-style="italic" lengthAdjust="spacing" textLength="59" x="1237" y="58.1074">&#171;factory&#187;</text><text fill="#000000" font-family="sans-serif" font-size="14" lengthAdjust="spacing" textLength="116" x="1208.5" y="76.7285">RepositoryFactory</text><rect fill="#E2E2F0" height="51.2422" rx="2.5" ry="2.5" style="stroke:#181818;stroke-width:0.5;" width="130" x="1201.5" y="891.5176"/><text fill="#000000" font-family="sans-serif" font-size="14" font-style="italic" lengthAdjust="spacing" textLength="59" x="1237" y="913.625">&#171;factory&#187;</text><text fill="#000000" font-family="sans-serif" font-size="14" lengthAdjust="spacing" textLength="116" x="1208.5" y="932.2461">RepositoryFactory</text><rect fill="#E2E2F0" height="51.2422" rx="2.5" ry="2.5" style="stroke:#181818;stroke-width:0.5;" width="322" x="1341.5" y="36"/><text fill="#000000" font-family="sans-serif" font-size="14" font-style="italic" lengthAdjust="spacing" textLength="46" x="1479.5" y="58.1074">&#171;DTO&#187;</text><text fill="#000000" font-family="sans-serif" font-size="14" lengthAdjust="spacing" textLength="308" x="1348.5" y="76.7285">InvitationDTOWithStatusAndPersonNameMapper</text><rect fill="#E2E2F0" height="51.2422" rx="2.5" ry="2.5" style="stroke:#181818;stroke-width:0.5;" width="322" x="1341.5" y="891.5176"/><text fill="#000000" font-family="sans-serif" font-size="14" font-style="italic" lengthAdjust="spacing" textLength="46" x="1479.5" y="913.625">&#171;DTO&#187;</text><text fill="#000000" font-family="sans-serif" font-size="14" lengthAdjust="spacing" textLength="308" x="1348.5" y="932.2461">InvitationDTOWithStatusAndPersonNameMapper</text><rect fill="#E2E2F0" height="51.2422" rx="2.5" ry="2.5" style="stroke:#181818;stroke-width:0.5;" width="318" x="1673.5" y="36"/><text fill="#000000" font-family="sans-serif" font-size="14" font-style="italic" lengthAdjust="spacing" textLength="46" x="1809.5" y="58.1074">&#171;DTO&#187;</text><text fill="#000000" font-family="sans-serif" font-size="14" lengthAdjust="spacing" textLength="304" x="1680.5" y="76.7285">InvitationDTOWithStatusAndPersonNameBuilder</text><rect fill="#E2E2F0" height="51.2422" rx="2.5" ry="2.5" style="stroke:#181818;stroke-width:0.5;" width="318" x="1673.5" y="891.5176"/><text fill="#000000" font-family="sans-serif" font-size="14" font-style="italic" lengthAdjust="spacing" textLength="46" x="1809.5" y="913.625">&#171;DTO&#187;</text><text fill="#000000" font-family="sans-serif" font-size="14" lengthAdjust="spacing" textLength="304" x="1680.5" y="932.2461">InvitationDTOWithStatusAndPersonNameBuilder</text><rect fill="#E2E2F0" height="51.2422" rx="2.5" ry="2.5" style="stroke:#181818;stroke-width:0.5;" width="274" x="2001.5" y="36"/><text fill="#000000" font-family="sans-serif" font-size="14" font-style="italic" lengthAdjust="spacing" textLength="46" x="2115.5" y="58.1074">&#171;DTO&#187;</text><text fill="#000000" font-family="sans-serif" font-size="14" lengthAdjust="spacing" textLength="260" x="2008.5" y="76.7285">InvitationDTOWithStatusAndPersonName</text><rect fill="#E2E2F0" height="51.2422" rx="2.5" ry="2.5" style="stroke:#181818;stroke-width:0.5;" width="274" x="2001.5" y="891.5176"/><text fill="#000000" font-family="sans-serif" font-size="14" font-style="italic" lengthAdjust="spacing" textLength="46" x="2115.5" y="913.625">&#171;DTO&#187;</text><text fill="#000000" font-family="sans-serif" font-size="14" lengthAdjust="spacing" textLength="260" x="2008.5" y="932.2461">InvitationDTOWithStatusAndPersonName</text><text fill="#000000" font-family="sans-serif" font-size="14" font-style="italic" lengthAdjust="spacing" textLength="84" x="2305.5" y="66.1074">&#171;Repository&#187;</text><text fill="#000000" font-family="sans-serif" font-size="14" lengthAdjust="spacing" textLength="124" x="2285.5" y="84.7285">InvitationRepository</text><path d="M2332.5,15 C2332.5,5 2350.5,5 2350.5,5 C2350.5,5 2368.5,5 2368.5,15 L2368.5,41 C2368.5,51 2350.5,51 2350.5,51 C2350.5,51 2332.5,51 2332.5,41 L2332.5,15 " fill="#E2E2F0" style="stroke:#181818;stroke-width:1.5;"/><path d="M2332.5,15 C2332.5,25 2350.5,25 2350.5,25 C2350.5,25 2368.5,25 2368.5,15 " fill="none" style="stroke:#181818;stroke-width:1.5;"/><text fill="#000000" font-family="sans-serif" font-size="14" font-style="italic" lengthAdjust="spacing" textLength="84" x="2305.5" y="906.625">&#171;Repository&#187;</text><text fill="#000000" font-family="sans-serif" font-size="14" lengthAdjust="spacing" textLength="124" x="2285.5" y="925.2461">InvitationRepository</text><path d="M2332.5,938.7598 C2332.5,928.7598 2350.5,928.7598 2350.5,928.7598 C2350.5,928.7598 2368.5,928.7598 2368.5,938.7598 L2368.5,964.7598 C2368.5,974.7598 2350.5,974.7598 2350.5,974.7598 C2350.5,974.7598 2332.5,974.7598 2332.5,964.7598 L2332.5,938.7598 " fill="#E2E2F0" style="stroke:#181818;stroke-width:1.5;"/><path d="M2332.5,938.7598 C2332.5,948.7598 2350.5,948.7598 2350.5,948.7598 C2350.5,948.7598 2368.5,948.7598 2368.5,938.7598 " fill="none" style="stroke:#181818;stroke-width:1.5;"/><rect fill="#FFFFFF" height="776.2754" style="stroke:#181818;stroke-width:1.0;" width="10" x="25.5" y="98.2422"/><rect fill="#FFFFFF" height="752.9844" style="stroke:#181818;stroke-width:1.0;" width="10" x="348.5" y="121.5332"/><rect fill="#FFFFFF" height="699.4023" style="stroke:#181818;stroke-width:1.0;" width="10" x="633.5" y="184.1152"/><rect fill="#FFFFFF" height="565.2383" style="stroke:#181818;stroke-width:1.0;" width="10" x="918.5" y="246.6973"/><rect fill="#FFFFFF" height="62.582" style="stroke:#181818;stroke-width:1.0;" width="10" x="1118.5" y="277.9883"/><rect fill="#FFFFFF" height="62.582" style="stroke:#181818;stroke-width:1.0;" width="10" x="1261.5" y="371.8613"/><rect fill="#FFFFFF" height="219.0371" style="stroke:#181818;stroke-width:1.0;" width="10" x="1497.5" y="554.6074"/><rect fill="#FFFFFF" height="93.873" style="stroke:#181818;stroke-width:1.0;" width="10" x="1827.5" y="648.4805"/><rect fill="#FFFFFF" height="31.291" style="stroke:#181818;stroke-width:1.0;" width="10" x="2133.5" y="679.7715"/><rect fill="#FFFFFF" height="31.291" style="stroke:#181818;stroke-width:1.0;" width="10" x="2345.5" y="465.7344"/><polygon fill="#181818" points="336.5,117.5332,346.5,121.5332,336.5,125.5332,340.5,121.5332" style="stroke:#181818;stroke-width:1.0;"/><line style="stroke:#181818;stroke-width:1.0;" x1="35.5" x2="342.5" y1="121.5332" y2="121.5332"/><text fill="#000000" font-family="sans-serif" font-size="13" font-weight="bold" lengthAdjust="spacing" textLength="7" x="42.5" y="116.2705">1</text><text fill="#000000" font-family="sans-serif" font-size="13" lengthAdjust="spacing" textLength="178" x="53.5" y="116.2705">inserts meeting and ask for list</text><polygon fill="#181818" points="626.5,148.8242,636.5,152.8242,626.5,156.8242,630.5,152.8242" style="stroke:#181818;stroke-width:1.0;"/><line style="stroke:#181818;stroke-width:1.0;" x1="358.5" x2="632.5" y1="152.8242" y2="152.8242"/><text fill="#000000" font-family="sans-serif" font-size="13" font-weight="bold" lengthAdjust="spacing" textLength="7" x="365.5" y="147.5615">2</text><text fill="#000000" font-family="sans-serif" font-size="13" lengthAdjust="spacing" textLength="44" x="376.5" y="147.5615">create()</text><polygon fill="#181818" points="621.5,180.1152,631.5,184.1152,621.5,188.1152,625.5,184.1152" style="stroke:#181818;stroke-width:1.0;"/><line style="stroke:#181818;stroke-width:1.0;" x1="358.5" x2="627.5" y1="184.1152" y2="184.1152"/><text fill="#000000" font-family="sans-serif" font-size="13" font-weight="bold" lengthAdjust="spacing" textLength="7" x="365.5" y="178.8525">3</text><text fill="#000000" font-family="sans-serif" font-size="13" lengthAdjust="spacing" textLength="245" x="376.5" y="178.8525">listAllInvitationsFromMeeting(meetingDTO)</text><polygon fill="#181818" points="911.5,211.4063,921.5,215.4063,911.5,219.4063,915.5,215.4063" style="stroke:#181818;stroke-width:1.0;"/><line style="stroke:#181818;stroke-width:1.0;" x1="643.5" x2="917.5" y1="215.4063" y2="215.4063"/><text fill="#000000" font-family="sans-serif" font-size="13" font-weight="bold" lengthAdjust="spacing" textLength="7" x="650.5" y="210.1436">4</text><text fill="#000000" font-family="sans-serif" font-size="13" lengthAdjust="spacing" textLength="44" x="661.5" y="210.1436">create()</text><polygon fill="#181818" points="906.5,242.6973,916.5,246.6973,906.5,250.6973,910.5,246.6973" style="stroke:#181818;stroke-width:1.0;"/><line style="stroke:#181818;stroke-width:1.0;" x1="643.5" x2="912.5" y1="246.6973" y2="246.6973"/><text fill="#000000" font-family="sans-serif" font-size="13" font-weight="bold" lengthAdjust="spacing" textLength="7" x="650.5" y="241.4346">5</text><text fill="#000000" font-family="sans-serif" font-size="13" lengthAdjust="spacing" textLength="245" x="661.5" y="241.4346">listAllInvitationsFromMeeting(meetingDTO)</text><polygon fill="#181818" points="1106.5,273.9883,1116.5,277.9883,1106.5,281.9883,1110.5,277.9883" style="stroke:#181818;stroke-width:1.0;"/><line style="stroke:#181818;stroke-width:1.0;" x1="928.5" x2="1112.5" y1="277.9883" y2="277.9883"/><text fill="#000000" font-family="sans-serif" font-size="13" font-weight="bold" lengthAdjust="spacing" textLength="7" x="935.5" y="272.7256">6</text><text fill="#000000" font-family="sans-serif" font-size="13" lengthAdjust="spacing" textLength="75" x="946.5" y="272.7256">repositories()</text><polygon fill="#181818" points="1254.5,305.2793,1264.5,309.2793,1254.5,313.2793,1258.5,309.2793" style="stroke:#181818;stroke-width:1.0;"/><line style="stroke:#181818;stroke-width:1.0;" x1="1128.5" x2="1260.5" y1="309.2793" y2="309.2793"/><text fill="#000000" font-family="sans-serif" font-size="13" font-weight="bold" lengthAdjust="spacing" textLength="7" x="1135.5" y="304.0166">7</text><text fill="#000000" font-family="sans-serif" font-size="13" lengthAdjust="spacing" textLength="36" x="1146.5" y="304.0166">create</text><polygon fill="#181818" points="939.5,336.5703,929.5,340.5703,939.5,344.5703,935.5,340.5703" style="stroke:#181818;stroke-width:1.0;"/><line style="stroke:#181818;stroke-width:1.0;stroke-dasharray:2.0,2.0;" x1="933.5" x2="1122.5" y1="340.5703" y2="340.5703"/><text fill="#000000" font-family="sans-serif" font-size="13" font-weight="bold" lengthAdjust="spacing" textLength="7" x="945.5" y="335.3076">8</text><text fill="#000000" font-family="sans-serif" font-size="13" lengthAdjust="spacing" textLength="39" x="956.5" y="335.3076">factory</text><polygon fill="#181818" points="1249.5,367.8613,1259.5,371.8613,1249.5,375.8613,1253.5,371.8613" style="stroke:#181818;stroke-width:1.0;"/><line style="stroke:#181818;stroke-width:1.0;" x1="928.5" x2="1255.5" y1="371.8613" y2="371.8613"/><text fill="#000000" font-family="sans-serif" font-size="13" font-weight="bold" lengthAdjust="spacing" textLength="7" x="935.5" y="366.5986">9</text><text fill="#000000" font-family="sans-serif" font-size="13" lengthAdjust="spacing" textLength="120" x="946.5" y="366.5986">invitationRepository()</text><polygon fill="#181818" points="2338.5,399.1523,2348.5,403.1523,2338.5,407.1523,2342.5,403.1523" style="stroke:#181818;stroke-width:1.0;"/><line style="stroke:#181818;stroke-width:1.0;" x1="1271.5" x2="2344.5" y1="403.1523" y2="403.1523"/><text fill="#000000" font-family="sans-serif" font-size="13" font-weight="bold" lengthAdjust="spacing" textLength="14" x="1278.5" y="397.8896">10</text><text fill="#000000" font-family="sans-serif" font-size="13" lengthAdjust="spacing" textLength="36" x="1296.5" y="397.8896">create</text><polygon fill="#181818" points="939.5,430.4434,929.5,434.4434,939.5,438.4434,935.5,434.4434" style="stroke:#181818;stroke-width:1.0;"/><line style="stroke:#181818;stroke-width:1.0;stroke-dasharray:2.0,2.0;" x1="933.5" x2="1265.5" y1="434.4434" y2="434.4434"/><text fill="#000000" font-family="sans-serif" font-size="13" font-weight="bold" lengthAdjust="spacing" textLength="14" x="945.5" y="429.1807">11</text><text fill="#000000" font-family="sans-serif" font-size="13" lengthAdjust="spacing" textLength="112" x="963.5" y="429.1807">invitationRepository</text><polygon fill="#181818" points="2333.5,461.7344,2343.5,465.7344,2333.5,469.7344,2337.5,465.7344" style="stroke:#181818;stroke-width:1.0;"/><line style="stroke:#181818;stroke-width:1.0;" x1="928.5" x2="2339.5" y1="465.7344" y2="465.7344"/><text fill="#000000" font-family="sans-serif" font-size="13" font-weight="bold" lengthAdjust="spacing" textLength="14" x="935.5" y="460.4717">12</text><text fill="#000000" font-family="sans-serif" font-size="13" lengthAdjust="spacing" textLength="215" x="953.5" y="460.4717">getInvitationWithIdMeeting(meetingId)</text><polygon fill="#181818" points="939.5,493.0254,929.5,497.0254,939.5,501.0254,935.5,497.0254" style="stroke:#181818;stroke-width:1.0;"/><line style="stroke:#181818;stroke-width:1.0;stroke-dasharray:2.0,2.0;" x1="933.5" x2="2349.5" y1="497.0254" y2="497.0254"/><text fill="#000000" font-family="sans-serif" font-size="13" font-weight="bold" lengthAdjust="spacing" textLength="14" x="945.5" y="491.7627">13</text><text fill="#000000" font-family="sans-serif" font-size="13" lengthAdjust="spacing" textLength="67" x="963.5" y="491.7627">listInvitation</text><path d="M791.5,512.0254 L852.5,512.0254 L852.5,521.3164 L842.5,531.3164 L791.5,531.3164 L791.5,512.0254 " fill="#EEEEEE" style="stroke:#000000;stroke-width:1.5;"/><rect fill="none" height="269.6191" style="stroke:#000000;stroke-width:1.5;" width="1494" x="791.5" y="512.0254"/><text fill="#000000" font-family="sans-serif" font-size="13" font-weight="bold" lengthAdjust="spacing" textLength="16" x="806.5" y="527.0537">alt</text><text fill="#000000" font-family="sans-serif" font-size="11" font-weight="bold" lengthAdjust="spacing" textLength="189" x="867.5" y="525.8955">[for each Invitation in listInvitation]</text><polygon fill="#181818" points="1485.5,550.6074,1495.5,554.6074,1485.5,558.6074,1489.5,554.6074" style="stroke:#181818;stroke-width:1.0;"/><line style="stroke:#181818;stroke-width:1.0;" x1="928.5" x2="1491.5" y1="554.6074" y2="554.6074"/><text fill="#000000" font-family="sans-serif" font-size="13" font-weight="bold" lengthAdjust="spacing" textLength="14" x="935.5" y="549.3447">14</text><text fill="#000000" font-family="sans-serif" font-size="13" lengthAdjust="spacing" textLength="95" x="953.5" y="549.3447">toDTO(invitation)</text><polygon fill="#181818" points="1820.5,581.8984,1830.5,585.8984,1820.5,589.8984,1824.5,585.8984" style="stroke:#181818;stroke-width:1.0;"/><line style="stroke:#181818;stroke-width:1.0;" x1="1507.5" x2="1826.5" y1="585.8984" y2="585.8984"/><text fill="#000000" font-family="sans-serif" font-size="13" font-weight="bold" lengthAdjust="spacing" textLength="14" x="1514.5" y="580.6357">15</text><text fill="#000000" font-family="sans-serif" font-size="13" lengthAdjust="spacing" textLength="44" x="1532.5" y="580.6357">create()</text><polygon fill="#181818" points="1820.5,613.1895,1830.5,617.1895,1820.5,621.1895,1824.5,617.1895" style="stroke:#181818;stroke-width:1.0;"/><line style="stroke:#181818;stroke-width:1.0;" x1="1507.5" x2="1826.5" y1="617.1895" y2="617.1895"/><text fill="#000000" font-family="sans-serif" font-size="13" font-weight="bold" lengthAdjust="spacing" textLength="14" x="1514.5" y="611.9268">16</text><text fill="#000000" font-family="sans-serif" font-size="13" lengthAdjust="spacing" textLength="198" x="1532.5" y="611.9268">withStatusAndName(status,name)</text><polygon fill="#181818" points="1815.5,644.4805,1825.5,648.4805,1815.5,652.4805,1819.5,648.4805" style="stroke:#181818;stroke-width:1.0;"/><line style="stroke:#181818;stroke-width:1.0;" x1="1507.5" x2="1821.5" y1="648.4805" y2="648.4805"/><text fill="#000000" font-family="sans-serif" font-size="13" font-weight="bold" lengthAdjust="spacing" textLength="14" x="1514.5" y="643.2178">17</text><text fill="#000000" font-family="sans-serif" font-size="13" lengthAdjust="spacing" textLength="35" x="1532.5" y="643.2178">build()</text><polygon fill="#181818" points="2121.5,675.7715,2131.5,679.7715,2121.5,683.7715,2125.5,679.7715" style="stroke:#181818;stroke-width:1.0;"/><line style="stroke:#181818;stroke-width:1.0;" x1="1837.5" x2="2127.5" y1="679.7715" y2="679.7715"/><text fill="#000000" font-family="sans-serif" font-size="13" font-weight="bold" lengthAdjust="spacing" textLength="14" x="1844.5" y="674.5088">18</text><text fill="#000000" font-family="sans-serif" font-size="13" lengthAdjust="spacing" textLength="116" x="1862.5" y="674.5088">create(status,name)</text><polygon fill="#181818" points="1848.5,707.0625,1838.5,711.0625,1848.5,715.0625,1844.5,711.0625" style="stroke:#181818;stroke-width:1.0;"/><line style="stroke:#181818;stroke-width:1.0;stroke-dasharray:2.0,2.0;" x1="1842.5" x2="2137.5" y1="711.0625" y2="711.0625"/><text fill="#000000" font-family="sans-serif" font-size="13" font-weight="bold" lengthAdjust="spacing" textLength="14" x="1854.5" y="705.7998">19</text><text fill="#000000" font-family="sans-serif" font-size="13" lengthAdjust="spacing" textLength="239" x="1872.5" y="705.7998">invitationDTOWithStatusAndPersonName</text><polygon fill="#181818" points="1518.5,738.3535,1508.5,742.3535,1518.5,746.3535,1514.5,742.3535" style="stroke:#181818;stroke-width:1.0;"/><line style="stroke:#181818;stroke-width:1.0;stroke-dasharray:2.0,2.0;" x1="1512.5" x2="1831.5" y1="742.3535" y2="742.3535"/><text fill="#000000" font-family="sans-serif" font-size="13" font-weight="bold" lengthAdjust="spacing" textLength="14" x="1524.5" y="737.0908">20</text><text fill="#000000" font-family="sans-serif" font-size="13" lengthAdjust="spacing" textLength="239" x="1542.5" y="737.0908">invitationDTOWithStatusAndPersonName</text><polygon fill="#181818" points="939.5,769.6445,929.5,773.6445,939.5,777.6445,935.5,773.6445" style="stroke:#181818;stroke-width:1.0;"/><line style="stroke:#181818;stroke-width:1.0;stroke-dasharray:2.0,2.0;" x1="933.5" x2="1501.5" y1="773.6445" y2="773.6445"/><text fill="#000000" font-family="sans-serif" font-size="13" font-weight="bold" lengthAdjust="spacing" textLength="14" x="945.5" y="768.3818">21</text><text fill="#000000" font-family="sans-serif" font-size="13" lengthAdjust="spacing" textLength="239" x="963.5" y="768.3818">invitationDTOWithStatusAndPersonName</text><polygon fill="#181818" points="654.5,807.9355,644.5,811.9355,654.5,815.9355,650.5,811.9355" style="stroke:#181818;stroke-width:1.0;"/><line style="stroke:#181818;stroke-width:1.0;stroke-dasharray:2.0,2.0;" x1="648.5" x2="922.5" y1="811.9355" y2="811.9355"/><text fill="#000000" font-family="sans-serif" font-size="13" font-weight="bold" lengthAdjust="spacing" textLength="14" x="660.5" y="806.6729">22</text><text fill="#000000" font-family="sans-serif" font-size="13" lengthAdjust="spacing" textLength="93" x="678.5" y="806.6729">listInvitationDTO</text><polygon fill="#181818" points="369.5,839.2266,359.5,843.2266,369.5,847.2266,365.5,843.2266" style="stroke:#181818;stroke-width:1.0;"/><line style="stroke:#181818;stroke-width:1.0;stroke-dasharray:2.0,2.0;" x1="363.5" x2="632.5" y1="843.2266" y2="843.2266"/><text fill="#000000" font-family="sans-serif" font-size="13" font-weight="bold" lengthAdjust="spacing" textLength="14" x="375.5" y="837.9639">23</text><text fill="#000000" font-family="sans-serif" font-size="13" lengthAdjust="spacing" textLength="93" x="393.5" y="837.9639">listInvitationDTO</text><polygon fill="#181818" points="41.5,870.5176,31.5,874.5176,41.5,878.5176,37.5,874.5176" style="stroke:#181818;stroke-width:1.0;"/><line style="stroke:#181818;stroke-width:1.0;stroke-dasharray:2.0,2.0;" x1="35.5" x2="352.5" y1="874.5176" y2="874.5176"/><text fill="#000000" font-family="sans-serif" font-size="13" font-weight="bold" lengthAdjust="spacing" textLength="14" x="47.5" y="869.2549">24</text><text fill="#000000" font-family="sans-serif" font-size="13" lengthAdjust="spacing" textLength="271" x="65.5" y="869.2549">shows all invitations and their respective status</text><!--SRC=[dLJ1RXiX4Btp5SYNE58TtotBajigagMcZPfMFUFTYOtA0WNMQVw-0yikinkhidDOYOLvZyVCcxavXc3zQhcqIkZGDkgkCitImvyMT0MBMeg34mrZeWr6jyqU71DLC8u_WlD6S-6vPSmA5sGbBLBmsHVfmrQfdJx9888qsjyxqpm01AaFFtUpY6abNwyV7NZGNSncSmN99wE3Cqg1IsHLS0hfjjOgMLtFzWJk92j8LBvR8rlUdJ35LoDNp4qK0Nz3oa3PHIJvcw2_WpLUOlPUxrCINoFOWUt_rkldReMu4R08__pZsoyPZa_ur_gjhhioV1KDF0YBDqV6HY0J1avkluJaOojLtR7iy_AzL96Z3cR0CrQB8FR20vyLV4b9oh_K9zn1JDbFK4oBF8a0Q3RB5nlqpmfZiLe1dzkLaGjT8yLl_epkL5Y00cebGyCXB3fbnIi7k3k_7Msg_rbadk_0bzmMsWXaoNoBJJOE8Sy7d0z7xxWYOndhZOc4n5-hw9ukJnByd0194AFsH7mnNAzs784XW-JiHrR3MMQYYhBAC-Mbuaei8-v7agxyWonwI5MTuwSI2J-LsBCV89GQHFVkwaaHTZLHsy5OjkP8IAneeQ8ICeW95P8XyUH8sWRFfs0Yj14h7WmwOLvUIWGrWc6BOrnkKMAwoVuBRStOb7EV_ZveNB-9JWjQftp2-b60mTZHmtKZhW644Gm_pDD0B2yO5pHvaMAuC-M3Nq_IYu-FF6-UotWmsn0dYmgbHAEfCHg65DatRpS9yjHwYuXJABOrlj4VpOl7gnHHwTDW2qUG3etjBKHw94-gwNKuvMYR_WC0]--></g></svg>