<?xml version="1.0" encoding="us-ascii" standalone="no"?><svg xmlns="http://www.w3.org/2000/svg" xmlns:xlink="http://www.w3.org/1999/xlink" contentStyleType="text/css" height="596px" preserveAspectRatio="none" style="width:1535px;height:596px;background:#FFFFFF;" version="1.1" viewBox="0 0 1535 596" width="1535px" zoomAndPan="magnify"><defs/><g><rect fill="#FFFFFF" height="372.2813" style="stroke:#181818;stroke-width:1.0;" width="10" x="27.5" y="112.8047"/><rect fill="#FFFFFF" height="372.2813" style="stroke:#181818;stroke-width:1.0;" width="10" x="288.5" y="112.8047"/><rect fill="#FFFFFF" height="315.2344" style="stroke:#181818;stroke-width:1.0;" width="10" x="549.5" y="141.3281"/><rect fill="#FFFFFF" height="258.1875" style="stroke:#181818;stroke-width:1.0;" width="10" x="810.5" y="169.8516"/><rect fill="#FFFFFF" height="28.5234" style="stroke:#181818;stroke-width:1.0;" width="10" x="992.5" y="255.4219"/><rect fill="#FFFFFF" height="28.5234" style="stroke:#181818;stroke-width:1.0;" width="10" x="1168.5" y="312.4688"/><rect fill="#FFFFFF" height="30" style="stroke:#181818;stroke-width:1.0;" width="10" x="1323.5" y="369.5156"/><rect fill="#FFFFFF" height="28.5234" style="stroke:#181818;stroke-width:1.0;" width="10" x="1475" y="198.375"/><line style="stroke:#181818;stroke-width:0.5;stroke-dasharray:5.0,5.0;" x1="32" x2="32" y1="82.2813" y2="503.0859"/><line style="stroke:#181818;stroke-width:0.5;stroke-dasharray:5.0,5.0;" x1="293" x2="293" y1="82.2813" y2="503.0859"/><line style="stroke:#181818;stroke-width:0.5;stroke-dasharray:5.0,5.0;" x1="554.5" x2="554.5" y1="82.2813" y2="503.0859"/><line style="stroke:#181818;stroke-width:0.5;stroke-dasharray:5.0,5.0;" x1="815" x2="815" y1="82.2813" y2="503.0859"/><line style="stroke:#181818;stroke-width:0.5;stroke-dasharray:5.0,5.0;" x1="997" x2="997" y1="82.2813" y2="503.0859"/><line style="stroke:#181818;stroke-width:0.5;stroke-dasharray:5.0,5.0;" x1="1173" x2="1173" y1="82.2813" y2="503.0859"/><line style="stroke:#181818;stroke-width:0.5;stroke-dasharray:5.0,5.0;" x1="1328" x2="1328" y1="82.2813" y2="503.0859"/><line style="stroke:#181818;stroke-width:0.5;stroke-dasharray:5.0,5.0;" x1="1480" x2="1480" y1="82.2813" y2="503.0859"/><text fill="#000000" font-family="sans-serif" font-size="14" lengthAdjust="spacing" textLength="49" x="5" y="79.3145">Student</text><ellipse cx="32.5" cy="15.1406" fill="#E2E2F0" rx="8" ry="8" style="stroke:#181818;stroke-width:0.5;"/><path d="M32.5,23.1406 L32.5,50.1406 M19.5,31.1406 L45.5,31.1406 M32.5,50.1406 L19.5,65.1406 M32.5,50.1406 L45.5,65.1406 " fill="none" style="stroke:#181818;stroke-width:0.5;"/><text fill="#000000" font-family="sans-serif" font-size="14" lengthAdjust="spacing" textLength="49" x="5" y="514.7598">Student</text><ellipse cx="32.5" cy="526.2266" fill="#E2E2F0" rx="8" ry="8" style="stroke:#181818;stroke-width:0.5;"/><path d="M32.5,534.2266 L32.5,561.2266 M19.5,542.2266 L45.5,542.2266 M32.5,561.2266 L19.5,576.2266 M32.5,561.2266 L45.5,576.2266 " fill="none" style="stroke:#181818;stroke-width:0.5;"/><rect fill="#E2E2F0" height="45.2813" rx="2.5" ry="2.5" style="stroke:#181818;stroke-width:0.5;" width="109" x="239" y="36"/><text fill="#000000" font-family="sans-serif" font-size="14" font-style="italic" lengthAdjust="spacing" textLength="95" x="246" y="55.6738">&#171;presentation&#187;</text><text fill="#000000" font-family="sans-serif" font-size="14" lengthAdjust="spacing" textLength="78" x="254.5" y="71.3145">TakeExamUI</text><rect fill="#E2E2F0" height="45.2813" rx="2.5" ry="2.5" style="stroke:#181818;stroke-width:0.5;" width="109" x="239" y="502.0859"/><text fill="#000000" font-family="sans-serif" font-size="14" font-style="italic" lengthAdjust="spacing" textLength="95" x="246" y="521.7598">&#171;presentation&#187;</text><text fill="#000000" font-family="sans-serif" font-size="14" lengthAdjust="spacing" textLength="78" x="254.5" y="537.4004">TakeExamUI</text><text fill="#000000" font-family="sans-serif" font-size="14" font-style="italic" lengthAdjust="spacing" textLength="84" x="509.5" y="63.6738">&#171;application&#187;</text><text fill="#000000" font-family="sans-serif" font-size="14" lengthAdjust="spacing" textLength="128" x="487.5" y="79.3145">TakeExamController</text><ellipse cx="554.5" cy="35" fill="#E2E2F0" rx="12" ry="12" style="stroke:#181818;stroke-width:0.5;"/><polygon fill="#181818" points="550.5,23,556.5,18,554.5,23,556.5,28,550.5,23" style="stroke:#181818;stroke-width:1.0;"/><text fill="#000000" font-family="sans-serif" font-size="14" font-style="italic" lengthAdjust="spacing" textLength="84" x="509.5" y="514.7598">&#171;application&#187;</text><text fill="#000000" font-family="sans-serif" font-size="14" lengthAdjust="spacing" textLength="128" x="487.5" y="530.4004">TakeExamController</text><ellipse cx="554.5" cy="549.3672" fill="#E2E2F0" rx="12" ry="12" style="stroke:#181818;stroke-width:0.5;"/><polygon fill="#181818" points="550.5,537.3672,556.5,532.3672,554.5,537.3672,556.5,542.3672,550.5,537.3672" style="stroke:#181818;stroke-width:1.0;"/><rect fill="#E2E2F0" height="45.2813" rx="2.5" ry="2.5" style="stroke:#181818;stroke-width:0.5;" width="127" x="752" y="36"/><text fill="#000000" font-family="sans-serif" font-size="14" font-style="italic" lengthAdjust="spacing" textLength="84" x="773.5" y="55.6738">&#171;application&#187;</text><text fill="#000000" font-family="sans-serif" font-size="14" lengthAdjust="spacing" textLength="113" x="759" y="71.3145">TakeExamService</text><rect fill="#E2E2F0" height="45.2813" rx="2.5" ry="2.5" style="stroke:#181818;stroke-width:0.5;" width="127" x="752" y="502.0859"/><text fill="#000000" font-family="sans-serif" font-size="14" font-style="italic" lengthAdjust="spacing" textLength="84" x="773.5" y="521.7598">&#171;application&#187;</text><text fill="#000000" font-family="sans-serif" font-size="14" lengthAdjust="spacing" textLength="113" x="759" y="537.4004">TakeExamService</text><rect fill="#E2E2F0" height="45.2813" rx="2.5" ry="2.5" style="stroke:#181818;stroke-width:0.5;" width="217" x="889" y="36"/><text fill="#000000" font-family="sans-serif" font-size="14" font-style="italic" lengthAdjust="spacing" textLength="60" x="967.5" y="55.6738">&#171;service&#187;</text><text fill="#000000" font-family="sans-serif" font-size="14" lengthAdjust="spacing" textLength="203" x="896" y="71.3145">EvaluateExamResolutionService</text><rect fill="#E2E2F0" height="45.2813" rx="2.5" ry="2.5" style="stroke:#181818;stroke-width:0.5;" width="217" x="889" y="502.0859"/><text fill="#000000" font-family="sans-serif" font-size="14" font-style="italic" lengthAdjust="spacing" textLength="60" x="967.5" y="521.7598">&#171;service&#187;</text><text fill="#000000" font-family="sans-serif" font-size="14" lengthAdjust="spacing" textLength="203" x="896" y="537.4004">EvaluateExamResolutionService</text><rect fill="#E2E2F0" height="45.2813" rx="2.5" ry="2.5" style="stroke:#181818;stroke-width:0.5;" width="115" x="1116" y="36"/><text fill="#000000" font-family="sans-serif" font-size="14" font-style="italic" lengthAdjust="spacing" textLength="62" x="1142.5" y="55.6738">&#171;domain&#187;</text><text fill="#000000" font-family="sans-serif" font-size="14" lengthAdjust="spacing" textLength="101" x="1123" y="71.3145">ExamResolution</text><rect fill="#E2E2F0" height="45.2813" rx="2.5" ry="2.5" style="stroke:#181818;stroke-width:0.5;" width="115" x="1116" y="502.0859"/><text fill="#000000" font-family="sans-serif" font-size="14" font-style="italic" lengthAdjust="spacing" textLength="62" x="1142.5" y="521.7598">&#171;domain&#187;</text><text fill="#000000" font-family="sans-serif" font-size="14" lengthAdjust="spacing" textLength="101" x="1123" y="537.4004">ExamResolution</text><text fill="#000000" font-family="sans-serif" font-size="14" font-style="italic" lengthAdjust="spacing" textLength="79" x="1286" y="63.6738">&#171;repository&#187;</text><text fill="#000000" font-family="sans-serif" font-size="14" lengthAdjust="spacing" textLength="169" x="1241" y="79.3145">ExamResolutionRepository</text><path d="M1310.5,15 C1310.5,5 1328.5,5 1328.5,5 C1328.5,5 1346.5,5 1346.5,15 L1346.5,41 C1346.5,51 1328.5,51 1328.5,51 C1328.5,51 1310.5,51 1310.5,41 L1310.5,15 " fill="#E2E2F0" style="stroke:#181818;stroke-width:1.5;"/><path d="M1310.5,15 C1310.5,25 1328.5,25 1328.5,25 C1328.5,25 1346.5,25 1346.5,15 " fill="none" style="stroke:#181818;stroke-width:1.5;"/><text fill="#000000" font-family="sans-serif" font-size="14" font-style="italic" lengthAdjust="spacing" textLength="79" x="1286" y="514.7598">&#171;repository&#187;</text><text fill="#000000" font-family="sans-serif" font-size="14" lengthAdjust="spacing" textLength="169" x="1241" y="530.4004">ExamResolutionRepository</text><path d="M1310.5,543.3672 C1310.5,533.3672 1328.5,533.3672 1328.5,533.3672 C1328.5,533.3672 1346.5,533.3672 1346.5,543.3672 L1346.5,569.3672 C1346.5,579.3672 1328.5,579.3672 1328.5,579.3672 C1328.5,579.3672 1310.5,579.3672 1310.5,569.3672 L1310.5,543.3672 " fill="#E2E2F0" style="stroke:#181818;stroke-width:1.5;"/><path d="M1310.5,543.3672 C1310.5,553.3672 1328.5,553.3672 1328.5,553.3672 C1328.5,553.3672 1346.5,553.3672 1346.5,543.3672 " fill="none" style="stroke:#181818;stroke-width:1.5;"/><text fill="#000000" font-family="sans-serif" font-size="14" font-style="italic" lengthAdjust="spacing" textLength="79" x="1437.5" y="63.6738">&#171;repository&#187;</text><text fill="#000000" font-family="sans-serif" font-size="14" lengthAdjust="spacing" textLength="102" x="1426" y="79.3145">ExamRepository</text><path d="M1462,15 C1462,5 1480,5 1480,5 C1480,5 1498,5 1498,15 L1498,41 C1498,51 1480,51 1480,51 C1480,51 1462,51 1462,41 L1462,15 " fill="#E2E2F0" style="stroke:#181818;stroke-width:1.5;"/><path d="M1462,15 C1462,25 1480,25 1480,25 C1480,25 1498,25 1498,15 " fill="none" style="stroke:#181818;stroke-width:1.5;"/><text fill="#000000" font-family="sans-serif" font-size="14" font-style="italic" lengthAdjust="spacing" textLength="79" x="1437.5" y="514.7598">&#171;repository&#187;</text><text fill="#000000" font-family="sans-serif" font-size="14" lengthAdjust="spacing" textLength="102" x="1426" y="530.4004">ExamRepository</text><path d="M1462,543.3672 C1462,533.3672 1480,533.3672 1480,533.3672 C1480,533.3672 1498,533.3672 1498,543.3672 L1498,569.3672 C1498,579.3672 1480,579.3672 1480,579.3672 C1480,579.3672 1462,579.3672 1462,569.3672 L1462,543.3672 " fill="#E2E2F0" style="stroke:#181818;stroke-width:1.5;"/><path d="M1462,543.3672 C1462,553.3672 1480,553.3672 1480,553.3672 C1480,553.3672 1498,553.3672 1498,543.3672 " fill="none" style="stroke:#181818;stroke-width:1.5;"/><rect fill="#FFFFFF" height="372.2813" style="stroke:#181818;stroke-width:1.0;" width="10" x="27.5" y="112.8047"/><rect fill="#FFFFFF" height="372.2813" style="stroke:#181818;stroke-width:1.0;" width="10" x="288.5" y="112.8047"/><rect fill="#FFFFFF" height="315.2344" style="stroke:#181818;stroke-width:1.0;" width="10" x="549.5" y="141.3281"/><rect fill="#FFFFFF" height="258.1875" style="stroke:#181818;stroke-width:1.0;" width="10" x="810.5" y="169.8516"/><rect fill="#FFFFFF" height="28.5234" style="stroke:#181818;stroke-width:1.0;" width="10" x="992.5" y="255.4219"/><rect fill="#FFFFFF" height="28.5234" style="stroke:#181818;stroke-width:1.0;" width="10" x="1168.5" y="312.4688"/><rect fill="#FFFFFF" height="30" style="stroke:#181818;stroke-width:1.0;" width="10" x="1323.5" y="369.5156"/><rect fill="#FFFFFF" height="28.5234" style="stroke:#181818;stroke-width:1.0;" width="10" x="1475" y="198.375"/><polygon fill="#181818" points="276.5,108.8047,286.5,112.8047,276.5,116.8047,280.5,112.8047" style="stroke:#181818;stroke-width:1.0;"/><line style="stroke:#181818;stroke-width:1.0;" x1="37.5" x2="282.5" y1="112.8047" y2="112.8047"/><text fill="#000000" font-family="sans-serif" font-size="13" font-weight="bold" lengthAdjust="spacing" textLength="7" x="44.5" y="108.0498">1</text><text fill="#000000" font-family="sans-serif" font-size="13" lengthAdjust="spacing" textLength="226" x="55.5" y="108.0498">Inserts exam and file path to respective</text><polygon fill="#181818" points="537.5,137.3281,547.5,141.3281,537.5,145.3281,541.5,141.3281" style="stroke:#181818;stroke-width:1.0;"/><line style="stroke:#181818;stroke-width:1.0;" x1="298.5" x2="543.5" y1="141.3281" y2="141.3281"/><text fill="#000000" font-family="sans-serif" font-size="13" font-weight="bold" lengthAdjust="spacing" textLength="7" x="305.5" y="136.5732">2</text><text fill="#000000" font-family="sans-serif" font-size="13" lengthAdjust="spacing" textLength="221" x="316.5" y="136.5732">takeExam(examId, resolutionFilePath)</text><polygon fill="#181818" points="798.5,165.8516,808.5,169.8516,798.5,173.8516,802.5,169.8516" style="stroke:#181818;stroke-width:1.0;"/><line style="stroke:#181818;stroke-width:1.0;" x1="559.5" x2="804.5" y1="169.8516" y2="169.8516"/><text fill="#000000" font-family="sans-serif" font-size="13" font-weight="bold" lengthAdjust="spacing" textLength="7" x="566.5" y="165.0967">3</text><text fill="#000000" font-family="sans-serif" font-size="13" lengthAdjust="spacing" textLength="221" x="577.5" y="165.0967">takeExam(examId, resolutionFilePath)</text><polygon fill="#181818" points="1463,194.375,1473,198.375,1463,202.375,1467,198.375" style="stroke:#181818;stroke-width:1.0;"/><line style="stroke:#181818;stroke-width:1.0;" x1="820.5" x2="1469" y1="198.375" y2="198.375"/><text fill="#000000" font-family="sans-serif" font-size="13" font-weight="bold" lengthAdjust="spacing" textLength="7" x="827.5" y="193.6201">4</text><text fill="#000000" font-family="sans-serif" font-size="13" lengthAdjust="spacing" textLength="102" x="838.5" y="193.6201">ofIdentity(examId)</text><polygon fill="#181818" points="831.5,222.8984,821.5,226.8984,831.5,230.8984,827.5,226.8984" style="stroke:#181818;stroke-width:1.0;"/><line style="stroke:#181818;stroke-width:1.0;stroke-dasharray:2.0,2.0;" x1="825.5" x2="1479" y1="226.8984" y2="226.8984"/><text fill="#000000" font-family="sans-serif" font-size="13" font-weight="bold" lengthAdjust="spacing" textLength="7" x="837.5" y="222.1436">5</text><text fill="#000000" font-family="sans-serif" font-size="13" lengthAdjust="spacing" textLength="32" x="848.5" y="222.1436">exam</text><polygon fill="#181818" points="980.5,251.4219,990.5,255.4219,980.5,259.4219,984.5,255.4219" style="stroke:#181818;stroke-width:1.0;"/><line style="stroke:#181818;stroke-width:1.0;" x1="820.5" x2="986.5" y1="255.4219" y2="255.4219"/><text fill="#000000" font-family="sans-serif" font-size="13" font-weight="bold" lengthAdjust="spacing" textLength="7" x="827.5" y="250.667">6</text><text fill="#000000" font-family="sans-serif" font-size="13" lengthAdjust="spacing" textLength="123" x="838.5" y="250.667">takeExam(resolution)</text><polygon fill="#181818" points="831.5,279.9453,821.5,283.9453,831.5,287.9453,827.5,283.9453" style="stroke:#181818;stroke-width:1.0;"/><line style="stroke:#181818;stroke-width:1.0;" x1="825.5" x2="996.5" y1="283.9453" y2="283.9453"/><text fill="#000000" font-family="sans-serif" font-size="13" font-weight="bold" lengthAdjust="spacing" textLength="7" x="837.5" y="279.1904">7</text><text fill="#000000" font-family="sans-serif" font-size="13" lengthAdjust="spacing" textLength="113" x="848.5" y="279.1904">grade and feedback</text><polygon fill="#181818" points="1156.5,308.4688,1166.5,312.4688,1156.5,316.4688,1160.5,312.4688" style="stroke:#181818;stroke-width:1.0;"/><line style="stroke:#181818;stroke-width:1.0;" x1="820.5" x2="1162.5" y1="312.4688" y2="312.4688"/><text fill="#000000" font-family="sans-serif" font-size="13" font-weight="bold" lengthAdjust="spacing" textLength="7" x="827.5" y="307.7139">8</text><text fill="#000000" font-family="sans-serif" font-size="13" lengthAdjust="spacing" textLength="240" x="838.5" y="307.7139">create(examResId, exam, grade, student)</text><polygon fill="#181818" points="831.5,336.9922,821.5,340.9922,831.5,344.9922,827.5,340.9922" style="stroke:#181818;stroke-width:1.0;"/><line style="stroke:#181818;stroke-width:1.0;stroke-dasharray:2.0,2.0;" x1="825.5" x2="1172.5" y1="340.9922" y2="340.9922"/><text fill="#000000" font-family="sans-serif" font-size="13" font-weight="bold" lengthAdjust="spacing" textLength="7" x="837.5" y="336.2373">9</text><text fill="#000000" font-family="sans-serif" font-size="13" lengthAdjust="spacing" textLength="118" x="848.5" y="336.2373">newExamResolution</text><polygon fill="#181818" points="1311.5,365.5156,1321.5,369.5156,1311.5,373.5156,1315.5,369.5156" style="stroke:#181818;stroke-width:1.0;"/><line style="stroke:#181818;stroke-width:1.0;" x1="820.5" x2="1317.5" y1="369.5156" y2="369.5156"/><text fill="#000000" font-family="sans-serif" font-size="13" font-weight="bold" lengthAdjust="spacing" textLength="14" x="827.5" y="364.7607">10</text><text fill="#000000" font-family="sans-serif" font-size="13" lengthAdjust="spacing" textLength="152" x="845.5" y="364.7607">save(newExamResolution)</text><polygon fill="#181818" points="570.5,424.0391,560.5,428.0391,570.5,432.0391,566.5,428.0391" style="stroke:#181818;stroke-width:1.0;"/><line style="stroke:#181818;stroke-width:1.0;stroke-dasharray:2.0,2.0;" x1="564.5" x2="814.5" y1="428.0391" y2="428.0391"/><text fill="#000000" font-family="sans-serif" font-size="13" font-weight="bold" lengthAdjust="spacing" textLength="14" x="576.5" y="423.2842">11</text><text fill="#000000" font-family="sans-serif" font-size="13" lengthAdjust="spacing" textLength="113" x="594.5" y="423.2842">grade and feedback</text><polygon fill="#181818" points="309.5,452.5625,299.5,456.5625,309.5,460.5625,305.5,456.5625" style="stroke:#181818;stroke-width:1.0;"/><line style="stroke:#181818;stroke-width:1.0;stroke-dasharray:2.0,2.0;" x1="303.5" x2="553.5" y1="456.5625" y2="456.5625"/><text fill="#000000" font-family="sans-serif" font-size="13" font-weight="bold" lengthAdjust="spacing" textLength="14" x="315.5" y="451.8076">12</text><text fill="#000000" font-family="sans-serif" font-size="13" lengthAdjust="spacing" textLength="113" x="333.5" y="451.8076">grade and feedback</text><polygon fill="#181818" points="43.5,481.0859,33.5,485.0859,43.5,489.0859,39.5,485.0859" style="stroke:#181818;stroke-width:1.0;"/><line style="stroke:#181818;stroke-width:1.0;stroke-dasharray:2.0,2.0;" x1="37.5" x2="292.5" y1="485.0859" y2="485.0859"/><text fill="#000000" font-family="sans-serif" font-size="13" font-weight="bold" lengthAdjust="spacing" textLength="14" x="49.5" y="480.3311">13</text><text fill="#000000" font-family="sans-serif" font-size="13" lengthAdjust="spacing" textLength="113" x="67.5" y="480.3311">grade and feedback</text><!--SRC=[bPFTReCm38NlynIvxAJs1QgfqjGn2MaR4tJJxYeNt2qg9IW9R7txEVoKGAfMkm0Huk_OENQWChAeZZjK358Z5KzCbM5XE6Z-iDv4CIj16P6A4kZd1WuO_CBnFRJxzBw_BnLgYWSZPB5QiLGMHidy7BbkrpagIwoZrqqSFJy7CP5Gbhb8U_1IcWHLBLAqP1B47-4wk8e5DUGLc0QDKSkyia6Eo6FqiXs4TBin5Hd1bWe-jt6G49398mYRD0C3Ez0u2Ownb5gGYQS1e-Sj8bQTztpUeto2DRtWYnMPlkHXGRKRpP5m3aN6zo97NeBvvaPoQaY9gH4rsfQAcXpfMdbUleUCcaTgJaEMt7IspwnkcCsjKdUq9qhmHlftWyQ0CaU5D7k7_olOSOpr0gJLsx7aSX_QkHJcrAavP1V5-kZ5g0eRpZBqejqyxcGuTG_rEjcSMEPoewHV2Z9iUuEOxI0zk2Mu4jvn4y9JXHJNd9JcorfdF-Ujx9phzf9EBKXO9p0seC2VyQ1wRYGNgkYDrr3Zp9FmKhUUUi9JgwSpTzsdtYDtm9exS9DqfjDEEa7j3Rh5qSrmLWtp1m00]--></g></svg>