<?xml version="1.0" encoding="us-ascii" standalone="no"?><svg xmlns="http://www.w3.org/2000/svg" xmlns:xlink="http://www.w3.org/1999/xlink" contentStyleType="text/css" height="540px" preserveAspectRatio="none" style="width:1273px;height:540px;background:#FFFFFF;" version="1.1" viewBox="0 0 1273 540" width="1273px" zoomAndPan="magnify"><defs/><g><rect fill="#FFFFFF" height="316.7109" style="stroke:#181818;stroke-width:1.0;" width="10" x="17.5" y="112.8047"/><rect fill="#FFFFFF" height="316.7109" style="stroke:#181818;stroke-width:1.0;" width="10" x="221.5" y="112.8047"/><rect fill="#FFFFFF" height="259.6641" style="stroke:#181818;stroke-width:1.0;" width="10" x="533.5" y="141.3281"/><rect fill="#FFFFFF" height="202.6172" style="stroke:#181818;stroke-width:1.0;" width="10" x="845.5" y="169.8516"/><rect fill="#FFFFFF" height="30" style="stroke:#181818;stroke-width:1.0;" width="10" x="1089.5" y="255.4219"/><rect fill="#FFFFFF" height="28.5234" style="stroke:#181818;stroke-width:1.0;" width="10" x="1202.5" y="198.375"/><rect fill="#FFFFFF" height="30" style="stroke:#181818;stroke-width:1.0;" width="10" x="1202.5" y="313.9453"/><line style="stroke:#181818;stroke-width:0.5;stroke-dasharray:5.0,5.0;" x1="22" x2="22" y1="82.2813" y2="447.5156"/><line style="stroke:#181818;stroke-width:0.5;stroke-dasharray:5.0,5.0;" x1="226" x2="226" y1="82.2813" y2="447.5156"/><line style="stroke:#181818;stroke-width:0.5;stroke-dasharray:5.0,5.0;" x1="538" x2="538" y1="82.2813" y2="447.5156"/><line style="stroke:#181818;stroke-width:0.5;stroke-dasharray:5.0,5.0;" x1="850.5" x2="850.5" y1="82.2813" y2="447.5156"/><line style="stroke:#181818;stroke-width:0.5;stroke-dasharray:5.0,5.0;" x1="1094.5" x2="1094.5" y1="82.2813" y2="447.5156"/><line style="stroke:#181818;stroke-width:0.5;stroke-dasharray:5.0,5.0;" x1="1207.5" x2="1207.5" y1="82.2813" y2="447.5156"/><text fill="#000000" font-family="sans-serif" font-size="14" lengthAdjust="spacing" textLength="29" x="5" y="79.3145">User</text><ellipse cx="22.5" cy="15.1406" fill="#E2E2F0" rx="8" ry="8" style="stroke:#181818;stroke-width:0.5;"/><path d="M22.5,23.1406 L22.5,50.1406 M9.5,31.1406 L35.5,31.1406 M22.5,50.1406 L9.5,65.1406 M22.5,50.1406 L35.5,65.1406 " fill="none" style="stroke:#181818;stroke-width:0.5;"/><text fill="#000000" font-family="sans-serif" font-size="14" lengthAdjust="spacing" textLength="29" x="5" y="459.1895">User</text><ellipse cx="22.5" cy="470.6563" fill="#E2E2F0" rx="8" ry="8" style="stroke:#181818;stroke-width:0.5;"/><path d="M22.5,478.6563 L22.5,505.6563 M9.5,486.6563 L35.5,486.6563 M22.5,505.6563 L9.5,520.6563 M22.5,505.6563 L35.5,520.6563 " fill="none" style="stroke:#181818;stroke-width:0.5;"/><rect fill="#E2E2F0" height="45.2813" rx="2.5" ry="2.5" style="stroke:#181818;stroke-width:0.5;" width="165" x="144" y="36"/><text fill="#000000" font-family="sans-serif" font-size="14" font-style="italic" lengthAdjust="spacing" textLength="95" x="179" y="55.6738">&#171;presentation&#187;</text><text fill="#000000" font-family="sans-serif" font-size="14" lengthAdjust="spacing" textLength="151" x="151" y="71.3145">AcceptRejectInvitationUI</text><rect fill="#E2E2F0" height="45.2813" rx="2.5" ry="2.5" style="stroke:#181818;stroke-width:0.5;" width="165" x="144" y="446.5156"/><text fill="#000000" font-family="sans-serif" font-size="14" font-style="italic" lengthAdjust="spacing" textLength="95" x="179" y="466.1895">&#171;presentation&#187;</text><text fill="#000000" font-family="sans-serif" font-size="14" lengthAdjust="spacing" textLength="151" x="151" y="481.8301">AcceptRejectInvitationUI</text><text fill="#000000" font-family="sans-serif" font-size="14" font-style="italic" lengthAdjust="spacing" textLength="84" x="493.5" y="63.6738">&#171;application&#187;</text><text fill="#000000" font-family="sans-serif" font-size="14" lengthAdjust="spacing" textLength="201" x="435" y="79.3145">AcceptRejectInvitationController</text><ellipse cx="538.5" cy="35" fill="#E2E2F0" rx="12" ry="12" style="stroke:#181818;stroke-width:0.5;"/><polygon fill="#181818" points="534.5,23,540.5,18,538.5,23,540.5,28,534.5,23" style="stroke:#181818;stroke-width:1.0;"/><text fill="#000000" font-family="sans-serif" font-size="14" font-style="italic" lengthAdjust="spacing" textLength="84" x="493.5" y="459.1895">&#171;application&#187;</text><text fill="#000000" font-family="sans-serif" font-size="14" lengthAdjust="spacing" textLength="201" x="435" y="474.8301">AcceptRejectInvitationController</text><ellipse cx="538.5" cy="493.7969" fill="#E2E2F0" rx="12" ry="12" style="stroke:#181818;stroke-width:0.5;"/><polygon fill="#181818" points="534.5,481.7969,540.5,476.7969,538.5,481.7969,540.5,486.7969,534.5,481.7969" style="stroke:#181818;stroke-width:1.0;"/><rect fill="#E2E2F0" height="45.2813" rx="2.5" ry="2.5" style="stroke:#181818;stroke-width:0.5;" width="200" x="750.5" y="36"/><text fill="#000000" font-family="sans-serif" font-size="14" font-style="italic" lengthAdjust="spacing" textLength="84" x="808.5" y="55.6738">&#171;application&#187;</text><text fill="#000000" font-family="sans-serif" font-size="14" lengthAdjust="spacing" textLength="186" x="757.5" y="71.3145">AcceptRejectInvitationService</text><rect fill="#E2E2F0" height="45.2813" rx="2.5" ry="2.5" style="stroke:#181818;stroke-width:0.5;" width="200" x="750.5" y="446.5156"/><text fill="#000000" font-family="sans-serif" font-size="14" font-style="italic" lengthAdjust="spacing" textLength="84" x="808.5" y="466.1895">&#171;application&#187;</text><text fill="#000000" font-family="sans-serif" font-size="14" lengthAdjust="spacing" textLength="186" x="757.5" y="481.8301">AcceptRejectInvitationService</text><rect fill="#E2E2F0" height="45.2813" rx="2.5" ry="2.5" style="stroke:#181818;stroke-width:0.5;" width="76" x="1056.5" y="36"/><text fill="#000000" font-family="sans-serif" font-size="14" font-style="italic" lengthAdjust="spacing" textLength="62" x="1063.5" y="55.6738">&#171;domain&#187;</text><text fill="#000000" font-family="sans-serif" font-size="14" lengthAdjust="spacing" textLength="56" x="1066.5" y="71.3145">Invitation</text><rect fill="#E2E2F0" height="45.2813" rx="2.5" ry="2.5" style="stroke:#181818;stroke-width:0.5;" width="76" x="1056.5" y="446.5156"/><text fill="#000000" font-family="sans-serif" font-size="14" font-style="italic" lengthAdjust="spacing" textLength="62" x="1063.5" y="466.1895">&#171;domain&#187;</text><text fill="#000000" font-family="sans-serif" font-size="14" lengthAdjust="spacing" textLength="56" x="1066.5" y="481.8301">Invitation</text><text fill="#000000" font-family="sans-serif" font-size="14" font-style="italic" lengthAdjust="spacing" textLength="79" x="1165" y="63.6738">&#171;repository&#187;</text><text fill="#000000" font-family="sans-serif" font-size="14" lengthAdjust="spacing" textLength="124" x="1142.5" y="79.3145">InvitationRepository</text><path d="M1189.5,15 C1189.5,5 1207.5,5 1207.5,5 C1207.5,5 1225.5,5 1225.5,15 L1225.5,41 C1225.5,51 1207.5,51 1207.5,51 C1207.5,51 1189.5,51 1189.5,41 L1189.5,15 " fill="#E2E2F0" style="stroke:#181818;stroke-width:1.5;"/><path d="M1189.5,15 C1189.5,25 1207.5,25 1207.5,25 C1207.5,25 1225.5,25 1225.5,15 " fill="none" style="stroke:#181818;stroke-width:1.5;"/><text fill="#000000" font-family="sans-serif" font-size="14" font-style="italic" lengthAdjust="spacing" textLength="79" x="1165" y="459.1895">&#171;repository&#187;</text><text fill="#000000" font-family="sans-serif" font-size="14" lengthAdjust="spacing" textLength="124" x="1142.5" y="474.8301">InvitationRepository</text><path d="M1189.5,487.7969 C1189.5,477.7969 1207.5,477.7969 1207.5,477.7969 C1207.5,477.7969 1225.5,477.7969 1225.5,487.7969 L1225.5,513.7969 C1225.5,523.7969 1207.5,523.7969 1207.5,523.7969 C1207.5,523.7969 1189.5,523.7969 1189.5,513.7969 L1189.5,487.7969 " fill="#E2E2F0" style="stroke:#181818;stroke-width:1.5;"/><path d="M1189.5,487.7969 C1189.5,497.7969 1207.5,497.7969 1207.5,497.7969 C1207.5,497.7969 1225.5,497.7969 1225.5,487.7969 " fill="none" style="stroke:#181818;stroke-width:1.5;"/><rect fill="#FFFFFF" height="316.7109" style="stroke:#181818;stroke-width:1.0;" width="10" x="17.5" y="112.8047"/><rect fill="#FFFFFF" height="316.7109" style="stroke:#181818;stroke-width:1.0;" width="10" x="221.5" y="112.8047"/><rect fill="#FFFFFF" height="259.6641" style="stroke:#181818;stroke-width:1.0;" width="10" x="533.5" y="141.3281"/><rect fill="#FFFFFF" height="202.6172" style="stroke:#181818;stroke-width:1.0;" width="10" x="845.5" y="169.8516"/><rect fill="#FFFFFF" height="30" style="stroke:#181818;stroke-width:1.0;" width="10" x="1089.5" y="255.4219"/><rect fill="#FFFFFF" height="28.5234" style="stroke:#181818;stroke-width:1.0;" width="10" x="1202.5" y="198.375"/><rect fill="#FFFFFF" height="30" style="stroke:#181818;stroke-width:1.0;" width="10" x="1202.5" y="313.9453"/><polygon fill="#181818" points="209.5,108.8047,219.5,112.8047,209.5,116.8047,213.5,112.8047" style="stroke:#181818;stroke-width:1.0;"/><line style="stroke:#181818;stroke-width:1.0;" x1="27.5" x2="215.5" y1="112.8047" y2="112.8047"/><text fill="#000000" font-family="sans-serif" font-size="13" font-weight="bold" lengthAdjust="spacing" textLength="7" x="34.5" y="108.0498">1</text><text fill="#000000" font-family="sans-serif" font-size="13" lengthAdjust="spacing" textLength="158" x="45.5" y="108.0498">Inserts invitation and status</text><polygon fill="#181818" points="521.5,137.3281,531.5,141.3281,521.5,145.3281,525.5,141.3281" style="stroke:#181818;stroke-width:1.0;"/><line style="stroke:#181818;stroke-width:1.0;" x1="231.5" x2="527.5" y1="141.3281" y2="141.3281"/><text fill="#000000" font-family="sans-serif" font-size="13" font-weight="bold" lengthAdjust="spacing" textLength="7" x="238.5" y="136.5732">2</text><text fill="#000000" font-family="sans-serif" font-size="13" lengthAdjust="spacing" textLength="272" x="249.5" y="136.5732">updateResponseStatus(invitationId, newStatus)</text><polygon fill="#181818" points="833.5,165.8516,843.5,169.8516,833.5,173.8516,837.5,169.8516" style="stroke:#181818;stroke-width:1.0;"/><line style="stroke:#181818;stroke-width:1.0;" x1="543.5" x2="839.5" y1="169.8516" y2="169.8516"/><text fill="#000000" font-family="sans-serif" font-size="13" font-weight="bold" lengthAdjust="spacing" textLength="7" x="550.5" y="165.0967">3</text><text fill="#000000" font-family="sans-serif" font-size="13" lengthAdjust="spacing" textLength="272" x="561.5" y="165.0967">updateResponseStatus(invitationId, newStatus)</text><polygon fill="#181818" points="1190.5,194.375,1200.5,198.375,1190.5,202.375,1194.5,198.375" style="stroke:#181818;stroke-width:1.0;"/><line style="stroke:#181818;stroke-width:1.0;" x1="855.5" x2="1196.5" y1="198.375" y2="198.375"/><text fill="#000000" font-family="sans-serif" font-size="13" font-weight="bold" lengthAdjust="spacing" textLength="7" x="862.5" y="193.6201">4</text><text fill="#000000" font-family="sans-serif" font-size="13" lengthAdjust="spacing" textLength="120" x="873.5" y="193.6201">ofIdentity(invitationId)</text><polygon fill="#181818" points="866.5,222.8984,856.5,226.8984,866.5,230.8984,862.5,226.8984" style="stroke:#181818;stroke-width:1.0;"/><line style="stroke:#181818;stroke-width:1.0;stroke-dasharray:2.0,2.0;" x1="860.5" x2="1206.5" y1="226.8984" y2="226.8984"/><text fill="#000000" font-family="sans-serif" font-size="13" font-weight="bold" lengthAdjust="spacing" textLength="7" x="872.5" y="222.1436">5</text><text fill="#000000" font-family="sans-serif" font-size="13" lengthAdjust="spacing" textLength="50" x="883.5" y="222.1436">invitation</text><polygon fill="#181818" points="1077.5,251.4219,1087.5,255.4219,1077.5,259.4219,1081.5,255.4219" style="stroke:#181818;stroke-width:1.0;"/><line style="stroke:#181818;stroke-width:1.0;" x1="855.5" x2="1083.5" y1="255.4219" y2="255.4219"/><text fill="#000000" font-family="sans-serif" font-size="13" font-weight="bold" lengthAdjust="spacing" textLength="7" x="862.5" y="250.667">6</text><text fill="#000000" font-family="sans-serif" font-size="13" lengthAdjust="spacing" textLength="204" x="873.5" y="250.667">updateResponseStatus(newStatus)</text><polygon fill="#181818" points="1190.5,309.9453,1200.5,313.9453,1190.5,317.9453,1194.5,313.9453" style="stroke:#181818;stroke-width:1.0;"/><line style="stroke:#181818;stroke-width:1.0;" x1="855.5" x2="1196.5" y1="313.9453" y2="313.9453"/><text fill="#000000" font-family="sans-serif" font-size="13" font-weight="bold" lengthAdjust="spacing" textLength="7" x="862.5" y="309.1904">7</text><text fill="#000000" font-family="sans-serif" font-size="13" lengthAdjust="spacing" textLength="84" x="873.5" y="309.1904">save(invitation)</text><polygon fill="#181818" points="554.5,368.4688,544.5,372.4688,554.5,376.4688,550.5,372.4688" style="stroke:#181818;stroke-width:1.0;"/><line style="stroke:#181818;stroke-width:1.0;stroke-dasharray:2.0,2.0;" x1="548.5" x2="849.5" y1="372.4688" y2="372.4688"/><text fill="#000000" font-family="sans-serif" font-size="13" font-weight="bold" lengthAdjust="spacing" textLength="7" x="560.5" y="367.7139">8</text><text fill="#000000" font-family="sans-serif" font-size="13" lengthAdjust="spacing" textLength="152" x="571.5" y="367.7139">Informs operation success</text><polygon fill="#181818" points="242.5,396.9922,232.5,400.9922,242.5,404.9922,238.5,400.9922" style="stroke:#181818;stroke-width:1.0;"/><line style="stroke:#181818;stroke-width:1.0;stroke-dasharray:2.0,2.0;" x1="236.5" x2="537.5" y1="400.9922" y2="400.9922"/><text fill="#000000" font-family="sans-serif" font-size="13" font-weight="bold" lengthAdjust="spacing" textLength="7" x="248.5" y="396.2373">9</text><text fill="#000000" font-family="sans-serif" font-size="13" lengthAdjust="spacing" textLength="152" x="259.5" y="396.2373">Informs operation success</text><polygon fill="#181818" points="33.5,425.5156,23.5,429.5156,33.5,433.5156,29.5,429.5156" style="stroke:#181818;stroke-width:1.0;"/><line style="stroke:#181818;stroke-width:1.0;stroke-dasharray:2.0,2.0;" x1="27.5" x2="225.5" y1="429.5156" y2="429.5156"/><text fill="#000000" font-family="sans-serif" font-size="13" font-weight="bold" lengthAdjust="spacing" textLength="14" x="39.5" y="424.7607">10</text><text fill="#000000" font-family="sans-serif" font-size="13" lengthAdjust="spacing" textLength="152" x="57.5" y="424.7607">Informs operation success</text><!--SRC=[dP9DQiCm48NtEeMMBJGN224GZ1U241VbPriKUG8gYIGqiajktx4TsqhQfA4ROqdlVJDw6bL5PwlJ7W9JEhh0jmY1A-IBR5D8vbM8HXklREGBhS572P-Wex2rYIeQPxUYKTDtDlC146otFPypxMmCxdZ7btMdnwvQLgmsibWkSqaSvVtHw1xpTmjh2BNHq73MkTo9B7y86OsDGwnsf2xTIPb6MAgezWeXKKdm3WrbSxxeFsJ-Nf0f30TaP6rWV3AdBARafXWZSfFKiYL7-g-mIThKAi8bv66v5Oo294GInvHNdfe22UWTKTSjucK4Y_ADM_Zgzbz7sCXW2OxWVKR_9by0ZFKaWWwnJBaxY9B6mCJp5Ii1z68sk2PNVOqsLi9FrqtTUnVvhNMIto3ltG9L3Kd_ltN_kBVRPnJsuC89kVCGked0YiOPCUNqqQOlrexKiu3arPjH8cytbq_QQGAJLMlz1W00]--></g></svg>