<?xml version="1.0" encoding="us-ascii" standalone="no"?><svg xmlns="http://www.w3.org/2000/svg" xmlns:xlink="http://www.w3.org/1999/xlink" contentStyleType="text/css" height="397px" preserveAspectRatio="none" style="width:755px;height:397px;background:#FFFFFF;" version="1.1" viewBox="0 0 755 397" width="755px" zoomAndPan="magnify"><defs/><g><rect fill="#FFFFFF" height="173.1406" style="stroke:#181818;stroke-width:1.0;" width="10" x="325" y="112.8047"/><rect fill="#FFFFFF" height="28.5234" style="stroke:#181818;stroke-width:1.0;" width="10" x="510.5" y="221.8984"/><rect fill="#FFFFFF" height="28.5234" style="stroke:#181818;stroke-width:1.0;" width="10" x="684" y="141.3281"/><rect fill="none" height="73.5703" style="stroke:#000000;stroke-width:1.5;" width="381" x="242.5" y="184.8516"/><line style="stroke:#181818;stroke-width:0.5;stroke-dasharray:5.0,5.0;" x1="105" x2="105" y1="82.2813" y2="303.9453"/><line style="stroke:#181818;stroke-width:0.5;stroke-dasharray:5.0,5.0;" x1="329.5" x2="329.5" y1="82.2813" y2="303.9453"/><line style="stroke:#181818;stroke-width:0.5;stroke-dasharray:5.0,5.0;" x1="515.5" x2="515.5" y1="82.2813" y2="303.9453"/><line style="stroke:#181818;stroke-width:0.5;stroke-dasharray:5.0,5.0;" x1="688.5" x2="688.5" y1="82.2813" y2="303.9453"/><text fill="#000000" font-family="sans-serif" font-size="14" font-style="italic" lengthAdjust="spacing" textLength="85" x="59.5" y="63.6738">&#171;Application&#187;</text><text fill="#000000" font-family="sans-serif" font-size="14" lengthAdjust="spacing" textLength="194" x="5" y="79.3145">ListCourseQuestionsController</text><ellipse cx="105" cy="35" fill="#E2E2F0" rx="12" ry="12" style="stroke:#181818;stroke-width:0.5;"/><polygon fill="#181818" points="101,23,107,18,105,23,107,28,101,23" style="stroke:#181818;stroke-width:1.0;"/><text fill="#000000" font-family="sans-serif" font-size="14" font-style="italic" lengthAdjust="spacing" textLength="85" x="59.5" y="315.6191">&#171;Application&#187;</text><text fill="#000000" font-family="sans-serif" font-size="14" lengthAdjust="spacing" textLength="194" x="5" y="331.2598">ListCourseQuestionsController</text><ellipse cx="105" cy="350.2266" fill="#E2E2F0" rx="12" ry="12" style="stroke:#181818;stroke-width:0.5;"/><polygon fill="#181818" points="101,338.2266,107,333.2266,105,338.2266,107,343.2266,101,338.2266" style="stroke:#181818;stroke-width:1.0;"/><rect fill="#E2E2F0" height="45.2813" rx="2.5" ry="2.5" style="stroke:#181818;stroke-width:0.5;" width="155" x="252.5" y="36"/><text fill="#000000" font-family="sans-serif" font-size="14" font-style="italic" lengthAdjust="spacing" textLength="62" x="299" y="55.6738">&#171;Service&#187;</text><text fill="#000000" font-family="sans-serif" font-size="14" lengthAdjust="spacing" textLength="141" x="259.5" y="71.3145">: ListQuestionsService</text><rect fill="#E2E2F0" height="45.2813" rx="2.5" ry="2.5" style="stroke:#181818;stroke-width:0.5;" width="155" x="252.5" y="302.9453"/><text fill="#000000" font-family="sans-serif" font-size="14" font-style="italic" lengthAdjust="spacing" textLength="62" x="299" y="322.6191">&#171;Service&#187;</text><text fill="#000000" font-family="sans-serif" font-size="14" lengthAdjust="spacing" textLength="141" x="259.5" y="338.2598">: ListQuestionsService</text><rect fill="#E2E2F0" height="45.2813" rx="2.5" ry="2.5" style="stroke:#181818;stroke-width:0.5;" width="196" x="417.5" y="36"/><text fill="#000000" font-family="sans-serif" font-size="14" font-style="italic" lengthAdjust="spacing" textLength="46" x="492.5" y="55.6738">&#171;DTO&#187;</text><text fill="#000000" font-family="sans-serif" font-size="14" lengthAdjust="spacing" textLength="182" x="424.5" y="71.3145">: QuestionDTOWithIdMapper</text><rect fill="#E2E2F0" height="45.2813" rx="2.5" ry="2.5" style="stroke:#181818;stroke-width:0.5;" width="196" x="417.5" y="302.9453"/><text fill="#000000" font-family="sans-serif" font-size="14" font-style="italic" lengthAdjust="spacing" textLength="46" x="492.5" y="322.6191">&#171;DTO&#187;</text><text fill="#000000" font-family="sans-serif" font-size="14" lengthAdjust="spacing" textLength="182" x="424.5" y="338.2598">: QuestionDTOWithIdMapper</text><text fill="#000000" font-family="sans-serif" font-size="14" font-style="italic" lengthAdjust="spacing" textLength="84" x="644" y="63.6738">&#171;Repository&#187;</text><text fill="#000000" font-family="sans-serif" font-size="14" lengthAdjust="spacing" textLength="125" x="623.5" y="79.3145">QuestionRepository</text><path d="M671,15 C671,5 689,5 689,5 C689,5 707,5 707,15 L707,41 C707,51 689,51 689,51 C689,51 671,51 671,41 L671,15 " fill="#E2E2F0" style="stroke:#181818;stroke-width:1.5;"/><path d="M671,15 C671,25 689,25 689,25 C689,25 707,25 707,15 " fill="none" style="stroke:#181818;stroke-width:1.5;"/><text fill="#000000" font-family="sans-serif" font-size="14" font-style="italic" lengthAdjust="spacing" textLength="84" x="644" y="315.6191">&#171;Repository&#187;</text><text fill="#000000" font-family="sans-serif" font-size="14" lengthAdjust="spacing" textLength="125" x="623.5" y="331.2598">QuestionRepository</text><path d="M671,344.2266 C671,334.2266 689,334.2266 689,334.2266 C689,334.2266 707,334.2266 707,344.2266 L707,370.2266 C707,380.2266 689,380.2266 689,380.2266 C689,380.2266 671,380.2266 671,370.2266 L671,344.2266 " fill="#E2E2F0" style="stroke:#181818;stroke-width:1.5;"/><path d="M671,344.2266 C671,354.2266 689,354.2266 689,354.2266 C689,354.2266 707,354.2266 707,344.2266 " fill="none" style="stroke:#181818;stroke-width:1.5;"/><rect fill="#FFFFFF" height="173.1406" style="stroke:#181818;stroke-width:1.0;" width="10" x="325" y="112.8047"/><rect fill="#FFFFFF" height="28.5234" style="stroke:#181818;stroke-width:1.0;" width="10" x="510.5" y="221.8984"/><rect fill="#FFFFFF" height="28.5234" style="stroke:#181818;stroke-width:1.0;" width="10" x="684" y="141.3281"/><polygon fill="#181818" points="313,108.8047,323,112.8047,313,116.8047,317,112.8047" style="stroke:#181818;stroke-width:1.0;"/><line style="stroke:#181818;stroke-width:1.0;" x1="105" x2="319" y1="112.8047" y2="112.8047"/><text fill="#000000" font-family="sans-serif" font-size="13" font-weight="bold" lengthAdjust="spacing" textLength="7" x="112" y="108.0498">1</text><text fill="#000000" font-family="sans-serif" font-size="13" lengthAdjust="spacing" textLength="190" x="123" y="108.0498">listCourseQuestions(courseDTO)</text><polygon fill="#181818" points="672,137.3281,682,141.3281,672,145.3281,676,141.3281" style="stroke:#181818;stroke-width:1.0;"/><line style="stroke:#181818;stroke-width:1.0;" x1="335" x2="678" y1="141.3281" y2="141.3281"/><text fill="#000000" font-family="sans-serif" font-size="13" font-weight="bold" lengthAdjust="spacing" textLength="7" x="342" y="136.5732">2</text><text fill="#000000" font-family="sans-serif" font-size="13" lengthAdjust="spacing" textLength="269" x="353" y="136.5732">listQuestionsByCourseId(courseDTO.courseId)</text><polygon fill="#181818" points="346,165.8516,336,169.8516,346,173.8516,342,169.8516" style="stroke:#181818;stroke-width:1.0;"/><line style="stroke:#181818;stroke-width:1.0;stroke-dasharray:2.0,2.0;" x1="340" x2="688" y1="169.8516" y2="169.8516"/><text fill="#000000" font-family="sans-serif" font-size="13" font-weight="bold" lengthAdjust="spacing" textLength="7" x="352" y="165.0967">3</text><text fill="#000000" font-family="sans-serif" font-size="13" lengthAdjust="spacing" textLength="70" x="363" y="165.0967">questionList</text><path d="M242.5,184.8516 L315.5,184.8516 L315.5,191.375 L305.5,201.375 L242.5,201.375 L242.5,184.8516 " fill="#EEEEEE" style="stroke:#000000;stroke-width:1.5;"/><rect fill="none" height="73.5703" style="stroke:#000000;stroke-width:1.5;" width="381" x="242.5" y="184.8516"/><text fill="#000000" font-family="sans-serif" font-size="13" font-weight="bold" lengthAdjust="spacing" textLength="28" x="257.5" y="197.6201">loop</text><text fill="#000000" font-family="sans-serif" font-size="11" font-weight="bold" lengthAdjust="spacing" textLength="191" x="330.5" y="196.8096">[for each question in questionList]</text><polygon fill="#181818" points="498.5,217.8984,508.5,221.8984,498.5,225.8984,502.5,221.8984" style="stroke:#181818;stroke-width:1.0;"/><line style="stroke:#181818;stroke-width:1.0;" x1="335" x2="504.5" y1="221.8984" y2="221.8984"/><text fill="#000000" font-family="sans-serif" font-size="13" font-weight="bold" lengthAdjust="spacing" textLength="7" x="342" y="217.1436">4</text><text fill="#000000" font-family="sans-serif" font-size="13" lengthAdjust="spacing" textLength="74" x="353" y="217.1436">toDTOWithId</text><polygon fill="#181818" points="346,246.4219,336,250.4219,346,254.4219,342,250.4219" style="stroke:#181818;stroke-width:1.0;"/><line style="stroke:#181818;stroke-width:1.0;stroke-dasharray:2.0,2.0;" x1="340" x2="514.5" y1="250.4219" y2="250.4219"/><text fill="#000000" font-family="sans-serif" font-size="13" font-weight="bold" lengthAdjust="spacing" textLength="7" x="352" y="245.667">5</text><text fill="#000000" font-family="sans-serif" font-size="13" lengthAdjust="spacing" textLength="75" x="363" y="245.667">questionDTO</text><polygon fill="#181818" points="116,281.9453,106,285.9453,116,289.9453,112,285.9453" style="stroke:#181818;stroke-width:1.0;"/><line style="stroke:#181818;stroke-width:1.0;stroke-dasharray:2.0,2.0;" x1="110" x2="329" y1="285.9453" y2="285.9453"/><text fill="#000000" font-family="sans-serif" font-size="13" font-weight="bold" lengthAdjust="spacing" textLength="7" x="122" y="281.1904">6</text><text fill="#000000" font-family="sans-serif" font-size="13" lengthAdjust="spacing" textLength="96" x="133" y="281.1904">questionDTOList</text><!--SRC=[PP3DRi8m48Jl-nGMbxO7u8uGKailI4HL0bBFYxCjbXpRs1iathxh98IV7hqxtynuNuxC8Itcys3HSTlOcVRDFD6f9QTfMXlyZTW0OClUjSs18W1expXwgoPRatZjsvYeR2cnyIwj-vsbE56Or7fVRTLo-Hw2DHgpOhM2W96DDa4IrMIXiil8xoYUZQOEtfOxOOU9SC_W5VhSVtqRFcxg0aCOWij2K5a8LYFZ0HED-eg2JuPzl7JAIfItKSxfMazNNO65ilz_-Qgxj_Y_0MesPsJAQe2C22ccFJWY7vVUOrFVu9aUHdSkPGK2JyVqqs2GhmGrtUkizq7z-AXaUXo5ohX7w5gf43Vsux7k8WkGvVz8aJua5a2kLZcrznIWkzG3yTmpN-KF]--></g></svg>