<?xml version="1.0" encoding="us-ascii" standalone="no"?><svg xmlns="http://www.w3.org/2000/svg" xmlns:xlink="http://www.w3.org/1999/xlink" contentStyleType="text/css" height="709px" preserveAspectRatio="none" style="width:1667px;height:709px;background:#FFFFFF;" version="1.1" viewBox="0 0 1667 709" width="1667px" zoomAndPan="magnify"><defs/><g><text fill="#000000" font-family="sans-serif" font-size="14" font-weight="bold" lengthAdjust="spacing" textLength="118" x="776" y="27.6738">Update Question</text><rect fill="#FFFFFF" height="477.8047" style="stroke:#181818;stroke-width:1.0;" width="10" x="29.5" y="128.9219"/><rect fill="#FFFFFF" height="442.7578" style="stroke:#181818;stroke-width:1.0;" width="10" x="276.5" y="163.9688"/><rect fill="#FFFFFF" height="376.7109" style="stroke:#181818;stroke-width:1.0;" width="10" x="596.5" y="192.4922"/><rect fill="#FFFFFF" height="348.1875" style="stroke:#181818;stroke-width:1.0;" width="10" x="916.5" y="221.0156"/><rect fill="#FFFFFF" height="30" style="stroke:#181818;stroke-width:1.0;" width="10" x="1118.5" y="480.6797"/><rect fill="#FFFFFF" height="30" style="stroke:#181818;stroke-width:1.0;" width="10" x="1213" y="249.5391"/><rect fill="#FFFFFF" height="28.5234" style="stroke:#181818;stroke-width:1.0;" width="10" x="1349" y="365.1094"/><rect fill="#FFFFFF" height="30" style="stroke:#181818;stroke-width:1.0;" width="10" x="1480" y="422.1563"/><rect fill="#FFFFFF" height="28.5234" style="stroke:#181818;stroke-width:1.0;" width="10" x="1595.5" y="308.0625"/><rect fill="#FFFFFF" height="30" style="stroke:#181818;stroke-width:1.0;" width="10" x="1595.5" y="539.2031"/><line style="stroke:#181818;stroke-width:0.5;stroke-dasharray:5.0,5.0;" x1="34" x2="34" y1="118.9219" y2="615.7266"/><line style="stroke:#181818;stroke-width:0.5;stroke-dasharray:5.0,5.0;" x1="281.5" x2="281.5" y1="118.9219" y2="615.7266"/><line style="stroke:#181818;stroke-width:0.5;stroke-dasharray:5.0,5.0;" x1="601.5" x2="601.5" y1="118.9219" y2="615.7266"/><line style="stroke:#181818;stroke-width:0.5;stroke-dasharray:5.0,5.0;" x1="921.5" x2="921.5" y1="118.9219" y2="615.7266"/><line style="stroke:#181818;stroke-width:0.5;stroke-dasharray:5.0,5.0;" x1="1123" x2="1123" y1="118.9219" y2="615.7266"/><line style="stroke:#181818;stroke-width:0.5;stroke-dasharray:5.0,5.0;" x1="1218" x2="1218" y1="118.9219" y2="615.7266"/><line style="stroke:#181818;stroke-width:0.5;stroke-dasharray:5.0,5.0;" x1="1354" x2="1354" y1="118.9219" y2="615.7266"/><line style="stroke:#181818;stroke-width:0.5;stroke-dasharray:5.0,5.0;" x1="1485" x2="1485" y1="118.9219" y2="615.7266"/><line style="stroke:#181818;stroke-width:0.5;stroke-dasharray:5.0,5.0;" x1="1600" x2="1600" y1="118.9219" y2="615.7266"/><text fill="#000000" font-family="sans-serif" font-size="14" lengthAdjust="spacing" textLength="53" x="5" y="115.9551">Teacher</text><ellipse cx="34.5" cy="51.7813" fill="#E2E2F0" rx="8" ry="8" style="stroke:#181818;stroke-width:0.5;"/><path d="M34.5,59.7813 L34.5,86.7813 M21.5,67.7813 L47.5,67.7813 M34.5,86.7813 L21.5,101.7813 M34.5,86.7813 L47.5,101.7813 " fill="none" style="stroke:#181818;stroke-width:0.5;"/><text fill="#000000" font-family="sans-serif" font-size="14" lengthAdjust="spacing" textLength="53" x="5" y="627.4004">Teacher</text><ellipse cx="34.5" cy="638.8672" fill="#E2E2F0" rx="8" ry="8" style="stroke:#181818;stroke-width:0.5;"/><path d="M34.5,646.8672 L34.5,673.8672 M21.5,654.8672 L47.5,654.8672 M34.5,673.8672 L21.5,688.8672 M34.5,673.8672 L47.5,688.8672 " fill="none" style="stroke:#181818;stroke-width:0.5;"/><rect fill="#E2E2F0" height="45.2813" rx="2.5" ry="2.5" style="stroke:#181818;stroke-width:0.5;" width="136" x="213.5" y="72.6406"/><text fill="#000000" font-family="sans-serif" font-size="14" font-style="italic" lengthAdjust="spacing" textLength="96" x="233.5" y="92.3145">&#171;Presentation&#187;</text><text fill="#000000" font-family="sans-serif" font-size="14" lengthAdjust="spacing" textLength="122" x="220.5" y="107.9551">: UpdateQuestionUI</text><rect fill="#E2E2F0" height="45.2813" rx="2.5" ry="2.5" style="stroke:#181818;stroke-width:0.5;" width="136" x="213.5" y="614.7266"/><text fill="#000000" font-family="sans-serif" font-size="14" font-style="italic" lengthAdjust="spacing" textLength="96" x="233.5" y="634.4004">&#171;Presentation&#187;</text><text fill="#000000" font-family="sans-serif" font-size="14" lengthAdjust="spacing" textLength="122" x="220.5" y="650.041">: UpdateQuestionUI</text><text fill="#000000" font-family="sans-serif" font-size="14" font-style="italic" lengthAdjust="spacing" textLength="85" x="556" y="100.3145">&#171;Application&#187;</text><text fill="#000000" font-family="sans-serif" font-size="14" lengthAdjust="spacing" textLength="164" x="516.5" y="115.9551">UpdateQuestionController</text><ellipse cx="601.5" cy="71.6406" fill="#E2E2F0" rx="12" ry="12" style="stroke:#181818;stroke-width:0.5;"/><polygon fill="#181818" points="597.5,59.6406,603.5,54.6406,601.5,59.6406,603.5,64.6406,597.5,59.6406" style="stroke:#181818;stroke-width:1.0;"/><text fill="#000000" font-family="sans-serif" font-size="14" font-style="italic" lengthAdjust="spacing" textLength="85" x="556" y="627.4004">&#171;Application&#187;</text><text fill="#000000" font-family="sans-serif" font-size="14" lengthAdjust="spacing" textLength="164" x="516.5" y="643.041">UpdateQuestionController</text><ellipse cx="601.5" cy="662.0078" fill="#E2E2F0" rx="12" ry="12" style="stroke:#181818;stroke-width:0.5;"/><polygon fill="#181818" points="597.5,650.0078,603.5,645.0078,601.5,650.0078,603.5,655.0078,597.5,650.0078" style="stroke:#181818;stroke-width:1.0;"/><rect fill="#E2E2F0" height="45.2813" rx="2.5" ry="2.5" style="stroke:#181818;stroke-width:0.5;" width="196" x="823.5" y="72.6406"/><text fill="#000000" font-family="sans-serif" font-size="14" font-style="italic" lengthAdjust="spacing" textLength="62" x="890.5" y="92.3145">&#171;Service&#187;</text><text fill="#000000" font-family="sans-serif" font-size="14" lengthAdjust="spacing" textLength="182" x="830.5" y="107.9551">: AddUpdateQuestionService</text><rect fill="#E2E2F0" height="45.2813" rx="2.5" ry="2.5" style="stroke:#181818;stroke-width:0.5;" width="196" x="823.5" y="614.7266"/><text fill="#000000" font-family="sans-serif" font-size="14" font-style="italic" lengthAdjust="spacing" textLength="62" x="890.5" y="634.4004">&#171;Service&#187;</text><text fill="#000000" font-family="sans-serif" font-size="14" lengthAdjust="spacing" textLength="182" x="830.5" y="650.041">: AddUpdateQuestionService</text><rect fill="#E2E2F0" height="45.2813" rx="2.5" ry="2.5" style="stroke:#181818;stroke-width:0.5;" width="79" x="1084" y="72.6406"/><text fill="#000000" font-family="sans-serif" font-size="14" font-style="italic" lengthAdjust="spacing" textLength="64" x="1091.5" y="92.3145">&#171;Domain&#187;</text><text fill="#000000" font-family="sans-serif" font-size="14" lengthAdjust="spacing" textLength="65" x="1091" y="107.9551">: Question</text><rect fill="#E2E2F0" height="45.2813" rx="2.5" ry="2.5" style="stroke:#181818;stroke-width:0.5;" width="79" x="1084" y="614.7266"/><text fill="#000000" font-family="sans-serif" font-size="14" font-style="italic" lengthAdjust="spacing" textLength="64" x="1091.5" y="634.4004">&#171;Domain&#187;</text><text fill="#000000" font-family="sans-serif" font-size="14" lengthAdjust="spacing" textLength="65" x="1091" y="650.041">: Question</text><rect fill="#E2E2F0" height="45.2813" rx="2.5" ry="2.5" style="stroke:#181818;stroke-width:0.5;" width="90" x="1173" y="72.6406"/><text fill="#000000" font-family="sans-serif" font-size="14" font-style="italic" lengthAdjust="spacing" textLength="64" x="1186" y="92.3145">&#171;Domain&#187;</text><text fill="#000000" font-family="sans-serif" font-size="14" lengthAdjust="spacing" textLength="76" x="1180" y="107.9551">: QuestionId</text><rect fill="#E2E2F0" height="45.2813" rx="2.5" ry="2.5" style="stroke:#181818;stroke-width:0.5;" width="90" x="1173" y="614.7266"/><text fill="#000000" font-family="sans-serif" font-size="14" font-style="italic" lengthAdjust="spacing" textLength="64" x="1186" y="634.4004">&#171;Domain&#187;</text><text fill="#000000" font-family="sans-serif" font-size="14" lengthAdjust="spacing" textLength="76" x="1180" y="650.041">: QuestionId</text><rect fill="#E2E2F0" height="45.2813" rx="2.5" ry="2.5" style="stroke:#181818;stroke-width:0.5;" width="162" x="1273" y="72.6406"/><text fill="#000000" font-family="sans-serif" font-size="14" font-style="italic" lengthAdjust="spacing" textLength="62" x="1323" y="92.3145">&#171;Service&#187;</text><text fill="#000000" font-family="sans-serif" font-size="14" lengthAdjust="spacing" textLength="148" x="1280" y="107.9551">: VerifyQuestionService</text><rect fill="#E2E2F0" height="45.2813" rx="2.5" ry="2.5" style="stroke:#181818;stroke-width:0.5;" width="162" x="1273" y="614.7266"/><text fill="#000000" font-family="sans-serif" font-size="14" font-style="italic" lengthAdjust="spacing" textLength="62" x="1323" y="634.4004">&#171;Service&#187;</text><text fill="#000000" font-family="sans-serif" font-size="14" lengthAdjust="spacing" textLength="148" x="1280" y="650.041">: VerifyQuestionService</text><rect fill="#E2E2F0" height="45.2813" rx="2.5" ry="2.5" style="stroke:#181818;stroke-width:0.5;" width="80" x="1445" y="72.6406"/><text fill="#000000" font-family="sans-serif" font-size="14" font-style="italic" lengthAdjust="spacing" textLength="64" x="1453" y="92.3145">&#171;Domain&#187;</text><text fill="#000000" font-family="sans-serif" font-size="14" lengthAdjust="spacing" textLength="66" x="1452" y="107.9551">: Structure</text><rect fill="#E2E2F0" height="45.2813" rx="2.5" ry="2.5" style="stroke:#181818;stroke-width:0.5;" width="80" x="1445" y="614.7266"/><text fill="#000000" font-family="sans-serif" font-size="14" font-style="italic" lengthAdjust="spacing" textLength="64" x="1453" y="634.4004">&#171;Domain&#187;</text><text fill="#000000" font-family="sans-serif" font-size="14" lengthAdjust="spacing" textLength="66" x="1452" y="650.041">: Structure</text><text fill="#000000" font-family="sans-serif" font-size="14" font-style="italic" lengthAdjust="spacing" textLength="84" x="1555.5" y="100.3145">&#171;Repository&#187;</text><text fill="#000000" font-family="sans-serif" font-size="14" lengthAdjust="spacing" textLength="125" x="1535" y="115.9551">QuestionRepository</text><path d="M1582.5,51.6406 C1582.5,41.6406 1600.5,41.6406 1600.5,41.6406 C1600.5,41.6406 1618.5,41.6406 1618.5,51.6406 L1618.5,77.6406 C1618.5,87.6406 1600.5,87.6406 1600.5,87.6406 C1600.5,87.6406 1582.5,87.6406 1582.5,77.6406 L1582.5,51.6406 " fill="#E2E2F0" style="stroke:#181818;stroke-width:1.5;"/><path d="M1582.5,51.6406 C1582.5,61.6406 1600.5,61.6406 1600.5,61.6406 C1600.5,61.6406 1618.5,61.6406 1618.5,51.6406 " fill="none" style="stroke:#181818;stroke-width:1.5;"/><text fill="#000000" font-family="sans-serif" font-size="14" font-style="italic" lengthAdjust="spacing" textLength="84" x="1555.5" y="627.4004">&#171;Repository&#187;</text><text fill="#000000" font-family="sans-serif" font-size="14" lengthAdjust="spacing" textLength="125" x="1535" y="643.041">QuestionRepository</text><path d="M1582.5,656.0078 C1582.5,646.0078 1600.5,646.0078 1600.5,646.0078 C1600.5,646.0078 1618.5,646.0078 1618.5,656.0078 L1618.5,682.0078 C1618.5,692.0078 1600.5,692.0078 1600.5,692.0078 C1600.5,692.0078 1582.5,692.0078 1582.5,682.0078 L1582.5,656.0078 " fill="#E2E2F0" style="stroke:#181818;stroke-width:1.5;"/><path d="M1582.5,656.0078 C1582.5,666.0078 1600.5,666.0078 1600.5,666.0078 C1600.5,666.0078 1618.5,666.0078 1618.5,656.0078 " fill="none" style="stroke:#181818;stroke-width:1.5;"/><rect fill="#FFFFFF" height="477.8047" style="stroke:#181818;stroke-width:1.0;" width="10" x="29.5" y="128.9219"/><rect fill="#FFFFFF" height="442.7578" style="stroke:#181818;stroke-width:1.0;" width="10" x="276.5" y="163.9688"/><rect fill="#FFFFFF" height="376.7109" style="stroke:#181818;stroke-width:1.0;" width="10" x="596.5" y="192.4922"/><rect fill="#FFFFFF" height="348.1875" style="stroke:#181818;stroke-width:1.0;" width="10" x="916.5" y="221.0156"/><rect fill="#FFFFFF" height="30" style="stroke:#181818;stroke-width:1.0;" width="10" x="1118.5" y="480.6797"/><rect fill="#FFFFFF" height="30" style="stroke:#181818;stroke-width:1.0;" width="10" x="1213" y="249.5391"/><rect fill="#FFFFFF" height="28.5234" style="stroke:#181818;stroke-width:1.0;" width="10" x="1349" y="365.1094"/><rect fill="#FFFFFF" height="30" style="stroke:#181818;stroke-width:1.0;" width="10" x="1480" y="422.1563"/><rect fill="#FFFFFF" height="28.5234" style="stroke:#181818;stroke-width:1.0;" width="10" x="1595.5" y="308.0625"/><rect fill="#FFFFFF" height="30" style="stroke:#181818;stroke-width:1.0;" width="10" x="1595.5" y="539.2031"/><polygon fill="#181818" points="264.5,159.9688,274.5,163.9688,264.5,167.9688,268.5,163.9688" style="stroke:#181818;stroke-width:1.0;"/><line style="stroke:#181818;stroke-width:1.0;" x1="39.5" x2="270.5" y1="163.9688" y2="163.9688"/><text fill="#000000" font-family="sans-serif" font-size="13" font-weight="bold" lengthAdjust="spacing" textLength="7" x="46.5" y="151.9521">1</text><text fill="#000000" font-family="sans-serif" font-size="13" lengthAdjust="spacing" textLength="203" x="57.5" y="144.6904">chooses a question and inserts the</text><text fill="#000000" font-family="sans-serif" font-size="13" lengthAdjust="spacing" textLength="132" x="57.5" y="159.2139">path of the new version</text><polygon fill="#181818" points="584.5,188.4922,594.5,192.4922,584.5,196.4922,588.5,192.4922" style="stroke:#181818;stroke-width:1.0;"/><line style="stroke:#181818;stroke-width:1.0;" x1="286.5" x2="590.5" y1="192.4922" y2="192.4922"/><text fill="#000000" font-family="sans-serif" font-size="13" font-weight="bold" lengthAdjust="spacing" textLength="7" x="293.5" y="187.7373">2</text><text fill="#000000" font-family="sans-serif" font-size="13" lengthAdjust="spacing" textLength="280" x="304.5" y="187.7373">updateQuestion(questionDTO, updatedQuestion)</text><polygon fill="#181818" points="904.5,217.0156,914.5,221.0156,904.5,225.0156,908.5,221.0156" style="stroke:#181818;stroke-width:1.0;"/><line style="stroke:#181818;stroke-width:1.0;" x1="606.5" x2="910.5" y1="221.0156" y2="221.0156"/><text fill="#000000" font-family="sans-serif" font-size="13" font-weight="bold" lengthAdjust="spacing" textLength="7" x="613.5" y="216.2607">3</text><text fill="#000000" font-family="sans-serif" font-size="13" lengthAdjust="spacing" textLength="280" x="624.5" y="216.2607">updateQuestion(questionDTO, updatedQuestion)</text><polygon fill="#181818" points="1201,245.5391,1211,249.5391,1201,253.5391,1205,249.5391" style="stroke:#181818;stroke-width:1.0;"/><line style="stroke:#181818;stroke-width:1.0;" x1="926.5" x2="1207" y1="249.5391" y2="249.5391"/><text fill="#000000" font-family="sans-serif" font-size="13" font-weight="bold" lengthAdjust="spacing" textLength="7" x="933.5" y="244.7842">4</text><text fill="#000000" font-family="sans-serif" font-size="13" lengthAdjust="spacing" textLength="182" x="944.5" y="244.7842">create(questionDTO.questionId)</text><polygon fill="#181818" points="1583.5,304.0625,1593.5,308.0625,1583.5,312.0625,1587.5,308.0625" style="stroke:#181818;stroke-width:1.0;"/><line style="stroke:#181818;stroke-width:1.0;" x1="926.5" x2="1589.5" y1="308.0625" y2="308.0625"/><text fill="#000000" font-family="sans-serif" font-size="13" font-weight="bold" lengthAdjust="spacing" textLength="7" x="933.5" y="303.3076">5</text><text fill="#000000" font-family="sans-serif" font-size="13" lengthAdjust="spacing" textLength="122" x="944.5" y="303.3076">ofIdentity(QuestionId)</text><polygon fill="#181818" points="937.5,332.5859,927.5,336.5859,937.5,340.5859,933.5,336.5859" style="stroke:#181818;stroke-width:1.0;"/><line style="stroke:#181818;stroke-width:1.0;stroke-dasharray:2.0,2.0;" x1="931.5" x2="1599.5" y1="336.5859" y2="336.5859"/><text fill="#000000" font-family="sans-serif" font-size="13" font-weight="bold" lengthAdjust="spacing" textLength="7" x="943.5" y="331.8311">6</text><text fill="#000000" font-family="sans-serif" font-size="13" lengthAdjust="spacing" textLength="49" x="954.5" y="331.8311">question</text><polygon fill="#181818" points="1337,361.1094,1347,365.1094,1337,369.1094,1341,365.1094" style="stroke:#181818;stroke-width:1.0;"/><line style="stroke:#181818;stroke-width:1.0;" x1="926.5" x2="1343" y1="365.1094" y2="365.1094"/><text fill="#000000" font-family="sans-serif" font-size="13" font-weight="bold" lengthAdjust="spacing" textLength="7" x="933.5" y="360.3545">7</text><text fill="#000000" font-family="sans-serif" font-size="13" lengthAdjust="spacing" textLength="187" x="944.5" y="360.3545">verifyQuestion(updatedQuestion)</text><polygon fill="#181818" points="937.5,389.6328,927.5,393.6328,937.5,397.6328,933.5,393.6328" style="stroke:#181818;stroke-width:1.0;"/><line style="stroke:#181818;stroke-width:1.0;stroke-dasharray:2.0,2.0;" x1="931.5" x2="1353" y1="393.6328" y2="393.6328"/><text fill="#000000" font-family="sans-serif" font-size="13" font-weight="bold" lengthAdjust="spacing" textLength="7" x="943.5" y="388.8779">8</text><text fill="#000000" font-family="sans-serif" font-size="13" lengthAdjust="spacing" textLength="22" x="954.5" y="388.8779">true</text><polygon fill="#181818" points="1468,418.1563,1478,422.1563,1468,426.1563,1472,422.1563" style="stroke:#181818;stroke-width:1.0;"/><line style="stroke:#181818;stroke-width:1.0;" x1="926.5" x2="1474" y1="422.1563" y2="422.1563"/><text fill="#000000" font-family="sans-serif" font-size="13" font-weight="bold" lengthAdjust="spacing" textLength="7" x="933.5" y="417.4014">9</text><text fill="#000000" font-family="sans-serif" font-size="13" lengthAdjust="spacing" textLength="142" x="944.5" y="417.4014">create(updatedQuestion)</text><polygon fill="#181818" points="1106.5,476.6797,1116.5,480.6797,1106.5,484.6797,1110.5,480.6797" style="stroke:#181818;stroke-width:1.0;"/><line style="stroke:#181818;stroke-width:1.0;" x1="926.5" x2="1112.5" y1="480.6797" y2="480.6797"/><text fill="#000000" font-family="sans-serif" font-size="13" font-weight="bold" lengthAdjust="spacing" textLength="14" x="933.5" y="475.9248">10</text><text fill="#000000" font-family="sans-serif" font-size="13" lengthAdjust="spacing" textLength="155" x="951.5" y="475.9248">changeQuestion(Structure)</text><polygon fill="#181818" points="1583.5,535.2031,1593.5,539.2031,1583.5,543.2031,1587.5,539.2031" style="stroke:#181818;stroke-width:1.0;"/><line style="stroke:#181818;stroke-width:1.0;" x1="926.5" x2="1589.5" y1="539.2031" y2="539.2031"/><text fill="#000000" font-family="sans-serif" font-size="13" font-weight="bold" lengthAdjust="spacing" textLength="14" x="933.5" y="534.4482">11</text><text fill="#000000" font-family="sans-serif" font-size="13" lengthAdjust="spacing" textLength="83" x="951.5" y="534.4482">save(question)</text><polygon fill="#181818" points="50.5,593.7266,40.5,597.7266,50.5,601.7266,46.5,597.7266" style="stroke:#181818;stroke-width:1.0;"/><line style="stroke:#181818;stroke-width:1.0;stroke-dasharray:2.0,2.0;" x1="44.5" x2="275.5" y1="597.7266" y2="597.7266"/><text fill="#000000" font-family="sans-serif" font-size="13" font-weight="bold" lengthAdjust="spacing" textLength="14" x="56.5" y="592.9717">12</text><text fill="#000000" font-family="sans-serif" font-size="13" lengthAdjust="spacing" textLength="152" x="74.5" y="592.9717">informs operation success</text><!--SRC=[dPJBRjim44Nt_8g1LowGz0ECm82HR0GKQFJoAXk66jS4R58cHmhyzntHUf26qqMNfEuzmpipaEp8ckxyYKwGfXD2tJQI4F8EFMbhX92Ah8DLXL8TqQr0UgY4QAKZhNGh3S5gCxecKvq5MPt1oykxGu-6v72_tGfb3JbxWbNgUBrTdyO2hrNnYxsxjZrfDLdlIkwQ9cMKw7gjC01sTLuoOBnYyxrxCWLrpj8tUvRwGPb9c3KtQVOFxHwTFbmVlMT_zvmxOqckKzIvcxYak0P7b9_IBoCfiBLUyr2kuK45YvUh8IfFJFV342jHmVDscCC6rD5QZnuaN4OEIDE0DXuTUQ0ZmeTf9Ht17iB9u1VqwFom13EnpeHW74F3Y3RG9IDOJ-otwlVJ-AsPFlvOC8DPY81WL1ZM_w86imW49kKXgKF-4Fj_NkOXHiuy4mt6fvbICCKUieRtLjDrdJzq5u9rpylpfne9j9YX-o3gamrPVn-BvMAmH0LuHp26xwFWl39pyE-X9SL-Fis9mu98ysTf_xoISUOacn1fnxpibwwddKfR4ft2zABpRJ7gR8XTCLERWtLd3xP55_u3u3kbq7ln5m00]--></g></svg>