<?xml version="1.0" encoding="us-ascii" standalone="no"?><svg xmlns="http://www.w3.org/2000/svg" xmlns:xlink="http://www.w3.org/1999/xlink" contentStyleType="text/css" height="921px" preserveAspectRatio="none" style="width:1896px;height:921px;background:#FFFFFF;" version="1.1" viewBox="0 0 1896 921" width="1896px" zoomAndPan="magnify"><defs/><g><text fill="#000000" font-family="sans-serif" font-size="14" font-weight="bold" lengthAdjust="spacing" textLength="95" x="902.25" y="27.6738">Add Question</text><rect fill="#FFFFFF" height="689.9922" style="stroke:#181818;stroke-width:1.0;" width="10" x="29.5" y="128.9219"/><rect fill="#FFFFFF" height="669.4688" style="stroke:#181818;stroke-width:1.0;" width="10" x="336.5" y="149.4453"/><rect fill="#FFFFFF" height="603.4219" style="stroke:#181818;stroke-width:1.0;" width="10" x="632.5" y="177.9688"/><rect fill="#FFFFFF" height="574.8984" style="stroke:#181818;stroke-width:1.0;" width="10" x="947.5" y="206.4922"/><rect fill="#FFFFFF" height="85.5703" style="stroke:#181818;stroke-width:1.0;" width="10" x="1173.5" y="292.0625"/><rect fill="#FFFFFF" height="28.5234" style="stroke:#181818;stroke-width:1.0;" width="10" x="1173.5" y="406.1563"/><rect fill="#FFFFFF" height="87.0469" style="stroke:#181818;stroke-width:1.0;" width="10" x="1173.5" y="463.2031"/><rect fill="#FFFFFF" height="28.5234" style="stroke:#181818;stroke-width:1.0;" width="10" x="1353.5" y="320.5859"/><rect fill="#FFFFFF" height="30" style="stroke:#181818;stroke-width:1.0;" width="10" x="1484" y="491.7266"/><rect fill="#FFFFFF" height="28.5234" style="stroke:#181818;stroke-width:1.0;" width="10" x="1572.5" y="635.8203"/><rect fill="#FFFFFF" height="28.5234" style="stroke:#181818;stroke-width:1.0;" width="10" x="1685.5" y="578.7734"/><rect fill="#FFFFFF" height="30" style="stroke:#181818;stroke-width:1.0;" width="10" x="1685.5" y="751.3906"/><rect fill="#FFFFFF" height="28.5234" style="stroke:#181818;stroke-width:1.0;" width="10" x="1825" y="235.0156"/><rect fill="#FFFFFF" height="30" style="stroke:#181818;stroke-width:1.0;" width="10" x="1825" y="692.8672"/><line style="stroke:#181818;stroke-width:0.5;stroke-dasharray:5.0,5.0;" x1="34" x2="34" y1="118.9219" y2="827.9141"/><line style="stroke:#181818;stroke-width:0.5;stroke-dasharray:5.0,5.0;" x1="341.5" x2="341.5" y1="118.9219" y2="827.9141"/><line style="stroke:#181818;stroke-width:0.5;stroke-dasharray:5.0,5.0;" x1="637.5" x2="637.5" y1="118.9219" y2="827.9141"/><line style="stroke:#181818;stroke-width:0.5;stroke-dasharray:5.0,5.0;" x1="779.5" x2="779.5" y1="118.9219" y2="827.9141"/><line style="stroke:#181818;stroke-width:0.5;stroke-dasharray:5.0,5.0;" x1="952.5" x2="952.5" y1="118.9219" y2="827.9141"/><line style="stroke:#181818;stroke-width:0.5;stroke-dasharray:5.0,5.0;" x1="1178" x2="1178" y1="118.9219" y2="827.9141"/><line style="stroke:#181818;stroke-width:0.5;stroke-dasharray:5.0,5.0;" x1="1358.5" x2="1358.5" y1="118.9219" y2="827.9141"/><line style="stroke:#181818;stroke-width:0.5;stroke-dasharray:5.0,5.0;" x1="1488.5" x2="1488.5" y1="118.9219" y2="827.9141"/><line style="stroke:#181818;stroke-width:0.5;stroke-dasharray:5.0,5.0;" x1="1577.5" x2="1577.5" y1="118.9219" y2="827.9141"/><line style="stroke:#181818;stroke-width:0.5;stroke-dasharray:5.0,5.0;" x1="1690.5" x2="1690.5" y1="118.9219" y2="827.9141"/><line style="stroke:#181818;stroke-width:0.5;stroke-dasharray:5.0,5.0;" x1="1829.5" x2="1829.5" y1="118.9219" y2="827.9141"/><text fill="#000000" font-family="sans-serif" font-size="14" lengthAdjust="spacing" textLength="53" x="5" y="115.9551">Teacher</text><ellipse cx="34.5" cy="51.7813" fill="#E2E2F0" rx="8" ry="8" style="stroke:#181818;stroke-width:0.5;"/><path d="M34.5,59.7813 L34.5,86.7813 M21.5,67.7813 L47.5,67.7813 M34.5,86.7813 L21.5,101.7813 M34.5,86.7813 L47.5,101.7813 " fill="none" style="stroke:#181818;stroke-width:0.5;"/><text fill="#000000" font-family="sans-serif" font-size="14" lengthAdjust="spacing" textLength="53" x="5" y="839.5879">Teacher</text><ellipse cx="34.5" cy="851.0547" fill="#E2E2F0" rx="8" ry="8" style="stroke:#181818;stroke-width:0.5;"/><path d="M34.5,859.0547 L34.5,886.0547 M21.5,867.0547 L47.5,867.0547 M34.5,886.0547 L21.5,901.0547 M34.5,886.0547 L47.5,901.0547 " fill="none" style="stroke:#181818;stroke-width:0.5;"/><rect fill="#E2E2F0" height="45.2813" rx="2.5" ry="2.5" style="stroke:#181818;stroke-width:0.5;" width="116" x="283.5" y="72.6406"/><text fill="#000000" font-family="sans-serif" font-size="14" font-style="italic" lengthAdjust="spacing" textLength="96" x="293.5" y="92.3145">&#171;Presentation&#187;</text><text fill="#000000" font-family="sans-serif" font-size="14" lengthAdjust="spacing" textLength="102" x="290.5" y="107.9551">: AddQuestionUI</text><rect fill="#E2E2F0" height="45.2813" rx="2.5" ry="2.5" style="stroke:#181818;stroke-width:0.5;" width="116" x="283.5" y="826.9141"/><text fill="#000000" font-family="sans-serif" font-size="14" font-style="italic" lengthAdjust="spacing" textLength="96" x="293.5" y="846.5879">&#171;Presentation&#187;</text><text fill="#000000" font-family="sans-serif" font-size="14" lengthAdjust="spacing" textLength="102" x="290.5" y="862.2285">: AddQuestionUI</text><text fill="#000000" font-family="sans-serif" font-size="14" font-style="italic" lengthAdjust="spacing" textLength="85" x="592" y="100.3145">&#171;Application&#187;</text><text fill="#000000" font-family="sans-serif" font-size="14" lengthAdjust="spacing" textLength="130" x="569.5" y="115.9551">ListCourseController</text><ellipse cx="637.5" cy="71.6406" fill="#E2E2F0" rx="12" ry="12" style="stroke:#181818;stroke-width:0.5;"/><polygon fill="#181818" points="633.5,59.6406,639.5,54.6406,637.5,59.6406,639.5,64.6406,633.5,59.6406" style="stroke:#181818;stroke-width:1.0;"/><text fill="#000000" font-family="sans-serif" font-size="14" font-style="italic" lengthAdjust="spacing" textLength="85" x="592" y="839.5879">&#171;Application&#187;</text><text fill="#000000" font-family="sans-serif" font-size="14" lengthAdjust="spacing" textLength="130" x="569.5" y="855.2285">ListCourseController</text><ellipse cx="637.5" cy="874.1953" fill="#E2E2F0" rx="12" ry="12" style="stroke:#181818;stroke-width:0.5;"/><polygon fill="#181818" points="633.5,862.1953,639.5,857.1953,637.5,862.1953,639.5,867.1953,633.5,862.1953" style="stroke:#181818;stroke-width:1.0;"/><rect fill="#E2E2F0" height="45.2813" rx="2.5" ry="2.5" style="stroke:#181818;stroke-width:0.5;" width="129" x="715.5" y="72.6406"/><text fill="#000000" font-family="sans-serif" font-size="14" font-style="italic" lengthAdjust="spacing" textLength="85" x="737.5" y="92.3145">&#171;Application&#187;</text><text fill="#000000" font-family="sans-serif" font-size="14" lengthAdjust="spacing" textLength="115" x="722.5" y="107.9551">ListCourseService</text><rect fill="#E2E2F0" height="45.2813" rx="2.5" ry="2.5" style="stroke:#181818;stroke-width:0.5;" width="129" x="715.5" y="826.9141"/><text fill="#000000" font-family="sans-serif" font-size="14" font-style="italic" lengthAdjust="spacing" textLength="85" x="737.5" y="846.5879">&#171;Application&#187;</text><text fill="#000000" font-family="sans-serif" font-size="14" lengthAdjust="spacing" textLength="115" x="722.5" y="862.2285">ListCourseService</text><rect fill="#E2E2F0" height="45.2813" rx="2.5" ry="2.5" style="stroke:#181818;stroke-width:0.5;" width="196" x="854.5" y="72.6406"/><text fill="#000000" font-family="sans-serif" font-size="14" font-style="italic" lengthAdjust="spacing" textLength="62" x="921.5" y="92.3145">&#171;Service&#187;</text><text fill="#000000" font-family="sans-serif" font-size="14" lengthAdjust="spacing" textLength="182" x="861.5" y="107.9551">: AddUpdateQuestionService</text><rect fill="#E2E2F0" height="45.2813" rx="2.5" ry="2.5" style="stroke:#181818;stroke-width:0.5;" width="196" x="854.5" y="826.9141"/><text fill="#000000" font-family="sans-serif" font-size="14" font-style="italic" lengthAdjust="spacing" textLength="62" x="921.5" y="846.5879">&#171;Service&#187;</text><text fill="#000000" font-family="sans-serif" font-size="14" lengthAdjust="spacing" textLength="182" x="861.5" y="862.2285">: AddUpdateQuestionService</text><rect fill="#E2E2F0" height="45.2813" rx="2.5" ry="2.5" style="stroke:#181818;stroke-width:0.5;" width="123" x="1117" y="72.6406"/><text fill="#000000" font-family="sans-serif" font-size="14" font-style="italic" lengthAdjust="spacing" textLength="60" x="1148.5" y="92.3145">&#171;Builder&#187;</text><text fill="#000000" font-family="sans-serif" font-size="14" lengthAdjust="spacing" textLength="109" x="1124" y="107.9551">: QuestionBuilder</text><rect fill="#E2E2F0" height="45.2813" rx="2.5" ry="2.5" style="stroke:#181818;stroke-width:0.5;" width="123" x="1117" y="826.9141"/><text fill="#000000" font-family="sans-serif" font-size="14" font-style="italic" lengthAdjust="spacing" textLength="60" x="1148.5" y="846.5879">&#171;Builder&#187;</text><text fill="#000000" font-family="sans-serif" font-size="14" lengthAdjust="spacing" textLength="109" x="1124" y="862.2285">: QuestionBuilder</text><rect fill="#E2E2F0" height="45.2813" rx="2.5" ry="2.5" style="stroke:#181818;stroke-width:0.5;" width="162" x="1277.5" y="72.6406"/><text fill="#000000" font-family="sans-serif" font-size="14" font-style="italic" lengthAdjust="spacing" textLength="62" x="1327.5" y="92.3145">&#171;Service&#187;</text><text fill="#000000" font-family="sans-serif" font-size="14" lengthAdjust="spacing" textLength="148" x="1284.5" y="107.9551">: VerifyQuestionService</text><rect fill="#E2E2F0" height="45.2813" rx="2.5" ry="2.5" style="stroke:#181818;stroke-width:0.5;" width="162" x="1277.5" y="826.9141"/><text fill="#000000" font-family="sans-serif" font-size="14" font-style="italic" lengthAdjust="spacing" textLength="62" x="1327.5" y="846.5879">&#171;Service&#187;</text><text fill="#000000" font-family="sans-serif" font-size="14" lengthAdjust="spacing" textLength="148" x="1284.5" y="862.2285">: VerifyQuestionService</text><rect fill="#E2E2F0" height="45.2813" rx="2.5" ry="2.5" style="stroke:#181818;stroke-width:0.5;" width="79" x="1449.5" y="72.6406"/><text fill="#000000" font-family="sans-serif" font-size="14" font-style="italic" lengthAdjust="spacing" textLength="64" x="1457" y="92.3145">&#171;Domain&#187;</text><text fill="#000000" font-family="sans-serif" font-size="14" lengthAdjust="spacing" textLength="65" x="1456.5" y="107.9551">: Question</text><rect fill="#E2E2F0" height="45.2813" rx="2.5" ry="2.5" style="stroke:#181818;stroke-width:0.5;" width="79" x="1449.5" y="826.9141"/><text fill="#000000" font-family="sans-serif" font-size="14" font-style="italic" lengthAdjust="spacing" textLength="64" x="1457" y="846.5879">&#171;Domain&#187;</text><text fill="#000000" font-family="sans-serif" font-size="14" lengthAdjust="spacing" textLength="65" x="1456.5" y="862.2285">: Question</text><rect fill="#E2E2F0" height="45.2813" rx="2.5" ry="2.5" style="stroke:#181818;stroke-width:0.5;" width="78" x="1538.5" y="72.6406"/><text fill="#000000" font-family="sans-serif" font-size="14" font-style="italic" lengthAdjust="spacing" textLength="64" x="1545.5" y="92.3145">&#171;Domain&#187;</text><text fill="#000000" font-family="sans-serif" font-size="14" lengthAdjust="spacing" textLength="54" x="1550.5" y="107.9551">: Course</text><rect fill="#E2E2F0" height="45.2813" rx="2.5" ry="2.5" style="stroke:#181818;stroke-width:0.5;" width="78" x="1538.5" y="826.9141"/><text fill="#000000" font-family="sans-serif" font-size="14" font-style="italic" lengthAdjust="spacing" textLength="64" x="1545.5" y="846.5879">&#171;Domain&#187;</text><text fill="#000000" font-family="sans-serif" font-size="14" lengthAdjust="spacing" textLength="54" x="1550.5" y="862.2285">: Course</text><text fill="#000000" font-family="sans-serif" font-size="14" font-style="italic" lengthAdjust="spacing" textLength="64" x="1655.5" y="100.3145">&#171;Domain&#187;</text><text fill="#000000" font-family="sans-serif" font-size="14" lengthAdjust="spacing" textLength="122" x="1626.5" y="115.9551">: CourseRepository</text><path d="M1672.5,51.6406 C1672.5,41.6406 1690.5,41.6406 1690.5,41.6406 C1690.5,41.6406 1708.5,41.6406 1708.5,51.6406 L1708.5,77.6406 C1708.5,87.6406 1690.5,87.6406 1690.5,87.6406 C1690.5,87.6406 1672.5,87.6406 1672.5,77.6406 L1672.5,51.6406 " fill="#E2E2F0" style="stroke:#181818;stroke-width:1.5;"/><path d="M1672.5,51.6406 C1672.5,61.6406 1690.5,61.6406 1690.5,61.6406 C1690.5,61.6406 1708.5,61.6406 1708.5,51.6406 " fill="none" style="stroke:#181818;stroke-width:1.5;"/><text fill="#000000" font-family="sans-serif" font-size="14" font-style="italic" lengthAdjust="spacing" textLength="64" x="1655.5" y="839.5879">&#171;Domain&#187;</text><text fill="#000000" font-family="sans-serif" font-size="14" lengthAdjust="spacing" textLength="122" x="1626.5" y="855.2285">: CourseRepository</text><path d="M1672.5,868.1953 C1672.5,858.1953 1690.5,858.1953 1690.5,858.1953 C1690.5,858.1953 1708.5,858.1953 1708.5,868.1953 L1708.5,894.1953 C1708.5,904.1953 1690.5,904.1953 1690.5,904.1953 C1690.5,904.1953 1672.5,904.1953 1672.5,894.1953 L1672.5,868.1953 " fill="#E2E2F0" style="stroke:#181818;stroke-width:1.5;"/><path d="M1672.5,868.1953 C1672.5,878.1953 1690.5,878.1953 1690.5,878.1953 C1690.5,878.1953 1708.5,878.1953 1708.5,868.1953 " fill="none" style="stroke:#181818;stroke-width:1.5;"/><text fill="#000000" font-family="sans-serif" font-size="14" font-style="italic" lengthAdjust="spacing" textLength="84" x="1785" y="100.3145">&#171;Repository&#187;</text><text fill="#000000" font-family="sans-serif" font-size="14" lengthAdjust="spacing" textLength="125" x="1764.5" y="115.9551">QuestionRepository</text><path d="M1812,51.6406 C1812,41.6406 1830,41.6406 1830,41.6406 C1830,41.6406 1848,41.6406 1848,51.6406 L1848,77.6406 C1848,87.6406 1830,87.6406 1830,87.6406 C1830,87.6406 1812,87.6406 1812,77.6406 L1812,51.6406 " fill="#E2E2F0" style="stroke:#181818;stroke-width:1.5;"/><path d="M1812,51.6406 C1812,61.6406 1830,61.6406 1830,61.6406 C1830,61.6406 1848,61.6406 1848,51.6406 " fill="none" style="stroke:#181818;stroke-width:1.5;"/><text fill="#000000" font-family="sans-serif" font-size="14" font-style="italic" lengthAdjust="spacing" textLength="84" x="1785" y="839.5879">&#171;Repository&#187;</text><text fill="#000000" font-family="sans-serif" font-size="14" lengthAdjust="spacing" textLength="125" x="1764.5" y="855.2285">QuestionRepository</text><path d="M1812,868.1953 C1812,858.1953 1830,858.1953 1830,858.1953 C1830,858.1953 1848,858.1953 1848,868.1953 L1848,894.1953 C1848,904.1953 1830,904.1953 1830,904.1953 C1830,904.1953 1812,904.1953 1812,894.1953 L1812,868.1953 " fill="#E2E2F0" style="stroke:#181818;stroke-width:1.5;"/><path d="M1812,868.1953 C1812,878.1953 1830,878.1953 1830,878.1953 C1830,878.1953 1848,878.1953 1848,868.1953 " fill="none" style="stroke:#181818;stroke-width:1.5;"/><rect fill="#FFFFFF" height="689.9922" style="stroke:#181818;stroke-width:1.0;" width="10" x="29.5" y="128.9219"/><rect fill="#FFFFFF" height="669.4688" style="stroke:#181818;stroke-width:1.0;" width="10" x="336.5" y="149.4453"/><rect fill="#FFFFFF" height="603.4219" style="stroke:#181818;stroke-width:1.0;" width="10" x="632.5" y="177.9688"/><rect fill="#FFFFFF" height="574.8984" style="stroke:#181818;stroke-width:1.0;" width="10" x="947.5" y="206.4922"/><rect fill="#FFFFFF" height="85.5703" style="stroke:#181818;stroke-width:1.0;" width="10" x="1173.5" y="292.0625"/><rect fill="#FFFFFF" height="28.5234" style="stroke:#181818;stroke-width:1.0;" width="10" x="1173.5" y="406.1563"/><rect fill="#FFFFFF" height="87.0469" style="stroke:#181818;stroke-width:1.0;" width="10" x="1173.5" y="463.2031"/><rect fill="#FFFFFF" height="28.5234" style="stroke:#181818;stroke-width:1.0;" width="10" x="1353.5" y="320.5859"/><rect fill="#FFFFFF" height="30" style="stroke:#181818;stroke-width:1.0;" width="10" x="1484" y="491.7266"/><rect fill="#FFFFFF" height="28.5234" style="stroke:#181818;stroke-width:1.0;" width="10" x="1572.5" y="635.8203"/><rect fill="#FFFFFF" height="28.5234" style="stroke:#181818;stroke-width:1.0;" width="10" x="1685.5" y="578.7734"/><rect fill="#FFFFFF" height="30" style="stroke:#181818;stroke-width:1.0;" width="10" x="1685.5" y="751.3906"/><rect fill="#FFFFFF" height="28.5234" style="stroke:#181818;stroke-width:1.0;" width="10" x="1825" y="235.0156"/><rect fill="#FFFFFF" height="30" style="stroke:#181818;stroke-width:1.0;" width="10" x="1825" y="692.8672"/><polygon fill="#181818" points="324.5,145.4453,334.5,149.4453,324.5,153.4453,328.5,149.4453" style="stroke:#181818;stroke-width:1.0;"/><line style="stroke:#181818;stroke-width:1.0;" x1="39.5" x2="330.5" y1="149.4453" y2="149.4453"/><text fill="#000000" font-family="sans-serif" font-size="13" font-weight="bold" lengthAdjust="spacing" textLength="7" x="46.5" y="144.6904">1</text><text fill="#000000" font-family="sans-serif" font-size="13" lengthAdjust="spacing" textLength="267" x="57.5" y="144.6904">chooses the course, and the question path file</text><polygon fill="#181818" points="620.5,173.9688,630.5,177.9688,620.5,181.9688,624.5,177.9688" style="stroke:#181818;stroke-width:1.0;"/><line style="stroke:#181818;stroke-width:1.0;" x1="346.5" x2="626.5" y1="177.9688" y2="177.9688"/><text fill="#000000" font-family="sans-serif" font-size="13" font-weight="bold" lengthAdjust="spacing" textLength="7" x="353.5" y="173.2139">2</text><text fill="#000000" font-family="sans-serif" font-size="13" lengthAdjust="spacing" textLength="256" x="364.5" y="173.2139">addQuestion(courseDTO, questionStructure)</text><polygon fill="#181818" points="935.5,202.4922,945.5,206.4922,935.5,210.4922,939.5,206.4922" style="stroke:#181818;stroke-width:1.0;"/><line style="stroke:#181818;stroke-width:1.0;" x1="642.5" x2="941.5" y1="206.4922" y2="206.4922"/><text fill="#000000" font-family="sans-serif" font-size="13" font-weight="bold" lengthAdjust="spacing" textLength="7" x="649.5" y="201.7373">3</text><text fill="#000000" font-family="sans-serif" font-size="13" lengthAdjust="spacing" textLength="256" x="660.5" y="201.7373">addQuestion(courseDTO, questionStructure)</text><polygon fill="#181818" points="1813,231.0156,1823,235.0156,1813,239.0156,1817,235.0156" style="stroke:#181818;stroke-width:1.0;"/><line style="stroke:#181818;stroke-width:1.0;" x1="957.5" x2="1819" y1="235.0156" y2="235.0156"/><text fill="#000000" font-family="sans-serif" font-size="13" font-weight="bold" lengthAdjust="spacing" textLength="7" x="964.5" y="230.2607">4</text><text fill="#000000" font-family="sans-serif" font-size="13" lengthAdjust="spacing" textLength="63" x="975.5" y="230.2607">findMaxId()</text><polygon fill="#181818" points="968.5,259.5391,958.5,263.5391,968.5,267.5391,964.5,263.5391" style="stroke:#181818;stroke-width:1.0;"/><line style="stroke:#181818;stroke-width:1.0;stroke-dasharray:2.0,2.0;" x1="962.5" x2="1829" y1="263.5391" y2="263.5391"/><text fill="#000000" font-family="sans-serif" font-size="13" font-weight="bold" lengthAdjust="spacing" textLength="7" x="974.5" y="258.7842">5</text><text fill="#000000" font-family="sans-serif" font-size="13" lengthAdjust="spacing" textLength="35" x="985.5" y="258.7842">maxId</text><polygon fill="#181818" points="1161.5,288.0625,1171.5,292.0625,1161.5,296.0625,1165.5,292.0625" style="stroke:#181818;stroke-width:1.0;"/><line style="stroke:#181818;stroke-width:1.0;" x1="957.5" x2="1167.5" y1="292.0625" y2="292.0625"/><text fill="#000000" font-family="sans-serif" font-size="13" font-weight="bold" lengthAdjust="spacing" textLength="7" x="964.5" y="287.3076">6</text><text fill="#000000" font-family="sans-serif" font-size="13" lengthAdjust="spacing" textLength="186" x="975.5" y="287.3076">withStructure(questionStructure)</text><polygon fill="#181818" points="1341.5,316.5859,1351.5,320.5859,1341.5,324.5859,1345.5,320.5859" style="stroke:#181818;stroke-width:1.0;"/><line style="stroke:#181818;stroke-width:1.0;" x1="1183.5" x2="1347.5" y1="320.5859" y2="320.5859"/><text fill="#000000" font-family="sans-serif" font-size="13" font-weight="bold" lengthAdjust="spacing" textLength="7" x="1190.5" y="315.8311">7</text><text fill="#000000" font-family="sans-serif" font-size="13" lengthAdjust="spacing" textLength="140" x="1201.5" y="315.8311">verifyQuestion(structure)</text><polygon fill="#181818" points="1194.5,345.1094,1184.5,349.1094,1194.5,353.1094,1190.5,349.1094" style="stroke:#181818;stroke-width:1.0;"/><line style="stroke:#181818;stroke-width:1.0;stroke-dasharray:2.0,2.0;" x1="1188.5" x2="1357.5" y1="349.1094" y2="349.1094"/><text fill="#000000" font-family="sans-serif" font-size="13" font-weight="bold" lengthAdjust="spacing" textLength="7" x="1200.5" y="344.3545">8</text><text fill="#000000" font-family="sans-serif" font-size="13" lengthAdjust="spacing" textLength="22" x="1211.5" y="344.3545">true</text><polygon fill="#181818" points="968.5,373.6328,958.5,377.6328,968.5,381.6328,964.5,377.6328" style="stroke:#181818;stroke-width:1.0;"/><line style="stroke:#181818;stroke-width:1.0;stroke-dasharray:2.0,2.0;" x1="962.5" x2="1177.5" y1="377.6328" y2="377.6328"/><text fill="#000000" font-family="sans-serif" font-size="13" font-weight="bold" lengthAdjust="spacing" textLength="7" x="974.5" y="372.8779">9</text><text fill="#000000" font-family="sans-serif" font-size="13" lengthAdjust="spacing" textLength="89" x="985.5" y="372.8779">questionBuilder</text><polygon fill="#181818" points="1161.5,402.1563,1171.5,406.1563,1161.5,410.1563,1165.5,406.1563" style="stroke:#181818;stroke-width:1.0;"/><line style="stroke:#181818;stroke-width:1.0;" x1="957.5" x2="1167.5" y1="406.1563" y2="406.1563"/><text fill="#000000" font-family="sans-serif" font-size="13" font-weight="bold" lengthAdjust="spacing" textLength="14" x="964.5" y="401.4014">10</text><text fill="#000000" font-family="sans-serif" font-size="13" lengthAdjust="spacing" textLength="89" x="982.5" y="401.4014">withIdentifier(id)</text><polygon fill="#181818" points="968.5,430.6797,958.5,434.6797,968.5,438.6797,964.5,434.6797" style="stroke:#181818;stroke-width:1.0;"/><line style="stroke:#181818;stroke-width:1.0;stroke-dasharray:2.0,2.0;" x1="962.5" x2="1177.5" y1="434.6797" y2="434.6797"/><text fill="#000000" font-family="sans-serif" font-size="13" font-weight="bold" lengthAdjust="spacing" textLength="14" x="974.5" y="429.9248">11</text><text fill="#000000" font-family="sans-serif" font-size="13" lengthAdjust="spacing" textLength="89" x="992.5" y="429.9248">questionBuilder</text><polygon fill="#181818" points="1161.5,459.2031,1171.5,463.2031,1161.5,467.2031,1165.5,463.2031" style="stroke:#181818;stroke-width:1.0;"/><line style="stroke:#181818;stroke-width:1.0;" x1="957.5" x2="1167.5" y1="463.2031" y2="463.2031"/><text fill="#000000" font-family="sans-serif" font-size="13" font-weight="bold" lengthAdjust="spacing" textLength="14" x="964.5" y="458.4482">12</text><text fill="#000000" font-family="sans-serif" font-size="13" lengthAdjust="spacing" textLength="35" x="982.5" y="458.4482">build()</text><polygon fill="#181818" points="1472,487.7266,1482,491.7266,1472,495.7266,1476,491.7266" style="stroke:#181818;stroke-width:1.0;"/><line style="stroke:#181818;stroke-width:1.0;" x1="1183.5" x2="1478" y1="491.7266" y2="491.7266"/><text fill="#000000" font-family="sans-serif" font-size="13" font-weight="bold" lengthAdjust="spacing" textLength="14" x="1190.5" y="486.9717">13</text><text fill="#000000" font-family="sans-serif" font-size="13" lengthAdjust="spacing" textLength="113" x="1208.5" y="486.9717">create(structure, id)</text><polygon fill="#181818" points="968.5,546.25,958.5,550.25,968.5,554.25,964.5,550.25" style="stroke:#181818;stroke-width:1.0;"/><line style="stroke:#181818;stroke-width:1.0;stroke-dasharray:2.0,2.0;" x1="962.5" x2="1177.5" y1="550.25" y2="550.25"/><text fill="#000000" font-family="sans-serif" font-size="13" font-weight="bold" lengthAdjust="spacing" textLength="14" x="974.5" y="545.4951">14</text><text fill="#000000" font-family="sans-serif" font-size="13" lengthAdjust="spacing" textLength="49" x="992.5" y="545.4951">question</text><polygon fill="#181818" points="1673.5,574.7734,1683.5,578.7734,1673.5,582.7734,1677.5,578.7734" style="stroke:#181818;stroke-width:1.0;"/><line style="stroke:#181818;stroke-width:1.0;" x1="957.5" x2="1679.5" y1="578.7734" y2="578.7734"/><text fill="#000000" font-family="sans-serif" font-size="13" font-weight="bold" lengthAdjust="spacing" textLength="14" x="964.5" y="574.0186">15</text><text fill="#000000" font-family="sans-serif" font-size="13" lengthAdjust="spacing" textLength="292" x="982.5" y="574.0186">findCourseByCourseId(courseDTO.courseIdentifier)</text><polygon fill="#181818" points="968.5,603.2969,958.5,607.2969,968.5,611.2969,964.5,607.2969" style="stroke:#181818;stroke-width:1.0;"/><line style="stroke:#181818;stroke-width:1.0;stroke-dasharray:2.0,2.0;" x1="962.5" x2="1689.5" y1="607.2969" y2="607.2969"/><text fill="#000000" font-family="sans-serif" font-size="13" font-weight="bold" lengthAdjust="spacing" textLength="14" x="974.5" y="602.542">16</text><text fill="#000000" font-family="sans-serif" font-size="13" lengthAdjust="spacing" textLength="39" x="992.5" y="602.542">course</text><polygon fill="#181818" points="1560.5,631.8203,1570.5,635.8203,1560.5,639.8203,1564.5,635.8203" style="stroke:#181818;stroke-width:1.0;"/><line style="stroke:#181818;stroke-width:1.0;" x1="957.5" x2="1566.5" y1="635.8203" y2="635.8203"/><text fill="#000000" font-family="sans-serif" font-size="13" font-weight="bold" lengthAdjust="spacing" textLength="14" x="964.5" y="631.0654">17</text><text fill="#000000" font-family="sans-serif" font-size="13" lengthAdjust="spacing" textLength="130" x="982.5" y="631.0654">addQuestion(question)</text><polygon fill="#181818" points="968.5,660.3438,958.5,664.3438,968.5,668.3438,964.5,664.3438" style="stroke:#181818;stroke-width:1.0;"/><line style="stroke:#181818;stroke-width:1.0;stroke-dasharray:2.0,2.0;" x1="962.5" x2="1576.5" y1="664.3438" y2="664.3438"/><text fill="#000000" font-family="sans-serif" font-size="13" font-weight="bold" lengthAdjust="spacing" textLength="14" x="974.5" y="659.5889">18</text><text fill="#000000" font-family="sans-serif" font-size="13" lengthAdjust="spacing" textLength="22" x="992.5" y="659.5889">true</text><polygon fill="#181818" points="1813,688.8672,1823,692.8672,1813,696.8672,1817,692.8672" style="stroke:#181818;stroke-width:1.0;"/><line style="stroke:#181818;stroke-width:1.0;" x1="957.5" x2="1819" y1="692.8672" y2="692.8672"/><text fill="#000000" font-family="sans-serif" font-size="13" font-weight="bold" lengthAdjust="spacing" textLength="14" x="964.5" y="688.1123">19</text><text fill="#000000" font-family="sans-serif" font-size="13" lengthAdjust="spacing" textLength="83" x="982.5" y="688.1123">save(question)</text><polygon fill="#181818" points="1673.5,747.3906,1683.5,751.3906,1673.5,755.3906,1677.5,751.3906" style="stroke:#181818;stroke-width:1.0;"/><line style="stroke:#181818;stroke-width:1.0;" x1="957.5" x2="1679.5" y1="751.3906" y2="751.3906"/><text fill="#000000" font-family="sans-serif" font-size="13" font-weight="bold" lengthAdjust="spacing" textLength="14" x="964.5" y="746.6357">20</text><text fill="#000000" font-family="sans-serif" font-size="13" lengthAdjust="spacing" textLength="73" x="982.5" y="746.6357">save(course)</text><polygon fill="#181818" points="50.5,805.9141,40.5,809.9141,50.5,813.9141,46.5,809.9141" style="stroke:#181818;stroke-width:1.0;"/><line style="stroke:#181818;stroke-width:1.0;stroke-dasharray:2.0,2.0;" x1="44.5" x2="335.5" y1="809.9141" y2="809.9141"/><text fill="#000000" font-family="sans-serif" font-size="13" font-weight="bold" lengthAdjust="spacing" textLength="14" x="56.5" y="805.1592">21</text><text fill="#000000" font-family="sans-serif" font-size="13" lengthAdjust="spacing" textLength="152" x="74.5" y="805.1592">informs operation success</text><!--SRC=[dLJDZfim4BxxAQoSg9Jq0Q9LfE2z8ALgII1tnqmKImIpjacRj-_OG6msx6gr9yJm_Ord3E-iQhhh2JInqjP0jrL5ymwCbQeXX0khD5qKmCK5z89oGmj2Mgwj5BBbZQMBjQECZ3Bpc3AZBoz_D1XeB7VrpOO8rLYjQhhOIMEPwhG1rfVgGPaL-ntojcrRIp7I9bw1UW1zam8yRySEdzDynBAjk8KnQCpVbhaJ64hFv96JThAkXgnvYeoXyCmuWfRd-vpNyMjMlGSYNzMLovc6-bFeZos6OO_yn0q4p1vQPIIEyTwZzxFmqJYWVG873YKak8sGDpn8t8E2hZPkr6igBaePCDHUW0hlkgIygVpxsw1CMsulz2nh21fbHWWAe8oV_Phoi4f9B_HQ_5u-D0vMTy9s6du43SSanFDHny_oMpgEIOZdemvsliQmJVMB_ykg9CBbUu8VLy7hwX2aWXZna4aHy5VQoyCn-In3dX9a8E_ebM-JDKhC30E1n85NenbY80xZ04upv7sRhlCaUVgSFAlm4ikp19t8wZdhjtHF3f9CnORESxTE6h0O-btIgJEPQ7yGumD_DWwslntflN_YZ1zxybCCfR7nUDlsX4sctsDZCnR6pzwjufWj5YGibdi_FZRTICDlCAU2ApU_WEp1weDEMvccZjxyPOY_-ajMPYvfWOgoEIjzDLIreFqlbvfE2326_0S0]--></g></svg>