<?xml version="1.0" encoding="us-ascii" standalone="no"?><svg xmlns="http://www.w3.org/2000/svg" xmlns:xlink="http://www.w3.org/1999/xlink" contentStyleType="text/css" height="1115px" preserveAspectRatio="none" style="width:2074px;height:1115px;background:#FFFFFF;" version="1.1" viewBox="0 0 2074 1115" width="2074px" zoomAndPan="magnify"><defs/><g><rect fill="#FFFFFF" height="920.7031" style="stroke:#181818;stroke-width:1.0;" width="10" x="114.5" y="92.2813"/><rect fill="#FFFFFF" height="891.1797" style="stroke:#181818;stroke-width:1.0;" width="10" x="633.5" y="112.8047"/><rect fill="#FFFFFF" height="31.5234" style="stroke:#181818;stroke-width:1.0;" width="10" x="1011.5" y="667.2266"/><rect fill="#FFFFFF" height="31.5234" style="stroke:#181818;stroke-width:1.0;" width="10" x="1011.5" y="730.2734"/><rect fill="#FFFFFF" height="31.5234" style="stroke:#181818;stroke-width:1.0;" width="10" x="1011.5" y="873.8906"/><rect fill="#FFFFFF" height="31.5234" style="stroke:#181818;stroke-width:1.0;" width="10" x="1011.5" y="936.9375"/><rect fill="#FFFFFF" height="30" style="stroke:#181818;stroke-width:1.0;" width="10" x="1097.5" y="404.0391"/><rect fill="#FFFFFF" height="28.5234" style="stroke:#181818;stroke-width:1.0;" width="10" x="1196" y="175.8516"/><rect fill="#FFFFFF" height="28.5234" style="stroke:#181818;stroke-width:1.0;" width="10" x="1328" y="232.8984"/><rect fill="#FFFFFF" height="28.5234" style="stroke:#181818;stroke-width:1.0;" width="10" x="1456" y="289.9453"/><rect fill="#FFFFFF" height="28.5234" style="stroke:#181818;stroke-width:1.0;" width="10" x="1572.5" y="462.5625"/><rect fill="#FFFFFF" height="28.5234" style="stroke:#181818;stroke-width:1.0;" width="10" x="1572.5" y="790.3203"/><rect fill="#FFFFFF" height="28.5234" style="stroke:#181818;stroke-width:1.0;" width="10" x="1713" y="600.1797"/><rect fill="#FFFFFF" height="28.5234" style="stroke:#181818;stroke-width:1.0;" width="10" x="1857" y="346.9922"/><rect fill="#FFFFFF" height="28.5234" style="stroke:#181818;stroke-width:1.0;" width="10" x="1992" y="543.1328"/><rect fill="none" height="130.6172" style="stroke:#000000;stroke-width:1.5;" width="1551" x="517.5" y="506.0859"/><rect fill="none" height="142.6172" style="stroke:#000000;stroke-width:1.5;" width="984" x="517.5" y="833.8438"/><line style="stroke:#181818;stroke-width:0.5;stroke-dasharray:5.0,5.0;" x1="119" x2="119" y1="82.2813" y2="1021.9844"/><line style="stroke:#181818;stroke-width:0.5;stroke-dasharray:5.0,5.0;" x1="638.5" x2="638.5" y1="82.2813" y2="1021.9844"/><line style="stroke:#181818;stroke-width:0.5;stroke-dasharray:5.0,5.0;" x1="1016.5" x2="1016.5" y1="82.2813" y2="1021.9844"/><line style="stroke:#181818;stroke-width:0.5;stroke-dasharray:5.0,5.0;" x1="1102.5" x2="1102.5" y1="82.2813" y2="1021.9844"/><line style="stroke:#181818;stroke-width:0.5;stroke-dasharray:5.0,5.0;" x1="1200.5" x2="1200.5" y1="82.2813" y2="1021.9844"/><line style="stroke:#181818;stroke-width:0.5;stroke-dasharray:5.0,5.0;" x1="1332.5" x2="1332.5" y1="82.2813" y2="1021.9844"/><line style="stroke:#181818;stroke-width:0.5;stroke-dasharray:5.0,5.0;" x1="1460.5" x2="1460.5" y1="82.2813" y2="1021.9844"/><line style="stroke:#181818;stroke-width:0.5;stroke-dasharray:5.0,5.0;" x1="1577.5" x2="1577.5" y1="82.2813" y2="1021.9844"/><line style="stroke:#181818;stroke-width:0.5;stroke-dasharray:5.0,5.0;" x1="1717.5" x2="1717.5" y1="82.2813" y2="1021.9844"/><line style="stroke:#181818;stroke-width:0.5;stroke-dasharray:5.0,5.0;" x1="1861.5" x2="1861.5" y1="82.2813" y2="1021.9844"/><line style="stroke:#181818;stroke-width:0.5;stroke-dasharray:5.0,5.0;" x1="1996.5" x2="1996.5" y1="82.2813" y2="1021.9844"/><text fill="#000000" font-family="sans-serif" font-size="14" font-style="italic" lengthAdjust="spacing" textLength="84" x="74.5" y="63.6738">&#171;application&#187;</text><text fill="#000000" font-family="sans-serif" font-size="14" lengthAdjust="spacing" textLength="223" x="5" y="79.3145">VerifyScheduleAvailabilityController</text><ellipse cx="119.5" cy="35" fill="#E2E2F0" rx="12" ry="12" style="stroke:#181818;stroke-width:0.5;"/><polygon fill="#181818" points="115.5,23,121.5,18,119.5,23,121.5,28,115.5,23" style="stroke:#181818;stroke-width:1.0;"/><text fill="#000000" font-family="sans-serif" font-size="14" font-style="italic" lengthAdjust="spacing" textLength="84" x="74.5" y="1033.6582">&#171;application&#187;</text><text fill="#000000" font-family="sans-serif" font-size="14" lengthAdjust="spacing" textLength="223" x="5" y="1049.2988">VerifyScheduleAvailabilityController</text><ellipse cx="119.5" cy="1068.2656" fill="#E2E2F0" rx="12" ry="12" style="stroke:#181818;stroke-width:0.5;"/><polygon fill="#181818" points="115.5,1056.2656,121.5,1051.2656,119.5,1056.2656,121.5,1061.2656,115.5,1056.2656" style="stroke:#181818;stroke-width:1.0;"/><rect fill="#E2E2F0" height="45.2813" rx="2.5" ry="2.5" style="stroke:#181818;stroke-width:0.5;" width="222" x="527.5" y="36"/><text fill="#000000" font-family="sans-serif" font-size="14" font-style="italic" lengthAdjust="spacing" textLength="84" x="596.5" y="55.6738">&#171;application&#187;</text><text fill="#000000" font-family="sans-serif" font-size="14" lengthAdjust="spacing" textLength="208" x="534.5" y="71.3145">VerifyScheduleAvailabilityService</text><rect fill="#E2E2F0" height="45.2813" rx="2.5" ry="2.5" style="stroke:#181818;stroke-width:0.5;" width="222" x="527.5" y="1020.9844"/><text fill="#000000" font-family="sans-serif" font-size="14" font-style="italic" lengthAdjust="spacing" textLength="84" x="596.5" y="1040.6582">&#171;application&#187;</text><text fill="#000000" font-family="sans-serif" font-size="14" lengthAdjust="spacing" textLength="208" x="534.5" y="1056.2988">VerifyScheduleAvailabilityService</text><rect fill="#E2E2F0" height="45.2813" rx="2.5" ry="2.5" style="stroke:#181818;stroke-width:0.5;" width="76" x="978.5" y="36"/><text fill="#000000" font-family="sans-serif" font-size="14" font-style="italic" lengthAdjust="spacing" textLength="62" x="985.5" y="55.6738">&#171;domain&#187;</text><text fill="#000000" font-family="sans-serif" font-size="14" lengthAdjust="spacing" textLength="46" x="993.5" y="71.3145">Course</text><rect fill="#E2E2F0" height="45.2813" rx="2.5" ry="2.5" style="stroke:#181818;stroke-width:0.5;" width="76" x="978.5" y="1020.9844"/><text fill="#000000" font-family="sans-serif" font-size="14" font-style="italic" lengthAdjust="spacing" textLength="62" x="985.5" y="1040.6582">&#171;domain&#187;</text><text fill="#000000" font-family="sans-serif" font-size="14" lengthAdjust="spacing" textLength="46" x="993.5" y="1056.2988">Course</text><rect fill="#E2E2F0" height="45.2813" rx="2.5" ry="2.5" style="stroke:#181818;stroke-width:0.5;" width="76" x="1064.5" y="36"/><text fill="#000000" font-family="sans-serif" font-size="14" font-style="italic" lengthAdjust="spacing" textLength="62" x="1071.5" y="55.6738">&#171;domain&#187;</text><text fill="#000000" font-family="sans-serif" font-size="14" lengthAdjust="spacing" textLength="57" x="1074" y="71.3145">CourseId</text><rect fill="#E2E2F0" height="45.2813" rx="2.5" ry="2.5" style="stroke:#181818;stroke-width:0.5;" width="76" x="1064.5" y="1020.9844"/><text fill="#000000" font-family="sans-serif" font-size="14" font-style="italic" lengthAdjust="spacing" textLength="62" x="1071.5" y="1040.6582">&#171;domain&#187;</text><text fill="#000000" font-family="sans-serif" font-size="14" lengthAdjust="spacing" textLength="57" x="1074" y="1056.2988">CourseId</text><rect fill="#E2E2F0" height="45.2813" rx="2.5" ry="2.5" style="stroke:#181818;stroke-width:0.5;" width="101" x="1150.5" y="36"/><text fill="#000000" font-family="sans-serif" font-size="14" font-style="italic" lengthAdjust="spacing" textLength="84" x="1159" y="55.6738">&#171;application&#187;</text><text fill="#000000" font-family="sans-serif" font-size="14" lengthAdjust="spacing" textLength="87" x="1157.5" y="71.3145">AuthzRegistry</text><rect fill="#E2E2F0" height="45.2813" rx="2.5" ry="2.5" style="stroke:#181818;stroke-width:0.5;" width="101" x="1150.5" y="1020.9844"/><text fill="#000000" font-family="sans-serif" font-size="14" font-style="italic" lengthAdjust="spacing" textLength="84" x="1159" y="1040.6582">&#171;application&#187;</text><text fill="#000000" font-family="sans-serif" font-size="14" lengthAdjust="spacing" textLength="87" x="1157.5" y="1056.2988">AuthzRegistry</text><rect fill="#E2E2F0" height="45.2813" rx="2.5" ry="2.5" style="stroke:#181818;stroke-width:0.5;" width="143" x="1261.5" y="36"/><text fill="#000000" font-family="sans-serif" font-size="14" font-style="italic" lengthAdjust="spacing" textLength="84" x="1291" y="55.6738">&#171;application&#187;</text><text fill="#000000" font-family="sans-serif" font-size="14" lengthAdjust="spacing" textLength="129" x="1268.5" y="71.3145">AuthorizationService</text><rect fill="#E2E2F0" height="45.2813" rx="2.5" ry="2.5" style="stroke:#181818;stroke-width:0.5;" width="143" x="1261.5" y="1020.9844"/><text fill="#000000" font-family="sans-serif" font-size="14" font-style="italic" lengthAdjust="spacing" textLength="84" x="1291" y="1040.6582">&#171;application&#187;</text><text fill="#000000" font-family="sans-serif" font-size="14" lengthAdjust="spacing" textLength="129" x="1268.5" y="1056.2988">AuthorizationService</text><rect fill="#E2E2F0" height="45.2813" rx="2.5" ry="2.5" style="stroke:#181818;stroke-width:0.5;" width="93" x="1414.5" y="36"/><text fill="#000000" font-family="sans-serif" font-size="14" font-style="italic" lengthAdjust="spacing" textLength="64" x="1429" y="55.6738">&#171;Domain&#187;</text><text fill="#000000" font-family="sans-serif" font-size="14" lengthAdjust="spacing" textLength="79" x="1421.5" y="71.3145">UserSession</text><rect fill="#E2E2F0" height="45.2813" rx="2.5" ry="2.5" style="stroke:#181818;stroke-width:0.5;" width="93" x="1414.5" y="1020.9844"/><text fill="#000000" font-family="sans-serif" font-size="14" font-style="italic" lengthAdjust="spacing" textLength="64" x="1429" y="1040.6582">&#171;Domain&#187;</text><text fill="#000000" font-family="sans-serif" font-size="14" lengthAdjust="spacing" textLength="79" x="1421.5" y="1056.2988">UserSession</text><text fill="#000000" font-family="sans-serif" font-size="14" font-style="italic" lengthAdjust="spacing" textLength="79" x="1535" y="63.6738">&#171;repository&#187;</text><text fill="#000000" font-family="sans-serif" font-size="14" lengthAdjust="spacing" textLength="114" x="1517.5" y="79.3145">CourseRepository</text><path d="M1559.5,15 C1559.5,5 1577.5,5 1577.5,5 C1577.5,5 1595.5,5 1595.5,15 L1595.5,41 C1595.5,51 1577.5,51 1577.5,51 C1577.5,51 1559.5,51 1559.5,41 L1559.5,15 " fill="#E2E2F0" style="stroke:#181818;stroke-width:1.5;"/><path d="M1559.5,15 C1559.5,25 1577.5,25 1577.5,25 C1577.5,25 1595.5,25 1595.5,15 " fill="none" style="stroke:#181818;stroke-width:1.5;"/><text fill="#000000" font-family="sans-serif" font-size="14" font-style="italic" lengthAdjust="spacing" textLength="79" x="1535" y="1033.6582">&#171;repository&#187;</text><text fill="#000000" font-family="sans-serif" font-size="14" lengthAdjust="spacing" textLength="114" x="1517.5" y="1049.2988">CourseRepository</text><path d="M1559.5,1062.2656 C1559.5,1052.2656 1577.5,1052.2656 1577.5,1052.2656 C1577.5,1052.2656 1595.5,1052.2656 1595.5,1062.2656 L1595.5,1088.2656 C1595.5,1098.2656 1577.5,1098.2656 1577.5,1098.2656 C1577.5,1098.2656 1559.5,1098.2656 1559.5,1088.2656 L1559.5,1062.2656 " fill="#E2E2F0" style="stroke:#181818;stroke-width:1.5;"/><path d="M1559.5,1062.2656 C1559.5,1072.2656 1577.5,1072.2656 1577.5,1072.2656 C1577.5,1072.2656 1595.5,1072.2656 1595.5,1062.2656 " fill="none" style="stroke:#181818;stroke-width:1.5;"/><text fill="#000000" font-family="sans-serif" font-size="14" font-style="italic" lengthAdjust="spacing" textLength="79" x="1675.5" y="63.6738">&#171;repository&#187;</text><text fill="#000000" font-family="sans-serif" font-size="14" lengthAdjust="spacing" textLength="135" x="1647.5" y="79.3145">EnrollmentRepository</text><path d="M1700,15 C1700,5 1718,5 1718,5 C1718,5 1736,5 1736,15 L1736,41 C1736,51 1718,51 1718,51 C1718,51 1700,51 1700,41 L1700,15 " fill="#E2E2F0" style="stroke:#181818;stroke-width:1.5;"/><path d="M1700,15 C1700,25 1718,25 1718,25 C1718,25 1736,25 1736,15 " fill="none" style="stroke:#181818;stroke-width:1.5;"/><text fill="#000000" font-family="sans-serif" font-size="14" font-style="italic" lengthAdjust="spacing" textLength="79" x="1675.5" y="1033.6582">&#171;repository&#187;</text><text fill="#000000" font-family="sans-serif" font-size="14" lengthAdjust="spacing" textLength="135" x="1647.5" y="1049.2988">EnrollmentRepository</text><path d="M1700,1062.2656 C1700,1052.2656 1718,1052.2656 1718,1052.2656 C1718,1052.2656 1736,1052.2656 1736,1062.2656 L1736,1088.2656 C1736,1098.2656 1718,1098.2656 1718,1098.2656 C1718,1098.2656 1700,1098.2656 1700,1088.2656 L1700,1062.2656 " fill="#E2E2F0" style="stroke:#181818;stroke-width:1.5;"/><path d="M1700,1062.2656 C1700,1072.2656 1718,1072.2656 1718,1072.2656 C1718,1072.2656 1736,1072.2656 1736,1062.2656 " fill="none" style="stroke:#181818;stroke-width:1.5;"/><text fill="#000000" font-family="sans-serif" font-size="14" font-style="italic" lengthAdjust="spacing" textLength="79" x="1819.5" y="63.6738">&#171;repository&#187;</text><text fill="#000000" font-family="sans-serif" font-size="14" lengthAdjust="spacing" textLength="121" x="1798.5" y="79.3145">TeacherRepository</text><path d="M1844,15 C1844,5 1862,5 1862,5 C1862,5 1880,5 1880,15 L1880,41 C1880,51 1862,51 1862,51 C1862,51 1844,51 1844,41 L1844,15 " fill="#E2E2F0" style="stroke:#181818;stroke-width:1.5;"/><path d="M1844,15 C1844,25 1862,25 1862,25 C1862,25 1880,25 1880,15 " fill="none" style="stroke:#181818;stroke-width:1.5;"/><text fill="#000000" font-family="sans-serif" font-size="14" font-style="italic" lengthAdjust="spacing" textLength="79" x="1819.5" y="1033.6582">&#171;repository&#187;</text><text fill="#000000" font-family="sans-serif" font-size="14" lengthAdjust="spacing" textLength="121" x="1798.5" y="1049.2988">TeacherRepository</text><path d="M1844,1062.2656 C1844,1052.2656 1862,1052.2656 1862,1052.2656 C1862,1052.2656 1880,1052.2656 1880,1062.2656 L1880,1088.2656 C1880,1098.2656 1862,1098.2656 1862,1098.2656 C1862,1098.2656 1844,1098.2656 1844,1088.2656 L1844,1062.2656 " fill="#E2E2F0" style="stroke:#181818;stroke-width:1.5;"/><path d="M1844,1062.2656 C1844,1072.2656 1862,1072.2656 1862,1072.2656 C1862,1072.2656 1880,1072.2656 1880,1062.2656 " fill="none" style="stroke:#181818;stroke-width:1.5;"/><text fill="#000000" font-family="sans-serif" font-size="14" font-style="italic" lengthAdjust="spacing" textLength="79" x="1954.5" y="63.6738">&#171;repository&#187;</text><text fill="#000000" font-family="sans-serif" font-size="14" lengthAdjust="spacing" textLength="117" x="1935.5" y="79.3145">StudentRepository</text><path d="M1979,15 C1979,5 1997,5 1997,5 C1997,5 2015,5 2015,15 L2015,41 C2015,51 1997,51 1997,51 C1997,51 1979,51 1979,41 L1979,15 " fill="#E2E2F0" style="stroke:#181818;stroke-width:1.5;"/><path d="M1979,15 C1979,25 1997,25 1997,25 C1997,25 2015,25 2015,15 " fill="none" style="stroke:#181818;stroke-width:1.5;"/><text fill="#000000" font-family="sans-serif" font-size="14" font-style="italic" lengthAdjust="spacing" textLength="79" x="1954.5" y="1033.6582">&#171;repository&#187;</text><text fill="#000000" font-family="sans-serif" font-size="14" lengthAdjust="spacing" textLength="117" x="1935.5" y="1049.2988">StudentRepository</text><path d="M1979,1062.2656 C1979,1052.2656 1997,1052.2656 1997,1052.2656 C1997,1052.2656 2015,1052.2656 2015,1062.2656 L2015,1088.2656 C2015,1098.2656 1997,1098.2656 1997,1098.2656 C1997,1098.2656 1979,1098.2656 1979,1088.2656 L1979,1062.2656 " fill="#E2E2F0" style="stroke:#181818;stroke-width:1.5;"/><path d="M1979,1062.2656 C1979,1072.2656 1997,1072.2656 1997,1072.2656 C1997,1072.2656 2015,1072.2656 2015,1062.2656 " fill="none" style="stroke:#181818;stroke-width:1.5;"/><rect fill="#FFFFFF" height="920.7031" style="stroke:#181818;stroke-width:1.0;" width="10" x="114.5" y="92.2813"/><rect fill="#FFFFFF" height="891.1797" style="stroke:#181818;stroke-width:1.0;" width="10" x="633.5" y="112.8047"/><rect fill="#FFFFFF" height="31.5234" style="stroke:#181818;stroke-width:1.0;" width="10" x="1011.5" y="667.2266"/><rect fill="#FFFFFF" height="31.5234" style="stroke:#181818;stroke-width:1.0;" width="10" x="1011.5" y="730.2734"/><rect fill="#FFFFFF" height="31.5234" style="stroke:#181818;stroke-width:1.0;" width="10" x="1011.5" y="873.8906"/><rect fill="#FFFFFF" height="31.5234" style="stroke:#181818;stroke-width:1.0;" width="10" x="1011.5" y="936.9375"/><rect fill="#FFFFFF" height="30" style="stroke:#181818;stroke-width:1.0;" width="10" x="1097.5" y="404.0391"/><rect fill="#FFFFFF" height="28.5234" style="stroke:#181818;stroke-width:1.0;" width="10" x="1196" y="175.8516"/><rect fill="#FFFFFF" height="28.5234" style="stroke:#181818;stroke-width:1.0;" width="10" x="1328" y="232.8984"/><rect fill="#FFFFFF" height="28.5234" style="stroke:#181818;stroke-width:1.0;" width="10" x="1456" y="289.9453"/><rect fill="#FFFFFF" height="28.5234" style="stroke:#181818;stroke-width:1.0;" width="10" x="1572.5" y="462.5625"/><rect fill="#FFFFFF" height="28.5234" style="stroke:#181818;stroke-width:1.0;" width="10" x="1572.5" y="790.3203"/><rect fill="#FFFFFF" height="28.5234" style="stroke:#181818;stroke-width:1.0;" width="10" x="1713" y="600.1797"/><rect fill="#FFFFFF" height="28.5234" style="stroke:#181818;stroke-width:1.0;" width="10" x="1857" y="346.9922"/><rect fill="#FFFFFF" height="28.5234" style="stroke:#181818;stroke-width:1.0;" width="10" x="1992" y="543.1328"/><polygon fill="#181818" points="621.5,108.8047,631.5,112.8047,621.5,116.8047,625.5,112.8047" style="stroke:#181818;stroke-width:1.0;"/><line style="stroke:#181818;stroke-width:1.0;" x1="124.5" x2="627.5" y1="112.8047" y2="112.8047"/><text fill="#000000" font-family="sans-serif" font-size="13" lengthAdjust="spacing" textLength="490" x="131.5" y="108.0498">verifyScheduleAvailability(dateWithTime. duration, courseDTO, studentMechNumList)</text><path d="M648,125.8047 L648,149.8047 L1619,149.8047 L1619,135.8047 L1609,125.8047 L648,125.8047 " fill="#FEFFDD" style="stroke:#181818;stroke-width:0.5;"/><path d="M1609,125.8047 L1609,135.8047 L1619,135.8047 L1609,125.8047 " fill="#FEFFDD" style="stroke:#181818;stroke-width:0.5;"/><text fill="#000000" font-family="sans-serif" font-size="13" lengthAdjust="spacing" textLength="950" x="654" y="142.5732">Creation of CourseRepository, EnrollmentRepository, StudentRepository and TeacherRepository as described in "US_1008_SD_RepositoryCreation" (us_1008 folder)</text><polygon fill="#181818" points="1184,171.8516,1194,175.8516,1184,179.8516,1188,175.8516" style="stroke:#181818;stroke-width:1.0;"/><line style="stroke:#181818;stroke-width:1.0;" x1="643.5" x2="1190" y1="175.8516" y2="175.8516"/><text fill="#000000" font-family="sans-serif" font-size="13" lengthAdjust="spacing" textLength="124" x="650.5" y="171.0967">authorizationService()</text><polygon fill="#181818" points="654.5,200.375,644.5,204.375,654.5,208.375,650.5,204.375" style="stroke:#181818;stroke-width:1.0;"/><line style="stroke:#181818;stroke-width:1.0;" x1="648.5" x2="1200" y1="204.375" y2="204.375"/><text fill="#000000" font-family="sans-serif" font-size="13" lengthAdjust="spacing" textLength="32" x="660.5" y="199.6201">authz</text><polygon fill="#181818" points="1316,228.8984,1326,232.8984,1316,236.8984,1320,232.8984" style="stroke:#181818;stroke-width:1.0;"/><line style="stroke:#181818;stroke-width:1.0;" x1="643.5" x2="1322" y1="232.8984" y2="232.8984"/><text fill="#000000" font-family="sans-serif" font-size="13" lengthAdjust="spacing" textLength="53" x="650.5" y="228.1436">session()</text><polygon fill="#181818" points="654.5,257.4219,644.5,261.4219,654.5,265.4219,650.5,261.4219" style="stroke:#181818;stroke-width:1.0;"/><line style="stroke:#181818;stroke-width:1.0;stroke-dasharray:2.0,2.0;" x1="648.5" x2="1332" y1="261.4219" y2="261.4219"/><text fill="#000000" font-family="sans-serif" font-size="13" lengthAdjust="spacing" textLength="72" x="660.5" y="256.667">userSession</text><polygon fill="#181818" points="1444,285.9453,1454,289.9453,1444,293.9453,1448,289.9453" style="stroke:#181818;stroke-width:1.0;"/><line style="stroke:#181818;stroke-width:1.0;" x1="643.5" x2="1450" y1="289.9453" y2="289.9453"/><text fill="#000000" font-family="sans-serif" font-size="13" lengthAdjust="spacing" textLength="113" x="650.5" y="285.1904">authenticatedUser()</text><polygon fill="#181818" points="654.5,314.4688,644.5,318.4688,654.5,322.4688,650.5,318.4688" style="stroke:#181818;stroke-width:1.0;"/><line style="stroke:#181818;stroke-width:1.0;stroke-dasharray:2.0,2.0;" x1="648.5" x2="1460" y1="318.4688" y2="318.4688"/><text fill="#000000" font-family="sans-serif" font-size="13" lengthAdjust="spacing" textLength="70" x="660.5" y="313.7139">systemUser</text><polygon fill="#181818" points="1845,342.9922,1855,346.9922,1845,350.9922,1849,346.9922" style="stroke:#181818;stroke-width:1.0;"/><line style="stroke:#181818;stroke-width:1.0;" x1="643.5" x2="1851" y1="346.9922" y2="346.9922"/><text fill="#000000" font-family="sans-serif" font-size="13" lengthAdjust="spacing" textLength="232" x="650.5" y="342.2373">findTeacherBySystemUser(systemUser)</text><polygon fill="#181818" points="654.5,371.5156,644.5,375.5156,654.5,379.5156,650.5,375.5156" style="stroke:#181818;stroke-width:1.0;"/><line style="stroke:#181818;stroke-width:1.0;stroke-dasharray:2.0,2.0;" x1="648.5" x2="1861" y1="375.5156" y2="375.5156"/><text fill="#000000" font-family="sans-serif" font-size="13" lengthAdjust="spacing" textLength="43" x="660.5" y="370.7607">teacher</text><polygon fill="#181818" points="1085.5,400.0391,1095.5,404.0391,1085.5,408.0391,1089.5,404.0391" style="stroke:#181818;stroke-width:1.0;"/><line style="stroke:#181818;stroke-width:1.0;" x1="643.5" x2="1091.5" y1="404.0391" y2="404.0391"/><text fill="#000000" font-family="sans-serif" font-size="13" lengthAdjust="spacing" textLength="131" x="650.5" y="399.2842">create(courseIdentifier)</text><polygon fill="#181818" points="1560.5,458.5625,1570.5,462.5625,1560.5,466.5625,1564.5,462.5625" style="stroke:#181818;stroke-width:1.0;"/><line style="stroke:#181818;stroke-width:1.0;" x1="643.5" x2="1566.5" y1="462.5625" y2="462.5625"/><text fill="#000000" font-family="sans-serif" font-size="13" lengthAdjust="spacing" textLength="109" x="650.5" y="457.8076">ofIdentity(courseId)</text><polygon fill="#181818" points="654.5,487.0859,644.5,491.0859,654.5,495.0859,650.5,491.0859" style="stroke:#181818;stroke-width:1.0;"/><line style="stroke:#181818;stroke-width:1.0;stroke-dasharray:2.0,2.0;" x1="648.5" x2="1576.5" y1="491.0859" y2="491.0859"/><text fill="#000000" font-family="sans-serif" font-size="13" lengthAdjust="spacing" textLength="39" x="660.5" y="486.3311">course</text><path d="M517.5,506.0859 L590.5,506.0859 L590.5,512.6094 L580.5,522.6094 L517.5,522.6094 L517.5,506.0859 " fill="#EEEEEE" style="stroke:#000000;stroke-width:1.5;"/><rect fill="none" height="130.6172" style="stroke:#000000;stroke-width:1.5;" width="1551" x="517.5" y="506.0859"/><text fill="#000000" font-family="sans-serif" font-size="13" font-weight="bold" lengthAdjust="spacing" textLength="28" x="532.5" y="518.8545">loop</text><text fill="#000000" font-family="sans-serif" font-size="11" font-weight="bold" lengthAdjust="spacing" textLength="330" x="605.5" y="518.0439">[for each mechanographic number in studentMechNumList]</text><polygon fill="#181818" points="1980,539.1328,1990,543.1328,1980,547.1328,1984,543.1328" style="stroke:#181818;stroke-width:1.0;"/><line style="stroke:#181818;stroke-width:1.0;" x1="643.5" x2="1986" y1="543.1328" y2="543.1328"/><text fill="#000000" font-family="sans-serif" font-size="13" lengthAdjust="spacing" textLength="164" x="650.5" y="538.3779">containsOfIdentity(mecNum)</text><polygon fill="#181818" points="654.5,567.6563,644.5,571.6563,654.5,575.6563,650.5,571.6563" style="stroke:#181818;stroke-width:1.0;"/><line style="stroke:#181818;stroke-width:1.0;stroke-dasharray:2.0,2.0;" x1="648.5" x2="1996" y1="571.6563" y2="571.6563"/><text fill="#000000" font-family="sans-serif" font-size="13" lengthAdjust="spacing" textLength="45" x="660.5" y="566.9014">boolean</text><polygon fill="#181818" points="1701,596.1797,1711,600.1797,1701,604.1797,1705,600.1797" style="stroke:#181818;stroke-width:1.0;"/><line style="stroke:#181818;stroke-width:1.0;" x1="643.5" x2="1707" y1="600.1797" y2="600.1797"/><text fill="#000000" font-family="sans-serif" font-size="13" lengthAdjust="spacing" textLength="371" x="650.5" y="595.4248">findEnrollmentByCourseIDAndMechNumber(courseId,mechNum)</text><polygon fill="#181818" points="654.5,624.7031,644.5,628.7031,654.5,632.7031,650.5,628.7031" style="stroke:#181818;stroke-width:1.0;"/><line style="stroke:#181818;stroke-width:1.0;stroke-dasharray:2.0,2.0;" x1="648.5" x2="1717" y1="628.7031" y2="628.7031"/><text fill="#000000" font-family="sans-serif" font-size="13" lengthAdjust="spacing" textLength="60" x="660.5" y="623.9482">enrollment</text><polygon fill="#181818" points="999.5,663.2266,1009.5,667.2266,999.5,671.2266,1003.5,667.2266" style="stroke:#181818;stroke-width:1.0;"/><line style="stroke:#181818;stroke-width:1.0;" x1="643.5" x2="1005.5" y1="667.2266" y2="667.2266"/><text fill="#000000" font-family="sans-serif" font-size="13" lengthAdjust="spacing" textLength="311" x="650.5" y="662.4717">verifyIfExistAClassAtTheTime(dateWithTime, duration)</text><path d="M1026,648.7031 L1026,672.7031 L1474,672.7031 L1474,658.7031 L1464,648.7031 L1026,648.7031 " fill="#FEFFDD" style="stroke:#181818;stroke-width:0.5;"/><path d="M1464,648.7031 L1464,658.7031 L1474,658.7031 L1464,648.7031 " fill="#FEFFDD" style="stroke:#181818;stroke-width:0.5;"/><text fill="#000000" font-family="sans-serif" font-size="13" lengthAdjust="spacing" textLength="427" x="1032" y="665.4717">Method represented in SD_VerifyIfExistAClassAtTheTime (us_1010 folder)</text><polygon fill="#181818" points="654.5,694.75,644.5,698.75,654.5,702.75,650.5,698.75" style="stroke:#181818;stroke-width:1.0;"/><line style="stroke:#181818;stroke-width:1.0;stroke-dasharray:2.0,2.0;" x1="648.5" x2="1015.5" y1="698.75" y2="698.75"/><text fill="#000000" font-family="sans-serif" font-size="13" lengthAdjust="spacing" textLength="45" x="660.5" y="693.9951">boolean</text><polygon fill="#181818" points="999.5,726.2734,1009.5,730.2734,999.5,734.2734,1003.5,730.2734" style="stroke:#181818;stroke-width:1.0;"/><line style="stroke:#181818;stroke-width:1.0;" x1="643.5" x2="1005.5" y1="730.2734" y2="730.2734"/><text fill="#000000" font-family="sans-serif" font-size="13" lengthAdjust="spacing" textLength="349" x="650.5" y="725.5186">verifyIfExistAnExtraClassAtTheTime(dateWithTime, duration)</text><path d="M1026,711.75 L1026,735.75 L1491,735.75 L1491,721.75 L1481,711.75 L1026,711.75 " fill="#FEFFDD" style="stroke:#181818;stroke-width:0.5;"/><path d="M1481,711.75 L1481,721.75 L1491,721.75 L1481,711.75 " fill="#FEFFDD" style="stroke:#181818;stroke-width:0.5;"/><text fill="#000000" font-family="sans-serif" font-size="13" lengthAdjust="spacing" textLength="444" x="1032" y="728.5186">Method represented SD_VerifyIfExistAExtraClassAtTheTime (us_1010 folder)</text><polygon fill="#181818" points="654.5,757.7969,644.5,761.7969,654.5,765.7969,650.5,761.7969" style="stroke:#181818;stroke-width:1.0;"/><line style="stroke:#181818;stroke-width:1.0;stroke-dasharray:2.0,2.0;" x1="648.5" x2="1015.5" y1="761.7969" y2="761.7969"/><text fill="#000000" font-family="sans-serif" font-size="13" lengthAdjust="spacing" textLength="45" x="660.5" y="757.042">boolean</text><polygon fill="#181818" points="1560.5,786.3203,1570.5,790.3203,1560.5,794.3203,1564.5,790.3203" style="stroke:#181818;stroke-width:1.0;"/><line style="stroke:#181818;stroke-width:1.0;" x1="643.5" x2="1566.5" y1="790.3203" y2="790.3203"/><text fill="#000000" font-family="sans-serif" font-size="13" lengthAdjust="spacing" textLength="457" x="650.5" y="785.5654">findAllCourseRelatedWithTheMembersOfAGivenCourse(studentList,teacherList)</text><polygon fill="#181818" points="654.5,814.8438,644.5,818.8438,654.5,822.8438,650.5,818.8438" style="stroke:#181818;stroke-width:1.0;"/><line style="stroke:#181818;stroke-width:1.0;stroke-dasharray:2.0,2.0;" x1="648.5" x2="1576.5" y1="818.8438" y2="818.8438"/><text fill="#000000" font-family="sans-serif" font-size="13" lengthAdjust="spacing" textLength="60" x="660.5" y="814.0889">courseList</text><path d="M517.5,833.8438 L590.5,833.8438 L590.5,840.3672 L580.5,850.3672 L517.5,850.3672 L517.5,833.8438 " fill="#EEEEEE" style="stroke:#000000;stroke-width:1.5;"/><rect fill="none" height="142.6172" style="stroke:#000000;stroke-width:1.5;" width="984" x="517.5" y="833.8438"/><text fill="#000000" font-family="sans-serif" font-size="13" font-weight="bold" lengthAdjust="spacing" textLength="28" x="532.5" y="846.6123">loop</text><text fill="#000000" font-family="sans-serif" font-size="11" font-weight="bold" lengthAdjust="spacing" textLength="173" x="605.5" y="845.8018">[for each Course in courseList]</text><polygon fill="#181818" points="999.5,869.8906,1009.5,873.8906,999.5,877.8906,1003.5,873.8906" style="stroke:#181818;stroke-width:1.0;"/><line style="stroke:#181818;stroke-width:1.0;" x1="643.5" x2="1005.5" y1="873.8906" y2="873.8906"/><text fill="#000000" font-family="sans-serif" font-size="13" lengthAdjust="spacing" textLength="311" x="650.5" y="869.1357">verifyIfExistAClassAtTheTime(dateWithTime, duration)</text><path d="M1026,855.3672 L1026,879.3672 L1460,879.3672 L1460,865.3672 L1450,855.3672 L1026,855.3672 " fill="#FEFFDD" style="stroke:#181818;stroke-width:0.5;"/><path d="M1450,855.3672 L1450,865.3672 L1460,865.3672 L1450,855.3672 " fill="#FEFFDD" style="stroke:#181818;stroke-width:0.5;"/><text fill="#000000" font-family="sans-serif" font-size="13" lengthAdjust="spacing" textLength="413" x="1032" y="872.1357">Method represented SD_VerifyIfExistAClassAtTheTime (us_1010 folder)</text><polygon fill="#181818" points="654.5,901.4141,644.5,905.4141,654.5,909.4141,650.5,905.4141" style="stroke:#181818;stroke-width:1.0;"/><line style="stroke:#181818;stroke-width:1.0;stroke-dasharray:2.0,2.0;" x1="648.5" x2="1015.5" y1="905.4141" y2="905.4141"/><text fill="#000000" font-family="sans-serif" font-size="13" lengthAdjust="spacing" textLength="45" x="660.5" y="900.6592">boolean</text><polygon fill="#181818" points="999.5,932.9375,1009.5,936.9375,999.5,940.9375,1003.5,936.9375" style="stroke:#181818;stroke-width:1.0;"/><line style="stroke:#181818;stroke-width:1.0;" x1="643.5" x2="1005.5" y1="936.9375" y2="936.9375"/><text fill="#000000" font-family="sans-serif" font-size="13" lengthAdjust="spacing" textLength="349" x="650.5" y="932.1826">verifyIfExistAnExtraClassAtTheTime(dateWithTime, duration)</text><path d="M1026,918.4141 L1026,942.4141 L1491,942.4141 L1491,928.4141 L1481,918.4141 L1026,918.4141 " fill="#FEFFDD" style="stroke:#181818;stroke-width:0.5;"/><path d="M1481,918.4141 L1481,928.4141 L1491,928.4141 L1481,918.4141 " fill="#FEFFDD" style="stroke:#181818;stroke-width:0.5;"/><text fill="#000000" font-family="sans-serif" font-size="13" lengthAdjust="spacing" textLength="444" x="1032" y="935.1826">Method represented SD_VerifyIfExistAExtraClassAtTheTime (us_1010 folder)</text><polygon fill="#181818" points="654.5,964.4609,644.5,968.4609,654.5,972.4609,650.5,968.4609" style="stroke:#181818;stroke-width:1.0;"/><line style="stroke:#181818;stroke-width:1.0;stroke-dasharray:2.0,2.0;" x1="648.5" x2="1015.5" y1="968.4609" y2="968.4609"/><text fill="#000000" font-family="sans-serif" font-size="13" lengthAdjust="spacing" textLength="45" x="660.5" y="963.7061">boolean</text><polygon fill="#181818" points="135.5,999.9844,125.5,1003.9844,135.5,1007.9844,131.5,1003.9844" style="stroke:#181818;stroke-width:1.0;"/><line style="stroke:#181818;stroke-width:1.0;stroke-dasharray:2.0,2.0;" x1="129.5" x2="637.5" y1="1003.9844" y2="1003.9844"/><text fill="#000000" font-family="sans-serif" font-size="13" lengthAdjust="spacing" textLength="45" x="141.5" y="999.2295">boolean</text><!--SRC=[vLPTQzim57tthn1xIY4TxTi8fU0cPWkqpR3JxB4eraqjiAKWoQ7fhz-LvGyvTbC6AtlOIqYiUyxzqBd7IQKmIkPa0uhlZacQ0Ijp20-KvtJBSswESnUHWo9Ka_dgSHslxk-ZcDpSqFq-voarN8hRss1FbU4ftrDXpj0be0uy1SkLHF5cEO_E4irbgJIup4znOeEPB2WVZrkoBl9vkVWe68JXEzuqzW4eB4ts5iCBrqOTBOBYWxErMuHK_Aqwy_gsm6Hp5lgaGIMWDPvOH5dzHCIYgOnHGxSK9-DwYM4lDJVILLRt4aS_LuXHxPcFYuIzr097qCT6Z_PwpsFNGF5cLH-uZiBvZoW-ZqnCoGOfa_NJOXGM13Gr_40DUBeBF0bUthOYcf73kvgRO7xunKssvWLy9QnKrSod9As6jrYlfaIxoXuWpHxBuXvl-QBBNYS9XCGVYhzaniixLr3H4RaRtCPqTCxJiJa8DZvN1ZfLV0kCS46-F2NFrrTNtvuJd5WRrbJmXKnANPsJdSmPg8kWAHCdPMKtgpvFHJdnMhNdGINjRhWEzHOmw8UTa2UR6T5EjAUCoIQeLN_fqvQTp4_94U7Hkq1NXzrQN1fWTadyH2ueg9VbiYSEVTG62elm4zK8Br5FnJEouuBLjt9tJ5gEIKVdvVUnGO-eNujnX7uXFQXNJkTACvBQMuP9Uc9U5_wIrD4-TVTmo6lJpL2tZWqNfI4VabQL-SRIxya1H_9Mk5pAFKfI4TivAN37g90lYkupdX9H5blqO5JtS0VzcZkRiEc4GIFKgwvqP4MGlxHDVD1-mvgxahTIva1xmlCWNLxV4PqYkfs-EzRlaaKeM5qtDjFESLguPrvP7btWK_Vd2MqAlpuV2u85GuSQt77ZYyjTz8e33USvrJeqwmoi6VQSSTewu-3wVUURaGT03s44lLg1nXATDw4bRSwaghtf-ghrflgDtdE4aKkfA_YmCn6z6aK_gRz1SoF9_dg7lkR2F6zUBharlwgf31x0wWtt8FpE3o1SoAHU9Bj1qzfjJjveVxBLrIA-izadgrt_NKCrUD1_fSbF5kH_e4ZhCMsNLPlDNwzn-tIXlm40]--></g></svg>