<?xml version="1.0" encoding="us-ascii" standalone="no"?><svg xmlns="http://www.w3.org/2000/svg" xmlns:xlink="http://www.w3.org/1999/xlink" contentStyleType="text/css" height="1148px" preserveAspectRatio="none" style="width:2343px;height:1148px;background:#FFFFFF;" version="1.1" viewBox="0 0 2343 1148" width="2343px" zoomAndPan="magnify"><defs/><g><rect fill="#FFFFFF" height="932.7305" style="stroke:#181818;stroke-width:1.0;" width="10" x="27.5" y="98.2422"/><rect fill="#FFFFFF" height="909.4395" style="stroke:#181818;stroke-width:1.0;" width="10" x="189.5" y="121.5332"/><rect fill="#FFFFFF" height="815.5664" style="stroke:#181818;stroke-width:1.0;" width="10" x="379.5" y="184.1152"/><rect fill="#FFFFFF" height="752.9844" style="stroke:#181818;stroke-width:1.0;" width="10" x="576" y="215.4063"/><rect fill="#FFFFFF" height="31.291" style="stroke:#181818;stroke-width:1.0;" width="10" x="740" y="246.6973"/><rect fill="#FFFFFF" height="31.291" style="stroke:#181818;stroke-width:1.0;" width="10" x="872" y="309.2793"/><rect fill="#FFFFFF" height="31.291" style="stroke:#181818;stroke-width:1.0;" width="10" x="1000" y="371.8613"/><rect fill="#FFFFFF" height="62.582" style="stroke:#181818;stroke-width:1.0;" width="10" x="1124.5" y="434.4434"/><rect fill="#FFFFFF" height="62.582" style="stroke:#181818;stroke-width:1.0;" width="10" x="1267.5" y="528.3164"/><rect fill="#FFFFFF" height="219.0371" style="stroke:#181818;stroke-width:1.0;" width="10" x="1503.5" y="711.0625"/><rect fill="#FFFFFF" height="93.873" style="stroke:#181818;stroke-width:1.0;" width="10" x="1819.5" y="804.9355"/><rect fill="#FFFFFF" height="31.291" style="stroke:#181818;stroke-width:1.0;" width="10" x="2097.5" y="836.2266"/><rect fill="#FFFFFF" height="31.291" style="stroke:#181818;stroke-width:1.0;" width="10" x="2284" y="622.1895"/><rect fill="none" height="269.6191" style="stroke:#000000;stroke-width:1.5;" width="1754" x="481.5" y="668.4805"/><line style="stroke:#181818;stroke-width:0.5;stroke-dasharray:5.0,5.0;" x1="32" x2="32" y1="88.2422" y2="1048.9727"/><line style="stroke:#181818;stroke-width:0.5;stroke-dasharray:5.0,5.0;" x1="194.5" x2="194.5" y1="88.2422" y2="1048.9727"/><line style="stroke:#181818;stroke-width:0.5;stroke-dasharray:5.0,5.0;" x1="384.5" x2="384.5" y1="88.2422" y2="1048.9727"/><line style="stroke:#181818;stroke-width:0.5;stroke-dasharray:5.0,5.0;" x1="580.5" x2="580.5" y1="88.2422" y2="1048.9727"/><line style="stroke:#181818;stroke-width:0.5;stroke-dasharray:5.0,5.0;" x1="744.5" x2="744.5" y1="88.2422" y2="1048.9727"/><line style="stroke:#181818;stroke-width:0.5;stroke-dasharray:5.0,5.0;" x1="876.5" x2="876.5" y1="88.2422" y2="1048.9727"/><line style="stroke:#181818;stroke-width:0.5;stroke-dasharray:5.0,5.0;" x1="1004.5" x2="1004.5" y1="88.2422" y2="1048.9727"/><line style="stroke:#181818;stroke-width:0.5;stroke-dasharray:5.0,5.0;" x1="1129.5" x2="1129.5" y1="88.2422" y2="1048.9727"/><line style="stroke:#181818;stroke-width:0.5;stroke-dasharray:5.0,5.0;" x1="1272.5" x2="1272.5" y1="88.2422" y2="1048.9727"/><line style="stroke:#181818;stroke-width:0.5;stroke-dasharray:5.0,5.0;" x1="1508.5" x2="1508.5" y1="88.2422" y2="1048.9727"/><line style="stroke:#181818;stroke-width:0.5;stroke-dasharray:5.0,5.0;" x1="1824.5" x2="1824.5" y1="88.2422" y2="1048.9727"/><line style="stroke:#181818;stroke-width:0.5;stroke-dasharray:5.0,5.0;" x1="2102.5" x2="2102.5" y1="88.2422" y2="1048.9727"/><line style="stroke:#181818;stroke-width:0.5;stroke-dasharray:5.0,5.0;" x1="2288.5" x2="2288.5" y1="88.2422" y2="1048.9727"/><text fill="#000000" font-family="sans-serif" font-size="14" lengthAdjust="spacing" textLength="49" x="5" y="84.7285">Student</text><ellipse cx="32.5" cy="18.1211" fill="#E2E2F0" rx="8" ry="8" style="stroke:#181818;stroke-width:0.5;"/><path d="M32.5,26.1211 L32.5,53.1211 M19.5,34.1211 L45.5,34.1211 M32.5,53.1211 L19.5,68.1211 M32.5,53.1211 L45.5,68.1211 " fill="none" style="stroke:#181818;stroke-width:0.5;"/><text fill="#000000" font-family="sans-serif" font-size="14" lengthAdjust="spacing" textLength="49" x="5" y="1063.0801">Student</text><ellipse cx="32.5" cy="1075.0938" fill="#E2E2F0" rx="8" ry="8" style="stroke:#181818;stroke-width:0.5;"/><path d="M32.5,1083.0938 L32.5,1110.0938 M19.5,1091.0938 L45.5,1091.0938 M32.5,1110.0938 L19.5,1125.0938 M32.5,1110.0938 L45.5,1125.0938 " fill="none" style="stroke:#181818;stroke-width:0.5;"/><rect fill="#E2E2F0" height="51.2422" rx="2.5" ry="2.5" style="stroke:#181818;stroke-width:0.5;" width="144" x="122.5" y="36"/><text fill="#000000" font-family="sans-serif" font-size="14" font-style="italic" lengthAdjust="spacing" textLength="96" x="146.5" y="58.1074">&#171;Presentation&#187;</text><text fill="#000000" font-family="sans-serif" font-size="14" lengthAdjust="spacing" textLength="130" x="129.5" y="76.7285">ListStudentGradesUI</text><rect fill="#E2E2F0" height="51.2422" rx="2.5" ry="2.5" style="stroke:#181818;stroke-width:0.5;" width="144" x="122.5" y="1047.9727"/><text fill="#000000" font-family="sans-serif" font-size="14" font-style="italic" lengthAdjust="spacing" textLength="96" x="146.5" y="1070.0801">&#171;Presentation&#187;</text><text fill="#000000" font-family="sans-serif" font-size="14" lengthAdjust="spacing" textLength="130" x="129.5" y="1088.7012">ListStudentGradesUI</text><rect fill="#E2E2F0" height="51.2422" rx="2.5" ry="2.5" style="stroke:#181818;stroke-width:0.5;" width="194" x="287.5" y="36"/><text fill="#000000" font-family="sans-serif" font-size="14" font-style="italic" lengthAdjust="spacing" textLength="85" x="342" y="58.1074">&#171;Application&#187;</text><text fill="#000000" font-family="sans-serif" font-size="14" lengthAdjust="spacing" textLength="180" x="294.5" y="76.7285">ListStudentGradesController</text><rect fill="#E2E2F0" height="51.2422" rx="2.5" ry="2.5" style="stroke:#181818;stroke-width:0.5;" width="194" x="287.5" y="1047.9727"/><text fill="#000000" font-family="sans-serif" font-size="14" font-style="italic" lengthAdjust="spacing" textLength="85" x="342" y="1070.0801">&#171;Application&#187;</text><text fill="#000000" font-family="sans-serif" font-size="14" lengthAdjust="spacing" textLength="180" x="294.5" y="1088.7012">ListStudentGradesController</text><rect fill="#E2E2F0" height="51.2422" rx="2.5" ry="2.5" style="stroke:#181818;stroke-width:0.5;" width="179" x="491.5" y="36"/><text fill="#000000" font-family="sans-serif" font-size="14" font-style="italic" lengthAdjust="spacing" textLength="62" x="550" y="58.1074">&#171;Service&#187;</text><text fill="#000000" font-family="sans-serif" font-size="14" lengthAdjust="spacing" textLength="165" x="498.5" y="76.7285">ListStudentGradesService</text><rect fill="#E2E2F0" height="51.2422" rx="2.5" ry="2.5" style="stroke:#181818;stroke-width:0.5;" width="179" x="491.5" y="1047.9727"/><text fill="#000000" font-family="sans-serif" font-size="14" font-style="italic" lengthAdjust="spacing" textLength="62" x="550" y="1070.0801">&#171;Service&#187;</text><text fill="#000000" font-family="sans-serif" font-size="14" lengthAdjust="spacing" textLength="165" x="498.5" y="1088.7012">ListStudentGradesService</text><rect fill="#E2E2F0" height="51.2422" rx="2.5" ry="2.5" style="stroke:#181818;stroke-width:0.5;" width="101" x="694.5" y="36"/><text fill="#000000" font-family="sans-serif" font-size="14" font-style="italic" lengthAdjust="spacing" textLength="84" x="703" y="58.1074">&#171;application&#187;</text><text fill="#000000" font-family="sans-serif" font-size="14" lengthAdjust="spacing" textLength="87" x="701.5" y="76.7285">AuthzRegistry</text><rect fill="#E2E2F0" height="51.2422" rx="2.5" ry="2.5" style="stroke:#181818;stroke-width:0.5;" width="101" x="694.5" y="1047.9727"/><text fill="#000000" font-family="sans-serif" font-size="14" font-style="italic" lengthAdjust="spacing" textLength="84" x="703" y="1070.0801">&#171;application&#187;</text><text fill="#000000" font-family="sans-serif" font-size="14" lengthAdjust="spacing" textLength="87" x="701.5" y="1088.7012">AuthzRegistry</text><rect fill="#E2E2F0" height="51.2422" rx="2.5" ry="2.5" style="stroke:#181818;stroke-width:0.5;" width="143" x="805.5" y="36"/><text fill="#000000" font-family="sans-serif" font-size="14" font-style="italic" lengthAdjust="spacing" textLength="84" x="835" y="58.1074">&#171;application&#187;</text><text fill="#000000" font-family="sans-serif" font-size="14" lengthAdjust="spacing" textLength="129" x="812.5" y="76.7285">AuthorizationService</text><rect fill="#E2E2F0" height="51.2422" rx="2.5" ry="2.5" style="stroke:#181818;stroke-width:0.5;" width="143" x="805.5" y="1047.9727"/><text fill="#000000" font-family="sans-serif" font-size="14" font-style="italic" lengthAdjust="spacing" textLength="84" x="835" y="1070.0801">&#171;application&#187;</text><text fill="#000000" font-family="sans-serif" font-size="14" lengthAdjust="spacing" textLength="129" x="812.5" y="1088.7012">AuthorizationService</text><rect fill="#E2E2F0" height="51.2422" rx="2.5" ry="2.5" style="stroke:#181818;stroke-width:0.5;" width="93" x="958.5" y="36"/><text fill="#000000" font-family="sans-serif" font-size="14" font-style="italic" lengthAdjust="spacing" textLength="64" x="973" y="58.1074">&#171;Domain&#187;</text><text fill="#000000" font-family="sans-serif" font-size="14" lengthAdjust="spacing" textLength="79" x="965.5" y="76.7285">UserSession</text><rect fill="#E2E2F0" height="51.2422" rx="2.5" ry="2.5" style="stroke:#181818;stroke-width:0.5;" width="93" x="958.5" y="1047.9727"/><text fill="#000000" font-family="sans-serif" font-size="14" font-style="italic" lengthAdjust="spacing" textLength="64" x="973" y="1070.0801">&#171;Domain&#187;</text><text fill="#000000" font-family="sans-serif" font-size="14" lengthAdjust="spacing" textLength="79" x="965.5" y="1088.7012">UserSession</text><rect fill="#E2E2F0" height="51.2422" rx="2.5" ry="2.5" style="stroke:#181818;stroke-width:0.5;" width="136" x="1061.5" y="36"/><text fill="#000000" font-family="sans-serif" font-size="14" font-style="italic" lengthAdjust="spacing" textLength="89" x="1085" y="58.1074">&#171;persistence&#187;</text><text fill="#000000" font-family="sans-serif" font-size="14" lengthAdjust="spacing" textLength="122" x="1068.5" y="76.7285">PersistenceContext</text><rect fill="#E2E2F0" height="51.2422" rx="2.5" ry="2.5" style="stroke:#181818;stroke-width:0.5;" width="136" x="1061.5" y="1047.9727"/><text fill="#000000" font-family="sans-serif" font-size="14" font-style="italic" lengthAdjust="spacing" textLength="89" x="1085" y="1070.0801">&#171;persistence&#187;</text><text fill="#000000" font-family="sans-serif" font-size="14" lengthAdjust="spacing" textLength="122" x="1068.5" y="1088.7012">PersistenceContext</text><rect fill="#E2E2F0" height="51.2422" rx="2.5" ry="2.5" style="stroke:#181818;stroke-width:0.5;" width="130" x="1207.5" y="36"/><text fill="#000000" font-family="sans-serif" font-size="14" font-style="italic" lengthAdjust="spacing" textLength="59" x="1243" y="58.1074">&#171;factory&#187;</text><text fill="#000000" font-family="sans-serif" font-size="14" lengthAdjust="spacing" textLength="116" x="1214.5" y="76.7285">RepositoryFactory</text><rect fill="#E2E2F0" height="51.2422" rx="2.5" ry="2.5" style="stroke:#181818;stroke-width:0.5;" width="130" x="1207.5" y="1047.9727"/><text fill="#000000" font-family="sans-serif" font-size="14" font-style="italic" lengthAdjust="spacing" textLength="59" x="1243" y="1070.0801">&#171;factory&#187;</text><text fill="#000000" font-family="sans-serif" font-size="14" lengthAdjust="spacing" textLength="116" x="1214.5" y="1088.7012">RepositoryFactory</text><rect fill="#E2E2F0" height="51.2422" rx="2.5" ry="2.5" style="stroke:#181818;stroke-width:0.5;" width="322" x="1347.5" y="36"/><text fill="#000000" font-family="sans-serif" font-size="14" font-style="italic" lengthAdjust="spacing" textLength="46" x="1485.5" y="58.1074">&#171;DTO&#187;</text><text fill="#000000" font-family="sans-serif" font-size="14" lengthAdjust="spacing" textLength="308" x="1354.5" y="76.7285">ExamResolutionDTOWithExamTitleGradeMapper</text><rect fill="#E2E2F0" height="51.2422" rx="2.5" ry="2.5" style="stroke:#181818;stroke-width:0.5;" width="322" x="1347.5" y="1047.9727"/><text fill="#000000" font-family="sans-serif" font-size="14" font-style="italic" lengthAdjust="spacing" textLength="46" x="1485.5" y="1070.0801">&#171;DTO&#187;</text><text fill="#000000" font-family="sans-serif" font-size="14" lengthAdjust="spacing" textLength="308" x="1354.5" y="1088.7012">ExamResolutionDTOWithExamTitleGradeMapper</text><rect fill="#E2E2F0" height="51.2422" rx="2.5" ry="2.5" style="stroke:#181818;stroke-width:0.5;" width="290" x="1679.5" y="36"/><text fill="#000000" font-family="sans-serif" font-size="14" font-style="italic" lengthAdjust="spacing" textLength="46" x="1801.5" y="58.1074">&#171;DTO&#187;</text><text fill="#000000" font-family="sans-serif" font-size="14" lengthAdjust="spacing" textLength="276" x="1686.5" y="76.7285">ExamResolutionDTOExamTitleGradeBuilder</text><rect fill="#E2E2F0" height="51.2422" rx="2.5" ry="2.5" style="stroke:#181818;stroke-width:0.5;" width="290" x="1679.5" y="1047.9727"/><text fill="#000000" font-family="sans-serif" font-size="14" font-style="italic" lengthAdjust="spacing" textLength="46" x="1801.5" y="1070.0801">&#171;DTO&#187;</text><text fill="#000000" font-family="sans-serif" font-size="14" lengthAdjust="spacing" textLength="276" x="1686.5" y="1088.7012">ExamResolutionDTOExamTitleGradeBuilder</text><rect fill="#E2E2F0" height="51.2422" rx="2.5" ry="2.5" style="stroke:#181818;stroke-width:0.5;" width="246" x="1979.5" y="36"/><text fill="#000000" font-family="sans-serif" font-size="14" font-style="italic" lengthAdjust="spacing" textLength="46" x="2079.5" y="58.1074">&#171;DTO&#187;</text><text fill="#000000" font-family="sans-serif" font-size="14" lengthAdjust="spacing" textLength="232" x="1986.5" y="76.7285">ExamResolutionDTOExamTitleGrade</text><rect fill="#E2E2F0" height="51.2422" rx="2.5" ry="2.5" style="stroke:#181818;stroke-width:0.5;" width="246" x="1979.5" y="1047.9727"/><text fill="#000000" font-family="sans-serif" font-size="14" font-style="italic" lengthAdjust="spacing" textLength="46" x="2079.5" y="1070.0801">&#171;DTO&#187;</text><text fill="#000000" font-family="sans-serif" font-size="14" lengthAdjust="spacing" textLength="232" x="1986.5" y="1088.7012">ExamResolutionDTOExamTitleGrade</text><text fill="#000000" font-family="sans-serif" font-size="14" font-style="italic" lengthAdjust="spacing" textLength="84" x="2244" y="66.1074">&#171;Repository&#187;</text><text fill="#000000" font-family="sans-serif" font-size="14" lengthAdjust="spacing" textLength="101" x="2235.5" y="84.7285">ExamResolution</text><path d="M2271,15 C2271,5 2289,5 2289,5 C2289,5 2307,5 2307,15 L2307,41 C2307,51 2289,51 2289,51 C2289,51 2271,51 2271,41 L2271,15 " fill="#E2E2F0" style="stroke:#181818;stroke-width:1.5;"/><path d="M2271,15 C2271,25 2289,25 2289,25 C2289,25 2307,25 2307,15 " fill="none" style="stroke:#181818;stroke-width:1.5;"/><text fill="#000000" font-family="sans-serif" font-size="14" font-style="italic" lengthAdjust="spacing" textLength="84" x="2244" y="1063.0801">&#171;Repository&#187;</text><text fill="#000000" font-family="sans-serif" font-size="14" lengthAdjust="spacing" textLength="101" x="2235.5" y="1081.7012">ExamResolution</text><path d="M2271,1095.2148 C2271,1085.2148 2289,1085.2148 2289,1085.2148 C2289,1085.2148 2307,1085.2148 2307,1095.2148 L2307,1121.2148 C2307,1131.2148 2289,1131.2148 2289,1131.2148 C2289,1131.2148 2271,1131.2148 2271,1121.2148 L2271,1095.2148 " fill="#E2E2F0" style="stroke:#181818;stroke-width:1.5;"/><path d="M2271,1095.2148 C2271,1105.2148 2289,1105.2148 2289,1105.2148 C2289,1105.2148 2307,1105.2148 2307,1095.2148 " fill="none" style="stroke:#181818;stroke-width:1.5;"/><rect fill="#FFFFFF" height="932.7305" style="stroke:#181818;stroke-width:1.0;" width="10" x="27.5" y="98.2422"/><rect fill="#FFFFFF" height="909.4395" style="stroke:#181818;stroke-width:1.0;" width="10" x="189.5" y="121.5332"/><rect fill="#FFFFFF" height="815.5664" style="stroke:#181818;stroke-width:1.0;" width="10" x="379.5" y="184.1152"/><rect fill="#FFFFFF" height="752.9844" style="stroke:#181818;stroke-width:1.0;" width="10" x="576" y="215.4063"/><rect fill="#FFFFFF" height="31.291" style="stroke:#181818;stroke-width:1.0;" width="10" x="740" y="246.6973"/><rect fill="#FFFFFF" height="31.291" style="stroke:#181818;stroke-width:1.0;" width="10" x="872" y="309.2793"/><rect fill="#FFFFFF" height="31.291" style="stroke:#181818;stroke-width:1.0;" width="10" x="1000" y="371.8613"/><rect fill="#FFFFFF" height="62.582" style="stroke:#181818;stroke-width:1.0;" width="10" x="1124.5" y="434.4434"/><rect fill="#FFFFFF" height="62.582" style="stroke:#181818;stroke-width:1.0;" width="10" x="1267.5" y="528.3164"/><rect fill="#FFFFFF" height="219.0371" style="stroke:#181818;stroke-width:1.0;" width="10" x="1503.5" y="711.0625"/><rect fill="#FFFFFF" height="93.873" style="stroke:#181818;stroke-width:1.0;" width="10" x="1819.5" y="804.9355"/><rect fill="#FFFFFF" height="31.291" style="stroke:#181818;stroke-width:1.0;" width="10" x="2097.5" y="836.2266"/><rect fill="#FFFFFF" height="31.291" style="stroke:#181818;stroke-width:1.0;" width="10" x="2284" y="622.1895"/><polygon fill="#181818" points="177.5,117.5332,187.5,121.5332,177.5,125.5332,181.5,121.5332" style="stroke:#181818;stroke-width:1.0;"/><line style="stroke:#181818;stroke-width:1.0;" x1="37.5" x2="183.5" y1="121.5332" y2="121.5332"/><text fill="#000000" font-family="sans-serif" font-size="13" font-weight="bold" lengthAdjust="spacing" textLength="7" x="44.5" y="116.2705">1</text><text fill="#000000" font-family="sans-serif" font-size="13" lengthAdjust="spacing" textLength="82" x="55.5" y="116.2705">list my grades</text><polygon fill="#181818" points="372.5,148.8242,382.5,152.8242,372.5,156.8242,376.5,152.8242" style="stroke:#181818;stroke-width:1.0;"/><line style="stroke:#181818;stroke-width:1.0;" x1="199.5" x2="378.5" y1="152.8242" y2="152.8242"/><text fill="#000000" font-family="sans-serif" font-size="13" font-weight="bold" lengthAdjust="spacing" textLength="7" x="206.5" y="147.5615">2</text><text fill="#000000" font-family="sans-serif" font-size="13" lengthAdjust="spacing" textLength="36" x="217.5" y="147.5615">create</text><polygon fill="#181818" points="367.5,180.1152,377.5,184.1152,367.5,188.1152,371.5,184.1152" style="stroke:#181818;stroke-width:1.0;"/><line style="stroke:#181818;stroke-width:1.0;" x1="199.5" x2="373.5" y1="184.1152" y2="184.1152"/><text fill="#000000" font-family="sans-serif" font-size="13" font-weight="bold" lengthAdjust="spacing" textLength="7" x="206.5" y="178.8525">3</text><text fill="#000000" font-family="sans-serif" font-size="13" lengthAdjust="spacing" textLength="85" x="217.5" y="178.8525">listMyGrades()</text><polygon fill="#181818" points="564,211.4063,574,215.4063,564,219.4063,568,215.4063" style="stroke:#181818;stroke-width:1.0;"/><line style="stroke:#181818;stroke-width:1.0;" x1="389.5" x2="570" y1="215.4063" y2="215.4063"/><text fill="#000000" font-family="sans-serif" font-size="13" font-weight="bold" lengthAdjust="spacing" textLength="7" x="396.5" y="210.1436">4</text><text fill="#000000" font-family="sans-serif" font-size="13" lengthAdjust="spacing" textLength="85" x="407.5" y="210.1436">listMyGrades()</text><polygon fill="#181818" points="728,242.6973,738,246.6973,728,250.6973,732,246.6973" style="stroke:#181818;stroke-width:1.0;"/><line style="stroke:#181818;stroke-width:1.0;" x1="586" x2="734" y1="246.6973" y2="246.6973"/><text fill="#000000" font-family="sans-serif" font-size="13" font-weight="bold" lengthAdjust="spacing" textLength="7" x="593" y="241.4346">5</text><text fill="#000000" font-family="sans-serif" font-size="13" lengthAdjust="spacing" textLength="124" x="604" y="241.4346">authorizationService()</text><polygon fill="#181818" points="597,273.9883,587,277.9883,597,281.9883,593,277.9883" style="stroke:#181818;stroke-width:1.0;"/><line style="stroke:#181818;stroke-width:1.0;stroke-dasharray:2.0,2.0;" x1="591" x2="744" y1="277.9883" y2="277.9883"/><text fill="#000000" font-family="sans-serif" font-size="13" font-weight="bold" lengthAdjust="spacing" textLength="7" x="603" y="272.7256">6</text><text fill="#000000" font-family="sans-serif" font-size="13" lengthAdjust="spacing" textLength="32" x="614" y="272.7256">authz</text><polygon fill="#181818" points="860,305.2793,870,309.2793,860,313.2793,864,309.2793" style="stroke:#181818;stroke-width:1.0;"/><line style="stroke:#181818;stroke-width:1.0;" x1="586" x2="866" y1="309.2793" y2="309.2793"/><text fill="#000000" font-family="sans-serif" font-size="13" font-weight="bold" lengthAdjust="spacing" textLength="7" x="593" y="304.0166">7</text><text fill="#000000" font-family="sans-serif" font-size="13" lengthAdjust="spacing" textLength="53" x="604" y="304.0166">session()</text><polygon fill="#181818" points="597,336.5703,587,340.5703,597,344.5703,593,340.5703" style="stroke:#181818;stroke-width:1.0;"/><line style="stroke:#181818;stroke-width:1.0;stroke-dasharray:2.0,2.0;" x1="591" x2="876" y1="340.5703" y2="340.5703"/><text fill="#000000" font-family="sans-serif" font-size="13" font-weight="bold" lengthAdjust="spacing" textLength="7" x="603" y="335.3076">8</text><text fill="#000000" font-family="sans-serif" font-size="13" lengthAdjust="spacing" textLength="72" x="614" y="335.3076">userSession</text><polygon fill="#181818" points="988,367.8613,998,371.8613,988,375.8613,992,371.8613" style="stroke:#181818;stroke-width:1.0;"/><line style="stroke:#181818;stroke-width:1.0;" x1="586" x2="994" y1="371.8613" y2="371.8613"/><text fill="#000000" font-family="sans-serif" font-size="13" font-weight="bold" lengthAdjust="spacing" textLength="7" x="593" y="366.5986">9</text><text fill="#000000" font-family="sans-serif" font-size="13" lengthAdjust="spacing" textLength="113" x="604" y="366.5986">authenticatedUser()</text><polygon fill="#181818" points="597,399.1523,587,403.1523,597,407.1523,593,403.1523" style="stroke:#181818;stroke-width:1.0;"/><line style="stroke:#181818;stroke-width:1.0;stroke-dasharray:2.0,2.0;" x1="591" x2="1004" y1="403.1523" y2="403.1523"/><text fill="#000000" font-family="sans-serif" font-size="13" font-weight="bold" lengthAdjust="spacing" textLength="14" x="603" y="397.8896">10</text><text fill="#000000" font-family="sans-serif" font-size="13" lengthAdjust="spacing" textLength="70" x="621" y="397.8896">systemUser</text><polygon fill="#181818" points="1112.5,430.4434,1122.5,434.4434,1112.5,438.4434,1116.5,434.4434" style="stroke:#181818;stroke-width:1.0;"/><line style="stroke:#181818;stroke-width:1.0;" x1="586" x2="1118.5" y1="434.4434" y2="434.4434"/><text fill="#000000" font-family="sans-serif" font-size="13" font-weight="bold" lengthAdjust="spacing" textLength="14" x="593" y="429.1807">11</text><text fill="#000000" font-family="sans-serif" font-size="13" lengthAdjust="spacing" textLength="75" x="611" y="429.1807">repositories()</text><polygon fill="#181818" points="1260.5,461.7344,1270.5,465.7344,1260.5,469.7344,1264.5,465.7344" style="stroke:#181818;stroke-width:1.0;"/><line style="stroke:#181818;stroke-width:1.0;" x1="1134.5" x2="1266.5" y1="465.7344" y2="465.7344"/><text fill="#000000" font-family="sans-serif" font-size="13" font-weight="bold" lengthAdjust="spacing" textLength="14" x="1141.5" y="460.4717">12</text><text fill="#000000" font-family="sans-serif" font-size="13" lengthAdjust="spacing" textLength="44" x="1159.5" y="460.4717">create()</text><polygon fill="#181818" points="597,493.0254,587,497.0254,597,501.0254,593,497.0254" style="stroke:#181818;stroke-width:1.0;"/><line style="stroke:#181818;stroke-width:1.0;stroke-dasharray:2.0,2.0;" x1="591" x2="1128.5" y1="497.0254" y2="497.0254"/><text fill="#000000" font-family="sans-serif" font-size="13" font-weight="bold" lengthAdjust="spacing" textLength="14" x="603" y="491.7627">13</text><text fill="#000000" font-family="sans-serif" font-size="13" lengthAdjust="spacing" textLength="39" x="621" y="491.7627">factory</text><polygon fill="#181818" points="1255.5,524.3164,1265.5,528.3164,1255.5,532.3164,1259.5,528.3164" style="stroke:#181818;stroke-width:1.0;"/><line style="stroke:#181818;stroke-width:1.0;" x1="586" x2="1261.5" y1="528.3164" y2="528.3164"/><text fill="#000000" font-family="sans-serif" font-size="13" font-weight="bold" lengthAdjust="spacing" textLength="14" x="593" y="523.0537">14</text><text fill="#000000" font-family="sans-serif" font-size="13" lengthAdjust="spacing" textLength="165" x="611" y="523.0537">ExamResolutionRepository()</text><polygon fill="#181818" points="2277,555.6074,2287,559.6074,2277,563.6074,2281,559.6074" style="stroke:#181818;stroke-width:1.0;"/><line style="stroke:#181818;stroke-width:1.0;" x1="1277.5" x2="2283" y1="559.6074" y2="559.6074"/><text fill="#000000" font-family="sans-serif" font-size="13" font-weight="bold" lengthAdjust="spacing" textLength="14" x="1284.5" y="554.3447">15</text><text fill="#000000" font-family="sans-serif" font-size="13" lengthAdjust="spacing" textLength="44" x="1302.5" y="554.3447">create()</text><polygon fill="#181818" points="597,586.8984,587,590.8984,597,594.8984,593,590.8984" style="stroke:#181818;stroke-width:1.0;"/><line style="stroke:#181818;stroke-width:1.0;stroke-dasharray:2.0,2.0;" x1="591" x2="1271.5" y1="590.8984" y2="590.8984"/><text fill="#000000" font-family="sans-serif" font-size="13" font-weight="bold" lengthAdjust="spacing" textLength="14" x="603" y="585.6357">16</text><text fill="#000000" font-family="sans-serif" font-size="13" lengthAdjust="spacing" textLength="155" x="621" y="585.6357">examResolutionRepository</text><polygon fill="#181818" points="2272,618.1895,2282,622.1895,2272,626.1895,2276,622.1895" style="stroke:#181818;stroke-width:1.0;"/><line style="stroke:#181818;stroke-width:1.0;" x1="586" x2="2278" y1="622.1895" y2="622.1895"/><text fill="#000000" font-family="sans-serif" font-size="13" font-weight="bold" lengthAdjust="spacing" textLength="14" x="593" y="616.9268">17</text><text fill="#000000" font-family="sans-serif" font-size="13" lengthAdjust="spacing" textLength="185" x="611" y="616.9268">findStudentGrades(systemUser)</text><polygon fill="#181818" points="597,649.4805,587,653.4805,597,657.4805,593,653.4805" style="stroke:#181818;stroke-width:1.0;"/><line style="stroke:#181818;stroke-width:1.0;stroke-dasharray:2.0,2.0;" x1="591" x2="2288" y1="653.4805" y2="653.4805"/><text fill="#000000" font-family="sans-serif" font-size="13" font-weight="bold" lengthAdjust="spacing" textLength="14" x="603" y="648.2178">18</text><text fill="#000000" font-family="sans-serif" font-size="13" lengthAdjust="spacing" textLength="112" x="621" y="648.2178">listExamResolution</text><path d="M481.5,668.4805 L542.5,668.4805 L542.5,677.7715 L532.5,687.7715 L481.5,687.7715 L481.5,668.4805 " fill="#EEEEEE" style="stroke:#000000;stroke-width:1.5;"/><rect fill="none" height="269.6191" style="stroke:#000000;stroke-width:1.5;" width="1754" x="481.5" y="668.4805"/><text fill="#000000" font-family="sans-serif" font-size="13" font-weight="bold" lengthAdjust="spacing" textLength="16" x="496.5" y="683.5088">alt</text><text fill="#000000" font-family="sans-serif" font-size="11" font-weight="bold" lengthAdjust="spacing" textLength="266" x="557.5" y="682.3506">[for each examResolution in listExamResolution]</text><polygon fill="#181818" points="1491.5,707.0625,1501.5,711.0625,1491.5,715.0625,1495.5,711.0625" style="stroke:#181818;stroke-width:1.0;"/><line style="stroke:#181818;stroke-width:1.0;" x1="586" x2="1497.5" y1="711.0625" y2="711.0625"/><text fill="#000000" font-family="sans-serif" font-size="13" font-weight="bold" lengthAdjust="spacing" textLength="14" x="593" y="705.7998">19</text><text fill="#000000" font-family="sans-serif" font-size="13" lengthAdjust="spacing" textLength="132" x="611" y="705.7998">toDto(examResolution)</text><polygon fill="#181818" points="1812.5,738.3535,1822.5,742.3535,1812.5,746.3535,1816.5,742.3535" style="stroke:#181818;stroke-width:1.0;"/><line style="stroke:#181818;stroke-width:1.0;" x1="1513.5" x2="1818.5" y1="742.3535" y2="742.3535"/><text fill="#000000" font-family="sans-serif" font-size="13" font-weight="bold" lengthAdjust="spacing" textLength="14" x="1520.5" y="737.0908">20</text><text fill="#000000" font-family="sans-serif" font-size="13" lengthAdjust="spacing" textLength="44" x="1538.5" y="737.0908">create()</text><polygon fill="#181818" points="1812.5,769.6445,1822.5,773.6445,1812.5,777.6445,1816.5,773.6445" style="stroke:#181818;stroke-width:1.0;"/><line style="stroke:#181818;stroke-width:1.0;" x1="1513.5" x2="1818.5" y1="773.6445" y2="773.6445"/><text fill="#000000" font-family="sans-serif" font-size="13" font-weight="bold" lengthAdjust="spacing" textLength="14" x="1520.5" y="768.3818">21</text><text fill="#000000" font-family="sans-serif" font-size="13" lengthAdjust="spacing" textLength="216" x="1538.5" y="768.3818">withExamTitleGrade(examTitle,grade)</text><polygon fill="#181818" points="1807.5,800.9355,1817.5,804.9355,1807.5,808.9355,1811.5,804.9355" style="stroke:#181818;stroke-width:1.0;"/><line style="stroke:#181818;stroke-width:1.0;" x1="1513.5" x2="1813.5" y1="804.9355" y2="804.9355"/><text fill="#000000" font-family="sans-serif" font-size="13" font-weight="bold" lengthAdjust="spacing" textLength="14" x="1520.5" y="799.6729">22</text><text fill="#000000" font-family="sans-serif" font-size="13" lengthAdjust="spacing" textLength="35" x="1538.5" y="799.6729">build()</text><polygon fill="#181818" points="2085.5,832.2266,2095.5,836.2266,2085.5,840.2266,2089.5,836.2266" style="stroke:#181818;stroke-width:1.0;"/><line style="stroke:#181818;stroke-width:1.0;" x1="1829.5" x2="2091.5" y1="836.2266" y2="836.2266"/><text fill="#000000" font-family="sans-serif" font-size="13" font-weight="bold" lengthAdjust="spacing" textLength="14" x="1836.5" y="830.9639">23</text><text fill="#000000" font-family="sans-serif" font-size="13" lengthAdjust="spacing" textLength="136" x="1854.5" y="830.9639">create(examTitle,grade)</text><polygon fill="#181818" points="1840.5,863.5176,1830.5,867.5176,1840.5,871.5176,1836.5,867.5176" style="stroke:#181818;stroke-width:1.0;"/><line style="stroke:#181818;stroke-width:1.0;stroke-dasharray:2.0,2.0;" x1="1834.5" x2="2101.5" y1="867.5176" y2="867.5176"/><text fill="#000000" font-family="sans-serif" font-size="13" font-weight="bold" lengthAdjust="spacing" textLength="14" x="1846.5" y="862.2549">24</text><text fill="#000000" font-family="sans-serif" font-size="13" lengthAdjust="spacing" textLength="212" x="1864.5" y="862.2549">examResolutionDTOExamTitleGrade</text><polygon fill="#181818" points="1524.5,894.8086,1514.5,898.8086,1524.5,902.8086,1520.5,898.8086" style="stroke:#181818;stroke-width:1.0;"/><line style="stroke:#181818;stroke-width:1.0;stroke-dasharray:2.0,2.0;" x1="1518.5" x2="1823.5" y1="898.8086" y2="898.8086"/><text fill="#000000" font-family="sans-serif" font-size="13" font-weight="bold" lengthAdjust="spacing" textLength="14" x="1530.5" y="893.5459">25</text><text fill="#000000" font-family="sans-serif" font-size="13" lengthAdjust="spacing" textLength="212" x="1548.5" y="893.5459">examResolutionDTOExamTitleGrade</text><polygon fill="#181818" points="597,926.0996,587,930.0996,597,934.0996,593,930.0996" style="stroke:#181818;stroke-width:1.0;"/><line style="stroke:#181818;stroke-width:1.0;stroke-dasharray:2.0,2.0;" x1="591" x2="1507.5" y1="930.0996" y2="930.0996"/><text fill="#000000" font-family="sans-serif" font-size="13" font-weight="bold" lengthAdjust="spacing" textLength="14" x="603" y="924.8369">26</text><text fill="#000000" font-family="sans-serif" font-size="13" lengthAdjust="spacing" textLength="212" x="621" y="924.8369">examResolutionDTOExamTitleGrade</text><polygon fill="#181818" points="400.5,964.3906,390.5,968.3906,400.5,972.3906,396.5,968.3906" style="stroke:#181818;stroke-width:1.0;"/><line style="stroke:#181818;stroke-width:1.0;stroke-dasharray:2.0,2.0;" x1="394.5" x2="580" y1="968.3906" y2="968.3906"/><text fill="#000000" font-family="sans-serif" font-size="13" font-weight="bold" lengthAdjust="spacing" textLength="14" x="406.5" y="963.1279">27</text><text fill="#000000" font-family="sans-serif" font-size="13" lengthAdjust="spacing" textLength="138" x="424.5" y="963.1279">listExamResolutionDTO</text><polygon fill="#181818" points="210.5,995.6816,200.5,999.6816,210.5,1003.6816,206.5,999.6816" style="stroke:#181818;stroke-width:1.0;"/><line style="stroke:#181818;stroke-width:1.0;stroke-dasharray:2.0,2.0;" x1="204.5" x2="383.5" y1="999.6816" y2="999.6816"/><text fill="#000000" font-family="sans-serif" font-size="13" font-weight="bold" lengthAdjust="spacing" textLength="14" x="216.5" y="994.4189">28</text><text fill="#000000" font-family="sans-serif" font-size="13" lengthAdjust="spacing" textLength="138" x="234.5" y="994.4189">listExamResolutionDTO</text><polygon fill="#181818" points="43.5,1026.9727,33.5,1030.9727,43.5,1034.9727,39.5,1030.9727" style="stroke:#181818;stroke-width:1.0;"/><line style="stroke:#181818;stroke-width:1.0;stroke-dasharray:2.0,2.0;" x1="37.5" x2="193.5" y1="1030.9727" y2="1030.9727"/><text fill="#000000" font-family="sans-serif" font-size="13" font-weight="bold" lengthAdjust="spacing" textLength="14" x="49.5" y="1025.71">29</text><text fill="#000000" font-family="sans-serif" font-size="13" lengthAdjust="spacing" textLength="110" x="67.5" y="1025.71">Show list of grades</text><!--SRC=[dLR1Rjim3BthAunUbW7BSZU20Dso3GDMjAZJxApOJ2F0jZn9Rfj-_KXPZYbbtTeT4jZIUuyKzSZatS6vpkQBHLVBrlLD_R7KpSB2hnxQ4kQLalT6DaB8tkcsRtPWX2oTDbdX-WfQbqcRMLS98Jffd2fLXpBPnGzbNK1yCx82U_VzWg2zofRB6mCMDwHJkbsj_a7yh5jdT5s3yGAbCpLAN7PThShNAHHW7bG9dcw7PrG8gyYEw9UzEppVmZsAc2CnyE07XCiN0n936_NizuBgI2osVwNUOJe5M8ixlZZ-5HbhtKZLfgdTWB6O5jqB5GMUVF6xQHMPx2s9TGkTjWflxlZLNw0_d85kV5ikzyDJ6lRBasnkmUgwfnEiDzS_bJlGuaQv6do9h_28O4YmaPJ-vZe9VgOHyp_rggu6WLru_0yLebTEdwYYaaxkf8M4I3ZmAnrYfxeG1KkW7gG3xsdyp5TasJohiQXPSypklQCcMAy4xYEAV9bdfG5SZPQ8UNKSd3XxFp5fLtWt8pJOycLq00Wn6XX9PB3SVwVsuqpQ5zx4Snw8Lfv51J4kKI-sEJAyFrF9OYk2mIFPVd9qAeuC9Zy0XpomKwa_eA9-u846a0XzmGBXZTWZshmX1WyK656TM4_avFZXkbLSO0OIlAMGFpN9UC58Z32y0g6BU59Sc-N5TME7JfxaAKvumVeMXOAPMNPydoS7BuJXsR8mWST3x5LRHTDrDbq4opNWnTXdyzJayO5v_94gPEsoFVxIuDOXoJnJxPzKM75n4EMPqskdPp6L9Tb8WJ04ZqE7LJ3TU3mRUbxNltxmK-6Suv_u3OOjCK8GZGFh5FLCy4H4bA3HDf_qqyiy6uUyfiG_1HshymR-c3YTSBwQcl0D4bXiQ2lMcD64F1ljd3eEls5Q-f7y2fOVi3I9oNgkmcoBWtuS9hdUZvESpmuL1QK_DRy1]--></g></svg>