<?xml version="1.0" encoding="us-ascii" standalone="no"?><svg xmlns="http://www.w3.org/2000/svg" xmlns:xlink="http://www.w3.org/1999/xlink" contentStyleType="text/css" height="359.4px" preserveAspectRatio="none" style="width:909px;height:359px;background:#FFFFFF;" version="1.1" viewBox="0 0 909 359" width="909px" zoomAndPan="magnify"><defs/><g><!--class MeetUI--><g id="elem_MeetUI"><rect codeLine="62" fill="#F1F1F1" height="29.3473" id="MeetUI" rx="0.75" ry="0.75" style="stroke:#181818;stroke-width:0.15;" width="69.6" x="443.7" y="2.1"/><ellipse cx="465.525" cy="8.7873" fill="#ADD1B2" rx="3.3" ry="3.3" style="stroke:#181818;stroke-width:0.3;"/><path d="M466.3547,7.5498 Q466.4016,7.4842 466.4578,7.4514 Q466.5141,7.4186 466.5797,7.4186 Q466.6922,7.4186 466.7625,7.4982 Q466.8328,7.5732 466.8328,7.7561 L466.8328,8.192 Q466.8328,8.3748 466.7625,8.4545 Q466.6922,8.5342 466.5797,8.5342 Q466.4766,8.5342 466.4156,8.4732 Q466.3547,8.417 466.3219,8.2623 Q466.3078,8.1545 466.2516,8.0982 Q466.1531,7.9857 465.9703,7.9201 Q465.7875,7.8545 465.6,7.8545 Q465.3703,7.8545 465.1781,7.9529 Q464.9906,8.0514 464.8406,8.2764 Q464.6953,8.5014 464.6953,8.8107 L464.6953,9.1389 Q464.6953,9.5092 464.9625,9.7576 Q465.2297,10.0014 465.7078,10.0014 Q465.9891,10.0014 466.1859,9.9264 Q466.3031,9.8795 466.4297,9.7482 Q466.5094,9.6686 466.5516,9.6451 Q466.5984,9.6217 466.6594,9.6217 Q466.7578,9.6217 466.8328,9.7014 Q466.9125,9.7764 466.9125,9.8795 Q466.9125,9.9826 466.8094,10.1045 Q466.6594,10.2779 466.4203,10.3764 Q466.0969,10.5123 465.7078,10.5123 Q465.2531,10.5123 464.8922,10.3248 Q464.5969,10.1748 464.3906,9.8561 Q464.1844,9.5326 464.1844,9.1482 L464.1844,8.8014 Q464.1844,8.4029 464.3672,8.0607 Q464.5547,7.7139 464.8828,7.5311 Q465.2109,7.3436 465.5812,7.3436 Q465.8016,7.3436 465.9938,7.3951 Q466.1906,7.442 466.3547,7.5498 Z " fill="#000000"/><text fill="#000000" font-family="sans-serif" font-size="3.6" font-style="italic" lengthAdjust="spacing" textLength="24.6" x="471.075" y="7.4848">&#171;presentation&#187;</text><text fill="#000000" font-family="sans-serif" font-size="4.2" lengthAdjust="spacing" textLength="18.6" x="474.075" y="12.9205">MeetingUI</text><line style="stroke:#181818;stroke-width:0.15;" x1="444" x2="513" y1="15.4746" y2="15.4746"/><ellipse cx="447" cy="19.9178" fill="none" rx="0.9" ry="0.9" style="stroke:#038048;stroke-width:0.3;"/><text fill="#000000" font-family="sans-serif" font-size="4.2" lengthAdjust="spacing" textLength="61.8" x="449.7" y="21.2068">theController : MeetingController</text><line style="stroke:#181818;stroke-width:0.15;" x1="444" x2="513" y1="23.4609" y2="23.4609"/><rect fill="#F24D5C" height="1.8" style="stroke:#C82930;stroke-width:0.3;" width="1.8" x="446.1" y="27.0041"/><text fill="#000000" font-family="sans-serif" font-size="4.2" lengthAdjust="spacing" textLength="29.4" x="449.7" y="29.1932">doShow() : void</text></g><!--class MeetController--><g id="elem_MeetController"><rect codeLine="67" fill="#F1F1F1" height="34.9336" id="MeetController" rx="0.75" ry="0.75" style="stroke:#181818;stroke-width:0.15;" width="78.3" x="439.35" y="49.5"/><ellipse cx="460.425" cy="56.1873" fill="#ADD1B2" rx="3.3" ry="3.3" style="stroke:#181818;stroke-width:0.3;"/><path d="M461.2547,54.9498 Q461.3016,54.8842 461.3578,54.8514 Q461.4141,54.8186 461.4797,54.8186 Q461.5922,54.8186 461.6625,54.8982 Q461.7328,54.9732 461.7328,55.1561 L461.7328,55.592 Q461.7328,55.7748 461.6625,55.8545 Q461.5922,55.9342 461.4797,55.9342 Q461.3766,55.9342 461.3156,55.8732 Q461.2547,55.817 461.2219,55.6623 Q461.2078,55.5545 461.1516,55.4982 Q461.0531,55.3857 460.8703,55.3201 Q460.6875,55.2545 460.5,55.2545 Q460.2703,55.2545 460.0781,55.3529 Q459.8906,55.4514 459.7406,55.6764 Q459.5953,55.9014 459.5953,56.2107 L459.5953,56.5389 Q459.5953,56.9092 459.8625,57.1576 Q460.1297,57.4014 460.6078,57.4014 Q460.8891,57.4014 461.0859,57.3264 Q461.2031,57.2795 461.3297,57.1482 Q461.4094,57.0686 461.4516,57.0451 Q461.4984,57.0217 461.5594,57.0217 Q461.6578,57.0217 461.7328,57.1014 Q461.8125,57.1764 461.8125,57.2795 Q461.8125,57.3826 461.7094,57.5045 Q461.5594,57.6779 461.3203,57.7764 Q460.9969,57.9123 460.6078,57.9123 Q460.1531,57.9123 459.7922,57.7248 Q459.4969,57.5748 459.2906,57.2561 Q459.0844,56.9326 459.0844,56.5482 L459.0844,56.2014 Q459.0844,55.8029 459.2672,55.4607 Q459.4547,55.1139 459.7828,54.9311 Q460.1109,54.7436 460.4813,54.7436 Q460.7016,54.7436 460.8937,54.7951 Q461.0906,54.842 461.2547,54.9498 Z " fill="#000000"/><text fill="#000000" font-family="sans-serif" font-size="3.6" font-style="italic" lengthAdjust="spacing" textLength="22.2" x="472.275" y="54.8848">&#171;application&#187;</text><text fill="#000000" font-family="sans-serif" font-size="4.2" lengthAdjust="spacing" textLength="33.6" x="466.575" y="60.3205">MeetingController</text><line style="stroke:#181818;stroke-width:0.15;" x1="439.65" x2="517.35" y1="62.8746" y2="62.8746"/><ellipse cx="442.65" cy="67.3178" fill="none" rx="0.9" ry="0.9" style="stroke:#038048;stroke-width:0.3;"/><text fill="#000000" font-family="sans-serif" font-size="4.2" lengthAdjust="spacing" textLength="70.5" x="445.35" y="68.6068">theService : ScheduleMeetingService</text><line style="stroke:#181818;stroke-width:0.15;" x1="439.65" x2="517.35" y1="70.8609" y2="70.8609"/><rect fill="#F24D5C" height="1.8" style="stroke:#C82930;stroke-width:0.3;" width="1.8" x="441.75" y="74.4041"/><text fill="#000000" font-family="sans-serif" font-size="4.2" lengthAdjust="spacing" textLength="64.5" x="445.35" y="76.5932">verifyMeetingData(data) : boolean</text><rect fill="#F24D5C" height="1.8" style="stroke:#C82930;stroke-width:0.3;" width="1.8" x="441.75" y="79.9904"/><text fill="#000000" font-family="sans-serif" font-size="4.2" lengthAdjust="spacing" textLength="62.4" x="445.35" y="82.1795">scheduleMeeting(data) : boolean</text></g><!--class ScheduleMeetService--><g id="elem_ScheduleMeetService"><rect codeLine="73" fill="#F1F1F1" height="57.2789" id="ScheduleMeetService" rx="0.75" ry="0.75" style="stroke:#181818;stroke-width:0.15;" width="150" x="403.5" y="102.3"/><ellipse cx="453.825" cy="108.9873" fill="#ADD1B2" rx="3.3" ry="3.3" style="stroke:#181818;stroke-width:0.3;"/><path d="M454.6547,107.7498 Q454.7016,107.6842 454.7578,107.6514 Q454.8141,107.6186 454.8797,107.6186 Q454.9922,107.6186 455.0625,107.6982 Q455.1328,107.7732 455.1328,107.9561 L455.1328,108.392 Q455.1328,108.5748 455.0625,108.6545 Q454.9922,108.7342 454.8797,108.7342 Q454.7766,108.7342 454.7156,108.6732 Q454.6547,108.617 454.6219,108.4623 Q454.6078,108.3545 454.5516,108.2982 Q454.4531,108.1857 454.2703,108.1201 Q454.0875,108.0545 453.9,108.0545 Q453.6703,108.0545 453.4781,108.1529 Q453.2906,108.2514 453.1406,108.4764 Q452.9953,108.7014 452.9953,109.0107 L452.9953,109.3389 Q452.9953,109.7092 453.2625,109.9576 Q453.5297,110.2014 454.0078,110.2014 Q454.2891,110.2014 454.4859,110.1264 Q454.6031,110.0795 454.7297,109.9482 Q454.8094,109.8686 454.8516,109.8451 Q454.8984,109.8217 454.9594,109.8217 Q455.0578,109.8217 455.1328,109.9014 Q455.2125,109.9764 455.2125,110.0795 Q455.2125,110.1826 455.1094,110.3045 Q454.9594,110.4779 454.7203,110.5764 Q454.3969,110.7123 454.0078,110.7123 Q453.5531,110.7123 453.1922,110.5248 Q452.8969,110.3748 452.6906,110.0561 Q452.4844,109.7326 452.4844,109.3482 L452.4844,109.0014 Q452.4844,108.6029 452.6672,108.2607 Q452.8547,107.9139 453.1828,107.7311 Q453.5109,107.5436 453.8812,107.5436 Q454.1016,107.5436 454.2938,107.5951 Q454.4906,107.642 454.6547,107.7498 Z " fill="#000000"/><text fill="#000000" font-family="sans-serif" font-size="3.6" font-style="italic" lengthAdjust="spacing" textLength="22.2" x="472.275" y="107.6848">&#171;application&#187;</text><text fill="#000000" font-family="sans-serif" font-size="4.2" lengthAdjust="spacing" textLength="46.8" x="459.975" y="113.1205">ScheduleMeetingService</text><line style="stroke:#181818;stroke-width:0.15;" x1="403.8" x2="553.2" y1="115.6746" y2="115.6746"/><ellipse cx="406.8" cy="120.1178" fill="none" rx="0.9" ry="0.9" style="stroke:#038048;stroke-width:0.3;"/><text fill="#000000" font-family="sans-serif" font-size="4.2" lengthAdjust="spacing" textLength="71.4" x="409.5" y="121.4068">thePersonService : ListPersonService</text><ellipse cx="406.8" cy="125.7041" fill="none" rx="0.9" ry="0.9" style="stroke:#038048;stroke-width:0.3;"/><text fill="#000000" font-family="sans-serif" font-size="4.2" lengthAdjust="spacing" textLength="93.9" x="409.5" y="126.9932">theMeetingService : AvailableMeetingDateService</text><ellipse cx="406.8" cy="131.2904" fill="none" rx="0.9" ry="0.9" style="stroke:#038048;stroke-width:0.3;"/><text fill="#000000" font-family="sans-serif" font-size="4.2" lengthAdjust="spacing" textLength="84.9" x="409.5" y="132.5795">theClassService : AvailableClassDateService</text><ellipse cx="406.8" cy="136.8768" fill="none" rx="0.9" ry="0.9" style="stroke:#038048;stroke-width:0.3;"/><text fill="#000000" font-family="sans-serif" font-size="4.2" lengthAdjust="spacing" textLength="104.1" x="409.5" y="138.1658">theExtraClassService : AvailableExtraClassDateService</text><line style="stroke:#181818;stroke-width:0.15;" x1="403.8" x2="553.2" y1="140.4199" y2="140.4199"/><rect fill="#F24D5C" height="1.8" style="stroke:#C82930;stroke-width:0.3;" width="1.8" x="405.9" y="143.9631"/><text fill="#000000" font-family="sans-serif" font-size="4.2" lengthAdjust="spacing" textLength="64.5" x="409.5" y="146.1521">verifyMeetingData(data) : boolean</text><rect fill="#F24D5C" height="1.8" style="stroke:#C82930;stroke-width:0.3;" width="1.8" x="405.9" y="149.5494"/><text fill="#000000" font-family="sans-serif" font-size="4.2" lengthAdjust="spacing" textLength="62.4" x="409.5" y="151.7385">scheduleMeeting(data) : boolean</text><rect fill="#F24D5C" height="1.8" style="stroke:#C82930;stroke-width:0.3;" width="1.8" x="405.9" y="155.1357"/><text fill="#000000" font-family="sans-serif" font-size="4.2" lengthAdjust="spacing" textLength="142.2" x="409.5" y="157.3248">checkMatchesBetweenDates(List&lt;Date&gt;, List&lt;Date&gt;, List&lt;Date&gt;) : boolean</text></g><!--class PersonService--><g id="elem_PersonService"><rect codeLine="83" fill="#F1F1F1" height="46.1062" id="PersonService" rx="0.75" ry="0.75" style="stroke:#181818;stroke-width:0.15;" width="86.4" x="129.3" y="180.3"/><ellipse cx="154.125" cy="186.9873" fill="#ADD1B2" rx="3.3" ry="3.3" style="stroke:#181818;stroke-width:0.3;"/><path d="M154.9547,185.7498 Q155.0016,185.6842 155.0578,185.6514 Q155.1141,185.6186 155.1797,185.6186 Q155.2922,185.6186 155.3625,185.6982 Q155.4328,185.7732 155.4328,185.9561 L155.4328,186.392 Q155.4328,186.5748 155.3625,186.6545 Q155.2922,186.7342 155.1797,186.7342 Q155.0766,186.7342 155.0156,186.6732 Q154.9547,186.617 154.9219,186.4623 Q154.9078,186.3545 154.8516,186.2982 Q154.7531,186.1857 154.5703,186.1201 Q154.3875,186.0545 154.2,186.0545 Q153.9703,186.0545 153.7781,186.1529 Q153.5906,186.2514 153.4406,186.4764 Q153.2953,186.7014 153.2953,187.0107 L153.2953,187.3389 Q153.2953,187.7092 153.5625,187.9576 Q153.8297,188.2014 154.3078,188.2014 Q154.5891,188.2014 154.7859,188.1264 Q154.9031,188.0795 155.0297,187.9482 Q155.1094,187.8686 155.1516,187.8451 Q155.1984,187.8217 155.2594,187.8217 Q155.3578,187.8217 155.4328,187.9014 Q155.5125,187.9764 155.5125,188.0795 Q155.5125,188.1826 155.4094,188.3045 Q155.2594,188.4779 155.0203,188.5764 Q154.6969,188.7123 154.3078,188.7123 Q153.8531,188.7123 153.4922,188.5248 Q153.1969,188.3748 152.9906,188.0561 Q152.7844,187.7326 152.7844,187.3482 L152.7844,187.0014 Q152.7844,186.6029 152.9672,186.2607 Q153.1547,185.9139 153.4828,185.7311 Q153.8109,185.5436 154.1813,185.5436 Q154.4016,185.5436 154.5938,185.5951 Q154.7906,185.642 154.9547,185.7498 Z " fill="#000000"/><text fill="#000000" font-family="sans-serif" font-size="3.6" font-style="italic" lengthAdjust="spacing" textLength="22.2" x="166.275" y="185.6848">&#171;application&#187;</text><text fill="#000000" font-family="sans-serif" font-size="4.2" lengthAdjust="spacing" textLength="34.2" x="160.275" y="191.1205">ListPersonService</text><line style="stroke:#181818;stroke-width:0.15;" x1="129.6" x2="215.4" y1="193.6746" y2="193.6746"/><ellipse cx="132.6" cy="198.1178" fill="none" rx="0.9" ry="0.9" style="stroke:#038048;stroke-width:0.3;"/><text fill="#000000" font-family="sans-serif" font-size="4.2" lengthAdjust="spacing" textLength="63" x="135.3" y="199.4068">thePersonBuilder : PersonBuilder</text><ellipse cx="132.6" cy="203.7041" fill="none" rx="0.9" ry="0.9" style="stroke:#038048;stroke-width:0.3;"/><text fill="#000000" font-family="sans-serif" font-size="4.2" lengthAdjust="spacing" textLength="62.1" x="135.3" y="204.9932">persistence : PersistenceContext</text><ellipse cx="132.6" cy="209.2904" fill="none" rx="0.9" ry="0.9" style="stroke:#038048;stroke-width:0.3;"/><text fill="#000000" font-family="sans-serif" font-size="4.2" lengthAdjust="spacing" textLength="51.3" x="135.3" y="210.5795">factory : RepositoryFactory</text><ellipse cx="132.6" cy="214.8768" fill="none" rx="0.9" ry="0.9" style="stroke:#038048;stroke-width:0.3;"/><text fill="#000000" font-family="sans-serif" font-size="4.2" lengthAdjust="spacing" textLength="68.4" x="135.3" y="216.1658">usersRepository : PersonRepository</text><line style="stroke:#181818;stroke-width:0.15;" x1="129.6" x2="215.4" y1="218.4199" y2="218.4199"/><rect fill="#F24D5C" height="1.8" style="stroke:#C82930;stroke-width:0.3;" width="1.8" x="131.7" y="221.9631"/><text fill="#000000" font-family="sans-serif" font-size="4.2" lengthAdjust="spacing" textLength="78.6" x="135.3" y="224.1521">getPersonsByEmail(string) : List&lt;Person&gt;</text></g><!--class MeetingService--><g id="elem_MeetingService"><rect codeLine="90" fill="#F1F1F1" height="51.6926" id="MeetingService" rx="0.75" ry="0.75" style="stroke:#181818;stroke-width:0.15;" width="120.6" x="353.7" y="177.6"/><ellipse cx="385.125" cy="184.2873" fill="#ADD1B2" rx="3.3" ry="3.3" style="stroke:#181818;stroke-width:0.3;"/><path d="M385.9547,183.0498 Q386.0016,182.9842 386.0578,182.9514 Q386.1141,182.9186 386.1797,182.9186 Q386.2922,182.9186 386.3625,182.9982 Q386.4328,183.0732 386.4328,183.2561 L386.4328,183.692 Q386.4328,183.8748 386.3625,183.9545 Q386.2922,184.0342 386.1797,184.0342 Q386.0766,184.0342 386.0156,183.9732 Q385.9547,183.917 385.9219,183.7623 Q385.9078,183.6545 385.8516,183.5982 Q385.7531,183.4857 385.5703,183.4201 Q385.3875,183.3545 385.2,183.3545 Q384.9703,183.3545 384.7781,183.4529 Q384.5906,183.5514 384.4406,183.7764 Q384.2953,184.0014 384.2953,184.3107 L384.2953,184.6389 Q384.2953,185.0092 384.5625,185.2576 Q384.8297,185.5014 385.3078,185.5014 Q385.5891,185.5014 385.7859,185.4264 Q385.9031,185.3795 386.0297,185.2482 Q386.1094,185.1686 386.1516,185.1451 Q386.1984,185.1217 386.2594,185.1217 Q386.3578,185.1217 386.4328,185.2014 Q386.5125,185.2764 386.5125,185.3795 Q386.5125,185.4826 386.4094,185.6045 Q386.2594,185.7779 386.0203,185.8764 Q385.6969,186.0123 385.3078,186.0123 Q384.8531,186.0123 384.4922,185.8248 Q384.1969,185.6748 383.9906,185.3561 Q383.7844,185.0326 383.7844,184.6482 L383.7844,184.3014 Q383.7844,183.9029 383.9672,183.5607 Q384.1547,183.2139 384.4828,183.0311 Q384.8109,182.8436 385.1813,182.8436 Q385.4016,182.8436 385.5938,182.8951 Q385.7906,182.942 385.9547,183.0498 Z " fill="#000000"/><text fill="#000000" font-family="sans-serif" font-size="3.6" font-style="italic" lengthAdjust="spacing" textLength="22.2" x="407.775" y="182.9848">&#171;application&#187;</text><text fill="#000000" font-family="sans-serif" font-size="4.2" lengthAdjust="spacing" textLength="55.2" x="391.275" y="188.4205">AvailableMeetingDateService</text><line style="stroke:#181818;stroke-width:0.15;" x1="354" x2="474" y1="190.9746" y2="190.9746"/><ellipse cx="357" cy="195.4178" fill="none" rx="0.9" ry="0.9" style="stroke:#038048;stroke-width:0.3;"/><text fill="#000000" font-family="sans-serif" font-size="4.2" lengthAdjust="spacing" textLength="66" x="359.7" y="196.7068">theMeetingBuilder : MeetingBuilder</text><ellipse cx="357" cy="201.0041" fill="none" rx="0.9" ry="0.9" style="stroke:#038048;stroke-width:0.3;"/><text fill="#000000" font-family="sans-serif" font-size="4.2" lengthAdjust="spacing" textLength="62.1" x="359.7" y="202.2932">persistence : PersistenceContext</text><ellipse cx="357" cy="206.5904" fill="none" rx="0.9" ry="0.9" style="stroke:#038048;stroke-width:0.3;"/><text fill="#000000" font-family="sans-serif" font-size="4.2" lengthAdjust="spacing" textLength="51.3" x="359.7" y="207.8795">factory : RepositoryFactory</text><ellipse cx="357" cy="212.1768" fill="none" rx="0.9" ry="0.9" style="stroke:#038048;stroke-width:0.3;"/><text fill="#000000" font-family="sans-serif" font-size="4.2" lengthAdjust="spacing" textLength="76.5" x="359.7" y="213.4658">meetingsRepository : MeetingRepository</text><line style="stroke:#181818;stroke-width:0.15;" x1="354" x2="474" y1="215.7199" y2="215.7199"/><rect fill="#F24D5C" height="1.8" style="stroke:#C82930;stroke-width:0.3;" width="1.8" x="356.1" y="219.2631"/><text fill="#000000" font-family="sans-serif" font-size="4.2" lengthAdjust="spacing" textLength="112.8" x="359.7" y="221.4521">getMeetingDates(List&lt;Person&gt;) : Map&lt;Person, List&lt;Date&gt;&gt;</text><rect fill="#F24D5C" height="1.8" style="stroke:#C82930;stroke-width:0.3;" width="1.8" x="356.1" y="224.8494"/><text fill="#000000" font-family="sans-serif" font-size="4.2" lengthAdjust="spacing" textLength="57.3" x="359.7" y="227.0385">createMeeting(data) : boolean</text></g><!--class ClassService--><g id="elem_ClassService"><rect codeLine="98" fill="#F1F1F1" height="40.5199" id="ClassService" rx="0.75" ry="0.75" style="stroke:#181818;stroke-width:0.15;" width="116.1" x="491.85" y="183.15"/><ellipse cx="523.275" cy="189.8373" fill="#ADD1B2" rx="3.3" ry="3.3" style="stroke:#181818;stroke-width:0.3;"/><path d="M524.1047,188.5998 Q524.1516,188.5342 524.2078,188.5014 Q524.2641,188.4686 524.3297,188.4686 Q524.4422,188.4686 524.5125,188.5482 Q524.5828,188.6232 524.5828,188.8061 L524.5828,189.242 Q524.5828,189.4248 524.5125,189.5045 Q524.4422,189.5842 524.3297,189.5842 Q524.2266,189.5842 524.1656,189.5232 Q524.1047,189.467 524.0719,189.3123 Q524.0578,189.2045 524.0016,189.1482 Q523.9031,189.0357 523.7203,188.9701 Q523.5375,188.9045 523.35,188.9045 Q523.1203,188.9045 522.9281,189.0029 Q522.7406,189.1014 522.5906,189.3264 Q522.4453,189.5514 522.4453,189.8607 L522.4453,190.1889 Q522.4453,190.5592 522.7125,190.8076 Q522.9797,191.0514 523.4578,191.0514 Q523.7391,191.0514 523.9359,190.9764 Q524.0531,190.9295 524.1797,190.7982 Q524.2594,190.7186 524.3016,190.6951 Q524.3484,190.6717 524.4094,190.6717 Q524.5078,190.6717 524.5828,190.7514 Q524.6625,190.8264 524.6625,190.9295 Q524.6625,191.0326 524.5594,191.1545 Q524.4094,191.3279 524.1703,191.4264 Q523.8469,191.5623 523.4578,191.5623 Q523.0031,191.5623 522.6422,191.3748 Q522.3469,191.2248 522.1406,190.9061 Q521.9344,190.5826 521.9344,190.1982 L521.9344,189.8514 Q521.9344,189.4529 522.1172,189.1107 Q522.3047,188.7639 522.6328,188.5811 Q522.9609,188.3936 523.3313,188.3936 Q523.5516,188.3936 523.7438,188.4451 Q523.9406,188.492 524.1047,188.5998 Z " fill="#000000"/><text fill="#000000" font-family="sans-serif" font-size="3.6" font-style="italic" lengthAdjust="spacing" textLength="22.2" x="543.675" y="188.5348">&#171;application&#187;</text><text fill="#000000" font-family="sans-serif" font-size="4.2" lengthAdjust="spacing" textLength="50.7" x="529.425" y="193.9705">AvailableClassDateService</text><line style="stroke:#181818;stroke-width:0.15;" x1="492.15" x2="607.65" y1="196.5246" y2="196.5246"/><ellipse cx="495.15" cy="200.9678" fill="none" rx="0.9" ry="0.9" style="stroke:#038048;stroke-width:0.3;"/><text fill="#000000" font-family="sans-serif" font-size="4.2" lengthAdjust="spacing" textLength="62.1" x="497.85" y="202.2568">persistence : PersistenceContext</text><ellipse cx="495.15" cy="206.5541" fill="none" rx="0.9" ry="0.9" style="stroke:#038048;stroke-width:0.3;"/><text fill="#000000" font-family="sans-serif" font-size="4.2" lengthAdjust="spacing" textLength="51.3" x="497.85" y="207.8432">factory : RepositoryFactory</text><ellipse cx="495.15" cy="212.1404" fill="none" rx="0.9" ry="0.9" style="stroke:#038048;stroke-width:0.3;"/><text fill="#000000" font-family="sans-serif" font-size="4.2" lengthAdjust="spacing" textLength="69" x="497.85" y="213.4295">classesRepository : ClassRepository</text><line style="stroke:#181818;stroke-width:0.15;" x1="492.15" x2="607.65" y1="215.6836" y2="215.6836"/><rect fill="#F24D5C" height="1.8" style="stroke:#C82930;stroke-width:0.3;" width="1.8" x="494.25" y="219.2268"/><text fill="#000000" font-family="sans-serif" font-size="4.2" lengthAdjust="spacing" textLength="108.3" x="497.85" y="221.4158">getClassDates(List&lt;Person&gt;) : Map&lt;Person, List&lt;Date&gt;&gt;</text></g><!--class ExtraService--><g id="elem_ExtraService"><rect codeLine="104" fill="#F1F1F1" height="40.5199" id="ExtraService" rx="0.75" ry="0.75" style="stroke:#181818;stroke-width:0.15;" width="125.7" x="648.75" y="183.15"/><ellipse cx="680.175" cy="189.8373" fill="#ADD1B2" rx="3.3" ry="3.3" style="stroke:#181818;stroke-width:0.3;"/><path d="M681.0047,188.5998 Q681.0516,188.5342 681.1078,188.5014 Q681.1641,188.4686 681.2297,188.4686 Q681.3422,188.4686 681.4125,188.5482 Q681.4828,188.6232 681.4828,188.8061 L681.4828,189.242 Q681.4828,189.4248 681.4125,189.5045 Q681.3422,189.5842 681.2297,189.5842 Q681.1266,189.5842 681.0656,189.5232 Q681.0047,189.467 680.9719,189.3123 Q680.9578,189.2045 680.9016,189.1482 Q680.8031,189.0357 680.6203,188.9701 Q680.4375,188.9045 680.25,188.9045 Q680.0203,188.9045 679.8281,189.0029 Q679.6406,189.1014 679.4906,189.3264 Q679.3453,189.5514 679.3453,189.8607 L679.3453,190.1889 Q679.3453,190.5592 679.6125,190.8076 Q679.8797,191.0514 680.3578,191.0514 Q680.6391,191.0514 680.8359,190.9764 Q680.9531,190.9295 681.0797,190.7982 Q681.1594,190.7186 681.2016,190.6951 Q681.2484,190.6717 681.3094,190.6717 Q681.4078,190.6717 681.4828,190.7514 Q681.5625,190.8264 681.5625,190.9295 Q681.5625,191.0326 681.4594,191.1545 Q681.3094,191.3279 681.0703,191.4264 Q680.7469,191.5623 680.3578,191.5623 Q679.9031,191.5623 679.5422,191.3748 Q679.2469,191.2248 679.0406,190.9061 Q678.8344,190.5826 678.8344,190.1982 L678.8344,189.8514 Q678.8344,189.4529 679.0172,189.1107 Q679.2047,188.7639 679.5328,188.5811 Q679.8609,188.3936 680.2312,188.3936 Q680.4516,188.3936 680.6438,188.4451 Q680.8406,188.492 681.0047,188.5998 Z " fill="#000000"/><text fill="#000000" font-family="sans-serif" font-size="3.6" font-style="italic" lengthAdjust="spacing" textLength="22.2" x="705.375" y="188.5348">&#171;application&#187;</text><text fill="#000000" font-family="sans-serif" font-size="4.2" lengthAdjust="spacing" textLength="60.3" x="686.325" y="193.9705">AvailableExtraClassDateService</text><line style="stroke:#181818;stroke-width:0.15;" x1="649.05" x2="774.15" y1="196.5246" y2="196.5246"/><ellipse cx="652.05" cy="200.9678" fill="none" rx="0.9" ry="0.9" style="stroke:#038048;stroke-width:0.3;"/><text fill="#000000" font-family="sans-serif" font-size="4.2" lengthAdjust="spacing" textLength="62.1" x="654.75" y="202.2568">persistence : PersistenceContext</text><ellipse cx="652.05" cy="206.5541" fill="none" rx="0.9" ry="0.9" style="stroke:#038048;stroke-width:0.3;"/><text fill="#000000" font-family="sans-serif" font-size="4.2" lengthAdjust="spacing" textLength="51.3" x="654.75" y="207.8432">factory : RepositoryFactory</text><ellipse cx="652.05" cy="212.1404" fill="none" rx="0.9" ry="0.9" style="stroke:#038048;stroke-width:0.3;"/><text fill="#000000" font-family="sans-serif" font-size="4.2" lengthAdjust="spacing" textLength="88.8" x="654.75" y="213.4295">extraClassesRepository : ExtraClassRepository</text><line style="stroke:#181818;stroke-width:0.15;" x1="649.05" x2="774.15" y1="215.6836" y2="215.6836"/><rect fill="#F24D5C" height="1.8" style="stroke:#C82930;stroke-width:0.3;" width="1.8" x="651.15" y="219.2268"/><text fill="#000000" font-family="sans-serif" font-size="4.2" lengthAdjust="spacing" textLength="117.9" x="654.75" y="221.4158">getExtraClassDates(List&lt;Person&gt;) : Map&lt;Person, List&lt;Date&gt;&gt;</text></g><!--class PerBuilder--><g id="elem_PerBuilder"><rect codeLine="111" fill="#F1F1F1" height="29.3473" id="PerBuilder" rx="0.75" ry="0.75" style="stroke:#181818;stroke-width:0.15;" width="45.6" x="2.1" y="258.3"/><ellipse cx="10.785" cy="264.9873" fill="#ADD1B2" rx="3.3" ry="3.3" style="stroke:#181818;stroke-width:0.3;"/><path d="M11.6147,263.7498 Q11.6616,263.6842 11.7178,263.6514 Q11.7741,263.6186 11.8397,263.6186 Q11.9522,263.6186 12.0225,263.6982 Q12.0928,263.7732 12.0928,263.9561 L12.0928,264.392 Q12.0928,264.5748 12.0225,264.6545 Q11.9522,264.7342 11.8397,264.7342 Q11.7366,264.7342 11.6756,264.6732 Q11.6147,264.617 11.5819,264.4623 Q11.5678,264.3545 11.5116,264.2982 Q11.4131,264.1857 11.2303,264.1201 Q11.0475,264.0545 10.86,264.0545 Q10.6303,264.0545 10.4381,264.1529 Q10.2506,264.2514 10.1006,264.4764 Q9.9553,264.7014 9.9553,265.0107 L9.9553,265.3389 Q9.9553,265.7092 10.2225,265.9576 Q10.4897,266.2014 10.9678,266.2014 Q11.2491,266.2014 11.4459,266.1264 Q11.5631,266.0795 11.6897,265.9482 Q11.7694,265.8686 11.8116,265.8451 Q11.8584,265.8217 11.9194,265.8217 Q12.0178,265.8217 12.0928,265.9014 Q12.1725,265.9764 12.1725,266.0795 Q12.1725,266.1826 12.0694,266.3045 Q11.9194,266.4779 11.6803,266.5764 Q11.3569,266.7123 10.9678,266.7123 Q10.5131,266.7123 10.1522,266.5248 Q9.8569,266.3748 9.6506,266.0561 Q9.4444,265.7326 9.4444,265.3482 L9.4444,265.0014 Q9.4444,264.6029 9.6272,264.2607 Q9.8147,263.9139 10.1428,263.7311 Q10.4709,263.5436 10.8413,263.5436 Q11.0616,263.5436 11.2538,263.5951 Q11.4506,263.642 11.6147,263.7498 Z " fill="#000000"/><text fill="#000000" font-family="sans-serif" font-size="3.6" font-style="italic" lengthAdjust="spacing" textLength="15.9" x="21.315" y="263.6848">&#171;builder&#187;</text><text fill="#000000" font-family="sans-serif" font-size="4.2" lengthAdjust="spacing" textLength="26.7" x="15.915" y="269.1205">PersonBuilder</text><line style="stroke:#181818;stroke-width:0.15;" x1="2.4" x2="47.4" y1="271.6746" y2="271.6746"/><ellipse cx="5.4" cy="276.1178" fill="none" rx="0.9" ry="0.9" style="stroke:#038048;stroke-width:0.3;"/><text fill="#000000" font-family="sans-serif" font-size="4.2" lengthAdjust="spacing" textLength="10.2" x="8.1" y="277.4068">Email</text><line style="stroke:#181818;stroke-width:0.15;" x1="2.4" x2="47.4" y1="279.6609" y2="279.6609"/><rect fill="#F24D5C" height="1.8" style="stroke:#C82930;stroke-width:0.3;" width="1.8" x="4.5" y="283.2041"/><text fill="#000000" font-family="sans-serif" font-size="4.2" lengthAdjust="spacing" textLength="37.8" x="8.1" y="285.3932">build(emails) : Email</text></g><!--class MeetBuilder--><g id="elem_MeetBuilder"><rect codeLine="140" fill="#F1F1F1" height="51.6926" id="MeetBuilder" rx="0.75" ry="0.75" style="stroke:#181818;stroke-width:0.15;" width="90" x="369" y="247.2"/><ellipse cx="398.625" cy="253.8873" fill="#ADD1B2" rx="3.3" ry="3.3" style="stroke:#181818;stroke-width:0.3;"/><path d="M399.4547,252.6498 Q399.5016,252.5842 399.5578,252.5514 Q399.6141,252.5186 399.6797,252.5186 Q399.7922,252.5186 399.8625,252.5982 Q399.9328,252.6732 399.9328,252.8561 L399.9328,253.292 Q399.9328,253.4748 399.8625,253.5545 Q399.7922,253.6342 399.6797,253.6342 Q399.5766,253.6342 399.5156,253.5732 Q399.4547,253.517 399.4219,253.3623 Q399.4078,253.2545 399.3516,253.1982 Q399.2531,253.0857 399.0703,253.0201 Q398.8875,252.9545 398.7,252.9545 Q398.4703,252.9545 398.2781,253.0529 Q398.0906,253.1514 397.9406,253.3764 Q397.7953,253.6014 397.7953,253.9107 L397.7953,254.2389 Q397.7953,254.6092 398.0625,254.8576 Q398.3297,255.1014 398.8078,255.1014 Q399.0891,255.1014 399.2859,255.0264 Q399.4031,254.9795 399.5297,254.8482 Q399.6094,254.7686 399.6516,254.7451 Q399.6984,254.7217 399.7594,254.7217 Q399.8578,254.7217 399.9328,254.8014 Q400.0125,254.8764 400.0125,254.9795 Q400.0125,255.0826 399.9094,255.2045 Q399.7594,255.3779 399.5203,255.4764 Q399.1969,255.6123 398.8078,255.6123 Q398.3531,255.6123 397.9922,255.4248 Q397.6969,255.2748 397.4906,254.9561 Q397.2844,254.6326 397.2844,254.2482 L397.2844,253.9014 Q397.2844,253.5029 397.4672,253.1607 Q397.6547,252.8139 397.9828,252.6311 Q398.3109,252.4436 398.6813,252.4436 Q398.9016,252.4436 399.0938,252.4951 Q399.2906,252.542 399.4547,252.6498 Z " fill="#000000"/><text fill="#000000" font-family="sans-serif" font-size="3.6" font-style="italic" lengthAdjust="spacing" textLength="15.9" x="410.925" y="252.5848">&#171;builder&#187;</text><text fill="#000000" font-family="sans-serif" font-size="4.2" lengthAdjust="spacing" textLength="28.2" x="404.775" y="258.0205">MeetingBuilder</text><line style="stroke:#181818;stroke-width:0.15;" x1="369.3" x2="458.7" y1="260.5746" y2="260.5746"/><ellipse cx="372.3" cy="265.0178" fill="none" rx="0.9" ry="0.9" style="stroke:#038048;stroke-width:0.3;"/><text fill="#000000" font-family="sans-serif" font-size="4.2" lengthAdjust="spacing" textLength="33.6" x="375" y="266.3068">meeting : Meeting</text><ellipse cx="372.3" cy="270.6041" fill="none" rx="0.9" ry="0.9" style="stroke:#038048;stroke-width:0.3;"/><text fill="#000000" font-family="sans-serif" font-size="4.2" lengthAdjust="spacing" textLength="48.6" x="375" y="271.8932">invitation : List&lt;Invitation&gt;</text><ellipse cx="372.3" cy="276.1904" fill="none" rx="0.9" ry="0.9" style="stroke:#038048;stroke-width:0.3;"/><text fill="#000000" font-family="sans-serif" font-size="4.2" lengthAdjust="spacing" textLength="61.2" x="375" y="277.4795">scheduledDate : ScheduledDate</text><line style="stroke:#181818;stroke-width:0.15;" x1="369.3" x2="458.7" y1="279.7336" y2="279.7336"/><rect fill="#F24D5C" height="1.8" style="stroke:#C82930;stroke-width:0.3;" width="1.8" x="371.4" y="283.2768"/><text fill="#000000" font-family="sans-serif" font-size="4.2" lengthAdjust="spacing" textLength="39" x="375" y="285.4658">build(data) : Meeting</text><rect fill="#F24D5C" height="1.8" style="stroke:#C82930;stroke-width:0.3;" width="1.8" x="371.4" y="288.8631"/><text fill="#000000" font-family="sans-serif" font-size="4.2" lengthAdjust="spacing" textLength="69" x="375" y="291.0521">buildInvitation(data) : List&lt;Invitation&gt;</text><rect fill="#F24D5C" height="1.8" style="stroke:#C82930;stroke-width:0.3;" width="1.8" x="371.4" y="294.4494"/><text fill="#000000" font-family="sans-serif" font-size="4.2" lengthAdjust="spacing" textLength="82.2" x="375" y="296.6385">buildScheduledDate(data) : ScheduledDate</text></g><!--class Email--><g id="elem_Email"><rect codeLine="126" fill="#F1F1F1" height="23.7609" id="Email" rx="0.75" ry="0.75" style="stroke:#181818;stroke-width:0.15;" width="35.4" x="7.2" y="325.2"/><ellipse cx="11.7" cy="331.8873" fill="#ADD1B2" rx="3.3" ry="3.3" style="stroke:#181818;stroke-width:0.3;"/><path d="M12.5297,330.6498 Q12.5766,330.5842 12.6328,330.5514 Q12.6891,330.5186 12.7547,330.5186 Q12.8672,330.5186 12.9375,330.5982 Q13.0078,330.6732 13.0078,330.8561 L13.0078,331.292 Q13.0078,331.4748 12.9375,331.5545 Q12.8672,331.6342 12.7547,331.6342 Q12.6516,331.6342 12.5906,331.5732 Q12.5297,331.517 12.4969,331.3623 Q12.4828,331.2545 12.4266,331.1982 Q12.3281,331.0857 12.1453,331.0201 Q11.9625,330.9545 11.775,330.9545 Q11.5453,330.9545 11.3531,331.0529 Q11.1656,331.1514 11.0156,331.3764 Q10.8703,331.6014 10.8703,331.9107 L10.8703,332.2389 Q10.8703,332.6092 11.1375,332.8576 Q11.4047,333.1014 11.8828,333.1014 Q12.1641,333.1014 12.3609,333.0264 Q12.4781,332.9795 12.6047,332.8482 Q12.6844,332.7686 12.7266,332.7451 Q12.7734,332.7217 12.8344,332.7217 Q12.9328,332.7217 13.0078,332.8014 Q13.0875,332.8764 13.0875,332.9795 Q13.0875,333.0826 12.9844,333.2045 Q12.8344,333.3779 12.5953,333.4764 Q12.2719,333.6123 11.8828,333.6123 Q11.4281,333.6123 11.0672,333.4248 Q10.7719,333.2748 10.5656,332.9561 Q10.3594,332.6326 10.3594,332.2482 L10.3594,331.9014 Q10.3594,331.5029 10.5422,331.1607 Q10.7297,330.8139 11.0578,330.6311 Q11.3859,330.4436 11.7563,330.4436 Q11.9766,330.4436 12.1688,330.4951 Q12.3656,330.542 12.5297,330.6498 Z " fill="#000000"/><text fill="#000000" font-family="sans-serif" font-size="3.6" font-style="italic" lengthAdjust="spacing" textLength="16.8" x="20.4" y="330.5848">&#171;domain&#187;</text><text fill="#000000" font-family="sans-serif" font-size="4.2" lengthAdjust="spacing" textLength="25.8" x="15.9" y="336.0205">EmailAddress</text><line style="stroke:#181818;stroke-width:0.15;" x1="7.5" x2="42.3" y1="338.5746" y2="338.5746"/><ellipse cx="10.5" cy="343.0178" fill="none" rx="0.9" ry="0.9" style="stroke:#038048;stroke-width:0.3;"/><text fill="#000000" font-family="sans-serif" font-size="4.2" lengthAdjust="spacing" textLength="21.6" x="13.2" y="344.3068">string email</text><line style="stroke:#181818;stroke-width:0.15;" x1="7.5" x2="42.3" y1="346.5609" y2="346.5609"/></g><!--class Person--><g id="elem_Person"><rect codeLine="120" fill="#F1F1F1" height="34.9336" id="Person" rx="0.75" ry="0.75" style="stroke:#181818;stroke-width:0.15;" width="54.6" x="66.6" y="319.65"/><ellipse cx="84.825" cy="326.3373" fill="#ADD1B2" rx="3.3" ry="3.3" style="stroke:#181818;stroke-width:0.3;"/><path d="M85.6547,325.0998 Q85.7016,325.0342 85.7578,325.0014 Q85.8141,324.9686 85.8797,324.9686 Q85.9922,324.9686 86.0625,325.0482 Q86.1328,325.1232 86.1328,325.3061 L86.1328,325.742 Q86.1328,325.9248 86.0625,326.0045 Q85.9922,326.0842 85.8797,326.0842 Q85.7766,326.0842 85.7156,326.0232 Q85.6547,325.967 85.6219,325.8123 Q85.6078,325.7045 85.5516,325.6482 Q85.4531,325.5357 85.2703,325.4701 Q85.0875,325.4045 84.9,325.4045 Q84.6703,325.4045 84.4781,325.5029 Q84.2906,325.6014 84.1406,325.8264 Q83.9953,326.0514 83.9953,326.3607 L83.9953,326.6889 Q83.9953,327.0592 84.2625,327.3076 Q84.5297,327.5514 85.0078,327.5514 Q85.2891,327.5514 85.4859,327.4764 Q85.6031,327.4295 85.7297,327.2982 Q85.8094,327.2186 85.8516,327.1951 Q85.8984,327.1717 85.9594,327.1717 Q86.0578,327.1717 86.1328,327.2514 Q86.2125,327.3264 86.2125,327.4295 Q86.2125,327.5326 86.1094,327.6545 Q85.9594,327.8279 85.7203,327.9264 Q85.3969,328.0623 85.0078,328.0623 Q84.5531,328.0623 84.1922,327.8748 Q83.8969,327.7248 83.6906,327.4061 Q83.4844,327.0826 83.4844,326.6982 L83.4844,326.3514 Q83.4844,325.9529 83.6672,325.6107 Q83.8547,325.2639 84.1828,325.0811 Q84.5109,324.8936 84.8813,324.8936 Q85.1016,324.8936 85.2938,324.9451 Q85.4906,324.992 85.6547,325.0998 Z " fill="#000000"/><text fill="#000000" font-family="sans-serif" font-size="3.6" font-style="italic" lengthAdjust="spacing" textLength="16.8" x="90.375" y="325.0348">&#171;domain&#187;</text><text fill="#000000" font-family="sans-serif" font-size="4.2" lengthAdjust="spacing" textLength="13.5" x="92.025" y="330.4705">Person</text><line style="stroke:#181818;stroke-width:0.15;" x1="66.9" x2="120.9" y1="333.0246" y2="333.0246"/><ellipse cx="69.9" cy="337.4678" fill="none" rx="0.9" ry="0.9" style="stroke:#038048;stroke-width:0.3;"/><text fill="#000000" font-family="sans-serif" font-size="4.2" lengthAdjust="spacing" textLength="37.5" x="72.6" y="338.7568">fullName : FullName</text><ellipse cx="69.9" cy="343.0541" fill="none" rx="0.9" ry="0.9" style="stroke:#038048;stroke-width:0.3;"/><text fill="#000000" font-family="sans-serif" font-size="4.2" lengthAdjust="spacing" textLength="46.8" x="72.6" y="344.3432">systemUser: SystemUser</text><ellipse cx="69.9" cy="348.6404" fill="none" rx="0.9" ry="0.9" style="stroke:#038048;stroke-width:0.3;"/><text fill="#000000" font-family="sans-serif" font-size="4.2" lengthAdjust="spacing" textLength="26.7" x="72.6" y="349.9295">id : ID_Person</text><line style="stroke:#181818;stroke-width:0.15;" x1="66.9" x2="120.9" y1="352.1836" y2="352.1836"/></g><!--class Meet--><g id="elem_Meet"><rect codeLine="134" fill="#F1F1F1" height="34.9336" id="Meet" rx="0.75" ry="0.75" style="stroke:#181818;stroke-width:0.15;" width="58.5" x="233.55" y="319.65"/><ellipse cx="253.725" cy="326.3373" fill="#ADD1B2" rx="3.3" ry="3.3" style="stroke:#181818;stroke-width:0.3;"/><path d="M254.5547,325.0998 Q254.6016,325.0342 254.6578,325.0014 Q254.7141,324.9686 254.7797,324.9686 Q254.8922,324.9686 254.9625,325.0482 Q255.0328,325.1232 255.0328,325.3061 L255.0328,325.742 Q255.0328,325.9248 254.9625,326.0045 Q254.8922,326.0842 254.7797,326.0842 Q254.6766,326.0842 254.6156,326.0232 Q254.5547,325.967 254.5219,325.8123 Q254.5078,325.7045 254.4516,325.6482 Q254.3531,325.5357 254.1703,325.4701 Q253.9875,325.4045 253.8,325.4045 Q253.5703,325.4045 253.3781,325.5029 Q253.1906,325.6014 253.0406,325.8264 Q252.8953,326.0514 252.8953,326.3607 L252.8953,326.6889 Q252.8953,327.0592 253.1625,327.3076 Q253.4297,327.5514 253.9078,327.5514 Q254.1891,327.5514 254.3859,327.4764 Q254.5031,327.4295 254.6297,327.2982 Q254.7094,327.2186 254.7516,327.1951 Q254.7984,327.1717 254.8594,327.1717 Q254.9578,327.1717 255.0328,327.2514 Q255.1125,327.3264 255.1125,327.4295 Q255.1125,327.5326 255.0094,327.6545 Q254.8594,327.8279 254.6203,327.9264 Q254.2969,328.0623 253.9078,328.0623 Q253.4531,328.0623 253.0922,327.8748 Q252.7969,327.7248 252.5906,327.4061 Q252.3844,327.0826 252.3844,326.6982 L252.3844,326.3514 Q252.3844,325.9529 252.5672,325.6107 Q252.7547,325.2639 253.0828,325.0811 Q253.4109,324.8936 253.7813,324.8936 Q254.0016,324.8936 254.1938,324.9451 Q254.3906,324.992 254.5547,325.0998 Z " fill="#000000"/><text fill="#000000" font-family="sans-serif" font-size="3.6" font-style="italic" lengthAdjust="spacing" textLength="16.8" x="259.275" y="325.0348">&#171;domain&#187;</text><text fill="#000000" font-family="sans-serif" font-size="4.2" lengthAdjust="spacing" textLength="15" x="260.175" y="330.4705">Meeting</text><line style="stroke:#181818;stroke-width:0.15;" x1="233.85" x2="291.75" y1="333.0246" y2="333.0246"/><ellipse cx="236.85" cy="337.4678" fill="none" rx="0.9" ry="0.9" style="stroke:#038048;stroke-width:0.3;"/><text fill="#000000" font-family="sans-serif" font-size="4.2" lengthAdjust="spacing" textLength="28.2" x="239.55" y="338.7568">id : ID_Meeting</text><ellipse cx="236.85" cy="343.0541" fill="none" rx="0.9" ry="0.9" style="stroke:#038048;stroke-width:0.3;"/><text fill="#000000" font-family="sans-serif" font-size="4.2" lengthAdjust="spacing" textLength="21" x="239.55" y="344.3432">date : Date</text><ellipse cx="236.85" cy="348.6404" fill="none" rx="0.9" ry="0.9" style="stroke:#038048;stroke-width:0.3;"/><text fill="#000000" font-family="sans-serif" font-size="4.2" lengthAdjust="spacing" textLength="50.7" x="239.55" y="349.9295">invitations : List&lt;Invitation&gt;</text><line style="stroke:#181818;stroke-width:0.15;" x1="233.85" x2="291.75" y1="352.1836" y2="352.1836"/></g><!--class Persistence--><g id="elem_Persistence"><rect codeLine="169" fill="#F1F1F1" height="23.7609" id="Persistence" rx="0.75" ry="0.75" style="stroke:#181818;stroke-width:0.15;" width="71.4" x="469.5" y="261.15"/><ellipse cx="485.625" cy="267.8373" fill="#ADD1B2" rx="3.3" ry="3.3" style="stroke:#181818;stroke-width:0.3;"/><path d="M486.4547,266.5998 Q486.5016,266.5342 486.5578,266.5014 Q486.6141,266.4686 486.6797,266.4686 Q486.7922,266.4686 486.8625,266.5482 Q486.9328,266.6232 486.9328,266.8061 L486.9328,267.242 Q486.9328,267.4248 486.8625,267.5045 Q486.7922,267.5842 486.6797,267.5842 Q486.5766,267.5842 486.5156,267.5232 Q486.4547,267.467 486.4219,267.3123 Q486.4078,267.2045 486.3516,267.1482 Q486.2531,267.0357 486.0703,266.9701 Q485.8875,266.9045 485.7,266.9045 Q485.4703,266.9045 485.2781,267.0029 Q485.0906,267.1014 484.9406,267.3264 Q484.7953,267.5514 484.7953,267.8607 L484.7953,268.1889 Q484.7953,268.5592 485.0625,268.8076 Q485.3297,269.0514 485.8078,269.0514 Q486.0891,269.0514 486.2859,268.9764 Q486.4031,268.9295 486.5297,268.7982 Q486.6094,268.7186 486.6516,268.6951 Q486.6984,268.6717 486.7594,268.6717 Q486.8578,268.6717 486.9328,268.7514 Q487.0125,268.8264 487.0125,268.9295 Q487.0125,269.0326 486.9094,269.1545 Q486.7594,269.3279 486.5203,269.4264 Q486.1969,269.5623 485.8078,269.5623 Q485.3531,269.5623 484.9922,269.3748 Q484.6969,269.2248 484.4906,268.9061 Q484.2844,268.5826 484.2844,268.1982 L484.2844,267.8514 Q484.2844,267.4529 484.4672,267.1107 Q484.6547,266.7639 484.9828,266.5811 Q485.3109,266.3936 485.6813,266.3936 Q485.9016,266.3936 486.0938,266.4451 Q486.2906,266.492 486.4547,266.5998 Z " fill="#000000"/><text fill="#000000" font-family="sans-serif" font-size="3.6" font-style="italic" lengthAdjust="spacing" textLength="23.1" x="498.525" y="266.5348">&#171;persistence&#187;</text><text fill="#000000" font-family="sans-serif" font-size="4.2" lengthAdjust="spacing" textLength="36.6" x="491.775" y="271.9705">PersistenceContext</text><line style="stroke:#181818;stroke-width:0.15;" x1="469.8" x2="540.6" y1="274.5246" y2="274.5246"/><line style="stroke:#181818;stroke-width:0.15;" x1="469.8" x2="540.6" y1="276.9246" y2="276.9246"/><rect fill="#F24D5C" height="1.8" style="stroke:#C82930;stroke-width:0.3;" width="1.8" x="471.9" y="280.4678"/><text fill="#000000" font-family="sans-serif" font-size="4.2" lengthAdjust="spacing" textLength="63.6" x="475.5" y="282.6568">repositories() : RepositoryFactory</text></g><!--class RepositoryFactory--><g id="elem_RepositoryFactory"><rect codeLine="173" fill="#F1F1F1" height="40.5199" id="RepositoryFactory" rx="0.75" ry="0.75" style="stroke:#181818;stroke-width:0.15;" width="79.2" x="465.6" y="316.8"/><ellipse cx="486.525" cy="323.4873" fill="#ADD1B2" rx="3.3" ry="3.3" style="stroke:#181818;stroke-width:0.3;"/><path d="M487.3547,322.2498 Q487.4016,322.1842 487.4578,322.1514 Q487.5141,322.1186 487.5797,322.1186 Q487.6922,322.1186 487.7625,322.1982 Q487.8328,322.2732 487.8328,322.4561 L487.8328,322.892 Q487.8328,323.0748 487.7625,323.1545 Q487.6922,323.2342 487.5797,323.2342 Q487.4766,323.2342 487.4156,323.1732 Q487.3547,323.117 487.3219,322.9623 Q487.3078,322.8545 487.2516,322.7982 Q487.1531,322.6857 486.9703,322.6201 Q486.7875,322.5545 486.6,322.5545 Q486.3703,322.5545 486.1781,322.6529 Q485.9906,322.7514 485.8406,322.9764 Q485.6953,323.2014 485.6953,323.5107 L485.6953,323.8389 Q485.6953,324.2092 485.9625,324.4576 Q486.2297,324.7014 486.7078,324.7014 Q486.9891,324.7014 487.1859,324.6264 Q487.3031,324.5795 487.4297,324.4482 Q487.5094,324.3686 487.5516,324.3451 Q487.5984,324.3217 487.6594,324.3217 Q487.7578,324.3217 487.8328,324.4014 Q487.9125,324.4764 487.9125,324.5795 Q487.9125,324.6826 487.8094,324.8045 Q487.6594,324.9779 487.4203,325.0764 Q487.0969,325.2123 486.7078,325.2123 Q486.2531,325.2123 485.8922,325.0248 Q485.5969,324.8748 485.3906,324.5561 Q485.1844,324.2326 485.1844,323.8482 L485.1844,323.5014 Q485.1844,323.1029 485.3672,322.7607 Q485.5547,322.4139 485.8828,322.2311 Q486.2109,322.0436 486.5812,322.0436 Q486.8016,322.0436 486.9938,322.0951 Q487.1906,322.142 487.3547,322.2498 Z " fill="#000000"/><text fill="#000000" font-family="sans-serif" font-size="3.6" font-style="italic" lengthAdjust="spacing" textLength="15" x="502.575" y="322.1848">&#171;factory&#187;</text><text fill="#000000" font-family="sans-serif" font-size="4.2" lengthAdjust="spacing" textLength="34.8" x="492.675" y="327.6205">RepositoryFactory</text><line style="stroke:#181818;stroke-width:0.15;" x1="465.9" x2="544.5" y1="330.1746" y2="330.1746"/><line style="stroke:#181818;stroke-width:0.15;" x1="465.9" x2="544.5" y1="332.5746" y2="332.5746"/><rect fill="#F24D5C" height="1.8" style="stroke:#C82930;stroke-width:0.3;" width="1.8" x="468" y="336.1178"/><text fill="#000000" font-family="sans-serif" font-size="4.2" lengthAdjust="spacing" textLength="51" x="471.6" y="338.3068">users() : PersonRepository</text><rect fill="#F24D5C" height="1.8" style="stroke:#C82930;stroke-width:0.3;" width="1.8" x="468" y="341.7041"/><text fill="#000000" font-family="sans-serif" font-size="4.2" lengthAdjust="spacing" textLength="59.1" x="471.6" y="343.8932">meetings() : MeetingRepository</text><rect fill="#F24D5C" height="1.8" style="stroke:#C82930;stroke-width:0.3;" width="1.8" x="468" y="347.2904"/><text fill="#000000" font-family="sans-serif" font-size="4.2" lengthAdjust="spacing" textLength="51.6" x="471.6" y="349.4795">classes() : ClassRepository</text><rect fill="#F24D5C" height="1.8" style="stroke:#C82930;stroke-width:0.3;" width="1.8" x="468" y="352.8768"/><text fill="#000000" font-family="sans-serif" font-size="4.2" lengthAdjust="spacing" textLength="71.4" x="471.6" y="355.0658">extraClasses() : ExtraClassRepository</text></g><!--class PersonRepository--><g id="elem_PersonRepository"><rect codeLine="116" fill="#F1F1F1" height="23.7609" id="PersonRepository" rx="0.75" ry="0.75" style="stroke:#181818;stroke-width:0.15;" width="98.4" x="58.2" y="261.15"/><ellipse cx="89.175" cy="267.8373" fill="#ADD1B2" rx="3.3" ry="3.3" style="stroke:#181818;stroke-width:0.3;"/><path d="M90.0047,266.5998 Q90.0516,266.5342 90.1078,266.5014 Q90.1641,266.4686 90.2297,266.4686 Q90.3422,266.4686 90.4125,266.5482 Q90.4828,266.6232 90.4828,266.8061 L90.4828,267.242 Q90.4828,267.4248 90.4125,267.5045 Q90.3422,267.5842 90.2297,267.5842 Q90.1266,267.5842 90.0656,267.5232 Q90.0047,267.467 89.9719,267.3123 Q89.9578,267.2045 89.9016,267.1482 Q89.8031,267.0357 89.6203,266.9701 Q89.4375,266.9045 89.25,266.9045 Q89.0203,266.9045 88.8281,267.0029 Q88.6406,267.1014 88.4906,267.3264 Q88.3453,267.5514 88.3453,267.8607 L88.3453,268.1889 Q88.3453,268.5592 88.6125,268.8076 Q88.8797,269.0514 89.3578,269.0514 Q89.6391,269.0514 89.8359,268.9764 Q89.9531,268.9295 90.0797,268.7982 Q90.1594,268.7186 90.2016,268.6951 Q90.2484,268.6717 90.3094,268.6717 Q90.4078,268.6717 90.4828,268.7514 Q90.5625,268.8264 90.5625,268.9295 Q90.5625,269.0326 90.4594,269.1545 Q90.3094,269.3279 90.0703,269.4264 Q89.7469,269.5623 89.3578,269.5623 Q88.9031,269.5623 88.5422,269.3748 Q88.2469,269.2248 88.0406,268.9061 Q87.8344,268.5826 87.8344,268.1982 L87.8344,267.8514 Q87.8344,267.4529 88.0172,267.1107 Q88.2047,266.7639 88.5328,266.5811 Q88.8609,266.3936 89.2313,266.3936 Q89.4516,266.3936 89.6438,266.4451 Q89.8406,266.492 90.0047,266.5998 Z " fill="#000000"/><text fill="#000000" font-family="sans-serif" font-size="3.6" font-style="italic" lengthAdjust="spacing" textLength="20.4" x="102.075" y="266.5348">&#171;repository&#187;</text><text fill="#000000" font-family="sans-serif" font-size="4.2" lengthAdjust="spacing" textLength="33.9" x="95.325" y="271.9705">PersonRepository</text><line style="stroke:#181818;stroke-width:0.15;" x1="58.5" x2="156.3" y1="274.5246" y2="274.5246"/><line style="stroke:#181818;stroke-width:0.15;" x1="58.5" x2="156.3" y1="276.9246" y2="276.9246"/><rect fill="#F24D5C" height="1.8" style="stroke:#C82930;stroke-width:0.3;" width="1.8" x="60.6" y="280.4678"/><text fill="#000000" font-family="sans-serif" font-size="4.2" lengthAdjust="spacing" textLength="90.6" x="64.2" y="282.6568">findAllPersonsWhoMatch(emails) : List&lt;Person&gt;</text></g><!--class MeetRepository--><g id="elem_MeetRepository"><rect codeLine="130" fill="#F1F1F1" height="23.7609" id="MeetRepository" rx="0.75" ry="0.75" style="stroke:#181818;stroke-width:0.15;" width="148.5" x="188.55" y="261.15"/><ellipse cx="243.825" cy="267.8373" fill="#ADD1B2" rx="3.3" ry="3.3" style="stroke:#181818;stroke-width:0.3;"/><path d="M244.6547,266.5998 Q244.7016,266.5342 244.7578,266.5014 Q244.8141,266.4686 244.8797,266.4686 Q244.9922,266.4686 245.0625,266.5482 Q245.1328,266.6232 245.1328,266.8061 L245.1328,267.242 Q245.1328,267.4248 245.0625,267.5045 Q244.9922,267.5842 244.8797,267.5842 Q244.7766,267.5842 244.7156,267.5232 Q244.6547,267.467 244.6219,267.3123 Q244.6078,267.2045 244.5516,267.1482 Q244.4531,267.0357 244.2703,266.9701 Q244.0875,266.9045 243.9,266.9045 Q243.6703,266.9045 243.4781,267.0029 Q243.2906,267.1014 243.1406,267.3264 Q242.9953,267.5514 242.9953,267.8607 L242.9953,268.1889 Q242.9953,268.5592 243.2625,268.8076 Q243.5297,269.0514 244.0078,269.0514 Q244.2891,269.0514 244.4859,268.9764 Q244.6031,268.9295 244.7297,268.7982 Q244.8094,268.7186 244.8516,268.6951 Q244.8984,268.6717 244.9594,268.6717 Q245.0578,268.6717 245.1328,268.7514 Q245.2125,268.8264 245.2125,268.9295 Q245.2125,269.0326 245.1094,269.1545 Q244.9594,269.3279 244.7203,269.4264 Q244.3969,269.5623 244.0078,269.5623 Q243.5531,269.5623 243.1922,269.3748 Q242.8969,269.2248 242.6906,268.9061 Q242.4844,268.5826 242.4844,268.1982 L242.4844,267.8514 Q242.4844,267.4529 242.6672,267.1107 Q242.8547,266.7639 243.1828,266.5811 Q243.5109,266.3936 243.8813,266.3936 Q244.1016,266.3936 244.2938,266.4451 Q244.4906,266.492 244.6547,266.5998 Z " fill="#000000"/><text fill="#000000" font-family="sans-serif" font-size="3.6" font-style="italic" lengthAdjust="spacing" textLength="20.4" x="257.475" y="266.5348">&#171;repository&#187;</text><text fill="#000000" font-family="sans-serif" font-size="4.2" lengthAdjust="spacing" textLength="35.4" x="249.975" y="271.9705">MeetingRepository</text><line style="stroke:#181818;stroke-width:0.15;" x1="188.85" x2="336.75" y1="274.5246" y2="274.5246"/><line style="stroke:#181818;stroke-width:0.15;" x1="188.85" x2="336.75" y1="276.9246" y2="276.9246"/><rect fill="#F24D5C" height="1.8" style="stroke:#C82930;stroke-width:0.3;" width="1.8" x="190.95" y="280.4678"/><text fill="#000000" font-family="sans-serif" font-size="4.2" lengthAdjust="spacing" textLength="140.7" x="194.55" y="282.6568">findAllMeetingsWhoMatch(List&lt;Person&gt;, Date) : Map&lt;Person, List&lt;Date&gt;&gt;</text></g><!--class ClassRepository--><g id="elem_ClassRepository"><rect codeLine="149" fill="#F1F1F1" height="23.7609" id="ClassRepository" rx="0.75" ry="0.75" style="stroke:#181818;stroke-width:0.15;" width="146.4" x="572.7" y="261.15"/><ellipse cx="629.175" cy="267.8373" fill="#ADD1B2" rx="3.3" ry="3.3" style="stroke:#181818;stroke-width:0.3;"/><path d="M630.0047,266.5998 Q630.0516,266.5342 630.1078,266.5014 Q630.1641,266.4686 630.2297,266.4686 Q630.3422,266.4686 630.4125,266.5482 Q630.4828,266.6232 630.4828,266.8061 L630.4828,267.242 Q630.4828,267.4248 630.4125,267.5045 Q630.3422,267.5842 630.2297,267.5842 Q630.1266,267.5842 630.0656,267.5232 Q630.0047,267.467 629.9719,267.3123 Q629.9578,267.2045 629.9016,267.1482 Q629.8031,267.0357 629.6203,266.9701 Q629.4375,266.9045 629.25,266.9045 Q629.0203,266.9045 628.8281,267.0029 Q628.6406,267.1014 628.4906,267.3264 Q628.3453,267.5514 628.3453,267.8607 L628.3453,268.1889 Q628.3453,268.5592 628.6125,268.8076 Q628.8797,269.0514 629.3578,269.0514 Q629.6391,269.0514 629.8359,268.9764 Q629.9531,268.9295 630.0797,268.7982 Q630.1594,268.7186 630.2016,268.6951 Q630.2484,268.6717 630.3094,268.6717 Q630.4078,268.6717 630.4828,268.7514 Q630.5625,268.8264 630.5625,268.9295 Q630.5625,269.0326 630.4594,269.1545 Q630.3094,269.3279 630.0703,269.4264 Q629.7469,269.5623 629.3578,269.5623 Q628.9031,269.5623 628.5422,269.3748 Q628.2469,269.2248 628.0406,268.9061 Q627.8344,268.5826 627.8344,268.1982 L627.8344,267.8514 Q627.8344,267.4529 628.0172,267.1107 Q628.2047,266.7639 628.5328,266.5811 Q628.8609,266.3936 629.2312,266.3936 Q629.4516,266.3936 629.6438,266.4451 Q629.8406,266.492 630.0047,266.5998 Z " fill="#000000"/><text fill="#000000" font-family="sans-serif" font-size="3.6" font-style="italic" lengthAdjust="spacing" textLength="20.4" x="640.575" y="266.5348">&#171;repository&#187;</text><text fill="#000000" font-family="sans-serif" font-size="4.2" lengthAdjust="spacing" textLength="30.9" x="635.325" y="271.9705">ClassRepository</text><line style="stroke:#181818;stroke-width:0.15;" x1="573" x2="718.8" y1="274.5246" y2="274.5246"/><line style="stroke:#181818;stroke-width:0.15;" x1="573" x2="718.8" y1="276.9246" y2="276.9246"/><rect fill="#F24D5C" height="1.8" style="stroke:#C82930;stroke-width:0.3;" width="1.8" x="575.1" y="280.4678"/><text fill="#000000" font-family="sans-serif" font-size="4.2" lengthAdjust="spacing" textLength="138.6" x="578.7" y="282.6568">findAllClassesWhoMatch(List&lt;Person&gt;, Date) : Map&lt;Person, List&lt;Date&gt;&gt;</text></g><!--class ExtraRepository--><g id="elem_ExtraRepository"><rect codeLine="160" fill="#F1F1F1" height="23.7609" id="ExtraRepository" rx="0.75" ry="0.75" style="stroke:#181818;stroke-width:0.15;" width="156" x="750.9" y="261.15"/><ellipse cx="807.375" cy="267.8373" fill="#ADD1B2" rx="3.3" ry="3.3" style="stroke:#181818;stroke-width:0.3;"/><path d="M808.2047,266.5998 Q808.2516,266.5342 808.3078,266.5014 Q808.3641,266.4686 808.4297,266.4686 Q808.5422,266.4686 808.6125,266.5482 Q808.6828,266.6232 808.6828,266.8061 L808.6828,267.242 Q808.6828,267.4248 808.6125,267.5045 Q808.5422,267.5842 808.4297,267.5842 Q808.3266,267.5842 808.2656,267.5232 Q808.2047,267.467 808.1719,267.3123 Q808.1578,267.2045 808.1016,267.1482 Q808.0031,267.0357 807.8203,266.9701 Q807.6375,266.9045 807.45,266.9045 Q807.2203,266.9045 807.0281,267.0029 Q806.8406,267.1014 806.6906,267.3264 Q806.5453,267.5514 806.5453,267.8607 L806.5453,268.1889 Q806.5453,268.5592 806.8125,268.8076 Q807.0797,269.0514 807.5578,269.0514 Q807.8391,269.0514 808.0359,268.9764 Q808.1531,268.9295 808.2797,268.7982 Q808.3594,268.7186 808.4016,268.6951 Q808.4484,268.6717 808.5094,268.6717 Q808.6078,268.6717 808.6828,268.7514 Q808.7625,268.8264 808.7625,268.9295 Q808.7625,269.0326 808.6594,269.1545 Q808.5094,269.3279 808.2703,269.4264 Q807.9469,269.5623 807.5578,269.5623 Q807.1031,269.5623 806.7422,269.3748 Q806.4469,269.2248 806.2406,268.9061 Q806.0344,268.5826 806.0344,268.1982 L806.0344,267.8514 Q806.0344,267.4529 806.2172,267.1107 Q806.4047,266.7639 806.7328,266.5811 Q807.0609,266.3936 807.4313,266.3936 Q807.6516,266.3936 807.8438,266.4451 Q808.0406,266.492 808.2047,266.5998 Z " fill="#000000"/><text fill="#000000" font-family="sans-serif" font-size="3.6" font-style="italic" lengthAdjust="spacing" textLength="20.4" x="823.575" y="266.5348">&#171;repository&#187;</text><text fill="#000000" font-family="sans-serif" font-size="4.2" lengthAdjust="spacing" textLength="40.5" x="813.525" y="271.9705">ExtraClassRepository</text><line style="stroke:#181818;stroke-width:0.15;" x1="751.2" x2="906.6" y1="274.5246" y2="274.5246"/><line style="stroke:#181818;stroke-width:0.15;" x1="751.2" x2="906.6" y1="276.9246" y2="276.9246"/><rect fill="#F24D5C" height="1.8" style="stroke:#C82930;stroke-width:0.3;" width="1.8" x="753.3" y="280.4678"/><text fill="#000000" font-family="sans-serif" font-size="4.2" lengthAdjust="spacing" textLength="148.2" x="756.9" y="282.6568">findAllExtraClassesWhoMatch(List&lt;Person&gt;, Date) : Map&lt;Person, List&lt;Date&gt;&gt;</text></g><!--class Class--><g id="elem_Class"><rect codeLine="153" fill="#F1F1F1" height="36.7453" id="Class" rx="0.75" ry="0.75" style="stroke:#181818;stroke-width:0.15;" width="47.7" x="622.05" y="318.75"/><ellipse cx="639.375" cy="323.55" fill="#ADD1B2" rx="3.3" ry="3.3" style="stroke:#181818;stroke-width:0.3;"/><path d="M640.2047,322.3125 Q640.2516,322.2469 640.3078,322.2141 Q640.3641,322.1813 640.4297,322.1813 Q640.5422,322.1813 640.6125,322.2609 Q640.6828,322.3359 640.6828,322.5188 L640.6828,322.9547 Q640.6828,323.1375 640.6125,323.2172 Q640.5422,323.2969 640.4297,323.2969 Q640.3266,323.2969 640.2656,323.2359 Q640.2047,323.1797 640.1719,323.025 Q640.1578,322.9172 640.1016,322.8609 Q640.0031,322.7484 639.8203,322.6828 Q639.6375,322.6172 639.45,322.6172 Q639.2203,322.6172 639.0281,322.7156 Q638.8406,322.8141 638.6906,323.0391 Q638.5453,323.2641 638.5453,323.5734 L638.5453,323.9016 Q638.5453,324.2719 638.8125,324.5203 Q639.0797,324.7641 639.5578,324.7641 Q639.8391,324.7641 640.0359,324.6891 Q640.1531,324.6422 640.2797,324.5109 Q640.3594,324.4313 640.4016,324.4078 Q640.4484,324.3844 640.5094,324.3844 Q640.6078,324.3844 640.6828,324.4641 Q640.7625,324.5391 640.7625,324.6422 Q640.7625,324.7453 640.6594,324.8672 Q640.5094,325.0406 640.2703,325.1391 Q639.9469,325.275 639.5578,325.275 Q639.1031,325.275 638.7422,325.0875 Q638.4469,324.9375 638.2406,324.6188 Q638.0344,324.2953 638.0344,323.9109 L638.0344,323.5641 Q638.0344,323.1656 638.2172,322.8234 Q638.4047,322.4766 638.7328,322.2938 Q639.0609,322.1063 639.4313,322.1063 Q639.6516,322.1063 639.8438,322.1578 Q640.0406,322.2047 640.2047,322.3125 Z " fill="#000000"/><text fill="#000000" font-family="sans-serif" font-size="4.2" lengthAdjust="spacing" textLength="10.5" x="645.525" y="325.2891">Class</text><line style="stroke:#181818;stroke-width:0.15;" x1="622.35" x2="669.45" y1="328.35" y2="328.35"/><ellipse cx="625.35" cy="332.7932" fill="none" rx="0.9" ry="0.9" style="stroke:#038048;stroke-width:0.3;"/><text fill="#000000" font-family="sans-serif" font-size="4.2" lengthAdjust="spacing" textLength="23.7" x="628.05" y="334.0822">id : ID_Class</text><ellipse cx="625.35" cy="338.3795" fill="none" rx="0.9" ry="0.9" style="stroke:#038048;stroke-width:0.3;"/><text fill="#000000" font-family="sans-serif" font-size="4.2" lengthAdjust="spacing" textLength="39.9" x="628.05" y="339.6686">classTitle : ClassTitle</text><ellipse cx="625.35" cy="343.9658" fill="none" rx="0.9" ry="0.9" style="stroke:#038048;stroke-width:0.3;"/><text fill="#000000" font-family="sans-serif" font-size="4.2" lengthAdjust="spacing" textLength="34.8" x="628.05" y="345.2549">date : WeeklyDate</text><ellipse cx="625.35" cy="349.5521" fill="none" rx="0.9" ry="0.9" style="stroke:#038048;stroke-width:0.3;"/><text fill="#000000" font-family="sans-serif" font-size="4.2" lengthAdjust="spacing" textLength="30.3" x="628.05" y="350.8412">course : Course</text><line style="stroke:#181818;stroke-width:0.15;" x1="622.35" x2="669.45" y1="353.0953" y2="353.0953"/></g><!--class ExtraClass--><g id="elem_ExtraClass"><rect codeLine="164" fill="#F1F1F1" height="25.5727" id="ExtraClass" rx="0.75" ry="0.75" style="stroke:#181818;stroke-width:0.15;" width="48.9" x="804.45" y="324.3"/><ellipse cx="817.59" cy="329.1" fill="#ADD1B2" rx="3.3" ry="3.3" style="stroke:#181818;stroke-width:0.3;"/><path d="M818.4197,327.8625 Q818.4666,327.7969 818.5228,327.7641 Q818.5791,327.7313 818.6447,327.7313 Q818.7572,327.7313 818.8275,327.8109 Q818.8978,327.8859 818.8978,328.0687 L818.8978,328.5047 Q818.8978,328.6875 818.8275,328.7672 Q818.7572,328.8469 818.6447,328.8469 Q818.5416,328.8469 818.4806,328.7859 Q818.4197,328.7297 818.3869,328.575 Q818.3728,328.4672 818.3166,328.4109 Q818.2181,328.2984 818.0353,328.2328 Q817.8525,328.1672 817.665,328.1672 Q817.4353,328.1672 817.2431,328.2656 Q817.0556,328.3641 816.9056,328.5891 Q816.7603,328.8141 816.7603,329.1234 L816.7603,329.4516 Q816.7603,329.8219 817.0275,330.0703 Q817.2947,330.3141 817.7728,330.3141 Q818.0541,330.3141 818.2509,330.2391 Q818.3681,330.1922 818.4947,330.0609 Q818.5744,329.9813 818.6166,329.9578 Q818.6634,329.9344 818.7244,329.9344 Q818.8228,329.9344 818.8978,330.0141 Q818.9775,330.0891 818.9775,330.1922 Q818.9775,330.2953 818.8744,330.4172 Q818.7244,330.5906 818.4853,330.6891 Q818.1619,330.825 817.7728,330.825 Q817.3181,330.825 816.9572,330.6375 Q816.6619,330.4875 816.4556,330.1688 Q816.2494,329.8453 816.2494,329.4609 L816.2494,329.1141 Q816.2494,328.7156 816.4322,328.3734 Q816.6197,328.0266 816.9478,327.8438 Q817.2759,327.6563 817.6463,327.6563 Q817.8666,327.6563 818.0588,327.7078 Q818.2556,327.7547 818.4197,327.8625 Z " fill="#000000"/><text fill="#000000" font-family="sans-serif" font-size="4.2" lengthAdjust="spacing" textLength="20.1" x="823.71" y="330.8391">ExtraClass</text><line style="stroke:#181818;stroke-width:0.15;" x1="804.75" x2="853.05" y1="333.9" y2="333.9"/><ellipse cx="807.75" cy="338.3432" fill="none" rx="0.9" ry="0.9" style="stroke:#038048;stroke-width:0.3;"/><text fill="#000000" font-family="sans-serif" font-size="4.2" lengthAdjust="spacing" textLength="33.3" x="810.45" y="339.6322">id : ID_ExtraClass</text><ellipse cx="807.75" cy="343.9295" fill="none" rx="0.9" ry="0.9" style="stroke:#038048;stroke-width:0.3;"/><text fill="#000000" font-family="sans-serif" font-size="4.2" lengthAdjust="spacing" textLength="41.1" x="810.45" y="345.2186">date : ScheduledDate</text><line style="stroke:#181818;stroke-width:0.15;" x1="804.75" x2="853.05" y1="347.4727" y2="347.4727"/></g><!--link MeetUI to MeetController--><g id="link_MeetUI_MeetController"><path codeLine="26" d="M478.5,31.551 C478.5,36.663 478.5,42.489 478.5,47.904 " fill="none" id="MeetUI-to-MeetController" style="stroke:#181818;stroke-width:0.3;"/><polygon fill="#181818" points="478.5,49.419,479.7,46.719,478.5,47.919,477.3,46.719,478.5,49.419" style="stroke:#181818;stroke-width:0.3;"/></g><!--link MeetController to ScheduleMeetService--><g id="link_MeetController_ScheduleMeetService"><path codeLine="27" d="M478.5,84.369 C478.5,89.403 478.5,95.058 478.5,100.644 " fill="none" id="MeetController-to-ScheduleMeetService" style="stroke:#181818;stroke-width:0.3;"/><polygon fill="#181818" points="478.5,102.216,479.7,99.516,478.5,100.716,477.3,99.516,478.5,102.216" style="stroke:#181818;stroke-width:0.3;"/></g><!--link ScheduleMeetService to PersonService--><g id="link_ScheduleMeetService_PersonService"><path codeLine="29" d="M403.449,148.872 C345.114,162.57 266.151,181.11 217.311,192.579 " fill="none" id="ScheduleMeetService-to-PersonService" style="stroke:#181818;stroke-width:0.3;"/><polygon fill="#181818" points="215.73,192.948,218.6331,193.4977,217.1901,192.6044,218.0834,191.1615,215.73,192.948" style="stroke:#181818;stroke-width:0.3;"/></g><!--link ScheduleMeetService to MeetingService--><g id="link_ScheduleMeetService_MeetingService"><path codeLine="30" d="M453.009,159.648 C448.065,165.153 442.899,170.907 438.006,176.358 " fill="none" id="ScheduleMeetService-to-MeetingService" style="stroke:#181818;stroke-width:0.3;"/><polygon fill="#181818" points="436.902,177.591,439.5953,176.376,437.9009,176.472,437.8049,174.7777,436.902,177.591" style="stroke:#181818;stroke-width:0.3;"/></g><!--link ScheduleMeetService to ClassService--><g id="link_ScheduleMeetService_ClassService"><path codeLine="31" d="M506.718,159.648 C514.119,167.094 521.967,174.993 528.915,181.983 " fill="none" id="ScheduleMeetService-to-ClassService" style="stroke:#181818;stroke-width:0.3;"/><polygon fill="#181818" points="530.022,183.099,528.9725,180.337,528.9656,182.0341,527.2686,182.0272,530.022,183.099" style="stroke:#181818;stroke-width:0.3;"/></g><!--link ScheduleMeetService to ExtraService--><g id="link_ScheduleMeetService_ExtraService"><path codeLine="32" d="M553.536,154.38 C583.737,163.689 618.216,174.315 647.25,183.264 " fill="none" id="ScheduleMeetService-to-ExtraService" style="stroke:#181818;stroke-width:0.3;"/><polygon fill="#181818" points="648.714,183.717,646.4859,181.7765,647.2802,183.2762,645.7806,184.0705,648.714,183.717" style="stroke:#181818;stroke-width:0.3;"/></g><!--link PersonService to PerBuilder--><g id="link_PersonService_PerBuilder"><path codeLine="34" d="M129.261,214.923 C105.651,222.132 76.488,232.854 52.8,247.2 C48.183,249.996 43.65,253.629 39.627,257.271 " fill="none" id="PersonService-to-PerBuilder" style="stroke:#181818;stroke-width:0.3;"/><polygon fill="#181818" points="38.508,258.297,41.3082,257.3542,39.6127,257.2823,39.6846,255.5867,38.508,258.297" style="stroke:#181818;stroke-width:0.3;"/></g><!--link PersonService to Persistence--><g id="link_PersonService_Persistence"><path codeLine="35" d="M215.736,209.919 C295.509,221.43 458.304,245.073 464.1,247.2 C472.671,250.344 481.377,255.42 488.556,260.217 " fill="none" id="PersonService-to-Persistence" style="stroke:#181818;stroke-width:0.3;"/><polygon fill="#181818" points="489.876,261.108,488.311,258.6019,488.6332,260.2681,486.967,260.5903,489.876,261.108" style="stroke:#181818;stroke-width:0.3;"/></g><!--link PersonService to RepositoryFactory--><g id="link_PersonService_RepositoryFactory"><path codeLine="36" d="M167.907,226.557 C165.003,248.229 164.745,280.167 183.3,298.8 C188.217,303.738 378.366,323.766 464.061,332.568 " fill="none" id="PersonService-to-RepositoryFactory" style="stroke:#181818;stroke-width:0.3;"/><polygon fill="#181818" points="465.567,332.721,463.0048,331.2495,464.075,332.5667,462.7579,333.6368,465.567,332.721" style="stroke:#181818;stroke-width:0.3;"/></g><!--link PersonService to PersonRepository--><g id="link_PersonService_PersonRepository"><path codeLine="37" d="M150.912,226.581 C140.421,237.702 128.208,250.644 119.397,259.983 " fill="none" id="PersonService-to-PersonRepository" style="stroke:#181818;stroke-width:0.3;"/><polygon fill="#181818" points="118.338,261.105,121.0623,259.9613,119.366,260.0127,119.3146,258.3164,118.338,261.105" style="stroke:#181818;stroke-width:0.3;"/></g><!--link MeetingService to MeetBuilder--><g id="link_MeetingService_MeetBuilder"><path codeLine="39" d="M414,229.296 C414,234.624 414,240.258 414,245.637 " fill="none" id="MeetingService-to-MeetBuilder" style="stroke:#181818;stroke-width:0.3;"/><polygon fill="#181818" points="414,247.146,415.2,244.446,414,245.646,412.8,244.446,414,247.146" style="stroke:#181818;stroke-width:0.3;"/></g><!--link MeetingService to Persistence--><g id="link_MeetingService_Persistence"><path codeLine="40" d="M447.831,229.296 C461.769,239.841 477.285,251.58 488.661,260.187 " fill="none" id="MeetingService-to-Persistence" style="stroke:#181818;stroke-width:0.3;"/><polygon fill="#181818" points="489.888,261.114,488.4583,258.5283,488.6916,260.2092,487.0107,260.4425,489.888,261.114" style="stroke:#181818;stroke-width:0.3;"/></g><!--link MeetingService to RepositoryFactory--><g id="link_MeetingService_RepositoryFactory"><path codeLine="41" d="M376.425,229.305 C371.223,234.582 366.63,240.579 363.6,247.2 C354.054,268.053 349.641,280.605 363.6,298.8 C375.816,314.721 426.708,325.428 463.995,331.302 " fill="none" id="MeetingService-to-RepositoryFactory" style="stroke:#181818;stroke-width:0.3;"/><polygon fill="#181818" points="465.537,331.545,463.0543,329.943,464.0549,331.3137,462.6843,332.3143,465.537,331.545" style="stroke:#181818;stroke-width:0.3;"/></g><!--link MeetingService to MeetRepository--><g id="link_MeetingService_MeetRepository"><path codeLine="42" d="M358.02,229.245 C334.626,239.922 308.535,251.829 289.59,260.475 " fill="none" id="MeetingService-to-MeetRepository" style="stroke:#181818;stroke-width:0.3;"/><polygon fill="#181818" points="288.123,261.144,291.0775,261.1115,289.4869,260.5198,290.0787,258.9292,288.123,261.144" style="stroke:#181818;stroke-width:0.3;"/></g><!--link ClassService to Persistence--><g id="link_ClassService_Persistence"><path codeLine="44" d="M536.97,223.659 C529.446,235.275 520.173,249.585 513.594,259.743 " fill="none" id="ClassService-to-Persistence" style="stroke:#181818;stroke-width:0.3;"/><polygon fill="#181818" points="512.724,261.087,515.1974,259.4707,513.5382,259.8272,513.1816,258.168,512.724,261.087" style="stroke:#181818;stroke-width:0.3;"/></g><!--link ClassService to RepositoryFactory--><g id="link_ClassService_RepositoryFactory"><path codeLine="45" d="M553.329,223.659 C555.813,243.639 557.052,274.782 546,298.8 C543.144,305.01 538.755,310.683 533.898,315.642 " fill="none" id="ClassService-to-RepositoryFactory" style="stroke:#181818;stroke-width:0.3;"/><polygon fill="#181818" points="532.788,316.755,535.5436,315.6888,533.8465,315.6922,533.8431,313.9951,532.788,316.755" style="stroke:#181818;stroke-width:0.3;"/></g><!--link ClassService to ClassRepository--><g id="link_ClassService_ClassRepository"><path codeLine="46" d="M577.668,223.659 C594.063,235.44 614.31,249.996 628.476,260.175 " fill="none" id="ClassService-to-ClassRepository" style="stroke:#181818;stroke-width:0.3;"/><polygon fill="#181818" points="629.742,261.087,628.2492,258.5372,628.5237,260.2119,626.849,260.4864,629.742,261.087" style="stroke:#181818;stroke-width:0.3;"/></g><!--link ExtraService to Persistence--><g id="link_ExtraService_Persistence"><path codeLine="48" d="M648.666,221.232 C623.22,228.696 593.682,237.831 567.3,247.2 C556.002,251.211 543.753,256.119 533.145,260.55 " fill="none" id="ExtraService-to-Persistence" style="stroke:#181818;stroke-width:0.3;"/><polygon fill="#181818" points="531.726,261.144,534.6799,261.21,533.11,260.5656,533.7544,258.9956,531.726,261.144" style="stroke:#181818;stroke-width:0.3;"/></g><!--link ExtraService to RepositoryFactory--><g id="link_ExtraService_RepositoryFactory"><path codeLine="49" d="M722.193,223.737 C731.742,244.887 741.819,277.983 724.2,298.8 C708.567,317.271 640.644,312.672 616.8,316.8 C593.457,320.841 567.396,325.494 546.33,329.289 " fill="none" id="ExtraService-to-RepositoryFactory" style="stroke:#181818;stroke-width:0.3;"/><polygon fill="#181818" points="544.824,329.559,547.6937,330.2625,546.3003,329.2937,547.2692,327.9004,544.824,329.559" style="stroke:#181818;stroke-width:0.3;"/></g><!--link ExtraService to ExtraRepository--><g id="link_ExtraService_ExtraRepository"><path codeLine="50" d="M745.527,223.659 C765.675,235.509 790.584,250.161 807.903,260.349 " fill="none" id="ExtraService-to-ExtraRepository" style="stroke:#181818;stroke-width:0.3;"/><polygon fill="#181818" points="809.241,261.135,807.5243,258.7302,807.9488,260.3733,806.3056,260.7978,809.241,261.135" style="stroke:#181818;stroke-width:0.3;"/></g><!--link Persistence to RepositoryFactory--><g id="link_Persistence_RepositoryFactory"><path codeLine="52" d="M505.2,284.937 C505.2,293.361 505.2,304.989 505.2,315.099 " fill="none" id="Persistence-to-RepositoryFactory" style="stroke:#181818;stroke-width:0.3;"/><polygon fill="#181818" points="505.2,316.707,506.4,314.007,505.2,315.207,504,314.007,505.2,316.707" style="stroke:#181818;stroke-width:0.3;"/></g><!--link PersonRepository to Person--><g id="link_PersonRepository_Person"><path codeLine="54" d="M104.925,284.937 C102.957,294.18 100.17,307.281 97.89,318 " fill="none" id="PersonRepository-to-Person" style="stroke:#181818;stroke-width:0.3;"/><polygon fill="#181818" points="97.557,319.563,99.2942,317.173,97.8701,318.096,96.9471,316.672,97.557,319.563" style="stroke:#181818;stroke-width:0.3;"/></g><!--link MeetRepository to Meet--><g id="link_MeetRepository_Meet"><path codeLine="55" d="M262.8,284.937 C262.8,294.18 262.8,307.281 262.8,318 " fill="none" id="MeetRepository-to-Meet" style="stroke:#181818;stroke-width:0.3;"/><polygon fill="#181818" points="262.8,319.563,264,316.863,262.8,318.063,261.6,316.863,262.8,319.563" style="stroke:#181818;stroke-width:0.3;"/></g><!--link ClassRepository to Class--><g id="link_ClassRepository_Class"><path codeLine="56" d="M645.9,284.937 C645.9,293.94 645.9,306.609 645.9,317.163 " fill="none" id="ClassRepository-to-Class" style="stroke:#181818;stroke-width:0.3;"/><polygon fill="#181818" points="645.9,318.705,647.1,316.005,645.9,317.205,644.7,316.005,645.9,318.705" style="stroke:#181818;stroke-width:0.3;"/></g><!--link ExtraRepository to ExtraClass--><g id="link_ExtraRepository_ExtraClass"><path codeLine="57" d="M828.9,284.937 C828.9,295.587 828.9,311.364 828.9,322.707 " fill="none" id="ExtraRepository-to-ExtraClass" style="stroke:#181818;stroke-width:0.3;"/><polygon fill="#181818" points="828.9,324.207,830.1,321.507,828.9,322.707,827.7,321.507,828.9,324.207" style="stroke:#181818;stroke-width:0.3;"/></g><!--link PerBuilder to Person--><g id="link_PerBuilder_Person"><path codeLine="59" d="M40.644,287.778 C50.583,296.916 63.507,308.802 74.133,318.573 " fill="none" id="PerBuilder-to-Person" style="stroke:#181818;stroke-width:0.3;"/><polygon fill="#181818" points="75.285,319.632,74.1084,316.9217,74.1803,318.6173,72.4848,318.6892,75.285,319.632" style="stroke:#181818;stroke-width:0.3;"/></g><!--link PerBuilder to Email--><g id="link_PerBuilder_Email"><path codeLine="60" d="M24.9,287.778 C24.9,298.584 24.9,313.227 24.9,323.679 " fill="none" id="PerBuilder-to-Email" style="stroke:#181818;stroke-width:0.3;"/><polygon fill="#181818" points="24.9,325.191,26.1,322.491,24.9,323.691,23.7,322.491,24.9,325.191" style="stroke:#181818;stroke-width:0.3;"/></g><!--SRC=[hLTBRnit4BxpLn2vL8QZ-YuO0kpO0GpKHL7NoB6WTsbhaTMkiAIK28B_UuVaa1m-Dd4HNsno7X_dFQlVDbhlrEhYOjUBGU-t_U_DkBreUg7Kikt4ooIsZDah_t0lfUw6byUx3rmeRcwFT_poSZT99GSjT3SEwtKc_6aSz3JslPo2KYI1ijZj-gxnkbxveTd8TjzB17cGqw5hf4MWBAGNC8ZoHwVqNt9Iuq014igSwjL1TBru2XRS22qfI6hOJr4-cNkEOOblHRZzhYTHXR6SEHYFuvo-tdTzYva02bv1wScTYknH1KFwWSRj5YozQbie1kNiCWIGR4Su49USAIGL5HbyFhnBHIWE95WEZJGL9R_hW8baKvln5j7_bhjHTNgSZfz5O_vPnO8Awi_kL0GooX8_8X4qft0flCgK3VMdgZRpcM96cz6CXPEfMyQyEiF-NYxNMTUoh8cDHAKh6QkrgX5EEd1MAcsnMJ7QHRD2j4SOIoS0MeIbNMVw6gfmYxAPGQ3ruO9BveVtrnjHOLChAkpIZ9adg1N91CeVAPZb4uL8LcUC9SCfVw5WbYyK8bdLkcJwVgzZiA8zOqvOrdq-IYnlhk0To_icMENOZ0nMyav6jSFH3nNNQITsplL6aiPQyMA9iYLlnuVD-6rn1kp3sBNi5VEOTId2-TYjU7sd0k11JjtpCIuwiMZXZy5_6iTUYW5aLAfSIBnwNoeTY9QaRR7YnNPsObdPhlWFLZ56Z5OXaS-tfPEEgQgeLBViEuLeoK6W-NelDFnNrr9_at8mpwY52SMbEQu_ylgv6kiaUacKVQcjU7874R8GaPlkK131fGViifVE-Lw13Yd_LJdTbln5OchLzT6M-aBf2O9oXdc_TDmr-19R86Rzb9H2T2Obl8StMuUOEbJiQUSHgJzC6NfXlBeNExpIjArDrYS9n_d6SG6W5Nbw3yyih4mToyUpTIkK-zkTyaRJwVmkHilGVvdbjQyOPtxQil_7XzX5M5361JUObzn-towakIa3u-XPwqLRJg3ot0tjLTzZuN_PZBRL2KPM-GaKDuy_x_l-Jx4rmVkCHw2g8mHn-mXz1qCyd87HjI1uT_ClhfY0wBwy3Q3hEYvJuxETHsp7Aet6KvC_SXEwDyNKVhEVY8a831He0EEVqJ3yuT2vNuxA1-Wka390aYLiszYh2LGDwJpCv_R6MV10xo7ZlZyzBj8ZL90eda3H13T8fwy5l_BF398BR8DVJOM5eQbmdoau8FxfT2_zPB2NcA8lKdxjZvYePjnFoahQ0ocsx7E8U71BklbNtOXOr1VotHNCdeaqcKOdnfSy_DZfO6YSLUTHq2rO5i5kGgjQR43W-isoEAjk59302Mq5yj46R3eBhKnr1hwo_m00]--></g></svg>