<?xml version="1.0" encoding="us-ascii" standalone="no"?><svg xmlns="http://www.w3.org/2000/svg" xmlns:xlink="http://www.w3.org/1999/xlink" contentStyleType="text/css" height="650px" preserveAspectRatio="none" style="width:2052px;height:650px;background:#FFFFFF;" version="1.1" viewBox="0 0 2052 650" width="2052px" zoomAndPan="magnify"><defs/><g><rect fill="#FFFFFF" height="461.375" style="stroke:#181818;stroke-width:1.0;" width="10" x="25.5" y="90.6406"/><rect fill="#FFFFFF" height="461.375" style="stroke:#181818;stroke-width:1.0;" width="10" x="219.5" y="90.6406"/><rect fill="#FFFFFF" height="383.8047" style="stroke:#181818;stroke-width:1.0;" width="10" x="621.5" y="139.6875"/><rect fill="#FFFFFF" height="326.7578" style="stroke:#181818;stroke-width:1.0;" width="10" x="1016.5" y="168.2109"/><rect fill="#FFFFFF" height="85.5703" style="stroke:#181818;stroke-width:1.0;" width="10" x="1167.5" y="196.7344"/><rect fill="#FFFFFF" height="85.5703" style="stroke:#181818;stroke-width:1.0;" width="10" x="1289.5" y="339.3516"/><line style="stroke:#181818;stroke-width:0.5;stroke-dasharray:5.0,5.0;" x1="30" x2="30" y1="80.6406" y2="570.0156"/><line style="stroke:#181818;stroke-width:0.5;stroke-dasharray:5.0,5.0;" x1="224" x2="224" y1="80.6406" y2="570.0156"/><line style="stroke:#181818;stroke-width:0.5;stroke-dasharray:5.0,5.0;" x1="626" x2="626" y1="80.6406" y2="570.0156"/><line style="stroke:#181818;stroke-width:0.5;stroke-dasharray:5.0,5.0;" x1="1021.5" x2="1021.5" y1="80.6406" y2="570.0156"/><line style="stroke:#181818;stroke-width:0.5;stroke-dasharray:5.0,5.0;" x1="1172.5" x2="1172.5" y1="80.6406" y2="570.0156"/><line style="stroke:#181818;stroke-width:0.5;stroke-dasharray:5.0,5.0;" x1="1294.5" x2="1294.5" y1="80.6406" y2="570.0156"/><line style="stroke:#181818;stroke-width:0.5;stroke-dasharray:5.0,5.0;" x1="1398.5" x2="1398.5" y1="80.6406" y2="570.0156"/><line style="stroke:#181818;stroke-width:0.5;stroke-dasharray:5.0,5.0;" x1="1484.5" x2="1484.5" y1="80.6406" y2="570.0156"/><line style="stroke:#181818;stroke-width:0.5;stroke-dasharray:5.0,5.0;" x1="1584.5" x2="1584.5" y1="80.6406" y2="570.0156"/><line style="stroke:#181818;stroke-width:0.5;stroke-dasharray:5.0,5.0;" x1="1715.5" x2="1715.5" y1="80.6406" y2="570.0156"/><line style="stroke:#181818;stroke-width:0.5;stroke-dasharray:5.0,5.0;" x1="1858.5" x2="1858.5" y1="80.6406" y2="570.0156"/><line style="stroke:#181818;stroke-width:0.5;stroke-dasharray:5.0,5.0;" x1="1989.5" x2="1989.5" y1="80.6406" y2="570.0156"/><text fill="#000000" font-family="sans-serif" font-size="14" lengthAdjust="spacing" textLength="45" x="5" y="77.6738">Person</text><ellipse cx="30.5" cy="13.5" fill="#E2E2F0" rx="8" ry="8" style="stroke:#181818;stroke-width:0.5;"/><path d="M30.5,21.5 L30.5,48.5 M17.5,29.5 L43.5,29.5 M30.5,48.5 L17.5,63.5 M30.5,48.5 L43.5,63.5 " fill="none" style="stroke:#181818;stroke-width:0.5;"/><text fill="#000000" font-family="sans-serif" font-size="14" lengthAdjust="spacing" textLength="45" x="5" y="581.6895">Person</text><ellipse cx="30.5" cy="593.1563" fill="#E2E2F0" rx="8" ry="8" style="stroke:#181818;stroke-width:0.5;"/><path d="M30.5,601.1563 L30.5,628.1563 M17.5,609.1563 L43.5,609.1563 M30.5,628.1563 L17.5,643.1563 M30.5,628.1563 L43.5,643.1563 " fill="none" style="stroke:#181818;stroke-width:0.5;"/><rect fill="#E2E2F0" height="45.2813" rx="2.5" ry="2.5" style="stroke:#181818;stroke-width:0.5;" width="135" x="157" y="34.3594"/><text fill="#000000" font-family="sans-serif" font-size="14" font-style="italic" lengthAdjust="spacing" textLength="95" x="177" y="54.0332">&#171;presentation&#187;</text><text fill="#000000" font-family="sans-serif" font-size="14" lengthAdjust="spacing" textLength="121" x="164" y="69.6738">ScheduleMeetingUI</text><rect fill="#E2E2F0" height="45.2813" rx="2.5" ry="2.5" style="stroke:#181818;stroke-width:0.5;" width="135" x="157" y="569.0156"/><text fill="#000000" font-family="sans-serif" font-size="14" font-style="italic" lengthAdjust="spacing" textLength="95" x="177" y="588.6895">&#171;presentation&#187;</text><text fill="#000000" font-family="sans-serif" font-size="14" lengthAdjust="spacing" textLength="121" x="164" y="604.3301">ScheduleMeetingUI</text><rect fill="#E2E2F0" height="45.2813" rx="2.5" ry="2.5" style="stroke:#181818;stroke-width:0.5;" width="185" x="534" y="34.3594"/><text fill="#000000" font-family="sans-serif" font-size="14" font-style="italic" lengthAdjust="spacing" textLength="84" x="584.5" y="54.0332">&#171;application&#187;</text><text fill="#000000" font-family="sans-serif" font-size="14" lengthAdjust="spacing" textLength="171" x="541" y="69.6738">ScheduleMeetingController</text><rect fill="#E2E2F0" height="45.2813" rx="2.5" ry="2.5" style="stroke:#181818;stroke-width:0.5;" width="185" x="534" y="569.0156"/><text fill="#000000" font-family="sans-serif" font-size="14" font-style="italic" lengthAdjust="spacing" textLength="84" x="584.5" y="588.6895">&#171;application&#187;</text><text fill="#000000" font-family="sans-serif" font-size="14" lengthAdjust="spacing" textLength="171" x="541" y="604.3301">ScheduleMeetingController</text><rect fill="#E2E2F0" height="45.2813" rx="2.5" ry="2.5" style="stroke:#181818;stroke-width:0.5;" width="170" x="936.5" y="34.3594"/><text fill="#000000" font-family="sans-serif" font-size="14" font-style="italic" lengthAdjust="spacing" textLength="84" x="979.5" y="54.0332">&#171;application&#187;</text><text fill="#000000" font-family="sans-serif" font-size="14" lengthAdjust="spacing" textLength="156" x="943.5" y="69.6738">ScheduleMeetingService</text><rect fill="#E2E2F0" height="45.2813" rx="2.5" ry="2.5" style="stroke:#181818;stroke-width:0.5;" width="170" x="936.5" y="569.0156"/><text fill="#000000" font-family="sans-serif" font-size="14" font-style="italic" lengthAdjust="spacing" textLength="84" x="979.5" y="588.6895">&#171;application&#187;</text><text fill="#000000" font-family="sans-serif" font-size="14" lengthAdjust="spacing" textLength="156" x="943.5" y="604.3301">ScheduleMeetingService</text><rect fill="#E2E2F0" height="45.2813" rx="2.5" ry="2.5" style="stroke:#181818;stroke-width:0.5;" width="112" x="1116.5" y="34.3594"/><text fill="#000000" font-family="sans-serif" font-size="14" font-style="italic" lengthAdjust="spacing" textLength="59" x="1143" y="54.0332">&#171;factory&#187;</text><text fill="#000000" font-family="sans-serif" font-size="14" lengthAdjust="spacing" textLength="98" x="1123.5" y="69.6738">MeetingFactory</text><rect fill="#E2E2F0" height="45.2813" rx="2.5" ry="2.5" style="stroke:#181818;stroke-width:0.5;" width="112" x="1116.5" y="569.0156"/><text fill="#000000" font-family="sans-serif" font-size="14" font-style="italic" lengthAdjust="spacing" textLength="59" x="1143" y="588.6895">&#171;factory&#187;</text><text fill="#000000" font-family="sans-serif" font-size="14" lengthAdjust="spacing" textLength="98" x="1123.5" y="604.3301">MeetingFactory</text><rect fill="#E2E2F0" height="45.2813" rx="2.5" ry="2.5" style="stroke:#181818;stroke-width:0.5;" width="112" x="1238.5" y="34.3594"/><text fill="#000000" font-family="sans-serif" font-size="14" font-style="italic" lengthAdjust="spacing" textLength="59" x="1265" y="54.0332">&#171;factory&#187;</text><text fill="#000000" font-family="sans-serif" font-size="14" lengthAdjust="spacing" textLength="98" x="1245.5" y="69.6738">MeetingFactory</text><rect fill="#E2E2F0" height="45.2813" rx="2.5" ry="2.5" style="stroke:#181818;stroke-width:0.5;" width="112" x="1238.5" y="569.0156"/><text fill="#000000" font-family="sans-serif" font-size="14" font-style="italic" lengthAdjust="spacing" textLength="59" x="1265" y="588.6895">&#171;factory&#187;</text><text fill="#000000" font-family="sans-serif" font-size="14" lengthAdjust="spacing" textLength="98" x="1245.5" y="604.3301">MeetingFactory</text><rect fill="#E2E2F0" height="45.2813" rx="2.5" ry="2.5" style="stroke:#181818;stroke-width:0.5;" width="76" x="1360.5" y="34.3594"/><text fill="#000000" font-family="sans-serif" font-size="14" font-style="italic" lengthAdjust="spacing" textLength="62" x="1367.5" y="54.0332">&#171;domain&#187;</text><text fill="#000000" font-family="sans-serif" font-size="14" lengthAdjust="spacing" textLength="34" x="1381.5" y="69.6738">Email</text><rect fill="#E2E2F0" height="45.2813" rx="2.5" ry="2.5" style="stroke:#181818;stroke-width:0.5;" width="76" x="1360.5" y="569.0156"/><text fill="#000000" font-family="sans-serif" font-size="14" font-style="italic" lengthAdjust="spacing" textLength="62" x="1367.5" y="588.6895">&#171;domain&#187;</text><text fill="#000000" font-family="sans-serif" font-size="14" lengthAdjust="spacing" textLength="34" x="1381.5" y="604.3301">Email</text><rect fill="#E2E2F0" height="45.2813" rx="2.5" ry="2.5" style="stroke:#181818;stroke-width:0.5;" width="76" x="1446.5" y="34.3594"/><text fill="#000000" font-family="sans-serif" font-size="14" font-style="italic" lengthAdjust="spacing" textLength="62" x="1453.5" y="54.0332">&#171;domain&#187;</text><text fill="#000000" font-family="sans-serif" font-size="14" lengthAdjust="spacing" textLength="50" x="1459.5" y="69.6738">Meeting</text><rect fill="#E2E2F0" height="45.2813" rx="2.5" ry="2.5" style="stroke:#181818;stroke-width:0.5;" width="76" x="1446.5" y="569.0156"/><text fill="#000000" font-family="sans-serif" font-size="14" font-style="italic" lengthAdjust="spacing" textLength="62" x="1453.5" y="588.6895">&#171;domain&#187;</text><text fill="#000000" font-family="sans-serif" font-size="14" lengthAdjust="spacing" textLength="50" x="1459.5" y="604.3301">Meeting</text><rect fill="#E2E2F0" height="45.2813" rx="2.5" ry="2.5" style="stroke:#181818;stroke-width:0.5;" width="105" x="1532.5" y="34.3594"/><text fill="#000000" font-family="sans-serif" font-size="14" font-style="italic" lengthAdjust="spacing" textLength="64" x="1553" y="54.0332">&#171;Domain&#187;</text><text fill="#000000" font-family="sans-serif" font-size="14" lengthAdjust="spacing" textLength="91" x="1539.5" y="69.6738">MeetingOwner</text><rect fill="#E2E2F0" height="45.2813" rx="2.5" ry="2.5" style="stroke:#181818;stroke-width:0.5;" width="105" x="1532.5" y="569.0156"/><text fill="#000000" font-family="sans-serif" font-size="14" font-style="italic" lengthAdjust="spacing" textLength="64" x="1553" y="588.6895">&#171;Domain&#187;</text><text fill="#000000" font-family="sans-serif" font-size="14" lengthAdjust="spacing" textLength="91" x="1539.5" y="604.3301">MeetingOwner</text><rect fill="#E2E2F0" height="45.2813" rx="2.5" ry="2.5" style="stroke:#181818;stroke-width:0.5;" width="136" x="1647.5" y="34.3594"/><text fill="#000000" font-family="sans-serif" font-size="14" font-style="italic" lengthAdjust="spacing" textLength="89" x="1671" y="54.0332">&#171;persistence&#187;</text><text fill="#000000" font-family="sans-serif" font-size="14" lengthAdjust="spacing" textLength="122" x="1654.5" y="69.6738">PersistenceContext</text><rect fill="#E2E2F0" height="45.2813" rx="2.5" ry="2.5" style="stroke:#181818;stroke-width:0.5;" width="136" x="1647.5" y="569.0156"/><text fill="#000000" font-family="sans-serif" font-size="14" font-style="italic" lengthAdjust="spacing" textLength="89" x="1671" y="588.6895">&#171;persistence&#187;</text><text fill="#000000" font-family="sans-serif" font-size="14" lengthAdjust="spacing" textLength="122" x="1654.5" y="604.3301">PersistenceContext</text><rect fill="#E2E2F0" height="45.2813" rx="2.5" ry="2.5" style="stroke:#181818;stroke-width:0.5;" width="130" x="1793.5" y="34.3594"/><text fill="#000000" font-family="sans-serif" font-size="14" font-style="italic" lengthAdjust="spacing" textLength="59" x="1829" y="54.0332">&#171;factory&#187;</text><text fill="#000000" font-family="sans-serif" font-size="14" lengthAdjust="spacing" textLength="116" x="1800.5" y="69.6738">RepositoryFactory</text><rect fill="#E2E2F0" height="45.2813" rx="2.5" ry="2.5" style="stroke:#181818;stroke-width:0.5;" width="130" x="1793.5" y="569.0156"/><text fill="#000000" font-family="sans-serif" font-size="14" font-style="italic" lengthAdjust="spacing" textLength="59" x="1829" y="588.6895">&#171;factory&#187;</text><text fill="#000000" font-family="sans-serif" font-size="14" lengthAdjust="spacing" textLength="116" x="1800.5" y="604.3301">RepositoryFactory</text><rect fill="#E2E2F0" height="29.6406" rx="2.5" ry="2.5" style="stroke:#181818;stroke-width:0.5;" width="113" x="1933.5" y="50"/><text fill="#000000" font-family="sans-serif" font-size="14" lengthAdjust="spacing" textLength="99" x="1940.5" y="69.6738">MeetRepository</text><rect fill="#E2E2F0" height="29.6406" rx="2.5" ry="2.5" style="stroke:#181818;stroke-width:0.5;" width="113" x="1933.5" y="569.0156"/><text fill="#000000" font-family="sans-serif" font-size="14" lengthAdjust="spacing" textLength="99" x="1940.5" y="588.6895">MeetRepository</text><rect fill="#FFFFFF" height="461.375" style="stroke:#181818;stroke-width:1.0;" width="10" x="25.5" y="90.6406"/><rect fill="#FFFFFF" height="461.375" style="stroke:#181818;stroke-width:1.0;" width="10" x="219.5" y="90.6406"/><rect fill="#FFFFFF" height="383.8047" style="stroke:#181818;stroke-width:1.0;" width="10" x="621.5" y="139.6875"/><rect fill="#FFFFFF" height="326.7578" style="stroke:#181818;stroke-width:1.0;" width="10" x="1016.5" y="168.2109"/><rect fill="#FFFFFF" height="85.5703" style="stroke:#181818;stroke-width:1.0;" width="10" x="1167.5" y="196.7344"/><rect fill="#FFFFFF" height="85.5703" style="stroke:#181818;stroke-width:1.0;" width="10" x="1289.5" y="339.3516"/><polygon fill="#181818" points="207.5,107.1641,217.5,111.1641,207.5,115.1641,211.5,111.1641" style="stroke:#181818;stroke-width:1.0;"/><line style="stroke:#181818;stroke-width:1.0;" x1="35.5" x2="213.5" y1="111.1641" y2="111.1641"/><text fill="#000000" font-family="sans-serif" font-size="13" font-weight="bold" lengthAdjust="spacing" textLength="7" x="42.5" y="106.4092">1</text><text fill="#000000" font-family="sans-serif" font-size="13" lengthAdjust="spacing" textLength="21" x="53.5" y="106.4092">yes</text><polygon fill="#181818" points="609.5,135.6875,619.5,139.6875,609.5,143.6875,613.5,139.6875" style="stroke:#181818;stroke-width:1.0;"/><line style="stroke:#181818;stroke-width:1.0;" x1="229.5" x2="615.5" y1="139.6875" y2="139.6875"/><text fill="#000000" font-family="sans-serif" font-size="13" font-weight="bold" lengthAdjust="spacing" textLength="7" x="236.5" y="134.9326">2</text><text fill="#000000" font-family="sans-serif" font-size="13" lengthAdjust="spacing" textLength="362" x="247.5" y="134.9326">scheduledMeeting(List&lt;String&gt; emails, Date date, int duration)</text><polygon fill="#181818" points="1004.5,164.2109,1014.5,168.2109,1004.5,172.2109,1008.5,168.2109" style="stroke:#181818;stroke-width:1.0;"/><line style="stroke:#181818;stroke-width:1.0;" x1="631.5" x2="1010.5" y1="168.2109" y2="168.2109"/><text fill="#000000" font-family="sans-serif" font-size="13" font-weight="bold" lengthAdjust="spacing" textLength="7" x="638.5" y="163.4561">3</text><text fill="#000000" font-family="sans-serif" font-size="13" lengthAdjust="spacing" textLength="355" x="649.5" y="163.4561">scheduleMeeting(List&lt;String&gt; emails, Date date, int duration)</text><polygon fill="#181818" points="1155.5,192.7344,1165.5,196.7344,1155.5,200.7344,1159.5,196.7344" style="stroke:#181818;stroke-width:1.0;"/><line style="stroke:#181818;stroke-width:1.0;" x1="1026.5" x2="1161.5" y1="196.7344" y2="196.7344"/><text fill="#000000" font-family="sans-serif" font-size="13" font-weight="bold" lengthAdjust="spacing" textLength="7" x="1033.5" y="191.9795">4</text><text fill="#000000" font-family="sans-serif" font-size="13" lengthAdjust="spacing" textLength="62" x="1044.5" y="191.9795">build(Data)</text><polygon fill="#181818" points="1472.5,221.2578,1482.5,225.2578,1472.5,229.2578,1476.5,225.2578" style="stroke:#181818;stroke-width:1.0;"/><line style="stroke:#181818;stroke-width:1.0;" x1="1177.5" x2="1478.5" y1="225.2578" y2="225.2578"/><text fill="#000000" font-family="sans-serif" font-size="13" font-weight="bold" lengthAdjust="spacing" textLength="7" x="1184.5" y="220.5029">5</text><text fill="#000000" font-family="sans-serif" font-size="13" lengthAdjust="spacing" textLength="35" x="1195.5" y="220.5029">(Data)</text><polygon fill="#181818" points="1188.5,249.7813,1178.5,253.7813,1188.5,257.7813,1184.5,253.7813" style="stroke:#181818;stroke-width:1.0;"/><line style="stroke:#181818;stroke-width:1.0;" x1="1182.5" x2="1483.5" y1="253.7813" y2="253.7813"/><text fill="#000000" font-family="sans-serif" font-size="13" font-weight="bold" lengthAdjust="spacing" textLength="7" x="1194.5" y="249.0264">6</text><text fill="#000000" font-family="sans-serif" font-size="13" lengthAdjust="spacing" textLength="46" x="1205.5" y="249.0264">meeting</text><polygon fill="#181818" points="1037.5,278.3047,1027.5,282.3047,1037.5,286.3047,1033.5,282.3047" style="stroke:#181818;stroke-width:1.0;"/><line style="stroke:#181818;stroke-width:1.0;" x1="1031.5" x2="1171.5" y1="282.3047" y2="282.3047"/><text fill="#000000" font-family="sans-serif" font-size="13" font-weight="bold" lengthAdjust="spacing" textLength="7" x="1043.5" y="277.5498">7</text><text fill="#000000" font-family="sans-serif" font-size="13" lengthAdjust="spacing" textLength="46" x="1054.5" y="277.5498">meeting</text><polygon fill="#181818" points="1978,306.8281,1988,310.8281,1978,314.8281,1982,310.8281" style="stroke:#181818;stroke-width:1.0;"/><line style="stroke:#181818;stroke-width:1.0;" x1="1026.5" x2="1984" y1="310.8281" y2="310.8281"/><text fill="#000000" font-family="sans-serif" font-size="13" font-weight="bold" lengthAdjust="spacing" textLength="7" x="1033.5" y="306.0732">8</text><text fill="#000000" font-family="sans-serif" font-size="13" lengthAdjust="spacing" textLength="80" x="1044.5" y="306.0732">save(meeting)</text><polygon fill="#181818" points="1277.5,335.3516,1287.5,339.3516,1277.5,343.3516,1281.5,339.3516" style="stroke:#181818;stroke-width:1.0;"/><line style="stroke:#181818;stroke-width:1.0;" x1="1026.5" x2="1283.5" y1="339.3516" y2="339.3516"/><text fill="#000000" font-family="sans-serif" font-size="13" font-weight="bold" lengthAdjust="spacing" textLength="7" x="1033.5" y="334.5967">9</text><text fill="#000000" font-family="sans-serif" font-size="13" lengthAdjust="spacing" textLength="62" x="1044.5" y="334.5967">build(Data)</text><polygon fill="#181818" points="1573,363.875,1583,367.875,1573,371.875,1577,367.875" style="stroke:#181818;stroke-width:1.0;"/><line style="stroke:#181818;stroke-width:1.0;" x1="1299.5" x2="1579" y1="367.875" y2="367.875"/><text fill="#000000" font-family="sans-serif" font-size="13" font-weight="bold" lengthAdjust="spacing" textLength="14" x="1306.5" y="363.1201">10</text><text fill="#000000" font-family="sans-serif" font-size="13" lengthAdjust="spacing" textLength="35" x="1324.5" y="363.1201">(Data)</text><polygon fill="#181818" points="1310.5,392.3984,1300.5,396.3984,1310.5,400.3984,1306.5,396.3984" style="stroke:#181818;stroke-width:1.0;"/><line style="stroke:#181818;stroke-width:1.0;" x1="1304.5" x2="1584" y1="396.3984" y2="396.3984"/><text fill="#000000" font-family="sans-serif" font-size="13" font-weight="bold" lengthAdjust="spacing" textLength="14" x="1316.5" y="391.6436">11</text><text fill="#000000" font-family="sans-serif" font-size="13" lengthAdjust="spacing" textLength="83" x="1334.5" y="391.6436">meetingOwner</text><polygon fill="#181818" points="1037.5,420.9219,1027.5,424.9219,1037.5,428.9219,1033.5,424.9219" style="stroke:#181818;stroke-width:1.0;"/><line style="stroke:#181818;stroke-width:1.0;" x1="1031.5" x2="1293.5" y1="424.9219" y2="424.9219"/><text fill="#000000" font-family="sans-serif" font-size="13" font-weight="bold" lengthAdjust="spacing" textLength="14" x="1043.5" y="420.167">12</text><text fill="#000000" font-family="sans-serif" font-size="13" lengthAdjust="spacing" textLength="83" x="1061.5" y="420.167">meetingOwner</text><line style="stroke:#181818;stroke-width:1.0;" x1="1026.5" x2="1068.5" y1="453.4453" y2="453.4453"/><line style="stroke:#181818;stroke-width:1.0;" x1="1068.5" x2="1068.5" y1="453.4453" y2="466.4453"/><line style="stroke:#181818;stroke-width:1.0;" x1="1027.5" x2="1068.5" y1="466.4453" y2="466.4453"/><polygon fill="#181818" points="1037.5,462.4453,1027.5,466.4453,1037.5,470.4453,1033.5,466.4453" style="stroke:#181818;stroke-width:1.0;"/><text fill="#000000" font-family="sans-serif" font-size="13" font-weight="bold" lengthAdjust="spacing" textLength="14" x="1033.5" y="448.6904">13</text><text fill="#000000" font-family="sans-serif" font-size="13" lengthAdjust="spacing" textLength="22" x="1051.5" y="448.6904">true</text><polygon fill="#181818" points="642.5,490.9688,632.5,494.9688,642.5,498.9688,638.5,494.9688" style="stroke:#181818;stroke-width:1.0;"/><line style="stroke:#181818;stroke-width:1.0;" x1="636.5" x2="1020.5" y1="494.9688" y2="494.9688"/><text fill="#000000" font-family="sans-serif" font-size="13" font-weight="bold" lengthAdjust="spacing" textLength="14" x="648.5" y="490.2139">14</text><text fill="#000000" font-family="sans-serif" font-size="13" lengthAdjust="spacing" textLength="22" x="666.5" y="490.2139">true</text><polygon fill="#181818" points="240.5,519.4922,230.5,523.4922,240.5,527.4922,236.5,523.4922" style="stroke:#181818;stroke-width:1.0;"/><line style="stroke:#181818;stroke-width:1.0;" x1="234.5" x2="625.5" y1="523.4922" y2="523.4922"/><text fill="#000000" font-family="sans-serif" font-size="13" font-weight="bold" lengthAdjust="spacing" textLength="14" x="246.5" y="518.7373">15</text><text fill="#000000" font-family="sans-serif" font-size="13" lengthAdjust="spacing" textLength="22" x="264.5" y="518.7373">true</text><polygon fill="#181818" points="41.5,548.0156,31.5,552.0156,41.5,556.0156,37.5,552.0156" style="stroke:#181818;stroke-width:1.0;"/><line style="stroke:#181818;stroke-width:1.0;" x1="35.5" x2="223.5" y1="552.0156" y2="552.0156"/><text fill="#000000" font-family="sans-serif" font-size="13" font-weight="bold" lengthAdjust="spacing" textLength="14" x="47.5" y="547.2607">16</text><text fill="#000000" font-family="sans-serif" font-size="13" lengthAdjust="spacing" textLength="142" x="65.5" y="547.2607">prints success message</text><!--SRC=[fLFBJiCm4BpxAomk50deFQfwuI4XWK1KV81nbc8fiOqV1VwUjUCsJk8692xHUkEPtHtFdhuxfssrNEg6IUVRvfAhTcdXmuFaS54BjZMi9OHvfwHlNy5Wp9qoz0cCLP8GpOmJN6Y4qvCDVuVQD_00u8JSljoTK6PfEBtSqTLA6x0W7ND2oVLw5dgbf3EgQS0SAFeKKZ6j6y7_mhG1inCS8at-A-KdN4EoH78RX_u-z9BE27xhed4JHt2Fdn9C2Jn4txHCD14K8xnPAmpaaIe7-jyknlB3PX1olOSCCU65XNN1245w-78HcQN3a_QdSSrdqCgAC5-kmYGxb04ZiMCEzluwd3iJ4TBbwSLwRwkAVeCbwP3IlLKgQjERrqc3nJtskzeuW_6QGj3NdjFhKAF6ppaLs7pjJVJ3sR21dfUC78c52-Rgg_-pU86Ra9ARam19sug-Uj7K2op0HgEa6oHtSm9ND06YfSQCRJS96IEBu-ylrr0iFZD1xnCKaUrWaQZEPkVEzsjc-FmQcUnbpZNGebkOOgasMx0YOwdf4QmNYHmTigYoCnxcLCdN8TxDdgFahActk_MQeWjBqMrXjwOLrUXqPwdrd8ErEA-rR1lc6v7WQcUPjFp72_q0]--></g></svg>