<?xml version="1.0" encoding="us-ascii" standalone="no"?><svg xmlns="http://www.w3.org/2000/svg" xmlns:xlink="http://www.w3.org/1999/xlink" contentStyleType="text/css" height="1019px" preserveAspectRatio="none" style="width:1851px;height:1019px;background:#FFFFFF;" version="1.1" viewBox="0 0 1851 1019" width="1851px" zoomAndPan="magnify"><defs/><g><!--class OpenCloseCourseUI--><g id="elem_OpenCloseCourseUI"><rect codeLine="4" fill="#F1F1F1" height="70.6875" id="OpenCloseCourseUI" rx="2.5" ry="2.5" style="stroke:#181818;stroke-width:0.5;" width="161" x="1182.5" y="7"/><ellipse cx="1197.5" cy="26.5234" fill="#ADD1B2" rx="11" ry="11" style="stroke:#181818;stroke-width:1.0;"/><path d="M1200.2656,22.3984 Q1200.4219,22.1797 1200.6094,22.0703 Q1200.7969,21.9609 1201.0156,21.9609 Q1201.3906,21.9609 1201.625,22.2266 Q1201.8594,22.4766 1201.8594,23.0859 L1201.8594,24.5391 Q1201.8594,25.1484 1201.625,25.4141 Q1201.3906,25.6797 1201.0156,25.6797 Q1200.6719,25.6797 1200.4688,25.4766 Q1200.2656,25.2891 1200.1563,24.7734 Q1200.1094,24.4141 1199.9219,24.2266 Q1199.5938,23.8516 1198.9844,23.6328 Q1198.375,23.4141 1197.75,23.4141 Q1196.9844,23.4141 1196.3438,23.7422 Q1195.7188,24.0703 1195.2188,24.8203 Q1194.7344,25.5703 1194.7344,26.6016 L1194.7344,27.6953 Q1194.7344,28.9297 1195.625,29.7578 Q1196.5156,30.5703 1198.1094,30.5703 Q1199.0469,30.5703 1199.7031,30.3203 Q1200.0938,30.1641 1200.5156,29.7266 Q1200.7813,29.4609 1200.9219,29.3828 Q1201.0781,29.3047 1201.2813,29.3047 Q1201.6094,29.3047 1201.8594,29.5703 Q1202.125,29.8203 1202.125,30.1641 Q1202.125,30.5078 1201.7813,30.9141 Q1201.2813,31.4922 1200.4844,31.8203 Q1199.4063,32.2734 1198.1094,32.2734 Q1196.5938,32.2734 1195.3906,31.6484 Q1194.4063,31.1484 1193.7188,30.0859 Q1193.0313,29.0078 1193.0313,27.7266 L1193.0313,26.5703 Q1193.0313,25.2422 1193.6406,24.1016 Q1194.2656,22.9453 1195.3594,22.3359 Q1196.4531,21.7109 1197.6875,21.7109 Q1198.4219,21.7109 1199.0625,21.8828 Q1199.7188,22.0391 1200.2656,22.3984 Z " fill="#000000"/><text fill="#000000" font-family="sans-serif" font-size="12" font-style="italic" lengthAdjust="spacing" textLength="83" x="1234.5" y="22.8633">&#171;Presentation&#187;</text><text fill="#000000" font-family="sans-serif" font-size="14" lengthAdjust="spacing" textLength="129" x="1211.5" y="38.0801">OpenCloseCourseUI</text><line style="stroke:#181818;stroke-width:0.5;" x1="1183.5" x2="1342.5" y1="46.0469" y2="46.0469"/><line style="stroke:#181818;stroke-width:0.5;" x1="1183.5" x2="1342.5" y1="54.0469" y2="54.0469"/><ellipse cx="1193.5" cy="67.3672" fill="#84BE84" rx="3" ry="3" style="stroke:#038048;stroke-width:1.0;"/><text fill="#000000" font-family="sans-serif" font-size="14" lengthAdjust="spacing" textLength="60" x="1202.5" y="70.7207">doShow()</text></g><!--class OpenCloseCourseController--><g id="elem_OpenCloseCourseController"><rect codeLine="7" fill="#F1F1F1" height="101.9688" id="OpenCloseCourseController" rx="2.5" ry="2.5" style="stroke:#181818;stroke-width:0.5;" width="558" x="984" y="138"/><ellipse cx="1169.25" cy="157.5234" fill="#ADD1B2" rx="11" ry="11" style="stroke:#181818;stroke-width:1.0;"/><path d="M1172.0156,153.3984 Q1172.1719,153.1797 1172.3594,153.0703 Q1172.5469,152.9609 1172.7656,152.9609 Q1173.1406,152.9609 1173.375,153.2266 Q1173.6094,153.4766 1173.6094,154.0859 L1173.6094,155.5391 Q1173.6094,156.1484 1173.375,156.4141 Q1173.1406,156.6797 1172.7656,156.6797 Q1172.4219,156.6797 1172.2188,156.4766 Q1172.0156,156.2891 1171.9063,155.7734 Q1171.8594,155.4141 1171.6719,155.2266 Q1171.3438,154.8516 1170.7344,154.6328 Q1170.125,154.4141 1169.5,154.4141 Q1168.7344,154.4141 1168.0938,154.7422 Q1167.4688,155.0703 1166.9688,155.8203 Q1166.4844,156.5703 1166.4844,157.6016 L1166.4844,158.6953 Q1166.4844,159.9297 1167.375,160.7578 Q1168.2656,161.5703 1169.8594,161.5703 Q1170.7969,161.5703 1171.4531,161.3203 Q1171.8438,161.1641 1172.2656,160.7266 Q1172.5313,160.4609 1172.6719,160.3828 Q1172.8281,160.3047 1173.0313,160.3047 Q1173.3594,160.3047 1173.6094,160.5703 Q1173.875,160.8203 1173.875,161.1641 Q1173.875,161.5078 1173.5313,161.9141 Q1173.0313,162.4922 1172.2344,162.8203 Q1171.1563,163.2734 1169.8594,163.2734 Q1168.3438,163.2734 1167.1406,162.6484 Q1166.1563,162.1484 1165.4688,161.0859 Q1164.7813,160.0078 1164.7813,158.7266 L1164.7813,157.5703 Q1164.7813,156.2422 1165.3906,155.1016 Q1166.0156,153.9453 1167.1094,153.3359 Q1168.2031,152.7109 1169.4375,152.7109 Q1170.1719,152.7109 1170.8125,152.8828 Q1171.4688,153.0391 1172.0156,153.3984 Z " fill="#000000"/><text fill="#000000" font-family="sans-serif" font-size="12" font-style="italic" lengthAdjust="spacing" textLength="68" x="1245.25" y="153.8633">&#171;Controller&#187;</text><text fill="#000000" font-family="sans-serif" font-size="14" lengthAdjust="spacing" textLength="179" x="1189.75" y="169.0801">OpenCloseCourseController</text><line style="stroke:#181818;stroke-width:0.5;" x1="985" x2="1541" y1="177.0469" y2="177.0469"/><rect fill="none" height="6" style="stroke:#C82930;stroke-width:1.0;" width="6" x="992" y="187.3672"/><text fill="#000000" font-family="sans-serif" font-size="14" lengthAdjust="spacing" textLength="161" x="1004" y="193.7207">openCloseCourseService</text><line style="stroke:#181818;stroke-width:0.5;" x1="985" x2="1541" y1="200.6875" y2="200.6875"/><ellipse cx="995" cy="214.0078" fill="#84BE84" rx="3" ry="3" style="stroke:#038048;stroke-width:1.0;"/><text fill="#000000" font-family="sans-serif" font-size="14" lengthAdjust="spacing" textLength="197" x="1004" y="217.3613">listOpenableClosableCourses()</text><ellipse cx="995" cy="229.6484" fill="#84BE84" rx="3" ry="3" style="stroke:#038048;stroke-width:1.0;"/><text fill="#000000" font-family="sans-serif" font-size="14" lengthAdjust="spacing" textLength="532" x="1004" y="233.002">changeCourseStatus(courseDTO : CourseDTOWithIdTitleStatus, newStatus : String)</text></g><!--class OpenCloseCourseService--><g id="elem_OpenCloseCourseService"><rect codeLine="13" fill="#F1F1F1" height="101.9688" id="OpenCloseCourseService" rx="2.5" ry="2.5" style="stroke:#181818;stroke-width:0.5;" width="558" x="984" y="300"/><ellipse cx="1176.75" cy="319.5234" fill="#ADD1B2" rx="11" ry="11" style="stroke:#181818;stroke-width:1.0;"/><path d="M1179.5156,315.3984 Q1179.6719,315.1797 1179.8594,315.0703 Q1180.0469,314.9609 1180.2656,314.9609 Q1180.6406,314.9609 1180.875,315.2266 Q1181.1094,315.4766 1181.1094,316.0859 L1181.1094,317.5391 Q1181.1094,318.1484 1180.875,318.4141 Q1180.6406,318.6797 1180.2656,318.6797 Q1179.9219,318.6797 1179.7188,318.4766 Q1179.5156,318.2891 1179.4063,317.7734 Q1179.3594,317.4141 1179.1719,317.2266 Q1178.8438,316.8516 1178.2344,316.6328 Q1177.625,316.4141 1177,316.4141 Q1176.2344,316.4141 1175.5938,316.7422 Q1174.9688,317.0703 1174.4688,317.8203 Q1173.9844,318.5703 1173.9844,319.6016 L1173.9844,320.6953 Q1173.9844,321.9297 1174.875,322.7578 Q1175.7656,323.5703 1177.3594,323.5703 Q1178.2969,323.5703 1178.9531,323.3203 Q1179.3438,323.1641 1179.7656,322.7266 Q1180.0313,322.4609 1180.1719,322.3828 Q1180.3281,322.3047 1180.5313,322.3047 Q1180.8594,322.3047 1181.1094,322.5703 Q1181.375,322.8203 1181.375,323.1641 Q1181.375,323.5078 1181.0313,323.9141 Q1180.5313,324.4922 1179.7344,324.8203 Q1178.6563,325.2734 1177.3594,325.2734 Q1175.8438,325.2734 1174.6406,324.6484 Q1173.6563,324.1484 1172.9688,323.0859 Q1172.2813,322.0078 1172.2813,320.7266 L1172.2813,319.5703 Q1172.2813,318.2422 1172.8906,317.1016 Q1173.5156,315.9453 1174.6094,315.3359 Q1175.7031,314.7109 1176.9375,314.7109 Q1177.6719,314.7109 1178.3125,314.8828 Q1178.9688,315.0391 1179.5156,315.3984 Z " fill="#000000"/><text fill="#000000" font-family="sans-serif" font-size="12" font-style="italic" lengthAdjust="spacing" textLength="55" x="1251.75" y="315.8633">&#171;Service&#187;</text><text fill="#000000" font-family="sans-serif" font-size="14" lengthAdjust="spacing" textLength="164" x="1197.25" y="331.0801">OpenCloseCourseService</text><line style="stroke:#181818;stroke-width:0.5;" x1="985" x2="1541" y1="339.0469" y2="339.0469"/><rect fill="none" height="6" style="stroke:#C82930;stroke-width:1.0;" width="6" x="992" y="349.3672"/><text fill="#000000" font-family="sans-serif" font-size="14" lengthAdjust="spacing" textLength="237" x="1004" y="355.7207">courseRepository : CourseRepository</text><line style="stroke:#181818;stroke-width:0.5;" x1="985" x2="1541" y1="362.6875" y2="362.6875"/><ellipse cx="995" cy="376.0078" fill="#84BE84" rx="3" ry="3" style="stroke:#038048;stroke-width:1.0;"/><text fill="#000000" font-family="sans-serif" font-size="14" lengthAdjust="spacing" textLength="197" x="1004" y="379.3613">listOpenableClosableCourses()</text><ellipse cx="995" cy="391.6484" fill="#84BE84" rx="3" ry="3" style="stroke:#038048;stroke-width:1.0;"/><text fill="#000000" font-family="sans-serif" font-size="14" lengthAdjust="spacing" textLength="532" x="1004" y="395.002">changeCourseStatus(courseDTO : CourseDTOWithIdTitleStatus, newStatus : String)</text></g><!--class PersistenceContext--><g id="elem_PersistenceContext"><rect codeLine="18" fill="#F1F1F1" height="70.6875" id="PersistenceContext" rx="2.5" ry="2.5" style="stroke:#181818;stroke-width:0.5;" width="154" x="1065" y="532"/><ellipse cx="1080" cy="551.5234" fill="#ADD1B2" rx="11" ry="11" style="stroke:#181818;stroke-width:1.0;"/><path d="M1082.7656,547.3984 Q1082.9219,547.1797 1083.1094,547.0703 Q1083.2969,546.9609 1083.5156,546.9609 Q1083.8906,546.9609 1084.125,547.2266 Q1084.3594,547.4766 1084.3594,548.0859 L1084.3594,549.5391 Q1084.3594,550.1484 1084.125,550.4141 Q1083.8906,550.6797 1083.5156,550.6797 Q1083.1719,550.6797 1082.9688,550.4766 Q1082.7656,550.2891 1082.6563,549.7734 Q1082.6094,549.4141 1082.4219,549.2266 Q1082.0938,548.8516 1081.4844,548.6328 Q1080.875,548.4141 1080.25,548.4141 Q1079.4844,548.4141 1078.8438,548.7422 Q1078.2188,549.0703 1077.7188,549.8203 Q1077.2344,550.5703 1077.2344,551.6016 L1077.2344,552.6953 Q1077.2344,553.9297 1078.125,554.7578 Q1079.0156,555.5703 1080.6094,555.5703 Q1081.5469,555.5703 1082.2031,555.3203 Q1082.5938,555.1641 1083.0156,554.7266 Q1083.2813,554.4609 1083.4219,554.3828 Q1083.5781,554.3047 1083.7813,554.3047 Q1084.1094,554.3047 1084.3594,554.5703 Q1084.625,554.8203 1084.625,555.1641 Q1084.625,555.5078 1084.2813,555.9141 Q1083.7813,556.4922 1082.9844,556.8203 Q1081.9063,557.2734 1080.6094,557.2734 Q1079.0938,557.2734 1077.8906,556.6484 Q1076.9063,556.1484 1076.2188,555.0859 Q1075.5313,554.0078 1075.5313,552.7266 L1075.5313,551.5703 Q1075.5313,550.2422 1076.1406,549.1016 Q1076.7656,547.9453 1077.8594,547.3359 Q1078.9531,546.7109 1080.1875,546.7109 Q1080.9219,546.7109 1081.5625,546.8828 Q1082.2188,547.0391 1082.7656,547.3984 Z " fill="#000000"/><text fill="#000000" font-family="sans-serif" font-size="12" font-style="italic" lengthAdjust="spacing" textLength="77" x="1116.5" y="547.8633">&#171;persistence&#187;</text><text fill="#000000" font-family="sans-serif" font-size="14" lengthAdjust="spacing" textLength="122" x="1094" y="563.0801">PersistenceContext</text><line style="stroke:#181818;stroke-width:0.5;" x1="1066" x2="1218" y1="571.0469" y2="571.0469"/><line style="stroke:#181818;stroke-width:0.5;" x1="1066" x2="1218" y1="579.0469" y2="579.0469"/><ellipse cx="1076" cy="592.3672" fill="#84BE84" rx="3" ry="3" style="stroke:#038048;stroke-width:1.0;"/><text fill="#000000" font-family="sans-serif" font-size="14" lengthAdjust="spacing" textLength="84" x="1085" y="595.7207">repositories()</text></g><!--class RepositoryFactory--><g id="elem_RepositoryFactory"><rect codeLine="21" fill="#F1F1F1" height="70.6875" id="RepositoryFactory" rx="2.5" ry="2.5" style="stroke:#181818;stroke-width:0.5;" width="148" x="1068" y="756.5"/><ellipse cx="1083" cy="776.0234" fill="#B4A7E5" rx="11" ry="11" style="stroke:#181818;stroke-width:1.0;"/><path d="M1083.9531,772.6641 L1083.9531,779.3203 L1085.6719,779.3203 Q1086.2813,779.3203 1086.5469,779.5547 Q1086.8125,779.7891 1086.8125,780.1797 Q1086.8125,780.5547 1086.5469,780.7891 Q1086.2813,781.0234 1085.6719,781.0234 L1080.5313,781.0234 Q1079.9219,781.0234 1079.6563,780.7891 Q1079.3906,780.5547 1079.3906,780.1641 Q1079.3906,779.7891 1079.6563,779.5547 Q1079.9219,779.3203 1080.5313,779.3203 L1082.25,779.3203 L1082.25,772.6641 L1080.5313,772.6641 Q1079.9219,772.6641 1079.6563,772.4297 Q1079.3906,772.1953 1079.3906,771.8047 Q1079.3906,771.4297 1079.6563,771.1953 Q1079.9219,770.9609 1080.5313,770.9609 L1085.6719,770.9609 Q1086.2813,770.9609 1086.5469,771.1953 Q1086.8125,771.4297 1086.8125,771.8047 Q1086.8125,772.1953 1086.5469,772.4297 Q1086.2813,772.6641 1085.6719,772.6641 L1083.9531,772.6641 Z " fill="#000000"/><text fill="#000000" font-family="sans-serif" font-size="12" font-style="italic" lengthAdjust="spacing" textLength="50" x="1130" y="772.3633">&#171;factory&#187;</text><text fill="#000000" font-family="sans-serif" font-size="14" font-style="italic" lengthAdjust="spacing" textLength="116" x="1097" y="787.5801">RepositoryFactory</text><line style="stroke:#181818;stroke-width:0.5;" x1="1069" x2="1215" y1="795.5469" y2="795.5469"/><line style="stroke:#181818;stroke-width:0.5;" x1="1069" x2="1215" y1="803.5469" y2="803.5469"/><ellipse cx="1079" cy="816.8672" fill="#84BE84" rx="3" ry="3" style="stroke:#038048;stroke-width:1.0;"/><text fill="#000000" font-family="sans-serif" font-size="14" lengthAdjust="spacing" textLength="121" x="1088" y="820.2207">courseRepository()</text></g><!--class CourseRepository--><g id="elem_CourseRepository"><rect codeLine="24" fill="#F1F1F1" height="86.3281" id="CourseRepository" rx="2.5" ry="2.5" style="stroke:#181818;stroke-width:0.5;" width="259" x="1254.5" y="524.5"/><ellipse cx="1322.75" cy="544.0234" fill="#ADD1B2" rx="11" ry="11" style="stroke:#181818;stroke-width:1.0;"/><path d="M1325.5156,539.8984 Q1325.6719,539.6797 1325.8594,539.5703 Q1326.0469,539.4609 1326.2656,539.4609 Q1326.6406,539.4609 1326.875,539.7266 Q1327.1094,539.9766 1327.1094,540.5859 L1327.1094,542.0391 Q1327.1094,542.6484 1326.875,542.9141 Q1326.6406,543.1797 1326.2656,543.1797 Q1325.9219,543.1797 1325.7188,542.9766 Q1325.5156,542.7891 1325.4063,542.2734 Q1325.3594,541.9141 1325.1719,541.7266 Q1324.8438,541.3516 1324.2344,541.1328 Q1323.625,540.9141 1323,540.9141 Q1322.2344,540.9141 1321.5938,541.2422 Q1320.9688,541.5703 1320.4688,542.3203 Q1319.9844,543.0703 1319.9844,544.1016 L1319.9844,545.1953 Q1319.9844,546.4297 1320.875,547.2578 Q1321.7656,548.0703 1323.3594,548.0703 Q1324.2969,548.0703 1324.9531,547.8203 Q1325.3438,547.6641 1325.7656,547.2266 Q1326.0313,546.9609 1326.1719,546.8828 Q1326.3281,546.8047 1326.5313,546.8047 Q1326.8594,546.8047 1327.1094,547.0703 Q1327.375,547.3203 1327.375,547.6641 Q1327.375,548.0078 1327.0313,548.4141 Q1326.5313,548.9922 1325.7344,549.3203 Q1324.6563,549.7734 1323.3594,549.7734 Q1321.8438,549.7734 1320.6406,549.1484 Q1319.6563,548.6484 1318.9688,547.5859 Q1318.2813,546.5078 1318.2813,545.2266 L1318.2813,544.0703 Q1318.2813,542.7422 1318.8906,541.6016 Q1319.5156,540.4453 1320.6094,539.8359 Q1321.7031,539.2109 1322.9375,539.2109 Q1323.6719,539.2109 1324.3125,539.3828 Q1324.9688,539.5391 1325.5156,539.8984 Z " fill="#000000"/><text fill="#000000" font-family="sans-serif" font-size="12" font-style="italic" lengthAdjust="spacing" textLength="68" x="1366.25" y="540.3633">&#171;repository&#187;</text><text fill="#000000" font-family="sans-serif" font-size="14" lengthAdjust="spacing" textLength="114" x="1343.25" y="555.5801">CourseRepository</text><line style="stroke:#181818;stroke-width:0.5;" x1="1255.5" x2="1512.5" y1="563.5469" y2="563.5469"/><line style="stroke:#181818;stroke-width:0.5;" x1="1255.5" x2="1512.5" y1="571.5469" y2="571.5469"/><ellipse cx="1265.5" cy="584.8672" fill="#84BE84" rx="3" ry="3" style="stroke:#038048;stroke-width:1.0;"/><text fill="#000000" font-family="sans-serif" font-size="14" lengthAdjust="spacing" textLength="197" x="1274.5" y="588.2207">listOpenableClosableCourses()</text><ellipse cx="1265.5" cy="600.5078" fill="#84BE84" rx="3" ry="3" style="stroke:#038048;stroke-width:1.0;"/><text fill="#000000" font-family="sans-serif" font-size="14" lengthAdjust="spacing" textLength="233" x="1274.5" y="603.8613">ofIdentity(courseId : CourseIdentifier)</text></g><!--class Course--><g id="elem_Course"><rect codeLine="28" fill="#F1F1F1" height="211.4531" id="Course" rx="2.5" ry="2.5" style="stroke:#181818;stroke-width:0.5;" width="243" x="226.5" y="462"/><ellipse cx="316.75" cy="481.5234" fill="#ADD1B2" rx="11" ry="11" style="stroke:#181818;stroke-width:1.0;"/><path d="M319.5156,477.3984 Q319.6719,477.1797 319.8594,477.0703 Q320.0469,476.9609 320.2656,476.9609 Q320.6406,476.9609 320.875,477.2266 Q321.1094,477.4766 321.1094,478.0859 L321.1094,479.5391 Q321.1094,480.1484 320.875,480.4141 Q320.6406,480.6797 320.2656,480.6797 Q319.9219,480.6797 319.7188,480.4766 Q319.5156,480.2891 319.4063,479.7734 Q319.3594,479.4141 319.1719,479.2266 Q318.8438,478.8516 318.2344,478.6328 Q317.625,478.4141 317,478.4141 Q316.2344,478.4141 315.5938,478.7422 Q314.9688,479.0703 314.4688,479.8203 Q313.9844,480.5703 313.9844,481.6016 L313.9844,482.6953 Q313.9844,483.9297 314.875,484.7578 Q315.7656,485.5703 317.3594,485.5703 Q318.2969,485.5703 318.9531,485.3203 Q319.3438,485.1641 319.7656,484.7266 Q320.0313,484.4609 320.1719,484.3828 Q320.3281,484.3047 320.5313,484.3047 Q320.8594,484.3047 321.1094,484.5703 Q321.375,484.8203 321.375,485.1641 Q321.375,485.5078 321.0313,485.9141 Q320.5313,486.4922 319.7344,486.8203 Q318.6563,487.2734 317.3594,487.2734 Q315.8438,487.2734 314.6406,486.6484 Q313.6563,486.1484 312.9688,485.0859 Q312.2813,484.0078 312.2813,482.7266 L312.2813,481.5703 Q312.2813,480.2422 312.8906,479.1016 Q313.5156,477.9453 314.6094,477.3359 Q315.7031,476.7109 316.9375,476.7109 Q317.6719,476.7109 318.3125,476.8828 Q318.9688,477.0391 319.5156,477.3984 Z " fill="#000000"/><text fill="#000000" font-family="sans-serif" font-size="12" font-style="italic" lengthAdjust="spacing" textLength="58" x="335.25" y="477.8633">&#171;Domain&#187;</text><text fill="#000000" font-family="sans-serif" font-size="14" lengthAdjust="spacing" textLength="46" x="341.25" y="493.0801">Course</text><line style="stroke:#181818;stroke-width:0.5;" x1="227.5" x2="468.5" y1="501.0469" y2="501.0469"/><rect fill="none" height="6" style="stroke:#C82930;stroke-width:1.0;" width="6" x="234.5" y="511.3672"/><text fill="#000000" font-family="sans-serif" font-size="14" lengthAdjust="spacing" textLength="123" x="246.5" y="517.7207">id : CourseIdentifier</text><rect fill="none" height="6" style="stroke:#C82930;stroke-width:1.0;" width="6" x="234.5" y="527.0078"/><text fill="#000000" font-family="sans-serif" font-size="14" lengthAdjust="spacing" textLength="155" x="246.5" y="533.3613">courseTitle : CourseTitle</text><rect fill="none" height="6" style="stroke:#C82930;stroke-width:1.0;" width="6" x="234.5" y="542.6484"/><text fill="#000000" font-family="sans-serif" font-size="14" lengthAdjust="spacing" textLength="173" x="246.5" y="549.002">courseName : CourseName</text><rect fill="none" height="6" style="stroke:#C82930;stroke-width:1.0;" width="6" x="234.5" y="558.2891"/><text fill="#000000" font-family="sans-serif" font-size="14" lengthAdjust="spacing" textLength="217" x="246.5" y="564.6426">enrollmentLimits : EnrollmentLimits</text><rect fill="none" height="6" style="stroke:#C82930;stroke-width:1.0;" width="6" x="234.5" y="573.9297"/><text fill="#000000" font-family="sans-serif" font-size="14" lengthAdjust="spacing" textLength="181" x="246.5" y="580.2832">courseStatus : CourseStatus</text><rect fill="none" height="6" style="stroke:#C82930;stroke-width:1.0;" width="6" x="234.5" y="589.5703"/><text fill="#000000" font-family="sans-serif" font-size="14" lengthAdjust="spacing" textLength="152" x="246.5" y="595.9238">description : Description</text><line style="stroke:#181818;stroke-width:0.5;" x1="227.5" x2="468.5" y1="602.8906" y2="602.8906"/><ellipse cx="237.5" cy="616.2109" fill="#84BE84" rx="3" ry="3" style="stroke:#038048;stroke-width:1.0;"/><text fill="#000000" font-family="sans-serif" font-size="14" lengthAdjust="spacing" textLength="211" x="246.5" y="619.5645">changeStatus(newStatus : String)</text><ellipse cx="237.5" cy="631.8516" fill="#84BE84" rx="3" ry="3" style="stroke:#038048;stroke-width:1.0;"/><text fill="#000000" font-family="sans-serif" font-size="14" lengthAdjust="spacing" textLength="158" x="246.5" y="635.2051">returnCourseTitleString()</text><ellipse cx="237.5" cy="647.4922" fill="#84BE84" rx="3" ry="3" style="stroke:#038048;stroke-width:1.0;"/><text fill="#000000" font-family="sans-serif" font-size="14" lengthAdjust="spacing" textLength="185" x="246.5" y="650.8457">returnCourseIdentifierString()</text><ellipse cx="237.5" cy="663.1328" fill="#84BE84" rx="3" ry="3" style="stroke:#038048;stroke-width:1.0;"/><text fill="#000000" font-family="sans-serif" font-size="14" lengthAdjust="spacing" textLength="171" x="246.5" y="666.4863">returnCourseStatusString()</text></g><!--class CourseTitle--><g id="elem_CourseTitle"><rect codeLine="40" fill="#F1F1F1" height="86.3281" id="CourseTitle" rx="2.5" ry="2.5" style="stroke:#181818;stroke-width:0.5;" width="184" x="7" y="524.5"/><ellipse cx="58.25" cy="544.0234" fill="#ADD1B2" rx="11" ry="11" style="stroke:#181818;stroke-width:1.0;"/><path d="M61.0156,539.8984 Q61.1719,539.6797 61.3594,539.5703 Q61.5469,539.4609 61.7656,539.4609 Q62.1406,539.4609 62.375,539.7266 Q62.6094,539.9766 62.6094,540.5859 L62.6094,542.0391 Q62.6094,542.6484 62.375,542.9141 Q62.1406,543.1797 61.7656,543.1797 Q61.4219,543.1797 61.2188,542.9766 Q61.0156,542.7891 60.9063,542.2734 Q60.8594,541.9141 60.6719,541.7266 Q60.3438,541.3516 59.7344,541.1328 Q59.125,540.9141 58.5,540.9141 Q57.7344,540.9141 57.0938,541.2422 Q56.4688,541.5703 55.9688,542.3203 Q55.4844,543.0703 55.4844,544.1016 L55.4844,545.1953 Q55.4844,546.4297 56.375,547.2578 Q57.2656,548.0703 58.8594,548.0703 Q59.7969,548.0703 60.4531,547.8203 Q60.8438,547.6641 61.2656,547.2266 Q61.5313,546.9609 61.6719,546.8828 Q61.8281,546.8047 62.0313,546.8047 Q62.3594,546.8047 62.6094,547.0703 Q62.875,547.3203 62.875,547.6641 Q62.875,548.0078 62.5313,548.4141 Q62.0313,548.9922 61.2344,549.3203 Q60.1563,549.7734 58.8594,549.7734 Q57.3438,549.7734 56.1406,549.1484 Q55.1563,548.6484 54.4688,547.5859 Q53.7813,546.5078 53.7813,545.2266 L53.7813,544.0703 Q53.7813,542.7422 54.3906,541.6016 Q55.0156,540.4453 56.1094,539.8359 Q57.2031,539.2109 58.4375,539.2109 Q59.1719,539.2109 59.8125,539.3828 Q60.4688,539.5391 61.0156,539.8984 Z " fill="#000000"/><text fill="#000000" font-family="sans-serif" font-size="12" font-style="italic" lengthAdjust="spacing" textLength="58" x="86.25" y="540.3633">&#171;Domain&#187;</text><text fill="#000000" font-family="sans-serif" font-size="14" lengthAdjust="spacing" textLength="73" x="78.75" y="555.5801">CourseTitle</text><line style="stroke:#181818;stroke-width:0.5;" x1="8" x2="190" y1="563.5469" y2="563.5469"/><rect fill="none" height="6" style="stroke:#C82930;stroke-width:1.0;" width="6" x="15" y="573.8672"/><text fill="#000000" font-family="sans-serif" font-size="14" lengthAdjust="spacing" textLength="122" x="27" y="580.2207">course_title : String</text><line style="stroke:#181818;stroke-width:0.5;" x1="8" x2="190" y1="587.1875" y2="587.1875"/><ellipse cx="18" cy="600.5078" fill="#84BE84" rx="3" ry="3" style="stroke:#038048;stroke-width:1.0;"/><text fill="#000000" font-family="sans-serif" font-size="14" lengthAdjust="spacing" textLength="158" x="27" y="603.8613">returnCourseTitleString()</text></g><!--class CourseIdentifier--><g id="elem_CourseIdentifier"><rect codeLine="45" fill="#F1F1F1" height="86.3281" id="CourseIdentifier" rx="2.5" ry="2.5" style="stroke:#181818;stroke-width:0.5;" width="211" x="818.5" y="524.5"/><ellipse cx="869.75" cy="544.0234" fill="#ADD1B2" rx="11" ry="11" style="stroke:#181818;stroke-width:1.0;"/><path d="M872.5156,539.8984 Q872.6719,539.6797 872.8594,539.5703 Q873.0469,539.4609 873.2656,539.4609 Q873.6406,539.4609 873.875,539.7266 Q874.1094,539.9766 874.1094,540.5859 L874.1094,542.0391 Q874.1094,542.6484 873.875,542.9141 Q873.6406,543.1797 873.2656,543.1797 Q872.9219,543.1797 872.7188,542.9766 Q872.5156,542.7891 872.4063,542.2734 Q872.3594,541.9141 872.1719,541.7266 Q871.8438,541.3516 871.2344,541.1328 Q870.625,540.9141 870,540.9141 Q869.2344,540.9141 868.5938,541.2422 Q867.9688,541.5703 867.4688,542.3203 Q866.9844,543.0703 866.9844,544.1016 L866.9844,545.1953 Q866.9844,546.4297 867.875,547.2578 Q868.7656,548.0703 870.3594,548.0703 Q871.2969,548.0703 871.9531,547.8203 Q872.3438,547.6641 872.7656,547.2266 Q873.0313,546.9609 873.1719,546.8828 Q873.3281,546.8047 873.5313,546.8047 Q873.8594,546.8047 874.1094,547.0703 Q874.375,547.3203 874.375,547.6641 Q874.375,548.0078 874.0313,548.4141 Q873.5313,548.9922 872.7344,549.3203 Q871.6563,549.7734 870.3594,549.7734 Q868.8438,549.7734 867.6406,549.1484 Q866.6563,548.6484 865.9688,547.5859 Q865.2813,546.5078 865.2813,545.2266 L865.2813,544.0703 Q865.2813,542.7422 865.8906,541.6016 Q866.5156,540.4453 867.6094,539.8359 Q868.7031,539.2109 869.9375,539.2109 Q870.6719,539.2109 871.3125,539.3828 Q871.9688,539.5391 872.5156,539.8984 Z " fill="#000000"/><text fill="#000000" font-family="sans-serif" font-size="12" font-style="italic" lengthAdjust="spacing" textLength="58" x="911.25" y="540.3633">&#171;Domain&#187;</text><text fill="#000000" font-family="sans-serif" font-size="14" lengthAdjust="spacing" textLength="100" x="890.25" y="555.5801">CourseIdentifier</text><line style="stroke:#181818;stroke-width:0.5;" x1="819.5" x2="1028.5" y1="563.5469" y2="563.5469"/><rect fill="none" height="6" style="stroke:#C82930;stroke-width:1.0;" width="6" x="826.5" y="573.8672"/><text fill="#000000" font-family="sans-serif" font-size="14" lengthAdjust="spacing" textLength="111" x="838.5" y="580.2207">course_id : String</text><line style="stroke:#181818;stroke-width:0.5;" x1="819.5" x2="1028.5" y1="587.1875" y2="587.1875"/><ellipse cx="829.5" cy="600.5078" fill="#84BE84" rx="3" ry="3" style="stroke:#038048;stroke-width:1.0;"/><text fill="#000000" font-family="sans-serif" font-size="14" lengthAdjust="spacing" textLength="185" x="838.5" y="603.8613">returnCourseIdentifierString()</text></g><!--class CourseStatus--><g id="elem_CourseStatus"><rect codeLine="50" fill="#F1F1F1" height="86.3281" id="CourseStatus" rx="2.5" ry="2.5" style="stroke:#181818;stroke-width:0.5;" width="279" x="504.5" y="524.5"/><ellipse cx="596.75" cy="544.0234" fill="#ADD1B2" rx="11" ry="11" style="stroke:#181818;stroke-width:1.0;"/><path d="M599.5156,539.8984 Q599.6719,539.6797 599.8594,539.5703 Q600.0469,539.4609 600.2656,539.4609 Q600.6406,539.4609 600.875,539.7266 Q601.1094,539.9766 601.1094,540.5859 L601.1094,542.0391 Q601.1094,542.6484 600.875,542.9141 Q600.6406,543.1797 600.2656,543.1797 Q599.9219,543.1797 599.7188,542.9766 Q599.5156,542.7891 599.4063,542.2734 Q599.3594,541.9141 599.1719,541.7266 Q598.8438,541.3516 598.2344,541.1328 Q597.625,540.9141 597,540.9141 Q596.2344,540.9141 595.5938,541.2422 Q594.9688,541.5703 594.4688,542.3203 Q593.9844,543.0703 593.9844,544.1016 L593.9844,545.1953 Q593.9844,546.4297 594.875,547.2578 Q595.7656,548.0703 597.3594,548.0703 Q598.2969,548.0703 598.9531,547.8203 Q599.3438,547.6641 599.7656,547.2266 Q600.0313,546.9609 600.1719,546.8828 Q600.3281,546.8047 600.5313,546.8047 Q600.8594,546.8047 601.1094,547.0703 Q601.375,547.3203 601.375,547.6641 Q601.375,548.0078 601.0313,548.4141 Q600.5313,548.9922 599.7344,549.3203 Q598.6563,549.7734 597.3594,549.7734 Q595.8438,549.7734 594.6406,549.1484 Q593.6563,548.6484 592.9688,547.5859 Q592.2813,546.5078 592.2813,545.2266 L592.2813,544.0703 Q592.2813,542.7422 592.8906,541.6016 Q593.5156,540.4453 594.6094,539.8359 Q595.7031,539.2109 596.9375,539.2109 Q597.6719,539.2109 598.3125,539.3828 Q598.9688,539.5391 599.5156,539.8984 Z " fill="#000000"/><text fill="#000000" font-family="sans-serif" font-size="12" font-style="italic" lengthAdjust="spacing" textLength="58" x="631.25" y="540.3633">&#171;Domain&#187;</text><text fill="#000000" font-family="sans-serif" font-size="14" lengthAdjust="spacing" textLength="86" x="617.25" y="555.5801">CourseStatus</text><line style="stroke:#181818;stroke-width:0.5;" x1="505.5" x2="782.5" y1="563.5469" y2="563.5469"/><rect fill="none" height="6" style="stroke:#C82930;stroke-width:1.0;" width="6" x="512.5" y="573.8672"/><text fill="#000000" font-family="sans-serif" font-size="14" lengthAdjust="spacing" textLength="253" x="524.5" y="580.2207">courseStatusValue : CourseStatusValue</text><line style="stroke:#181818;stroke-width:0.5;" x1="505.5" x2="782.5" y1="587.1875" y2="587.1875"/><ellipse cx="515.5" cy="600.5078" fill="#84BE84" rx="3" ry="3" style="stroke:#038048;stroke-width:1.0;"/><text fill="#000000" font-family="sans-serif" font-size="14" lengthAdjust="spacing" textLength="171" x="524.5" y="603.8613">returnCourseStatusString()</text></g><!--class CourseDTOWithIdTitleStatus--><g id="elem_CourseDTOWithIdTitleStatus"><rect codeLine="54" fill="#F1F1F1" height="101.9688" id="CourseDTOWithIdTitleStatus" rx="2.5" ry="2.5" style="stroke:#181818;stroke-width:0.5;" width="214" x="1584" y="911"/><ellipse cx="1599" cy="930.5234" fill="#ADD1B2" rx="11" ry="11" style="stroke:#181818;stroke-width:1.0;"/><path d="M1601.7656,926.3984 Q1601.9219,926.1797 1602.1094,926.0703 Q1602.2969,925.9609 1602.5156,925.9609 Q1602.8906,925.9609 1603.125,926.2266 Q1603.3594,926.4766 1603.3594,927.0859 L1603.3594,928.5391 Q1603.3594,929.1484 1603.125,929.4141 Q1602.8906,929.6797 1602.5156,929.6797 Q1602.1719,929.6797 1601.9688,929.4766 Q1601.7656,929.2891 1601.6563,928.7734 Q1601.6094,928.4141 1601.4219,928.2266 Q1601.0938,927.8516 1600.4844,927.6328 Q1599.875,927.4141 1599.25,927.4141 Q1598.4844,927.4141 1597.8438,927.7422 Q1597.2188,928.0703 1596.7188,928.8203 Q1596.2344,929.5703 1596.2344,930.6016 L1596.2344,931.6953 Q1596.2344,932.9297 1597.125,933.7578 Q1598.0156,934.5703 1599.6094,934.5703 Q1600.5469,934.5703 1601.2031,934.3203 Q1601.5938,934.1641 1602.0156,933.7266 Q1602.2813,933.4609 1602.4219,933.3828 Q1602.5781,933.3047 1602.7813,933.3047 Q1603.1094,933.3047 1603.3594,933.5703 Q1603.625,933.8203 1603.625,934.1641 Q1603.625,934.5078 1603.2813,934.9141 Q1602.7813,935.4922 1601.9844,935.8203 Q1600.9063,936.2734 1599.6094,936.2734 Q1598.0938,936.2734 1596.8906,935.6484 Q1595.9063,935.1484 1595.2188,934.0859 Q1594.5313,933.0078 1594.5313,931.7266 L1594.5313,930.5703 Q1594.5313,929.2422 1595.1406,928.1016 Q1595.7656,926.9453 1596.8594,926.3359 Q1597.9531,925.7109 1599.1875,925.7109 Q1599.9219,925.7109 1600.5625,925.8828 Q1601.2188,926.0391 1601.7656,926.3984 Z " fill="#000000"/><text fill="#000000" font-family="sans-serif" font-size="12" font-style="italic" lengthAdjust="spacing" textLength="39" x="1684.5" y="926.8633">&#171;DTO&#187;</text><text fill="#000000" font-family="sans-serif" font-size="14" lengthAdjust="spacing" textLength="182" x="1613" y="942.0801">CourseDTOWithIdTitleStatus</text><line style="stroke:#181818;stroke-width:0.5;" x1="1585" x2="1797" y1="950.0469" y2="950.0469"/><ellipse cx="1595" cy="963.3672" fill="none" rx="3" ry="3" style="stroke:#038048;stroke-width:1.0;"/><text fill="#000000" font-family="sans-serif" font-size="14" lengthAdjust="spacing" textLength="146" x="1604" y="966.7207">courseIdentifier : String</text><ellipse cx="1595" cy="979.0078" fill="none" rx="3" ry="3" style="stroke:#038048;stroke-width:1.0;"/><text fill="#000000" font-family="sans-serif" font-size="14" lengthAdjust="spacing" textLength="122" x="1604" y="982.3613">CourseTitle : String</text><ellipse cx="1595" cy="994.6484" fill="none" rx="3" ry="3" style="stroke:#038048;stroke-width:1.0;"/><text fill="#000000" font-family="sans-serif" font-size="14" lengthAdjust="spacing" textLength="80" x="1604" y="998.002">state : String</text><line style="stroke:#181818;stroke-width:0.5;" x1="1585" x2="1797" y1="1004.9688" y2="1004.9688"/></g><!--class CourseMapper--><g id="elem_CourseMapper"><rect codeLine="59" fill="#F1F1F1" height="70.6875" id="CourseMapper" rx="2.5" ry="2.5" style="stroke:#181818;stroke-width:0.5;" width="285" x="1548.5" y="532"/><ellipse cx="1639.75" cy="551.5234" fill="#ADD1B2" rx="11" ry="11" style="stroke:#181818;stroke-width:1.0;"/><path d="M1642.5156,547.3984 Q1642.6719,547.1797 1642.8594,547.0703 Q1643.0469,546.9609 1643.2656,546.9609 Q1643.6406,546.9609 1643.875,547.2266 Q1644.1094,547.4766 1644.1094,548.0859 L1644.1094,549.5391 Q1644.1094,550.1484 1643.875,550.4141 Q1643.6406,550.6797 1643.2656,550.6797 Q1642.9219,550.6797 1642.7188,550.4766 Q1642.5156,550.2891 1642.4063,549.7734 Q1642.3594,549.4141 1642.1719,549.2266 Q1641.8438,548.8516 1641.2344,548.6328 Q1640.625,548.4141 1640,548.4141 Q1639.2344,548.4141 1638.5938,548.7422 Q1637.9688,549.0703 1637.4688,549.8203 Q1636.9844,550.5703 1636.9844,551.6016 L1636.9844,552.6953 Q1636.9844,553.9297 1637.875,554.7578 Q1638.7656,555.5703 1640.3594,555.5703 Q1641.2969,555.5703 1641.9531,555.3203 Q1642.3438,555.1641 1642.7656,554.7266 Q1643.0313,554.4609 1643.1719,554.3828 Q1643.3281,554.3047 1643.5313,554.3047 Q1643.8594,554.3047 1644.1094,554.5703 Q1644.375,554.8203 1644.375,555.1641 Q1644.375,555.5078 1644.0313,555.9141 Q1643.5313,556.4922 1642.7344,556.8203 Q1641.6563,557.2734 1640.3594,557.2734 Q1638.8438,557.2734 1637.6406,556.6484 Q1636.6563,556.1484 1635.9688,555.0859 Q1635.2813,554.0078 1635.2813,552.7266 L1635.2813,551.5703 Q1635.2813,550.2422 1635.8906,549.1016 Q1636.5156,547.9453 1637.6094,547.3359 Q1638.7031,546.7109 1639.9375,546.7109 Q1640.6719,546.7109 1641.3125,546.8828 Q1641.9688,547.0391 1642.5156,547.3984 Z " fill="#000000"/><text fill="#000000" font-family="sans-serif" font-size="12" font-style="italic" lengthAdjust="spacing" textLength="39" x="1687.75" y="547.8633">&#171;DTO&#187;</text><text fill="#000000" font-family="sans-serif" font-size="14" lengthAdjust="spacing" textLength="94" x="1660.25" y="563.0801">CourseMapper</text><line style="stroke:#181818;stroke-width:0.5;" x1="1549.5" x2="1832.5" y1="571.0469" y2="571.0469"/><line style="stroke:#181818;stroke-width:0.5;" x1="1549.5" x2="1832.5" y1="579.0469" y2="579.0469"/><ellipse cx="1559.5" cy="592.3672" fill="#84BE84" rx="3" ry="3" style="stroke:#038048;stroke-width:1.0;"/><text fill="#000000" font-family="sans-serif" font-size="14" lengthAdjust="spacing" textLength="259" x="1568.5" y="595.7207">toDTOWithIdTitleStatus(course : Course)</text></g><!--class CourseDTOBuilder--><g id="elem_CourseDTOBuilder"><rect codeLine="63" fill="#F1F1F1" height="117.6094" id="CourseDTOBuilder" rx="2.5" ry="2.5" style="stroke:#181818;stroke-width:0.5;" width="306" x="1538" y="733"/><ellipse cx="1626.75" cy="752.5234" fill="#ADD1B2" rx="11" ry="11" style="stroke:#181818;stroke-width:1.0;"/><path d="M1629.5156,748.3984 Q1629.6719,748.1797 1629.8594,748.0703 Q1630.0469,747.9609 1630.2656,747.9609 Q1630.6406,747.9609 1630.875,748.2266 Q1631.1094,748.4766 1631.1094,749.0859 L1631.1094,750.5391 Q1631.1094,751.1484 1630.875,751.4141 Q1630.6406,751.6797 1630.2656,751.6797 Q1629.9219,751.6797 1629.7188,751.4766 Q1629.5156,751.2891 1629.4063,750.7734 Q1629.3594,750.4141 1629.1719,750.2266 Q1628.8438,749.8516 1628.2344,749.6328 Q1627.625,749.4141 1627,749.4141 Q1626.2344,749.4141 1625.5938,749.7422 Q1624.9688,750.0703 1624.4688,750.8203 Q1623.9844,751.5703 1623.9844,752.6016 L1623.9844,753.6953 Q1623.9844,754.9297 1624.875,755.7578 Q1625.7656,756.5703 1627.3594,756.5703 Q1628.2969,756.5703 1628.9531,756.3203 Q1629.3438,756.1641 1629.7656,755.7266 Q1630.0313,755.4609 1630.1719,755.3828 Q1630.3281,755.3047 1630.5313,755.3047 Q1630.8594,755.3047 1631.1094,755.5703 Q1631.375,755.8203 1631.375,756.1641 Q1631.375,756.5078 1631.0313,756.9141 Q1630.5313,757.4922 1629.7344,757.8203 Q1628.6563,758.2734 1627.3594,758.2734 Q1625.8438,758.2734 1624.6406,757.6484 Q1623.6563,757.1484 1622.9688,756.0859 Q1622.2813,755.0078 1622.2813,753.7266 L1622.2813,752.5703 Q1622.2813,751.2422 1622.8906,750.1016 Q1623.5156,748.9453 1624.6094,748.3359 Q1625.7031,747.7109 1626.9375,747.7109 Q1627.6719,747.7109 1628.3125,747.8828 Q1628.9688,748.0391 1629.5156,748.3984 Z " fill="#000000"/><text fill="#000000" font-family="sans-serif" font-size="12" font-style="italic" lengthAdjust="spacing" textLength="53" x="1680.75" y="748.8633">&#171;Builder&#187;</text><text fill="#000000" font-family="sans-serif" font-size="14" lengthAdjust="spacing" textLength="120" x="1647.25" y="764.0801">CourseDTOBuilder</text><line style="stroke:#181818;stroke-width:0.5;" x1="1539" x2="1843" y1="772.0469" y2="772.0469"/><line style="stroke:#181818;stroke-width:0.5;" x1="1539" x2="1843" y1="780.0469" y2="780.0469"/><ellipse cx="1549" cy="793.3672" fill="#84BE84" rx="3" ry="3" style="stroke:#038048;stroke-width:1.0;"/><text fill="#000000" font-family="sans-serif" font-size="14" lengthAdjust="spacing" textLength="280" x="1558" y="796.7207">withCourseIdentifier(courseIdentifier : String)</text><ellipse cx="1549" cy="809.0078" fill="#84BE84" rx="3" ry="3" style="stroke:#038048;stroke-width:1.0;"/><text fill="#000000" font-family="sans-serif" font-size="14" lengthAdjust="spacing" textLength="226" x="1558" y="812.3613">withCourseTitle(courseTitle : String)</text><ellipse cx="1549" cy="824.6484" fill="#84BE84" rx="3" ry="3" style="stroke:#038048;stroke-width:1.0;"/><text fill="#000000" font-family="sans-serif" font-size="14" lengthAdjust="spacing" textLength="252" x="1558" y="828.002">withCourseStatus(courseStatus : String)</text><ellipse cx="1549" cy="840.2891" fill="#84BE84" rx="3" ry="3" style="stroke:#038048;stroke-width:1.0;"/><text fill="#000000" font-family="sans-serif" font-size="14" lengthAdjust="spacing" textLength="146" x="1558" y="843.6426">buildWithIdTitleStatus()</text></g><!--link OpenCloseCourseUI to OpenCloseCourseController--><g id="link_OpenCloseCourseUI_OpenCloseCourseController"><path codeLine="71" d="M1263,78.11 C1263,94.44 1263,114.34 1263,132.68 " fill="none" id="OpenCloseCourseUI-to-OpenCloseCourseController" style="stroke:#181818;stroke-width:1.0;stroke-dasharray:7.0,7.0;"/><polygon fill="#181818" points="1263,137.81,1267,128.81,1263,132.81,1259,128.81,1263,137.81" style="stroke:#181818;stroke-width:1.0;"/></g><!--link OpenCloseCourseController to OpenCloseCourseService--><g id="link_OpenCloseCourseController_OpenCloseCourseService"><path codeLine="72" d="M1263,240.19 C1263,257.46 1263,276.9 1263,294.57 " fill="none" id="OpenCloseCourseController-to-OpenCloseCourseService" style="stroke:#181818;stroke-width:1.0;stroke-dasharray:7.0,7.0;"/><polygon fill="#181818" points="1263,299.99,1267,290.99,1263,294.99,1259,290.99,1263,299.99" style="stroke:#181818;stroke-width:1.0;"/></g><!--link OpenCloseCourseService to PersistenceContext--><g id="link_OpenCloseCourseService_PersistenceContext"><path codeLine="73" d="M1234.78,402.02 C1213.26,440.17 1184.04,491.98 1164.18,527.19 " fill="none" id="OpenCloseCourseService-to-PersistenceContext" style="stroke:#181818;stroke-width:1.0;stroke-dasharray:7.0,7.0;"/><polygon fill="#181818" points="1161.56,531.83,1169.4651,525.9555,1164.0161,527.4748,1162.4967,522.0258,1161.56,531.83" style="stroke:#181818;stroke-width:1.0;"/></g><!--link PersistenceContext to RepositoryFactory--><g id="link_PersistenceContext_RepositoryFactory"><path codeLine="74" d="M1142,603.27 C1142,643.43 1142,709.38 1142,751.47 " fill="none" id="PersistenceContext-to-RepositoryFactory" style="stroke:#181818;stroke-width:1.0;stroke-dasharray:7.0,7.0;"/><polygon fill="#181818" points="1142,756.48,1146,747.48,1142,751.48,1138,747.48,1142,756.48" style="stroke:#181818;stroke-width:1.0;"/></g><!--link OpenCloseCourseService to CourseRepository--><g id="link_OpenCloseCourseService_CourseRepository"><path codeLine="75" d="M1291.22,402.02 C1311.27,437.56 1338.01,484.96 1357.63,519.75 " fill="none" id="OpenCloseCourseService-to-CourseRepository" style="stroke:#181818;stroke-width:1.0;stroke-dasharray:7.0,7.0;"/><polygon fill="#181818" points="1360.23,524.36,1359.2795,514.5571,1357.7678,520.0083,1352.3167,518.4966,1360.23,524.36" style="stroke:#181818;stroke-width:1.0;"/></g><!--link OpenCloseCourseService to CourseMapper--><g id="link_OpenCloseCourseService_CourseMapper"><path codeLine="76" d="M1399.21,402.11 C1442.16,419.44 1489.27,440.06 1531,462 C1568.37,481.64 1608.12,507.58 1638.65,528.69 " fill="none" id="OpenCloseCourseService-to-CourseMapper" style="stroke:#181818;stroke-width:1.0;stroke-dasharray:7.0,7.0;"/><polygon fill="#181818" points="1643.08,531.77,1637.9632,523.3546,1638.9711,528.921,1633.4048,529.9289,1643.08,531.77" style="stroke:#181818;stroke-width:1.0;"/></g><!--link CourseMapper to CourseDTOBuilder--><g id="link_CourseMapper_CourseDTOBuilder"><path codeLine="77" d="M1691,603.27 C1691,636.37 1691,686.98 1691,727.32 " fill="none" id="CourseMapper-to-CourseDTOBuilder" style="stroke:#181818;stroke-width:1.0;stroke-dasharray:7.0,7.0;"/><polygon fill="#181818" points="1691,732.69,1695,723.69,1691,727.69,1687,723.69,1691,732.69" style="stroke:#181818;stroke-width:1.0;"/></g><!--link CourseDTOBuilder to CourseDTOWithIdTitleStatus--><g id="link_CourseDTOBuilder_CourseDTOWithIdTitleStatus"><path codeLine="78" d="M1691,851.29 C1691,868.89 1691,888.17 1691,905.58 " fill="none" id="CourseDTOBuilder-to-CourseDTOWithIdTitleStatus" style="stroke:#181818;stroke-width:1.0;stroke-dasharray:7.0,7.0;"/><polygon fill="#181818" points="1691,910.92,1695,901.92,1691,905.92,1687,901.92,1691,910.92" style="stroke:#181818;stroke-width:1.0;"/></g><!--link OpenCloseCourseService to Course--><g id="link_OpenCloseCourseService_Course"><path codeLine="79" d="M983.61,376.83 C798.83,396.07 575,425.55 487,462 C482.7,463.78 478.41,465.73 474.15,467.81 " fill="none" id="OpenCloseCourseService-to-Course" style="stroke:#181818;stroke-width:1.0;stroke-dasharray:7.0,7.0;"/><polygon fill="#181818" points="469.54,470.13,479.3781,469.6702,474.0093,467.8882,475.7913,462.5194,469.54,470.13" style="stroke:#181818;stroke-width:1.0;"/></g><!--reverse link CourseTitle to Course--><g id="link_CourseTitle_Course"><path codeLine="80" d="M196.58,567.5 C206.48,567.5 216.37,567.5 226.27,567.5 " fill="none" id="CourseTitle-backto-Course" style="stroke:#181818;stroke-width:1.0;"/><polygon fill="#181818" points="191.4,567.5,200.4,571.5,196.4,567.5,200.4,563.5,191.4,567.5" style="stroke:#181818;stroke-width:1.0;"/></g><!--link Course to CourseIdentifier--><g id="link_Course_CourseIdentifier"><path codeLine="81" d="M450.33,461.81 C467.22,449.65 485.47,439.09 504.5,432 C562.6,410.34 726.01,408.79 783.5,432 C827.41,449.72 865.24,488.47 890.55,520 " fill="none" id="Course-to-CourseIdentifier" style="stroke:#181818;stroke-width:1.0;"/><polygon fill="#181818" points="893.88,524.2,891.445,514.6569,890.7827,520.2749,885.1648,519.6126,893.88,524.2" style="stroke:#181818;stroke-width:1.0;"/></g><!--link Course to CourseStatus--><g id="link_Course_CourseStatus"><path codeLine="82" d="M469.7,567.5 C479.55,567.5 489.41,567.5 499.27,567.5 " fill="none" id="Course-to-CourseStatus" style="stroke:#181818;stroke-width:1.0;"/><polygon fill="#181818" points="504.42,567.5,495.42,563.5,499.42,567.5,495.42,571.5,504.42,567.5" style="stroke:#181818;stroke-width:1.0;"/></g><!--SRC=[nLLDZziW4BtpAxZLgssI-shbGvDMijGsgoPjZnLhanW9WmMuwQhQ_rw-_871c-vfSubXPjxCUpF0krgfLjvjDYr5J7KDNPUysPGKIRcg23eBr000x1hkMyosb4kyvPsG-7i1x-yV19QOAQG8Ptd-5q3zkuKLFzJyajs0vtJebZCbEALOQ8XnqGEi80_z3rZy9YNsw9H8PG3H8yN6oVvRFwbJEf-oHkpSH-loEfcLTh4xxk4TtFRVFucgY-f85FLkxo735_Uf_GvA47OsFD94V65Gq_2VUGvx4YxXDznoIHGNJqFUSUij6Jb23rX8dHspqdO5_r66J3lk3eHkeUZh9hQkPr3e0752Me2HqYTKMh8QvUG-9mXpIIOZCfV600m9fnZ_8nO_5PKUIwAUl4X5DMZaB2U2nJovphZZ3I9iqaII2WmQRAKUdEmgi7z5pMWs2s_5p4nzep4_auOeqvoFiwq0PsZXT0QyHuLbAKXhJg5ss8shO7ZysAJ6eM-mwWIR477cB6KVrNZ1oUKP74AvdN2Zvk6v-QMyhYxwQeN34PsNjvp1zdOHFa5mbiEhk8Jlp3yGxV2iQtRljNAbphR9VTn71sn2VaPm6uniO98QSR8P9l-2sjP96QHJF5MLFtC3wKWu7VIX8xIoYFvhWdhHWFCUP8lCRg8eMqfM9gZ6la752yVYqLGOixIqGFmghjVvyeC7bf_2H5p_y2qyEoOYli11uautdj4T_H9iz59TzNKZ0e9v6QrZoq4q0u5NfFFrp1uHhYW-gJouY7jBnIyiZ-_ntYp8kHuYVLhm3m00]--></g></svg>