<?xml version="1.0" encoding="us-ascii" standalone="no"?><svg xmlns="http://www.w3.org/2000/svg" xmlns:xlink="http://www.w3.org/1999/xlink" contentStyleType="text/css" height="1104px" preserveAspectRatio="none" style="width:1759px;height:1104px;background:#FFFFFF;" version="1.1" viewBox="0 0 1759 1104" width="1759px" zoomAndPan="magnify"><defs/><g><text fill="#000000" font-family="sans-serif" font-size="14" font-weight="bold" lengthAdjust="spacing" textLength="249" x="756.5" y="30.1074">Create Post-It - SharedBoardServer</text><rect fill="#FFFFFF" height="844.6934" style="stroke:#181818;stroke-width:1.0;" width="10" x="49.5" y="142.4844"/><rect fill="#FFFFFF" height="31.291" style="stroke:#181818;stroke-width:1.0;" width="10" x="173" y="165.7754"/><rect fill="#FFFFFF" height="30" style="stroke:#181818;stroke-width:1.0;" width="10" x="317" y="957.1777"/><rect fill="#FFFFFF" height="31.291" style="stroke:#181818;stroke-width:1.0;" width="10" x="472.5" y="228.3574"/><rect fill="#FFFFFF" height="31.291" style="stroke:#181818;stroke-width:1.0;" width="10" x="472.5" y="894.5957"/><rect fill="#FFFFFF" height="572.3652" style="stroke:#181818;stroke-width:1.0;" width="10" x="631" y="290.9395"/><rect fill="#FFFFFF" height="509.7832" style="stroke:#181818;stroke-width:1.0;" width="10" x="938" y="322.2305"/><rect fill="#FFFFFF" height="93.873" style="stroke:#181818;stroke-width:1.0;" width="10" x="1251" y="353.5215"/><rect fill="#FFFFFF" height="31.291" style="stroke:#181818;stroke-width:1.0;" width="10" x="1369" y="384.8125"/><rect fill="#FFFFFF" height="30" style="stroke:#181818;stroke-width:1.0;" width="10" x="1457" y="541.2676"/><rect fill="#FFFFFF" height="30" style="stroke:#181818;stroke-width:1.0;" width="10" x="1457" y="646.8496"/><rect fill="#FFFFFF" height="30" style="stroke:#181818;stroke-width:1.0;" width="10" x="1457" y="708.1406"/><line style="stroke:#181818;stroke-width:0.5;stroke-dasharray:5.0,5.0;" x1="54" x2="54" y1="132.4844" y2="1005.1777"/><line style="stroke:#181818;stroke-width:0.5;stroke-dasharray:5.0,5.0;" x1="178" x2="178" y1="132.4844" y2="1005.1777"/><line style="stroke:#181818;stroke-width:0.5;stroke-dasharray:5.0,5.0;" x1="322" x2="322" y1="132.4844" y2="1005.1777"/><line style="stroke:#181818;stroke-width:0.5;stroke-dasharray:5.0,5.0;" x1="477" x2="477" y1="132.4844" y2="1005.1777"/><line style="stroke:#181818;stroke-width:0.5;stroke-dasharray:5.0,5.0;" x1="636" x2="636" y1="132.4844" y2="1005.1777"/><line style="stroke:#181818;stroke-width:0.5;stroke-dasharray:5.0,5.0;" x1="942.5" x2="942.5" y1="132.4844" y2="1005.1777"/><line style="stroke:#181818;stroke-width:0.5;stroke-dasharray:5.0,5.0;" x1="1255.5" x2="1255.5" y1="132.4844" y2="1005.1777"/><line style="stroke:#181818;stroke-width:0.5;stroke-dasharray:5.0,5.0;" x1="1374" x2="1374" y1="132.4844" y2="1005.1777"/><line style="stroke:#181818;stroke-width:0.5;stroke-dasharray:5.0,5.0;" x1="1462" x2="1462" y1="132.4844" y2="1005.1777"/><line style="stroke:#181818;stroke-width:0.5;stroke-dasharray:5.0,5.0;" x1="1571" x2="1571" y1="132.4844" y2="1005.1777"/><line style="stroke:#181818;stroke-width:0.5;stroke-dasharray:5.0,5.0;" x1="1699" x2="1699" y1="132.4844" y2="1005.1777"/><rect fill="#E2E2F0" height="51.2422" rx="2.5" ry="2.5" style="stroke:#181818;stroke-width:0.5;" width="99" x="5" y="80.2422"/><text fill="#000000" font-family="sans-serif" font-size="14" font-style="italic" lengthAdjust="spacing" textLength="85" x="12" y="102.3496">&#171;Application&#187;</text><text fill="#000000" font-family="sans-serif" font-size="14" lengthAdjust="spacing" textLength="85" x="12" y="120.9707">: AttendClient</text><rect fill="#E2E2F0" height="51.2422" rx="2.5" ry="2.5" style="stroke:#181818;stroke-width:0.5;" width="99" x="5" y="1004.1777"/><text fill="#000000" font-family="sans-serif" font-size="14" font-style="italic" lengthAdjust="spacing" textLength="85" x="12" y="1026.2852">&#171;Application&#187;</text><text fill="#000000" font-family="sans-serif" font-size="14" lengthAdjust="spacing" textLength="85" x="12" y="1044.9063">: AttendClient</text><rect fill="#E2E2F0" height="32.6211" rx="2.5" ry="2.5" style="stroke:#181818;stroke-width:0.5;" width="128" x="114" y="98.8633"/><text fill="#000000" font-family="sans-serif" font-size="14" lengthAdjust="spacing" textLength="114" x="121" y="120.9707">: DataInputStream</text><rect fill="#E2E2F0" height="32.6211" rx="2.5" ry="2.5" style="stroke:#181818;stroke-width:0.5;" width="128" x="114" y="1004.1777"/><text fill="#000000" font-family="sans-serif" font-size="14" lengthAdjust="spacing" textLength="114" x="121" y="1026.2852">: DataInputStream</text><rect fill="#E2E2F0" height="32.6211" rx="2.5" ry="2.5" style="stroke:#181818;stroke-width:0.5;" width="140" x="252" y="98.8633"/><text fill="#000000" font-family="sans-serif" font-size="14" lengthAdjust="spacing" textLength="126" x="259" y="120.9707">: DataOutputStream</text><rect fill="#E2E2F0" height="32.6211" rx="2.5" ry="2.5" style="stroke:#181818;stroke-width:0.5;" width="140" x="252" y="1004.1777"/><text fill="#000000" font-family="sans-serif" font-size="14" lengthAdjust="spacing" textLength="126" x="259" y="1026.2852">: DataOutputStream</text><rect fill="#E2E2F0" height="32.6211" rx="2.5" ry="2.5" style="stroke:#181818;stroke-width:0.5;" width="151" x="402" y="98.8633"/><text fill="#000000" font-family="sans-serif" font-size="14" lengthAdjust="spacing" textLength="137" x="409" y="120.9707">: SBPMessageFormat</text><rect fill="#E2E2F0" height="32.6211" rx="2.5" ry="2.5" style="stroke:#181818;stroke-width:0.5;" width="151" x="402" y="1004.1777"/><text fill="#000000" font-family="sans-serif" font-size="14" lengthAdjust="spacing" textLength="137" x="409" y="1026.2852">: SBPMessageFormat</text><text fill="#000000" font-family="sans-serif" font-size="14" font-style="italic" lengthAdjust="spacing" textLength="133" x="566.5" y="91.7285">&#171;ShareBoardServer&#187;</text><text fill="#000000" font-family="sans-serif" font-size="14" font-style="italic" lengthAdjust="spacing" textLength="85" x="590.5" y="110.3496">&#171;Application&#187;</text><text fill="#000000" font-family="sans-serif" font-size="14" lengthAdjust="spacing" textLength="140" x="563" y="128.9707">CreatePostItController</text><ellipse cx="636" cy="60.6211" fill="#E2E2F0" rx="12" ry="12" style="stroke:#181818;stroke-width:0.5;"/><polygon fill="#181818" points="632,48.6211,638,43.6211,636,48.6211,638,53.6211,632,48.6211" style="stroke:#181818;stroke-width:1.0;"/><text fill="#000000" font-family="sans-serif" font-size="14" font-style="italic" lengthAdjust="spacing" textLength="133" x="566.5" y="1019.2852">&#171;ShareBoardServer&#187;</text><text fill="#000000" font-family="sans-serif" font-size="14" font-style="italic" lengthAdjust="spacing" textLength="85" x="590.5" y="1037.9063">&#171;Application&#187;</text><text fill="#000000" font-family="sans-serif" font-size="14" lengthAdjust="spacing" textLength="140" x="563" y="1056.5273">CreatePostItController</text><ellipse cx="636" cy="1076.041" fill="#E2E2F0" rx="12" ry="12" style="stroke:#181818;stroke-width:0.5;"/><polygon fill="#181818" points="632,1064.041,638,1059.041,636,1064.041,638,1069.041,632,1064.041" style="stroke:#181818;stroke-width:1.0;"/><rect fill="#E2E2F0" height="51.2422" rx="2.5" ry="2.5" style="stroke:#181818;stroke-width:0.5;" width="147" x="869.5" y="80.2422"/><text fill="#000000" font-family="sans-serif" font-size="14" font-style="italic" lengthAdjust="spacing" textLength="62" x="912" y="102.3496">&#171;Service&#187;</text><text fill="#000000" font-family="sans-serif" font-size="14" lengthAdjust="spacing" textLength="133" x="876.5" y="120.9707">: CreatePostItService</text><rect fill="#E2E2F0" height="51.2422" rx="2.5" ry="2.5" style="stroke:#181818;stroke-width:0.5;" width="147" x="869.5" y="1004.1777"/><text fill="#000000" font-family="sans-serif" font-size="14" font-style="italic" lengthAdjust="spacing" textLength="62" x="912" y="1026.2852">&#171;Service&#187;</text><text fill="#000000" font-family="sans-serif" font-size="14" lengthAdjust="spacing" textLength="133" x="876.5" y="1044.9063">: CreatePostItService</text><rect fill="#E2E2F0" height="51.2422" rx="2.5" ry="2.5" style="stroke:#181818;stroke-width:0.5;" width="105" x="1203.5" y="80.2422"/><text fill="#000000" font-family="sans-serif" font-size="14" font-style="italic" lengthAdjust="spacing" textLength="64" x="1224" y="102.3496">&#171;Factory&#187;</text><text fill="#000000" font-family="sans-serif" font-size="14" lengthAdjust="spacing" textLength="91" x="1210.5" y="120.9707">: PostItFactory</text><rect fill="#E2E2F0" height="51.2422" rx="2.5" ry="2.5" style="stroke:#181818;stroke-width:0.5;" width="105" x="1203.5" y="1004.1777"/><text fill="#000000" font-family="sans-serif" font-size="14" font-style="italic" lengthAdjust="spacing" textLength="64" x="1224" y="1026.2852">&#171;Factory&#187;</text><text fill="#000000" font-family="sans-serif" font-size="14" lengthAdjust="spacing" textLength="91" x="1210.5" y="1044.9063">: PostItFactory</text><rect fill="#E2E2F0" height="51.2422" rx="2.5" ry="2.5" style="stroke:#181818;stroke-width:0.5;" width="78" x="1335" y="80.2422"/><text fill="#000000" font-family="sans-serif" font-size="14" font-style="italic" lengthAdjust="spacing" textLength="64" x="1342" y="102.3496">&#171;Domain&#187;</text><text fill="#000000" font-family="sans-serif" font-size="14" lengthAdjust="spacing" textLength="43" x="1352.5" y="120.9707">: PostIt</text><rect fill="#E2E2F0" height="51.2422" rx="2.5" ry="2.5" style="stroke:#181818;stroke-width:0.5;" width="78" x="1335" y="1004.1777"/><text fill="#000000" font-family="sans-serif" font-size="14" font-style="italic" lengthAdjust="spacing" textLength="64" x="1342" y="1026.2852">&#171;Domain&#187;</text><text fill="#000000" font-family="sans-serif" font-size="14" lengthAdjust="spacing" textLength="43" x="1352.5" y="1044.9063">: PostIt</text><rect fill="#E2E2F0" height="51.2422" rx="2.5" ry="2.5" style="stroke:#181818;stroke-width:0.5;" width="78" x="1423" y="80.2422"/><text fill="#000000" font-family="sans-serif" font-size="14" font-style="italic" lengthAdjust="spacing" textLength="64" x="1430" y="102.3496">&#171;Domain&#187;</text><text fill="#000000" font-family="sans-serif" font-size="14" lengthAdjust="spacing" textLength="46" x="1439" y="120.9707">: Board</text><rect fill="#E2E2F0" height="51.2422" rx="2.5" ry="2.5" style="stroke:#181818;stroke-width:0.5;" width="78" x="1423" y="1004.1777"/><text fill="#000000" font-family="sans-serif" font-size="14" font-style="italic" lengthAdjust="spacing" textLength="64" x="1430" y="1026.2852">&#171;Domain&#187;</text><text fill="#000000" font-family="sans-serif" font-size="14" lengthAdjust="spacing" textLength="46" x="1439" y="1044.9063">: Board</text><text fill="#000000" font-family="sans-serif" font-size="14" font-style="italic" lengthAdjust="spacing" textLength="84" x="1526" y="110.3496">&#171;Repository&#187;</text><text fill="#000000" font-family="sans-serif" font-size="14" lengthAdjust="spacing" textLength="114" x="1511" y="128.9707">: BoardRepository</text><path d="M1553,59.2422 C1553,49.2422 1571,49.2422 1571,49.2422 C1571,49.2422 1589,49.2422 1589,59.2422 L1589,85.2422 C1589,95.2422 1571,95.2422 1571,95.2422 C1571,95.2422 1553,95.2422 1553,85.2422 L1553,59.2422 " fill="#E2E2F0" style="stroke:#181818;stroke-width:1.5;"/><path d="M1553,59.2422 C1553,69.2422 1571,69.2422 1571,69.2422 C1571,69.2422 1589,69.2422 1589,59.2422 " fill="none" style="stroke:#181818;stroke-width:1.5;"/><text fill="#000000" font-family="sans-serif" font-size="14" font-style="italic" lengthAdjust="spacing" textLength="84" x="1526" y="1019.2852">&#171;Repository&#187;</text><text fill="#000000" font-family="sans-serif" font-size="14" lengthAdjust="spacing" textLength="114" x="1511" y="1037.9063">: BoardRepository</text><path d="M1553,1051.4199 C1553,1041.4199 1571,1041.4199 1571,1041.4199 C1571,1041.4199 1589,1041.4199 1589,1051.4199 L1589,1077.4199 C1589,1087.4199 1571,1087.4199 1571,1087.4199 C1571,1087.4199 1553,1087.4199 1553,1077.4199 L1553,1051.4199 " fill="#E2E2F0" style="stroke:#181818;stroke-width:1.5;"/><path d="M1553,1051.4199 C1553,1061.4199 1571,1061.4199 1571,1061.4199 C1571,1061.4199 1589,1061.4199 1589,1051.4199 " fill="none" style="stroke:#181818;stroke-width:1.5;"/><text fill="#000000" font-family="sans-serif" font-size="14" font-style="italic" lengthAdjust="spacing" textLength="84" x="1654.5" y="110.3496">&#171;Repository&#187;</text><text fill="#000000" font-family="sans-serif" font-size="14" lengthAdjust="spacing" textLength="111" x="1641" y="128.9707">: PostItRepository</text><path d="M1681.5,59.2422 C1681.5,49.2422 1699.5,49.2422 1699.5,49.2422 C1699.5,49.2422 1717.5,49.2422 1717.5,59.2422 L1717.5,85.2422 C1717.5,95.2422 1699.5,95.2422 1699.5,95.2422 C1699.5,95.2422 1681.5,95.2422 1681.5,85.2422 L1681.5,59.2422 " fill="#E2E2F0" style="stroke:#181818;stroke-width:1.5;"/><path d="M1681.5,59.2422 C1681.5,69.2422 1699.5,69.2422 1699.5,69.2422 C1699.5,69.2422 1717.5,69.2422 1717.5,59.2422 " fill="none" style="stroke:#181818;stroke-width:1.5;"/><text fill="#000000" font-family="sans-serif" font-size="14" font-style="italic" lengthAdjust="spacing" textLength="84" x="1654.5" y="1019.2852">&#171;Repository&#187;</text><text fill="#000000" font-family="sans-serif" font-size="14" lengthAdjust="spacing" textLength="111" x="1641" y="1037.9063">: PostItRepository</text><path d="M1681.5,1051.4199 C1681.5,1041.4199 1699.5,1041.4199 1699.5,1041.4199 C1699.5,1041.4199 1717.5,1041.4199 1717.5,1051.4199 L1717.5,1077.4199 C1717.5,1087.4199 1699.5,1087.4199 1699.5,1087.4199 C1699.5,1087.4199 1681.5,1087.4199 1681.5,1077.4199 L1681.5,1051.4199 " fill="#E2E2F0" style="stroke:#181818;stroke-width:1.5;"/><path d="M1681.5,1051.4199 C1681.5,1061.4199 1699.5,1061.4199 1699.5,1061.4199 C1699.5,1061.4199 1717.5,1061.4199 1717.5,1051.4199 " fill="none" style="stroke:#181818;stroke-width:1.5;"/><rect fill="#FFFFFF" height="844.6934" style="stroke:#181818;stroke-width:1.0;" width="10" x="49.5" y="142.4844"/><rect fill="#FFFFFF" height="31.291" style="stroke:#181818;stroke-width:1.0;" width="10" x="173" y="165.7754"/><rect fill="#FFFFFF" height="30" style="stroke:#181818;stroke-width:1.0;" width="10" x="317" y="957.1777"/><rect fill="#FFFFFF" height="31.291" style="stroke:#181818;stroke-width:1.0;" width="10" x="472.5" y="228.3574"/><rect fill="#FFFFFF" height="31.291" style="stroke:#181818;stroke-width:1.0;" width="10" x="472.5" y="894.5957"/><rect fill="#FFFFFF" height="572.3652" style="stroke:#181818;stroke-width:1.0;" width="10" x="631" y="290.9395"/><rect fill="#FFFFFF" height="509.7832" style="stroke:#181818;stroke-width:1.0;" width="10" x="938" y="322.2305"/><rect fill="#FFFFFF" height="93.873" style="stroke:#181818;stroke-width:1.0;" width="10" x="1251" y="353.5215"/><rect fill="#FFFFFF" height="31.291" style="stroke:#181818;stroke-width:1.0;" width="10" x="1369" y="384.8125"/><rect fill="#FFFFFF" height="30" style="stroke:#181818;stroke-width:1.0;" width="10" x="1457" y="541.2676"/><rect fill="#FFFFFF" height="30" style="stroke:#181818;stroke-width:1.0;" width="10" x="1457" y="646.8496"/><rect fill="#FFFFFF" height="30" style="stroke:#181818;stroke-width:1.0;" width="10" x="1457" y="708.1406"/><polygon fill="#181818" points="161,161.7754,171,165.7754,161,169.7754,165,165.7754" style="stroke:#181818;stroke-width:1.0;"/><line style="stroke:#181818;stroke-width:1.0;" x1="59.5" x2="167" y1="165.7754" y2="165.7754"/><text fill="#000000" font-family="sans-serif" font-size="13" font-weight="bold" lengthAdjust="spacing" textLength="7" x="66.5" y="160.5127">1</text><text fill="#000000" font-family="sans-serif" font-size="13" lengthAdjust="spacing" textLength="57" x="77.5" y="160.5127">readUTF()</text><polygon fill="#181818" points="70.5,193.0664,60.5,197.0664,70.5,201.0664,66.5,197.0664" style="stroke:#181818;stroke-width:1.0;"/><line style="stroke:#181818;stroke-width:1.0;stroke-dasharray:2.0,2.0;" x1="64.5" x2="177" y1="197.0664" y2="197.0664"/><text fill="#000000" font-family="sans-serif" font-size="13" font-weight="bold" lengthAdjust="spacing" textLength="7" x="76.5" y="191.8037">2</text><text fill="#000000" font-family="sans-serif" font-size="13" lengthAdjust="spacing" textLength="53" x="87.5" y="191.8037">message</text><polygon fill="#181818" points="460.5,224.3574,470.5,228.3574,460.5,232.3574,464.5,228.3574" style="stroke:#181818;stroke-width:1.0;"/><line style="stroke:#181818;stroke-width:1.0;" x1="59.5" x2="466.5" y1="228.3574" y2="228.3574"/><text fill="#000000" font-family="sans-serif" font-size="13" font-weight="bold" lengthAdjust="spacing" textLength="7" x="66.5" y="223.0947">3</text><text fill="#000000" font-family="sans-serif" font-size="13" lengthAdjust="spacing" textLength="148" x="77.5" y="223.0947">decodeParams(message)</text><polygon fill="#181818" points="70.5,255.6484,60.5,259.6484,70.5,263.6484,66.5,259.6484" style="stroke:#181818;stroke-width:1.0;"/><line style="stroke:#181818;stroke-width:1.0;stroke-dasharray:2.0,2.0;" x1="64.5" x2="476.5" y1="259.6484" y2="259.6484"/><text fill="#000000" font-family="sans-serif" font-size="13" font-weight="bold" lengthAdjust="spacing" textLength="7" x="76.5" y="254.3857">4</text><text fill="#000000" font-family="sans-serif" font-size="13" lengthAdjust="spacing" textLength="43" x="87.5" y="254.3857">params</text><polygon fill="#181818" points="619,286.9395,629,290.9395,619,294.9395,623,290.9395" style="stroke:#181818;stroke-width:1.0;"/><line style="stroke:#181818;stroke-width:1.0;" x1="59.5" x2="625" y1="290.9395" y2="290.9395"/><text fill="#000000" font-family="sans-serif" font-size="13" font-weight="bold" lengthAdjust="spacing" textLength="7" x="66.5" y="285.6768">5</text><text fill="#000000" font-family="sans-serif" font-size="13" lengthAdjust="spacing" textLength="267" x="77.5" y="285.6768">createPostIt(boardTittle, content, column, row)</text><polygon fill="#181818" points="926,318.2305,936,322.2305,926,326.2305,930,322.2305" style="stroke:#181818;stroke-width:1.0;"/><line style="stroke:#181818;stroke-width:1.0;" x1="641" x2="932" y1="322.2305" y2="322.2305"/><text fill="#000000" font-family="sans-serif" font-size="13" font-weight="bold" lengthAdjust="spacing" textLength="7" x="648" y="316.9678">6</text><text fill="#000000" font-family="sans-serif" font-size="13" lengthAdjust="spacing" textLength="267" x="659" y="316.9678">createPostIt(boardTittle, content, column, row)</text><polygon fill="#181818" points="1239,349.5215,1249,353.5215,1239,357.5215,1243,353.5215" style="stroke:#181818;stroke-width:1.0;"/><line style="stroke:#181818;stroke-width:1.0;" x1="948" x2="1245" y1="353.5215" y2="353.5215"/><text fill="#000000" font-family="sans-serif" font-size="13" font-weight="bold" lengthAdjust="spacing" textLength="7" x="955" y="348.2588">7</text><text fill="#000000" font-family="sans-serif" font-size="13" lengthAdjust="spacing" textLength="35" x="966" y="348.2588">build()</text><polygon fill="#181818" points="1357,380.8125,1367,384.8125,1357,388.8125,1361,384.8125" style="stroke:#181818;stroke-width:1.0;"/><line style="stroke:#181818;stroke-width:1.0;" x1="1261" x2="1363" y1="384.8125" y2="384.8125"/><text fill="#000000" font-family="sans-serif" font-size="13" font-weight="bold" lengthAdjust="spacing" textLength="7" x="1268" y="379.5498">8</text><text fill="#000000" font-family="sans-serif" font-size="13" lengthAdjust="spacing" textLength="78" x="1279" y="379.5498">createPostIt()</text><polygon fill="#181818" points="1272,412.1035,1262,416.1035,1272,420.1035,1268,416.1035" style="stroke:#181818;stroke-width:1.0;"/><line style="stroke:#181818;stroke-width:1.0;stroke-dasharray:2.0,2.0;" x1="1266" x2="1373" y1="416.1035" y2="416.1035"/><text fill="#000000" font-family="sans-serif" font-size="13" font-weight="bold" lengthAdjust="spacing" textLength="7" x="1278" y="410.8408">9</text><text fill="#000000" font-family="sans-serif" font-size="13" lengthAdjust="spacing" textLength="32" x="1289" y="410.8408">postIt</text><polygon fill="#181818" points="959,443.3945,949,447.3945,959,451.3945,955,447.3945" style="stroke:#181818;stroke-width:1.0;"/><line style="stroke:#181818;stroke-width:1.0;stroke-dasharray:2.0,2.0;" x1="953" x2="1255" y1="447.3945" y2="447.3945"/><text fill="#000000" font-family="sans-serif" font-size="13" font-weight="bold" lengthAdjust="spacing" textLength="14" x="965" y="442.1318">10</text><text fill="#000000" font-family="sans-serif" font-size="13" lengthAdjust="spacing" textLength="32" x="983" y="442.1318">postIt</text><polygon fill="#181818" points="1559,474.6855,1569,478.6855,1559,482.6855,1563,478.6855" style="stroke:#181818;stroke-width:1.0;"/><line style="stroke:#181818;stroke-width:1.0;" x1="948" x2="1565" y1="478.6855" y2="478.6855"/><text fill="#000000" font-family="sans-serif" font-size="13" font-weight="bold" lengthAdjust="spacing" textLength="14" x="955" y="473.4229">11</text><text fill="#000000" font-family="sans-serif" font-size="13" lengthAdjust="spacing" textLength="158" x="973" y="473.4229">findBoardByTitle(boardTitle)</text><polygon fill="#181818" points="959,505.9766,949,509.9766,959,513.9766,955,509.9766" style="stroke:#181818;stroke-width:1.0;"/><line style="stroke:#181818;stroke-width:1.0;" x1="953" x2="1570" y1="509.9766" y2="509.9766"/><text fill="#000000" font-family="sans-serif" font-size="13" font-weight="bold" lengthAdjust="spacing" textLength="14" x="965" y="504.7139">12</text><text fill="#000000" font-family="sans-serif" font-size="13" lengthAdjust="spacing" textLength="32" x="983" y="504.7139">board</text><polygon fill="#181818" points="1445,537.2676,1455,541.2676,1445,545.2676,1449,541.2676" style="stroke:#181818;stroke-width:1.0;"/><line style="stroke:#181818;stroke-width:1.0;" x1="948" x2="1451" y1="541.2676" y2="541.2676"/><text fill="#000000" font-family="sans-serif" font-size="13" font-weight="bold" lengthAdjust="spacing" textLength="14" x="955" y="536.0049">13</text><text fill="#000000" font-family="sans-serif" font-size="13" lengthAdjust="spacing" textLength="177" x="973" y="536.0049">addPostIt(postIt, column, row);</text><line style="stroke:#181818;stroke-width:1.0;" x1="948" x2="990" y1="602.5586" y2="602.5586"/><line style="stroke:#181818;stroke-width:1.0;" x1="990" x2="990" y1="602.5586" y2="615.5586"/><line style="stroke:#181818;stroke-width:1.0;" x1="949" x2="990" y1="615.5586" y2="615.5586"/><polygon fill="#181818" points="959,611.5586,949,615.5586,959,619.5586,955,615.5586" style="stroke:#181818;stroke-width:1.0;"/><text fill="#000000" font-family="sans-serif" font-size="13" font-weight="bold" lengthAdjust="spacing" textLength="14" x="955" y="597.2959">14</text><text fill="#000000" font-family="sans-serif" font-size="13" lengthAdjust="spacing" textLength="271" x="973" y="597.2959">verify if user is owner or participant in the board</text><polygon fill="#181818" points="1445,642.8496,1455,646.8496,1445,650.8496,1449,646.8496" style="stroke:#181818;stroke-width:1.0;"/><line style="stroke:#181818;stroke-width:1.0;" x1="948" x2="1451" y1="646.8496" y2="646.8496"/><text fill="#000000" font-family="sans-serif" font-size="13" font-weight="bold" lengthAdjust="spacing" textLength="14" x="955" y="641.5869">15</text><text fill="#000000" font-family="sans-serif" font-size="13" lengthAdjust="spacing" textLength="137" x="973" y="641.5869">addTaskToHistory(task)</text><polygon fill="#181818" points="1445,704.1406,1455,708.1406,1445,712.1406,1449,708.1406" style="stroke:#181818;stroke-width:1.0;"/><line style="stroke:#181818;stroke-width:1.0;" x1="948" x2="1451" y1="708.1406" y2="708.1406"/><text fill="#000000" font-family="sans-serif" font-size="13" font-weight="bold" lengthAdjust="spacing" textLength="14" x="955" y="702.8779">16</text><text fill="#000000" font-family="sans-serif" font-size="13" lengthAdjust="spacing" textLength="155" x="973" y="702.8779">addNotification(notification)</text><polygon fill="#181818" points="1687.5,765.4316,1697.5,769.4316,1687.5,773.4316,1691.5,769.4316" style="stroke:#181818;stroke-width:1.0;"/><line style="stroke:#181818;stroke-width:1.0;" x1="948" x2="1693.5" y1="769.4316" y2="769.4316"/><text fill="#000000" font-family="sans-serif" font-size="13" font-weight="bold" lengthAdjust="spacing" textLength="14" x="955" y="764.1689">17</text><text fill="#000000" font-family="sans-serif" font-size="13" lengthAdjust="spacing" textLength="66" x="973" y="764.1689">save(postIt)</text><polygon fill="#181818" points="1559,796.7227,1569,800.7227,1559,804.7227,1563,800.7227" style="stroke:#181818;stroke-width:1.0;"/><line style="stroke:#181818;stroke-width:1.0;" x1="948" x2="1565" y1="800.7227" y2="800.7227"/><text fill="#000000" font-family="sans-serif" font-size="13" font-weight="bold" lengthAdjust="spacing" textLength="14" x="955" y="795.46">18</text><text fill="#000000" font-family="sans-serif" font-size="13" lengthAdjust="spacing" textLength="66" x="973" y="795.46">save(board)</text><polygon fill="#181818" points="652,828.0137,642,832.0137,652,836.0137,648,832.0137" style="stroke:#181818;stroke-width:1.0;"/><line style="stroke:#181818;stroke-width:1.0;stroke-dasharray:2.0,2.0;" x1="646" x2="942" y1="832.0137" y2="832.0137"/><text fill="#000000" font-family="sans-serif" font-size="13" font-weight="bold" lengthAdjust="spacing" textLength="14" x="658" y="826.751">19</text><text fill="#000000" font-family="sans-serif" font-size="13" lengthAdjust="spacing" textLength="22" x="676" y="826.751">true</text><polygon fill="#181818" points="70.5,859.3047,60.5,863.3047,70.5,867.3047,66.5,863.3047" style="stroke:#181818;stroke-width:1.0;"/><line style="stroke:#181818;stroke-width:1.0;stroke-dasharray:2.0,2.0;" x1="64.5" x2="635" y1="863.3047" y2="863.3047"/><text fill="#000000" font-family="sans-serif" font-size="13" font-weight="bold" lengthAdjust="spacing" textLength="14" x="76.5" y="858.042">20</text><text fill="#000000" font-family="sans-serif" font-size="13" lengthAdjust="spacing" textLength="22" x="94.5" y="858.042">true</text><polygon fill="#181818" points="460.5,890.5957,470.5,894.5957,460.5,898.5957,464.5,894.5957" style="stroke:#181818;stroke-width:1.0;"/><line style="stroke:#181818;stroke-width:1.0;" x1="59.5" x2="466.5" y1="894.5957" y2="894.5957"/><text fill="#000000" font-family="sans-serif" font-size="13" font-weight="bold" lengthAdjust="spacing" textLength="14" x="66.5" y="889.333">21</text><text fill="#000000" font-family="sans-serif" font-size="13" lengthAdjust="spacing" textLength="169" x="84.5" y="889.333">createAcknowledgeRequest()</text><polygon fill="#181818" points="70.5,921.8867,60.5,925.8867,70.5,929.8867,66.5,925.8867" style="stroke:#181818;stroke-width:1.0;"/><line style="stroke:#181818;stroke-width:1.0;stroke-dasharray:2.0,2.0;" x1="64.5" x2="476.5" y1="925.8867" y2="925.8867"/><text fill="#000000" font-family="sans-serif" font-size="13" font-weight="bold" lengthAdjust="spacing" textLength="14" x="76.5" y="920.624">22</text><text fill="#000000" font-family="sans-serif" font-size="13" lengthAdjust="spacing" textLength="69" x="94.5" y="920.624">ackRequest</text><polygon fill="#181818" points="305,953.1777,315,957.1777,305,961.1777,309,957.1777" style="stroke:#181818;stroke-width:1.0;"/><line style="stroke:#181818;stroke-width:1.0;" x1="59.5" x2="311" y1="957.1777" y2="957.1777"/><text fill="#000000" font-family="sans-serif" font-size="13" font-weight="bold" lengthAdjust="spacing" textLength="14" x="66.5" y="951.915">23</text><text fill="#000000" font-family="sans-serif" font-size="13" lengthAdjust="spacing" textLength="128" x="84.5" y="951.915">writeUTF(ackRequest)</text><!--SRC=[fLJRZjem47tFLrWyWRJy05qX4L1KfBP49Fq0amox5ecTsXCGVz_nfS44LZpqBHwVSpoNC-4zAjct1z092co0hJLm19OhW_CjiZahFhc6EbLSrmNeCm6JZciKbUYuH3PPi1KYo7hT290uOTomrPgzlw-whX4LHw7aSZccR3ZohUnwB93UQnrhiosUmNOzZd2x1roHvZ_16Fu1cT8jzrdOO9PKIg9M3PlumcnTMrpxO0FQ8TVb_WTbx2gD2bqkNvKHQrgEgC0BveNLyv57cYTal4AbhuwGPuGFWQ_m7aYuZMgvU9ADIzsXqXXLKnCFtC00sKEdZ1ZUJlU4liL63F_sY98_K2XrSRR6MQqJ6lzyQSV95emQLFyki-diXh1pre2zbgprGmiCDp3Yr52f6dAkUMkc0HBn_Lo3GkTGGS3DSS6gQ2hJWwsu54ZUVcFM36HI-z7qhNnZMbqYPSjFd8WLoul_qigB9B4Q99NRgWwzQEgu3tcMq8Mz7hyJWuP2tTNe5FHfWWjs5D9lQNejxIOFsJRKF48C9RduGAK0h-lmi9UzB-dRBPaqgI4w10clIliYZbScZgmte9amJ5qaVIZDOfiAoV0JdkPGSdCgrNTXhAMcIAVPgwS3yvT2SGnBEfNHuQL0RZjd-1b2wRExbheBb-eipF9cCjGzn99stjuwX24xFa5OTzqxtKzzLPsakZHGVy0U_lHWxXnmPtTUdGBatvRjRFClMY3ODRlTnmj7FymeZz6H5lOl]--></g></svg>