<?xml version="1.0" encoding="us-ascii" standalone="no"?><svg xmlns="http://www.w3.org/2000/svg" xmlns:xlink="http://www.w3.org/1999/xlink" contentStyleType="text/css" height="971px" preserveAspectRatio="none" style="width:1221px;height:971px;background:#FFFFFF;" version="1.1" viewBox="0 0 1221 971" width="1221px" zoomAndPan="magnify"><defs/><g><text fill="#000000" font-family="sans-serif" font-size="14" font-weight="bold" lengthAdjust="spacing" textLength="281" x="471.75" y="30.1074">Show Cell Number - SharedBoardServer</text><rect fill="#FFFFFF" height="720.6934" style="stroke:#181818;stroke-width:1.0;" width="10" x="49.5" y="142.4844"/><rect fill="#FFFFFF" height="31.291" style="stroke:#181818;stroke-width:1.0;" width="10" x="173" y="165.7754"/><rect fill="#FFFFFF" height="31.291" style="stroke:#181818;stroke-width:1.0;" width="10" x="503" y="228.3574"/><rect fill="#FFFFFF" height="31.291" style="stroke:#181818;stroke-width:1.0;" width="10" x="503" y="791.5957"/><rect fill="#FFFFFF" height="219.0371" style="stroke:#181818;stroke-width:1.0;" width="10" x="686.5" y="290.9395"/><rect fill="#FFFFFF" height="219.0371" style="stroke:#181818;stroke-width:1.0;" width="10" x="686.5" y="541.2676"/><rect fill="#FFFFFF" height="156.4551" style="stroke:#181818;stroke-width:1.0;" width="10" x="902.5" y="322.2305"/><rect fill="#FFFFFF" height="156.4551" style="stroke:#181818;stroke-width:1.0;" width="10" x="902.5" y="572.5586"/><rect fill="#FFFFFF" height="31.291" style="stroke:#181818;stroke-width:1.0;" width="10" x="1053" y="416.1035"/><rect fill="#FFFFFF" height="31.291" style="stroke:#181818;stroke-width:1.0;" width="10" x="1053" y="666.4316"/><line style="stroke:#181818;stroke-width:0.5;stroke-dasharray:5.0,5.0;" x1="54" x2="54" y1="132.4844" y2="872.1777"/><line style="stroke:#181818;stroke-width:0.5;stroke-dasharray:5.0,5.0;" x1="178" x2="178" y1="132.4844" y2="872.1777"/><line style="stroke:#181818;stroke-width:0.5;stroke-dasharray:5.0,5.0;" x1="352.5" x2="352.5" y1="132.4844" y2="872.1777"/><line style="stroke:#181818;stroke-width:0.5;stroke-dasharray:5.0,5.0;" x1="507.5" x2="507.5" y1="132.4844" y2="872.1777"/><line style="stroke:#181818;stroke-width:0.5;stroke-dasharray:5.0,5.0;" x1="691.5" x2="691.5" y1="132.4844" y2="872.1777"/><line style="stroke:#181818;stroke-width:0.5;stroke-dasharray:5.0,5.0;" x1="907.5" x2="907.5" y1="132.4844" y2="872.1777"/><line style="stroke:#181818;stroke-width:0.5;stroke-dasharray:5.0,5.0;" x1="1057.5" x2="1057.5" y1="132.4844" y2="872.1777"/><line style="stroke:#181818;stroke-width:0.5;stroke-dasharray:5.0,5.0;" x1="1160.5" x2="1160.5" y1="132.4844" y2="872.1777"/><rect fill="#E2E2F0" height="51.2422" rx="2.5" ry="2.5" style="stroke:#181818;stroke-width:0.5;" width="99" x="5" y="80.2422"/><text fill="#000000" font-family="sans-serif" font-size="14" font-style="italic" lengthAdjust="spacing" textLength="85" x="12" y="102.3496">&#171;Application&#187;</text><text fill="#000000" font-family="sans-serif" font-size="14" lengthAdjust="spacing" textLength="85" x="12" y="120.9707">: AttendClient</text><rect fill="#E2E2F0" height="51.2422" rx="2.5" ry="2.5" style="stroke:#181818;stroke-width:0.5;" width="99" x="5" y="871.1777"/><text fill="#000000" font-family="sans-serif" font-size="14" font-style="italic" lengthAdjust="spacing" textLength="85" x="12" y="893.2852">&#171;Application&#187;</text><text fill="#000000" font-family="sans-serif" font-size="14" lengthAdjust="spacing" textLength="85" x="12" y="911.9063">: AttendClient</text><rect fill="#E2E2F0" height="32.6211" rx="2.5" ry="2.5" style="stroke:#181818;stroke-width:0.5;" width="128" x="114" y="98.8633"/><text fill="#000000" font-family="sans-serif" font-size="14" lengthAdjust="spacing" textLength="114" x="121" y="120.9707">: DataInputStream</text><rect fill="#E2E2F0" height="32.6211" rx="2.5" ry="2.5" style="stroke:#181818;stroke-width:0.5;" width="128" x="114" y="871.1777"/><text fill="#000000" font-family="sans-serif" font-size="14" lengthAdjust="spacing" textLength="114" x="121" y="893.2852">: DataInputStream</text><rect fill="#E2E2F0" height="32.6211" rx="2.5" ry="2.5" style="stroke:#181818;stroke-width:0.5;" width="140" x="282.5" y="98.8633"/><text fill="#000000" font-family="sans-serif" font-size="14" lengthAdjust="spacing" textLength="126" x="289.5" y="120.9707">: DataOutputStream</text><rect fill="#E2E2F0" height="32.6211" rx="2.5" ry="2.5" style="stroke:#181818;stroke-width:0.5;" width="140" x="282.5" y="871.1777"/><text fill="#000000" font-family="sans-serif" font-size="14" lengthAdjust="spacing" textLength="126" x="289.5" y="893.2852">: DataOutputStream</text><rect fill="#E2E2F0" height="32.6211" rx="2.5" ry="2.5" style="stroke:#181818;stroke-width:0.5;" width="151" x="432.5" y="98.8633"/><text fill="#000000" font-family="sans-serif" font-size="14" lengthAdjust="spacing" textLength="137" x="439.5" y="120.9707">: SBPMessageFormat</text><rect fill="#E2E2F0" height="32.6211" rx="2.5" ry="2.5" style="stroke:#181818;stroke-width:0.5;" width="151" x="432.5" y="871.1777"/><text fill="#000000" font-family="sans-serif" font-size="14" lengthAdjust="spacing" textLength="137" x="439.5" y="893.2852">: SBPMessageFormat</text><text fill="#000000" font-family="sans-serif" font-size="14" font-style="italic" lengthAdjust="spacing" textLength="133" x="622" y="91.7285">&#171;ShareBoardServer&#187;</text><text fill="#000000" font-family="sans-serif" font-size="14" font-style="italic" lengthAdjust="spacing" textLength="85" x="646" y="110.3496">&#171;Application&#187;</text><text fill="#000000" font-family="sans-serif" font-size="14" lengthAdjust="spacing" textLength="190" x="593.5" y="128.9707">ShowCellInformationController</text><ellipse cx="691.5" cy="60.6211" fill="#E2E2F0" rx="12" ry="12" style="stroke:#181818;stroke-width:0.5;"/><polygon fill="#181818" points="687.5,48.6211,693.5,43.6211,691.5,48.6211,693.5,53.6211,687.5,48.6211" style="stroke:#181818;stroke-width:1.0;"/><text fill="#000000" font-family="sans-serif" font-size="14" font-style="italic" lengthAdjust="spacing" textLength="133" x="622" y="886.2852">&#171;ShareBoardServer&#187;</text><text fill="#000000" font-family="sans-serif" font-size="14" font-style="italic" lengthAdjust="spacing" textLength="85" x="646" y="904.9063">&#171;Application&#187;</text><text fill="#000000" font-family="sans-serif" font-size="14" lengthAdjust="spacing" textLength="190" x="593.5" y="923.5273">ShowCellInformationController</text><ellipse cx="691.5" cy="943.041" fill="#E2E2F0" rx="12" ry="12" style="stroke:#181818;stroke-width:0.5;"/><polygon fill="#181818" points="687.5,931.041,693.5,926.041,691.5,931.041,693.5,936.041,687.5,931.041" style="stroke:#181818;stroke-width:1.0;"/><rect fill="#E2E2F0" height="51.2422" rx="2.5" ry="2.5" style="stroke:#181818;stroke-width:0.5;" width="216" x="799.5" y="80.2422"/><text fill="#000000" font-family="sans-serif" font-size="14" font-style="italic" lengthAdjust="spacing" textLength="62" x="876.5" y="102.3496">&#171;Service&#187;</text><text fill="#000000" font-family="sans-serif" font-size="14" lengthAdjust="spacing" textLength="202" x="806.5" y="120.9707">: CellRequestInformationService</text><rect fill="#E2E2F0" height="51.2422" rx="2.5" ry="2.5" style="stroke:#181818;stroke-width:0.5;" width="216" x="799.5" y="871.1777"/><text fill="#000000" font-family="sans-serif" font-size="14" font-style="italic" lengthAdjust="spacing" textLength="62" x="876.5" y="893.2852">&#171;Service&#187;</text><text fill="#000000" font-family="sans-serif" font-size="14" lengthAdjust="spacing" textLength="202" x="806.5" y="911.9063">: CellRequestInformationService</text><rect fill="#E2E2F0" height="51.2422" rx="2.5" ry="2.5" style="stroke:#181818;stroke-width:0.5;" width="65" x="1025.5" y="80.2422"/><text fill="#000000" font-family="sans-serif" font-size="14" font-style="italic" lengthAdjust="spacing" textLength="51" x="1032.5" y="102.3496">&#171;Entity&#187;</text><text fill="#000000" font-family="sans-serif" font-size="14" lengthAdjust="spacing" textLength="46" x="1035" y="120.9707">: Board</text><rect fill="#E2E2F0" height="51.2422" rx="2.5" ry="2.5" style="stroke:#181818;stroke-width:0.5;" width="65" x="1025.5" y="871.1777"/><text fill="#000000" font-family="sans-serif" font-size="14" font-style="italic" lengthAdjust="spacing" textLength="51" x="1032.5" y="893.2852">&#171;Entity&#187;</text><text fill="#000000" font-family="sans-serif" font-size="14" lengthAdjust="spacing" textLength="46" x="1035" y="911.9063">: Board</text><text fill="#000000" font-family="sans-serif" font-size="14" font-style="italic" lengthAdjust="spacing" textLength="84" x="1115.5" y="110.3496">&#171;Repository&#187;</text><text fill="#000000" font-family="sans-serif" font-size="14" lengthAdjust="spacing" textLength="114" x="1100.5" y="128.9707">: BoardRepository</text><path d="M1142.5,59.2422 C1142.5,49.2422 1160.5,49.2422 1160.5,49.2422 C1160.5,49.2422 1178.5,49.2422 1178.5,59.2422 L1178.5,85.2422 C1178.5,95.2422 1160.5,95.2422 1160.5,95.2422 C1160.5,95.2422 1142.5,95.2422 1142.5,85.2422 L1142.5,59.2422 " fill="#E2E2F0" style="stroke:#181818;stroke-width:1.5;"/><path d="M1142.5,59.2422 C1142.5,69.2422 1160.5,69.2422 1160.5,69.2422 C1160.5,69.2422 1178.5,69.2422 1178.5,59.2422 " fill="none" style="stroke:#181818;stroke-width:1.5;"/><text fill="#000000" font-family="sans-serif" font-size="14" font-style="italic" lengthAdjust="spacing" textLength="84" x="1115.5" y="886.2852">&#171;Repository&#187;</text><text fill="#000000" font-family="sans-serif" font-size="14" lengthAdjust="spacing" textLength="114" x="1100.5" y="904.9063">: BoardRepository</text><path d="M1142.5,918.4199 C1142.5,908.4199 1160.5,908.4199 1160.5,908.4199 C1160.5,908.4199 1178.5,908.4199 1178.5,918.4199 L1178.5,944.4199 C1178.5,954.4199 1160.5,954.4199 1160.5,954.4199 C1160.5,954.4199 1142.5,954.4199 1142.5,944.4199 L1142.5,918.4199 " fill="#E2E2F0" style="stroke:#181818;stroke-width:1.5;"/><path d="M1142.5,918.4199 C1142.5,928.4199 1160.5,928.4199 1160.5,928.4199 C1160.5,928.4199 1178.5,928.4199 1178.5,918.4199 " fill="none" style="stroke:#181818;stroke-width:1.5;"/><rect fill="#FFFFFF" height="720.6934" style="stroke:#181818;stroke-width:1.0;" width="10" x="49.5" y="142.4844"/><rect fill="#FFFFFF" height="31.291" style="stroke:#181818;stroke-width:1.0;" width="10" x="173" y="165.7754"/><rect fill="#FFFFFF" height="31.291" style="stroke:#181818;stroke-width:1.0;" width="10" x="503" y="228.3574"/><rect fill="#FFFFFF" height="31.291" style="stroke:#181818;stroke-width:1.0;" width="10" x="503" y="791.5957"/><rect fill="#FFFFFF" height="219.0371" style="stroke:#181818;stroke-width:1.0;" width="10" x="686.5" y="290.9395"/><rect fill="#FFFFFF" height="219.0371" style="stroke:#181818;stroke-width:1.0;" width="10" x="686.5" y="541.2676"/><rect fill="#FFFFFF" height="156.4551" style="stroke:#181818;stroke-width:1.0;" width="10" x="902.5" y="322.2305"/><rect fill="#FFFFFF" height="156.4551" style="stroke:#181818;stroke-width:1.0;" width="10" x="902.5" y="572.5586"/><rect fill="#FFFFFF" height="31.291" style="stroke:#181818;stroke-width:1.0;" width="10" x="1053" y="416.1035"/><rect fill="#FFFFFF" height="31.291" style="stroke:#181818;stroke-width:1.0;" width="10" x="1053" y="666.4316"/><polygon fill="#181818" points="161,161.7754,171,165.7754,161,169.7754,165,165.7754" style="stroke:#181818;stroke-width:1.0;"/><line style="stroke:#181818;stroke-width:1.0;" x1="59.5" x2="167" y1="165.7754" y2="165.7754"/><text fill="#000000" font-family="sans-serif" font-size="13" font-weight="bold" lengthAdjust="spacing" textLength="7" x="66.5" y="160.5127">1</text><text fill="#000000" font-family="sans-serif" font-size="13" lengthAdjust="spacing" textLength="57" x="77.5" y="160.5127">readUTF()</text><polygon fill="#181818" points="70.5,193.0664,60.5,197.0664,70.5,201.0664,66.5,197.0664" style="stroke:#181818;stroke-width:1.0;"/><line style="stroke:#181818;stroke-width:1.0;stroke-dasharray:2.0,2.0;" x1="64.5" x2="177" y1="197.0664" y2="197.0664"/><text fill="#000000" font-family="sans-serif" font-size="13" font-weight="bold" lengthAdjust="spacing" textLength="7" x="76.5" y="191.8037">2</text><text fill="#000000" font-family="sans-serif" font-size="13" lengthAdjust="spacing" textLength="53" x="87.5" y="191.8037">message</text><polygon fill="#181818" points="491,224.3574,501,228.3574,491,232.3574,495,228.3574" style="stroke:#181818;stroke-width:1.0;"/><line style="stroke:#181818;stroke-width:1.0;" x1="59.5" x2="497" y1="228.3574" y2="228.3574"/><text fill="#000000" font-family="sans-serif" font-size="13" font-weight="bold" lengthAdjust="spacing" textLength="7" x="66.5" y="223.0947">3</text><text fill="#000000" font-family="sans-serif" font-size="13" lengthAdjust="spacing" textLength="148" x="77.5" y="223.0947">decodeParams(message)</text><polygon fill="#181818" points="70.5,255.6484,60.5,259.6484,70.5,263.6484,66.5,259.6484" style="stroke:#181818;stroke-width:1.0;"/><line style="stroke:#181818;stroke-width:1.0;stroke-dasharray:2.0,2.0;" x1="64.5" x2="507" y1="259.6484" y2="259.6484"/><text fill="#000000" font-family="sans-serif" font-size="13" font-weight="bold" lengthAdjust="spacing" textLength="7" x="76.5" y="254.3857">4</text><text fill="#000000" font-family="sans-serif" font-size="13" lengthAdjust="spacing" textLength="43" x="87.5" y="254.3857">params</text><polygon fill="#181818" points="674.5,286.9395,684.5,290.9395,674.5,294.9395,678.5,290.9395" style="stroke:#181818;stroke-width:1.0;"/><line style="stroke:#181818;stroke-width:1.0;" x1="59.5" x2="680.5" y1="290.9395" y2="290.9395"/><text fill="#000000" font-family="sans-serif" font-size="13" font-weight="bold" lengthAdjust="spacing" textLength="7" x="66.5" y="285.6768">5</text><text fill="#000000" font-family="sans-serif" font-size="13" lengthAdjust="spacing" textLength="155" x="77.5" y="285.6768">getMaxColumn(boardTittle)</text><polygon fill="#181818" points="890.5,318.2305,900.5,322.2305,890.5,326.2305,894.5,322.2305" style="stroke:#181818;stroke-width:1.0;"/><line style="stroke:#181818;stroke-width:1.0;" x1="696.5" x2="896.5" y1="322.2305" y2="322.2305"/><text fill="#000000" font-family="sans-serif" font-size="13" font-weight="bold" lengthAdjust="spacing" textLength="7" x="703.5" y="316.9678">6</text><text fill="#000000" font-family="sans-serif" font-size="13" lengthAdjust="spacing" textLength="155" x="714.5" y="316.9678">getMaxColumn(boardTittle)</text><polygon fill="#181818" points="1148.5,349.5215,1158.5,353.5215,1148.5,357.5215,1152.5,353.5215" style="stroke:#181818;stroke-width:1.0;"/><line style="stroke:#181818;stroke-width:1.0;" x1="912.5" x2="1154.5" y1="353.5215" y2="353.5215"/><text fill="#000000" font-family="sans-serif" font-size="13" font-weight="bold" lengthAdjust="spacing" textLength="7" x="919.5" y="348.2588">7</text><text fill="#000000" font-family="sans-serif" font-size="13" lengthAdjust="spacing" textLength="162" x="930.5" y="348.2588">findBoardByTitle(boardTittle)</text><polygon fill="#181818" points="923.5,380.8125,913.5,384.8125,923.5,388.8125,919.5,384.8125" style="stroke:#181818;stroke-width:1.0;"/><line style="stroke:#181818;stroke-width:1.0;" x1="917.5" x2="1159.5" y1="384.8125" y2="384.8125"/><text fill="#000000" font-family="sans-serif" font-size="13" font-weight="bold" lengthAdjust="spacing" textLength="7" x="929.5" y="379.5498">8</text><text fill="#000000" font-family="sans-serif" font-size="13" lengthAdjust="spacing" textLength="32" x="940.5" y="379.5498">board</text><polygon fill="#181818" points="1041,412.1035,1051,416.1035,1041,420.1035,1045,416.1035" style="stroke:#181818;stroke-width:1.0;"/><line style="stroke:#181818;stroke-width:1.0;" x1="912.5" x2="1047" y1="416.1035" y2="416.1035"/><text fill="#000000" font-family="sans-serif" font-size="13" font-weight="bold" lengthAdjust="spacing" textLength="7" x="919.5" y="410.8408">9</text><text fill="#000000" font-family="sans-serif" font-size="13" lengthAdjust="spacing" textLength="77" x="930.5" y="410.8408">maxColumn()</text><polygon fill="#181818" points="923.5,443.3945,913.5,447.3945,923.5,451.3945,919.5,447.3945" style="stroke:#181818;stroke-width:1.0;"/><line style="stroke:#181818;stroke-width:1.0;stroke-dasharray:2.0,2.0;" x1="917.5" x2="1057" y1="447.3945" y2="447.3945"/><text fill="#000000" font-family="sans-serif" font-size="13" font-weight="bold" lengthAdjust="spacing" textLength="14" x="929.5" y="442.1318">10</text><text fill="#000000" font-family="sans-serif" font-size="13" lengthAdjust="spacing" textLength="69" x="947.5" y="442.1318">maxColumn</text><polygon fill="#181818" points="707.5,474.6855,697.5,478.6855,707.5,482.6855,703.5,478.6855" style="stroke:#181818;stroke-width:1.0;"/><line style="stroke:#181818;stroke-width:1.0;stroke-dasharray:2.0,2.0;" x1="701.5" x2="906.5" y1="478.6855" y2="478.6855"/><text fill="#000000" font-family="sans-serif" font-size="13" font-weight="bold" lengthAdjust="spacing" textLength="14" x="713.5" y="473.4229">11</text><text fill="#000000" font-family="sans-serif" font-size="13" lengthAdjust="spacing" textLength="69" x="731.5" y="473.4229">maxColumn</text><polygon fill="#181818" points="70.5,505.9766,60.5,509.9766,70.5,513.9766,66.5,509.9766" style="stroke:#181818;stroke-width:1.0;"/><line style="stroke:#181818;stroke-width:1.0;stroke-dasharray:2.0,2.0;" x1="64.5" x2="690.5" y1="509.9766" y2="509.9766"/><text fill="#000000" font-family="sans-serif" font-size="13" font-weight="bold" lengthAdjust="spacing" textLength="14" x="76.5" y="504.7139">12</text><text fill="#000000" font-family="sans-serif" font-size="13" lengthAdjust="spacing" textLength="69" x="94.5" y="504.7139">maxColumn</text><polygon fill="#181818" points="674.5,537.2676,684.5,541.2676,674.5,545.2676,678.5,541.2676" style="stroke:#181818;stroke-width:1.0;"/><line style="stroke:#181818;stroke-width:1.0;" x1="59.5" x2="680.5" y1="541.2676" y2="541.2676"/><text fill="#000000" font-family="sans-serif" font-size="13" font-weight="bold" lengthAdjust="spacing" textLength="14" x="66.5" y="536.0049">13</text><text fill="#000000" font-family="sans-serif" font-size="13" lengthAdjust="spacing" textLength="136" x="84.5" y="536.0049">getMaxRow(boardTittle)</text><polygon fill="#181818" points="890.5,568.5586,900.5,572.5586,890.5,576.5586,894.5,572.5586" style="stroke:#181818;stroke-width:1.0;"/><line style="stroke:#181818;stroke-width:1.0;" x1="696.5" x2="896.5" y1="572.5586" y2="572.5586"/><text fill="#000000" font-family="sans-serif" font-size="13" font-weight="bold" lengthAdjust="spacing" textLength="14" x="703.5" y="567.2959">14</text><text fill="#000000" font-family="sans-serif" font-size="13" lengthAdjust="spacing" textLength="136" x="721.5" y="567.2959">getMaxRow(boardTittle)</text><polygon fill="#181818" points="1148.5,599.8496,1158.5,603.8496,1148.5,607.8496,1152.5,603.8496" style="stroke:#181818;stroke-width:1.0;"/><line style="stroke:#181818;stroke-width:1.0;" x1="912.5" x2="1154.5" y1="603.8496" y2="603.8496"/><text fill="#000000" font-family="sans-serif" font-size="13" font-weight="bold" lengthAdjust="spacing" textLength="14" x="919.5" y="598.5869">15</text><text fill="#000000" font-family="sans-serif" font-size="13" lengthAdjust="spacing" textLength="162" x="937.5" y="598.5869">findBoardByTitle(boardTittle)</text><polygon fill="#181818" points="923.5,631.1406,913.5,635.1406,923.5,639.1406,919.5,635.1406" style="stroke:#181818;stroke-width:1.0;"/><line style="stroke:#181818;stroke-width:1.0;" x1="917.5" x2="1159.5" y1="635.1406" y2="635.1406"/><text fill="#000000" font-family="sans-serif" font-size="13" font-weight="bold" lengthAdjust="spacing" textLength="14" x="929.5" y="629.8779">16</text><text fill="#000000" font-family="sans-serif" font-size="13" lengthAdjust="spacing" textLength="32" x="947.5" y="629.8779">board</text><polygon fill="#181818" points="1041,662.4316,1051,666.4316,1041,670.4316,1045,666.4316" style="stroke:#181818;stroke-width:1.0;"/><line style="stroke:#181818;stroke-width:1.0;" x1="912.5" x2="1047" y1="666.4316" y2="666.4316"/><text fill="#000000" font-family="sans-serif" font-size="13" font-weight="bold" lengthAdjust="spacing" textLength="14" x="919.5" y="661.1689">17</text><text fill="#000000" font-family="sans-serif" font-size="13" lengthAdjust="spacing" textLength="58" x="937.5" y="661.1689">maxRow()</text><polygon fill="#181818" points="923.5,693.7227,913.5,697.7227,923.5,701.7227,919.5,697.7227" style="stroke:#181818;stroke-width:1.0;"/><line style="stroke:#181818;stroke-width:1.0;stroke-dasharray:2.0,2.0;" x1="917.5" x2="1057" y1="697.7227" y2="697.7227"/><text fill="#000000" font-family="sans-serif" font-size="13" font-weight="bold" lengthAdjust="spacing" textLength="14" x="929.5" y="692.46">18</text><text fill="#000000" font-family="sans-serif" font-size="13" lengthAdjust="spacing" textLength="50" x="947.5" y="692.46">maxRow</text><polygon fill="#181818" points="707.5,725.0137,697.5,729.0137,707.5,733.0137,703.5,729.0137" style="stroke:#181818;stroke-width:1.0;"/><line style="stroke:#181818;stroke-width:1.0;stroke-dasharray:2.0,2.0;" x1="701.5" x2="906.5" y1="729.0137" y2="729.0137"/><text fill="#000000" font-family="sans-serif" font-size="13" font-weight="bold" lengthAdjust="spacing" textLength="14" x="713.5" y="723.751">19</text><text fill="#000000" font-family="sans-serif" font-size="13" lengthAdjust="spacing" textLength="50" x="731.5" y="723.751">maxRow</text><polygon fill="#181818" points="70.5,756.3047,60.5,760.3047,70.5,764.3047,66.5,760.3047" style="stroke:#181818;stroke-width:1.0;"/><line style="stroke:#181818;stroke-width:1.0;stroke-dasharray:2.0,2.0;" x1="64.5" x2="690.5" y1="760.3047" y2="760.3047"/><text fill="#000000" font-family="sans-serif" font-size="13" font-weight="bold" lengthAdjust="spacing" textLength="14" x="76.5" y="755.042">20</text><text fill="#000000" font-family="sans-serif" font-size="13" lengthAdjust="spacing" textLength="50" x="94.5" y="755.042">maxRow</text><polygon fill="#181818" points="491,787.5957,501,791.5957,491,795.5957,495,791.5957" style="stroke:#181818;stroke-width:1.0;"/><line style="stroke:#181818;stroke-width:1.0;" x1="59.5" x2="497" y1="791.5957" y2="791.5957"/><text fill="#000000" font-family="sans-serif" font-size="13" font-weight="bold" lengthAdjust="spacing" textLength="14" x="66.5" y="786.333">21</text><text fill="#000000" font-family="sans-serif" font-size="13" lengthAdjust="spacing" textLength="338" x="84.5" y="786.333">createShowNumberOfCellsRequest(maxColumn, maxRow)</text><polygon fill="#181818" points="70.5,818.8867,60.5,822.8867,70.5,826.8867,66.5,822.8867" style="stroke:#181818;stroke-width:1.0;"/><line style="stroke:#181818;stroke-width:1.0;stroke-dasharray:2.0,2.0;" x1="64.5" x2="507" y1="822.8867" y2="822.8867"/><text fill="#000000" font-family="sans-serif" font-size="13" font-weight="bold" lengthAdjust="spacing" textLength="14" x="76.5" y="817.624">22</text><text fill="#000000" font-family="sans-serif" font-size="13" lengthAdjust="spacing" textLength="165" x="94.5" y="817.624">showNumberOfCellsRequest</text><polygon fill="#181818" points="340.5,850.1777,350.5,854.1777,340.5,858.1777,344.5,854.1777" style="stroke:#181818;stroke-width:1.0;"/><line style="stroke:#181818;stroke-width:1.0;" x1="59.5" x2="346.5" y1="854.1777" y2="854.1777"/><text fill="#000000" font-family="sans-serif" font-size="13" font-weight="bold" lengthAdjust="spacing" textLength="14" x="66.5" y="848.915">23</text><text fill="#000000" font-family="sans-serif" font-size="13" lengthAdjust="spacing" textLength="251" x="84.5" y="848.915">writeUTF(showNumberOfCellsRequestRCV)</text><!--SRC=[hPJTRgCm48NlUGehLwcqVG5K8GMwaIAr6mJPlP_0fBK4Dck6PlFsEsCJId_ITgMzPFoTiS_n61Z8cg7TeuiYqjIWAX_jKMNODEg7hwjhBe73EhNWwXBTax0TEDALxi2GMiHgHOIcpXgDXXOAUhNArCtDgkiQNG5fQvBajUGM23Qc6wWaXz1wrUscV0_R3lIAsxxXoZI_nxw71rnRrq8uXHJNKMKDETkeXLWJPnjpy0oVAmjh3Jelo7R57H_S6vxvJPBFt4ZR0dyFsDEikwXrXQ5rNahdK7dRmE_cmPInxuOluyHKpVRtqEE45DZPNfDrfm0NJ3_NM151HVe92FaE8hw6wqHYLR7YzEgVk_NowfcGl1tIu8ngGtYZmWV7cXehMsCE3jf-EI8pVSXtxD1vQcpWWupL0z8z_CbiCxHckPVpxpJnbCrw21bvN6Hv-KLLNaO2iuOZYDL1cp2WwMadO_nIniZKt2-SjHnshDffhza6wHJCUVKBXVVC5_Ruhyu_aFnVsxBH1S-yzE7NopcfUBW8vNs5dyRs80-Y7r_4SahesoY_D4FzXGxdGTwAbQFJX3B9b-WY-tKL_GK0]--></g></svg>