<?xml version="1.0" encoding="us-ascii" standalone="no"?><svg xmlns="http://www.w3.org/2000/svg" xmlns:xlink="http://www.w3.org/1999/xlink" contentStyleType="text/css" height="1318.8px" preserveAspectRatio="none" style="width:1806px;height:1318px;background:#FFFFFF;" version="1.1" viewBox="0 0 1806 1318" width="1806px" zoomAndPan="magnify"><defs/><g><rect fill="#FFFFFF" height="1143.1781" style="stroke:#181818;stroke-width:0.6;" width="6" x="18.6" y="94.4672"/><rect fill="#FFFFFF" height="842.359" style="stroke:#181818;stroke-width:0.6;" width="6" x="192.6" y="94.4672"/><rect fill="#FFFFFF" height="18.7746" style="stroke:#181818;stroke-width:0.6;" width="6" x="192.6" y="965.9754"/><rect fill="#FFFFFF" height="234.1207" style="stroke:#181818;stroke-width:0.6;" width="6" x="192.6" y="1003.5246"/><rect fill="#FFFFFF" height="112.6477" style="stroke:#181818;stroke-width:0.6;" width="6" x="375.6" y="113.2418"/><rect fill="#FFFFFF" height="663.0129" style="stroke:#181818;stroke-width:0.6;" width="6" x="375.6" y="244.6641"/><rect fill="#FFFFFF" height="186.1969" style="stroke:#181818;stroke-width:0.6;" width="6" x="375.6" y="1022.2992"/><rect fill="#FFFFFF" height="93.873" style="stroke:#181818;stroke-width:0.6;" width="6" x="558.6" y="132.0164"/><rect fill="#FFFFFF" height="625.4637" style="stroke:#181818;stroke-width:0.6;" width="6" x="558.6" y="263.4387"/><rect fill="#FFFFFF" height="167.4223" style="stroke:#181818;stroke-width:0.6;" width="6" x="558.6" y="1041.0738"/><rect fill="#FFFFFF" height="18.7746" style="stroke:#181818;stroke-width:0.6;" width="6" x="683.4" y="150.791"/><rect fill="#FFFFFF" height="37.5492" style="stroke:#181818;stroke-width:0.6;" width="6" x="784.5" y="188.3402"/><rect fill="#FFFFFF" height="18" style="stroke:#181818;stroke-width:0.6;" width="6" x="915" y="847.9277"/><rect fill="#FFFFFF" height="456.0668" style="stroke:#181818;stroke-width:0.6;" width="6" x="1026" y="373.0863"/><rect fill="#FFFFFF" height="56.3238" style="stroke:#181818;stroke-width:0.6;" width="6" x="1026" y="1078.623"/><rect fill="#FFFFFF" height="37.5492" style="stroke:#181818;stroke-width:0.6;" width="6" x="1131.6" y="282.2133"/><rect fill="#FFFFFF" height="18.7746" style="stroke:#181818;stroke-width:0.6;" width="6" x="1131.6" y="1097.3977"/><rect fill="#FFFFFF" height="18" style="stroke:#181818;stroke-width:0.6;" width="6" x="1131.6" y="1190.4961"/><rect fill="#FFFFFF" height="18" style="stroke:#181818;stroke-width:0.6;" width="6" x="1322.4" y="485.734"/><rect fill="#FFFFFF" height="18" style="stroke:#181818;stroke-width:0.6;" width="6" x="1322.4" y="597.607"/><rect fill="#FFFFFF" height="18" style="stroke:#181818;stroke-width:0.6;" width="6" x="1322.4" y="736.0547"/><rect fill="#FFFFFF" height="37.5492" style="stroke:#181818;stroke-width:0.6;" width="6" x="1322.4" y="772.8293"/><rect fill="#FFFFFF" height="56.3238" style="stroke:#181818;stroke-width:0.6;" width="6" x="1401.9" y="410.6355"/><rect fill="#FFFFFF" height="56.3238" style="stroke:#181818;stroke-width:0.6;" width="6" x="1401.9" y="522.5086"/><rect fill="#FFFFFF" height="82.8984" style="stroke:#181818;stroke-width:0.6;" width="6" x="1401.9" y="634.3816"/><rect fill="#FFFFFF" height="18" style="stroke:#181818;stroke-width:0.6;" width="6" x="1401.9" y="1153.7215"/><rect fill="#FFFFFF" height="18.7746" style="stroke:#181818;stroke-width:0.6;" width="6" x="1503.3" y="541.2832"/><rect fill="#FFFFFF" height="18.7746" style="stroke:#181818;stroke-width:0.6;" width="6" x="1569.6" y="429.4102"/><rect fill="#FFFFFF" height="45.3492" style="stroke:#181818;stroke-width:0.6;" width="6" x="1639.8" y="653.1563"/><rect fill="none" height="523.1906" style="stroke:#000000;stroke-width:0.8999999999999999;" width="1323.6" x="478.8" y="347.5371"/><line style="stroke:#181818;stroke-width:0.3;stroke-dasharray:5.0,5.0;" x1="21.6" x2="21.6" y1="64.118" y2="1248.4453"/><line style="stroke:#181818;stroke-width:0.3;stroke-dasharray:5.0,5.0;" x1="195.3" x2="195.3" y1="64.118" y2="1248.4453"/><line style="stroke:#181818;stroke-width:0.3;stroke-dasharray:5.0,5.0;" x1="378.3" x2="378.3" y1="64.118" y2="1248.4453"/><line style="stroke:#181818;stroke-width:0.3;stroke-dasharray:5.0,5.0;" x1="561.6" x2="561.6" y1="64.118" y2="1248.4453"/><line style="stroke:#181818;stroke-width:0.3;stroke-dasharray:5.0,5.0;" x1="686.4" x2="686.4" y1="64.118" y2="1248.4453"/><line style="stroke:#181818;stroke-width:0.3;stroke-dasharray:5.0,5.0;" x1="787.2" x2="787.2" y1="64.118" y2="1248.4453"/><line style="stroke:#181818;stroke-width:0.3;stroke-dasharray:5.0,5.0;" x1="918" x2="918" y1="64.118" y2="1248.4453"/><line style="stroke:#181818;stroke-width:0.3;stroke-dasharray:5.0,5.0;" x1="1029" x2="1029" y1="64.118" y2="1248.4453"/><line style="stroke:#181818;stroke-width:0.3;stroke-dasharray:5.0,5.0;" x1="1134.6" x2="1134.6" y1="64.118" y2="1248.4453"/><line style="stroke:#181818;stroke-width:0.3;stroke-dasharray:5.0,5.0;" x1="1227.6" x2="1227.6" y1="64.118" y2="1248.4453"/><line style="stroke:#181818;stroke-width:0.3;stroke-dasharray:5.0,5.0;" x1="1325.4" x2="1325.4" y1="64.118" y2="1248.4453"/><line style="stroke:#181818;stroke-width:0.3;stroke-dasharray:5.0,5.0;" x1="1404.6" x2="1404.6" y1="64.118" y2="1248.4453"/><line style="stroke:#181818;stroke-width:0.3;stroke-dasharray:5.0,5.0;" x1="1506" x2="1506" y1="64.118" y2="1248.4453"/><line style="stroke:#181818;stroke-width:0.3;stroke-dasharray:5.0,5.0;" x1="1572.6" x2="1572.6" y1="64.118" y2="1248.4453"/><line style="stroke:#181818;stroke-width:0.3;stroke-dasharray:5.0,5.0;" x1="1642.8" x2="1642.8" y1="64.118" y2="1248.4453"/><line style="stroke:#181818;stroke-width:0.3;stroke-dasharray:5.0,5.0;" x1="1737.6" x2="1737.6" y1="64.118" y2="1248.4453"/><text fill="#000000" font-family="sans-serif" font-size="8.4" lengthAdjust="spacing" textLength="33.6" x="3" y="62.0098">Manager</text><ellipse cx="21.6" cy="22.0453" fill="#E2E2F0" rx="4.8" ry="4.8" style="stroke:#181818;stroke-width:0.3;"/><path d="M21.6,26.8453 L21.6,43.0453 M13.8,31.6453 L29.4,31.6453 M21.6,43.0453 L13.8,52.0453 M21.6,43.0453 L29.4,52.0453 " fill="none" style="stroke:#181818;stroke-width:0.3;"/><text fill="#000000" font-family="sans-serif" font-size="8.4" lengthAdjust="spacing" textLength="33.6" x="3" y="1256.9098">Manager</text><ellipse cx="21.6" cy="1264.118" fill="#E2E2F0" rx="4.8" ry="4.8" style="stroke:#181818;stroke-width:0.3;"/><path d="M21.6,1268.918 L21.6,1285.118 M13.8,1273.718 L29.4,1273.718 M21.6,1285.118 L13.8,1294.118 M21.6,1285.118 L29.4,1294.118 " fill="none" style="stroke:#181818;stroke-width:0.3;"/><rect fill="#E2E2F0" height="30.7453" rx="1.5" ry="1.5" style="stroke:#181818;stroke-width:0.3;" width="132.6" x="129.3" y="32.7727"/><text fill="#000000" font-family="sans-serif" font-size="8.4" lengthAdjust="spacing" textLength="57.6" x="166.8" y="46.0371">&#171;Presentation&#187;</text><text fill="#000000" font-family="sans-serif" font-size="8.4" lengthAdjust="spacing" textLength="124.2" x="133.5" y="57.2098">:OpenCloseCourseEnrollmentsUI</text><rect fill="#E2E2F0" height="30.7453" rx="1.5" ry="1.5" style="stroke:#181818;stroke-width:0.3;" width="132.6" x="129.3" y="1247.8453"/><text fill="#000000" font-family="sans-serif" font-size="8.4" lengthAdjust="spacing" textLength="57.6" x="166.8" y="1261.1098">&#171;Presentation&#187;</text><text fill="#000000" font-family="sans-serif" font-size="8.4" lengthAdjust="spacing" textLength="124.2" x="133.5" y="1272.2824">:OpenCloseCourseEnrollmentsUI</text><text fill="#000000" font-family="sans-serif" font-size="8.4" lengthAdjust="spacing" textLength="51" x="351.3" y="50.8371">&#171;Application&#187;</text><text fill="#000000" font-family="sans-serif" font-size="8.4" lengthAdjust="spacing" textLength="154.2" x="299.7" y="62.0098">:OpenCloseCourseEnrollmentsController</text><ellipse cx="378.6" cy="32.1727" fill="#E2E2F0" rx="7.2" ry="7.2" style="stroke:#181818;stroke-width:0.3;"/><polygon fill="#181818" points="376.2,24.9727,379.8,21.9727,378.6,24.9727,379.8,27.9727,376.2,24.9727" style="stroke:#181818;stroke-width:0.6;"/><text fill="#000000" font-family="sans-serif" font-size="8.4" lengthAdjust="spacing" textLength="51" x="351.3" y="1256.9098">&#171;Application&#187;</text><text fill="#000000" font-family="sans-serif" font-size="8.4" lengthAdjust="spacing" textLength="154.2" x="299.7" y="1268.0824">:OpenCloseCourseEnrollmentsController</text><ellipse cx="378.6" cy="1279.7906" fill="#E2E2F0" rx="7.2" ry="7.2" style="stroke:#181818;stroke-width:0.3;"/><polygon fill="#181818" points="376.2,1272.5906,379.8,1269.5906,378.6,1272.5906,379.8,1275.5906,376.2,1272.5906" style="stroke:#181818;stroke-width:0.6;"/><rect fill="#E2E2F0" height="30.7453" rx="1.5" ry="1.5" style="stroke:#181818;stroke-width:0.3;" width="153.6" x="484.8" y="32.7727"/><text fill="#000000" font-family="sans-serif" font-size="8.4" lengthAdjust="spacing" textLength="37.8" x="542.7" y="46.0371">&#171;Service&#187;</text><text fill="#000000" font-family="sans-serif" font-size="8.4" lengthAdjust="spacing" textLength="145.2" x="489" y="57.2098">:OpenCloseCourseEnrollmentsService</text><rect fill="#E2E2F0" height="30.7453" rx="1.5" ry="1.5" style="stroke:#181818;stroke-width:0.3;" width="153.6" x="484.8" y="1247.8453"/><text fill="#000000" font-family="sans-serif" font-size="8.4" lengthAdjust="spacing" textLength="37.8" x="542.7" y="1261.1098">&#171;Service&#187;</text><text fill="#000000" font-family="sans-serif" font-size="8.4" lengthAdjust="spacing" textLength="145.2" x="489" y="1272.2824">:OpenCloseCourseEnrollmentsService</text><rect fill="#E2E2F0" height="30.7453" rx="1.5" ry="1.5" style="stroke:#181818;stroke-width:0.3;" width="84" x="644.4" y="32.7727"/><text fill="#000000" font-family="sans-serif" font-size="8.4" lengthAdjust="spacing" textLength="54" x="659.4" y="46.0371">&#171;Persistence&#187;</text><text fill="#000000" font-family="sans-serif" font-size="8.4" lengthAdjust="spacing" textLength="75.6" x="648.6" y="57.2098">:PersistenceContext</text><rect fill="#E2E2F0" height="30.7453" rx="1.5" ry="1.5" style="stroke:#181818;stroke-width:0.3;" width="84" x="644.4" y="1247.8453"/><text fill="#000000" font-family="sans-serif" font-size="8.4" lengthAdjust="spacing" textLength="54" x="659.4" y="1261.1098">&#171;Persistence&#187;</text><text fill="#000000" font-family="sans-serif" font-size="8.4" lengthAdjust="spacing" textLength="75.6" x="648.6" y="1272.2824">:PersistenceContext</text><rect fill="#E2E2F0" height="30.7453" rx="1.5" ry="1.5" style="stroke:#181818;stroke-width:0.3;" width="106.2" x="734.4" y="32.7727"/><text fill="#000000" font-family="sans-serif" font-size="8.4" lengthAdjust="spacing" textLength="38.4" x="768.3" y="46.0371">&#171;Factory&#187;</text><text fill="#000000" font-family="sans-serif" font-size="8.4" lengthAdjust="spacing" textLength="97.8" x="738.6" y="57.2098">factory:RepositoryFactory</text><rect fill="#E2E2F0" height="30.7453" rx="1.5" ry="1.5" style="stroke:#181818;stroke-width:0.3;" width="106.2" x="734.4" y="1247.8453"/><text fill="#000000" font-family="sans-serif" font-size="8.4" lengthAdjust="spacing" textLength="38.4" x="768.3" y="1261.1098">&#171;Factory&#187;</text><text fill="#000000" font-family="sans-serif" font-size="8.4" lengthAdjust="spacing" textLength="97.8" x="738.6" y="1272.2824">factory:RepositoryFactory</text><rect fill="#E2E2F0" height="41.918" rx="1.5" ry="1.5" style="stroke:#181818;stroke-width:0.3;" width="142.8" x="846.6" y="21.6"/><text fill="#000000" font-family="sans-serif" font-size="8.4" lengthAdjust="spacing" textLength="27.6" x="904.2" y="34.8645">&#171;DTO&#187;</text><text fill="#000000" font-family="sans-serif" font-size="8.4" lengthAdjust="spacing" textLength="120.6" x="857.7" y="46.0371">courseDTOWithIdTitleStatusList</text><text fill="#000000" font-family="sans-serif" font-size="8.4" lengthAdjust="spacing" textLength="134.4" x="850.8" y="57.2098">:List&lt;CourseDTOWithIdTitleStatus&gt;</text><rect fill="#E2E2F0" height="41.918" rx="1.5" ry="1.5" style="stroke:#181818;stroke-width:0.3;" width="142.8" x="846.6" y="1247.8453"/><text fill="#000000" font-family="sans-serif" font-size="8.4" lengthAdjust="spacing" textLength="27.6" x="904.2" y="1261.1098">&#171;DTO&#187;</text><text fill="#000000" font-family="sans-serif" font-size="8.4" lengthAdjust="spacing" textLength="120.6" x="857.7" y="1272.2824">courseDTOWithIdTitleStatusList</text><text fill="#000000" font-family="sans-serif" font-size="8.4" lengthAdjust="spacing" textLength="134.4" x="850.8" y="1283.4551">:List&lt;CourseDTOWithIdTitleStatus&gt;</text><rect fill="#E2E2F0" height="30.7453" rx="1.5" ry="1.5" style="stroke:#181818;stroke-width:0.3;" width="67.2" x="995.4" y="32.7727"/><text fill="#000000" font-family="sans-serif" font-size="8.4" lengthAdjust="spacing" textLength="27.6" x="1015.2" y="46.0371">&#171;DTO&#187;</text><text fill="#000000" font-family="sans-serif" font-size="8.4" lengthAdjust="spacing" textLength="58.8" x="999.6" y="57.2098">:CourseMapper</text><rect fill="#E2E2F0" height="30.7453" rx="1.5" ry="1.5" style="stroke:#181818;stroke-width:0.3;" width="67.2" x="995.4" y="1247.8453"/><text fill="#000000" font-family="sans-serif" font-size="8.4" lengthAdjust="spacing" textLength="27.6" x="1015.2" y="1261.1098">&#171;DTO&#187;</text><text fill="#000000" font-family="sans-serif" font-size="8.4" lengthAdjust="spacing" textLength="58.8" x="999.6" y="1272.2824">:CourseMapper</text><text fill="#000000" font-family="sans-serif" font-size="8.4" lengthAdjust="spacing" textLength="50.4" x="1107.6" y="39.6645">&#171;Repository&#187;</text><text fill="#000000" font-family="sans-serif" font-size="8.4" lengthAdjust="spacing" textLength="66.6" x="1099.5" y="50.8371">courseRepository</text><text fill="#000000" font-family="sans-serif" font-size="8.4" lengthAdjust="spacing" textLength="70.8" x="1097.4" y="62.0098">:CourseRepository</text><path d="M1123.8,9 C1123.8,3 1134.6,3 1134.6,3 C1134.6,3 1145.4,3 1145.4,9 L1145.4,24.6 C1145.4,30.6 1134.6,30.6 1134.6,30.6 C1134.6,30.6 1123.8,30.6 1123.8,24.6 L1123.8,9 " fill="#E2E2F0" style="stroke:#181818;stroke-width:0.8999999999999999;"/><path d="M1123.8,9 C1123.8,15 1134.6,15 1134.6,15 C1134.6,15 1145.4,15 1145.4,9 " fill="none" style="stroke:#181818;stroke-width:0.8999999999999999;"/><text fill="#000000" font-family="sans-serif" font-size="8.4" lengthAdjust="spacing" textLength="50.4" x="1107.6" y="1256.9098">&#171;Repository&#187;</text><text fill="#000000" font-family="sans-serif" font-size="8.4" lengthAdjust="spacing" textLength="66.6" x="1099.5" y="1268.0824">courseRepository</text><text fill="#000000" font-family="sans-serif" font-size="8.4" lengthAdjust="spacing" textLength="70.8" x="1097.4" y="1279.2551">:CourseRepository</text><path d="M1123.8,1287.3633 C1123.8,1281.3633 1134.6,1281.3633 1134.6,1281.3633 C1134.6,1281.3633 1145.4,1281.3633 1145.4,1287.3633 L1145.4,1302.9633 C1145.4,1308.9633 1134.6,1308.9633 1134.6,1308.9633 C1134.6,1308.9633 1123.8,1308.9633 1123.8,1302.9633 L1123.8,1287.3633 " fill="#E2E2F0" style="stroke:#181818;stroke-width:0.8999999999999999;"/><path d="M1123.8,1287.3633 C1123.8,1293.3633 1134.6,1293.3633 1134.6,1293.3633 C1134.6,1293.3633 1145.4,1293.3633 1145.4,1287.3633 " fill="none" style="stroke:#181818;stroke-width:0.8999999999999999;"/><rect fill="#E2E2F0" height="30.7453" rx="1.5" ry="1.5" style="stroke:#181818;stroke-width:0.3;" width="100.2" x="1177.8" y="32.7727"/><text fill="#000000" font-family="sans-serif" font-size="8.4" lengthAdjust="spacing" textLength="38.4" x="1208.7" y="46.0371">&#171;Domain&#187;</text><text fill="#000000" font-family="sans-serif" font-size="8.4" lengthAdjust="spacing" textLength="91.8" x="1182" y="57.2098">courseList:List&lt;Course&gt;</text><rect fill="#E2E2F0" height="30.7453" rx="1.5" ry="1.5" style="stroke:#181818;stroke-width:0.3;" width="100.2" x="1177.8" y="1247.8453"/><text fill="#000000" font-family="sans-serif" font-size="8.4" lengthAdjust="spacing" textLength="38.4" x="1208.7" y="1261.1098">&#171;Domain&#187;</text><text fill="#000000" font-family="sans-serif" font-size="8.4" lengthAdjust="spacing" textLength="91.8" x="1182" y="1272.2824">courseList:List&lt;Course&gt;</text><rect fill="#E2E2F0" height="41.918" rx="1.5" ry="1.5" style="stroke:#181818;stroke-width:0.3;" width="82.8" x="1284" y="21.6"/><text fill="#000000" font-family="sans-serif" font-size="8.4" lengthAdjust="spacing" textLength="27.6" x="1311.6" y="34.8645">&#171;DTO&#187;</text><text fill="#000000" font-family="sans-serif" font-size="8.4" lengthAdjust="spacing" textLength="70.2" x="1290.3" y="46.0371">courseDTOBuilder</text><text fill="#000000" font-family="sans-serif" font-size="8.4" lengthAdjust="spacing" textLength="74.4" x="1288.2" y="57.2098">:CourseDTOBuilder</text><rect fill="#E2E2F0" height="41.918" rx="1.5" ry="1.5" style="stroke:#181818;stroke-width:0.3;" width="82.8" x="1284" y="1247.8453"/><text fill="#000000" font-family="sans-serif" font-size="8.4" lengthAdjust="spacing" textLength="27.6" x="1311.6" y="1261.1098">&#171;DTO&#187;</text><text fill="#000000" font-family="sans-serif" font-size="8.4" lengthAdjust="spacing" textLength="70.2" x="1290.3" y="1272.2824">courseDTOBuilder</text><text fill="#000000" font-family="sans-serif" font-size="8.4" lengthAdjust="spacing" textLength="74.4" x="1288.2" y="1283.4551">:CourseDTOBuilder</text><rect fill="#E2E2F0" height="30.7453" rx="1.5" ry="1.5" style="stroke:#181818;stroke-width:0.3;" width="64.2" x="1372.8" y="32.7727"/><text fill="#000000" font-family="sans-serif" font-size="8.4" lengthAdjust="spacing" textLength="38.4" x="1385.7" y="46.0371">&#171;Domain&#187;</text><text fill="#000000" font-family="sans-serif" font-size="8.4" lengthAdjust="spacing" textLength="55.8" x="1377" y="57.2098">course:Course</text><rect fill="#E2E2F0" height="30.7453" rx="1.5" ry="1.5" style="stroke:#181818;stroke-width:0.3;" width="64.2" x="1372.8" y="1247.8453"/><text fill="#000000" font-family="sans-serif" font-size="8.4" lengthAdjust="spacing" textLength="38.4" x="1385.7" y="1261.1098">&#171;Domain&#187;</text><text fill="#000000" font-family="sans-serif" font-size="8.4" lengthAdjust="spacing" textLength="55.8" x="1377" y="1272.2824">course:Course</text><rect fill="#E2E2F0" height="30.7453" rx="1.5" ry="1.5" style="stroke:#181818;stroke-width:0.3;" width="52.2" x="1480.2" y="32.7727"/><text fill="#000000" font-family="sans-serif" font-size="8.4" lengthAdjust="spacing" textLength="40.8" x="1485.9" y="46.0371">&#171;Domain&#187;:</text><text fill="#000000" font-family="sans-serif" font-size="8.4" lengthAdjust="spacing" textLength="43.8" x="1484.4" y="57.2098">CourseTitle</text><rect fill="#E2E2F0" height="30.7453" rx="1.5" ry="1.5" style="stroke:#181818;stroke-width:0.3;" width="52.2" x="1480.2" y="1247.8453"/><text fill="#000000" font-family="sans-serif" font-size="8.4" lengthAdjust="spacing" textLength="40.8" x="1485.9" y="1261.1098">&#171;Domain&#187;:</text><text fill="#000000" font-family="sans-serif" font-size="8.4" lengthAdjust="spacing" textLength="43.8" x="1484.4" y="1272.2824">CourseTitle</text><rect fill="#E2E2F0" height="30.7453" rx="1.5" ry="1.5" style="stroke:#181818;stroke-width:0.3;" width="68.4" x="1538.4" y="32.7727"/><text fill="#000000" font-family="sans-serif" font-size="8.4" lengthAdjust="spacing" textLength="40.8" x="1552.2" y="46.0371">&#171;Domain&#187;:</text><text fill="#000000" font-family="sans-serif" font-size="8.4" lengthAdjust="spacing" textLength="60" x="1542.6" y="57.2098">CourseIdentifier</text><rect fill="#E2E2F0" height="30.7453" rx="1.5" ry="1.5" style="stroke:#181818;stroke-width:0.3;" width="68.4" x="1538.4" y="1247.8453"/><text fill="#000000" font-family="sans-serif" font-size="8.4" lengthAdjust="spacing" textLength="40.8" x="1552.2" y="1261.1098">&#171;Domain&#187;:</text><text fill="#000000" font-family="sans-serif" font-size="8.4" lengthAdjust="spacing" textLength="60" x="1542.6" y="1272.2824">CourseIdentifier</text><rect fill="#E2E2F0" height="30.7453" rx="1.5" ry="1.5" style="stroke:#181818;stroke-width:0.3;" width="60" x="1612.8" y="32.7727"/><text fill="#000000" font-family="sans-serif" font-size="8.4" lengthAdjust="spacing" textLength="40.8" x="1622.4" y="46.0371">&#171;Domain&#187;:</text><text fill="#000000" font-family="sans-serif" font-size="8.4" lengthAdjust="spacing" textLength="51.6" x="1617" y="57.2098">CourseStatus</text><rect fill="#E2E2F0" height="30.7453" rx="1.5" ry="1.5" style="stroke:#181818;stroke-width:0.3;" width="60" x="1612.8" y="1247.8453"/><text fill="#000000" font-family="sans-serif" font-size="8.4" lengthAdjust="spacing" textLength="40.8" x="1622.4" y="1261.1098">&#171;Domain&#187;:</text><text fill="#000000" font-family="sans-serif" font-size="8.4" lengthAdjust="spacing" textLength="51.6" x="1617" y="1272.2824">CourseStatus</text><rect fill="#E2E2F0" height="41.918" rx="1.5" ry="1.5" style="stroke:#181818;stroke-width:0.3;" width="117.6" x="1678.8" y="21.6"/><text fill="#000000" font-family="sans-serif" font-size="8.4" lengthAdjust="spacing" textLength="27.6" x="1723.8" y="34.8645">&#171;DTO&#187;</text><text fill="#000000" font-family="sans-serif" font-size="8.4" lengthAdjust="spacing" textLength="46.2" x="1714.5" y="46.0371">courseDTO:</text><text fill="#000000" font-family="sans-serif" font-size="8.4" lengthAdjust="spacing" textLength="109.2" x="1683" y="57.2098">CourseDTOWithIdTitleStatus</text><rect fill="#E2E2F0" height="41.918" rx="1.5" ry="1.5" style="stroke:#181818;stroke-width:0.3;" width="117.6" x="1678.8" y="1247.8453"/><text fill="#000000" font-family="sans-serif" font-size="8.4" lengthAdjust="spacing" textLength="27.6" x="1723.8" y="1261.1098">&#171;DTO&#187;</text><text fill="#000000" font-family="sans-serif" font-size="8.4" lengthAdjust="spacing" textLength="46.2" x="1714.5" y="1272.2824">courseDTO:</text><text fill="#000000" font-family="sans-serif" font-size="8.4" lengthAdjust="spacing" textLength="109.2" x="1683" y="1283.4551">CourseDTOWithIdTitleStatus</text><rect fill="#FFFFFF" height="1143.1781" style="stroke:#181818;stroke-width:0.6;" width="6" x="18.6" y="94.4672"/><rect fill="#FFFFFF" height="842.359" style="stroke:#181818;stroke-width:0.6;" width="6" x="192.6" y="94.4672"/><rect fill="#FFFFFF" height="18.7746" style="stroke:#181818;stroke-width:0.6;" width="6" x="192.6" y="965.9754"/><rect fill="#FFFFFF" height="234.1207" style="stroke:#181818;stroke-width:0.6;" width="6" x="192.6" y="1003.5246"/><rect fill="#FFFFFF" height="112.6477" style="stroke:#181818;stroke-width:0.6;" width="6" x="375.6" y="113.2418"/><rect fill="#FFFFFF" height="663.0129" style="stroke:#181818;stroke-width:0.6;" width="6" x="375.6" y="244.6641"/><rect fill="#FFFFFF" height="186.1969" style="stroke:#181818;stroke-width:0.6;" width="6" x="375.6" y="1022.2992"/><rect fill="#FFFFFF" height="93.873" style="stroke:#181818;stroke-width:0.6;" width="6" x="558.6" y="132.0164"/><rect fill="#FFFFFF" height="625.4637" style="stroke:#181818;stroke-width:0.6;" width="6" x="558.6" y="263.4387"/><rect fill="#FFFFFF" height="167.4223" style="stroke:#181818;stroke-width:0.6;" width="6" x="558.6" y="1041.0738"/><rect fill="#FFFFFF" height="18.7746" style="stroke:#181818;stroke-width:0.6;" width="6" x="683.4" y="150.791"/><rect fill="#FFFFFF" height="37.5492" style="stroke:#181818;stroke-width:0.6;" width="6" x="784.5" y="188.3402"/><rect fill="#FFFFFF" height="18" style="stroke:#181818;stroke-width:0.6;" width="6" x="915" y="847.9277"/><rect fill="#FFFFFF" height="456.0668" style="stroke:#181818;stroke-width:0.6;" width="6" x="1026" y="373.0863"/><rect fill="#FFFFFF" height="56.3238" style="stroke:#181818;stroke-width:0.6;" width="6" x="1026" y="1078.623"/><rect fill="#FFFFFF" height="37.5492" style="stroke:#181818;stroke-width:0.6;" width="6" x="1131.6" y="282.2133"/><rect fill="#FFFFFF" height="18.7746" style="stroke:#181818;stroke-width:0.6;" width="6" x="1131.6" y="1097.3977"/><rect fill="#FFFFFF" height="18" style="stroke:#181818;stroke-width:0.6;" width="6" x="1131.6" y="1190.4961"/><rect fill="#FFFFFF" height="18" style="stroke:#181818;stroke-width:0.6;" width="6" x="1322.4" y="485.734"/><rect fill="#FFFFFF" height="18" style="stroke:#181818;stroke-width:0.6;" width="6" x="1322.4" y="597.607"/><rect fill="#FFFFFF" height="18" style="stroke:#181818;stroke-width:0.6;" width="6" x="1322.4" y="736.0547"/><rect fill="#FFFFFF" height="37.5492" style="stroke:#181818;stroke-width:0.6;" width="6" x="1322.4" y="772.8293"/><rect fill="#FFFFFF" height="56.3238" style="stroke:#181818;stroke-width:0.6;" width="6" x="1401.9" y="410.6355"/><rect fill="#FFFFFF" height="56.3238" style="stroke:#181818;stroke-width:0.6;" width="6" x="1401.9" y="522.5086"/><rect fill="#FFFFFF" height="82.8984" style="stroke:#181818;stroke-width:0.6;" width="6" x="1401.9" y="634.3816"/><rect fill="#FFFFFF" height="18" style="stroke:#181818;stroke-width:0.6;" width="6" x="1401.9" y="1153.7215"/><rect fill="#FFFFFF" height="18.7746" style="stroke:#181818;stroke-width:0.6;" width="6" x="1503.3" y="541.2832"/><rect fill="#FFFFFF" height="18.7746" style="stroke:#181818;stroke-width:0.6;" width="6" x="1569.6" y="429.4102"/><rect fill="#FFFFFF" height="45.3492" style="stroke:#181818;stroke-width:0.6;" width="6" x="1639.8" y="653.1563"/><polygon fill="#181818" points="185.4,92.0672,191.4,94.4672,185.4,96.8672,187.8,94.4672" style="stroke:#181818;stroke-width:0.6;"/><line style="stroke:#181818;stroke-width:0.6;" x1="24.6" x2="189" y1="94.4672" y2="94.4672"/><text fill="#000000" font-family="sans-serif" font-size="7.8" lengthAdjust="spacing" textLength="123" x="28.8" y="80.935">The manager initializes the process</text><text fill="#000000" font-family="sans-serif" font-size="7.8" lengthAdjust="spacing" textLength="127.8" x="31.2" y="91.3096">of open/close the course enrollments</text><polygon fill="#181818" points="368.4,110.8418,374.4,113.2418,368.4,115.6418,370.8,113.2418" style="stroke:#181818;stroke-width:0.6;"/><line style="stroke:#181818;stroke-width:0.6;" x1="198.6" x2="372" y1="113.2418" y2="113.2418"/><text fill="#000000" font-family="sans-serif" font-size="7.8" lengthAdjust="spacing" textLength="26.4" x="202.8" y="110.0842">create()</text><polygon fill="#181818" points="551.4,129.6164,557.4,132.0164,551.4,134.4164,553.8,132.0164" style="stroke:#181818;stroke-width:0.6;"/><line style="stroke:#181818;stroke-width:0.6;" x1="381.6" x2="555" y1="132.0164" y2="132.0164"/><text fill="#000000" font-family="sans-serif" font-size="7.8" lengthAdjust="spacing" textLength="26.4" x="385.8" y="128.8588">create()</text><polygon fill="#181818" points="676.2,148.391,682.2,150.791,676.2,153.191,678.6,150.791" style="stroke:#181818;stroke-width:0.6;"/><line style="stroke:#181818;stroke-width:0.6;" x1="564.6" x2="679.8" y1="150.791" y2="150.791"/><text fill="#000000" font-family="sans-serif" font-size="7.8" lengthAdjust="spacing" textLength="40.2" x="568.8" y="147.6334">repositories</text><polygon fill="#181818" points="571.2,167.1656,565.2,169.5656,571.2,171.9656,568.8,169.5656" style="stroke:#181818;stroke-width:0.6;"/><line style="stroke:#181818;stroke-width:0.6;stroke-dasharray:2.0,2.0;" x1="567.6" x2="685.8" y1="169.5656" y2="169.5656"/><text fill="#000000" font-family="sans-serif" font-size="7.8" lengthAdjust="spacing" textLength="23.4" x="574.8" y="166.408">factory</text><polygon fill="#181818" points="777.3,185.9402,783.3,188.3402,777.3,190.7402,779.7,188.3402" style="stroke:#181818;stroke-width:0.6;"/><line style="stroke:#181818;stroke-width:0.6;" x1="564.6" x2="780.9" y1="188.3402" y2="188.3402"/><text fill="#000000" font-family="sans-serif" font-size="7.8" lengthAdjust="spacing" textLength="65.4" x="568.8" y="185.1826">courseRepository()</text><polygon fill="#181818" points="1127.4,204.7148,1133.4,207.1148,1127.4,209.5148,1129.8,207.1148" style="stroke:#181818;stroke-width:0.6;"/><line style="stroke:#181818;stroke-width:0.6;" x1="790.5" x2="1131" y1="207.1148" y2="207.1148"/><text fill="#000000" font-family="sans-serif" font-size="7.8" lengthAdjust="spacing" textLength="26.4" x="794.7" y="203.9572">create()</text><polygon fill="#181818" points="568.2,223.4895,562.2,225.8895,568.2,228.2895,565.8,225.8895" style="stroke:#181818;stroke-width:0.6;"/><line style="stroke:#181818;stroke-width:0.6;stroke-dasharray:2.0,2.0;" x1="564.6" x2="786.9" y1="225.8895" y2="225.8895"/><text fill="#000000" font-family="sans-serif" font-size="7.8" lengthAdjust="spacing" textLength="60.6" x="571.8" y="222.7318">courseRepository</text><polygon fill="#181818" points="368.4,242.2641,374.4,244.6641,368.4,247.0641,370.8,244.6641" style="stroke:#181818;stroke-width:0.6;"/><line style="stroke:#181818;stroke-width:0.6;" x1="198.6" x2="372" y1="244.6641" y2="244.6641"/><text fill="#000000" font-family="sans-serif" font-size="7.8" lengthAdjust="spacing" textLength="165.6" x="202.8" y="241.5064">listAllOpenCLoseEnrollmentsAvailableCourses()</text><polygon fill="#181818" points="551.4,261.0387,557.4,263.4387,551.4,265.8387,553.8,263.4387" style="stroke:#181818;stroke-width:0.6;"/><line style="stroke:#181818;stroke-width:0.6;" x1="381.6" x2="555" y1="263.4387" y2="263.4387"/><text fill="#000000" font-family="sans-serif" font-size="7.8" lengthAdjust="spacing" textLength="165.6" x="385.8" y="260.2811">listAllOpenCLoseEnrollmentsAvailableCourses()</text><polygon fill="#181818" points="1124.4,279.8133,1130.4,282.2133,1124.4,284.6133,1126.8,282.2133" style="stroke:#181818;stroke-width:0.6;"/><line style="stroke:#181818;stroke-width:0.6;" x1="564.6" x2="1128" y1="282.2133" y2="282.2133"/><text fill="#000000" font-family="sans-serif" font-size="7.8" lengthAdjust="spacing" textLength="165.6" x="568.8" y="279.0557">listAllOpenCLoseEnrollmentsAvailableCourses()</text><polygon fill="#181818" points="1220.7,298.5879,1226.7,300.9879,1220.7,303.3879,1223.1,300.9879" style="stroke:#181818;stroke-width:0.6;"/><line style="stroke:#181818;stroke-width:0.6;" x1="1137.6" x2="1224.3" y1="300.9879" y2="300.9879"/><text fill="#000000" font-family="sans-serif" font-size="7.8" lengthAdjust="spacing" textLength="26.4" x="1141.8" y="297.8303">create()</text><polygon fill="#181818" points="571.2,317.3625,565.2,319.7625,571.2,322.1625,568.8,319.7625" style="stroke:#181818;stroke-width:0.6;"/><line style="stroke:#181818;stroke-width:0.6;stroke-dasharray:2.0,2.0;" x1="567.6" x2="1134" y1="319.7625" y2="319.7625"/><text fill="#000000" font-family="sans-serif" font-size="7.8" lengthAdjust="spacing" textLength="36" x="574.8" y="316.6049">courseList</text><polygon fill="#181818" points="910.8,336.1371,916.8,338.5371,910.8,340.9371,913.2,338.5371" style="stroke:#181818;stroke-width:0.6;"/><line style="stroke:#181818;stroke-width:0.6;" x1="564.6" x2="914.4" y1="338.5371" y2="338.5371"/><text fill="#000000" font-family="sans-serif" font-size="7.8" lengthAdjust="spacing" textLength="26.4" x="568.8" y="335.3795">create()</text><path d="M478.8,347.5371 L522.6,347.5371 L522.6,353.1117 L516.6,359.1117 L478.8,359.1117 L478.8,347.5371 " fill="#EEEEEE" style="stroke:#000000;stroke-width:0.8999999999999999;"/><rect fill="none" height="523.1906" style="stroke:#000000;stroke-width:0.8999999999999999;" width="1323.6" x="478.8" y="347.5371"/><text fill="#000000" font-family="sans-serif" font-size="7.8" font-weight="bold" lengthAdjust="spacing" textLength="16.8" x="487.8" y="356.5541">loop</text><text fill="#000000" font-family="sans-serif" font-size="6.6" font-weight="bold" lengthAdjust="spacing" textLength="111" x="531.6" y="355.8592">[foreach course from courseList]</text><polygon fill="#181818" points="1018.8,370.6863,1024.8,373.0863,1018.8,375.4863,1021.2,373.0863" style="stroke:#181818;stroke-width:0.6;"/><line style="stroke:#181818;stroke-width:0.6;" x1="564.6" x2="1022.4" y1="373.0863" y2="373.0863"/><text fill="#000000" font-family="sans-serif" font-size="7.8" lengthAdjust="spacing" textLength="109.8" x="568.8" y="369.9287">toDTOWithIdTitleStatus(course)</text><polygon fill="#181818" points="1318.2,389.4609,1324.2,391.8609,1318.2,394.2609,1320.6,391.8609" style="stroke:#181818;stroke-width:0.6;"/><line style="stroke:#181818;stroke-width:0.6;" x1="1032" x2="1321.8" y1="391.8609" y2="391.8609"/><text fill="#000000" font-family="sans-serif" font-size="7.8" lengthAdjust="spacing" textLength="26.4" x="1036.2" y="388.7033">create()</text><polygon fill="#181818" points="1394.7,408.2355,1400.7,410.6355,1394.7,413.0355,1397.1,410.6355" style="stroke:#181818;stroke-width:0.6;"/><line style="stroke:#181818;stroke-width:0.6;" x1="1032" x2="1398.3" y1="410.6355" y2="410.6355"/><text fill="#000000" font-family="sans-serif" font-size="7.8" lengthAdjust="spacing" textLength="98.4" x="1036.2" y="407.4779">returnCourseIdentifierString()</text><polygon fill="#181818" points="1562.4,427.0102,1568.4,429.4102,1562.4,431.8102,1564.8,429.4102" style="stroke:#181818;stroke-width:0.6;"/><line style="stroke:#181818;stroke-width:0.6;" x1="1407.9" x2="1566" y1="429.4102" y2="429.4102"/><text fill="#000000" font-family="sans-serif" font-size="7.8" lengthAdjust="spacing" textLength="98.4" x="1412.1" y="426.2525">returnCourseIdentifierString()</text><polygon fill="#181818" points="1414.5,445.7848,1408.5,448.1848,1414.5,450.5848,1412.1,448.1848" style="stroke:#181818;stroke-width:0.6;"/><line style="stroke:#181818;stroke-width:0.6;stroke-dasharray:2.0,2.0;" x1="1410.9" x2="1572" y1="448.1848" y2="448.1848"/><text fill="#000000" font-family="sans-serif" font-size="7.8" lengthAdjust="spacing" textLength="29.4" x="1418.1" y="445.0271">courseId</text><polygon fill="#181818" points="1038.6,464.5594,1032.6,466.9594,1038.6,469.3594,1036.2,466.9594" style="stroke:#181818;stroke-width:0.6;"/><line style="stroke:#181818;stroke-width:0.6;stroke-dasharray:2.0,2.0;" x1="1035" x2="1404.3" y1="466.9594" y2="466.9594"/><text fill="#000000" font-family="sans-serif" font-size="7.8" lengthAdjust="spacing" textLength="29.4" x="1042.2" y="463.8018">courseId</text><polygon fill="#181818" points="1315.2,483.334,1321.2,485.734,1315.2,488.134,1317.6,485.734" style="stroke:#181818;stroke-width:0.6;"/><line style="stroke:#181818;stroke-width:0.6;" x1="1032" x2="1318.8" y1="485.734" y2="485.734"/><text fill="#000000" font-family="sans-serif" font-size="7.8" lengthAdjust="spacing" textLength="101.4" x="1036.2" y="482.5764">withCourseIdentifier(courseId)</text><polygon fill="#181818" points="1394.7,520.1086,1400.7,522.5086,1394.7,524.9086,1397.1,522.5086" style="stroke:#181818;stroke-width:0.6;"/><line style="stroke:#181818;stroke-width:0.6;" x1="1032" x2="1398.3" y1="522.5086" y2="522.5086"/><text fill="#000000" font-family="sans-serif" font-size="7.8" lengthAdjust="spacing" textLength="84" x="1036.2" y="519.351">returnCourseTitleString()</text><polygon fill="#181818" points="1496.1,538.8832,1502.1,541.2832,1496.1,543.6832,1498.5,541.2832" style="stroke:#181818;stroke-width:0.6;"/><line style="stroke:#181818;stroke-width:0.6;" x1="1407.9" x2="1499.7" y1="541.2832" y2="541.2832"/><text fill="#000000" font-family="sans-serif" font-size="7.8" lengthAdjust="spacing" textLength="84" x="1412.1" y="538.1256">returnCourseTitleString()</text><polygon fill="#181818" points="1414.5,557.6578,1408.5,560.0578,1414.5,562.4578,1412.1,560.0578" style="stroke:#181818;stroke-width:0.6;"/><line style="stroke:#181818;stroke-width:0.6;stroke-dasharray:2.0,2.0;" x1="1410.9" x2="1505.7" y1="560.0578" y2="560.0578"/><text fill="#000000" font-family="sans-serif" font-size="7.8" lengthAdjust="spacing" textLength="37.8" x="1418.1" y="556.9002">courseTitle</text><polygon fill="#181818" points="1038.6,576.4324,1032.6,578.8324,1038.6,581.2324,1036.2,578.8324" style="stroke:#181818;stroke-width:0.6;"/><line style="stroke:#181818;stroke-width:0.6;stroke-dasharray:2.0,2.0;" x1="1035" x2="1404.3" y1="578.8324" y2="578.8324"/><text fill="#000000" font-family="sans-serif" font-size="7.8" lengthAdjust="spacing" textLength="37.8" x="1042.2" y="575.6748">courseTitle</text><polygon fill="#181818" points="1315.2,595.207,1321.2,597.607,1315.2,600.007,1317.6,597.607" style="stroke:#181818;stroke-width:0.6;"/><line style="stroke:#181818;stroke-width:0.6;" x1="1032" x2="1318.8" y1="597.607" y2="597.607"/><text fill="#000000" font-family="sans-serif" font-size="7.8" lengthAdjust="spacing" textLength="95.4" x="1036.2" y="594.4494">withCourseTitle(courseTitle)</text><polygon fill="#181818" points="1394.7,631.9816,1400.7,634.3816,1394.7,636.7816,1397.1,634.3816" style="stroke:#181818;stroke-width:0.6;"/><line style="stroke:#181818;stroke-width:0.6;" x1="1032" x2="1398.3" y1="634.3816" y2="634.3816"/><text fill="#000000" font-family="sans-serif" font-size="7.8" lengthAdjust="spacing" textLength="92.4" x="1036.2" y="631.224">returnCourseStatusString()</text><polygon fill="#181818" points="1632.6,650.7563,1638.6,653.1563,1632.6,655.5563,1635,653.1563" style="stroke:#181818;stroke-width:0.6;"/><line style="stroke:#181818;stroke-width:0.6;" x1="1407.9" x2="1636.2" y1="653.1563" y2="653.1563"/><text fill="#000000" font-family="sans-serif" font-size="7.8" lengthAdjust="spacing" textLength="92.4" x="1412.1" y="649.9986">returnCourseStatusString()</text><line style="stroke:#181818;stroke-width:0.6;" x1="1645.8" x2="1671" y1="671.9309" y2="671.9309"/><line style="stroke:#181818;stroke-width:0.6;" x1="1671" x2="1671" y1="671.9309" y2="679.7309"/><line style="stroke:#181818;stroke-width:0.6;" x1="1646.4" x2="1671" y1="679.7309" y2="679.7309"/><polygon fill="#181818" points="1652.4,677.3309,1646.4,679.7309,1652.4,682.1309,1650,679.7309" style="stroke:#181818;stroke-width:0.6;"/><text fill="#000000" font-family="sans-serif" font-size="7.8" lengthAdjust="spacing" textLength="24" x="1650" y="668.7732">name()</text><polygon fill="#181818" points="1414.5,696.1055,1408.5,698.5055,1414.5,700.9055,1412.1,698.5055" style="stroke:#181818;stroke-width:0.6;"/><line style="stroke:#181818;stroke-width:0.6;stroke-dasharray:2.0,2.0;" x1="1410.9" x2="1642.2" y1="698.5055" y2="698.5055"/><text fill="#000000" font-family="sans-serif" font-size="7.8" lengthAdjust="spacing" textLength="46.2" x="1418.1" y="695.3479">courseStatus</text><polygon fill="#181818" points="1038.6,714.8801,1032.6,717.2801,1038.6,719.6801,1036.2,717.2801" style="stroke:#181818;stroke-width:0.6;"/><line style="stroke:#181818;stroke-width:0.6;stroke-dasharray:2.0,2.0;" x1="1035" x2="1404.3" y1="717.2801" y2="717.2801"/><text fill="#000000" font-family="sans-serif" font-size="7.8" lengthAdjust="spacing" textLength="46.2" x="1042.2" y="714.1225">courseStatus</text><polygon fill="#181818" points="1315.2,733.6547,1321.2,736.0547,1315.2,738.4547,1317.6,736.0547" style="stroke:#181818;stroke-width:0.6;"/><line style="stroke:#181818;stroke-width:0.6;" x1="1032" x2="1318.8" y1="736.0547" y2="736.0547"/><text fill="#000000" font-family="sans-serif" font-size="7.8" lengthAdjust="spacing" textLength="112.2" x="1036.2" y="732.8971">withCourseStatus(courseStatus)</text><polygon fill="#181818" points="1315.2,770.4293,1321.2,772.8293,1315.2,775.2293,1317.6,772.8293" style="stroke:#181818;stroke-width:0.6;"/><line style="stroke:#181818;stroke-width:0.6;" x1="1032" x2="1318.8" y1="772.8293" y2="772.8293"/><text fill="#000000" font-family="sans-serif" font-size="7.8" lengthAdjust="spacing" textLength="80.4" x="1036.2" y="769.6717">buildWithIdTitleStatus()</text><polygon fill="#181818" points="1730.4,789.2039,1736.4,791.6039,1730.4,794.0039,1732.8,791.6039" style="stroke:#181818;stroke-width:0.6;"/><line style="stroke:#181818;stroke-width:0.6;" x1="1328.4" x2="1734" y1="791.6039" y2="791.6039"/><text fill="#000000" font-family="sans-serif" font-size="7.8" lengthAdjust="spacing" textLength="26.4" x="1332.6" y="788.4463">create()</text><polygon fill="#181818" points="1038.6,807.9785,1032.6,810.3785,1038.6,812.7785,1036.2,810.3785" style="stroke:#181818;stroke-width:0.6;"/><line style="stroke:#181818;stroke-width:0.6;stroke-dasharray:2.0,2.0;" x1="1035" x2="1324.8" y1="810.3785" y2="810.3785"/><text fill="#000000" font-family="sans-serif" font-size="7.8" lengthAdjust="spacing" textLength="98.4" x="1042.2" y="807.2209">courseDTOWithIdTitleStatus</text><polygon fill="#181818" points="571.2,826.7531,565.2,829.1531,571.2,831.5531,568.8,829.1531" style="stroke:#181818;stroke-width:0.6;"/><line style="stroke:#181818;stroke-width:0.6;stroke-dasharray:2.0,2.0;" x1="567.6" x2="1028.4" y1="829.1531" y2="829.1531"/><text fill="#000000" font-family="sans-serif" font-size="7.8" lengthAdjust="spacing" textLength="98.4" x="574.8" y="825.9955">courseDTOWithIdTitleStatus</text><polygon fill="#181818" points="907.8,845.5277,913.8,847.9277,907.8,850.3277,910.2,847.9277" style="stroke:#181818;stroke-width:0.6;"/><line style="stroke:#181818;stroke-width:0.6;" x1="564.6" x2="911.4" y1="847.9277" y2="847.9277"/><text fill="#000000" font-family="sans-serif" font-size="7.8" lengthAdjust="spacing" textLength="115.8" x="568.8" y="844.7701">add(courseDTOWithIdTitleStatus)</text><polygon fill="#181818" points="388.2,886.5023,382.2,888.9023,388.2,891.3023,385.8,888.9023" style="stroke:#181818;stroke-width:0.6;"/><line style="stroke:#181818;stroke-width:0.6;stroke-dasharray:2.0,2.0;" x1="384.6" x2="561" y1="888.9023" y2="888.9023"/><text fill="#000000" font-family="sans-serif" font-size="7.8" lengthAdjust="spacing" textLength="51.6" x="391.8" y="885.7447">courseDTOList</text><polygon fill="#181818" points="205.2,905.277,199.2,907.677,205.2,910.077,202.8,907.677" style="stroke:#181818;stroke-width:0.6;"/><line style="stroke:#181818;stroke-width:0.6;stroke-dasharray:2.0,2.0;" x1="201.6" x2="378" y1="907.677" y2="907.677"/><text fill="#000000" font-family="sans-serif" font-size="7.8" lengthAdjust="spacing" textLength="51.6" x="208.8" y="904.5193">courseDTOList</text><polygon fill="#181818" points="31.2,934.4262,25.2,936.8262,31.2,939.2262,28.8,936.8262" style="stroke:#181818;stroke-width:0.6;"/><line style="stroke:#181818;stroke-width:0.6;stroke-dasharray:2.0,2.0;" x1="27.6" x2="195" y1="936.8262" y2="936.8262"/><text fill="#000000" font-family="sans-serif" font-size="7.8" lengthAdjust="spacing" textLength="144" x="34.8" y="923.2939">The system presents a list of the courses</text><text fill="#000000" font-family="sans-serif" font-size="7.8" lengthAdjust="spacing" textLength="150" x="34.8" y="933.6686">that are available to open/close enrollments</text><polygon fill="#181818" points="185.4,963.5754,191.4,965.9754,185.4,968.3754,187.8,965.9754" style="stroke:#181818;stroke-width:0.6;"/><line style="stroke:#181818;stroke-width:0.6;" x1="24.6" x2="189" y1="965.9754" y2="965.9754"/><text fill="#000000" font-family="sans-serif" font-size="7.8" lengthAdjust="spacing" textLength="112.8" x="28.8" y="952.4432">The Manager selects the Course</text><text fill="#000000" font-family="sans-serif" font-size="7.8" lengthAdjust="spacing" textLength="117.6" x="28.8" y="962.8178">whose Status he wants to change</text><polygon fill="#181818" points="31.2,982.35,25.2,984.75,31.2,987.15,28.8,984.75" style="stroke:#181818;stroke-width:0.6;"/><line style="stroke:#181818;stroke-width:0.6;stroke-dasharray:2.0,2.0;" x1="27.6" x2="195" y1="984.75" y2="984.75"/><text fill="#000000" font-family="sans-serif" font-size="7.8" lengthAdjust="spacing" textLength="153.6" x="34.8" y="981.5924">Displays the options close/open enrollments</text><polygon fill="#181818" points="185.4,1001.1246,191.4,1003.5246,185.4,1005.9246,187.8,1003.5246" style="stroke:#181818;stroke-width:0.6;"/><line style="stroke:#181818;stroke-width:0.6;" x1="24.6" x2="189" y1="1003.5246" y2="1003.5246"/><text fill="#000000" font-family="sans-serif" font-size="7.8" lengthAdjust="spacing" textLength="111" x="28.8" y="1000.367">Chooses the option (newStatus)</text><polygon fill="#181818" points="368.4,1019.8992,374.4,1022.2992,368.4,1024.6992,370.8,1022.2992" style="stroke:#181818;stroke-width:0.6;"/><line style="stroke:#181818;stroke-width:0.6;" x1="198.6" x2="372" y1="1022.2992" y2="1022.2992"/><text fill="#000000" font-family="sans-serif" font-size="7.8" lengthAdjust="spacing" textLength="163.8" x="202.8" y="1019.1416">changeStatus(selectedCourseDTO, newStatus)</text><polygon fill="#181818" points="551.4,1038.6738,557.4,1041.0738,551.4,1043.4738,553.8,1041.0738" style="stroke:#181818;stroke-width:0.6;"/><line style="stroke:#181818;stroke-width:0.6;" x1="381.6" x2="555" y1="1041.0738" y2="1041.0738"/><text fill="#000000" font-family="sans-serif" font-size="7.8" lengthAdjust="spacing" textLength="163.8" x="385.8" y="1037.9162">changeStatus(selectedCourseDTO, newStatus)</text><polygon fill="#181818" points="1565.4,1057.4484,1571.4,1059.8484,1565.4,1062.2484,1567.8,1059.8484" style="stroke:#181818;stroke-width:0.6;"/><line style="stroke:#181818;stroke-width:0.6;" x1="564.6" x2="1569" y1="1059.8484" y2="1059.8484"/><text fill="#000000" font-family="sans-serif" font-size="7.8" lengthAdjust="spacing" textLength="150.6" x="568.8" y="1056.6908">create(selectedCourseDTO.courseIdentifier)</text><polygon fill="#181818" points="1018.8,1076.223,1024.8,1078.623,1018.8,1081.023,1021.2,1078.623" style="stroke:#181818;stroke-width:0.6;"/><line style="stroke:#181818;stroke-width:0.6;" x1="564.6" x2="1022.4" y1="1078.623" y2="1078.623"/><text fill="#000000" font-family="sans-serif" font-size="7.8" lengthAdjust="spacing" textLength="153.6" x="568.8" y="1075.4654">toCourse(courseIdentifier, courseRepository)</text><polygon fill="#181818" points="1124.4,1094.9977,1130.4,1097.3977,1124.4,1099.7977,1126.8,1097.3977" style="stroke:#181818;stroke-width:0.6;"/><line style="stroke:#181818;stroke-width:0.6;" x1="1032" x2="1128" y1="1097.3977" y2="1097.3977"/><text fill="#000000" font-family="sans-serif" font-size="7.8" lengthAdjust="spacing" textLength="88.2" x="1036.2" y="1094.24">ofIdentity(courseIdentifier)</text><polygon fill="#181818" points="1038.6,1113.7723,1032.6,1116.1723,1038.6,1118.5723,1036.2,1116.1723" style="stroke:#181818;stroke-width:0.6;"/><line style="stroke:#181818;stroke-width:0.6;stroke-dasharray:2.0,2.0;" x1="1035" x2="1134" y1="1116.1723" y2="1116.1723"/><text fill="#000000" font-family="sans-serif" font-size="7.8" lengthAdjust="spacing" textLength="23.4" x="1042.2" y="1113.0146">course</text><polygon fill="#181818" points="571.2,1132.5469,565.2,1134.9469,571.2,1137.3469,568.8,1134.9469" style="stroke:#181818;stroke-width:0.6;"/><line style="stroke:#181818;stroke-width:0.6;stroke-dasharray:2.0,2.0;" x1="567.6" x2="1028.4" y1="1134.9469" y2="1134.9469"/><text fill="#000000" font-family="sans-serif" font-size="7.8" lengthAdjust="spacing" textLength="23.4" x="574.8" y="1131.7893">course</text><polygon fill="#181818" points="1394.7,1151.3215,1400.7,1153.7215,1394.7,1156.1215,1397.1,1153.7215" style="stroke:#181818;stroke-width:0.6;"/><line style="stroke:#181818;stroke-width:0.6;" x1="564.6" x2="1398.3" y1="1153.7215" y2="1153.7215"/><text fill="#000000" font-family="sans-serif" font-size="7.8" lengthAdjust="spacing" textLength="89.4" x="568.8" y="1150.5639">changeStatus(newStatus)</text><polygon fill="#181818" points="1124.4,1188.0961,1130.4,1190.4961,1124.4,1192.8961,1126.8,1190.4961" style="stroke:#181818;stroke-width:0.6;"/><line style="stroke:#181818;stroke-width:0.6;" x1="564.6" x2="1128" y1="1190.4961" y2="1190.4961"/><text fill="#000000" font-family="sans-serif" font-size="7.8" lengthAdjust="spacing" textLength="43.8" x="568.8" y="1187.3385">save(course)</text><polygon fill="#181818" points="28.2,1235.2453,22.2,1237.6453,28.2,1240.0453,25.8,1237.6453" style="stroke:#181818;stroke-width:0.6;"/><line style="stroke:#181818;stroke-width:0.6;stroke-dasharray:2.0,2.0;" x1="24.6" x2="195" y1="1237.6453" y2="1237.6453"/><text fill="#000000" font-family="sans-serif" font-size="7.8" lengthAdjust="spacing" textLength="127.2" x="31.8" y="1224.1131">The System changes the Status and</text><text fill="#000000" font-family="sans-serif" font-size="7.8" lengthAdjust="spacing" textLength="104.4" x="34.2" y="1234.4877">informs the operation success</text><!--SRC=[hLTDRziu4BthLn0zkK2plHj1WApI008i991Sx2KNHg9Z0Z8faBJJxA_VuOSaVaYLD-Z94ldcpV1fPZZ6ZU82bPZXDo8GbgZCUYmKRMYFcK9VRc-V1P64AQmePtTtBspxr1EMTroId9-593-Ou5rt0eZyMNpH53-BhE5CmRAsl-_xZZRNcEVMg2F2qEJxQXS7KnDneGrP8N8em_AK_wWloPc8a5GgmXoLzww38B-KiNtEOyD7hFNwq4O7-xYjICybrOzkqvXMZx7fm_v9cpKcM7ZvXwfZqUwfwaWDwfxb3YA0MFJFRRw8kZFqpOFYkmKFMsjSuhuVb2op5YlyYYNHk2dYAQ1fRIIObYn9bVZZ9qpPnA4ZzyEteUQxDIN-FjEk9M9qF2sviuxlQn4u0kjt2RnzOHPcL7MfjWekMiWiUg23fCMgXVrU5bslQJ1QpNtpKOOiAz7D7HGOsgBzaQ2JgrlAgAAue_yIYHIizu8tHCeNXlW1SQYJxuqk5BDdNI8obKi6UKilM14e_l4HYXZSW3DTXk2k4GIMDrydXAbFimieKsQpC5k0TX-0ppcWn91Qb7ZUeTnWzyPZSpMMjSG7ZLpLe_OO9Qll6weGCFeGbH-RNXkyf0I-Do3mtknHl0KZGI1J1-b_ttMcD-ruq9NkBvXs-BLp_KgkQlb9haXmS_JFXbLbOAv9WXJGQ_ut7wi_qAQQOZ3jocVeEE_HWSDhSnmoyY3uoUUQJb22gU9pbR6nU3_aCijBwtDi6q7iPjCceJgBfBfh9IXx2qJ8ScDI_1-R8WFyZVFKE7mWJv7PN3UdcqNC7kGT98ZzRmPpBmA_Qtga_lAy54xT9HNsLyBtaCwH00OQba-gGGfQaS4OR3pZFo62pQvb5UfhyNK6sC62uPD9mJeInbe7XwvJPMPGAz84DM9VFYDEIF-gdz92N23sRHsLNut1TdZSkNB_NPn9GreZq5DHy9QqAzoscsMkuCHw70k2qmk4jKXtke7Pkqq7rhXhskPjRuBXfby4ZzSF84it4iWFc6DFC06OgLqYR7g_dWEcor-Y5wQEM24i2C93_uSMwyyA_e3W-OIv89n1XlyEadIaKNR-iEa7NjwFcihgXM3Z7UkOm55pnEoD9EE6EyW3bNs7FomPx_L_1nY0T5ZVTOHNnPOVEPV4fq0RHjwJRvSCEYOobzNsKAGTPxDlQ8vZVXJw155yTnTJiIGCVpNHDV0rkJ8jTXC3loKppzm5QWO7Vh1cwcEJkeldXB20es5WjaQNAZ2FzPjLFUo5uSGZyONCJ0TL5DLLqvrNNhKjBnkRJIwNtPYrC6zJ1bFDQSWw8ip_NYJFZPx7erprtih_0000]--></g></svg>