<?xml version="1.0" encoding="us-ascii" standalone="no"?><svg xmlns="http://www.w3.org/2000/svg" xmlns:xlink="http://www.w3.org/1999/xlink" contentStyleType="text/css" height="518px" preserveAspectRatio="none" style="width:933px;height:518px;background:#FFFFFF;" version="1.1" viewBox="0 0 933 518" width="933px" zoomAndPan="magnify"><defs/><g><text fill="#000000" font-family="sans-serif" font-size="14" font-weight="bold" lengthAdjust="spacing" textLength="110" x="413.25" y="27.6738">Cancel Meeting</text><rect fill="#FFFFFF" height="287.7109" style="stroke:#181818;stroke-width:1.0;" width="10" x="17.5" y="128.9219"/><rect fill="#FFFFFF" height="267.1875" style="stroke:#181818;stroke-width:1.0;" width="10" x="214.5" y="149.4453"/><rect fill="#FFFFFF" height="201.1406" style="stroke:#181818;stroke-width:1.0;" width="10" x="418.5" y="177.9688"/><rect fill="#FFFFFF" height="172.6172" style="stroke:#181818;stroke-width:1.0;" width="10" x="622.5" y="206.4922"/><rect fill="#FFFFFF" height="28.5234" style="stroke:#181818;stroke-width:1.0;" width="10" x="754.5" y="292.0625"/><rect fill="#FFFFFF" height="28.5234" style="stroke:#181818;stroke-width:1.0;" width="10" x="865.5" y="235.0156"/><rect fill="#FFFFFF" height="30" style="stroke:#181818;stroke-width:1.0;" width="10" x="865.5" y="349.1094"/><line style="stroke:#181818;stroke-width:0.5;stroke-dasharray:5.0,5.0;" x1="22" x2="22" y1="118.9219" y2="425.6328"/><line style="stroke:#181818;stroke-width:0.5;stroke-dasharray:5.0,5.0;" x1="219.5" x2="219.5" y1="118.9219" y2="425.6328"/><line style="stroke:#181818;stroke-width:0.5;stroke-dasharray:5.0,5.0;" x1="423.5" x2="423.5" y1="118.9219" y2="425.6328"/><line style="stroke:#181818;stroke-width:0.5;stroke-dasharray:5.0,5.0;" x1="627" x2="627" y1="118.9219" y2="425.6328"/><line style="stroke:#181818;stroke-width:0.5;stroke-dasharray:5.0,5.0;" x1="759.5" x2="759.5" y1="118.9219" y2="425.6328"/><line style="stroke:#181818;stroke-width:0.5;stroke-dasharray:5.0,5.0;" x1="870.5" x2="870.5" y1="118.9219" y2="425.6328"/><text fill="#000000" font-family="sans-serif" font-size="14" lengthAdjust="spacing" textLength="29" x="5" y="115.9551">User</text><ellipse cx="22.5" cy="51.7813" fill="#E2E2F0" rx="8" ry="8" style="stroke:#181818;stroke-width:0.5;"/><path d="M22.5,59.7813 L22.5,86.7813 M9.5,67.7813 L35.5,67.7813 M22.5,86.7813 L9.5,101.7813 M22.5,86.7813 L35.5,101.7813 " fill="none" style="stroke:#181818;stroke-width:0.5;"/><text fill="#000000" font-family="sans-serif" font-size="14" lengthAdjust="spacing" textLength="29" x="5" y="437.3066">User</text><ellipse cx="22.5" cy="448.7734" fill="#E2E2F0" rx="8" ry="8" style="stroke:#181818;stroke-width:0.5;"/><path d="M22.5,456.7734 L22.5,483.7734 M9.5,464.7734 L35.5,464.7734 M22.5,483.7734 L9.5,498.7734 M22.5,483.7734 L35.5,498.7734 " fill="none" style="stroke:#181818;stroke-width:0.5;"/><rect fill="#E2E2F0" height="45.2813" rx="2.5" ry="2.5" style="stroke:#181818;stroke-width:0.5;" width="128" x="155.5" y="72.6406"/><text fill="#000000" font-family="sans-serif" font-size="14" font-style="italic" lengthAdjust="spacing" textLength="96" x="171.5" y="92.3145">&#171;Presentation&#187;</text><text fill="#000000" font-family="sans-serif" font-size="14" lengthAdjust="spacing" textLength="114" x="162.5" y="107.9551">: CancelMeetingUI</text><rect fill="#E2E2F0" height="45.2813" rx="2.5" ry="2.5" style="stroke:#181818;stroke-width:0.5;" width="128" x="155.5" y="424.6328"/><text fill="#000000" font-family="sans-serif" font-size="14" font-style="italic" lengthAdjust="spacing" textLength="96" x="171.5" y="444.3066">&#171;Presentation&#187;</text><text fill="#000000" font-family="sans-serif" font-size="14" lengthAdjust="spacing" textLength="114" x="162.5" y="459.9473">: CancelMeetingUI</text><text fill="#000000" font-family="sans-serif" font-size="14" font-style="italic" lengthAdjust="spacing" textLength="85" x="378" y="100.3145">&#171;Application&#187;</text><text fill="#000000" font-family="sans-serif" font-size="14" lengthAdjust="spacing" textLength="156" x="342.5" y="115.9551">CancelMeetingController</text><ellipse cx="423.5" cy="71.6406" fill="#E2E2F0" rx="12" ry="12" style="stroke:#181818;stroke-width:0.5;"/><polygon fill="#181818" points="419.5,59.6406,425.5,54.6406,423.5,59.6406,425.5,64.6406,419.5,59.6406" style="stroke:#181818;stroke-width:1.0;"/><text fill="#000000" font-family="sans-serif" font-size="14" font-style="italic" lengthAdjust="spacing" textLength="85" x="378" y="437.3066">&#171;Application&#187;</text><text fill="#000000" font-family="sans-serif" font-size="14" lengthAdjust="spacing" textLength="156" x="342.5" y="452.9473">CancelMeetingController</text><ellipse cx="423.5" cy="471.9141" fill="#E2E2F0" rx="12" ry="12" style="stroke:#181818;stroke-width:0.5;"/><polygon fill="#181818" points="419.5,459.9141,425.5,454.9141,423.5,459.9141,425.5,464.9141,419.5,459.9141" style="stroke:#181818;stroke-width:1.0;"/><rect fill="#E2E2F0" height="45.2813" rx="2.5" ry="2.5" style="stroke:#181818;stroke-width:0.5;" width="163" x="546" y="72.6406"/><text fill="#000000" font-family="sans-serif" font-size="14" font-style="italic" lengthAdjust="spacing" textLength="62" x="596.5" y="92.3145">&#171;Service&#187;</text><text fill="#000000" font-family="sans-serif" font-size="14" lengthAdjust="spacing" textLength="149" x="553" y="107.9551">: CancelMeetingService</text><rect fill="#E2E2F0" height="45.2813" rx="2.5" ry="2.5" style="stroke:#181818;stroke-width:0.5;" width="163" x="546" y="424.6328"/><text fill="#000000" font-family="sans-serif" font-size="14" font-style="italic" lengthAdjust="spacing" textLength="62" x="596.5" y="444.3066">&#171;Service&#187;</text><text fill="#000000" font-family="sans-serif" font-size="14" lengthAdjust="spacing" textLength="149" x="553" y="459.9473">: CancelMeetingService</text><rect fill="#E2E2F0" height="45.2813" rx="2.5" ry="2.5" style="stroke:#181818;stroke-width:0.5;" width="78" x="720.5" y="72.6406"/><text fill="#000000" font-family="sans-serif" font-size="14" font-style="italic" lengthAdjust="spacing" textLength="64" x="727.5" y="92.3145">&#171;Domain&#187;</text><text fill="#000000" font-family="sans-serif" font-size="14" lengthAdjust="spacing" textLength="58" x="730.5" y="107.9551">: Meeting</text><rect fill="#E2E2F0" height="45.2813" rx="2.5" ry="2.5" style="stroke:#181818;stroke-width:0.5;" width="78" x="720.5" y="424.6328"/><text fill="#000000" font-family="sans-serif" font-size="14" font-style="italic" lengthAdjust="spacing" textLength="64" x="727.5" y="444.3066">&#171;Domain&#187;</text><text fill="#000000" font-family="sans-serif" font-size="14" lengthAdjust="spacing" textLength="58" x="730.5" y="459.9473">: Meeting</text><text fill="#000000" font-family="sans-serif" font-size="14" font-style="italic" lengthAdjust="spacing" textLength="84" x="825.5" y="100.3145">&#171;Repository&#187;</text><text fill="#000000" font-family="sans-serif" font-size="14" lengthAdjust="spacing" textLength="118" x="808.5" y="115.9551">MeetingRepository</text><path d="M852.5,51.6406 C852.5,41.6406 870.5,41.6406 870.5,41.6406 C870.5,41.6406 888.5,41.6406 888.5,51.6406 L888.5,77.6406 C888.5,87.6406 870.5,87.6406 870.5,87.6406 C870.5,87.6406 852.5,87.6406 852.5,77.6406 L852.5,51.6406 " fill="#E2E2F0" style="stroke:#181818;stroke-width:1.5;"/><path d="M852.5,51.6406 C852.5,61.6406 870.5,61.6406 870.5,61.6406 C870.5,61.6406 888.5,61.6406 888.5,51.6406 " fill="none" style="stroke:#181818;stroke-width:1.5;"/><text fill="#000000" font-family="sans-serif" font-size="14" font-style="italic" lengthAdjust="spacing" textLength="84" x="825.5" y="437.3066">&#171;Repository&#187;</text><text fill="#000000" font-family="sans-serif" font-size="14" lengthAdjust="spacing" textLength="118" x="808.5" y="452.9473">MeetingRepository</text><path d="M852.5,465.9141 C852.5,455.9141 870.5,455.9141 870.5,455.9141 C870.5,455.9141 888.5,455.9141 888.5,465.9141 L888.5,491.9141 C888.5,501.9141 870.5,501.9141 870.5,501.9141 C870.5,501.9141 852.5,501.9141 852.5,491.9141 L852.5,465.9141 " fill="#E2E2F0" style="stroke:#181818;stroke-width:1.5;"/><path d="M852.5,465.9141 C852.5,475.9141 870.5,475.9141 870.5,475.9141 C870.5,475.9141 888.5,475.9141 888.5,465.9141 " fill="none" style="stroke:#181818;stroke-width:1.5;"/><rect fill="#FFFFFF" height="287.7109" style="stroke:#181818;stroke-width:1.0;" width="10" x="17.5" y="128.9219"/><rect fill="#FFFFFF" height="267.1875" style="stroke:#181818;stroke-width:1.0;" width="10" x="214.5" y="149.4453"/><rect fill="#FFFFFF" height="201.1406" style="stroke:#181818;stroke-width:1.0;" width="10" x="418.5" y="177.9688"/><rect fill="#FFFFFF" height="172.6172" style="stroke:#181818;stroke-width:1.0;" width="10" x="622.5" y="206.4922"/><rect fill="#FFFFFF" height="28.5234" style="stroke:#181818;stroke-width:1.0;" width="10" x="754.5" y="292.0625"/><rect fill="#FFFFFF" height="28.5234" style="stroke:#181818;stroke-width:1.0;" width="10" x="865.5" y="235.0156"/><rect fill="#FFFFFF" height="30" style="stroke:#181818;stroke-width:1.0;" width="10" x="865.5" y="349.1094"/><polygon fill="#181818" points="202.5,145.4453,212.5,149.4453,202.5,153.4453,206.5,149.4453" style="stroke:#181818;stroke-width:1.0;"/><line style="stroke:#181818;stroke-width:1.0;" x1="27.5" x2="208.5" y1="149.4453" y2="149.4453"/><text fill="#000000" font-family="sans-serif" font-size="13" font-weight="bold" lengthAdjust="spacing" textLength="7" x="34.5" y="144.6904">1</text><text fill="#000000" font-family="sans-serif" font-size="13" lengthAdjust="spacing" textLength="121" x="45.5" y="144.6904">chooses the meeting</text><polygon fill="#181818" points="406.5,173.9688,416.5,177.9688,406.5,181.9688,410.5,177.9688" style="stroke:#181818;stroke-width:1.0;"/><line style="stroke:#181818;stroke-width:1.0;" x1="224.5" x2="412.5" y1="177.9688" y2="177.9688"/><text fill="#000000" font-family="sans-serif" font-size="13" font-weight="bold" lengthAdjust="spacing" textLength="7" x="231.5" y="173.2139">2</text><text fill="#000000" font-family="sans-serif" font-size="13" lengthAdjust="spacing" textLength="164" x="242.5" y="173.2139">cancelMeeting(meetingDTO)</text><polygon fill="#181818" points="610.5,202.4922,620.5,206.4922,610.5,210.4922,614.5,206.4922" style="stroke:#181818;stroke-width:1.0;"/><line style="stroke:#181818;stroke-width:1.0;" x1="428.5" x2="616.5" y1="206.4922" y2="206.4922"/><text fill="#000000" font-family="sans-serif" font-size="13" font-weight="bold" lengthAdjust="spacing" textLength="7" x="435.5" y="201.7373">3</text><text fill="#000000" font-family="sans-serif" font-size="13" lengthAdjust="spacing" textLength="164" x="446.5" y="201.7373">cancelMeeting(meetingDTO)</text><polygon fill="#181818" points="853.5,231.0156,863.5,235.0156,853.5,239.0156,857.5,235.0156" style="stroke:#181818;stroke-width:1.0;"/><line style="stroke:#181818;stroke-width:1.0;" x1="632.5" x2="859.5" y1="235.0156" y2="235.0156"/><text fill="#000000" font-family="sans-serif" font-size="13" font-weight="bold" lengthAdjust="spacing" textLength="7" x="639.5" y="230.2607">4</text><text fill="#000000" font-family="sans-serif" font-size="13" lengthAdjust="spacing" textLength="154" x="650.5" y="230.2607">ofIdentity(MeetingIdentifier)</text><polygon fill="#181818" points="643.5,259.5391,633.5,263.5391,643.5,267.5391,639.5,263.5391" style="stroke:#181818;stroke-width:1.0;"/><line style="stroke:#181818;stroke-width:1.0;stroke-dasharray:2.0,2.0;" x1="637.5" x2="869.5" y1="263.5391" y2="263.5391"/><text fill="#000000" font-family="sans-serif" font-size="13" font-weight="bold" lengthAdjust="spacing" textLength="7" x="649.5" y="258.7842">5</text><text fill="#000000" font-family="sans-serif" font-size="13" lengthAdjust="spacing" textLength="46" x="660.5" y="258.7842">meeting</text><polygon fill="#181818" points="742.5,288.0625,752.5,292.0625,742.5,296.0625,746.5,292.0625" style="stroke:#181818;stroke-width:1.0;"/><line style="stroke:#181818;stroke-width:1.0;" x1="632.5" x2="748.5" y1="292.0625" y2="292.0625"/><text fill="#000000" font-family="sans-serif" font-size="13" font-weight="bold" lengthAdjust="spacing" textLength="7" x="639.5" y="287.3076">6</text><text fill="#000000" font-family="sans-serif" font-size="13" lengthAdjust="spacing" textLength="92" x="650.5" y="287.3076">cancelMeeting()</text><polygon fill="#181818" points="643.5,316.5859,633.5,320.5859,643.5,324.5859,639.5,320.5859" style="stroke:#181818;stroke-width:1.0;"/><line style="stroke:#181818;stroke-width:1.0;stroke-dasharray:2.0,2.0;" x1="637.5" x2="758.5" y1="320.5859" y2="320.5859"/><text fill="#000000" font-family="sans-serif" font-size="13" font-weight="bold" lengthAdjust="spacing" textLength="7" x="649.5" y="315.8311">7</text><text fill="#000000" font-family="sans-serif" font-size="13" lengthAdjust="spacing" textLength="22" x="660.5" y="315.8311">true</text><polygon fill="#181818" points="853.5,345.1094,863.5,349.1094,853.5,353.1094,857.5,349.1094" style="stroke:#181818;stroke-width:1.0;"/><line style="stroke:#181818;stroke-width:1.0;" x1="632.5" x2="859.5" y1="349.1094" y2="349.1094"/><text fill="#000000" font-family="sans-serif" font-size="13" font-weight="bold" lengthAdjust="spacing" textLength="7" x="639.5" y="344.3545">8</text><text fill="#000000" font-family="sans-serif" font-size="13" lengthAdjust="spacing" textLength="80" x="650.5" y="344.3545">save(meeting)</text><polygon fill="#181818" points="38.5,403.6328,28.5,407.6328,38.5,411.6328,34.5,407.6328" style="stroke:#181818;stroke-width:1.0;"/><line style="stroke:#181818;stroke-width:1.0;stroke-dasharray:2.0,2.0;" x1="32.5" x2="213.5" y1="407.6328" y2="407.6328"/><text fill="#000000" font-family="sans-serif" font-size="13" font-weight="bold" lengthAdjust="spacing" textLength="7" x="44.5" y="402.8779">9</text><text fill="#000000" font-family="sans-serif" font-size="13" lengthAdjust="spacing" textLength="152" x="55.5" y="402.8779">informs operation success</text><!--SRC=[ZPB1QiCm38RlUWgHKtVe2uHI6EqbiB2HjW_WkkfgIEnWAuM-_MJ7MHCAOvSGY- -pz2jH0pixT6Vom8PRmfsocbgiYTZORm2bsNaiJe5yWIfWV07ebMUZJQyiOr5cAJkdQWGht6o-F0MohDWukzs2TfQzQx5O2BknskOEksFp8UfxtxT6J-PV3G_axqRJADS7SNFbrSj6Gci1zwvJ9juF5yNgh09DI4Ez2qQoFnBR2FmiHK4MO-wAQTn8VE1w6rENg6_E1Gh8Dy8kB_A9Lm122Pk22ZtFiihy_lZvzdGY2P3uw4d6_sdrGIoXHP849RfhTP7FOVYnok9ulXhoCwzkGF3rRwifmuNco7Jnooppcy0J3zuY-u4MemHrfsdgPUjbbzafnfaVqr9ELPmphRz4Ow_ETm5TJpxzEHW6hIa4-040]--></g></svg>