<?xml version="1.0" encoding="us-ascii" standalone="no"?><svg xmlns="http://www.w3.org/2000/svg" xmlns:xlink="http://www.w3.org/1999/xlink" contentStyleType="text/css" height="717px" preserveAspectRatio="none" style="width:1421px;height:717px;background:#FFFFFF;" version="1.1" viewBox="0 0 1421 717" width="1421px" zoomAndPan="magnify"><defs/><g><rect fill="#FFFFFF" height="461.3652" style="stroke:#181818;stroke-width:1.0;" width="10" x="29.5" y="138.8242"/><rect fill="#FFFFFF" height="461.3652" style="stroke:#181818;stroke-width:1.0;" width="10" x="229.5" y="138.8242"/><rect fill="#FFFFFF" height="381.4922" style="stroke:#181818;stroke-width:1.0;" width="10" x="488.5" y="170.1152"/><rect fill="#FFFFFF" height="318.9102" style="stroke:#181818;stroke-width:1.0;" width="10" x="747.5" y="201.4063"/><rect fill="#FFFFFF" height="31.291" style="stroke:#181818;stroke-width:1.0;" width="10" x="1036.5" y="258.9883"/><rect fill="#FFFFFF" height="31.291" style="stroke:#181818;stroke-width:1.0;" width="10" x="1188" y="354.8613"/><rect fill="#FFFFFF" height="31.291" style="stroke:#181818;stroke-width:1.0;" width="10" x="1343" y="450.7344"/><rect fill="none" height="81.873" style="stroke:#000000;stroke-width:1.5;" width="458" x="647.5" y="216.4063"/><rect fill="none" height="81.873" style="stroke:#000000;stroke-width:1.5;" width="643" x="647.5" y="312.2793"/><rect fill="none" height="81.873" style="stroke:#000000;stroke-width:1.5;" width="768" x="647.5" y="408.1523"/><line style="stroke:#181818;stroke-width:0.5;stroke-dasharray:5.0,5.0;" x1="34" x2="34" y1="88.2422" y2="618.1895"/><line style="stroke:#181818;stroke-width:0.5;stroke-dasharray:5.0,5.0;" x1="234" x2="234" y1="88.2422" y2="618.1895"/><line style="stroke:#181818;stroke-width:0.5;stroke-dasharray:5.0,5.0;" x1="493" x2="493" y1="88.2422" y2="618.1895"/><line style="stroke:#181818;stroke-width:0.5;stroke-dasharray:5.0,5.0;" x1="752.5" x2="752.5" y1="88.2422" y2="618.1895"/><line style="stroke:#181818;stroke-width:0.5;stroke-dasharray:5.0,5.0;" x1="917.5" x2="917.5" y1="88.2422" y2="618.1895"/><line style="stroke:#181818;stroke-width:0.5;stroke-dasharray:5.0,5.0;" x1="1041.5" x2="1041.5" y1="88.2422" y2="618.1895"/><line style="stroke:#181818;stroke-width:0.5;stroke-dasharray:5.0,5.0;" x1="1192.5" x2="1192.5" y1="88.2422" y2="618.1895"/><line style="stroke:#181818;stroke-width:0.5;stroke-dasharray:5.0,5.0;" x1="1347.5" x2="1347.5" y1="88.2422" y2="618.1895"/><text fill="#000000" font-family="sans-serif" font-size="14" lengthAdjust="spacing" textLength="53" x="5" y="84.7285">Teacher</text><ellipse cx="34.5" cy="18.1211" fill="#E2E2F0" rx="8" ry="8" style="stroke:#181818;stroke-width:0.5;"/><path d="M34.5,26.1211 L34.5,53.1211 M21.5,34.1211 L47.5,34.1211 M34.5,53.1211 L21.5,68.1211 M34.5,53.1211 L47.5,68.1211 " fill="none" style="stroke:#181818;stroke-width:0.5;"/><text fill="#000000" font-family="sans-serif" font-size="14" lengthAdjust="spacing" textLength="53" x="5" y="632.2969">Teacher</text><ellipse cx="34.5" cy="644.3105" fill="#E2E2F0" rx="8" ry="8" style="stroke:#181818;stroke-width:0.5;"/><path d="M34.5,652.3105 L34.5,679.3105 M21.5,660.3105 L47.5,660.3105 M34.5,679.3105 L21.5,694.3105 M34.5,679.3105 L47.5,694.3105 " fill="none" style="stroke:#181818;stroke-width:0.5;"/><rect fill="#E2E2F0" height="51.2422" rx="2.5" ry="2.5" style="stroke:#181818;stroke-width:0.5;" width="155" x="157" y="36"/><text fill="#000000" font-family="sans-serif" font-size="14" font-style="italic" lengthAdjust="spacing" textLength="96" x="186.5" y="58.1074">&#171;Presentation&#187;</text><text fill="#000000" font-family="sans-serif" font-size="14" lengthAdjust="spacing" textLength="141" x="164" y="76.7285">ViewCoursesGradesUI</text><rect fill="#E2E2F0" height="51.2422" rx="2.5" ry="2.5" style="stroke:#181818;stroke-width:0.5;" width="155" x="157" y="617.1895"/><text fill="#000000" font-family="sans-serif" font-size="14" font-style="italic" lengthAdjust="spacing" textLength="96" x="186.5" y="639.2969">&#171;Presentation&#187;</text><text fill="#000000" font-family="sans-serif" font-size="14" lengthAdjust="spacing" textLength="141" x="164" y="657.918">ViewCoursesGradesUI</text><text fill="#000000" font-family="sans-serif" font-size="14" font-style="italic" lengthAdjust="spacing" textLength="85" x="448" y="66.1074">&#171;Application&#187;</text><text fill="#000000" font-family="sans-serif" font-size="14" lengthAdjust="spacing" textLength="191" x="395" y="84.7285">ViewCoursesGradesController</text><ellipse cx="493.5" cy="35" fill="#E2E2F0" rx="12" ry="12" style="stroke:#181818;stroke-width:0.5;"/><polygon fill="#181818" points="489.5,23,495.5,18,493.5,23,495.5,28,489.5,23" style="stroke:#181818;stroke-width:1.0;"/><text fill="#000000" font-family="sans-serif" font-size="14" font-style="italic" lengthAdjust="spacing" textLength="85" x="448" y="632.2969">&#171;Application&#187;</text><text fill="#000000" font-family="sans-serif" font-size="14" lengthAdjust="spacing" textLength="191" x="395" y="650.918">ViewCoursesGradesController</text><ellipse cx="493.5" cy="670.4316" fill="#E2E2F0" rx="12" ry="12" style="stroke:#181818;stroke-width:0.5;"/><polygon fill="#181818" points="489.5,658.4316,495.5,653.4316,493.5,658.4316,495.5,663.4316,489.5,658.4316" style="stroke:#181818;stroke-width:1.0;"/><rect fill="#E2E2F0" height="51.2422" rx="2.5" ry="2.5" style="stroke:#181818;stroke-width:0.5;" width="190" x="657.5" y="36"/><text fill="#000000" font-family="sans-serif" font-size="14" font-style="italic" lengthAdjust="spacing" textLength="62" x="721.5" y="58.1074">&#171;Service&#187;</text><text fill="#000000" font-family="sans-serif" font-size="14" lengthAdjust="spacing" textLength="176" x="664.5" y="76.7285">ViewCoursesGradesService</text><rect fill="#E2E2F0" height="51.2422" rx="2.5" ry="2.5" style="stroke:#181818;stroke-width:0.5;" width="190" x="657.5" y="617.1895"/><text fill="#000000" font-family="sans-serif" font-size="14" font-style="italic" lengthAdjust="spacing" textLength="62" x="721.5" y="639.2969">&#171;Service&#187;</text><text fill="#000000" font-family="sans-serif" font-size="14" lengthAdjust="spacing" textLength="176" x="664.5" y="657.918">ViewCoursesGradesService</text><text fill="#000000" font-family="sans-serif" font-size="14" font-style="italic" lengthAdjust="spacing" textLength="90" x="869.5" y="66.1074">&#171;Persistence&#187;</text><text fill="#000000" font-family="sans-serif" font-size="14" lengthAdjust="spacing" textLength="114" x="857.5" y="84.7285">CourseRepository</text><path d="M899.5,15 C899.5,5 917.5,5 917.5,5 C917.5,5 935.5,5 935.5,15 L935.5,41 C935.5,51 917.5,51 917.5,51 C917.5,51 899.5,51 899.5,41 L899.5,15 " fill="#E2E2F0" style="stroke:#181818;stroke-width:1.5;"/><path d="M899.5,15 C899.5,25 917.5,25 917.5,25 C917.5,25 935.5,25 935.5,15 " fill="none" style="stroke:#181818;stroke-width:1.5;"/><text fill="#000000" font-family="sans-serif" font-size="14" font-style="italic" lengthAdjust="spacing" textLength="90" x="869.5" y="632.2969">&#171;Persistence&#187;</text><text fill="#000000" font-family="sans-serif" font-size="14" lengthAdjust="spacing" textLength="114" x="857.5" y="650.918">CourseRepository</text><path d="M899.5,664.4316 C899.5,654.4316 917.5,654.4316 917.5,654.4316 C917.5,654.4316 935.5,654.4316 935.5,664.4316 L935.5,690.4316 C935.5,700.4316 917.5,700.4316 917.5,700.4316 C917.5,700.4316 899.5,700.4316 899.5,690.4316 L899.5,664.4316 " fill="#E2E2F0" style="stroke:#181818;stroke-width:1.5;"/><path d="M899.5,664.4316 C899.5,674.4316 917.5,674.4316 917.5,674.4316 C917.5,674.4316 935.5,674.4316 935.5,664.4316 " fill="none" style="stroke:#181818;stroke-width:1.5;"/><text fill="#000000" font-family="sans-serif" font-size="14" font-style="italic" lengthAdjust="spacing" textLength="90" x="993.5" y="66.1074">&#171;Persistence&#187;</text><text fill="#000000" font-family="sans-serif" font-size="14" lengthAdjust="spacing" textLength="102" x="987.5" y="84.7285">ExamRepository</text><path d="M1023.5,15 C1023.5,5 1041.5,5 1041.5,5 C1041.5,5 1059.5,5 1059.5,15 L1059.5,41 C1059.5,51 1041.5,51 1041.5,51 C1041.5,51 1023.5,51 1023.5,41 L1023.5,15 " fill="#E2E2F0" style="stroke:#181818;stroke-width:1.5;"/><path d="M1023.5,15 C1023.5,25 1041.5,25 1041.5,25 C1041.5,25 1059.5,25 1059.5,15 " fill="none" style="stroke:#181818;stroke-width:1.5;"/><text fill="#000000" font-family="sans-serif" font-size="14" font-style="italic" lengthAdjust="spacing" textLength="90" x="993.5" y="632.2969">&#171;Persistence&#187;</text><text fill="#000000" font-family="sans-serif" font-size="14" lengthAdjust="spacing" textLength="102" x="987.5" y="650.918">ExamRepository</text><path d="M1023.5,664.4316 C1023.5,654.4316 1041.5,654.4316 1041.5,654.4316 C1041.5,654.4316 1059.5,654.4316 1059.5,664.4316 L1059.5,690.4316 C1059.5,700.4316 1041.5,700.4316 1041.5,700.4316 C1041.5,700.4316 1023.5,700.4316 1023.5,690.4316 L1023.5,664.4316 " fill="#E2E2F0" style="stroke:#181818;stroke-width:1.5;"/><path d="M1023.5,664.4316 C1023.5,674.4316 1041.5,674.4316 1041.5,674.4316 C1041.5,674.4316 1059.5,674.4316 1059.5,664.4316 " fill="none" style="stroke:#181818;stroke-width:1.5;"/><text fill="#000000" font-family="sans-serif" font-size="14" font-style="italic" lengthAdjust="spacing" textLength="90" x="1145" y="66.1074">&#171;Persistence&#187;</text><text fill="#000000" font-family="sans-serif" font-size="14" lengthAdjust="spacing" textLength="169" x="1105.5" y="84.7285">ExamResolutionRepository</text><path d="M1175,15 C1175,5 1193,5 1193,5 C1193,5 1211,5 1211,15 L1211,41 C1211,51 1193,51 1193,51 C1193,51 1175,51 1175,41 L1175,15 " fill="#E2E2F0" style="stroke:#181818;stroke-width:1.5;"/><path d="M1175,15 C1175,25 1193,25 1193,25 C1193,25 1211,25 1211,15 " fill="none" style="stroke:#181818;stroke-width:1.5;"/><text fill="#000000" font-family="sans-serif" font-size="14" font-style="italic" lengthAdjust="spacing" textLength="90" x="1145" y="632.2969">&#171;Persistence&#187;</text><text fill="#000000" font-family="sans-serif" font-size="14" lengthAdjust="spacing" textLength="169" x="1105.5" y="650.918">ExamResolutionRepository</text><path d="M1175,664.4316 C1175,654.4316 1193,654.4316 1193,654.4316 C1193,654.4316 1211,654.4316 1211,664.4316 L1211,690.4316 C1211,700.4316 1193,700.4316 1193,700.4316 C1193,700.4316 1175,700.4316 1175,690.4316 L1175,664.4316 " fill="#E2E2F0" style="stroke:#181818;stroke-width:1.5;"/><path d="M1175,664.4316 C1175,674.4316 1193,674.4316 1193,674.4316 C1193,674.4316 1211,674.4316 1211,664.4316 " fill="none" style="stroke:#181818;stroke-width:1.5;"/><rect fill="#E2E2F0" height="51.2422" rx="2.5" ry="2.5" style="stroke:#181818;stroke-width:0.5;" width="115" x="1290.5" y="36"/><text fill="#000000" font-family="sans-serif" font-size="14" font-style="italic" lengthAdjust="spacing" textLength="64" x="1316" y="58.1074">&#171;Domain&#187;</text><text fill="#000000" font-family="sans-serif" font-size="14" lengthAdjust="spacing" textLength="101" x="1297.5" y="76.7285">ExamResolution</text><rect fill="#E2E2F0" height="51.2422" rx="2.5" ry="2.5" style="stroke:#181818;stroke-width:0.5;" width="115" x="1290.5" y="617.1895"/><text fill="#000000" font-family="sans-serif" font-size="14" font-style="italic" lengthAdjust="spacing" textLength="64" x="1316" y="639.2969">&#171;Domain&#187;</text><text fill="#000000" font-family="sans-serif" font-size="14" lengthAdjust="spacing" textLength="101" x="1297.5" y="657.918">ExamResolution</text><rect fill="#FFFFFF" height="461.3652" style="stroke:#181818;stroke-width:1.0;" width="10" x="29.5" y="138.8242"/><rect fill="#FFFFFF" height="461.3652" style="stroke:#181818;stroke-width:1.0;" width="10" x="229.5" y="138.8242"/><rect fill="#FFFFFF" height="381.4922" style="stroke:#181818;stroke-width:1.0;" width="10" x="488.5" y="170.1152"/><rect fill="#FFFFFF" height="318.9102" style="stroke:#181818;stroke-width:1.0;" width="10" x="747.5" y="201.4063"/><rect fill="#FFFFFF" height="31.291" style="stroke:#181818;stroke-width:1.0;" width="10" x="1036.5" y="258.9883"/><rect fill="#FFFFFF" height="31.291" style="stroke:#181818;stroke-width:1.0;" width="10" x="1188" y="354.8613"/><rect fill="#FFFFFF" height="31.291" style="stroke:#181818;stroke-width:1.0;" width="10" x="1343" y="450.7344"/><polygon fill="#181818" points="217.5,134.8242,227.5,138.8242,217.5,142.8242,221.5,138.8242" style="stroke:#181818;stroke-width:1.0;"/><line style="stroke:#181818;stroke-width:1.0;" x1="39.5" x2="223.5" y1="138.8242" y2="138.8242"/><text fill="#000000" font-family="sans-serif" font-size="13" lengthAdjust="spacing" textLength="160" x="46.5" y="116.2705">Selects the courses that he</text><text fill="#000000" font-family="sans-serif" font-size="13" lengthAdjust="spacing" textLength="168" x="46.5" y="133.5615">wants to see the grades from</text><polygon fill="#181818" points="476.5,166.1152,486.5,170.1152,476.5,174.1152,480.5,170.1152" style="stroke:#181818;stroke-width:1.0;"/><line style="stroke:#181818;stroke-width:1.0;" x1="239.5" x2="482.5" y1="170.1152" y2="170.1152"/><text fill="#000000" font-family="sans-serif" font-size="13" lengthAdjust="spacing" textLength="230" x="246.5" y="164.8525">listGradesFromTeacherCourse(courses)</text><polygon fill="#181818" points="735.5,197.4063,745.5,201.4063,735.5,205.4063,739.5,201.4063" style="stroke:#181818;stroke-width:1.0;"/><line style="stroke:#181818;stroke-width:1.0;" x1="498.5" x2="741.5" y1="201.4063" y2="201.4063"/><text fill="#000000" font-family="sans-serif" font-size="13" lengthAdjust="spacing" textLength="230" x="505.5" y="196.1436">listGradesFromTeacherCourse(courses)</text><path d="M647.5,216.4063 L720.5,216.4063 L720.5,225.6973 L710.5,235.6973 L647.5,235.6973 L647.5,216.4063 " fill="#EEEEEE" style="stroke:#000000;stroke-width:1.5;"/><rect fill="none" height="81.873" style="stroke:#000000;stroke-width:1.5;" width="458" x="647.5" y="216.4063"/><text fill="#000000" font-family="sans-serif" font-size="13" font-weight="bold" lengthAdjust="spacing" textLength="28" x="662.5" y="231.4346">loop</text><text fill="#000000" font-family="sans-serif" font-size="11" font-weight="bold" lengthAdjust="spacing" textLength="168" x="735.5" y="230.2764">[foreach course in courseList]</text><polygon fill="#181818" points="1024.5,254.9883,1034.5,258.9883,1024.5,262.9883,1028.5,258.9883" style="stroke:#181818;stroke-width:1.0;"/><line style="stroke:#181818;stroke-width:1.0;" x1="757.5" x2="1030.5" y1="258.9883" y2="258.9883"/><text fill="#000000" font-family="sans-serif" font-size="13" lengthAdjust="spacing" textLength="227" x="764.5" y="253.7256">findExamsFromCourse(courseIdentifier)</text><polygon fill="#181818" points="768.5,286.2793,758.5,290.2793,768.5,294.2793,764.5,290.2793" style="stroke:#181818;stroke-width:1.0;"/><line style="stroke:#181818;stroke-width:1.0;stroke-dasharray:2.0,2.0;" x1="762.5" x2="1040.5" y1="290.2793" y2="290.2793"/><text fill="#000000" font-family="sans-serif" font-size="13" lengthAdjust="spacing" textLength="53" x="774.5" y="285.0166">examList</text><path d="M647.5,312.2793 L720.5,312.2793 L720.5,321.5703 L710.5,331.5703 L647.5,331.5703 L647.5,312.2793 " fill="#EEEEEE" style="stroke:#000000;stroke-width:1.5;"/><rect fill="none" height="81.873" style="stroke:#000000;stroke-width:1.5;" width="643" x="647.5" y="312.2793"/><text fill="#000000" font-family="sans-serif" font-size="13" font-weight="bold" lengthAdjust="spacing" textLength="28" x="662.5" y="327.3076">loop</text><text fill="#000000" font-family="sans-serif" font-size="11" font-weight="bold" lengthAdjust="spacing" textLength="150" x="735.5" y="326.1494">[foreach exam in examList]</text><polygon fill="#181818" points="1176,350.8613,1186,354.8613,1176,358.8613,1180,354.8613" style="stroke:#181818;stroke-width:1.0;"/><line style="stroke:#181818;stroke-width:1.0;" x1="757.5" x2="1182" y1="354.8613" y2="354.8613"/><text fill="#000000" font-family="sans-serif" font-size="13" lengthAdjust="spacing" textLength="246" x="764.5" y="349.5986">findExamResolutionsByExamId(examTitle)</text><polygon fill="#181818" points="768.5,382.1523,758.5,386.1523,768.5,390.1523,764.5,386.1523" style="stroke:#181818;stroke-width:1.0;"/><line style="stroke:#181818;stroke-width:1.0;stroke-dasharray:2.0,2.0;" x1="762.5" x2="1192" y1="386.1523" y2="386.1523"/><text fill="#000000" font-family="sans-serif" font-size="13" lengthAdjust="spacing" textLength="114" x="774.5" y="380.8896">examResolutionList</text><path d="M647.5,408.1523 L720.5,408.1523 L720.5,417.4434 L710.5,427.4434 L647.5,427.4434 L647.5,408.1523 " fill="#EEEEEE" style="stroke:#000000;stroke-width:1.5;"/><rect fill="none" height="81.873" style="stroke:#000000;stroke-width:1.5;" width="768" x="647.5" y="408.1523"/><text fill="#000000" font-family="sans-serif" font-size="13" font-weight="bold" lengthAdjust="spacing" textLength="28" x="662.5" y="423.1807">loop</text><text fill="#000000" font-family="sans-serif" font-size="11" font-weight="bold" lengthAdjust="spacing" textLength="268" x="735.5" y="422.0225">[foreach examResolution in examResolutionList]</text><polygon fill="#181818" points="1331,446.7344,1341,450.7344,1331,454.7344,1335,450.7344" style="stroke:#181818;stroke-width:1.0;"/><line style="stroke:#181818;stroke-width:1.0;" x1="757.5" x2="1337" y1="450.7344" y2="450.7344"/><text fill="#000000" font-family="sans-serif" font-size="13" lengthAdjust="spacing" textLength="110" x="764.5" y="445.4717">returnGradeString()</text><polygon fill="#181818" points="768.5,478.0254,758.5,482.0254,768.5,486.0254,764.5,482.0254" style="stroke:#181818;stroke-width:1.0;"/><line style="stroke:#181818;stroke-width:1.0;stroke-dasharray:2.0,2.0;" x1="762.5" x2="1347" y1="482.0254" y2="482.0254"/><text fill="#000000" font-family="sans-serif" font-size="13" lengthAdjust="spacing" textLength="32" x="774.5" y="476.7627">grade</text><polygon fill="#181818" points="509.5,516.3164,499.5,520.3164,509.5,524.3164,505.5,520.3164" style="stroke:#181818;stroke-width:1.0;"/><line style="stroke:#181818;stroke-width:1.0;stroke-dasharray:2.0,2.0;" x1="503.5" x2="751.5" y1="520.3164" y2="520.3164"/><text fill="#000000" font-family="sans-serif" font-size="13" lengthAdjust="spacing" textLength="60" x="515.5" y="515.0537">gradesList</text><polygon fill="#181818" points="250.5,547.6074,240.5,551.6074,250.5,555.6074,246.5,551.6074" style="stroke:#181818;stroke-width:1.0;"/><line style="stroke:#181818;stroke-width:1.0;stroke-dasharray:2.0,2.0;" x1="244.5" x2="492.5" y1="551.6074" y2="551.6074"/><text fill="#000000" font-family="sans-serif" font-size="13" lengthAdjust="spacing" textLength="60" x="256.5" y="546.3447">gradesList</text><polygon fill="#181818" points="45.5,596.1895,35.5,600.1895,45.5,604.1895,41.5,600.1895" style="stroke:#181818;stroke-width:1.0;"/><line style="stroke:#181818;stroke-width:1.0;stroke-dasharray:2.0,2.0;" x1="39.5" x2="233.5" y1="600.1895" y2="600.1895"/><text fill="#000000" font-family="sans-serif" font-size="13" lengthAdjust="spacing" textLength="166" x="51.5" y="577.6357">show all grades from teacher</text><text fill="#000000" font-family="sans-serif" font-size="13" lengthAdjust="spacing" textLength="99" x="55.5" y="594.9268">selected courses</text><!--SRC=[bPBBRi8m44Nt_eeHAxhW1n2Ar59QHM9HaQGhDgup54l6Zkm1oj_NZq0IQ8kwiVouP-vuPhWWOw54BhPeWJieMSCjII4RhWb6xnAFSxEt3jshvJMwAXy5MPN3RFPcqQ4cJjBeB6F2QB96_G3Dquj26-5vkLfw_B5fb1Hd-c_R0kr12enuuTdsxBcQ4__W3c6KW1Ksnad_grFoMeL4qJhf2FKLiVZYkolzuhxU6RKFIT-Gj-ZWKqCwCU7AKyzcnsMe0cFb9AloAHIeK903sYA8L0c_vmJ-lDP77z2V3JZ4AFcCLOADDJl61Sa39_Izl6ohd5Nv98kLduBo6QQwldYWxNugtxWrU-ZO0B6mJBBYlsp1b34DR8mDmlOd87MxM_fWh9XaeUnJs4XTXuh4o8EGUUtdJ6uasbxinOfPfBtLW1wAeL3N40o7hk4vU5vaoR5lsVN5FPt2HLwFWxoKf73WEJ3ji3lsdV2So1KQKuhJC8La48jSa9NwSzpF88ZEESIsTxRzMnV3_dhZjkO8NAd-v02bRgxzSnm_hC-pnshiprBlL7u3]--></g></svg>