<?xml version="1.0" encoding="us-ascii" standalone="no"?><svg xmlns="http://www.w3.org/2000/svg" xmlns:xlink="http://www.w3.org/1999/xlink" contentStyleType="text/css" height="1679px" preserveAspectRatio="none" style="width:2050px;height:1679px;background:#FFFFFF;" version="1.1" viewBox="0 0 2050 1679" width="2050px" zoomAndPan="magnify"><defs/><g><rect fill="#FFFFFF" height="1472.9688" style="stroke:#181818;stroke-width:1.0;" width="10" x="159" y="98.2422"/><rect fill="#FFFFFF" height="1440.6777" style="stroke:#181818;stroke-width:1.0;" width="10" x="628" y="121.5332"/><rect fill="#FFFFFF" height="62.582" style="stroke:#181818;stroke-width:1.0;" width="10" x="859.5" y="152.8242"/><rect fill="#FFFFFF" height="62.582" style="stroke:#181818;stroke-width:1.0;" width="10" x="859.5" y="606.1895"/><rect fill="#FFFFFF" height="62.582" style="stroke:#181818;stroke-width:1.0;" width="10" x="859.5" y="1044.2637"/><rect fill="#FFFFFF" height="62.582" style="stroke:#181818;stroke-width:1.0;" width="10" x="1002.5" y="246.6973"/><rect fill="#FFFFFF" height="62.582" style="stroke:#181818;stroke-width:1.0;" width="10" x="1002.5" y="700.0625"/><rect fill="#FFFFFF" height="62.582" style="stroke:#181818;stroke-width:1.0;" width="10" x="1002.5" y="1138.1367"/><rect fill="#FFFFFF" height="42.9365" style="stroke:#181818;stroke-width:1.0;" width="10" x="1239.5" y="446.0889"/><rect fill="#FFFFFF" height="42.9365" style="stroke:#181818;stroke-width:1.0;" width="10" x="1239.5" y="531.9619"/><rect fill="#FFFFFF" height="42.9365" style="stroke:#181818;stroke-width:1.0;" width="10" x="1239.5" y="1395.1104"/><rect fill="#FFFFFF" height="42.9365" style="stroke:#181818;stroke-width:1.0;" width="10" x="1239.5" y="1480.9834"/><rect fill="#FFFFFF" height="31.291" style="stroke:#181818;stroke-width:1.0;" width="10" x="1338" y="793.9355"/><rect fill="#FFFFFF" height="31.291" style="stroke:#181818;stroke-width:1.0;" width="10" x="1470" y="856.5176"/><rect fill="#FFFFFF" height="31.291" style="stroke:#181818;stroke-width:1.0;" width="10" x="1598" y="919.0996"/><rect fill="#FFFFFF" height="31.291" style="stroke:#181818;stroke-width:1.0;" width="10" x="1714.5" y="371.8613"/><rect fill="#FFFFFF" height="31.291" style="stroke:#181818;stroke-width:1.0;" width="10" x="1714.5" y="1294.5918"/><rect fill="#FFFFFF" height="31.291" style="stroke:#181818;stroke-width:1.0;" width="10" x="1848" y="981.6816"/><rect fill="#FFFFFF" height="31.291" style="stroke:#181818;stroke-width:1.0;" width="10" x="1983" y="1232.0098"/><rect fill="none" height="191.0371" style="stroke:#000000;stroke-width:1.5;" width="1110" x="469.5" y="1340.8828"/><line style="stroke:#181818;stroke-width:0.5;stroke-dasharray:5.0,5.0;" x1="164" x2="164" y1="88.2422" y2="1580.2109"/><line style="stroke:#181818;stroke-width:0.5;stroke-dasharray:5.0,5.0;" x1="632.5" x2="632.5" y1="88.2422" y2="1580.2109"/><line style="stroke:#181818;stroke-width:0.5;stroke-dasharray:5.0,5.0;" x1="864.5" x2="864.5" y1="88.2422" y2="1580.2109"/><line style="stroke:#181818;stroke-width:0.5;stroke-dasharray:5.0,5.0;" x1="1007.5" x2="1007.5" y1="88.2422" y2="1580.2109"/><line style="stroke:#181818;stroke-width:0.5;stroke-dasharray:5.0,5.0;" x1="1139.5" x2="1139.5" y1="88.2422" y2="1580.2109"/><line style="stroke:#181818;stroke-width:0.5;stroke-dasharray:5.0,5.0;" x1="1244.5" x2="1244.5" y1="88.2422" y2="1580.2109"/><line style="stroke:#181818;stroke-width:0.5;stroke-dasharray:5.0,5.0;" x1="1342.5" x2="1342.5" y1="88.2422" y2="1580.2109"/><line style="stroke:#181818;stroke-width:0.5;stroke-dasharray:5.0,5.0;" x1="1474.5" x2="1474.5" y1="88.2422" y2="1580.2109"/><line style="stroke:#181818;stroke-width:0.5;stroke-dasharray:5.0,5.0;" x1="1602.5" x2="1602.5" y1="88.2422" y2="1580.2109"/><line style="stroke:#181818;stroke-width:0.5;stroke-dasharray:5.0,5.0;" x1="1719.5" x2="1719.5" y1="88.2422" y2="1580.2109"/><line style="stroke:#181818;stroke-width:0.5;stroke-dasharray:5.0,5.0;" x1="1852.5" x2="1852.5" y1="88.2422" y2="1580.2109"/><line style="stroke:#181818;stroke-width:0.5;stroke-dasharray:5.0,5.0;" x1="1987.5" x2="1987.5" y1="88.2422" y2="1580.2109"/><rect fill="#E2E2F0" height="51.2422" rx="2.5" ry="2.5" style="stroke:#181818;stroke-width:0.5;" width="318" x="5" y="36"/><text fill="#000000" font-family="sans-serif" font-size="14" font-style="italic" lengthAdjust="spacing" textLength="84" x="122" y="58.1074">&#171;application&#187;</text><text fill="#000000" font-family="sans-serif" font-size="14" lengthAdjust="spacing" textLength="304" x="12" y="76.7285">VerifyIfExistAClassAtTheTimeForClassController</text><rect fill="#E2E2F0" height="51.2422" rx="2.5" ry="2.5" style="stroke:#181818;stroke-width:0.5;" width="318" x="5" y="1579.2109"/><text fill="#000000" font-family="sans-serif" font-size="14" font-style="italic" lengthAdjust="spacing" textLength="84" x="122" y="1601.3184">&#171;application&#187;</text><text fill="#000000" font-family="sans-serif" font-size="14" lengthAdjust="spacing" textLength="304" x="12" y="1619.9395">VerifyIfExistAClassAtTheTimeForClassController</text><rect fill="#E2E2F0" height="51.2422" rx="2.5" ry="2.5" style="stroke:#181818;stroke-width:0.5;" width="307" x="479.5" y="36"/><text fill="#000000" font-family="sans-serif" font-size="14" font-style="italic" lengthAdjust="spacing" textLength="84" x="591" y="58.1074">&#171;application&#187;</text><text fill="#000000" font-family="sans-serif" font-size="14" lengthAdjust="spacing" textLength="293" x="486.5" y="76.7285">VerifyIfExistAClassControllerForCourseService</text><rect fill="#E2E2F0" height="51.2422" rx="2.5" ry="2.5" style="stroke:#181818;stroke-width:0.5;" width="307" x="479.5" y="1579.2109"/><text fill="#000000" font-family="sans-serif" font-size="14" font-style="italic" lengthAdjust="spacing" textLength="84" x="591" y="1601.3184">&#171;application&#187;</text><text fill="#000000" font-family="sans-serif" font-size="14" lengthAdjust="spacing" textLength="293" x="486.5" y="1619.9395">VerifyIfExistAClassControllerForCourseService</text><rect fill="#E2E2F0" height="51.2422" rx="2.5" ry="2.5" style="stroke:#181818;stroke-width:0.5;" width="136" x="796.5" y="36"/><text fill="#000000" font-family="sans-serif" font-size="14" font-style="italic" lengthAdjust="spacing" textLength="89" x="820" y="58.1074">&#171;persistence&#187;</text><text fill="#000000" font-family="sans-serif" font-size="14" lengthAdjust="spacing" textLength="122" x="803.5" y="76.7285">PersistenceContext</text><rect fill="#E2E2F0" height="51.2422" rx="2.5" ry="2.5" style="stroke:#181818;stroke-width:0.5;" width="136" x="796.5" y="1579.2109"/><text fill="#000000" font-family="sans-serif" font-size="14" font-style="italic" lengthAdjust="spacing" textLength="89" x="820" y="1601.3184">&#171;persistence&#187;</text><text fill="#000000" font-family="sans-serif" font-size="14" lengthAdjust="spacing" textLength="122" x="803.5" y="1619.9395">PersistenceContext</text><rect fill="#E2E2F0" height="51.2422" rx="2.5" ry="2.5" style="stroke:#181818;stroke-width:0.5;" width="130" x="942.5" y="36"/><text fill="#000000" font-family="sans-serif" font-size="14" font-style="italic" lengthAdjust="spacing" textLength="59" x="978" y="58.1074">&#171;factory&#187;</text><text fill="#000000" font-family="sans-serif" font-size="14" lengthAdjust="spacing" textLength="116" x="949.5" y="76.7285">RepositoryFactory</text><rect fill="#E2E2F0" height="51.2422" rx="2.5" ry="2.5" style="stroke:#181818;stroke-width:0.5;" width="130" x="942.5" y="1579.2109"/><text fill="#000000" font-family="sans-serif" font-size="14" font-style="italic" lengthAdjust="spacing" textLength="59" x="978" y="1601.3184">&#171;factory&#187;</text><text fill="#000000" font-family="sans-serif" font-size="14" lengthAdjust="spacing" textLength="116" x="949.5" y="1619.9395">RepositoryFactory</text><rect fill="#E2E2F0" height="51.2422" rx="2.5" ry="2.5" style="stroke:#181818;stroke-width:0.5;" width="114" x="1082.5" y="36"/><text fill="#000000" font-family="sans-serif" font-size="14" font-style="italic" lengthAdjust="spacing" textLength="62" x="1108.5" y="58.1074">&#171;domain&#187;</text><text fill="#000000" font-family="sans-serif" font-size="14" lengthAdjust="spacing" textLength="100" x="1089.5" y="76.7285">CourseIdentifier</text><rect fill="#E2E2F0" height="51.2422" rx="2.5" ry="2.5" style="stroke:#181818;stroke-width:0.5;" width="114" x="1082.5" y="1579.2109"/><text fill="#000000" font-family="sans-serif" font-size="14" font-style="italic" lengthAdjust="spacing" textLength="62" x="1108.5" y="1601.3184">&#171;domain&#187;</text><text fill="#000000" font-family="sans-serif" font-size="14" lengthAdjust="spacing" textLength="100" x="1089.5" y="1619.9395">CourseIdentifier</text><rect fill="#E2E2F0" height="51.2422" rx="2.5" ry="2.5" style="stroke:#181818;stroke-width:0.5;" width="76" x="1206.5" y="36"/><text fill="#000000" font-family="sans-serif" font-size="14" font-style="italic" lengthAdjust="spacing" textLength="62" x="1213.5" y="58.1074">&#171;domain&#187;</text><text fill="#000000" font-family="sans-serif" font-size="14" lengthAdjust="spacing" textLength="46" x="1221.5" y="76.7285">Course</text><rect fill="#E2E2F0" height="51.2422" rx="2.5" ry="2.5" style="stroke:#181818;stroke-width:0.5;" width="76" x="1206.5" y="1579.2109"/><text fill="#000000" font-family="sans-serif" font-size="14" font-style="italic" lengthAdjust="spacing" textLength="62" x="1213.5" y="1601.3184">&#171;domain&#187;</text><text fill="#000000" font-family="sans-serif" font-size="14" lengthAdjust="spacing" textLength="46" x="1221.5" y="1619.9395">Course</text><rect fill="#E2E2F0" height="51.2422" rx="2.5" ry="2.5" style="stroke:#181818;stroke-width:0.5;" width="101" x="1292.5" y="36"/><text fill="#000000" font-family="sans-serif" font-size="14" font-style="italic" lengthAdjust="spacing" textLength="84" x="1301" y="58.1074">&#171;application&#187;</text><text fill="#000000" font-family="sans-serif" font-size="14" lengthAdjust="spacing" textLength="87" x="1299.5" y="76.7285">AuthzRegistry</text><rect fill="#E2E2F0" height="51.2422" rx="2.5" ry="2.5" style="stroke:#181818;stroke-width:0.5;" width="101" x="1292.5" y="1579.2109"/><text fill="#000000" font-family="sans-serif" font-size="14" font-style="italic" lengthAdjust="spacing" textLength="84" x="1301" y="1601.3184">&#171;application&#187;</text><text fill="#000000" font-family="sans-serif" font-size="14" lengthAdjust="spacing" textLength="87" x="1299.5" y="1619.9395">AuthzRegistry</text><rect fill="#E2E2F0" height="51.2422" rx="2.5" ry="2.5" style="stroke:#181818;stroke-width:0.5;" width="143" x="1403.5" y="36"/><text fill="#000000" font-family="sans-serif" font-size="14" font-style="italic" lengthAdjust="spacing" textLength="84" x="1433" y="58.1074">&#171;application&#187;</text><text fill="#000000" font-family="sans-serif" font-size="14" lengthAdjust="spacing" textLength="129" x="1410.5" y="76.7285">AuthorizationService</text><rect fill="#E2E2F0" height="51.2422" rx="2.5" ry="2.5" style="stroke:#181818;stroke-width:0.5;" width="143" x="1403.5" y="1579.2109"/><text fill="#000000" font-family="sans-serif" font-size="14" font-style="italic" lengthAdjust="spacing" textLength="84" x="1433" y="1601.3184">&#171;application&#187;</text><text fill="#000000" font-family="sans-serif" font-size="14" lengthAdjust="spacing" textLength="129" x="1410.5" y="1619.9395">AuthorizationService</text><rect fill="#E2E2F0" height="51.2422" rx="2.5" ry="2.5" style="stroke:#181818;stroke-width:0.5;" width="93" x="1556.5" y="36"/><text fill="#000000" font-family="sans-serif" font-size="14" font-style="italic" lengthAdjust="spacing" textLength="64" x="1571" y="58.1074">&#171;Domain&#187;</text><text fill="#000000" font-family="sans-serif" font-size="14" lengthAdjust="spacing" textLength="79" x="1563.5" y="76.7285">UserSession</text><rect fill="#E2E2F0" height="51.2422" rx="2.5" ry="2.5" style="stroke:#181818;stroke-width:0.5;" width="93" x="1556.5" y="1579.2109"/><text fill="#000000" font-family="sans-serif" font-size="14" font-style="italic" lengthAdjust="spacing" textLength="64" x="1571" y="1601.3184">&#171;Domain&#187;</text><text fill="#000000" font-family="sans-serif" font-size="14" lengthAdjust="spacing" textLength="79" x="1563.5" y="1619.9395">UserSession</text><text fill="#000000" font-family="sans-serif" font-size="14" font-style="italic" lengthAdjust="spacing" textLength="79" x="1677" y="66.1074">&#171;repository&#187;</text><text fill="#000000" font-family="sans-serif" font-size="14" lengthAdjust="spacing" textLength="114" x="1659.5" y="84.7285">CourseRepository</text><path d="M1701.5,15 C1701.5,5 1719.5,5 1719.5,5 C1719.5,5 1737.5,5 1737.5,15 L1737.5,41 C1737.5,51 1719.5,51 1719.5,51 C1719.5,51 1701.5,51 1701.5,41 L1701.5,15 " fill="#E2E2F0" style="stroke:#181818;stroke-width:1.5;"/><path d="M1701.5,15 C1701.5,25 1719.5,25 1719.5,25 C1719.5,25 1737.5,25 1737.5,15 " fill="none" style="stroke:#181818;stroke-width:1.5;"/><text fill="#000000" font-family="sans-serif" font-size="14" font-style="italic" lengthAdjust="spacing" textLength="79" x="1677" y="1594.3184">&#171;repository&#187;</text><text fill="#000000" font-family="sans-serif" font-size="14" lengthAdjust="spacing" textLength="114" x="1659.5" y="1612.9395">CourseRepository</text><path d="M1701.5,1626.4531 C1701.5,1616.4531 1719.5,1616.4531 1719.5,1616.4531 C1719.5,1616.4531 1737.5,1616.4531 1737.5,1626.4531 L1737.5,1652.4531 C1737.5,1662.4531 1719.5,1662.4531 1719.5,1662.4531 C1719.5,1662.4531 1701.5,1662.4531 1701.5,1652.4531 L1701.5,1626.4531 " fill="#E2E2F0" style="stroke:#181818;stroke-width:1.5;"/><path d="M1701.5,1626.4531 C1701.5,1636.4531 1719.5,1636.4531 1719.5,1636.4531 C1719.5,1636.4531 1737.5,1636.4531 1737.5,1626.4531 " fill="none" style="stroke:#181818;stroke-width:1.5;"/><text fill="#000000" font-family="sans-serif" font-size="14" font-style="italic" lengthAdjust="spacing" textLength="79" x="1810.5" y="66.1074">&#171;repository&#187;</text><text fill="#000000" font-family="sans-serif" font-size="14" lengthAdjust="spacing" textLength="121" x="1789.5" y="84.7285">TeacherRepository</text><path d="M1835,15 C1835,5 1853,5 1853,5 C1853,5 1871,5 1871,15 L1871,41 C1871,51 1853,51 1853,51 C1853,51 1835,51 1835,41 L1835,15 " fill="#E2E2F0" style="stroke:#181818;stroke-width:1.5;"/><path d="M1835,15 C1835,25 1853,25 1853,25 C1853,25 1871,25 1871,15 " fill="none" style="stroke:#181818;stroke-width:1.5;"/><text fill="#000000" font-family="sans-serif" font-size="14" font-style="italic" lengthAdjust="spacing" textLength="79" x="1810.5" y="1594.3184">&#171;repository&#187;</text><text fill="#000000" font-family="sans-serif" font-size="14" lengthAdjust="spacing" textLength="121" x="1789.5" y="1612.9395">TeacherRepository</text><path d="M1835,1626.4531 C1835,1616.4531 1853,1616.4531 1853,1616.4531 C1853,1616.4531 1871,1616.4531 1871,1626.4531 L1871,1652.4531 C1871,1662.4531 1853,1662.4531 1853,1662.4531 C1853,1662.4531 1835,1662.4531 1835,1652.4531 L1835,1626.4531 " fill="#E2E2F0" style="stroke:#181818;stroke-width:1.5;"/><path d="M1835,1626.4531 C1835,1636.4531 1853,1636.4531 1853,1636.4531 C1853,1636.4531 1871,1636.4531 1871,1626.4531 " fill="none" style="stroke:#181818;stroke-width:1.5;"/><text fill="#000000" font-family="sans-serif" font-size="14" font-style="italic" lengthAdjust="spacing" textLength="79" x="1945.5" y="66.1074">&#171;repository&#187;</text><text fill="#000000" font-family="sans-serif" font-size="14" lengthAdjust="spacing" textLength="117" x="1926.5" y="84.7285">StudentRepository</text><path d="M1970,15 C1970,5 1988,5 1988,5 C1988,5 2006,5 2006,15 L2006,41 C2006,51 1988,51 1988,51 C1988,51 1970,51 1970,41 L1970,15 " fill="#E2E2F0" style="stroke:#181818;stroke-width:1.5;"/><path d="M1970,15 C1970,25 1988,25 1988,25 C1988,25 2006,25 2006,15 " fill="none" style="stroke:#181818;stroke-width:1.5;"/><text fill="#000000" font-family="sans-serif" font-size="14" font-style="italic" lengthAdjust="spacing" textLength="79" x="1945.5" y="1594.3184">&#171;repository&#187;</text><text fill="#000000" font-family="sans-serif" font-size="14" lengthAdjust="spacing" textLength="117" x="1926.5" y="1612.9395">StudentRepository</text><path d="M1970,1626.4531 C1970,1616.4531 1988,1616.4531 1988,1616.4531 C1988,1616.4531 2006,1616.4531 2006,1626.4531 L2006,1652.4531 C2006,1662.4531 1988,1662.4531 1988,1662.4531 C1988,1662.4531 1970,1662.4531 1970,1652.4531 L1970,1626.4531 " fill="#E2E2F0" style="stroke:#181818;stroke-width:1.5;"/><path d="M1970,1626.4531 C1970,1636.4531 1988,1636.4531 1988,1636.4531 C1988,1636.4531 2006,1636.4531 2006,1626.4531 " fill="none" style="stroke:#181818;stroke-width:1.5;"/><rect fill="#FFFFFF" height="1472.9688" style="stroke:#181818;stroke-width:1.0;" width="10" x="159" y="98.2422"/><rect fill="#FFFFFF" height="1440.6777" style="stroke:#181818;stroke-width:1.0;" width="10" x="628" y="121.5332"/><rect fill="#FFFFFF" height="62.582" style="stroke:#181818;stroke-width:1.0;" width="10" x="859.5" y="152.8242"/><rect fill="#FFFFFF" height="62.582" style="stroke:#181818;stroke-width:1.0;" width="10" x="859.5" y="606.1895"/><rect fill="#FFFFFF" height="62.582" style="stroke:#181818;stroke-width:1.0;" width="10" x="859.5" y="1044.2637"/><rect fill="#FFFFFF" height="62.582" style="stroke:#181818;stroke-width:1.0;" width="10" x="1002.5" y="246.6973"/><rect fill="#FFFFFF" height="62.582" style="stroke:#181818;stroke-width:1.0;" width="10" x="1002.5" y="700.0625"/><rect fill="#FFFFFF" height="62.582" style="stroke:#181818;stroke-width:1.0;" width="10" x="1002.5" y="1138.1367"/><rect fill="#FFFFFF" height="42.9365" style="stroke:#181818;stroke-width:1.0;" width="10" x="1239.5" y="446.0889"/><rect fill="#FFFFFF" height="42.9365" style="stroke:#181818;stroke-width:1.0;" width="10" x="1239.5" y="531.9619"/><rect fill="#FFFFFF" height="42.9365" style="stroke:#181818;stroke-width:1.0;" width="10" x="1239.5" y="1395.1104"/><rect fill="#FFFFFF" height="42.9365" style="stroke:#181818;stroke-width:1.0;" width="10" x="1239.5" y="1480.9834"/><rect fill="#FFFFFF" height="31.291" style="stroke:#181818;stroke-width:1.0;" width="10" x="1338" y="793.9355"/><rect fill="#FFFFFF" height="31.291" style="stroke:#181818;stroke-width:1.0;" width="10" x="1470" y="856.5176"/><rect fill="#FFFFFF" height="31.291" style="stroke:#181818;stroke-width:1.0;" width="10" x="1598" y="919.0996"/><rect fill="#FFFFFF" height="31.291" style="stroke:#181818;stroke-width:1.0;" width="10" x="1714.5" y="371.8613"/><rect fill="#FFFFFF" height="31.291" style="stroke:#181818;stroke-width:1.0;" width="10" x="1714.5" y="1294.5918"/><rect fill="#FFFFFF" height="31.291" style="stroke:#181818;stroke-width:1.0;" width="10" x="1848" y="981.6816"/><rect fill="#FFFFFF" height="31.291" style="stroke:#181818;stroke-width:1.0;" width="10" x="1983" y="1232.0098"/><polygon fill="#181818" points="616,117.5332,626,121.5332,616,125.5332,620,121.5332" style="stroke:#181818;stroke-width:1.0;"/><line style="stroke:#181818;stroke-width:1.0;" x1="169" x2="622" y1="121.5332" y2="121.5332"/><text fill="#000000" font-family="sans-serif" font-size="13" font-weight="bold" lengthAdjust="spacing" textLength="7" x="176" y="116.2705">1</text><text fill="#000000" font-family="sans-serif" font-size="13" lengthAdjust="spacing" textLength="429" x="187" y="116.2705">verifyIfExistAClassAtTheTime(startingDateWithTime. duration, courseDTO)</text><polygon fill="#181818" points="847.5,148.8242,857.5,152.8242,847.5,156.8242,851.5,152.8242" style="stroke:#181818;stroke-width:1.0;"/><line style="stroke:#181818;stroke-width:1.0;" x1="638" x2="853.5" y1="152.8242" y2="152.8242"/><text fill="#000000" font-family="sans-serif" font-size="13" font-weight="bold" lengthAdjust="spacing" textLength="7" x="645" y="147.5615">2</text><text fill="#000000" font-family="sans-serif" font-size="13" lengthAdjust="spacing" textLength="75" x="656" y="147.5615">repositories()</text><polygon fill="#181818" points="995.5,180.1152,1005.5,184.1152,995.5,188.1152,999.5,184.1152" style="stroke:#181818;stroke-width:1.0;"/><line style="stroke:#181818;stroke-width:1.0;" x1="869.5" x2="1001.5" y1="184.1152" y2="184.1152"/><text fill="#000000" font-family="sans-serif" font-size="13" font-weight="bold" lengthAdjust="spacing" textLength="7" x="876.5" y="178.8525">3</text><text fill="#000000" font-family="sans-serif" font-size="13" lengthAdjust="spacing" textLength="36" x="887.5" y="178.8525">create</text><polygon fill="#181818" points="649,211.4063,639,215.4063,649,219.4063,645,215.4063" style="stroke:#181818;stroke-width:1.0;"/><line style="stroke:#181818;stroke-width:1.0;stroke-dasharray:2.0,2.0;" x1="643" x2="863.5" y1="215.4063" y2="215.4063"/><text fill="#000000" font-family="sans-serif" font-size="13" font-weight="bold" lengthAdjust="spacing" textLength="7" x="655" y="210.1436">4</text><text fill="#000000" font-family="sans-serif" font-size="13" lengthAdjust="spacing" textLength="39" x="666" y="210.1436">factory</text><polygon fill="#181818" points="990.5,242.6973,1000.5,246.6973,990.5,250.6973,994.5,246.6973" style="stroke:#181818;stroke-width:1.0;"/><line style="stroke:#181818;stroke-width:1.0;" x1="638" x2="996.5" y1="246.6973" y2="246.6973"/><text fill="#000000" font-family="sans-serif" font-size="13" font-weight="bold" lengthAdjust="spacing" textLength="7" x="645" y="241.4346">5</text><text fill="#000000" font-family="sans-serif" font-size="13" lengthAdjust="spacing" textLength="109" x="656" y="241.4346">courseRepository()</text><polygon fill="#181818" points="1707.5,273.9883,1717.5,277.9883,1707.5,281.9883,1711.5,277.9883" style="stroke:#181818;stroke-width:1.0;"/><line style="stroke:#181818;stroke-width:1.0;" x1="1012.5" x2="1713.5" y1="277.9883" y2="277.9883"/><text fill="#000000" font-family="sans-serif" font-size="13" font-weight="bold" lengthAdjust="spacing" textLength="7" x="1019.5" y="272.7256">6</text><text fill="#000000" font-family="sans-serif" font-size="13" lengthAdjust="spacing" textLength="36" x="1030.5" y="272.7256">create</text><polygon fill="#181818" points="649,305.2793,639,309.2793,649,313.2793,645,309.2793" style="stroke:#181818;stroke-width:1.0;"/><line style="stroke:#181818;stroke-width:1.0;stroke-dasharray:2.0,2.0;" x1="643" x2="1006.5" y1="309.2793" y2="309.2793"/><text fill="#000000" font-family="sans-serif" font-size="13" font-weight="bold" lengthAdjust="spacing" textLength="7" x="655" y="304.0166">7</text><text fill="#000000" font-family="sans-serif" font-size="13" lengthAdjust="spacing" textLength="101" x="666" y="304.0166">courseRepository</text><polygon fill="#181818" points="1127.5,336.5703,1137.5,340.5703,1127.5,344.5703,1131.5,340.5703" style="stroke:#181818;stroke-width:1.0;"/><line style="stroke:#181818;stroke-width:1.0;" x1="638" x2="1133.5" y1="340.5703" y2="340.5703"/><text fill="#000000" font-family="sans-serif" font-size="13" font-weight="bold" lengthAdjust="spacing" textLength="7" x="645" y="335.3076">8</text><text fill="#000000" font-family="sans-serif" font-size="13" lengthAdjust="spacing" textLength="131" x="656" y="335.3076">create(courseIdentifier)</text><polygon fill="#181818" points="1702.5,367.8613,1712.5,371.8613,1702.5,375.8613,1706.5,371.8613" style="stroke:#181818;stroke-width:1.0;"/><line style="stroke:#181818;stroke-width:1.0;" x1="638" x2="1708.5" y1="371.8613" y2="371.8613"/><text fill="#000000" font-family="sans-serif" font-size="13" font-weight="bold" lengthAdjust="spacing" textLength="7" x="645" y="366.5986">9</text><text fill="#000000" font-family="sans-serif" font-size="13" lengthAdjust="spacing" textLength="109" x="656" y="366.5986">ofIdentity(courseId)</text><polygon fill="#181818" points="649,399.1523,639,403.1523,649,407.1523,645,403.1523" style="stroke:#181818;stroke-width:1.0;"/><line style="stroke:#181818;stroke-width:1.0;stroke-dasharray:2.0,2.0;" x1="643" x2="1718.5" y1="403.1523" y2="403.1523"/><text fill="#000000" font-family="sans-serif" font-size="13" font-weight="bold" lengthAdjust="spacing" textLength="14" x="655" y="397.8896">10</text><text fill="#000000" font-family="sans-serif" font-size="13" lengthAdjust="spacing" textLength="39" x="673" y="397.8896">course</text><polygon fill="#181818" points="1227.5,442.0889,1237.5,446.0889,1227.5,450.0889,1231.5,446.0889" style="stroke:#181818;stroke-width:1.0;"/><line style="stroke:#181818;stroke-width:1.0;" x1="638" x2="1233.5" y1="446.0889" y2="446.0889"/><text fill="#000000" font-family="sans-serif" font-size="13" font-weight="bold" lengthAdjust="spacing" textLength="14" x="645" y="440.8262">11</text><text fill="#000000" font-family="sans-serif" font-size="13" lengthAdjust="spacing" textLength="356" x="663" y="440.8262">verifyIfExistAClassAtTheTime(startingDateWithTime, duration)</text><path d="M1254,416.1523 L1254,460.1523 L1543,460.1523 L1543,426.1523 L1533,416.1523 L1254,416.1523 " fill="#FEFFDD" style="stroke:#181818;stroke-width:0.5;"/><path d="M1533,416.1523 L1533,426.1523 L1543,426.1523 L1533,416.1523 " fill="#FEFFDD" style="stroke:#181818;stroke-width:0.5;"/><text fill="#000000" font-family="sans-serif" font-size="13" lengthAdjust="spacing" textLength="264" x="1260" y="435.1807">Check The SD_VerifyIfExistAClassAtTheTime</text><text fill="#000000" font-family="sans-serif" font-size="13" lengthAdjust="spacing" textLength="114" x="1264" y="452.4717">for more information</text><polygon fill="#181818" points="649,485.0254,639,489.0254,649,493.0254,645,489.0254" style="stroke:#181818;stroke-width:1.0;"/><line style="stroke:#181818;stroke-width:1.0;stroke-dasharray:2.0,2.0;" x1="643" x2="1243.5" y1="489.0254" y2="489.0254"/><text fill="#000000" font-family="sans-serif" font-size="13" font-weight="bold" lengthAdjust="spacing" textLength="14" x="655" y="483.7627">12</text><text fill="#000000" font-family="sans-serif" font-size="13" lengthAdjust="spacing" textLength="45" x="673" y="483.7627">boolean</text><polygon fill="#181818" points="1227.5,527.9619,1237.5,531.9619,1227.5,535.9619,1231.5,531.9619" style="stroke:#181818;stroke-width:1.0;"/><line style="stroke:#181818;stroke-width:1.0;" x1="638" x2="1233.5" y1="531.9619" y2="531.9619"/><text fill="#000000" font-family="sans-serif" font-size="13" font-weight="bold" lengthAdjust="spacing" textLength="14" x="645" y="526.6992">13</text><text fill="#000000" font-family="sans-serif" font-size="13" lengthAdjust="spacing" textLength="394" x="663" y="526.6992">verifyIfExistAnExtraClassAtTheTime(startingDateWithTime, duration)</text><path d="M1254,502.0254 L1254,546.0254 L1574,546.0254 L1574,512.0254 L1564,502.0254 L1254,502.0254 " fill="#FEFFDD" style="stroke:#181818;stroke-width:0.5;"/><path d="M1564,502.0254 L1564,512.0254 L1574,512.0254 L1564,502.0254 " fill="#FEFFDD" style="stroke:#181818;stroke-width:0.5;"/><text fill="#000000" font-family="sans-serif" font-size="13" lengthAdjust="spacing" textLength="295" x="1260" y="521.0537">Check The SD_VerifyIfExistAExtraClassAtTheTime</text><text fill="#000000" font-family="sans-serif" font-size="13" lengthAdjust="spacing" textLength="114" x="1264" y="538.3447">for more information</text><polygon fill="#181818" points="649,570.8984,639,574.8984,649,578.8984,645,574.8984" style="stroke:#181818;stroke-width:1.0;"/><line style="stroke:#181818;stroke-width:1.0;stroke-dasharray:2.0,2.0;" x1="643" x2="1243.5" y1="574.8984" y2="574.8984"/><text fill="#000000" font-family="sans-serif" font-size="13" font-weight="bold" lengthAdjust="spacing" textLength="14" x="655" y="569.6357">14</text><text fill="#000000" font-family="sans-serif" font-size="13" lengthAdjust="spacing" textLength="45" x="673" y="569.6357">boolean</text><polygon fill="#181818" points="847.5,602.1895,857.5,606.1895,847.5,610.1895,851.5,606.1895" style="stroke:#181818;stroke-width:1.0;"/><line style="stroke:#181818;stroke-width:1.0;" x1="638" x2="853.5" y1="606.1895" y2="606.1895"/><text fill="#000000" font-family="sans-serif" font-size="13" font-weight="bold" lengthAdjust="spacing" textLength="14" x="645" y="600.9268">15</text><text fill="#000000" font-family="sans-serif" font-size="13" lengthAdjust="spacing" textLength="75" x="663" y="600.9268">repositories()</text><polygon fill="#181818" points="995.5,633.4805,1005.5,637.4805,995.5,641.4805,999.5,637.4805" style="stroke:#181818;stroke-width:1.0;"/><line style="stroke:#181818;stroke-width:1.0;" x1="869.5" x2="1001.5" y1="637.4805" y2="637.4805"/><text fill="#000000" font-family="sans-serif" font-size="13" font-weight="bold" lengthAdjust="spacing" textLength="14" x="876.5" y="632.2178">16</text><text fill="#000000" font-family="sans-serif" font-size="13" lengthAdjust="spacing" textLength="36" x="894.5" y="632.2178">create</text><polygon fill="#181818" points="649,664.7715,639,668.7715,649,672.7715,645,668.7715" style="stroke:#181818;stroke-width:1.0;"/><line style="stroke:#181818;stroke-width:1.0;stroke-dasharray:2.0,2.0;" x1="643" x2="863.5" y1="668.7715" y2="668.7715"/><text fill="#000000" font-family="sans-serif" font-size="13" font-weight="bold" lengthAdjust="spacing" textLength="14" x="655" y="663.5088">17</text><text fill="#000000" font-family="sans-serif" font-size="13" lengthAdjust="spacing" textLength="39" x="673" y="663.5088">factory</text><polygon fill="#181818" points="990.5,696.0625,1000.5,700.0625,990.5,704.0625,994.5,700.0625" style="stroke:#181818;stroke-width:1.0;"/><line style="stroke:#181818;stroke-width:1.0;" x1="638" x2="996.5" y1="700.0625" y2="700.0625"/><text fill="#000000" font-family="sans-serif" font-size="13" font-weight="bold" lengthAdjust="spacing" textLength="14" x="645" y="694.7998">18</text><text fill="#000000" font-family="sans-serif" font-size="13" lengthAdjust="spacing" textLength="113" x="663" y="694.7998">teacherRepository()</text><polygon fill="#181818" points="1841,727.3535,1851,731.3535,1841,735.3535,1845,731.3535" style="stroke:#181818;stroke-width:1.0;"/><line style="stroke:#181818;stroke-width:1.0;" x1="1012.5" x2="1847" y1="731.3535" y2="731.3535"/><text fill="#000000" font-family="sans-serif" font-size="13" font-weight="bold" lengthAdjust="spacing" textLength="14" x="1019.5" y="726.0908">19</text><text fill="#000000" font-family="sans-serif" font-size="13" lengthAdjust="spacing" textLength="36" x="1037.5" y="726.0908">create</text><polygon fill="#181818" points="649,758.6445,639,762.6445,649,766.6445,645,762.6445" style="stroke:#181818;stroke-width:1.0;"/><line style="stroke:#181818;stroke-width:1.0;stroke-dasharray:2.0,2.0;" x1="643" x2="1006.5" y1="762.6445" y2="762.6445"/><text fill="#000000" font-family="sans-serif" font-size="13" font-weight="bold" lengthAdjust="spacing" textLength="14" x="655" y="757.3818">20</text><text fill="#000000" font-family="sans-serif" font-size="13" lengthAdjust="spacing" textLength="105" x="673" y="757.3818">teacherRepository</text><polygon fill="#181818" points="1326,789.9355,1336,793.9355,1326,797.9355,1330,793.9355" style="stroke:#181818;stroke-width:1.0;"/><line style="stroke:#181818;stroke-width:1.0;" x1="638" x2="1332" y1="793.9355" y2="793.9355"/><text fill="#000000" font-family="sans-serif" font-size="13" font-weight="bold" lengthAdjust="spacing" textLength="14" x="645" y="788.6729">21</text><text fill="#000000" font-family="sans-serif" font-size="13" lengthAdjust="spacing" textLength="124" x="663" y="788.6729">authorizationService()</text><polygon fill="#181818" points="649,821.2266,639,825.2266,649,829.2266,645,825.2266" style="stroke:#181818;stroke-width:1.0;"/><line style="stroke:#181818;stroke-width:1.0;" x1="643" x2="1342" y1="825.2266" y2="825.2266"/><text fill="#000000" font-family="sans-serif" font-size="13" font-weight="bold" lengthAdjust="spacing" textLength="14" x="655" y="819.9639">22</text><text fill="#000000" font-family="sans-serif" font-size="13" lengthAdjust="spacing" textLength="32" x="673" y="819.9639">authz</text><polygon fill="#181818" points="1458,852.5176,1468,856.5176,1458,860.5176,1462,856.5176" style="stroke:#181818;stroke-width:1.0;"/><line style="stroke:#181818;stroke-width:1.0;" x1="638" x2="1464" y1="856.5176" y2="856.5176"/><text fill="#000000" font-family="sans-serif" font-size="13" font-weight="bold" lengthAdjust="spacing" textLength="14" x="645" y="851.2549">23</text><text fill="#000000" font-family="sans-serif" font-size="13" lengthAdjust="spacing" textLength="53" x="663" y="851.2549">session()</text><polygon fill="#181818" points="649,883.8086,639,887.8086,649,891.8086,645,887.8086" style="stroke:#181818;stroke-width:1.0;"/><line style="stroke:#181818;stroke-width:1.0;stroke-dasharray:2.0,2.0;" x1="643" x2="1474" y1="887.8086" y2="887.8086"/><text fill="#000000" font-family="sans-serif" font-size="13" font-weight="bold" lengthAdjust="spacing" textLength="14" x="655" y="882.5459">24</text><text fill="#000000" font-family="sans-serif" font-size="13" lengthAdjust="spacing" textLength="72" x="673" y="882.5459">userSession</text><polygon fill="#181818" points="1586,915.0996,1596,919.0996,1586,923.0996,1590,919.0996" style="stroke:#181818;stroke-width:1.0;"/><line style="stroke:#181818;stroke-width:1.0;" x1="638" x2="1592" y1="919.0996" y2="919.0996"/><text fill="#000000" font-family="sans-serif" font-size="13" font-weight="bold" lengthAdjust="spacing" textLength="14" x="645" y="913.8369">25</text><text fill="#000000" font-family="sans-serif" font-size="13" lengthAdjust="spacing" textLength="113" x="663" y="913.8369">authenticatedUser()</text><polygon fill="#181818" points="649,946.3906,639,950.3906,649,954.3906,645,950.3906" style="stroke:#181818;stroke-width:1.0;"/><line style="stroke:#181818;stroke-width:1.0;stroke-dasharray:2.0,2.0;" x1="643" x2="1602" y1="950.3906" y2="950.3906"/><text fill="#000000" font-family="sans-serif" font-size="13" font-weight="bold" lengthAdjust="spacing" textLength="14" x="655" y="945.1279">26</text><text fill="#000000" font-family="sans-serif" font-size="13" lengthAdjust="spacing" textLength="70" x="673" y="945.1279">systemUser</text><polygon fill="#181818" points="1836,977.6816,1846,981.6816,1836,985.6816,1840,981.6816" style="stroke:#181818;stroke-width:1.0;"/><line style="stroke:#181818;stroke-width:1.0;" x1="638" x2="1842" y1="981.6816" y2="981.6816"/><text fill="#000000" font-family="sans-serif" font-size="13" font-weight="bold" lengthAdjust="spacing" textLength="14" x="645" y="976.4189">27</text><text fill="#000000" font-family="sans-serif" font-size="13" lengthAdjust="spacing" textLength="232" x="663" y="976.4189">findTeacherBySystemUser(systemUser)</text><polygon fill="#181818" points="649,1008.9727,639,1012.9727,649,1016.9727,645,1012.9727" style="stroke:#181818;stroke-width:1.0;"/><line style="stroke:#181818;stroke-width:1.0;stroke-dasharray:2.0,2.0;" x1="643" x2="1852" y1="1012.9727" y2="1012.9727"/><text fill="#000000" font-family="sans-serif" font-size="13" font-weight="bold" lengthAdjust="spacing" textLength="14" x="655" y="1007.71">28</text><text fill="#000000" font-family="sans-serif" font-size="13" lengthAdjust="spacing" textLength="43" x="673" y="1007.71">teacher</text><polygon fill="#181818" points="847.5,1040.2637,857.5,1044.2637,847.5,1048.2637,851.5,1044.2637" style="stroke:#181818;stroke-width:1.0;"/><line style="stroke:#181818;stroke-width:1.0;" x1="638" x2="853.5" y1="1044.2637" y2="1044.2637"/><text fill="#000000" font-family="sans-serif" font-size="13" font-weight="bold" lengthAdjust="spacing" textLength="14" x="645" y="1039.001">29</text><text fill="#000000" font-family="sans-serif" font-size="13" lengthAdjust="spacing" textLength="75" x="663" y="1039.001">repositories()</text><polygon fill="#181818" points="995.5,1071.5547,1005.5,1075.5547,995.5,1079.5547,999.5,1075.5547" style="stroke:#181818;stroke-width:1.0;"/><line style="stroke:#181818;stroke-width:1.0;" x1="869.5" x2="1001.5" y1="1075.5547" y2="1075.5547"/><text fill="#000000" font-family="sans-serif" font-size="13" font-weight="bold" lengthAdjust="spacing" textLength="14" x="876.5" y="1070.292">30</text><text fill="#000000" font-family="sans-serif" font-size="13" lengthAdjust="spacing" textLength="36" x="894.5" y="1070.292">create</text><polygon fill="#181818" points="649,1102.8457,639,1106.8457,649,1110.8457,645,1106.8457" style="stroke:#181818;stroke-width:1.0;"/><line style="stroke:#181818;stroke-width:1.0;stroke-dasharray:2.0,2.0;" x1="643" x2="863.5" y1="1106.8457" y2="1106.8457"/><text fill="#000000" font-family="sans-serif" font-size="13" font-weight="bold" lengthAdjust="spacing" textLength="14" x="655" y="1101.583">31</text><text fill="#000000" font-family="sans-serif" font-size="13" lengthAdjust="spacing" textLength="39" x="673" y="1101.583">factory</text><polygon fill="#181818" points="990.5,1134.1367,1000.5,1138.1367,990.5,1142.1367,994.5,1138.1367" style="stroke:#181818;stroke-width:1.0;"/><line style="stroke:#181818;stroke-width:1.0;" x1="638" x2="996.5" y1="1138.1367" y2="1138.1367"/><text fill="#000000" font-family="sans-serif" font-size="13" font-weight="bold" lengthAdjust="spacing" textLength="14" x="645" y="1132.874">32</text><text fill="#000000" font-family="sans-serif" font-size="13" lengthAdjust="spacing" textLength="113" x="663" y="1132.874">studentRepository()</text><polygon fill="#181818" points="1976,1165.4277,1986,1169.4277,1976,1173.4277,1980,1169.4277" style="stroke:#181818;stroke-width:1.0;"/><line style="stroke:#181818;stroke-width:1.0;" x1="1012.5" x2="1982" y1="1169.4277" y2="1169.4277"/><text fill="#000000" font-family="sans-serif" font-size="13" font-weight="bold" lengthAdjust="spacing" textLength="14" x="1019.5" y="1164.165">33</text><text fill="#000000" font-family="sans-serif" font-size="13" lengthAdjust="spacing" textLength="36" x="1037.5" y="1164.165">create</text><polygon fill="#181818" points="649,1196.7188,639,1200.7188,649,1204.7188,645,1200.7188" style="stroke:#181818;stroke-width:1.0;"/><line style="stroke:#181818;stroke-width:1.0;stroke-dasharray:2.0,2.0;" x1="643" x2="1006.5" y1="1200.7188" y2="1200.7188"/><text fill="#000000" font-family="sans-serif" font-size="13" font-weight="bold" lengthAdjust="spacing" textLength="14" x="655" y="1195.4561">34</text><text fill="#000000" font-family="sans-serif" font-size="13" lengthAdjust="spacing" textLength="105" x="673" y="1195.4561">studentRepository</text><polygon fill="#181818" points="1971,1228.0098,1981,1232.0098,1971,1236.0098,1975,1232.0098" style="stroke:#181818;stroke-width:1.0;"/><line style="stroke:#181818;stroke-width:1.0;" x1="638" x2="1977" y1="1232.0098" y2="1232.0098"/><text fill="#000000" font-family="sans-serif" font-size="13" font-weight="bold" lengthAdjust="spacing" textLength="14" x="645" y="1226.7471">35</text><text fill="#000000" font-family="sans-serif" font-size="13" lengthAdjust="spacing" textLength="179" x="663" y="1226.7471">findStudentsInACourse(course)</text><polygon fill="#181818" points="649,1259.3008,639,1263.3008,649,1267.3008,645,1263.3008" style="stroke:#181818;stroke-width:1.0;"/><line style="stroke:#181818;stroke-width:1.0;stroke-dasharray:2.0,2.0;" x1="643" x2="1987" y1="1263.3008" y2="1263.3008"/><text fill="#000000" font-family="sans-serif" font-size="13" font-weight="bold" lengthAdjust="spacing" textLength="14" x="655" y="1258.0381">36</text><text fill="#000000" font-family="sans-serif" font-size="13" lengthAdjust="spacing" textLength="62" x="673" y="1258.0381">listStudent</text><polygon fill="#181818" points="1702.5,1290.5918,1712.5,1294.5918,1702.5,1298.5918,1706.5,1294.5918" style="stroke:#181818;stroke-width:1.0;"/><line style="stroke:#181818;stroke-width:1.0;" x1="638" x2="1708.5" y1="1294.5918" y2="1294.5918"/><text fill="#000000" font-family="sans-serif" font-size="13" font-weight="bold" lengthAdjust="spacing" textLength="14" x="645" y="1289.3291">37</text><text fill="#000000" font-family="sans-serif" font-size="13" lengthAdjust="spacing" textLength="454" x="663" y="1289.3291">findAllCourseRelatedWithTheMembersOfAGivenCourse(listStudent,listTeacher)</text><polygon fill="#181818" points="649,1321.8828,639,1325.8828,649,1329.8828,645,1325.8828" style="stroke:#181818;stroke-width:1.0;"/><line style="stroke:#181818;stroke-width:1.0;stroke-dasharray:2.0,2.0;" x1="643" x2="1718.5" y1="1325.8828" y2="1325.8828"/><text fill="#000000" font-family="sans-serif" font-size="13" font-weight="bold" lengthAdjust="spacing" textLength="14" x="655" y="1320.6201">38</text><text fill="#000000" font-family="sans-serif" font-size="13" lengthAdjust="spacing" textLength="58" x="673" y="1320.6201">listCourse</text><path d="M469.5,1340.8828 L542.5,1340.8828 L542.5,1350.1738 L532.5,1360.1738 L469.5,1360.1738 L469.5,1340.8828 " fill="#EEEEEE" style="stroke:#000000;stroke-width:1.5;"/><rect fill="none" height="191.0371" style="stroke:#000000;stroke-width:1.5;" width="1110" x="469.5" y="1340.8828"/><text fill="#000000" font-family="sans-serif" font-size="13" font-weight="bold" lengthAdjust="spacing" textLength="28" x="484.5" y="1355.9111">loop</text><text fill="#000000" font-family="sans-serif" font-size="11" font-weight="bold" lengthAdjust="spacing" textLength="171" x="557.5" y="1354.7529">[for each Course in listCourse]</text><polygon fill="#181818" points="1227.5,1391.1104,1237.5,1395.1104,1227.5,1399.1104,1231.5,1395.1104" style="stroke:#181818;stroke-width:1.0;"/><line style="stroke:#181818;stroke-width:1.0;" x1="638" x2="1233.5" y1="1395.1104" y2="1395.1104"/><text fill="#000000" font-family="sans-serif" font-size="13" font-weight="bold" lengthAdjust="spacing" textLength="14" x="645" y="1389.8477">39</text><text fill="#000000" font-family="sans-serif" font-size="13" lengthAdjust="spacing" textLength="356" x="663" y="1389.8477">verifyIfExistAClassAtTheTime(startingDateWithTime, duration)</text><path d="M1254,1365.1738 L1254,1409.1738 L1543,1409.1738 L1543,1375.1738 L1533,1365.1738 L1254,1365.1738 " fill="#FEFFDD" style="stroke:#181818;stroke-width:0.5;"/><path d="M1533,1365.1738 L1533,1375.1738 L1543,1375.1738 L1533,1365.1738 " fill="#FEFFDD" style="stroke:#181818;stroke-width:0.5;"/><text fill="#000000" font-family="sans-serif" font-size="13" lengthAdjust="spacing" textLength="264" x="1260" y="1384.2021">Check The SD_VerifyIfExistAClassAtTheTime</text><text fill="#000000" font-family="sans-serif" font-size="13" lengthAdjust="spacing" textLength="114" x="1264" y="1401.4932">for more information</text><polygon fill="#181818" points="649,1434.0469,639,1438.0469,649,1442.0469,645,1438.0469" style="stroke:#181818;stroke-width:1.0;"/><line style="stroke:#181818;stroke-width:1.0;stroke-dasharray:2.0,2.0;" x1="643" x2="1243.5" y1="1438.0469" y2="1438.0469"/><text fill="#000000" font-family="sans-serif" font-size="13" font-weight="bold" lengthAdjust="spacing" textLength="14" x="655" y="1432.7842">40</text><text fill="#000000" font-family="sans-serif" font-size="13" lengthAdjust="spacing" textLength="45" x="673" y="1432.7842">boolean</text><polygon fill="#181818" points="1227.5,1476.9834,1237.5,1480.9834,1227.5,1484.9834,1231.5,1480.9834" style="stroke:#181818;stroke-width:1.0;"/><line style="stroke:#181818;stroke-width:1.0;" x1="638" x2="1233.5" y1="1480.9834" y2="1480.9834"/><text fill="#000000" font-family="sans-serif" font-size="13" font-weight="bold" lengthAdjust="spacing" textLength="14" x="645" y="1475.7207">41</text><text fill="#000000" font-family="sans-serif" font-size="13" lengthAdjust="spacing" textLength="394" x="663" y="1475.7207">verifyIfExistAnExtraClassAtTheTime(startingDateWithTime, duration)</text><path d="M1254,1451.0469 L1254,1495.0469 L1574,1495.0469 L1574,1461.0469 L1564,1451.0469 L1254,1451.0469 " fill="#FEFFDD" style="stroke:#181818;stroke-width:0.5;"/><path d="M1564,1451.0469 L1564,1461.0469 L1574,1461.0469 L1564,1451.0469 " fill="#FEFFDD" style="stroke:#181818;stroke-width:0.5;"/><text fill="#000000" font-family="sans-serif" font-size="13" lengthAdjust="spacing" textLength="295" x="1260" y="1470.0752">Check The SD_VerifyIfExistAExtraClassAtTheTime</text><text fill="#000000" font-family="sans-serif" font-size="13" lengthAdjust="spacing" textLength="114" x="1264" y="1487.3662">for more information</text><polygon fill="#181818" points="649,1519.9199,639,1523.9199,649,1527.9199,645,1523.9199" style="stroke:#181818;stroke-width:1.0;"/><line style="stroke:#181818;stroke-width:1.0;stroke-dasharray:2.0,2.0;" x1="643" x2="1243.5" y1="1523.9199" y2="1523.9199"/><text fill="#000000" font-family="sans-serif" font-size="13" font-weight="bold" lengthAdjust="spacing" textLength="14" x="655" y="1518.6572">42</text><text fill="#000000" font-family="sans-serif" font-size="13" lengthAdjust="spacing" textLength="45" x="673" y="1518.6572">boolean</text><polygon fill="#181818" points="180,1558.2109,170,1562.2109,180,1566.2109,176,1562.2109" style="stroke:#181818;stroke-width:1.0;"/><line style="stroke:#181818;stroke-width:1.0;stroke-dasharray:2.0,2.0;" x1="174" x2="632" y1="1562.2109" y2="1562.2109"/><text fill="#000000" font-family="sans-serif" font-size="13" font-weight="bold" lengthAdjust="spacing" textLength="14" x="186" y="1556.9482">43</text><text fill="#000000" font-family="sans-serif" font-size="13" lengthAdjust="spacing" textLength="45" x="204" y="1556.9482">boolean</text><!--SRC=[xLRBRjim4BppAuHSwW1vt0qZW6idHGv5YiXrBmKAHbfPH2LI9IaZpjTtIT7IIbQSj42BjkZ5bgYTsLbooU6RtDhAJ2ylgu9BMvV5HQBAImFVQf09dAU2RpGl6UErLR8k7q0pLd5jHI8g14GdQz0Yszrcru_2sFcYuCRCxIg7bIZXHca_i53IQbKKe4yYRgB4wYAQpNXL5IBXLYXvTTLd7I7jE1ohghM16FHM9E0eJNWSibBI3w0Dqhcw71ayMeSaeuYkkhS1-XugPOHLUdV34_Vdm3YuVvlDikPfW6katgOWhSW4Q3y1pTWIGQagkV3rZw2ws5ua3PpNDd-wXmsARYJXGkL7fy4Xb1PF_XkPGWUCrqUX7t6QOp06lpX4xLyHiUoAIBdb3nm5DnLqizRLWcE8qUqNnBMe5V0a1zs7MU37CB6jtUpsCSQc8nY6IoIst8BlGSPy9vvVxTjd6csFTFF4M3SNShD4Wa_2vcxm8afhxUVgB9ItNDsTTda2CsFx3iLifEMcKQjFW9aG80bYj4SHttNTD4eqO7G_WXOKcfAbCCfCLFLO1uj7XNLnZBG_4hIWLXNzJaKDwQawGa_LjLjcJpv91Xlhz33SQr5P4sDtBOHKqmQohZc9rcWlbahiC2CIVwA7pjeUEX36fC9dBJQvHIcB79Al4L95yVBBiOCt-YoZJEceL1eY8V6nzFoXoFvgF2XL09U75RwYEddzQ3N_JJMEvFe5XVxvkzCE3ybNRS_c57rnRnwGFxSvgJhd7LF_EtGMAirzPzwVQ48ty4IJ-B01URoU8i8xpv0nNhDWNRqwwiwhXkI88FHDOAF3dHFeV90wfwE9cY0M7Az_G9WTBbVf43HHGD1CmSTmsOLCWzEztSKjVD8naTGDYWLmFtLOB9etXFzT7Ms65lwgZcuy_iMEFY1_fgE9jd1xQ5Ogt2_ChPmtbvhW8zJbVJmBiFuQ5LXxeA290sJKj4BYUL7iRr65Qqf_bkRm7jmrtDnbytTY2p9e8cdEt7Fehn-oEeTR7BExGgdAdxUEV7z95P82_nlYls288DEkLbSiNfH7uqFGTm00]--></g></svg>