<?xml version="1.0" encoding="us-ascii" standalone="no"?><svg xmlns="http://www.w3.org/2000/svg" xmlns:xlink="http://www.w3.org/1999/xlink" contentStyleType="text/css" height="479px" preserveAspectRatio="none" style="width:1605px;height:479px;background:#FFFFFF;" version="1.1" viewBox="0 0 1605 479" width="1605px" zoomAndPan="magnify"><defs/><g><rect fill="#FFFFFF" height="338.2012" style="stroke:#181818;stroke-width:1.0;" width="10" x="69.5" y="67.2422"/><rect fill="#FFFFFF" height="314.9102" style="stroke:#181818;stroke-width:1.0;" width="10" x="503.5" y="90.5332"/><rect fill="#FFFFFF" height="219.0371" style="stroke:#181818;stroke-width:1.0;" width="10" x="937.5" y="148.1152"/><rect fill="#FFFFFF" height="156.4551" style="stroke:#181818;stroke-width:1.0;" width="10" x="1333.5" y="179.4063"/><rect fill="#FFFFFF" height="31.291" style="stroke:#181818;stroke-width:1.0;" width="10" x="1460.5" y="210.6973"/><rect fill="#FFFFFF" height="31.291" style="stroke:#181818;stroke-width:1.0;" width="10" x="1546.5" y="273.2793"/><rect fill="none" height="269.6191" style="stroke:#000000;stroke-width:1.5;" width="1139" x="460.5" y="105.5332"/><line style="stroke:#181818;stroke-width:0.5;stroke-dasharray:5.0,5.0;" x1="74" x2="74" y1="57.2422" y2="423.4434"/><line style="stroke:#181818;stroke-width:0.5;stroke-dasharray:5.0,5.0;" x1="508.5" x2="508.5" y1="57.2422" y2="423.4434"/><line style="stroke:#181818;stroke-width:0.5;stroke-dasharray:5.0,5.0;" x1="601.5" x2="601.5" y1="57.2422" y2="423.4434"/><line style="stroke:#181818;stroke-width:0.5;stroke-dasharray:5.0,5.0;" x1="942" x2="942" y1="57.2422" y2="423.4434"/><line style="stroke:#181818;stroke-width:0.5;stroke-dasharray:5.0,5.0;" x1="1338" x2="1338" y1="57.2422" y2="423.4434"/><line style="stroke:#181818;stroke-width:0.5;stroke-dasharray:5.0,5.0;" x1="1465.5" x2="1465.5" y1="57.2422" y2="423.4434"/><line style="stroke:#181818;stroke-width:0.5;stroke-dasharray:5.0,5.0;" x1="1551.5" x2="1551.5" y1="57.2422" y2="423.4434"/><rect fill="#E2E2F0" height="51.2422" rx="2.5" ry="2.5" style="stroke:#181818;stroke-width:0.5;" width="139" x="5" y="5"/><text fill="#000000" font-family="sans-serif" font-size="14" font-style="italic" lengthAdjust="spacing" textLength="84" x="32.5" y="27.1074">&#171;application&#187;</text><text fill="#000000" font-family="sans-serif" font-size="14" lengthAdjust="spacing" textLength="125" x="12" y="45.7285">CreateClassService</text><rect fill="#E2E2F0" height="51.2422" rx="2.5" ry="2.5" style="stroke:#181818;stroke-width:0.5;" width="139" x="5" y="422.4434"/><text fill="#000000" font-family="sans-serif" font-size="14" font-style="italic" lengthAdjust="spacing" textLength="84" x="32.5" y="444.5508">&#171;application&#187;</text><text fill="#000000" font-family="sans-serif" font-size="14" lengthAdjust="spacing" textLength="125" x="12" y="463.1719">CreateClassService</text><rect fill="#E2E2F0" height="51.2422" rx="2.5" ry="2.5" style="stroke:#181818;stroke-width:0.5;" width="76" x="470.5" y="5"/><text fill="#000000" font-family="sans-serif" font-size="14" font-style="italic" lengthAdjust="spacing" textLength="62" x="477.5" y="27.1074">&#171;domain&#187;</text><text fill="#000000" font-family="sans-serif" font-size="14" lengthAdjust="spacing" textLength="46" x="485.5" y="45.7285">Course</text><rect fill="#E2E2F0" height="51.2422" rx="2.5" ry="2.5" style="stroke:#181818;stroke-width:0.5;" width="76" x="470.5" y="422.4434"/><text fill="#000000" font-family="sans-serif" font-size="14" font-style="italic" lengthAdjust="spacing" textLength="62" x="477.5" y="444.5508">&#171;domain&#187;</text><text fill="#000000" font-family="sans-serif" font-size="14" lengthAdjust="spacing" textLength="46" x="485.5" y="463.1719">Course</text><rect fill="#E2E2F0" height="51.2422" rx="2.5" ry="2.5" style="stroke:#181818;stroke-width:0.5;" width="90" x="556.5" y="5"/><text fill="#000000" font-family="sans-serif" font-size="14" font-style="italic" lengthAdjust="spacing" textLength="62" x="570.5" y="27.1074">&#171;domain&#187;</text><text fill="#000000" font-family="sans-serif" font-size="14" lengthAdjust="spacing" textLength="76" x="563.5" y="45.7285">WeeklyDate</text><rect fill="#E2E2F0" height="51.2422" rx="2.5" ry="2.5" style="stroke:#181818;stroke-width:0.5;" width="90" x="556.5" y="422.4434"/><text fill="#000000" font-family="sans-serif" font-size="14" font-style="italic" lengthAdjust="spacing" textLength="62" x="570.5" y="444.5508">&#171;domain&#187;</text><text fill="#000000" font-family="sans-serif" font-size="14" lengthAdjust="spacing" textLength="76" x="563.5" y="463.1719">WeeklyDate</text><rect fill="#E2E2F0" height="51.2422" rx="2.5" ry="2.5" style="stroke:#181818;stroke-width:0.5;" width="81" x="902" y="5"/><text fill="#000000" font-family="sans-serif" font-size="14" font-style="italic" lengthAdjust="spacing" textLength="62" x="911.5" y="27.1074">&#171;domain&#187;</text><text fill="#000000" font-family="sans-serif" font-size="14" lengthAdjust="spacing" textLength="67" x="909" y="45.7285">ExtraClass</text><rect fill="#E2E2F0" height="51.2422" rx="2.5" ry="2.5" style="stroke:#181818;stroke-width:0.5;" width="81" x="902" y="422.4434"/><text fill="#000000" font-family="sans-serif" font-size="14" font-style="italic" lengthAdjust="spacing" textLength="62" x="911.5" y="444.5508">&#171;domain&#187;</text><text fill="#000000" font-family="sans-serif" font-size="14" lengthAdjust="spacing" textLength="67" x="909" y="463.1719">ExtraClass</text><rect fill="#E2E2F0" height="51.2422" rx="2.5" ry="2.5" style="stroke:#181818;stroke-width:0.5;" width="111" x="1283" y="5"/><text fill="#000000" font-family="sans-serif" font-size="14" font-style="italic" lengthAdjust="spacing" textLength="62" x="1307.5" y="27.1074">&#171;domain&#187;</text><text fill="#000000" font-family="sans-serif" font-size="14" lengthAdjust="spacing" textLength="97" x="1290" y="45.7285">ScheduledDate</text><rect fill="#E2E2F0" height="51.2422" rx="2.5" ry="2.5" style="stroke:#181818;stroke-width:0.5;" width="111" x="1283" y="422.4434"/><text fill="#000000" font-family="sans-serif" font-size="14" font-style="italic" lengthAdjust="spacing" textLength="62" x="1307.5" y="444.5508">&#171;domain&#187;</text><text fill="#000000" font-family="sans-serif" font-size="14" lengthAdjust="spacing" textLength="97" x="1290" y="463.1719">ScheduledDate</text><rect fill="#E2E2F0" height="51.2422" rx="2.5" ry="2.5" style="stroke:#181818;stroke-width:0.5;" width="76" x="1427.5" y="5"/><text fill="#000000" font-family="sans-serif" font-size="14" font-style="italic" lengthAdjust="spacing" textLength="62" x="1434.5" y="27.1074">&#171;domain&#187;</text><text fill="#000000" font-family="sans-serif" font-size="14" lengthAdjust="spacing" textLength="54" x="1438.5" y="45.7285">Duration</text><rect fill="#E2E2F0" height="51.2422" rx="2.5" ry="2.5" style="stroke:#181818;stroke-width:0.5;" width="76" x="1427.5" y="422.4434"/><text fill="#000000" font-family="sans-serif" font-size="14" font-style="italic" lengthAdjust="spacing" textLength="62" x="1434.5" y="444.5508">&#171;domain&#187;</text><text fill="#000000" font-family="sans-serif" font-size="14" lengthAdjust="spacing" textLength="54" x="1438.5" y="463.1719">Duration</text><rect fill="#E2E2F0" height="51.2422" rx="2.5" ry="2.5" style="stroke:#181818;stroke-width:0.5;" width="76" x="1513.5" y="5"/><text fill="#000000" font-family="sans-serif" font-size="14" font-style="italic" lengthAdjust="spacing" textLength="62" x="1520.5" y="27.1074">&#171;domain&#187;</text><text fill="#000000" font-family="sans-serif" font-size="14" lengthAdjust="spacing" textLength="30" x="1536.5" y="45.7285">Date</text><rect fill="#E2E2F0" height="51.2422" rx="2.5" ry="2.5" style="stroke:#181818;stroke-width:0.5;" width="76" x="1513.5" y="422.4434"/><text fill="#000000" font-family="sans-serif" font-size="14" font-style="italic" lengthAdjust="spacing" textLength="62" x="1520.5" y="444.5508">&#171;domain&#187;</text><text fill="#000000" font-family="sans-serif" font-size="14" lengthAdjust="spacing" textLength="30" x="1536.5" y="463.1719">Date</text><rect fill="#FFFFFF" height="338.2012" style="stroke:#181818;stroke-width:1.0;" width="10" x="69.5" y="67.2422"/><rect fill="#FFFFFF" height="314.9102" style="stroke:#181818;stroke-width:1.0;" width="10" x="503.5" y="90.5332"/><rect fill="#FFFFFF" height="219.0371" style="stroke:#181818;stroke-width:1.0;" width="10" x="937.5" y="148.1152"/><rect fill="#FFFFFF" height="156.4551" style="stroke:#181818;stroke-width:1.0;" width="10" x="1333.5" y="179.4063"/><rect fill="#FFFFFF" height="31.291" style="stroke:#181818;stroke-width:1.0;" width="10" x="1460.5" y="210.6973"/><rect fill="#FFFFFF" height="31.291" style="stroke:#181818;stroke-width:1.0;" width="10" x="1546.5" y="273.2793"/><polygon fill="#181818" points="491.5,86.5332,501.5,90.5332,491.5,94.5332,495.5,90.5332" style="stroke:#181818;stroke-width:1.0;"/><line style="stroke:#181818;stroke-width:1.0;" x1="79.5" x2="497.5" y1="90.5332" y2="90.5332"/><text fill="#000000" font-family="sans-serif" font-size="13" font-weight="bold" lengthAdjust="spacing" textLength="7" x="86.5" y="85.2705">1</text><text fill="#000000" font-family="sans-serif" font-size="13" lengthAdjust="spacing" textLength="394" x="97.5" y="85.2705">verifyIfExistAnExtraClassAtTheTime(startingDateWithTime, duration)</text><path d="M460.5,105.5332 L533.5,105.5332 L533.5,114.8242 L523.5,124.8242 L460.5,124.8242 L460.5,105.5332 " fill="#EEEEEE" style="stroke:#000000;stroke-width:1.5;"/><rect fill="none" height="269.6191" style="stroke:#000000;stroke-width:1.5;" width="1139" x="460.5" y="105.5332"/><text fill="#000000" font-family="sans-serif" font-size="13" font-weight="bold" lengthAdjust="spacing" textLength="28" x="475.5" y="120.5615">loop</text><text fill="#000000" font-family="sans-serif" font-size="11" font-weight="bold" lengthAdjust="spacing" textLength="230" x="548.5" y="119.4033">[for all ExtraClass or until boolean == true]</text><polygon fill="#181818" points="925.5,144.1152,935.5,148.1152,925.5,152.1152,929.5,148.1152" style="stroke:#181818;stroke-width:1.0;"/><line style="stroke:#181818;stroke-width:1.0;" x1="513.5" x2="931.5" y1="148.1152" y2="148.1152"/><text fill="#000000" font-family="sans-serif" font-size="13" font-weight="bold" lengthAdjust="spacing" textLength="7" x="520.5" y="142.8525">2</text><text fill="#000000" font-family="sans-serif" font-size="13" lengthAdjust="spacing" textLength="394" x="531.5" y="142.8525">verifyIfExistAnExtraClassAtTheTime(startingDateWithTime, duration)</text><polygon fill="#181818" points="1321.5,175.4063,1331.5,179.4063,1321.5,183.4063,1325.5,179.4063" style="stroke:#181818;stroke-width:1.0;"/><line style="stroke:#181818;stroke-width:1.0;" x1="947.5" x2="1327.5" y1="179.4063" y2="179.4063"/><text fill="#000000" font-family="sans-serif" font-size="13" font-weight="bold" lengthAdjust="spacing" textLength="7" x="954.5" y="174.1436">3</text><text fill="#000000" font-family="sans-serif" font-size="13" lengthAdjust="spacing" textLength="356" x="965.5" y="174.1436">verifyIfExistAtTheCurrentTime(startingDateWithTime, duration)</text><polygon fill="#181818" points="1448.5,206.6973,1458.5,210.6973,1448.5,214.6973,1452.5,210.6973" style="stroke:#181818;stroke-width:1.0;"/><line style="stroke:#181818;stroke-width:1.0;" x1="1343.5" x2="1454.5" y1="210.6973" y2="210.6973"/><text fill="#000000" font-family="sans-serif" font-size="13" font-weight="bold" lengthAdjust="spacing" textLength="7" x="1350.5" y="205.4346">4</text><text fill="#000000" font-family="sans-serif" font-size="13" lengthAdjust="spacing" textLength="87" x="1361.5" y="205.4346">returnMinutes()</text><polygon fill="#181818" points="1354.5,237.9883,1344.5,241.9883,1354.5,245.9883,1350.5,241.9883" style="stroke:#181818;stroke-width:1.0;"/><line style="stroke:#181818;stroke-width:1.0;stroke-dasharray:2.0,2.0;" x1="1348.5" x2="1464.5" y1="241.9883" y2="241.9883"/><text fill="#000000" font-family="sans-serif" font-size="13" font-weight="bold" lengthAdjust="spacing" textLength="7" x="1360.5" y="236.7256">5</text><text fill="#000000" font-family="sans-serif" font-size="13" lengthAdjust="spacing" textLength="69" x="1371.5" y="236.7256">thisDuration</text><polygon fill="#181818" points="1534.5,269.2793,1544.5,273.2793,1534.5,277.2793,1538.5,273.2793" style="stroke:#181818;stroke-width:1.0;"/><line style="stroke:#181818;stroke-width:1.0;" x1="1343.5" x2="1540.5" y1="273.2793" y2="273.2793"/><text fill="#000000" font-family="sans-serif" font-size="13" font-weight="bold" lengthAdjust="spacing" textLength="7" x="1350.5" y="268.0166">6</text><text fill="#000000" font-family="sans-serif" font-size="13" lengthAdjust="spacing" textLength="68" x="1361.5" y="268.0166">returnDate()</text><polygon fill="#181818" points="1354.5,300.5703,1344.5,304.5703,1354.5,308.5703,1350.5,304.5703" style="stroke:#181818;stroke-width:1.0;"/><line style="stroke:#181818;stroke-width:1.0;stroke-dasharray:2.0,2.0;" x1="1348.5" x2="1550.5" y1="304.5703" y2="304.5703"/><text fill="#000000" font-family="sans-serif" font-size="13" font-weight="bold" lengthAdjust="spacing" textLength="7" x="1360.5" y="299.3076">7</text><text fill="#000000" font-family="sans-serif" font-size="13" lengthAdjust="spacing" textLength="57" x="1371.5" y="299.3076">data_time</text><polygon fill="#181818" points="958.5,331.8613,948.5,335.8613,958.5,339.8613,954.5,335.8613" style="stroke:#181818;stroke-width:1.0;"/><line style="stroke:#181818;stroke-width:1.0;stroke-dasharray:2.0,2.0;" x1="952.5" x2="1337.5" y1="335.8613" y2="335.8613"/><text fill="#000000" font-family="sans-serif" font-size="13" font-weight="bold" lengthAdjust="spacing" textLength="7" x="964.5" y="330.5986">8</text><text fill="#000000" font-family="sans-serif" font-size="13" lengthAdjust="spacing" textLength="45" x="975.5" y="330.5986">boolean</text><polygon fill="#181818" points="524.5,363.1523,514.5,367.1523,524.5,371.1523,520.5,367.1523" style="stroke:#181818;stroke-width:1.0;"/><line style="stroke:#181818;stroke-width:1.0;stroke-dasharray:2.0,2.0;" x1="518.5" x2="941.5" y1="367.1523" y2="367.1523"/><text fill="#000000" font-family="sans-serif" font-size="13" font-weight="bold" lengthAdjust="spacing" textLength="7" x="530.5" y="361.8896">9</text><text fill="#000000" font-family="sans-serif" font-size="13" lengthAdjust="spacing" textLength="45" x="541.5" y="361.8896">boolean</text><polygon fill="#181818" points="85.5,401.4434,75.5,405.4434,85.5,409.4434,81.5,405.4434" style="stroke:#181818;stroke-width:1.0;"/><line style="stroke:#181818;stroke-width:1.0;stroke-dasharray:2.0,2.0;" x1="79.5" x2="507.5" y1="405.4434" y2="405.4434"/><text fill="#000000" font-family="sans-serif" font-size="13" font-weight="bold" lengthAdjust="spacing" textLength="14" x="91.5" y="400.1807">10</text><text fill="#000000" font-family="sans-serif" font-size="13" lengthAdjust="spacing" textLength="45" x="109.5" y="400.1807">boolean</text><!--SRC=[hP8nRy8m48Lt_mflfL9JTXIG431qw0GIOsMIWrXrxDG-K_ZtjHCdSG9K7RhPf_VkEz_pKu5OcTbqMWacqPRYDLFbrC2N1Pb1adDsqgmaX5bKqfO7q8HKJ2FFUEKCTAM18Qm4CsOB-impeCnG4uvfogfAy8mXLtAn63gLrQPMPyqfJNDLCZxMxG4-nNNjA5xxtTyUw3SNrAmUoEkXlptGRxC2SYiWRn4c57w3hAskt-JrUNj-f0rzyr4_mZBaPryCwoBjsf95sCcCda7pu_NjkBbmWqlPFsw9km9sl8I9GG-J9y_PSonyyQMRwhd7D3q94KfLzAWqPKB4wt8LAv4BUb1A09DqFgUeBP0Ga1khN-V_ZjRt9L5Y3XY7CKPwpCfg3HB_H8iM7dKbWxmTiijpHZMWrVATIujW9j6yhOPqucGqh7DZmSsw4yAj-ORS-1ggBmwGVjPQSGVbwkm3tNi77EyOGKOPXgHZrs0tSHZ9elsKTrnnW3BlVeoVjFdKTrtXHyRqHlq3]--></g></svg>