<?xml version="1.0" encoding="us-ascii" standalone="no"?><svg xmlns="http://www.w3.org/2000/svg" xmlns:xlink="http://www.w3.org/1999/xlink" contentStyleType="text/css" height="575px" preserveAspectRatio="none" style="width:1880px;height:575px;background:#FFFFFF;" version="1.1" viewBox="0 0 1880 575" width="1880px" zoomAndPan="magnify"><defs/><g><rect fill="#FFFFFF" height="434.0742" style="stroke:#181818;stroke-width:1.0;" width="10" x="69.5" y="67.2422"/><rect fill="#FFFFFF" height="410.7832" style="stroke:#181818;stroke-width:1.0;" width="10" x="454.5" y="90.5332"/><rect fill="#FFFFFF" height="314.9102" style="stroke:#181818;stroke-width:1.0;" width="10" x="839.5" y="148.1152"/><rect fill="#FFFFFF" height="252.3281" style="stroke:#181818;stroke-width:1.0;" width="10" x="1224.5" y="179.4063"/><rect fill="#FFFFFF" height="156.4551" style="stroke:#181818;stroke-width:1.0;" width="10" x="1609.5" y="236.9883"/><rect fill="#FFFFFF" height="31.291" style="stroke:#181818;stroke-width:1.0;" width="10" x="1725.5" y="268.2793"/><rect fill="#FFFFFF" height="31.291" style="stroke:#181818;stroke-width:1.0;" width="10" x="1811.5" y="330.8613"/><rect fill="none" height="365.4922" style="stroke:#000000;stroke-width:1.5;" width="1463" x="411.5" y="105.5332"/><rect fill="none" height="207.0371" style="stroke:#000000;stroke-width:1.5;" width="690" x="1174.5" y="194.4063"/><line style="stroke:#181818;stroke-width:0.5;stroke-dasharray:5.0,5.0;" x1="74" x2="74" y1="57.2422" y2="519.3164"/><line style="stroke:#181818;stroke-width:0.5;stroke-dasharray:5.0,5.0;" x1="459.5" x2="459.5" y1="57.2422" y2="519.3164"/><line style="stroke:#181818;stroke-width:0.5;stroke-dasharray:5.0,5.0;" x1="844.5" x2="844.5" y1="57.2422" y2="519.3164"/><line style="stroke:#181818;stroke-width:0.5;stroke-dasharray:5.0,5.0;" x1="1229.5" x2="1229.5" y1="57.2422" y2="519.3164"/><line style="stroke:#181818;stroke-width:0.5;stroke-dasharray:5.0,5.0;" x1="1614" x2="1614" y1="57.2422" y2="519.3164"/><line style="stroke:#181818;stroke-width:0.5;stroke-dasharray:5.0,5.0;" x1="1730.5" x2="1730.5" y1="57.2422" y2="519.3164"/><line style="stroke:#181818;stroke-width:0.5;stroke-dasharray:5.0,5.0;" x1="1816.5" x2="1816.5" y1="57.2422" y2="519.3164"/><rect fill="#E2E2F0" height="51.2422" rx="2.5" ry="2.5" style="stroke:#181818;stroke-width:0.5;" width="139" x="5" y="5"/><text fill="#000000" font-family="sans-serif" font-size="14" font-style="italic" lengthAdjust="spacing" textLength="84" x="32.5" y="27.1074">&#171;application&#187;</text><text fill="#000000" font-family="sans-serif" font-size="14" lengthAdjust="spacing" textLength="125" x="12" y="45.7285">CreateClassService</text><rect fill="#E2E2F0" height="51.2422" rx="2.5" ry="2.5" style="stroke:#181818;stroke-width:0.5;" width="139" x="5" y="518.3164"/><text fill="#000000" font-family="sans-serif" font-size="14" font-style="italic" lengthAdjust="spacing" textLength="84" x="32.5" y="540.4238">&#171;application&#187;</text><text fill="#000000" font-family="sans-serif" font-size="14" lengthAdjust="spacing" textLength="125" x="12" y="559.0449">CreateClassService</text><rect fill="#E2E2F0" height="51.2422" rx="2.5" ry="2.5" style="stroke:#181818;stroke-width:0.5;" width="76" x="421.5" y="5"/><text fill="#000000" font-family="sans-serif" font-size="14" font-style="italic" lengthAdjust="spacing" textLength="62" x="428.5" y="27.1074">&#171;domain&#187;</text><text fill="#000000" font-family="sans-serif" font-size="14" lengthAdjust="spacing" textLength="46" x="436.5" y="45.7285">Course</text><rect fill="#E2E2F0" height="51.2422" rx="2.5" ry="2.5" style="stroke:#181818;stroke-width:0.5;" width="76" x="421.5" y="518.3164"/><text fill="#000000" font-family="sans-serif" font-size="14" font-style="italic" lengthAdjust="spacing" textLength="62" x="428.5" y="540.4238">&#171;domain&#187;</text><text fill="#000000" font-family="sans-serif" font-size="14" lengthAdjust="spacing" textLength="46" x="436.5" y="559.0449">Course</text><rect fill="#E2E2F0" height="51.2422" rx="2.5" ry="2.5" style="stroke:#181818;stroke-width:0.5;" width="76" x="806.5" y="5"/><text fill="#000000" font-family="sans-serif" font-size="14" font-style="italic" lengthAdjust="spacing" textLength="62" x="813.5" y="27.1074">&#171;domain&#187;</text><text fill="#000000" font-family="sans-serif" font-size="14" lengthAdjust="spacing" textLength="35" x="827" y="45.7285">Class</text><rect fill="#E2E2F0" height="51.2422" rx="2.5" ry="2.5" style="stroke:#181818;stroke-width:0.5;" width="76" x="806.5" y="518.3164"/><text fill="#000000" font-family="sans-serif" font-size="14" font-style="italic" lengthAdjust="spacing" textLength="62" x="813.5" y="540.4238">&#171;domain&#187;</text><text fill="#000000" font-family="sans-serif" font-size="14" lengthAdjust="spacing" textLength="35" x="827" y="559.0449">Class</text><rect fill="#E2E2F0" height="51.2422" rx="2.5" ry="2.5" style="stroke:#181818;stroke-width:0.5;" width="90" x="1184.5" y="5"/><text fill="#000000" font-family="sans-serif" font-size="14" font-style="italic" lengthAdjust="spacing" textLength="62" x="1198.5" y="27.1074">&#171;domain&#187;</text><text fill="#000000" font-family="sans-serif" font-size="14" lengthAdjust="spacing" textLength="76" x="1191.5" y="45.7285">WeeklyDate</text><rect fill="#E2E2F0" height="51.2422" rx="2.5" ry="2.5" style="stroke:#181818;stroke-width:0.5;" width="90" x="1184.5" y="518.3164"/><text fill="#000000" font-family="sans-serif" font-size="14" font-style="italic" lengthAdjust="spacing" textLength="62" x="1198.5" y="540.4238">&#171;domain&#187;</text><text fill="#000000" font-family="sans-serif" font-size="14" lengthAdjust="spacing" textLength="76" x="1191.5" y="559.0449">WeeklyDate</text><rect fill="#E2E2F0" height="51.2422" rx="2.5" ry="2.5" style="stroke:#181818;stroke-width:0.5;" width="111" x="1559" y="5"/><text fill="#000000" font-family="sans-serif" font-size="14" font-style="italic" lengthAdjust="spacing" textLength="62" x="1583.5" y="27.1074">&#171;domain&#187;</text><text fill="#000000" font-family="sans-serif" font-size="14" lengthAdjust="spacing" textLength="97" x="1566" y="45.7285">ScheduledDate</text><rect fill="#E2E2F0" height="51.2422" rx="2.5" ry="2.5" style="stroke:#181818;stroke-width:0.5;" width="111" x="1559" y="518.3164"/><text fill="#000000" font-family="sans-serif" font-size="14" font-style="italic" lengthAdjust="spacing" textLength="62" x="1583.5" y="540.4238">&#171;domain&#187;</text><text fill="#000000" font-family="sans-serif" font-size="14" lengthAdjust="spacing" textLength="97" x="1566" y="559.0449">ScheduledDate</text><rect fill="#E2E2F0" height="51.2422" rx="2.5" ry="2.5" style="stroke:#181818;stroke-width:0.5;" width="76" x="1692.5" y="5"/><text fill="#000000" font-family="sans-serif" font-size="14" font-style="italic" lengthAdjust="spacing" textLength="62" x="1699.5" y="27.1074">&#171;domain&#187;</text><text fill="#000000" font-family="sans-serif" font-size="14" lengthAdjust="spacing" textLength="54" x="1703.5" y="45.7285">Duration</text><rect fill="#E2E2F0" height="51.2422" rx="2.5" ry="2.5" style="stroke:#181818;stroke-width:0.5;" width="76" x="1692.5" y="518.3164"/><text fill="#000000" font-family="sans-serif" font-size="14" font-style="italic" lengthAdjust="spacing" textLength="62" x="1699.5" y="540.4238">&#171;domain&#187;</text><text fill="#000000" font-family="sans-serif" font-size="14" lengthAdjust="spacing" textLength="54" x="1703.5" y="559.0449">Duration</text><rect fill="#E2E2F0" height="51.2422" rx="2.5" ry="2.5" style="stroke:#181818;stroke-width:0.5;" width="76" x="1778.5" y="5"/><text fill="#000000" font-family="sans-serif" font-size="14" font-style="italic" lengthAdjust="spacing" textLength="62" x="1785.5" y="27.1074">&#171;domain&#187;</text><text fill="#000000" font-family="sans-serif" font-size="14" lengthAdjust="spacing" textLength="30" x="1801.5" y="45.7285">Date</text><rect fill="#E2E2F0" height="51.2422" rx="2.5" ry="2.5" style="stroke:#181818;stroke-width:0.5;" width="76" x="1778.5" y="518.3164"/><text fill="#000000" font-family="sans-serif" font-size="14" font-style="italic" lengthAdjust="spacing" textLength="62" x="1785.5" y="540.4238">&#171;domain&#187;</text><text fill="#000000" font-family="sans-serif" font-size="14" lengthAdjust="spacing" textLength="30" x="1801.5" y="559.0449">Date</text><rect fill="#FFFFFF" height="434.0742" style="stroke:#181818;stroke-width:1.0;" width="10" x="69.5" y="67.2422"/><rect fill="#FFFFFF" height="410.7832" style="stroke:#181818;stroke-width:1.0;" width="10" x="454.5" y="90.5332"/><rect fill="#FFFFFF" height="314.9102" style="stroke:#181818;stroke-width:1.0;" width="10" x="839.5" y="148.1152"/><rect fill="#FFFFFF" height="252.3281" style="stroke:#181818;stroke-width:1.0;" width="10" x="1224.5" y="179.4063"/><rect fill="#FFFFFF" height="156.4551" style="stroke:#181818;stroke-width:1.0;" width="10" x="1609.5" y="236.9883"/><rect fill="#FFFFFF" height="31.291" style="stroke:#181818;stroke-width:1.0;" width="10" x="1725.5" y="268.2793"/><rect fill="#FFFFFF" height="31.291" style="stroke:#181818;stroke-width:1.0;" width="10" x="1811.5" y="330.8613"/><polygon fill="#181818" points="442.5,86.5332,452.5,90.5332,442.5,94.5332,446.5,90.5332" style="stroke:#181818;stroke-width:1.0;"/><line style="stroke:#181818;stroke-width:1.0;" x1="79.5" x2="448.5" y1="90.5332" y2="90.5332"/><text fill="#000000" font-family="sans-serif" font-size="13" lengthAdjust="spacing" textLength="356" x="86.5" y="85.2705">verifyIfExistAClassAtTheTime(startingDateWithTime, duration)</text><path d="M411.5,105.5332 L484.5,105.5332 L484.5,114.8242 L474.5,124.8242 L411.5,124.8242 L411.5,105.5332 " fill="#EEEEEE" style="stroke:#000000;stroke-width:1.5;"/><rect fill="none" height="365.4922" style="stroke:#000000;stroke-width:1.5;" width="1463" x="411.5" y="105.5332"/><text fill="#000000" font-family="sans-serif" font-size="13" font-weight="bold" lengthAdjust="spacing" textLength="28" x="426.5" y="120.5615">loop</text><text fill="#000000" font-family="sans-serif" font-size="11" font-weight="bold" lengthAdjust="spacing" textLength="203" x="499.5" y="119.4033">[for all Class or until boolean == true]</text><polygon fill="#181818" points="827.5,144.1152,837.5,148.1152,827.5,152.1152,831.5,148.1152" style="stroke:#181818;stroke-width:1.0;"/><line style="stroke:#181818;stroke-width:1.0;" x1="464.5" x2="833.5" y1="148.1152" y2="148.1152"/><text fill="#000000" font-family="sans-serif" font-size="13" lengthAdjust="spacing" textLength="356" x="471.5" y="142.8525">verifyIfExistAClassAtTheTime(startingDateWithTime, duration)</text><polygon fill="#181818" points="1212.5,175.4063,1222.5,179.4063,1212.5,183.4063,1216.5,179.4063" style="stroke:#181818;stroke-width:1.0;"/><line style="stroke:#181818;stroke-width:1.0;" x1="849.5" x2="1218.5" y1="179.4063" y2="179.4063"/><text fill="#000000" font-family="sans-serif" font-size="13" lengthAdjust="spacing" textLength="356" x="856.5" y="174.1436">verifyIfExistAClassAtTheTime(startingDateWithTime, duration)</text><path d="M1174.5,194.4063 L1247.5,194.4063 L1247.5,203.6973 L1237.5,213.6973 L1174.5,213.6973 L1174.5,194.4063 " fill="#EEEEEE" style="stroke:#000000;stroke-width:1.5;"/><rect fill="none" height="207.0371" style="stroke:#000000;stroke-width:1.5;" width="690" x="1174.5" y="194.4063"/><text fill="#000000" font-family="sans-serif" font-size="13" font-weight="bold" lengthAdjust="spacing" textLength="28" x="1189.5" y="209.4346">loop</text><text fill="#000000" font-family="sans-serif" font-size="11" font-weight="bold" lengthAdjust="spacing" textLength="348" x="1262.5" y="208.2764">[for each scheduledDate in WeeklyDate or until boolean == true]</text><polygon fill="#181818" points="1597.5,232.9883,1607.5,236.9883,1597.5,240.9883,1601.5,236.9883" style="stroke:#181818;stroke-width:1.0;"/><line style="stroke:#181818;stroke-width:1.0;" x1="1234.5" x2="1603.5" y1="236.9883" y2="236.9883"/><text fill="#000000" font-family="sans-serif" font-size="13" lengthAdjust="spacing" textLength="356" x="1241.5" y="231.7256">verifyIfExistAtTheCurrentTime(startingDateWithTime, duration)</text><polygon fill="#181818" points="1713.5,264.2793,1723.5,268.2793,1713.5,272.2793,1717.5,268.2793" style="stroke:#181818;stroke-width:1.0;"/><line style="stroke:#181818;stroke-width:1.0;" x1="1619.5" x2="1719.5" y1="268.2793" y2="268.2793"/><text fill="#000000" font-family="sans-serif" font-size="13" lengthAdjust="spacing" textLength="87" x="1626.5" y="263.0166">returnMinutes()</text><polygon fill="#181818" points="1630.5,295.5703,1620.5,299.5703,1630.5,303.5703,1626.5,299.5703" style="stroke:#181818;stroke-width:1.0;"/><line style="stroke:#181818;stroke-width:1.0;stroke-dasharray:2.0,2.0;" x1="1624.5" x2="1729.5" y1="299.5703" y2="299.5703"/><text fill="#000000" font-family="sans-serif" font-size="13" lengthAdjust="spacing" textLength="69" x="1636.5" y="294.3076">thisDuration</text><polygon fill="#181818" points="1799.5,326.8613,1809.5,330.8613,1799.5,334.8613,1803.5,330.8613" style="stroke:#181818;stroke-width:1.0;"/><line style="stroke:#181818;stroke-width:1.0;" x1="1619.5" x2="1805.5" y1="330.8613" y2="330.8613"/><text fill="#000000" font-family="sans-serif" font-size="13" lengthAdjust="spacing" textLength="68" x="1626.5" y="325.5986">returnDate()</text><polygon fill="#181818" points="1630.5,358.1523,1620.5,362.1523,1630.5,366.1523,1626.5,362.1523" style="stroke:#181818;stroke-width:1.0;"/><line style="stroke:#181818;stroke-width:1.0;stroke-dasharray:2.0,2.0;" x1="1624.5" x2="1815.5" y1="362.1523" y2="362.1523"/><text fill="#000000" font-family="sans-serif" font-size="13" lengthAdjust="spacing" textLength="57" x="1636.5" y="356.8896">data_time</text><polygon fill="#181818" points="1245.5,389.4434,1235.5,393.4434,1245.5,397.4434,1241.5,393.4434" style="stroke:#181818;stroke-width:1.0;"/><line style="stroke:#181818;stroke-width:1.0;stroke-dasharray:2.0,2.0;" x1="1239.5" x2="1613.5" y1="393.4434" y2="393.4434"/><text fill="#000000" font-family="sans-serif" font-size="13" lengthAdjust="spacing" textLength="45" x="1251.5" y="388.1807">boolean</text><polygon fill="#181818" points="860.5,427.7344,850.5,431.7344,860.5,435.7344,856.5,431.7344" style="stroke:#181818;stroke-width:1.0;"/><line style="stroke:#181818;stroke-width:1.0;stroke-dasharray:2.0,2.0;" x1="854.5" x2="1228.5" y1="431.7344" y2="431.7344"/><text fill="#000000" font-family="sans-serif" font-size="13" lengthAdjust="spacing" textLength="45" x="866.5" y="426.4717">boolean</text><polygon fill="#181818" points="475.5,459.0254,465.5,463.0254,475.5,467.0254,471.5,463.0254" style="stroke:#181818;stroke-width:1.0;"/><line style="stroke:#181818;stroke-width:1.0;stroke-dasharray:2.0,2.0;" x1="469.5" x2="843.5" y1="463.0254" y2="463.0254"/><text fill="#000000" font-family="sans-serif" font-size="13" lengthAdjust="spacing" textLength="45" x="481.5" y="457.7627">boolean</text><polygon fill="#181818" points="85.5,497.3164,75.5,501.3164,85.5,505.3164,81.5,501.3164" style="stroke:#181818;stroke-width:1.0;"/><line style="stroke:#181818;stroke-width:1.0;stroke-dasharray:2.0,2.0;" x1="79.5" x2="458.5" y1="501.3164" y2="501.3164"/><text fill="#000000" font-family="sans-serif" font-size="13" lengthAdjust="spacing" textLength="45" x="91.5" y="496.0537">boolean</text><!--SRC=[hLCzRy8m4DtzAxoLIatP4I0XwD2X4qYCbUiSnAfZf_QPbdzVEt4I9q2bIcpswRrxxxuU2iJApgRJIZA5hfJFN9TJ2ryE58Si5-neM4b8nGmABYeFeci3364jcRLRC2V1WJ9BRNpEvwogfE0CXLRBvP2fdR4rcZUl-JpN9HCNk92xXpNV6zWzmASyRxoZGFZkVpVmMrv0xYJaBSN6m5-aZJDrFG6Vj-zRs9Wt7-KZZACuXM1i5MbRbYrZeJDw0YCEvzV3ou-mkAeBN-6kW9qeOM8noAXZKDWBB4BmgVFps0iqsGYHMbVqe0rbKiQc-ezJA2Jzq5e2KtIne6WSa3YHpaiDlw-XcatIcNgrVcBt4kipzWq0nejkqiteXKftvsPVaetoRjDb6ViDJjVE653uFyDfKZ9OHw_OhTkC6a1dr9jG3i5EaWGjXdJWREJLix4GTjC1uP9yeTpm6jKG74W6hpNYYfIFitVqvGvq0cCaCff_x7tA6lG6L3wOntXPh_2JPHWiNhPiJ-uAALtNeDdUHgYqkTa_Q0FtyTB9Bm00]--></g></svg>