<?xml version="1.0" encoding="us-ascii" standalone="no"?><svg xmlns="http://www.w3.org/2000/svg" xmlns:xlink="http://www.w3.org/1999/xlink" contentStyleType="text/css" height="1081px" preserveAspectRatio="none" style="width:2784px;height:1081px;background:#FFFFFF;" version="1.1" viewBox="0 0 2784 1081" width="2784px" zoomAndPan="magnify"><defs/><g><rect fill="#FFFFFF" height="886.7031" style="stroke:#181818;stroke-width:1.0;" width="10" x="29.5" y="92.2813"/><rect fill="#FFFFFF" height="886.7031" style="stroke:#181818;stroke-width:1.0;" width="10" x="298.5" y="92.2813"/><rect fill="#FFFFFF" height="800.1328" style="stroke:#181818;stroke-width:1.0;" width="10" x="775.5" y="141.3281"/><rect fill="#FFFFFF" height="743.0859" style="stroke:#181818;stroke-width:1.0;" width="10" x="1252.5" y="169.8516"/><rect fill="#FFFFFF" height="142.6172" style="stroke:#181818;stroke-width:1.0;" width="10" x="1660.5" y="450.0859"/><rect fill="#FFFFFF" height="142.6172" style="stroke:#181818;stroke-width:1.0;" width="10" x="1660.5" y="693.2734"/><rect fill="#FFFFFF" height="85.5703" style="stroke:#181818;stroke-width:1.0;" width="10" x="2129.5" y="478.6094"/><rect fill="#FFFFFF" height="85.5703" style="stroke:#181818;stroke-width:1.0;" width="10" x="2129.5" y="721.7969"/><rect fill="#FFFFFF" height="57.0469" style="stroke:#181818;stroke-width:1.0;" width="10" x="2451" y="198.375"/><rect fill="#FFFFFF" height="57.0469" style="stroke:#181818;stroke-width:1.0;" width="10" x="2594" y="283.9453"/><rect fill="none" height="229.1875" style="stroke:#000000;stroke-width:1.5;" width="1226" x="1162" y="413.0391"/><rect fill="none" height="229.1875" style="stroke:#000000;stroke-width:1.5;" width="1226" x="1162" y="656.2266"/><line style="stroke:#181818;stroke-width:0.5;stroke-dasharray:5.0,5.0;" x1="34" x2="34" y1="82.2813" y2="987.9844"/><line style="stroke:#181818;stroke-width:0.5;stroke-dasharray:5.0,5.0;" x1="303.5" x2="303.5" y1="82.2813" y2="987.9844"/><line style="stroke:#181818;stroke-width:0.5;stroke-dasharray:5.0,5.0;" x1="780.5" x2="780.5" y1="82.2813" y2="987.9844"/><line style="stroke:#181818;stroke-width:0.5;stroke-dasharray:5.0,5.0;" x1="1257" x2="1257" y1="82.2813" y2="987.9844"/><line style="stroke:#181818;stroke-width:0.5;stroke-dasharray:5.0,5.0;" x1="1665" x2="1665" y1="82.2813" y2="987.9844"/><line style="stroke:#181818;stroke-width:0.5;stroke-dasharray:5.0,5.0;" x1="2134" x2="2134" y1="82.2813" y2="987.9844"/><line style="stroke:#181818;stroke-width:0.5;stroke-dasharray:5.0,5.0;" x1="2338" x2="2338" y1="82.2813" y2="987.9844"/><line style="stroke:#181818;stroke-width:0.5;stroke-dasharray:5.0,5.0;" x1="2456" x2="2456" y1="82.2813" y2="987.9844"/><line style="stroke:#181818;stroke-width:0.5;stroke-dasharray:5.0,5.0;" x1="2599" x2="2599" y1="82.2813" y2="987.9844"/><line style="stroke:#181818;stroke-width:0.5;stroke-dasharray:5.0,5.0;" x1="2728" x2="2728" y1="82.2813" y2="987.9844"/><text fill="#000000" font-family="sans-serif" font-size="14" lengthAdjust="spacing" textLength="53" x="5" y="79.3145">Teacher</text><ellipse cx="34.5" cy="15.1406" fill="#E2E2F0" rx="8" ry="8" style="stroke:#181818;stroke-width:0.5;"/><path d="M34.5,23.1406 L34.5,50.1406 M21.5,31.1406 L47.5,31.1406 M34.5,50.1406 L21.5,65.1406 M34.5,50.1406 L47.5,65.1406 " fill="none" style="stroke:#181818;stroke-width:0.5;"/><text fill="#000000" font-family="sans-serif" font-size="14" lengthAdjust="spacing" textLength="53" x="5" y="999.6582">Teacher</text><ellipse cx="34.5" cy="1011.125" fill="#E2E2F0" rx="8" ry="8" style="stroke:#181818;stroke-width:0.5;"/><path d="M34.5,1019.125 L34.5,1046.125 M21.5,1027.125 L47.5,1027.125 M34.5,1046.125 L21.5,1061.125 M34.5,1046.125 L47.5,1061.125 " fill="none" style="stroke:#181818;stroke-width:0.5;"/><rect fill="#E2E2F0" height="45.2813" rx="2.5" ry="2.5" style="stroke:#181818;stroke-width:0.5;" width="136" x="235.5" y="36"/><text fill="#000000" font-family="sans-serif" font-size="14" font-style="italic" lengthAdjust="spacing" textLength="84" x="261.5" y="55.6738">&#171;application&#187;</text><text fill="#000000" font-family="sans-serif" font-size="14" lengthAdjust="spacing" textLength="122" x="242.5" y="71.3145">RescheduleClassUI</text><rect fill="#E2E2F0" height="45.2813" rx="2.5" ry="2.5" style="stroke:#181818;stroke-width:0.5;" width="136" x="235.5" y="986.9844"/><text fill="#000000" font-family="sans-serif" font-size="14" font-style="italic" lengthAdjust="spacing" textLength="84" x="261.5" y="1006.6582">&#171;application&#187;</text><text fill="#000000" font-family="sans-serif" font-size="14" lengthAdjust="spacing" textLength="122" x="242.5" y="1022.2988">RescheduleClassUI</text><rect fill="#E2E2F0" height="45.2813" rx="2.5" ry="2.5" style="stroke:#181818;stroke-width:0.5;" width="186" x="687.5" y="36"/><text fill="#000000" font-family="sans-serif" font-size="14" font-style="italic" lengthAdjust="spacing" textLength="84" x="738.5" y="55.6738">&#171;application&#187;</text><text fill="#000000" font-family="sans-serif" font-size="14" lengthAdjust="spacing" textLength="172" x="694.5" y="71.3145">RescheduleClassController</text><rect fill="#E2E2F0" height="45.2813" rx="2.5" ry="2.5" style="stroke:#181818;stroke-width:0.5;" width="186" x="687.5" y="986.9844"/><text fill="#000000" font-family="sans-serif" font-size="14" font-style="italic" lengthAdjust="spacing" textLength="84" x="738.5" y="1006.6582">&#171;application&#187;</text><text fill="#000000" font-family="sans-serif" font-size="14" lengthAdjust="spacing" textLength="172" x="694.5" y="1022.2988">RescheduleClassController</text><rect fill="#E2E2F0" height="45.2813" rx="2.5" ry="2.5" style="stroke:#181818;stroke-width:0.5;" width="171" x="1172" y="36"/><text fill="#000000" font-family="sans-serif" font-size="14" font-style="italic" lengthAdjust="spacing" textLength="84" x="1215.5" y="55.6738">&#171;application&#187;</text><text fill="#000000" font-family="sans-serif" font-size="14" lengthAdjust="spacing" textLength="157" x="1179" y="71.3145">RescheduleClassService</text><rect fill="#E2E2F0" height="45.2813" rx="2.5" ry="2.5" style="stroke:#181818;stroke-width:0.5;" width="171" x="1172" y="986.9844"/><text fill="#000000" font-family="sans-serif" font-size="14" font-style="italic" lengthAdjust="spacing" textLength="84" x="1215.5" y="1006.6582">&#171;application&#187;</text><text fill="#000000" font-family="sans-serif" font-size="14" lengthAdjust="spacing" textLength="157" x="1179" y="1022.2988">RescheduleClassService</text><rect fill="#E2E2F0" height="45.2813" rx="2.5" ry="2.5" style="stroke:#181818;stroke-width:0.5;" width="97" x="1617" y="36"/><text fill="#000000" font-family="sans-serif" font-size="14" font-style="italic" lengthAdjust="spacing" textLength="64" x="1633.5" y="55.6738">&#171;mapper&#187;</text><text fill="#000000" font-family="sans-serif" font-size="14" lengthAdjust="spacing" textLength="83" x="1624" y="71.3145">ClassMapper</text><rect fill="#E2E2F0" height="45.2813" rx="2.5" ry="2.5" style="stroke:#181818;stroke-width:0.5;" width="97" x="1617" y="986.9844"/><text fill="#000000" font-family="sans-serif" font-size="14" font-style="italic" lengthAdjust="spacing" textLength="64" x="1633.5" y="1006.6582">&#171;mapper&#187;</text><text fill="#000000" font-family="sans-serif" font-size="14" lengthAdjust="spacing" textLength="83" x="1624" y="1022.2988">ClassMapper</text><rect fill="#E2E2F0" height="45.2813" rx="2.5" ry="2.5" style="stroke:#181818;stroke-width:0.5;" width="123" x="2073" y="36"/><text fill="#000000" font-family="sans-serif" font-size="14" font-style="italic" lengthAdjust="spacing" textLength="46" x="2111.5" y="55.6738">&#171;DTO&#187;</text><text fill="#000000" font-family="sans-serif" font-size="14" lengthAdjust="spacing" textLength="109" x="2080" y="71.3145">BuilderDTOClass</text><rect fill="#E2E2F0" height="45.2813" rx="2.5" ry="2.5" style="stroke:#181818;stroke-width:0.5;" width="123" x="2073" y="986.9844"/><text fill="#000000" font-family="sans-serif" font-size="14" font-style="italic" lengthAdjust="spacing" textLength="46" x="2111.5" y="1006.6582">&#171;DTO&#187;</text><text fill="#000000" font-family="sans-serif" font-size="14" lengthAdjust="spacing" textLength="109" x="2080" y="1022.2988">BuilderDTOClass</text><rect fill="#E2E2F0" height="45.2813" rx="2.5" ry="2.5" style="stroke:#181818;stroke-width:0.5;" width="79" x="2299" y="36"/><text fill="#000000" font-family="sans-serif" font-size="14" font-style="italic" lengthAdjust="spacing" textLength="46" x="2315.5" y="55.6738">&#171;DTO&#187;</text><text fill="#000000" font-family="sans-serif" font-size="14" lengthAdjust="spacing" textLength="65" x="2306" y="71.3145">ClassDTO</text><rect fill="#E2E2F0" height="45.2813" rx="2.5" ry="2.5" style="stroke:#181818;stroke-width:0.5;" width="79" x="2299" y="986.9844"/><text fill="#000000" font-family="sans-serif" font-size="14" font-style="italic" lengthAdjust="spacing" textLength="46" x="2315.5" y="1006.6582">&#171;DTO&#187;</text><text fill="#000000" font-family="sans-serif" font-size="14" lengthAdjust="spacing" textLength="65" x="2306" y="1022.2988">ClassDTO</text><rect fill="#E2E2F0" height="45.2813" rx="2.5" ry="2.5" style="stroke:#181818;stroke-width:0.5;" width="136" x="2388" y="36"/><text fill="#000000" font-family="sans-serif" font-size="14" font-style="italic" lengthAdjust="spacing" textLength="89" x="2411.5" y="55.6738">&#171;persistence&#187;</text><text fill="#000000" font-family="sans-serif" font-size="14" lengthAdjust="spacing" textLength="122" x="2395" y="71.3145">PersistenceContext</text><rect fill="#E2E2F0" height="45.2813" rx="2.5" ry="2.5" style="stroke:#181818;stroke-width:0.5;" width="136" x="2388" y="986.9844"/><text fill="#000000" font-family="sans-serif" font-size="14" font-style="italic" lengthAdjust="spacing" textLength="89" x="2411.5" y="1006.6582">&#171;persistence&#187;</text><text fill="#000000" font-family="sans-serif" font-size="14" lengthAdjust="spacing" textLength="122" x="2395" y="1022.2988">PersistenceContext</text><rect fill="#E2E2F0" height="45.2813" rx="2.5" ry="2.5" style="stroke:#181818;stroke-width:0.5;" width="130" x="2534" y="36"/><text fill="#000000" font-family="sans-serif" font-size="14" font-style="italic" lengthAdjust="spacing" textLength="59" x="2569.5" y="55.6738">&#171;factory&#187;</text><text fill="#000000" font-family="sans-serif" font-size="14" lengthAdjust="spacing" textLength="116" x="2541" y="71.3145">RepositoryFactory</text><rect fill="#E2E2F0" height="45.2813" rx="2.5" ry="2.5" style="stroke:#181818;stroke-width:0.5;" width="130" x="2534" y="986.9844"/><text fill="#000000" font-family="sans-serif" font-size="14" font-style="italic" lengthAdjust="spacing" textLength="59" x="2569.5" y="1006.6582">&#171;factory&#187;</text><text fill="#000000" font-family="sans-serif" font-size="14" lengthAdjust="spacing" textLength="116" x="2541" y="1022.2988">RepositoryFactory</text><text fill="#000000" font-family="sans-serif" font-size="14" font-style="italic" lengthAdjust="spacing" textLength="79" x="2686" y="63.6738">&#171;repository&#187;</text><text fill="#000000" font-family="sans-serif" font-size="14" lengthAdjust="spacing" textLength="103" x="2674" y="79.3145">ClassRepository</text><path d="M2710.5,15 C2710.5,5 2728.5,5 2728.5,5 C2728.5,5 2746.5,5 2746.5,15 L2746.5,41 C2746.5,51 2728.5,51 2728.5,51 C2728.5,51 2710.5,51 2710.5,41 L2710.5,15 " fill="#E2E2F0" style="stroke:#181818;stroke-width:1.5;"/><path d="M2710.5,15 C2710.5,25 2728.5,25 2728.5,25 C2728.5,25 2746.5,25 2746.5,15 " fill="none" style="stroke:#181818;stroke-width:1.5;"/><text fill="#000000" font-family="sans-serif" font-size="14" font-style="italic" lengthAdjust="spacing" textLength="79" x="2686" y="999.6582">&#171;repository&#187;</text><text fill="#000000" font-family="sans-serif" font-size="14" lengthAdjust="spacing" textLength="103" x="2674" y="1015.2988">ClassRepository</text><path d="M2710.5,1028.2656 C2710.5,1018.2656 2728.5,1018.2656 2728.5,1018.2656 C2728.5,1018.2656 2746.5,1018.2656 2746.5,1028.2656 L2746.5,1054.2656 C2746.5,1064.2656 2728.5,1064.2656 2728.5,1064.2656 C2728.5,1064.2656 2710.5,1064.2656 2710.5,1054.2656 L2710.5,1028.2656 " fill="#E2E2F0" style="stroke:#181818;stroke-width:1.5;"/><path d="M2710.5,1028.2656 C2710.5,1038.2656 2728.5,1038.2656 2728.5,1038.2656 C2728.5,1038.2656 2746.5,1038.2656 2746.5,1028.2656 " fill="none" style="stroke:#181818;stroke-width:1.5;"/><rect fill="#FFFFFF" height="886.7031" style="stroke:#181818;stroke-width:1.0;" width="10" x="29.5" y="92.2813"/><rect fill="#FFFFFF" height="886.7031" style="stroke:#181818;stroke-width:1.0;" width="10" x="298.5" y="92.2813"/><rect fill="#FFFFFF" height="800.1328" style="stroke:#181818;stroke-width:1.0;" width="10" x="775.5" y="141.3281"/><rect fill="#FFFFFF" height="743.0859" style="stroke:#181818;stroke-width:1.0;" width="10" x="1252.5" y="169.8516"/><rect fill="#FFFFFF" height="142.6172" style="stroke:#181818;stroke-width:1.0;" width="10" x="1660.5" y="450.0859"/><rect fill="#FFFFFF" height="142.6172" style="stroke:#181818;stroke-width:1.0;" width="10" x="1660.5" y="693.2734"/><rect fill="#FFFFFF" height="85.5703" style="stroke:#181818;stroke-width:1.0;" width="10" x="2129.5" y="478.6094"/><rect fill="#FFFFFF" height="85.5703" style="stroke:#181818;stroke-width:1.0;" width="10" x="2129.5" y="721.7969"/><rect fill="#FFFFFF" height="57.0469" style="stroke:#181818;stroke-width:1.0;" width="10" x="2451" y="198.375"/><rect fill="#FFFFFF" height="57.0469" style="stroke:#181818;stroke-width:1.0;" width="10" x="2594" y="283.9453"/><polygon fill="#181818" points="286.5,108.8047,296.5,112.8047,286.5,116.8047,290.5,112.8047" style="stroke:#181818;stroke-width:1.0;"/><line style="stroke:#181818;stroke-width:1.0;" x1="39.5" x2="292.5" y1="112.8047" y2="112.8047"/><text fill="#000000" font-family="sans-serif" font-size="13" font-weight="bold" lengthAdjust="spacing" textLength="7" x="46.5" y="108.0498">1</text><text fill="#000000" font-family="sans-serif" font-size="13" lengthAdjust="spacing" textLength="162" x="57.5" y="108.0498">wants to reschedule a class</text><polygon fill="#181818" points="763.5,137.3281,773.5,141.3281,763.5,145.3281,767.5,141.3281" style="stroke:#181818;stroke-width:1.0;"/><line style="stroke:#181818;stroke-width:1.0;" x1="308.5" x2="769.5" y1="141.3281" y2="141.3281"/><text fill="#000000" font-family="sans-serif" font-size="13" font-weight="bold" lengthAdjust="spacing" textLength="7" x="315.5" y="136.5732">2</text><text fill="#000000" font-family="sans-serif" font-size="13" lengthAdjust="spacing" textLength="114" x="326.5" y="136.5732">requestInformation()</text><polygon fill="#181818" points="1240.5,165.8516,1250.5,169.8516,1240.5,173.8516,1244.5,169.8516" style="stroke:#181818;stroke-width:1.0;"/><line style="stroke:#181818;stroke-width:1.0;" x1="785.5" x2="1246.5" y1="169.8516" y2="169.8516"/><text fill="#000000" font-family="sans-serif" font-size="13" font-weight="bold" lengthAdjust="spacing" textLength="7" x="792.5" y="165.0967">3</text><text fill="#000000" font-family="sans-serif" font-size="13" lengthAdjust="spacing" textLength="114" x="803.5" y="165.0967">requestInformation()</text><polygon fill="#181818" points="2439,194.375,2449,198.375,2439,202.375,2443,198.375" style="stroke:#181818;stroke-width:1.0;"/><line style="stroke:#181818;stroke-width:1.0;" x1="1262.5" x2="2445" y1="198.375" y2="198.375"/><text fill="#000000" font-family="sans-serif" font-size="13" font-weight="bold" lengthAdjust="spacing" textLength="7" x="1269.5" y="193.6201">4</text><text fill="#000000" font-family="sans-serif" font-size="13" lengthAdjust="spacing" textLength="75" x="1280.5" y="193.6201">repositories()</text><polygon fill="#181818" points="2587,222.8984,2597,226.8984,2587,230.8984,2591,226.8984" style="stroke:#181818;stroke-width:1.0;"/><line style="stroke:#181818;stroke-width:1.0;" x1="2461" x2="2593" y1="226.8984" y2="226.8984"/><text fill="#000000" font-family="sans-serif" font-size="13" font-weight="bold" lengthAdjust="spacing" textLength="7" x="2468" y="222.1436">5</text><text fill="#000000" font-family="sans-serif" font-size="13" lengthAdjust="spacing" textLength="36" x="2479" y="222.1436">create</text><polygon fill="#181818" points="1273.5,251.4219,1263.5,255.4219,1273.5,259.4219,1269.5,255.4219" style="stroke:#181818;stroke-width:1.0;"/><line style="stroke:#181818;stroke-width:1.0;" x1="1267.5" x2="2455" y1="255.4219" y2="255.4219"/><text fill="#000000" font-family="sans-serif" font-size="13" font-weight="bold" lengthAdjust="spacing" textLength="7" x="1279.5" y="250.667">6</text><text fill="#000000" font-family="sans-serif" font-size="13" lengthAdjust="spacing" textLength="39" x="1290.5" y="250.667">factory</text><polygon fill="#181818" points="2582,279.9453,2592,283.9453,2582,287.9453,2586,283.9453" style="stroke:#181818;stroke-width:1.0;"/><line style="stroke:#181818;stroke-width:1.0;" x1="1262.5" x2="2588" y1="283.9453" y2="283.9453"/><text fill="#000000" font-family="sans-serif" font-size="13" font-weight="bold" lengthAdjust="spacing" textLength="7" x="1269.5" y="279.1904">7</text><text fill="#000000" font-family="sans-serif" font-size="13" lengthAdjust="spacing" textLength="53" x="1280.5" y="279.1904">classes()</text><polygon fill="#181818" points="2716.5,308.4688,2726.5,312.4688,2716.5,316.4688,2720.5,312.4688" style="stroke:#181818;stroke-width:1.0;"/><line style="stroke:#181818;stroke-width:1.0;" x1="2604" x2="2722.5" y1="312.4688" y2="312.4688"/><text fill="#000000" font-family="sans-serif" font-size="13" font-weight="bold" lengthAdjust="spacing" textLength="7" x="2611" y="307.7139">8</text><text fill="#000000" font-family="sans-serif" font-size="13" lengthAdjust="spacing" textLength="36" x="2622" y="307.7139">create</text><polygon fill="#181818" points="1273.5,336.9922,1263.5,340.9922,1273.5,344.9922,1269.5,340.9922" style="stroke:#181818;stroke-width:1.0;"/><line style="stroke:#181818;stroke-width:1.0;" x1="1267.5" x2="2598" y1="340.9922" y2="340.9922"/><text fill="#000000" font-family="sans-serif" font-size="13" font-weight="bold" lengthAdjust="spacing" textLength="7" x="1279.5" y="336.2373">9</text><text fill="#000000" font-family="sans-serif" font-size="13" lengthAdjust="spacing" textLength="87" x="1290.5" y="336.2373">userRepository</text><polygon fill="#181818" points="2716.5,365.5156,2726.5,369.5156,2716.5,373.5156,2720.5,369.5156" style="stroke:#181818;stroke-width:1.0;"/><line style="stroke:#181818;stroke-width:1.0;" x1="1262.5" x2="2722.5" y1="369.5156" y2="369.5156"/><text fill="#000000" font-family="sans-serif" font-size="13" font-weight="bold" lengthAdjust="spacing" textLength="14" x="1269.5" y="364.7607">10</text><text fill="#000000" font-family="sans-serif" font-size="13" lengthAdjust="spacing" textLength="107" x="1287.5" y="364.7607">getListOfClasses()</text><polygon fill="#181818" points="1273.5,394.0391,1263.5,398.0391,1273.5,402.0391,1269.5,398.0391" style="stroke:#181818;stroke-width:1.0;"/><line style="stroke:#181818;stroke-width:1.0;" x1="1267.5" x2="2727.5" y1="398.0391" y2="398.0391"/><text fill="#000000" font-family="sans-serif" font-size="13" font-weight="bold" lengthAdjust="spacing" textLength="14" x="1279.5" y="393.2842">11</text><text fill="#000000" font-family="sans-serif" font-size="13" lengthAdjust="spacing" textLength="66" x="1297.5" y="393.2842">classesList</text><path d="M1162,413.0391 L1235,413.0391 L1235,419.5625 L1225,429.5625 L1162,429.5625 L1162,413.0391 " fill="#EEEEEE" style="stroke:#000000;stroke-width:1.5;"/><rect fill="none" height="229.1875" style="stroke:#000000;stroke-width:1.5;" width="1226" x="1162" y="413.0391"/><text fill="#000000" font-family="sans-serif" font-size="13" font-weight="bold" lengthAdjust="spacing" textLength="28" x="1177" y="425.8076">loop</text><text fill="#000000" font-family="sans-serif" font-size="11" font-weight="bold" lengthAdjust="spacing" textLength="85" x="1250" y="424.9971">[for each class]</text><polygon fill="#181818" points="1648.5,446.0859,1658.5,450.0859,1648.5,454.0859,1652.5,450.0859" style="stroke:#181818;stroke-width:1.0;"/><line style="stroke:#181818;stroke-width:1.0;" x1="1262.5" x2="1654.5" y1="450.0859" y2="450.0859"/><text fill="#000000" font-family="sans-serif" font-size="13" font-weight="bold" lengthAdjust="spacing" textLength="14" x="1269.5" y="445.3311">12</text><text fill="#000000" font-family="sans-serif" font-size="13" lengthAdjust="spacing" textLength="208" x="1287.5" y="445.3311">toDTOWithDateAndDuration(classe)</text><polygon fill="#181818" points="2117.5,474.6094,2127.5,478.6094,2117.5,482.6094,2121.5,478.6094" style="stroke:#181818;stroke-width:1.0;"/><line style="stroke:#181818;stroke-width:1.0;" x1="1670.5" x2="2123.5" y1="478.6094" y2="478.6094"/><text fill="#000000" font-family="sans-serif" font-size="13" font-weight="bold" lengthAdjust="spacing" textLength="14" x="1677.5" y="473.8545">13</text><text fill="#000000" font-family="sans-serif" font-size="13" lengthAdjust="spacing" textLength="422" x="1695.5" y="473.8545">toDTOWithDateAndDuration(classe.returnDates(),classe.returnDuration())</text><polygon fill="#181818" points="2326.5,503.1328,2336.5,507.1328,2326.5,511.1328,2330.5,507.1328" style="stroke:#181818;stroke-width:1.0;"/><line style="stroke:#181818;stroke-width:1.0;" x1="2139.5" x2="2332.5" y1="507.1328" y2="507.1328"/><text fill="#000000" font-family="sans-serif" font-size="13" font-weight="bold" lengthAdjust="spacing" textLength="14" x="2146.5" y="502.3779">14</text><text fill="#000000" font-family="sans-serif" font-size="13" lengthAdjust="spacing" textLength="36" x="2164.5" y="502.3779">create</text><polygon fill="#181818" points="2150.5,531.6563,2140.5,535.6563,2150.5,539.6563,2146.5,535.6563" style="stroke:#181818;stroke-width:1.0;"/><line style="stroke:#181818;stroke-width:1.0;" x1="2144.5" x2="2337.5" y1="535.6563" y2="535.6563"/><text fill="#000000" font-family="sans-serif" font-size="13" font-weight="bold" lengthAdjust="spacing" textLength="14" x="2156.5" y="530.9014">15</text><text fill="#000000" font-family="sans-serif" font-size="13" lengthAdjust="spacing" textLength="157" x="2174.5" y="530.9014">ClassWithWeeklyDateDTO</text><polygon fill="#181818" points="1681.5,560.1797,1671.5,564.1797,1681.5,568.1797,1677.5,564.1797" style="stroke:#181818;stroke-width:1.0;"/><line style="stroke:#181818;stroke-width:1.0;" x1="1675.5" x2="2133.5" y1="564.1797" y2="564.1797"/><text fill="#000000" font-family="sans-serif" font-size="13" font-weight="bold" lengthAdjust="spacing" textLength="14" x="1687.5" y="559.4248">16</text><text fill="#000000" font-family="sans-serif" font-size="13" lengthAdjust="spacing" textLength="157" x="1705.5" y="559.4248">ClassWithWeeklyDateDTO</text><polygon fill="#181818" points="1273.5,588.7031,1263.5,592.7031,1273.5,596.7031,1269.5,592.7031" style="stroke:#181818;stroke-width:1.0;"/><line style="stroke:#181818;stroke-width:1.0;" x1="1267.5" x2="1664.5" y1="592.7031" y2="592.7031"/><text fill="#000000" font-family="sans-serif" font-size="13" font-weight="bold" lengthAdjust="spacing" textLength="14" x="1279.5" y="587.9482">17</text><text fill="#000000" font-family="sans-serif" font-size="13" lengthAdjust="spacing" textLength="157" x="1297.5" y="587.9482">ClassWithWeeklyDateDTO</text><line style="stroke:#181818;stroke-width:1.0;" x1="1262.5" x2="1304.5" y1="621.2266" y2="621.2266"/><line style="stroke:#181818;stroke-width:1.0;" x1="1304.5" x2="1304.5" y1="621.2266" y2="634.2266"/><line style="stroke:#181818;stroke-width:1.0;" x1="1263.5" x2="1304.5" y1="634.2266" y2="634.2266"/><polygon fill="#181818" points="1273.5,630.2266,1263.5,634.2266,1273.5,638.2266,1269.5,634.2266" style="stroke:#181818;stroke-width:1.0;"/><text fill="#000000" font-family="sans-serif" font-size="13" font-weight="bold" lengthAdjust="spacing" textLength="14" x="1269.5" y="616.4717">18</text><text fill="#000000" font-family="sans-serif" font-size="13" lengthAdjust="spacing" textLength="366" x="1287.5" y="616.4717">classWithWeeklyDateListDTO.add(ClassWithWeeklyDateDTO)</text><path d="M1162,656.2266 L1235,656.2266 L1235,662.75 L1225,672.75 L1162,672.75 L1162,656.2266 " fill="#EEEEEE" style="stroke:#000000;stroke-width:1.5;"/><rect fill="none" height="229.1875" style="stroke:#000000;stroke-width:1.5;" width="1226" x="1162" y="656.2266"/><text fill="#000000" font-family="sans-serif" font-size="13" font-weight="bold" lengthAdjust="spacing" textLength="28" x="1177" y="668.9951">loop</text><text fill="#000000" font-family="sans-serif" font-size="11" font-weight="bold" lengthAdjust="spacing" textLength="85" x="1250" y="668.1846">[for each class]</text><polygon fill="#181818" points="1648.5,689.2734,1658.5,693.2734,1648.5,697.2734,1652.5,693.2734" style="stroke:#181818;stroke-width:1.0;"/><line style="stroke:#181818;stroke-width:1.0;" x1="1262.5" x2="1654.5" y1="693.2734" y2="693.2734"/><text fill="#000000" font-family="sans-serif" font-size="13" font-weight="bold" lengthAdjust="spacing" textLength="14" x="1269.5" y="688.5186">19</text><text fill="#000000" font-family="sans-serif" font-size="13" lengthAdjust="spacing" textLength="171" x="1287.5" y="688.5186">toDTOWithIdAndTittle(classe)</text><polygon fill="#181818" points="2117.5,717.7969,2127.5,721.7969,2117.5,725.7969,2121.5,721.7969" style="stroke:#181818;stroke-width:1.0;"/><line style="stroke:#181818;stroke-width:1.0;" x1="1670.5" x2="2123.5" y1="721.7969" y2="721.7969"/><text fill="#000000" font-family="sans-serif" font-size="13" font-weight="bold" lengthAdjust="spacing" textLength="14" x="1677.5" y="717.042">20</text><text fill="#000000" font-family="sans-serif" font-size="13" lengthAdjust="spacing" textLength="341" x="1695.5" y="717.042">toDTOWithIdAndTittle(classe.returnId(),classe.returnTittle())</text><polygon fill="#181818" points="2326.5,746.3203,2336.5,750.3203,2326.5,754.3203,2330.5,750.3203" style="stroke:#181818;stroke-width:1.0;"/><line style="stroke:#181818;stroke-width:1.0;" x1="2139.5" x2="2332.5" y1="750.3203" y2="750.3203"/><text fill="#000000" font-family="sans-serif" font-size="13" font-weight="bold" lengthAdjust="spacing" textLength="14" x="2146.5" y="745.5654">21</text><text fill="#000000" font-family="sans-serif" font-size="13" lengthAdjust="spacing" textLength="36" x="2164.5" y="745.5654">create</text><polygon fill="#181818" points="2150.5,774.8438,2140.5,778.8438,2150.5,782.8438,2146.5,778.8438" style="stroke:#181818;stroke-width:1.0;"/><line style="stroke:#181818;stroke-width:1.0;" x1="2144.5" x2="2337.5" y1="778.8438" y2="778.8438"/><text fill="#000000" font-family="sans-serif" font-size="13" font-weight="bold" lengthAdjust="spacing" textLength="14" x="2156.5" y="774.0889">22</text><text fill="#000000" font-family="sans-serif" font-size="13" lengthAdjust="spacing" textLength="145" x="2174.5" y="774.0889">classWithIdAndTittleDTO</text><polygon fill="#181818" points="1681.5,803.3672,1671.5,807.3672,1681.5,811.3672,1677.5,807.3672" style="stroke:#181818;stroke-width:1.0;"/><line style="stroke:#181818;stroke-width:1.0;" x1="1675.5" x2="2133.5" y1="807.3672" y2="807.3672"/><text fill="#000000" font-family="sans-serif" font-size="13" font-weight="bold" lengthAdjust="spacing" textLength="14" x="1687.5" y="802.6123">23</text><text fill="#000000" font-family="sans-serif" font-size="13" lengthAdjust="spacing" textLength="145" x="1705.5" y="802.6123">classWithIdAndTittleDTO</text><polygon fill="#181818" points="1273.5,831.8906,1263.5,835.8906,1273.5,839.8906,1269.5,835.8906" style="stroke:#181818;stroke-width:1.0;"/><line style="stroke:#181818;stroke-width:1.0;" x1="1267.5" x2="1664.5" y1="835.8906" y2="835.8906"/><text fill="#000000" font-family="sans-serif" font-size="13" font-weight="bold" lengthAdjust="spacing" textLength="14" x="1279.5" y="831.1357">24</text><text fill="#000000" font-family="sans-serif" font-size="13" lengthAdjust="spacing" textLength="145" x="1297.5" y="831.1357">classWithIdAndTittleDTO</text><line style="stroke:#181818;stroke-width:1.0;" x1="1262.5" x2="1304.5" y1="864.4141" y2="864.4141"/><line style="stroke:#181818;stroke-width:1.0;" x1="1304.5" x2="1304.5" y1="864.4141" y2="877.4141"/><line style="stroke:#181818;stroke-width:1.0;" x1="1263.5" x2="1304.5" y1="877.4141" y2="877.4141"/><polygon fill="#181818" points="1273.5,873.4141,1263.5,877.4141,1273.5,881.4141,1269.5,877.4141" style="stroke:#181818;stroke-width:1.0;"/><text fill="#000000" font-family="sans-serif" font-size="13" font-weight="bold" lengthAdjust="spacing" textLength="14" x="1269.5" y="859.6592">25</text><text fill="#000000" font-family="sans-serif" font-size="13" lengthAdjust="spacing" textLength="344" x="1287.5" y="859.6592">classWithIdAndTittleListDTO.add(classWithIdAndTittleDTO)</text><polygon fill="#181818" points="796.5,908.9375,786.5,912.9375,796.5,916.9375,792.5,912.9375" style="stroke:#181818;stroke-width:1.0;"/><line style="stroke:#181818;stroke-width:1.0;" x1="790.5" x2="1256.5" y1="912.9375" y2="912.9375"/><text fill="#000000" font-family="sans-serif" font-size="13" font-weight="bold" lengthAdjust="spacing" textLength="14" x="802.5" y="908.1826">26</text><text fill="#000000" font-family="sans-serif" font-size="13" lengthAdjust="spacing" textLength="425" x="820.5" y="908.1826">Pair&lt;List&lt;ClassWithWeeklyDateDTO&gt;, List&lt;ClassWithIdAndTittleDTO&gt;&gt;</text><polygon fill="#181818" points="319.5,937.4609,309.5,941.4609,319.5,945.4609,315.5,941.4609" style="stroke:#181818;stroke-width:1.0;"/><line style="stroke:#181818;stroke-width:1.0;" x1="313.5" x2="779.5" y1="941.4609" y2="941.4609"/><text fill="#000000" font-family="sans-serif" font-size="13" font-weight="bold" lengthAdjust="spacing" textLength="14" x="325.5" y="936.7061">27</text><text fill="#000000" font-family="sans-serif" font-size="13" lengthAdjust="spacing" textLength="425" x="343.5" y="936.7061">Pair&lt;List&lt;ClassWithWeeklyDateDTO&gt;, List&lt;ClassWithIdAndTittleDTO&gt;&gt;</text><polygon fill="#181818" points="50.5,965.9844,40.5,969.9844,50.5,973.9844,46.5,969.9844" style="stroke:#181818;stroke-width:1.0;"/><line style="stroke:#181818;stroke-width:1.0;" x1="44.5" x2="297.5" y1="969.9844" y2="969.9844"/><text fill="#000000" font-family="sans-serif" font-size="13" font-weight="bold" lengthAdjust="spacing" textLength="14" x="56.5" y="965.2295">28</text><text fill="#000000" font-family="sans-serif" font-size="13" lengthAdjust="spacing" textLength="217" x="74.5" y="965.2295">ask to choose a class to reeschedule</text><!--SRC=[jLLDRzim3BthLmYzh07Qv6uO0RO40m9iQB6bw5crcKQeOtcIt2t_VfGiIxIJD5ct-M9zy3tIVC_WXwsrZSbciwOIjMrtrRHGkvc17otK1ToMKZnhiMDCj5RLxUu9DAuBgpHVWoYsRji8RMKX6yJpgszWyBHiArXKmfY7rHKNXZ-iU9wBfgba8QnKzNp-9cgXQgjLLO7swBJz8vRle5zb0PuYh0_mxXbmUEHN3EfpftsUx_nxdFPJAwiIz79zvuCzR7IMvxWQu_mDdgSyk3aQUG_QI6ET8guNyCjw33d63slIxh0nZJ8IHTj_zjhjFJoi4RhfLguVfR3YIHW8vIMaXwGjedJSE21Io5TX8VeY7Zoi60k7_7Rkl93ndrYNuLPn7JNZWXSk9SC032EYPnY5VZHsLM-KtddjhYSfGGfb18KSlUhd248Sw-CHIdhhqE5B9HYA8q6CYe7uqDoC5nemT7mTCcKyj9wLS9ILL9GONPU6XOGxrakAuKcgM0EvZVbR0pg5qZ9wJbe3qJ_Zps2_O9rtcqKiYDmFsXzATk6CLKer77NWpXD1SvA3_768j0h_XqTfjqkiwMDTBblToTTHKXSa7ACSI3dw6y_JJZNOLjVk4Z_hPdZOXqv8yb46DixOVnSUyAX7F3bQed-x4Xy1NggzgmLlJpB7Zft04MN7nOwwbMGxJqMRJZGSAJ-aS2v0cgaeo-lZ6IOCwlAzHbcLgETQMbl1lpB98MNmmgeSkoD4_MTlnAwIoYuonodWUznn0TVbzY0Sr1ydSanOvn3g1ZelxeNKkUF9ZnjiViE7jqDwFmZXO3mCXukVOt-VY7OhpR7kwIPXFpipdC0lRcOMMwLCd9VT58rZz3S0]--></g></svg>