<?xml version="1.0" encoding="us-ascii" standalone="no"?><svg xmlns="http://www.w3.org/2000/svg" xmlns:xlink="http://www.w3.org/1999/xlink" contentStyleType="text/css" height="625px" preserveAspectRatio="none" style="width:2080px;height:625px;background:#FFFFFF;" version="1.1" viewBox="0 0 2080 625" width="2080px" zoomAndPan="magnify"><defs/><g><rect fill="#FFFFFF" height="421.8516" style="stroke:#181818;stroke-width:1.0;" width="10" x="29.5" y="92.2813"/><rect fill="#FFFFFF" height="421.8516" style="stroke:#181818;stroke-width:1.0;" width="10" x="408.5" y="92.2813"/><rect fill="#FFFFFF" height="344.2813" style="stroke:#181818;stroke-width:1.0;" width="10" x="846.5" y="141.3281"/><rect fill="#FFFFFF" height="287.2344" style="stroke:#181818;stroke-width:1.0;" width="10" x="1284.5" y="169.8516"/><rect fill="none" height="45.0469" style="stroke:#000000;stroke-width:1.5;" width="304" x="1194" y="184.8516"/><line style="stroke:#181818;stroke-width:0.5;stroke-dasharray:5.0,5.0;" x1="34" x2="34" y1="82.2813" y2="532.1328"/><line style="stroke:#181818;stroke-width:0.5;stroke-dasharray:5.0,5.0;" x1="413.5" x2="413.5" y1="82.2813" y2="532.1328"/><line style="stroke:#181818;stroke-width:0.5;stroke-dasharray:5.0,5.0;" x1="851.5" x2="851.5" y1="82.2813" y2="532.1328"/><line style="stroke:#181818;stroke-width:0.5;stroke-dasharray:5.0,5.0;" x1="1289" x2="1289" y1="82.2813" y2="532.1328"/><line style="stroke:#181818;stroke-width:0.5;stroke-dasharray:5.0,5.0;" x1="1436" x2="1436" y1="82.2813" y2="532.1328"/><line style="stroke:#181818;stroke-width:0.5;stroke-dasharray:5.0,5.0;" x1="1543" x2="1543" y1="82.2813" y2="532.1328"/><line style="stroke:#181818;stroke-width:0.5;stroke-dasharray:5.0,5.0;" x1="1636" x2="1636" y1="82.2813" y2="532.1328"/><line style="stroke:#181818;stroke-width:0.5;stroke-dasharray:5.0,5.0;" x1="1752" x2="1752" y1="82.2813" y2="532.1328"/><line style="stroke:#181818;stroke-width:0.5;stroke-dasharray:5.0,5.0;" x1="1895" x2="1895" y1="82.2813" y2="532.1328"/><line style="stroke:#181818;stroke-width:0.5;stroke-dasharray:5.0,5.0;" x1="2024" x2="2024" y1="82.2813" y2="532.1328"/><text fill="#000000" font-family="sans-serif" font-size="14" lengthAdjust="spacing" textLength="53" x="5" y="79.3145">Teacher</text><ellipse cx="34.5" cy="15.1406" fill="#E2E2F0" rx="8" ry="8" style="stroke:#181818;stroke-width:0.5;"/><path d="M34.5,23.1406 L34.5,50.1406 M21.5,31.1406 L47.5,31.1406 M34.5,50.1406 L21.5,65.1406 M34.5,50.1406 L47.5,65.1406 " fill="none" style="stroke:#181818;stroke-width:0.5;"/><text fill="#000000" font-family="sans-serif" font-size="14" lengthAdjust="spacing" textLength="53" x="5" y="543.8066">Teacher</text><ellipse cx="34.5" cy="555.2734" fill="#E2E2F0" rx="8" ry="8" style="stroke:#181818;stroke-width:0.5;"/><path d="M34.5,563.2734 L34.5,590.2734 M21.5,571.2734 L47.5,571.2734 M34.5,590.2734 L21.5,605.2734 M34.5,590.2734 L47.5,605.2734 " fill="none" style="stroke:#181818;stroke-width:0.5;"/><rect fill="#E2E2F0" height="45.2813" rx="2.5" ry="2.5" style="stroke:#181818;stroke-width:0.5;" width="136" x="345.5" y="36"/><text fill="#000000" font-family="sans-serif" font-size="14" font-style="italic" lengthAdjust="spacing" textLength="84" x="371.5" y="55.6738">&#171;application&#187;</text><text fill="#000000" font-family="sans-serif" font-size="14" lengthAdjust="spacing" textLength="122" x="352.5" y="71.3145">RescheduleClassUI</text><rect fill="#E2E2F0" height="45.2813" rx="2.5" ry="2.5" style="stroke:#181818;stroke-width:0.5;" width="136" x="345.5" y="531.1328"/><text fill="#000000" font-family="sans-serif" font-size="14" font-style="italic" lengthAdjust="spacing" textLength="84" x="371.5" y="550.8066">&#171;application&#187;</text><text fill="#000000" font-family="sans-serif" font-size="14" lengthAdjust="spacing" textLength="122" x="352.5" y="566.4473">RescheduleClassUI</text><rect fill="#E2E2F0" height="45.2813" rx="2.5" ry="2.5" style="stroke:#181818;stroke-width:0.5;" width="186" x="758.5" y="36"/><text fill="#000000" font-family="sans-serif" font-size="14" font-style="italic" lengthAdjust="spacing" textLength="84" x="809.5" y="55.6738">&#171;application&#187;</text><text fill="#000000" font-family="sans-serif" font-size="14" lengthAdjust="spacing" textLength="172" x="765.5" y="71.3145">RescheduleClassController</text><rect fill="#E2E2F0" height="45.2813" rx="2.5" ry="2.5" style="stroke:#181818;stroke-width:0.5;" width="186" x="758.5" y="531.1328"/><text fill="#000000" font-family="sans-serif" font-size="14" font-style="italic" lengthAdjust="spacing" textLength="84" x="809.5" y="550.8066">&#171;application&#187;</text><text fill="#000000" font-family="sans-serif" font-size="14" lengthAdjust="spacing" textLength="172" x="765.5" y="566.4473">RescheduleClassController</text><rect fill="#E2E2F0" height="45.2813" rx="2.5" ry="2.5" style="stroke:#181818;stroke-width:0.5;" width="171" x="1204" y="36"/><text fill="#000000" font-family="sans-serif" font-size="14" font-style="italic" lengthAdjust="spacing" textLength="84" x="1247.5" y="55.6738">&#171;application&#187;</text><text fill="#000000" font-family="sans-serif" font-size="14" lengthAdjust="spacing" textLength="157" x="1211" y="71.3145">RescheduleClassService</text><rect fill="#E2E2F0" height="45.2813" rx="2.5" ry="2.5" style="stroke:#181818;stroke-width:0.5;" width="171" x="1204" y="531.1328"/><text fill="#000000" font-family="sans-serif" font-size="14" font-style="italic" lengthAdjust="spacing" textLength="84" x="1247.5" y="550.8066">&#171;application&#187;</text><text fill="#000000" font-family="sans-serif" font-size="14" lengthAdjust="spacing" textLength="157" x="1211" y="566.4473">RescheduleClassService</text><rect fill="#E2E2F0" height="45.2813" rx="2.5" ry="2.5" style="stroke:#181818;stroke-width:0.5;" width="103" x="1385" y="36"/><text fill="#000000" font-family="sans-serif" font-size="14" font-style="italic" lengthAdjust="spacing" textLength="62" x="1405.5" y="55.6738">&#171;domain&#187;</text><text fill="#000000" font-family="sans-serif" font-size="14" lengthAdjust="spacing" textLength="89" x="1392" y="71.3145">ScheduleDate</text><rect fill="#E2E2F0" height="45.2813" rx="2.5" ry="2.5" style="stroke:#181818;stroke-width:0.5;" width="103" x="1385" y="531.1328"/><text fill="#000000" font-family="sans-serif" font-size="14" font-style="italic" lengthAdjust="spacing" textLength="62" x="1405.5" y="550.8066">&#171;domain&#187;</text><text fill="#000000" font-family="sans-serif" font-size="14" lengthAdjust="spacing" textLength="89" x="1392" y="566.4473">ScheduleDate</text><rect fill="#E2E2F0" height="45.2813" rx="2.5" ry="2.5" style="stroke:#181818;stroke-width:0.5;" width="90" x="1498" y="36"/><text fill="#000000" font-family="sans-serif" font-size="14" font-style="italic" lengthAdjust="spacing" textLength="62" x="1512" y="55.6738">&#171;domain&#187;</text><text fill="#000000" font-family="sans-serif" font-size="14" lengthAdjust="spacing" textLength="76" x="1505" y="71.3145">WeeklyDate</text><rect fill="#E2E2F0" height="45.2813" rx="2.5" ry="2.5" style="stroke:#181818;stroke-width:0.5;" width="90" x="1498" y="531.1328"/><text fill="#000000" font-family="sans-serif" font-size="14" font-style="italic" lengthAdjust="spacing" textLength="62" x="1512" y="550.8066">&#171;domain&#187;</text><text fill="#000000" font-family="sans-serif" font-size="14" lengthAdjust="spacing" textLength="76" x="1505" y="566.4473">WeeklyDate</text><rect fill="#E2E2F0" height="45.2813" rx="2.5" ry="2.5" style="stroke:#181818;stroke-width:0.5;" width="76" x="1598" y="36"/><text fill="#000000" font-family="sans-serif" font-size="14" font-style="italic" lengthAdjust="spacing" textLength="62" x="1605" y="55.6738">&#171;domain&#187;</text><text fill="#000000" font-family="sans-serif" font-size="14" lengthAdjust="spacing" textLength="35" x="1618.5" y="71.3145">Class</text><rect fill="#E2E2F0" height="45.2813" rx="2.5" ry="2.5" style="stroke:#181818;stroke-width:0.5;" width="76" x="1598" y="531.1328"/><text fill="#000000" font-family="sans-serif" font-size="14" font-style="italic" lengthAdjust="spacing" textLength="62" x="1605" y="550.8066">&#171;domain&#187;</text><text fill="#000000" font-family="sans-serif" font-size="14" lengthAdjust="spacing" textLength="35" x="1618.5" y="566.4473">Class</text><rect fill="#E2E2F0" height="45.2813" rx="2.5" ry="2.5" style="stroke:#181818;stroke-width:0.5;" width="136" x="1684" y="36"/><text fill="#000000" font-family="sans-serif" font-size="14" font-style="italic" lengthAdjust="spacing" textLength="89" x="1707.5" y="55.6738">&#171;persistence&#187;</text><text fill="#000000" font-family="sans-serif" font-size="14" lengthAdjust="spacing" textLength="122" x="1691" y="71.3145">PersistenceContext</text><rect fill="#E2E2F0" height="45.2813" rx="2.5" ry="2.5" style="stroke:#181818;stroke-width:0.5;" width="136" x="1684" y="531.1328"/><text fill="#000000" font-family="sans-serif" font-size="14" font-style="italic" lengthAdjust="spacing" textLength="89" x="1707.5" y="550.8066">&#171;persistence&#187;</text><text fill="#000000" font-family="sans-serif" font-size="14" lengthAdjust="spacing" textLength="122" x="1691" y="566.4473">PersistenceContext</text><rect fill="#E2E2F0" height="45.2813" rx="2.5" ry="2.5" style="stroke:#181818;stroke-width:0.5;" width="130" x="1830" y="36"/><text fill="#000000" font-family="sans-serif" font-size="14" font-style="italic" lengthAdjust="spacing" textLength="59" x="1865.5" y="55.6738">&#171;factory&#187;</text><text fill="#000000" font-family="sans-serif" font-size="14" lengthAdjust="spacing" textLength="116" x="1837" y="71.3145">RepositoryFactory</text><rect fill="#E2E2F0" height="45.2813" rx="2.5" ry="2.5" style="stroke:#181818;stroke-width:0.5;" width="130" x="1830" y="531.1328"/><text fill="#000000" font-family="sans-serif" font-size="14" font-style="italic" lengthAdjust="spacing" textLength="59" x="1865.5" y="550.8066">&#171;factory&#187;</text><text fill="#000000" font-family="sans-serif" font-size="14" lengthAdjust="spacing" textLength="116" x="1837" y="566.4473">RepositoryFactory</text><text fill="#000000" font-family="sans-serif" font-size="14" font-style="italic" lengthAdjust="spacing" textLength="79" x="1982" y="63.6738">&#171;repository&#187;</text><text fill="#000000" font-family="sans-serif" font-size="14" lengthAdjust="spacing" textLength="103" x="1970" y="79.3145">ClassRepository</text><path d="M2006.5,15 C2006.5,5 2024.5,5 2024.5,5 C2024.5,5 2042.5,5 2042.5,15 L2042.5,41 C2042.5,51 2024.5,51 2024.5,51 C2024.5,51 2006.5,51 2006.5,41 L2006.5,15 " fill="#E2E2F0" style="stroke:#181818;stroke-width:1.5;"/><path d="M2006.5,15 C2006.5,25 2024.5,25 2024.5,25 C2024.5,25 2042.5,25 2042.5,15 " fill="none" style="stroke:#181818;stroke-width:1.5;"/><text fill="#000000" font-family="sans-serif" font-size="14" font-style="italic" lengthAdjust="spacing" textLength="79" x="1982" y="543.8066">&#171;repository&#187;</text><text fill="#000000" font-family="sans-serif" font-size="14" lengthAdjust="spacing" textLength="103" x="1970" y="559.4473">ClassRepository</text><path d="M2006.5,572.4141 C2006.5,562.4141 2024.5,562.4141 2024.5,562.4141 C2024.5,562.4141 2042.5,562.4141 2042.5,572.4141 L2042.5,598.4141 C2042.5,608.4141 2024.5,608.4141 2024.5,608.4141 C2024.5,608.4141 2006.5,608.4141 2006.5,598.4141 L2006.5,572.4141 " fill="#E2E2F0" style="stroke:#181818;stroke-width:1.5;"/><path d="M2006.5,572.4141 C2006.5,582.4141 2024.5,582.4141 2024.5,582.4141 C2024.5,582.4141 2042.5,582.4141 2042.5,572.4141 " fill="none" style="stroke:#181818;stroke-width:1.5;"/><rect fill="#FFFFFF" height="421.8516" style="stroke:#181818;stroke-width:1.0;" width="10" x="29.5" y="92.2813"/><rect fill="#FFFFFF" height="421.8516" style="stroke:#181818;stroke-width:1.0;" width="10" x="408.5" y="92.2813"/><rect fill="#FFFFFF" height="344.2813" style="stroke:#181818;stroke-width:1.0;" width="10" x="846.5" y="141.3281"/><rect fill="#FFFFFF" height="287.2344" style="stroke:#181818;stroke-width:1.0;" width="10" x="1284.5" y="169.8516"/><polygon fill="#181818" points="396.5,108.8047,406.5,112.8047,396.5,116.8047,400.5,112.8047" style="stroke:#181818;stroke-width:1.0;"/><line style="stroke:#181818;stroke-width:1.0;" x1="39.5" x2="402.5" y1="112.8047" y2="112.8047"/><text fill="#000000" font-family="sans-serif" font-size="13" font-weight="bold" lengthAdjust="spacing" textLength="7" x="46.5" y="108.0498">1</text><text fill="#000000" font-family="sans-serif" font-size="13" lengthAdjust="spacing" textLength="104" x="57.5" y="108.0498">input from teacher</text><polygon fill="#181818" points="834.5,137.3281,844.5,141.3281,834.5,145.3281,838.5,141.3281" style="stroke:#181818;stroke-width:1.0;"/><line style="stroke:#181818;stroke-width:1.0;" x1="418.5" x2="840.5" y1="141.3281" y2="141.3281"/><text fill="#000000" font-family="sans-serif" font-size="13" font-weight="bold" lengthAdjust="spacing" textLength="7" x="425.5" y="136.5732">2</text><text fill="#000000" font-family="sans-serif" font-size="13" lengthAdjust="spacing" textLength="398" x="436.5" y="136.5732">reeschedule(List&lt;Weekly&gt;, List&lt;Integer&gt;, ClassWithIdAndTittleDTO)</text><polygon fill="#181818" points="1272.5,165.8516,1282.5,169.8516,1272.5,173.8516,1276.5,169.8516" style="stroke:#181818;stroke-width:1.0;"/><line style="stroke:#181818;stroke-width:1.0;" x1="856.5" x2="1278.5" y1="169.8516" y2="169.8516"/><text fill="#000000" font-family="sans-serif" font-size="13" font-weight="bold" lengthAdjust="spacing" textLength="7" x="863.5" y="165.0967">3</text><text fill="#000000" font-family="sans-serif" font-size="13" lengthAdjust="spacing" textLength="398" x="874.5" y="165.0967">reeschedule(List&lt;Weekly&gt;, List&lt;Integer&gt;, ClassWithIdAndTittleDTO)</text><path d="M1194,184.8516 L1267,184.8516 L1267,191.375 L1257,201.375 L1194,201.375 L1194,184.8516 " fill="#EEEEEE" style="stroke:#000000;stroke-width:1.5;"/><rect fill="none" height="45.0469" style="stroke:#000000;stroke-width:1.5;" width="304" x="1194" y="184.8516"/><text fill="#000000" font-family="sans-serif" font-size="13" font-weight="bold" lengthAdjust="spacing" textLength="28" x="1209" y="197.6201">loop</text><text fill="#000000" font-family="sans-serif" font-size="11" font-weight="bold" lengthAdjust="spacing" textLength="80" x="1282" y="196.8096">[for each date]</text><polygon fill="#181818" points="1424.5,217.8984,1434.5,221.8984,1424.5,225.8984,1428.5,221.8984" style="stroke:#181818;stroke-width:1.0;"/><line style="stroke:#181818;stroke-width:1.0;" x1="1294.5" x2="1430.5" y1="221.8984" y2="221.8984"/><text fill="#000000" font-family="sans-serif" font-size="13" font-weight="bold" lengthAdjust="spacing" textLength="7" x="1301.5" y="217.1436">4</text><text fill="#000000" font-family="sans-serif" font-size="13" lengthAdjust="spacing" textLength="36" x="1312.5" y="217.1436">create</text><polygon fill="#181818" points="1531,253.4219,1541,257.4219,1531,261.4219,1535,257.4219" style="stroke:#181818;stroke-width:1.0;"/><line style="stroke:#181818;stroke-width:1.0;" x1="1294.5" x2="1537" y1="257.4219" y2="257.4219"/><text fill="#000000" font-family="sans-serif" font-size="13" font-weight="bold" lengthAdjust="spacing" textLength="7" x="1301.5" y="252.667">5</text><text fill="#000000" font-family="sans-serif" font-size="13" lengthAdjust="spacing" textLength="36" x="1312.5" y="252.667">create</text><polygon fill="#181818" points="2012.5,281.9453,2022.5,285.9453,2012.5,289.9453,2016.5,285.9453" style="stroke:#181818;stroke-width:1.0;"/><line style="stroke:#181818;stroke-width:1.0;" x1="1294.5" x2="2018.5" y1="285.9453" y2="285.9453"/><text fill="#000000" font-family="sans-serif" font-size="13" font-weight="bold" lengthAdjust="spacing" textLength="7" x="1301.5" y="281.1904">6</text><text fill="#000000" font-family="sans-serif" font-size="13" lengthAdjust="spacing" textLength="125" x="1312.5" y="281.1904">findById(classDTO.id)</text><polygon fill="#181818" points="1305.5,310.4688,1295.5,314.4688,1305.5,318.4688,1301.5,314.4688" style="stroke:#181818;stroke-width:1.0;"/><line style="stroke:#181818;stroke-width:1.0;" x1="1299.5" x2="2023.5" y1="314.4688" y2="314.4688"/><text fill="#000000" font-family="sans-serif" font-size="13" font-weight="bold" lengthAdjust="spacing" textLength="7" x="1311.5" y="309.7139">7</text><text fill="#000000" font-family="sans-serif" font-size="13" lengthAdjust="spacing" textLength="31" x="1322.5" y="309.7139">class</text><polygon fill="#181818" points="1624,338.9922,1634,342.9922,1624,346.9922,1628,342.9922" style="stroke:#181818;stroke-width:1.0;"/><line style="stroke:#181818;stroke-width:1.0;" x1="1294.5" x2="1630" y1="342.9922" y2="342.9922"/><text fill="#000000" font-family="sans-serif" font-size="13" font-weight="bold" lengthAdjust="spacing" textLength="7" x="1301.5" y="338.2373">8</text><text fill="#000000" font-family="sans-serif" font-size="13" lengthAdjust="spacing" textLength="149" x="1312.5" y="338.2373">reeschedule(WeeklyDate)</text><polygon fill="#181818" points="1305.5,367.5156,1295.5,371.5156,1305.5,375.5156,1301.5,371.5156" style="stroke:#181818;stroke-width:1.0;"/><line style="stroke:#181818;stroke-width:1.0;" x1="1299.5" x2="1635" y1="371.5156" y2="371.5156"/><text fill="#000000" font-family="sans-serif" font-size="13" font-weight="bold" lengthAdjust="spacing" textLength="7" x="1311.5" y="366.7607">9</text><text fill="#000000" font-family="sans-serif" font-size="13" lengthAdjust="spacing" textLength="66" x="1322.5" y="366.7607">returns true</text><polygon fill="#181818" points="2012.5,396.0391,2022.5,400.0391,2012.5,404.0391,2016.5,400.0391" style="stroke:#181818;stroke-width:1.0;"/><line style="stroke:#181818;stroke-width:1.0;" x1="1294.5" x2="2018.5" y1="400.0391" y2="400.0391"/><text fill="#000000" font-family="sans-serif" font-size="13" font-weight="bold" lengthAdjust="spacing" textLength="14" x="1301.5" y="395.2842">10</text><text fill="#000000" font-family="sans-serif" font-size="13" lengthAdjust="spacing" textLength="65" x="1319.5" y="395.2842">save(class)</text><polygon fill="#181818" points="1305.5,424.5625,1295.5,428.5625,1305.5,432.5625,1301.5,428.5625" style="stroke:#181818;stroke-width:1.0;"/><line style="stroke:#181818;stroke-width:1.0;" x1="1299.5" x2="2023.5" y1="428.5625" y2="428.5625"/><text fill="#000000" font-family="sans-serif" font-size="13" font-weight="bold" lengthAdjust="spacing" textLength="14" x="1311.5" y="423.8076">11</text><text fill="#000000" font-family="sans-serif" font-size="13" lengthAdjust="spacing" textLength="66" x="1329.5" y="423.8076">returns true</text><polygon fill="#181818" points="867.5,453.0859,857.5,457.0859,867.5,461.0859,863.5,457.0859" style="stroke:#181818;stroke-width:1.0;"/><line style="stroke:#181818;stroke-width:1.0;" x1="861.5" x2="1288.5" y1="457.0859" y2="457.0859"/><text fill="#000000" font-family="sans-serif" font-size="13" font-weight="bold" lengthAdjust="spacing" textLength="14" x="873.5" y="452.3311">12</text><text fill="#000000" font-family="sans-serif" font-size="13" lengthAdjust="spacing" textLength="66" x="891.5" y="452.3311">returns true</text><polygon fill="#181818" points="429.5,481.6094,419.5,485.6094,429.5,489.6094,425.5,485.6094" style="stroke:#181818;stroke-width:1.0;"/><line style="stroke:#181818;stroke-width:1.0;" x1="423.5" x2="850.5" y1="485.6094" y2="485.6094"/><text fill="#000000" font-family="sans-serif" font-size="13" font-weight="bold" lengthAdjust="spacing" textLength="14" x="435.5" y="480.8545">13</text><text fill="#000000" font-family="sans-serif" font-size="13" lengthAdjust="spacing" textLength="66" x="453.5" y="480.8545">returns true</text><polygon fill="#181818" points="45.5,510.1328,35.5,514.1328,45.5,518.1328,41.5,514.1328" style="stroke:#181818;stroke-width:1.0;"/><line style="stroke:#181818;stroke-width:1.0;" x1="39.5" x2="412.5" y1="514.1328" y2="514.1328"/><text fill="#000000" font-family="sans-serif" font-size="13" font-weight="bold" lengthAdjust="spacing" textLength="14" x="51.5" y="509.3779">14</text><text fill="#000000" font-family="sans-serif" font-size="13" lengthAdjust="spacing" textLength="327" x="69.5" y="509.3779">The system notifies that the class has been rescheduled</text><!--SRC=[hLDDYzmm3BtxLvYzT0UwE_Sm3BHR2e52ItU6FNjYPMEQsAwj3Cs_hspdmpEpMIZq4YHBJtgINZuqYDONswrjXSQ-Qnyhqsqz_Ev1L_0WbNXrecDCz6Xqtvt0aLsXSVm0ecg2QuL3LIbBU7xt4pozohw5frPuVoplkF3yMFBTJbZRgagWCdg_VnVrP3GwqxRW8dfn_wdACxYpgY2M6EqR_1Nxvn7_HM321OD0qdH2tVHx0VZL3dDkSbUp8wSqJx1Mytw0yyfZM7yO7FvW16NF1BMBTxi5QxoY2mrVuw6621zjWjR92iDBWU8aF8pa5cI4B2wXtEm489LGvx2QIGJpmx5aR7pa3_jm-88hRNlajJCTnqaq5A1mTjc2EvZlT_-DXjkbXUu_ykYLj8jNSEH6iYyAcr9-qlAW4EbYX- -RXSLIbsKjgE6aW__QRIpAMcCih-dN24DoMYwmgH-rZb8gUEKW141BbaT7ySpnF9OTek2rqlBpKChxAl0Y8ezARbYMSZ5bJBeebiHtEVyYv0rZAU5gLzWxxJcw_XrcNfmXiQ8gQuHMIrr98SkISBFfowD6aQr1CYaapKtgBFYX0Uu7-eiwhWsgMW716u7qWRGvtj1_S0BGL7xQ5jqjhq-2pxpfVtYJm5y0]--></g></svg>